<?xml version="1.0" standalone="no"?>
 <!DOCTYPE svg PUBLIC "-//W3C//DTD SVG 1.1//EN" 
 "http://www.w3.org/Graphics/SVG/1.1/DTD/svg11.dtd"> 
<svg xmlns="http://www.w3.org/2000/svg" version="1.1" 
    width="27.94cm" height="21.59cm" viewBox="0 0 110000 85000 ">
<title>SVG Picture created as NeuroBytes_NID-brd.svg date 2018/03/08 12:25:47 </title>
  <desc>Picture generated by PCBNEW </desc>
<g style="fill:#000000; fill-opacity:1;stroke:#000000; stroke-opacity:1;
stroke-linecap:round; stroke-linejoin:round; "
 transform="translate(0 0) scale(1 1)">
</g>
<g style="fill:#000000; fill-opacity:0.0; 
stroke:#000000; stroke-width:-0.000393701; stroke-opacity:1; 
stroke-linecap:round; stroke-linejoin:round;">
</g>
<g style="fill:#000000; fill-opacity:0.0; 
stroke:#000000; stroke-width:39.3701; stroke-opacity:1; 
stroke-linecap:round; stroke-linejoin:round;">
</g>
<g style="fill:#000000; fill-opacity:0.0; 
stroke:#000000; stroke-width:59.0551; stroke-opacity:1; 
stroke-linecap:round; stroke-linejoin:round;">
<rect x="62755.9" y="67677.2" width="42519.7" height="12598.4" rx="0" />
</g>
<g style="fill:#000000; fill-opacity:0.0; 
stroke:#000000; stroke-width:39.3701; stroke-opacity:1; 
stroke-linecap:round; stroke-linejoin:round;">
</g>
<g style="fill:#000000; fill-opacity:0.0; 
stroke:#000000; stroke-width:59.0551; stroke-opacity:1; 
stroke-linecap:round; stroke-linejoin:round;">
<rect x="3937.01" y="3937.01" width="102126" height="77126" rx="0" />
</g>
<g style="fill:#000000; fill-opacity:0.0; 
stroke:#000000; stroke-width:39.3701; stroke-opacity:1; 
stroke-linecap:round; stroke-linejoin:round;">
</g>
<g style="fill:#000000; fill-opacity:0.0; 
stroke:#000000; stroke-width:59.0551; stroke-opacity:1; 
stroke-linecap:round; stroke-linejoin:round;">
<rect x="4724.41" y="4724.41" width="100551" height="75551.2" rx="0" />
</g>
<g style="fill:#000000; fill-opacity:0.0; 
stroke:#000000; stroke-width:39.3701; stroke-opacity:1; 
stroke-linecap:round; stroke-linejoin:round;">
</g>
<g style="fill:#000000; fill-opacity:0.0; 
stroke:#000000; stroke-width:59.0551; stroke-opacity:1; 
stroke-linecap:round; stroke-linejoin:round;">
<path d="M23622 4724
L23622 3937
" />
</g>
<g style="fill:#000000; fill-opacity:0.0; 
stroke:#000000; stroke-width:39.3701; stroke-opacity:1; 
stroke-linecap:round; stroke-linejoin:round;">
</g>
<g style="fill:#000000; fill-opacity:0.0; 
stroke:#000000; stroke-width:59.0551; stroke-opacity:1; 
stroke-linecap:round; stroke-linejoin:round;">
<path d="M43307 4724
L43307 3937
" />
</g>
<g style="fill:#000000; fill-opacity:0.0; 
stroke:#000000; stroke-width:39.3701; stroke-opacity:1; 
stroke-linecap:round; stroke-linejoin:round;">
</g>
<g style="fill:#000000; fill-opacity:0.0; 
stroke:#000000; stroke-width:59.0551; stroke-opacity:1; 
stroke-linecap:round; stroke-linejoin:round;">
<path d="M62992 4724
L62992 3937
" />
</g>
<g style="fill:#000000; fill-opacity:0.0; 
stroke:#000000; stroke-width:39.3701; stroke-opacity:1; 
stroke-linecap:round; stroke-linejoin:round;">
</g>
<g style="fill:#000000; fill-opacity:0.0; 
stroke:#000000; stroke-width:59.0551; stroke-opacity:1; 
stroke-linecap:round; stroke-linejoin:round;">
<path d="M82677 4724
L82677 3937
" />
</g>
<g style="fill:#000000; fill-opacity:0.0; 
stroke:#000000; stroke-width:39.3701; stroke-opacity:1; 
stroke-linecap:round; stroke-linejoin:round;">
</g>
<g style="fill:#000000; fill-opacity:0.0; 
stroke:#000000; stroke-width:59.0551; stroke-opacity:1; 
stroke-linecap:round; stroke-linejoin:round;">
<path d="M102362 4724
L102362 3937
" />
</g>
<g style="fill:#000000; fill-opacity:0.0; 
stroke:#000000; stroke-width:39.3701; stroke-opacity:1; 
stroke-linecap:round; stroke-linejoin:round;">
</g>
<g style="fill:#000000; fill-opacity:0.0; 
stroke:#000000; stroke-width:59.0551; stroke-opacity:1; 
stroke-linecap:round; stroke-linejoin:round;">
<path d="M14169 4562
L13877 4562
" />
<path d="M14023 4562
L14023 4050
L13974 4123
L13925 4172
L13877 4196
" />
</g>
<g style="fill:#000000; fill-opacity:0.0; 
stroke:#000000; stroke-width:39.3701; stroke-opacity:1; 
stroke-linecap:round; stroke-linejoin:round;">
</g>
<g style="fill:#000000; fill-opacity:0.0; 
stroke:#000000; stroke-width:59.0551; stroke-opacity:1; 
stroke-linecap:round; stroke-linejoin:round;">
<path d="M33562 4099
L33586 4074
L33635 4050
L33757 4050
L33805 4074
L33830 4099
L33854 4147
L33854 4196
L33830 4269
L33537 4562
L33854 4562
" />
</g>
<g style="fill:#000000; fill-opacity:0.0; 
stroke:#000000; stroke-width:39.3701; stroke-opacity:1; 
stroke-linecap:round; stroke-linejoin:round;">
</g>
<g style="fill:#000000; fill-opacity:0.0; 
stroke:#000000; stroke-width:59.0551; stroke-opacity:1; 
stroke-linecap:round; stroke-linejoin:round;">
<path d="M53222 4050
L53539 4050
L53368 4245
L53442 4245
L53490 4269
L53515 4294
L53539 4342
L53539 4464
L53515 4513
L53490 4537
L53442 4562
L53295 4562
L53247 4537
L53222 4513
" />
</g>
<g style="fill:#000000; fill-opacity:0.0; 
stroke:#000000; stroke-width:39.3701; stroke-opacity:1; 
stroke-linecap:round; stroke-linejoin:round;">
</g>
<g style="fill:#000000; fill-opacity:0.0; 
stroke:#000000; stroke-width:59.0551; stroke-opacity:1; 
stroke-linecap:round; stroke-linejoin:round;">
<path d="M73175 4221
L73175 4562
" />
<path d="M73053 4026
L72932 4391
L73248 4391
" />
</g>
<g style="fill:#000000; fill-opacity:0.0; 
stroke:#000000; stroke-width:39.3701; stroke-opacity:1; 
stroke-linecap:round; stroke-linejoin:round;">
</g>
<g style="fill:#000000; fill-opacity:0.0; 
stroke:#000000; stroke-width:59.0551; stroke-opacity:1; 
stroke-linecap:round; stroke-linejoin:round;">
<path d="M92885 4050
L92641 4050
L92617 4294
L92641 4269
L92690 4245
L92812 4245
L92860 4269
L92885 4294
L92909 4342
L92909 4464
L92885 4513
L92860 4537
L92812 4562
L92690 4562
L92641 4537
L92617 4513
" />
</g>
<g style="fill:#000000; fill-opacity:0.0; 
stroke:#000000; stroke-width:39.3701; stroke-opacity:1; 
stroke-linecap:round; stroke-linejoin:round;">
</g>
<g style="fill:#000000; fill-opacity:0.0; 
stroke:#000000; stroke-width:59.0551; stroke-opacity:1; 
stroke-linecap:round; stroke-linejoin:round;">
<path d="M23622 80275
L23622 81062
" />
</g>
<g style="fill:#000000; fill-opacity:0.0; 
stroke:#000000; stroke-width:39.3701; stroke-opacity:1; 
stroke-linecap:round; stroke-linejoin:round;">
</g>
<g style="fill:#000000; fill-opacity:0.0; 
stroke:#000000; stroke-width:59.0551; stroke-opacity:1; 
stroke-linecap:round; stroke-linejoin:round;">
<path d="M43307 80275
L43307 81062
" />
</g>
<g style="fill:#000000; fill-opacity:0.0; 
stroke:#000000; stroke-width:39.3701; stroke-opacity:1; 
stroke-linecap:round; stroke-linejoin:round;">
</g>
<g style="fill:#000000; fill-opacity:0.0; 
stroke:#000000; stroke-width:59.0551; stroke-opacity:1; 
stroke-linecap:round; stroke-linejoin:round;">
<path d="M62992 80275
L62992 81062
" />
</g>
<g style="fill:#000000; fill-opacity:0.0; 
stroke:#000000; stroke-width:39.3701; stroke-opacity:1; 
stroke-linecap:round; stroke-linejoin:round;">
</g>
<g style="fill:#000000; fill-opacity:0.0; 
stroke:#000000; stroke-width:59.0551; stroke-opacity:1; 
stroke-linecap:round; stroke-linejoin:round;">
<path d="M82677 80275
L82677 81062
" />
</g>
<g style="fill:#000000; fill-opacity:0.0; 
stroke:#000000; stroke-width:39.3701; stroke-opacity:1; 
stroke-linecap:round; stroke-linejoin:round;">
</g>
<g style="fill:#000000; fill-opacity:0.0; 
stroke:#000000; stroke-width:59.0551; stroke-opacity:1; 
stroke-linecap:round; stroke-linejoin:round;">
<path d="M102362 80275
L102362 81062
" />
</g>
<g style="fill:#000000; fill-opacity:0.0; 
stroke:#000000; stroke-width:39.3701; stroke-opacity:1; 
stroke-linecap:round; stroke-linejoin:round;">
</g>
<g style="fill:#000000; fill-opacity:0.0; 
stroke:#000000; stroke-width:59.0551; stroke-opacity:1; 
stroke-linecap:round; stroke-linejoin:round;">
<path d="M14169 80900
L13877 80900
" />
<path d="M14023 80900
L14023 80389
L13974 80462
L13925 80510
L13877 80535
" />
</g>
<g style="fill:#000000; fill-opacity:0.0; 
stroke:#000000; stroke-width:39.3701; stroke-opacity:1; 
stroke-linecap:round; stroke-linejoin:round;">
</g>
<g style="fill:#000000; fill-opacity:0.0; 
stroke:#000000; stroke-width:59.0551; stroke-opacity:1; 
stroke-linecap:round; stroke-linejoin:round;">
<path d="M33562 80437
L33586 80413
L33635 80389
L33757 80389
L33805 80413
L33830 80437
L33854 80486
L33854 80535
L33830 80608
L33537 80900
L33854 80900
" />
</g>
<g style="fill:#000000; fill-opacity:0.0; 
stroke:#000000; stroke-width:39.3701; stroke-opacity:1; 
stroke-linecap:round; stroke-linejoin:round;">
</g>
<g style="fill:#000000; fill-opacity:0.0; 
stroke:#000000; stroke-width:59.0551; stroke-opacity:1; 
stroke-linecap:round; stroke-linejoin:round;">
<path d="M53222 80389
L53539 80389
L53368 80583
L53442 80583
L53490 80608
L53515 80632
L53539 80681
L53539 80803
L53515 80852
L53490 80876
L53442 80900
L53295 80900
L53247 80876
L53222 80852
" />
</g>
<g style="fill:#000000; fill-opacity:0.0; 
stroke:#000000; stroke-width:39.3701; stroke-opacity:1; 
stroke-linecap:round; stroke-linejoin:round;">
</g>
<g style="fill:#000000; fill-opacity:0.0; 
stroke:#000000; stroke-width:59.0551; stroke-opacity:1; 
stroke-linecap:round; stroke-linejoin:round;">
<path d="M73175 80559
L73175 80900
" />
<path d="M73053 80364
L72932 80730
L73248 80730
" />
</g>
<g style="fill:#000000; fill-opacity:0.0; 
stroke:#000000; stroke-width:39.3701; stroke-opacity:1; 
stroke-linecap:round; stroke-linejoin:round;">
</g>
<g style="fill:#000000; fill-opacity:0.0; 
stroke:#000000; stroke-width:59.0551; stroke-opacity:1; 
stroke-linecap:round; stroke-linejoin:round;">
<path d="M92885 80389
L92641 80389
L92617 80632
L92641 80608
L92690 80583
L92812 80583
L92860 80608
L92885 80632
L92909 80681
L92909 80803
L92885 80852
L92860 80876
L92812 80900
L92690 80900
L92641 80876
L92617 80852
" />
</g>
<g style="fill:#000000; fill-opacity:0.0; 
stroke:#000000; stroke-width:39.3701; stroke-opacity:1; 
stroke-linecap:round; stroke-linejoin:round;">
</g>
<g style="fill:#000000; fill-opacity:0.0; 
stroke:#000000; stroke-width:59.0551; stroke-opacity:1; 
stroke-linecap:round; stroke-linejoin:round;">
<path d="M3937 23622
L4724 23622
" />
</g>
<g style="fill:#000000; fill-opacity:0.0; 
stroke:#000000; stroke-width:39.3701; stroke-opacity:1; 
stroke-linecap:round; stroke-linejoin:round;">
</g>
<g style="fill:#000000; fill-opacity:0.0; 
stroke:#000000; stroke-width:59.0551; stroke-opacity:1; 
stroke-linecap:round; stroke-linejoin:round;">
<path d="M3937 43307
L4724 43307
" />
</g>
<g style="fill:#000000; fill-opacity:0.0; 
stroke:#000000; stroke-width:39.3701; stroke-opacity:1; 
stroke-linecap:round; stroke-linejoin:round;">
</g>
<g style="fill:#000000; fill-opacity:0.0; 
stroke:#000000; stroke-width:59.0551; stroke-opacity:1; 
stroke-linecap:round; stroke-linejoin:round;">
<path d="M3937 62992
L4724 62992
" />
</g>
<g style="fill:#000000; fill-opacity:0.0; 
stroke:#000000; stroke-width:39.3701; stroke-opacity:1; 
stroke-linecap:round; stroke-linejoin:round;">
</g>
<g style="fill:#000000; fill-opacity:0.0; 
stroke:#000000; stroke-width:59.0551; stroke-opacity:1; 
stroke-linecap:round; stroke-linejoin:round;">
<path d="M4208 13864
L4452 13864
" />
<path d="M4160 14011
L4330 13499
L4501 14011
" />
</g>
<g style="fill:#000000; fill-opacity:0.0; 
stroke:#000000; stroke-width:39.3701; stroke-opacity:1; 
stroke-linecap:round; stroke-linejoin:round;">
</g>
<g style="fill:#000000; fill-opacity:0.0; 
stroke:#000000; stroke-width:59.0551; stroke-opacity:1; 
stroke-linecap:round; stroke-linejoin:round;">
<path d="M4367 33428
L4440 33452
L4464 33476
L4489 33525
L4489 33598
L4464 33647
L4440 33671
L4391 33696
L4196 33696
L4196 33184
L4367 33184
L4416 33208
L4440 33233
L4464 33281
L4464 33330
L4440 33379
L4416 33403
L4367 33428
L4196 33428
" />
</g>
<g style="fill:#000000; fill-opacity:0.0; 
stroke:#000000; stroke-width:39.3701; stroke-opacity:1; 
stroke-linecap:round; stroke-linejoin:round;">
</g>
<g style="fill:#000000; fill-opacity:0.0; 
stroke:#000000; stroke-width:59.0551; stroke-opacity:1; 
stroke-linecap:round; stroke-linejoin:round;">
<path d="M4489 53332
L4464 53356
L4391 53381
L4342 53381
L4269 53356
L4221 53308
L4196 53259
L4172 53161
L4172 53088
L4196 52991
L4221 52942
L4269 52893
L4342 52869
L4391 52869
L4464 52893
L4489 52918
" />
</g>
<g style="fill:#000000; fill-opacity:0.0; 
stroke:#000000; stroke-width:39.3701; stroke-opacity:1; 
stroke-linecap:round; stroke-linejoin:round;">
</g>
<g style="fill:#000000; fill-opacity:0.0; 
stroke:#000000; stroke-width:59.0551; stroke-opacity:1; 
stroke-linecap:round; stroke-linejoin:round;">
<path d="M4196 73066
L4196 72554
L4318 72554
L4391 72578
L4440 72627
L4464 72676
L4489 72773
L4489 72846
L4464 72944
L4440 72993
L4391 73041
L4318 73066
L4196 73066
" />
</g>
<g style="fill:#000000; fill-opacity:0.0; 
stroke:#000000; stroke-width:39.3701; stroke-opacity:1; 
stroke-linecap:round; stroke-linejoin:round;">
</g>
<g style="fill:#000000; fill-opacity:0.0; 
stroke:#000000; stroke-width:59.0551; stroke-opacity:1; 
stroke-linecap:round; stroke-linejoin:round;">
<path d="M106062 23622
L105275 23622
" />
</g>
<g style="fill:#000000; fill-opacity:0.0; 
stroke:#000000; stroke-width:39.3701; stroke-opacity:1; 
stroke-linecap:round; stroke-linejoin:round;">
</g>
<g style="fill:#000000; fill-opacity:0.0; 
stroke:#000000; stroke-width:59.0551; stroke-opacity:1; 
stroke-linecap:round; stroke-linejoin:round;">
<path d="M106062 43307
L105275 43307
" />
</g>
<g style="fill:#000000; fill-opacity:0.0; 
stroke:#000000; stroke-width:39.3701; stroke-opacity:1; 
stroke-linecap:round; stroke-linejoin:round;">
</g>
<g style="fill:#000000; fill-opacity:0.0; 
stroke:#000000; stroke-width:59.0551; stroke-opacity:1; 
stroke-linecap:round; stroke-linejoin:round;">
<path d="M106062 62992
L105275 62992
" />
</g>
<g style="fill:#000000; fill-opacity:0.0; 
stroke:#000000; stroke-width:39.3701; stroke-opacity:1; 
stroke-linecap:round; stroke-linejoin:round;">
</g>
<g style="fill:#000000; fill-opacity:0.0; 
stroke:#000000; stroke-width:59.0551; stroke-opacity:1; 
stroke-linecap:round; stroke-linejoin:round;">
<path d="M105547 13864
L105791 13864
" />
<path d="M105498 14011
L105669 13499
L105839 14011
" />
</g>
<g style="fill:#000000; fill-opacity:0.0; 
stroke:#000000; stroke-width:39.3701; stroke-opacity:1; 
stroke-linecap:round; stroke-linejoin:round;">
</g>
<g style="fill:#000000; fill-opacity:0.0; 
stroke:#000000; stroke-width:59.0551; stroke-opacity:1; 
stroke-linecap:round; stroke-linejoin:round;">
<path d="M105705 33428
L105778 33452
L105803 33476
L105827 33525
L105827 33598
L105803 33647
L105778 33671
L105730 33696
L105535 33696
L105535 33184
L105705 33184
L105754 33208
L105778 33233
L105803 33281
L105803 33330
L105778 33379
L105754 33403
L105705 33428
L105535 33428
" />
</g>
<g style="fill:#000000; fill-opacity:0.0; 
stroke:#000000; stroke-width:39.3701; stroke-opacity:1; 
stroke-linecap:round; stroke-linejoin:round;">
</g>
<g style="fill:#000000; fill-opacity:0.0; 
stroke:#000000; stroke-width:59.0551; stroke-opacity:1; 
stroke-linecap:round; stroke-linejoin:round;">
<path d="M105827 53332
L105803 53356
L105730 53381
L105681 53381
L105608 53356
L105559 53308
L105535 53259
L105510 53161
L105510 53088
L105535 52991
L105559 52942
L105608 52893
L105681 52869
L105730 52869
L105803 52893
L105827 52918
" />
</g>
<g style="fill:#000000; fill-opacity:0.0; 
stroke:#000000; stroke-width:39.3701; stroke-opacity:1; 
stroke-linecap:round; stroke-linejoin:round;">
</g>
<g style="fill:#000000; fill-opacity:0.0; 
stroke:#000000; stroke-width:59.0551; stroke-opacity:1; 
stroke-linecap:round; stroke-linejoin:round;">
<path d="M105535 73066
L105535 72554
L105657 72554
L105730 72578
L105778 72627
L105803 72676
L105827 72773
L105827 72846
L105803 72944
L105778 72993
L105730 73041
L105657 73066
L105535 73066
" />
</g>
<g style="fill:#000000; fill-opacity:0.0; 
stroke:#000000; stroke-width:39.3701; stroke-opacity:1; 
stroke-linecap:round; stroke-linejoin:round;">
</g>
<g style="fill:#000000; fill-opacity:0.0; 
stroke:#000000; stroke-width:59.0551; stroke-opacity:1; 
stroke-linecap:round; stroke-linejoin:round;">
<path d="M71951 78613
L71951 78023
L72092 78023
L72176 78051
L72232 78107
L72260 78163
L72289 78276
L72289 78360
L72260 78473
L72232 78529
L72176 78585
L72092 78613
L71951 78613
" />
<path d="M72795 78613
L72795 78304
L72767 78248
L72710 78219
L72598 78219
L72542 78248
" />
<path d="M72795 78585
L72739 78613
L72598 78613
L72542 78585
L72514 78529
L72514 78473
L72542 78416
L72598 78388
L72739 78388
L72795 78360
" />
<path d="M72992 78219
L73217 78219
" />
<path d="M73076 78023
L73076 78529
L73104 78585
L73160 78613
L73217 78613
" />
<path d="M73638 78585
L73582 78613
L73470 78613
L73413 78585
L73385 78529
L73385 78304
L73413 78248
L73470 78219
L73582 78219
L73638 78248
L73667 78304
L73667 78360
L73385 78416
" />
<path d="M73920 78557
L73948 78585
L73920 78613
L73892 78585
L73920 78557
L73920 78613
" />
<path d="M73920 78248
L73948 78276
L73920 78304
L73892 78276
L73920 78248
L73920 78304
" />
<path d="M74623 78079
L74651 78051
L74707 78023
L74848 78023
L74904 78051
L74932 78079
L74960 78135
L74960 78191
L74932 78276
L74595 78613
L74960 78613
" />
<path d="M75326 78023
L75382 78023
L75438 78051
L75466 78079
L75494 78135
L75523 78248
L75523 78388
L75494 78501
L75466 78557
L75438 78585
L75382 78613
L75326 78613
L75269 78585
L75241 78557
L75213 78501
L75185 78388
L75185 78248
L75213 78135
L75241 78079
L75269 78051
L75326 78023
" />
<path d="M76085 78613
L75748 78613
" />
<path d="M75916 78613
L75916 78023
L75860 78107
L75804 78163
L75748 78191
" />
<path d="M76422 78276
L76366 78248
L76338 78219
L76310 78163
L76310 78135
L76338 78079
L76366 78051
L76422 78023
L76535 78023
L76591 78051
L76619 78079
L76647 78135
L76647 78163
L76619 78219
L76591 78248
L76535 78276
L76422 78276
L76366 78304
L76338 78332
L76310 78388
L76310 78501
L76338 78557
L76366 78585
L76422 78613
L76535 78613
L76591 78585
L76619 78557
L76647 78501
L76647 78388
L76619 78332
L76591 78304
L76535 78276
" />
<path d="M76901 78388
L77350 78388
" />
<path d="M77744 78023
L77800 78023
L77857 78051
L77885 78079
L77913 78135
L77941 78248
L77941 78388
L77913 78501
L77885 78557
L77857 78585
L77800 78613
L77744 78613
L77688 78585
L77660 78557
L77632 78501
L77604 78388
L77604 78248
L77632 78135
L77660 78079
L77688 78051
L77744 78023
" />
<path d="M78166 78079
L78194 78051
L78250 78023
L78391 78023
L78447 78051
L78475 78079
L78503 78135
L78503 78191
L78475 78276
L78138 78613
L78503 78613
" />
<path d="M78757 78388
L79206 78388
" />
<path d="M79600 78023
L79656 78023
L79713 78051
L79741 78079
L79769 78135
L79797 78248
L79797 78388
L79769 78501
L79741 78557
L79713 78585
L79656 78613
L79600 78613
L79544 78585
L79516 78557
L79488 78501
L79460 78388
L79460 78248
L79488 78135
L79516 78079
L79544 78051
L79600 78023
" />
<path d="M80359 78613
L80022 78613
" />
<path d="M80191 78613
L80191 78023
L80134 78107
L80078 78163
L80022 78191
" />
</g>
<g style="fill:#000000; fill-opacity:0.0; 
stroke:#000000; stroke-width:39.3701; stroke-opacity:1; 
stroke-linecap:round; stroke-linejoin:round;">
</g>
<g style="fill:#000000; fill-opacity:0.0; 
stroke:#000000; stroke-width:59.0551; stroke-opacity:1; 
stroke-linecap:round; stroke-linejoin:round;">
<path d="M62755 78897
L105275 78897
" />
</g>
<g style="fill:#000000; fill-opacity:0.0; 
stroke:#000000; stroke-width:39.3701; stroke-opacity:1; 
stroke-linecap:round; stroke-linejoin:round;">
</g>
<g style="fill:#000000; fill-opacity:0.0; 
stroke:#000000; stroke-width:59.0551; stroke-opacity:1; 
stroke-linecap:round; stroke-linejoin:round;">
<path d="M63290 79715
L63290 79125
" />
<path d="M63627 79715
L63374 79378
" />
<path d="M63627 79125
L63290 79462
" />
<path d="M63880 79715
L63880 79322
" />
<path d="M63880 79125
L63852 79153
L63880 79181
L63908 79153
L63880 79125
L63880 79181
" />
<path d="M64499 79659
L64471 79687
L64386 79715
L64330 79715
L64246 79687
L64190 79631
L64161 79575
L64133 79462
L64133 79378
L64161 79266
L64190 79209
L64246 79153
L64330 79125
L64386 79125
L64471 79153
L64499 79181
" />
<path d="M65005 79715
L65005 79406
L64977 79350
L64921 79322
L64808 79322
L64752 79350
" />
<path d="M65005 79687
L64949 79715
L64808 79715
L64752 79687
L64724 79631
L64724 79575
L64752 79519
L64808 79491
L64949 79491
L65005 79462
" />
<path d="M65539 79715
L65539 79125
" />
<path d="M65539 79687
L65483 79715
L65371 79715
L65314 79687
L65286 79659
L65258 79603
L65258 79434
L65286 79378
L65314 79350
L65371 79322
L65483 79322
L65539 79350
" />
<path d="M66271 79406
L66467 79406
" />
<path d="M66552 79715
L66271 79715
L66271 79125
L66552 79125
" />
<path d="M66805 79659
L66833 79687
L66805 79715
L66777 79687
L66805 79659
L66805 79715
" />
<path d="M67086 79715
L67086 79125
L67227 79125
L67311 79153
L67367 79209
L67395 79266
L67424 79378
L67424 79462
L67395 79575
L67367 79631
L67311 79687
L67227 79715
L67086 79715
" />
<path d="M67677 79659
L67705 79687
L67677 79715
L67649 79687
L67677 79659
L67677 79715
" />
<path d="M67930 79547
L68211 79547
" />
<path d="M67874 79715
L68070 79125
L68267 79715
" />
<path d="M68464 79659
L68492 79687
L68464 79715
L68436 79687
L68464 79659
L68464 79715
" />
<path d="M69645 79715
L69645 79125
" />
<path d="M69701 79491
L69870 79715
" />
<path d="M69870 79322
L69645 79547
" />
<path d="M70123 79715
L70123 79322
" />
<path d="M70123 79125
L70095 79153
L70123 79181
L70151 79153
L70123 79125
L70123 79181
" />
<path d="M70658 79687
L70601 79715
L70489 79715
L70433 79687
L70404 79659
L70376 79603
L70376 79434
L70404 79378
L70433 79350
L70489 79322
L70601 79322
L70658 79350
" />
<path d="M71164 79715
L71164 79406
L71136 79350
L71079 79322
L70967 79322
L70911 79350
" />
<path d="M71164 79687
L71107 79715
L70967 79715
L70911 79687
L70883 79631
L70883 79575
L70911 79519
L70967 79491
L71107 79491
L71164 79462
" />
<path d="M71698 79715
L71698 79125
" />
<path d="M71698 79687
L71642 79715
L71529 79715
L71473 79687
L71445 79659
L71417 79603
L71417 79434
L71445 79378
L71473 79350
L71529 79322
L71642 79322
L71698 79350
" />
<path d="M72682 79322
L72682 79715
" />
<path d="M72542 79097
L72401 79519
L72767 79519
" />
<path d="M72992 79659
L73020 79687
L72992 79715
L72964 79687
L72992 79659
L72992 79715
" />
<path d="M73385 79125
L73442 79125
L73498 79153
L73526 79181
L73554 79237
L73582 79350
L73582 79491
L73554 79603
L73526 79659
L73498 79687
L73442 79715
L73385 79715
L73329 79687
L73301 79659
L73273 79603
L73245 79491
L73245 79350
L73273 79237
L73301 79181
L73329 79153
L73385 79125
" />
<path d="M73835 79659
L73863 79687
L73835 79715
L73807 79687
L73835 79659
L73835 79715
" />
<path d="M74060 79125
L74454 79125
L74201 79715
" />
<path d="M74679 79491
L75129 79491
" />
<path d="M75635 79687
L75579 79715
L75466 79715
L75410 79687
L75382 79631
L75382 79406
L75410 79350
L75466 79322
L75579 79322
L75635 79350
L75663 79406
L75663 79462
L75382 79519
" />
<path d="M75888 79181
L75916 79153
L75973 79125
L76113 79125
L76169 79153
L76197 79181
L76226 79237
L76226 79294
L76197 79378
L75860 79715
L76226 79715
" />
<path d="M76479 79491
L76929 79491
" />
<path d="M77463 79125
L77350 79125
L77294 79153
L77266 79181
L77210 79266
L77182 79378
L77182 79603
L77210 79659
L77238 79687
L77294 79715
L77407 79715
L77463 79687
L77491 79659
L77519 79603
L77519 79462
L77491 79406
L77463 79378
L77407 79350
L77294 79350
L77238 79378
L77210 79406
L77182 79462
" />
<path d="M77716 79125
L78082 79125
L77885 79350
L77969 79350
L78025 79378
L78053 79406
L78082 79462
L78082 79603
L78053 79659
L78025 79687
L77969 79715
L77800 79715
L77744 79687
L77716 79659
" />
<path d="M78278 79125
L78672 79125
L78419 79715
" />
<path d="M79150 79125
L79038 79125
L78982 79153
L78953 79181
L78897 79266
L78869 79378
L78869 79603
L78897 79659
L78925 79687
L78982 79715
L79094 79715
L79150 79687
L79178 79659
L79206 79603
L79206 79462
L79178 79406
L79150 79378
L79094 79350
L78982 79350
L78925 79378
L78897 79406
L78869 79462
" />
<path d="M79741 79125
L79460 79125
L79431 79406
L79460 79378
L79516 79350
L79656 79350
L79713 79378
L79741 79406
L79769 79462
L79769 79603
L79741 79659
L79713 79687
L79656 79715
L79516 79715
L79460 79687
L79431 79659
" />
<path d="M80106 79378
L80050 79350
L80022 79322
L79994 79266
L79994 79237
L80022 79181
L80050 79153
L80106 79125
L80219 79125
L80275 79153
L80303 79181
L80331 79237
L80331 79266
L80303 79322
L80275 79350
L80219 79378
L80106 79378
L80050 79406
L80022 79434
L79994 79491
L79994 79603
L80022 79659
L80050 79687
L80106 79715
L80219 79715
L80275 79687
L80303 79659
L80331 79603
L80331 79491
L80303 79434
L80275 79406
L80219 79378
" />
<path d="M79319 79023
L80444 79023
" />
<path d="M80838 79322
L80838 79715
" />
<path d="M80584 79322
L80584 79631
L80613 79687
L80669 79715
L80753 79715
L80809 79687
L80838 79659
" />
<path d="M81119 79715
L81119 79125
" />
<path d="M81119 79350
L81175 79322
L81287 79322
L81344 79350
L81372 79378
L81400 79434
L81400 79603
L81372 79659
L81344 79687
L81287 79715
L81175 79715
L81119 79687
" />
<path d="M81906 79322
L81906 79715
" />
<path d="M81653 79322
L81653 79631
L81681 79687
L81737 79715
L81822 79715
L81878 79687
L81906 79659
" />
<path d="M82187 79322
L82187 79715
" />
<path d="M82187 79378
L82215 79350
L82272 79322
L82356 79322
L82412 79350
L82440 79406
L82440 79715
" />
<path d="M82637 79322
L82862 79322
" />
<path d="M82722 79125
L82722 79631
L82750 79687
L82806 79715
L82862 79715
" />
<path d="M83312 79322
L83312 79715
" />
<path d="M83059 79322
L83059 79631
L83087 79687
L83143 79715
L83228 79715
L83284 79687
L83312 79659
" />
<path d="M83903 79715
L83565 79715
" />
<path d="M83734 79715
L83734 79125
L83678 79209
L83622 79266
L83565 79294
" />
<path d="M84409 79322
L84409 79715
" />
<path d="M84268 79097
L84128 79519
L84493 79519
" />
<path d="M84718 79659
L84746 79687
L84718 79715
L84690 79687
L84718 79659
L84718 79715
" />
<path d="M85112 79125
L85168 79125
L85224 79153
L85253 79181
L85281 79237
L85309 79350
L85309 79491
L85281 79603
L85253 79659
L85224 79687
L85168 79715
L85112 79715
L85056 79687
L85028 79659
L84999 79603
L84971 79491
L84971 79350
L84999 79237
L85028 79181
L85056 79153
L85112 79125
" />
<path d="M85815 79322
L85815 79715
" />
<path d="M85674 79097
L85534 79519
L85899 79519
" />
<path d="M86124 79659
L86152 79687
L86124 79715
L86096 79687
L86124 79659
L86124 79715
" />
<path d="M86715 79715
L86377 79715
" />
<path d="M86546 79715
L86546 79125
L86490 79209
L86434 79266
L86377 79294
" />
</g>
<g style="fill:#000000; fill-opacity:0.0; 
stroke:#000000; stroke-width:39.3701; stroke-opacity:1; 
stroke-linecap:round; stroke-linejoin:round;">
</g>
<g style="fill:#000000; fill-opacity:0.0; 
stroke:#000000; stroke-width:59.0551; stroke-opacity:1; 
stroke-linecap:round; stroke-linejoin:round;">
<path d="M62755 77716
L105275 77716
" />
</g>
<g style="fill:#000000; fill-opacity:0.0; 
stroke:#000000; stroke-width:39.3701; stroke-opacity:1; 
stroke-linecap:round; stroke-linejoin:round;">
</g>
<g style="fill:#000000; fill-opacity:0.0; 
stroke:#000000; stroke-width:118.11; stroke-opacity:1; 
stroke-linecap:round; stroke-linejoin:round;">
<path d="M97092 78613
L96895 78332
" />
<path d="M96754 78613
L96754 78023
L96979 78023
L97035 78051
L97064 78079
L97092 78135
L97092 78219
L97064 78276
L97035 78304
L96979 78332
L96754 78332
" />
<path d="M97570 78585
L97514 78613
L97401 78613
L97345 78585
L97317 78529
L97317 78304
L97345 78248
L97401 78219
L97514 78219
L97570 78248
L97598 78304
L97598 78360
L97317 78416
" />
<path d="M97795 78219
L97935 78613
L98076 78219
" />
<path d="M98301 78557
L98329 78585
L98301 78613
L98273 78585
L98301 78557
L98301 78613
" />
<path d="M98301 78248
L98329 78276
L98301 78304
L98273 78276
L98301 78248
L98301 78304
" />
<path d="M99032 78304
L99229 78304
" />
<path d="M99313 78613
L99032 78613
L99032 78023
L99313 78023
" />
</g>
<g style="fill:#000000; fill-opacity:0.0; 
stroke:#000000; stroke-width:39.3701; stroke-opacity:1; 
stroke-linecap:round; stroke-linejoin:round;">
</g>
<g style="fill:#000000; fill-opacity:0.0; 
stroke:#000000; stroke-width:59.0551; stroke-opacity:1; 
stroke-linecap:round; stroke-linejoin:round;">
<path d="M63262 78585
L63346 78613
L63487 78613
L63543 78585
L63571 78557
L63599 78501
L63599 78444
L63571 78388
L63543 78360
L63487 78332
L63374 78304
L63318 78276
L63290 78248
L63262 78191
L63262 78135
L63290 78079
L63318 78051
L63374 78023
L63515 78023
L63599 78051
" />
<path d="M63852 78613
L63852 78219
" />
<path d="M63852 78023
L63824 78051
L63852 78079
L63880 78051
L63852 78023
L63852 78079
" />
<path d="M64077 78219
L64386 78219
L64077 78613
L64386 78613
" />
<path d="M64836 78585
L64780 78613
L64668 78613
L64611 78585
L64583 78529
L64583 78304
L64611 78248
L64668 78219
L64780 78219
L64836 78248
L64865 78304
L64865 78360
L64583 78416
" />
<path d="M65118 78557
L65146 78585
L65118 78613
L65089 78585
L65118 78557
L65118 78613
" />
<path d="M65118 78248
L65146 78276
L65118 78304
L65089 78276
L65118 78248
L65118 78304
" />
<path d="M65821 78444
L66102 78444
" />
<path d="M65764 78613
L65961 78023
L66158 78613
" />
</g>
<g style="fill:#000000; fill-opacity:0.0; 
stroke:#000000; stroke-width:39.3701; stroke-opacity:1; 
stroke-linecap:round; stroke-linejoin:round;">
</g>
<g style="fill:#000000; fill-opacity:0.0; 
stroke:#000000; stroke-width:59.0551; stroke-opacity:1; 
stroke-linecap:round; stroke-linejoin:round;">
<path d="M96754 79715
L96754 79125
" />
<path d="M97289 79715
L97289 79125
" />
<path d="M97289 79687
L97232 79715
L97120 79715
L97064 79687
L97035 79659
L97007 79603
L97007 79434
L97035 79378
L97064 79350
L97120 79322
L97232 79322
L97289 79350
" />
<path d="M97570 79659
L97598 79687
L97570 79715
L97542 79687
L97570 79659
L97570 79715
" />
<path d="M97570 79350
L97598 79378
L97570 79406
L97542 79378
L97570 79350
L97570 79406
" />
<path d="M98610 79715
L98273 79715
" />
<path d="M98442 79715
L98442 79125
L98385 79209
L98329 79266
L98273 79294
" />
<path d="M99285 79097
L98779 79856
" />
<path d="M99791 79715
L99454 79715
" />
<path d="M99623 79715
L99623 79125
L99566 79209
L99510 79266
L99454 79294
" />
</g>
<g style="fill:#000000; fill-opacity:0.0; 
stroke:#000000; stroke-width:39.3701; stroke-opacity:1; 
stroke-linecap:round; stroke-linejoin:round;">
</g>
<g style="fill:#000000; fill-opacity:0.0; 
stroke:#000000; stroke-width:59.0551; stroke-opacity:1; 
stroke-linecap:round; stroke-linejoin:round;">
<path d="M62755 76141
L105275 76141
" />
</g>
<g style="fill:#000000; fill-opacity:0.0; 
stroke:#000000; stroke-width:39.3701; stroke-opacity:1; 
stroke-linecap:round; stroke-linejoin:round;">
</g>
<g style="fill:#000000; fill-opacity:0.0; 
stroke:#000000; stroke-width:157.48; stroke-opacity:1; 
stroke-linecap:round; stroke-linejoin:round;">
<path d="M63327 76419
L63777 76419
" />
<path d="M63454 77206
L63552 76419
" />
<path d="M63941 77206
L64007 76681
" />
<path d="M64040 76419
L63997 76456
L64030 76494
L64072 76456
L64040 76419
L64030 76494
" />
<path d="M64269 76681
L64569 76681
" />
<path d="M64415 76419
L64330 77094
L64358 77169
L64429 77206
L64504 77206
" />
<path d="M64879 77206
L64808 77169
L64780 77094
L64865 76419
" />
<path d="M65483 77169
L65404 77206
L65254 77206
L65183 77169
L65155 77094
L65193 76794
L65239 76719
L65319 76681
L65469 76681
L65539 76719
L65568 76794
L65558 76869
L65174 76944
" />
<path d="M65863 77131
L65896 77169
L65853 77206
L65821 77169
L65863 77131
L65853 77206
" />
<path d="M65914 76719
L65947 76756
L65905 76794
L65872 76756
L65914 76719
L65905 76794
" />
<path d="M66828 77206
L66927 76419
L67278 77206
L67377 76419
" />
<path d="M67958 77169
L67878 77206
L67728 77206
L67658 77169
L67630 77094
L67667 76794
L67714 76719
L67794 76681
L67944 76681
L68014 76719
L68042 76794
L68033 76869
L67649 76944
" />
<path d="M68731 76681
L68666 77206
" />
<path d="M68394 76681
L68342 77094
L68370 77169
L68441 77206
L68553 77206
L68633 77169
L68675 77131
" />
<path d="M69041 77206
L69106 76681
" />
<path d="M69087 76831
L69134 76756
L69176 76719
L69256 76681
L69331 76681
" />
<path d="M69640 77206
L69570 77169
L69537 77131
L69509 77056
L69537 76831
L69584 76756
L69626 76719
L69706 76681
L69819 76681
L69889 76719
L69922 76756
L69950 76831
L69922 77056
L69875 77131
L69833 77169
L69753 77206
L69640 77206
" />
<path d="M70554 76794
L70662 76831
L70695 76869
L70723 76944
L70709 77056
L70662 77131
L70620 77169
L70540 77206
L70240 77206
L70339 76419
L70601 76419
L70672 76456
L70704 76494
L70733 76569
L70723 76644
L70676 76719
L70634 76756
L70554 76794
L70292 76794
" />
<path d="M71018 76681
L71140 77206
" />
<path d="M71393 76681
L71140 77206
L71042 77394
L71000 77431
L70920 77469
" />
<path d="M71581 76681
L71881 76681
" />
<path d="M71726 76419
L71642 77094
L71670 77169
L71740 77206
L71815 77206
" />
<path d="M72382 77169
L72303 77206
L72153 77206
L72082 77169
L72054 77094
L72092 76794
L72139 76719
L72218 76681
L72368 76681
L72439 76719
L72467 76794
L72457 76869
L72073 76944
" />
<path d="M72720 77169
L72790 77206
L72940 77206
L73020 77169
L73067 77094
L73071 77056
L73043 76981
L72973 76944
L72860 76944
L72790 76906
L72762 76831
L72767 76794
L72814 76719
L72893 76681
L73006 76681
L73076 76719
" />
<path d="M73990 77206
L74088 76419
L74440 77206
L74538 76419
" />
<path d="M75119 77169
L75040 77206
L74890 77206
L74820 77169
L74791 77094
L74829 76794
L74876 76719
L74955 76681
L75105 76681
L75176 76719
L75204 76794
L75194 76869
L74810 76944
" />
<path d="M75443 76681
L75743 76681
" />
<path d="M75588 76419
L75504 77094
L75532 77169
L75602 77206
L75677 77206
" />
<path d="M75930 76681
L76015 77206
L76212 76831
L76315 77206
L76530 76681
" />
<path d="M76877 77206
L76807 77169
L76774 77131
L76746 77056
L76774 76831
L76821 76756
L76863 76719
L76943 76681
L77055 76681
L77125 76719
L77158 76756
L77186 76831
L77158 77056
L77111 77131
L77069 77169
L76990 77206
L76877 77206
" />
<path d="M77477 77206
L77543 76681
" />
<path d="M77524 76831
L77571 76756
L77613 76719
L77693 76681
L77768 76681
" />
<path d="M77964 77206
L78063 76419
" />
<path d="M78077 76906
L78264 77206
" />
<path d="M78330 76681
L77993 76981
" />
<path d="M79202 77206
L79300 76419
" />
<path d="M79642 76681
L79577 77206
" />
<path d="M79633 76756
L79675 76719
L79755 76681
L79867 76681
L79938 76719
L79966 76794
L79914 77206
" />
<path d="M80242 76681
L80542 76681
" />
<path d="M80388 76419
L80303 77094
L80331 77169
L80402 77206
L80477 77206
" />
<path d="M81044 77169
L80964 77206
L80814 77206
L80744 77169
L80716 77094
L80753 76794
L80800 76719
L80880 76681
L81030 76681
L81100 76719
L81128 76794
L81119 76869
L80734 76944
" />
<path d="M81414 77206
L81480 76681
" />
<path d="M81461 76831
L81508 76756
L81550 76719
L81630 76681
L81705 76681
" />
<path d="M81855 76681
L82155 76681
" />
<path d="M81901 77206
L81986 76531
L82033 76456
L82112 76419
L82187 76419
" />
<path d="M82689 77206
L82740 76794
L82712 76719
L82642 76681
L82492 76681
L82412 76719
" />
<path d="M82694 77169
L82614 77206
L82426 77206
L82356 77169
L82328 77094
L82337 77019
L82384 76944
L82464 76906
L82651 76906
L82731 76869
" />
<path d="M83406 77169
L83326 77206
L83176 77206
L83106 77169
L83073 77131
L83045 77056
L83073 76831
L83120 76756
L83162 76719
L83242 76681
L83392 76681
L83462 76719
" />
<path d="M84043 77169
L83964 77206
L83814 77206
L83743 77169
L83715 77094
L83753 76794
L83800 76719
L83879 76681
L84029 76681
L84100 76719
L84128 76794
L84118 76869
L83734 76944
" />
<path d="M85014 77206
L85112 76419
L85299 76419
L85407 76456
L85473 76531
L85501 76606
L85520 76756
L85506 76869
L85449 77019
L85403 77094
L85318 77169
L85201 77206
L85014 77206
" />
<path d="M86106 77169
L86026 77206
L85876 77206
L85806 77169
L85778 77094
L85815 76794
L85862 76719
L85942 76681
L86092 76681
L86162 76719
L86190 76794
L86181 76869
L85796 76944
" />
<path d="M86467 76681
L86588 77206
L86841 76681
" />
<path d="M87076 77206
L87141 76681
" />
<path d="M87174 76419
L87132 76456
L87165 76494
L87207 76456
L87174 76419
L87165 76494
" />
<path d="M87793 77169
L87713 77206
L87563 77206
L87493 77169
L87460 77131
L87432 77056
L87460 76831
L87507 76756
L87549 76719
L87629 76681
L87779 76681
L87849 76719
" />
<path d="M88430 77169
L88351 77206
L88201 77206
L88130 77169
L88102 77094
L88140 76794
L88187 76719
L88266 76681
L88416 76681
L88487 76719
L88515 76794
L88505 76869
L88121 76944
" />
<path d="M89588 77506
L89555 77469
L89494 77356
L89466 77281
L89443 77169
L89429 76981
L89447 76831
L89508 76644
L89560 76531
L89607 76456
L89696 76344
L89738 76306
" />
<path d="M89925 77206
L90024 76419
L90375 77206
L90474 76419
" />
<path d="M90750 77206
L90849 76419
" />
<path d="M91125 77206
L91224 76419
L91411 76419
L91519 76456
L91585 76531
L91613 76606
L91631 76756
L91617 76869
L91561 77019
L91514 77094
L91430 77169
L91313 77206
L91125 77206
" />
<path d="M91800 77506
L91842 77469
L91931 77356
L91978 77281
L92030 77169
L92091 76981
L92110 76831
L92095 76644
L92072 76531
L92044 76456
L91983 76344
L91950 76306
" />
</g>
<g style="fill:#000000; fill-opacity:0.0; 
stroke:#000000; stroke-width:39.3701; stroke-opacity:1; 
stroke-linecap:round; stroke-linejoin:round;">
</g>
<g style="fill:#000000; fill-opacity:0.0; 
stroke:#000000; stroke-width:59.0551; stroke-opacity:1; 
stroke-linecap:round; stroke-linejoin:round;">
<path d="M63487 75390
L63290 75390
" />
<path d="M63290 75700
L63290 75109
L63571 75109
" />
<path d="M63796 75700
L63796 75306
" />
<path d="M63796 75109
L63768 75137
L63796 75165
L63824 75137
L63796 75109
L63796 75165
" />
<path d="M64161 75700
L64105 75672
L64077 75615
L64077 75109
" />
<path d="M64611 75672
L64555 75700
L64443 75700
L64386 75672
L64358 75615
L64358 75390
L64386 75334
L64443 75306
L64555 75306
L64611 75334
L64640 75390
L64640 75447
L64358 75503
" />
<path d="M64893 75643
L64921 75672
L64893 75700
L64865 75672
L64893 75643
L64893 75700
" />
<path d="M64893 75334
L64921 75362
L64893 75390
L64865 75362
L64893 75334
L64893 75390
" />
<path d="M65624 75700
L65624 75109
L65961 75700
L65961 75109
" />
<path d="M66467 75672
L66411 75700
L66299 75700
L66242 75672
L66214 75615
L66214 75390
L66242 75334
L66299 75306
L66411 75306
L66467 75334
L66496 75390
L66496 75447
L66214 75503
" />
<path d="M67002 75306
L67002 75700
" />
<path d="M66749 75306
L66749 75615
L66777 75672
L66833 75700
L66917 75700
L66974 75672
L67002 75643
" />
<path d="M67283 75700
L67283 75306
" />
<path d="M67283 75419
L67311 75362
L67339 75334
L67395 75306
L67452 75306
" />
<path d="M67733 75700
L67677 75672
L67649 75643
L67620 75587
L67620 75419
L67649 75362
L67677 75334
L67733 75306
L67817 75306
L67874 75334
L67902 75362
L67930 75419
L67930 75587
L67902 75643
L67874 75672
L67817 75700
L67733 75700
" />
<path d="M68380 75390
L68464 75419
L68492 75447
L68520 75503
L68520 75587
L68492 75643
L68464 75672
L68408 75700
L68183 75700
L68183 75109
L68380 75109
L68436 75137
L68464 75165
L68492 75222
L68492 75278
L68464 75334
L68436 75362
L68380 75390
L68183 75390
" />
<path d="M68717 75306
L68858 75700
" />
<path d="M68998 75306
L68858 75700
L68802 75840
L68773 75868
L68717 75897
" />
<path d="M69139 75306
L69364 75306
" />
<path d="M69223 75109
L69223 75615
L69251 75672
L69308 75700
L69364 75700
" />
<path d="M69786 75672
L69730 75700
L69617 75700
L69561 75672
L69533 75615
L69533 75390
L69561 75334
L69617 75306
L69730 75306
L69786 75334
L69814 75390
L69814 75447
L69533 75503
" />
<path d="M70039 75672
L70095 75700
L70208 75700
L70264 75672
L70292 75615
L70292 75587
L70264 75531
L70208 75503
L70123 75503
L70067 75475
L70039 75419
L70039 75390
L70067 75334
L70123 75306
L70208 75306
L70264 75334
" />
<path d="M70404 75756
L70854 75756
" />
<path d="M70995 75700
L70995 75109
L71332 75700
L71332 75109
" />
<path d="M71614 75700
L71614 75109
" />
<path d="M71895 75700
L71895 75109
L72035 75109
L72120 75137
L72176 75194
L72204 75250
L72232 75362
L72232 75447
L72204 75559
L72176 75615
L72120 75672
L72035 75700
L71895 75700
" />
<path d="M72485 75643
L72514 75672
L72485 75700
L72457 75672
L72485 75643
L72485 75700
" />
<path d="M72767 75700
L72767 75109
" />
<path d="M72823 75475
L72992 75700
" />
<path d="M72992 75306
L72767 75531
" />
<path d="M73245 75700
L73245 75306
" />
<path d="M73245 75109
L73217 75137
L73245 75165
L73273 75137
L73245 75109
L73245 75165
" />
<path d="M73779 75672
L73723 75700
L73610 75700
L73554 75672
L73526 75643
L73498 75587
L73498 75419
L73526 75362
L73554 75334
L73610 75306
L73723 75306
L73779 75334
" />
<path d="M74285 75700
L74285 75390
L74257 75334
L74201 75306
L74088 75306
L74032 75334
" />
<path d="M74285 75672
L74229 75700
L74088 75700
L74032 75672
L74004 75615
L74004 75559
L74032 75503
L74088 75475
L74229 75475
L74285 75447
" />
<path d="M74820 75700
L74820 75109
" />
<path d="M74820 75672
L74763 75700
L74651 75700
L74595 75672
L74566 75643
L74538 75587
L74538 75419
L74566 75362
L74595 75334
L74651 75306
L74763 75306
L74820 75334
" />
<path d="M74960 75756
L75410 75756
" />
<path d="M75551 75306
L75551 75897
" />
<path d="M75551 75334
L75607 75306
L75719 75306
L75776 75334
L75804 75362
L75832 75419
L75832 75587
L75804 75643
L75776 75672
L75719 75700
L75607 75700
L75551 75672
" />
<path d="M76338 75672
L76282 75700
L76169 75700
L76113 75672
L76085 75643
L76057 75587
L76057 75419
L76085 75362
L76113 75334
L76169 75306
L76282 75306
L76338 75334
" />
<path d="M76591 75700
L76591 75109
" />
<path d="M76591 75334
L76647 75306
L76760 75306
L76816 75334
L76844 75362
L76872 75419
L76872 75587
L76844 75643
L76816 75672
L76760 75700
L76647 75700
L76591 75672
" />
</g>
<g style="fill:#000000; fill-opacity:0.0; 
stroke:#000000; stroke-width:39.3701; stroke-opacity:1; 
stroke-linecap:round; stroke-linejoin:round;">
</g>
<g style="fill:#000000; fill-opacity:0.0; 
stroke:#000000; stroke-width:59.0551; stroke-opacity:1; 
stroke-linecap:round; stroke-linejoin:round;">
<path d="M62755 73779
L105275 73779
" />
</g>
<g style="fill:#000000; fill-opacity:0.0; 
stroke:#000000; stroke-width:39.3701; stroke-opacity:1; 
stroke-linecap:round; stroke-linejoin:round;">
</g>
<g style="fill:#000000; fill-opacity:0.0; 
stroke:#000000; stroke-width:59.0551; stroke-opacity:1; 
stroke-linecap:round; stroke-linejoin:round;">
<path d="M63262 74609
L63346 74637
L63487 74637
L63543 74609
L63571 74580
L63599 74524
L63599 74468
L63571 74412
L63543 74384
L63487 74356
L63374 74327
L63318 74299
L63290 74271
L63262 74215
L63262 74159
L63290 74102
L63318 74074
L63374 74046
L63515 74046
L63599 74074
" />
<path d="M63852 74637
L63852 74046
" />
<path d="M64105 74637
L64105 74327
L64077 74271
L64021 74243
L63937 74243
L63880 74271
L63852 74299
" />
<path d="M64611 74609
L64555 74637
L64443 74637
L64386 74609
L64358 74552
L64358 74327
L64386 74271
L64443 74243
L64555 74243
L64611 74271
L64640 74327
L64640 74384
L64358 74440
" />
<path d="M65118 74609
L65061 74637
L64949 74637
L64893 74609
L64865 74552
L64865 74327
L64893 74271
L64949 74243
L65061 74243
L65118 74271
L65146 74327
L65146 74384
L64865 74440
" />
<path d="M65314 74243
L65539 74243
" />
<path d="M65399 74046
L65399 74552
L65427 74609
L65483 74637
L65539 74637
" />
<path d="M65736 74580
L65764 74609
L65736 74637
L65708 74609
L65736 74580
L65736 74637
" />
<path d="M65736 74271
L65764 74299
L65736 74327
L65708 74299
L65736 74271
L65736 74327
" />
</g>
<g style="fill:#000000; fill-opacity:0.0; 
stroke:#000000; stroke-width:39.3701; stroke-opacity:1; 
stroke-linecap:round; stroke-linejoin:round;">
</g>
<g style="fill:#000000; fill-opacity:0.0; 
stroke:#000000; stroke-width:118.11; stroke-opacity:1; 
stroke-linecap:round; stroke-linejoin:round;">
<path d="M63290 73456
L63290 72865
L63627 73456
L63627 72865
" />
<path d="M64133 73428
L64077 73456
L63965 73456
L63908 73428
L63880 73371
L63880 73146
L63908 73090
L63965 73062
L64077 73062
L64133 73090
L64161 73146
L64161 73203
L63880 73259
" />
<path d="M64668 73062
L64668 73456
" />
<path d="M64415 73062
L64415 73371
L64443 73428
L64499 73456
L64583 73456
L64640 73428
L64668 73399
" />
<path d="M64949 73456
L64949 73062
" />
<path d="M64949 73174
L64977 73118
L65005 73090
L65061 73062
L65118 73062
" />
<path d="M65399 73456
L65343 73428
L65314 73399
L65286 73343
L65286 73174
L65314 73118
L65343 73090
L65399 73062
L65483 73062
L65539 73090
L65568 73118
L65596 73174
L65596 73343
L65568 73399
L65539 73428
L65483 73456
L65399 73456
" />
<path d="M65764 72865
L66102 72865
" />
<path d="M65933 73456
L65933 72865
" />
<path d="M66299 73456
L66299 73062
" />
<path d="M66299 72865
L66271 72893
L66299 72921
L66327 72893
L66299 72865
L66299 72921
" />
<path d="M66580 73062
L66580 73456
" />
<path d="M66580 73118
L66608 73090
L66664 73062
L66749 73062
L66805 73090
L66833 73146
L66833 73456
" />
<path d="M67114 73456
L67114 72865
" />
<path d="M67170 73231
L67339 73456
" />
<path d="M67339 73062
L67114 73287
" />
<path d="M67817 73428
L67761 73456
L67649 73456
L67592 73428
L67564 73371
L67564 73146
L67592 73090
L67649 73062
L67761 73062
L67817 73090
L67845 73146
L67845 73203
L67564 73259
" />
<path d="M68098 73456
L68098 73062
" />
<path d="M68098 73174
L68127 73118
L68155 73090
L68211 73062
L68267 73062
" />
<path d="M68492 73428
L68492 73456
L68464 73512
L68436 73540
" />
<path d="M69476 73456
L69195 73456
L69195 72865
" />
<path d="M69955 73456
L69673 73456
L69673 72865
" />
<path d="M70489 73399
L70461 73428
L70376 73456
L70320 73456
L70236 73428
L70179 73371
L70151 73315
L70123 73203
L70123 73118
L70151 73006
L70179 72949
L70236 72893
L70320 72865
L70376 72865
L70461 72893
L70489 72921
" />
</g>
<g style="fill:#000000; fill-opacity:0.0; 
stroke:#000000; stroke-width:39.3701; stroke-opacity:1; 
stroke-linecap:round; stroke-linejoin:round;">
</g>
<g style="fill:#000000; fill-opacity:0.0; 
stroke:#000000; stroke-width:59.0551; stroke-opacity:1; 
stroke-linecap:round; stroke-linejoin:round;">
<path d="M63458 72500
L63430 72471
L63374 72387
L63346 72331
L63318 72246
L63290 72106
L63290 71993
L63318 71853
L63346 71768
L63374 71712
L63430 71628
L63458 71600
" />
<path d="M64021 72218
L63993 72246
L63908 72275
L63852 72275
L63768 72246
L63712 72190
L63683 72134
L63655 72021
L63655 71937
L63683 71825
L63712 71768
L63768 71712
L63852 71684
L63908 71684
L63993 71712
L64021 71740
" />
<path d="M64218 72500
L64246 72471
L64302 72387
L64330 72331
L64358 72246
L64386 72106
L64386 71993
L64358 71853
L64330 71768
L64302 71712
L64246 71628
L64218 71600
" />
<path d="M65089 71740
L65118 71712
L65174 71684
L65314 71684
L65371 71712
L65399 71740
L65427 71796
L65427 71853
L65399 71937
L65061 72275
L65427 72275
" />
<path d="M65793 71684
L65849 71684
L65905 71712
L65933 71740
L65961 71796
L65989 71909
L65989 72050
L65961 72162
L65933 72218
L65905 72246
L65849 72275
L65793 72275
L65736 72246
L65708 72218
L65680 72162
L65652 72050
L65652 71909
L65680 71796
L65708 71740
L65736 71712
L65793 71684
" />
<path d="M66552 72275
L66214 72275
" />
<path d="M66383 72275
L66383 71684
L66327 71768
L66271 71825
L66214 71853
" />
<path d="M66889 71937
L66833 71909
L66805 71881
L66777 71825
L66777 71796
L66805 71740
L66833 71712
L66889 71684
L67002 71684
L67058 71712
L67086 71740
L67114 71796
L67114 71825
L67086 71881
L67058 71909
L67002 71937
L66889 71937
L66833 71965
L66805 71993
L66777 72050
L66777 72162
L66805 72218
L66833 72246
L66889 72275
L67002 72275
L67058 72246
L67086 72218
L67114 72162
L67114 72050
L67086 71993
L67058 71965
L67002 71937
" />
<path d="M67761 71684
L68155 71684
L67761 72275
L68155 72275
" />
<path d="M68633 72275
L68633 71965
L68605 71909
L68548 71881
L68436 71881
L68380 71909
" />
<path d="M68633 72246
L68577 72275
L68436 72275
L68380 72246
L68352 72190
L68352 72134
L68380 72078
L68436 72050
L68577 72050
L68633 72021
" />
<path d="M69167 72246
L69111 72275
L68998 72275
L68942 72246
L68914 72218
L68886 72162
L68886 71993
L68914 71937
L68942 71909
L68998 71881
L69111 71881
L69167 71909
" />
<path d="M69420 72275
L69420 71684
" />
<path d="M69673 72275
L69673 71965
L69645 71909
L69589 71881
L69505 71881
L69448 71909
L69420 71937
" />
<path d="M70601 71965
L70404 71965
" />
<path d="M70404 72275
L70404 71684
L70686 71684
" />
<path d="M70911 72275
L70911 71881
" />
<path d="M70911 71993
L70939 71937
L70967 71909
L71023 71881
L71079 71881
" />
<path d="M71501 72246
L71445 72275
L71332 72275
L71276 72246
L71248 72190
L71248 71965
L71276 71909
L71332 71881
L71445 71881
L71501 71909
L71529 71965
L71529 72021
L71248 72078
" />
<path d="M72035 72275
L72035 71684
" />
<path d="M72035 72246
L71979 72275
L71867 72275
L71811 72246
L71782 72218
L71754 72162
L71754 71993
L71782 71937
L71811 71909
L71867 71881
L71979 71881
L72035 71909
" />
<path d="M72317 72275
L72317 71881
" />
<path d="M72317 71684
L72289 71712
L72317 71740
L72345 71712
L72317 71684
L72317 71740
" />
<path d="M72598 71881
L72598 72275
" />
<path d="M72598 71937
L72626 71909
L72682 71881
L72767 71881
L72823 71909
L72851 71965
L72851 72275
" />
</g>
<g style="fill:#000000; fill-opacity:0.0; 
stroke:#000000; stroke-width:39.3701; stroke-opacity:1; 
stroke-linecap:round; stroke-linejoin:round;">
</g>
<g style="fill:#000000; fill-opacity:0.0; 
stroke:#000000; stroke-width:59.0551; stroke-opacity:1; 
stroke-linecap:round; stroke-linejoin:round;">
<path d="M63290 71093
L63290 70503
L63430 70503
L63515 70531
L63571 70587
L63599 70643
L63627 70756
L63627 70840
L63599 70953
L63571 71009
L63515 71065
L63430 71093
L63290 71093
" />
<path d="M63880 71093
L63880 70700
" />
<path d="M63880 70812
L63908 70756
L63937 70728
L63993 70700
L64049 70700
" />
<path d="M64499 71093
L64499 70784
L64471 70728
L64415 70700
L64302 70700
L64246 70728
" />
<path d="M64499 71065
L64443 71093
L64302 71093
L64246 71065
L64218 71009
L64218 70953
L64246 70897
L64302 70868
L64443 70868
L64499 70840
" />
<path d="M64724 70700
L64836 71093
L64949 70812
L65061 71093
L65174 70700
" />
<path d="M65399 71093
L65399 70700
" />
<path d="M65399 70503
L65371 70531
L65399 70559
L65427 70531
L65399 70503
L65399 70559
" />
<path d="M65680 70700
L65680 71093
" />
<path d="M65680 70756
L65708 70728
L65764 70700
L65849 70700
L65905 70728
L65933 70784
L65933 71093
" />
<path d="M66467 70700
L66467 71178
L66439 71234
L66411 71262
L66355 71290
L66271 71290
L66214 71262
" />
<path d="M66467 71065
L66411 71093
L66299 71093
L66242 71065
L66214 71037
L66186 70981
L66186 70812
L66214 70756
L66242 70728
L66299 70700
L66411 70700
L66467 70728
" />
<path d="M67199 71093
L67199 70503
L67536 71093
L67536 70503
" />
<path d="M67902 71093
L67845 71065
L67817 71037
L67789 70981
L67789 70812
L67817 70756
L67845 70728
L67902 70700
L67986 70700
L68042 70728
L68070 70756
L68098 70812
L68098 70981
L68070 71037
L68042 71065
L67986 71093
L67902 71093
" />
<path d="M68352 71037
L68380 71065
L68352 71093
L68323 71065
L68352 71037
L68352 71093
" />
<path d="M69026 70503
L69420 70503
L69026 71093
L69420 71093
" />
<path d="M69842 70784
L69645 70784
" />
<path d="M69645 71093
L69645 70503
L69926 70503
" />
<path d="M70151 70868
L70601 70868
" />
<path d="M71192 71093
L70854 71093
" />
<path d="M71023 71093
L71023 70503
L70967 70587
L70911 70643
L70854 70672
" />
<path d="M71754 71093
L71417 71093
" />
<path d="M71586 71093
L71586 70503
L71529 70587
L71473 70643
L71417 70672
" />
<path d="M72120 70503
L72176 70503
L72232 70531
L72260 70559
L72289 70615
L72317 70728
L72317 70868
L72289 70981
L72260 71037
L72232 71065
L72176 71093
L72120 71093
L72064 71065
L72035 71037
L72007 70981
L71979 70868
L71979 70728
L72007 70615
L72035 70559
L72064 70531
L72120 70503
" />
<path d="M72879 71093
L72542 71093
" />
<path d="M72710 71093
L72710 70503
L72654 70587
L72598 70643
L72542 70672
" />
<path d="M73104 70559
L73132 70531
L73188 70503
L73329 70503
L73385 70531
L73413 70559
L73442 70615
L73442 70672
L73413 70756
L73076 71093
L73442 71093
" />
</g>
<g style="fill:#000000; fill-opacity:0.0; 
stroke:#000000; stroke-width:39.3701; stroke-opacity:1; 
stroke-linecap:round; stroke-linejoin:round;">
</g>
<g style="fill:#000000; fill-opacity:0.0; 
stroke:#000000; stroke-width:59.0551; stroke-opacity:1; 
stroke-linecap:round; stroke-linejoin:round;">
<path d="M63571 69912
L63290 69912
L63290 69322
" />
<path d="M63768 69912
L63768 69519
" />
<path d="M63768 69322
L63740 69350
L63768 69378
L63796 69350
L63768 69322
L63768 69378
" />
<path d="M64302 69884
L64246 69912
L64133 69912
L64077 69884
L64049 69856
L64021 69800
L64021 69631
L64049 69575
L64077 69547
L64133 69519
L64246 69519
L64302 69547
" />
<path d="M64780 69884
L64724 69912
L64611 69912
L64555 69884
L64527 69828
L64527 69603
L64555 69547
L64611 69519
L64724 69519
L64780 69547
L64808 69603
L64808 69659
L64527 69715
" />
<path d="M65061 69519
L65061 69912
" />
<path d="M65061 69575
L65089 69547
L65146 69519
L65230 69519
L65286 69547
L65314 69603
L65314 69912
" />
<path d="M65568 69884
L65624 69912
L65736 69912
L65793 69884
L65821 69828
L65821 69800
L65793 69744
L65736 69715
L65652 69715
L65596 69687
L65568 69631
L65568 69603
L65596 69547
L65652 69519
L65736 69519
L65793 69547
" />
<path d="M66299 69884
L66242 69912
L66130 69912
L66074 69884
L66046 69828
L66046 69603
L66074 69547
L66130 69519
L66242 69519
L66299 69547
L66327 69603
L66327 69659
L66046 69715
" />
<path d="M66580 69856
L66608 69884
L66580 69912
L66552 69884
L66580 69856
L66580 69912
" />
<path d="M66580 69547
L66608 69575
L66580 69603
L66552 69575
L66580 69547
L66580 69603
" />
<path d="M67649 69856
L67620 69884
L67536 69912
L67480 69912
L67395 69884
L67339 69828
L67311 69772
L67283 69659
L67283 69575
L67311 69462
L67339 69406
L67395 69350
L67480 69322
L67536 69322
L67620 69350
L67649 69378
" />
<path d="M68239 69856
L68211 69884
L68127 69912
L68070 69912
L67986 69884
L67930 69828
L67902 69772
L67874 69659
L67874 69575
L67902 69462
L67930 69406
L67986 69350
L68070 69322
L68127 69322
L68211 69350
L68239 69378
" />
<path d="M68492 69687
L68942 69687
" />
<path d="M69420 69603
L69505 69631
L69533 69659
L69561 69715
L69561 69800
L69533 69856
L69505 69884
L69448 69912
L69223 69912
L69223 69322
L69420 69322
L69476 69350
L69505 69378
L69533 69434
L69533 69491
L69505 69547
L69476 69575
L69420 69603
L69223 69603
" />
<path d="M69926 69631
L69926 69912
" />
<path d="M69730 69322
L69926 69631
L70123 69322
" />
<path d="M70320 69687
L70770 69687
" />
<path d="M71023 69884
L71107 69912
L71248 69912
L71304 69884
L71332 69856
L71361 69800
L71361 69744
L71332 69687
L71304 69659
L71248 69631
L71136 69603
L71079 69575
L71051 69547
L71023 69491
L71023 69434
L71051 69378
L71079 69350
L71136 69322
L71276 69322
L71361 69350
" />
<path d="M71586 69744
L71867 69744
" />
<path d="M71529 69912
L71726 69322
L71923 69912
" />
<path d="M72823 69519
L72823 69912
" />
<path d="M72682 69294
L72542 69715
L72907 69715
" />
<path d="M73132 69856
L73160 69884
L73132 69912
L73104 69884
L73132 69856
L73132 69912
" />
<path d="M73526 69322
L73582 69322
L73638 69350
L73667 69378
L73695 69434
L73723 69547
L73723 69687
L73695 69800
L73667 69856
L73638 69884
L73582 69912
L73526 69912
L73470 69884
L73442 69856
L73413 69800
L73385 69687
L73385 69547
L73413 69434
L73442 69378
L73470 69350
L73526 69322
" />
</g>
<g style="fill:#000000; fill-opacity:0.0; 
stroke:#000000; stroke-width:39.3701; stroke-opacity:1; 
stroke-linecap:round; stroke-linejoin:round;">
</g>
<g style="fill:#000000; fill-opacity:0.0; 
stroke:#000000; stroke-width:59.0551; stroke-opacity:1; 
stroke-linecap:round; stroke-linejoin:round;">
<path d="M70629 77716
L70629 78897
" />
</g>
<g style="fill:#000000; fill-opacity:0.0; 
stroke:#000000; stroke-width:39.3701; stroke-opacity:1; 
stroke-linecap:round; stroke-linejoin:round;">
</g>
<g style="fill:#000000; fill-opacity:0.0; 
stroke:#000000; stroke-width:59.0551; stroke-opacity:1; 
stroke-linecap:round; stroke-linejoin:round;">
<path d="M95826 77716
L95826 80275
" />
</g>
<g style="fill:#840084; fill-opacity:0.0; 
stroke:#840084; stroke-width:59.0551; stroke-opacity:1; 
stroke-linecap:round; stroke-linejoin:round;">
</g>
<g style="fill:#840084; fill-opacity:0.0; 
stroke:#840084; stroke-width:82.6772; stroke-opacity:1; 
stroke-linecap:round; stroke-linejoin:round;">
<path d="M48043 33121
L48043 32530
L48381 33121
L48381 32530
" />
<path d="M48887 33093
L48831 33121
L48718 33121
L48662 33093
L48634 33037
L48634 32812
L48662 32755
L48718 32727
L48831 32727
L48887 32755
L48915 32812
L48915 32868
L48634 32924
" />
<path d="M49421 32727
L49421 33121
" />
<path d="M49168 32727
L49168 33037
L49196 33093
L49253 33121
L49337 33121
L49393 33093
L49421 33065
" />
<path d="M49703 33121
L49703 32727
" />
<path d="M49703 32840
L49731 32784
L49759 32755
L49815 32727
L49871 32727
" />
<path d="M50152 33121
L50096 33093
L50068 33065
L50040 33008
L50040 32840
L50068 32784
L50096 32755
L50152 32727
L50237 32727
L50293 32755
L50321 32784
L50349 32840
L50349 33008
L50321 33065
L50293 33093
L50237 33121
L50152 33121
" />
<path d="M50799 32812
L50884 32840
L50912 32868
L50940 32924
L50940 33008
L50912 33065
L50884 33093
L50827 33121
L50602 33121
L50602 32530
L50799 32530
L50856 32559
L50884 32587
L50912 32643
L50912 32699
L50884 32755
L50856 32784
L50799 32812
L50602 32812
" />
<path d="M51137 32727
L51277 33121
" />
<path d="M51418 32727
L51277 33121
L51221 33262
L51193 33290
L51137 33318
" />
<path d="M51559 32727
L51784 32727
" />
<path d="M51643 32530
L51643 33037
L51671 33093
L51727 33121
L51784 33121
" />
<path d="M52205 33093
L52149 33121
L52037 33121
L51980 33093
L51952 33037
L51952 32812
L51980 32755
L52037 32727
L52149 32727
L52205 32755
L52233 32812
L52233 32868
L51952 32924
" />
<path d="M52458 33093
L52515 33121
L52627 33121
L52683 33093
L52712 33037
L52712 33008
L52683 32952
L52627 32924
L52543 32924
L52487 32896
L52458 32840
L52458 32812
L52487 32755
L52543 32727
L52627 32727
L52683 32755
" />
</g>
<g style="fill:#840084; fill-opacity:0.0; 
stroke:#840084; stroke-width:55.1181; stroke-opacity:1; 
stroke-linecap:round; stroke-linejoin:round;">
<path d="M53115 32385
L53021 32273
" />
<path d="M52946 32385
L52946 32123
L53058 32123
L53096 32141
L53115 32179
L53115 32216
L53096 32254
L53058 32273
L52946 32273
" />
<path d="M53021 31991
L52927 32010
L52833 32066
L52777 32160
L52758 32254
L52777 32348
L52833 32441
L52927 32498
L53021 32516
L53115 32498
L53208 32441
L53265 32348
L53283 32254
L53265 32160
L53208 32066
L53115 32010
L53021 31991
" />
</g>
<g style="fill:#840084; fill-opacity:1.0; 
stroke:#840084; stroke-width:3.93701; stroke-opacity:1; 
stroke-linecap:round; stroke-linejoin:round;">
<polyline style="fill-rule:evenodd;"
points="50673,35664
50844,35710
51017,35782
51034,35790
51200,35886
51330,35995
51427,36122
51493,36269
51530,36440
51540,36639
51539,36665
51533,36863
51666,37042
51737,37139
51786,37210
51817,37261
51832,37296
51834,37323
51826,37346
51825,37349
51794,37378
51740,37410
51678,37437
51624,37451
51615,37451
51593,37470
51575,37520
51573,37531
51560,37611
51156,37611
51201,37659
51244,37692
51308,37731
51370,37762
51433,37790
51480,37812
51500,37823
51497,37842
51479,37888
51456,37941
51423,38002
51382,38049
51328,38085
51254,38113
51153,38137
51019,38159
51014,38160
50923,38175
50847,38190
50795,38203
50775,38211
50760,38238
50738,38293
50712,38365
50705,38387
50653,38543
50077,38439
49930,38412
49797,38387
49682,38366
49589,38348
49525,38335
49495,38328
49492,38327
49494,38306
49506,38257
49525,38191
49564,38044
49580,37918
49570,37804
49534,37693
49469,37574
49394,37467
49303,37338
49235,37227
49186,37123
49151,37015
49126,36892
49114,36809
49112,36667
49135,36534
49463,36534
49479,36553
49520,36584
49563,36613
49619,36649
49649,36678
49661,36713
49663,36766
49663,36771
49662,36826
49651,36861
49622,36891
49569,36928
49563,36931
49510,36968
49474,36997
49463,37011
49471,37036
49491,37086
49513,37139
49538,37194
49558,37227
49584,37241
49625,37238
49690,37223
49736,37211
49778,37205
49811,37216
49851,37249
49869,37268
49911,37318
49928,37356
49924,37391
49902,37475
49893,37529
49901,37564
49928,37590
49977,37615
49989,37620
50050,37647
50098,37665
50117,37670
50139,37655
50172,37614
50201,37571
50238,37515
50266,37485
50301,37473
50355,37471
50361,37471
50417,37473
50453,37483
50482,37511
50517,37563
50522,37572
50555,37624
50582,37653
50614,37660
50660,37649
50730,37619
50753,37609
50838,37572
50785,37341
50926,37197
51039,37223
51102,37235
51149,37239
51165,37235
51179,37210
51201,37160
51213,37131
51235,37073
51252,37030
51257,37019
51245,36998
51207,36966
51154,36930
51095,36892
51061,36864
51047,36833
51043,36789
51043,36771
51047,36713
51061,36678
51096,36652
51108,36645
51167,36610
51218,36575
51220,36574
51266,36539
51212,36415
51178,36345
51152,36308
51129,36299
51126,36300
51087,36310
51028,36324
51003,36330
50946,36340
50909,36335
50873,36309
50848,36284
50782,36219
50811,36094
50826,36026
50831,35987
50824,35967
50805,35956
50797,35952
50750,35934
50689,35909
50676,35904
50626,35883
50595,35872
50591,35871
50577,35887
50549,35927
50521,35971
50485,36027
50457,36057
50422,36069
50368,36071
50361,36071
50304,36069
50268,36059
50239,36032
50204,35979
50199,35971
50166,35920
50139,35891
50108,35884
50062,35896
49992,35925
49972,35934
49920,35959
49889,35980
49884,35987
49889,36013
49901,36064
49911,36104
49939,36208
49866,36278
49793,36349
49677,36321
49561,36294
49512,36405
49486,36467
49469,36514
49463,36534
49135,36534
49139,36512
49190,36355
49261,36207
49350,36080
49374,36053
49518,35925
49691,35816
49883,35730
50087,35670
50293,35639
50484,35639
50673,35664
" /> 
<polyline style="fill-rule:evenodd;"
points="50647,36347
50695,36387
50747,36444
50795,36508
50830,36569
50830,36570
50869,36698
50872,36824
50844,36943
50787,37052
50708,37145
50609,37218
50496,37266
50371,37286
50240,37273
50184,37257
50088,37205
49996,37125
49921,37029
49874,36932
49850,36800
49861,36667
49905,36541
49979,36432
50029,36384
50080,36347
50114,36336
50139,36344
50173,36380
50173,36426
50137,36486
50114,36513
50052,36592
50017,36665
50004,36747
50003,36773
50021,36888
50070,36985
50145,37061
50238,37110
50344,37130
50457,37115
50498,37100
50585,37054
50645,36994
50686,36921
50718,36807
50711,36694
50666,36587
50601,36507
50558,36461
50530,36425
50523,36412
50539,36381
50573,36348
50608,36331
50612,36331
50647,36347
" /> 
<polyline style="fill-rule:evenodd;"
points="50389,36224
50412,36243
50427,36278
50438,36344
50445,36428
50446,36522
50444,36615
50436,36696
50424,36755
50412,36780
50365,36809
50320,36798
50307,36787
50295,36754
50288,36683
50284,36573
50283,36511
50285,36393
50290,36310
50300,36256
50317,36225
50341,36212
50356,36211
50389,36224
" /> 
</g>
<g style="fill:#840000; fill-opacity:1.0; 
stroke:#840000; stroke-width:3.93701; stroke-opacity:1; 
stroke-linecap:round; stroke-linejoin:round;">
</g>
<g style="fill:#840000; fill-opacity:1.0; 
stroke:#840000; stroke-width:0; stroke-opacity:1; 
stroke-linecap:round; stroke-linejoin:round;">
<polyline style="fill-rule:evenodd;"
points="45442,24311
45442,24114
45757,24114
45757,24311
45442,24311
" /> 
<polyline style="fill-rule:evenodd;"
points="45915,24311
45915,24114
46230,24114
46230,24311
45915,24311
" /> 
<polyline style="fill-rule:evenodd;"
points="45442,25688
45442,25492
45757,25492
45757,25688
45442,25688
" /> 
<polyline style="fill-rule:evenodd;"
points="45915,25688
45915,25492
46230,25492
46230,25688
45915,25688
" /> 
<polyline style="fill-rule:evenodd;"
points="45442,27066
45442,26870
45757,26870
45757,27066
45442,27066
" /> 
<polyline style="fill-rule:evenodd;"
points="45915,27066
45915,26870
46230,26870
46230,27066
45915,27066
" /> 
<polyline style="fill-rule:evenodd;"
points="45442,28444
45442,28248
45757,28248
45757,28444
45442,28444
" /> 
<polyline style="fill-rule:evenodd;"
points="45915,28444
45915,28248
46230,28248
46230,28444
45915,28444
" /> 
</g>
<g style="fill:#000000; fill-opacity:1.0; 
stroke:#000000; stroke-width:0; stroke-opacity:1; 
stroke-linecap:round; stroke-linejoin:round;">
</g>
<g style="fill:#008484; fill-opacity:1.0; 
stroke:#008484; stroke-width:0; stroke-opacity:1; 
stroke-linecap:round; stroke-linejoin:round;">
</g>
<g style="fill:#008484; fill-opacity:0.0; 
stroke:#008484; stroke-width:0; stroke-opacity:1; 
stroke-linecap:round; stroke-linejoin:round;">
</g>
<g style="fill:#008484; fill-opacity:0.0; 
stroke:#008484; stroke-width:55.1181; stroke-opacity:1; 
stroke-linecap:round; stroke-linejoin:round;">
<path d="M46423 34036
L46472 33642
L46648 34036
L46697 33642
" />
<path d="M46861 33830
L46992 33830
" />
<path d="M47023 34036
L46835 34036
L46885 33642
L47072 33642
" />
<path d="M47184 33642
L47409 33642
" />
<path d="M47248 34036
L47297 33642
" />
<path d="M47503 33642
L47548 34036
L47658 33755
L47698 34036
L47841 33642
" />
<path d="M48066 33642
L48141 33642
L48176 33661
L48209 33698
L48218 33773
L48202 33905
L48173 33980
L48131 34017
L48091 34036
L48016 34036
L47981 34017
L47948 33980
L47939 33905
L47955 33773
L47984 33698
L48026 33661
L48066 33642
" />
<path d="M48579 34036
L48471 33848
" />
<path d="M48354 34036
L48403 33642
L48553 33642
L48588 33661
L48605 33680
L48619 33717
L48612 33773
L48588 33811
L48567 33830
L48527 33848
L48377 33848
" />
<path d="M48748 34036
L48797 33642
" />
<path d="M48973 34036
L48832 33811
" />
<path d="M49022 33642
L48769 33867
" />
<path d="M49441 34036
L49490 33642
" />
<path d="M49629 34036
L49678 33642
L49854 34036
L49903 33642
" />
<path d="M50034 33642
L50259 33642
" />
<path d="M50097 34036
L50147 33642
" />
<path d="M50367 33830
L50498 33830
" />
<path d="M50529 34036
L50341 34036
L50390 33642
L50578 33642
" />
<path d="M50922 34036
L50814 33848
" />
<path d="M50697 34036
L50747 33642
L50897 33642
L50932 33661
L50948 33680
L50962 33717
L50955 33773
L50932 33811
L50911 33830
L50871 33848
L50721 33848
" />
<path d="M51248 33830
L51117 33830
" />
<path d="M51091 34036
L51140 33642
L51328 33642
" />
<path d="M51424 33923
L51611 33923
" />
<path d="M51372 34036
L51553 33642
L51635 34036
" />
<path d="M51996 33998
L51975 34017
L51916 34036
L51878 34036
L51825 34017
L51792 33980
L51778 33942
L51768 33867
L51775 33811
L51803 33736
L51827 33698
L51869 33661
L51928 33642
L51965 33642
L52019 33661
L52035 33680
" />
<path d="M52185 33830
L52317 33830
" />
<path d="M52347 34036
L52160 34036
L52209 33642
L52396 33642
" />
<path d="M52816 34036
L52865 33642
L52959 33642
L53013 33661
L53045 33698
L53060 33736
L53069 33811
L53062 33867
L53034 33942
L53010 33980
L52968 34017
L52910 34036
L52816 34036
" />
<path d="M53235 33830
L53367 33830
" />
<path d="M53397 34036
L53210 34036
L53259 33642
L53446 33642
" />
<path d="M53559 33642
L53641 34036
L53821 33642
" />
<path d="M53903 34036
L53952 33642
" />
<path d="M54320 33998
L54299 34017
L54241 34036
L54203 34036
L54149 34017
L54116 33980
L54102 33942
L54093 33867
L54100 33811
L54128 33736
L54152 33698
L54194 33661
L54252 33642
L54290 33642
L54344 33661
L54360 33680
" />
<path d="M54510 33830
L54641 33830
" />
<path d="M54672 34036
L54484 34036
L54534 33642
L54721 33642
" />
<path d="M46914 27808
L46914 28126
L46933 28164
L46951 28182
L46989 28201
L47064 28201
L47101 28182
L47120 28164
L47139 28126
L47139 27808
" />
<path d="M47326 27939
L47326 28332
" />
<path d="M47326 27958
L47364 27939
L47439 27939
L47476 27958
L47495 27976
L47514 28014
L47514 28126
L47495 28164
L47476 28182
L47439 28201
L47364 28201
L47326 28182
" />
<path d="M47851 28201
L47851 27808
" />
<path d="M47851 28182
L47814 28201
L47739 28201
L47701 28182
L47682 28164
L47664 28126
L47664 28014
L47682 27976
L47701 27958
L47739 27939
L47814 27939
L47851 27958
" />
<path d="M48207 28201
L48207 27995
L48189 27958
L48151 27939
L48076 27939
L48039 27958
" />
<path d="M48207 28182
L48170 28201
L48076 28201
L48039 28182
L48020 28145
L48020 28107
L48039 28070
L48076 28051
L48170 28051
L48207 28032
" />
<path d="M48339 27939
L48489 27939
" />
<path d="M48395 27808
L48395 28145
L48414 28182
L48451 28201
L48489 28201
" />
<path d="M48620 28201
L48620 27939
" />
<path d="M48620 27808
L48601 27826
L48620 27845
L48639 27826
L48620 27808
L48620 27845
" />
<path d="M48807 27939
L48807 28201
" />
<path d="M48807 27976
L48826 27958
L48864 27939
L48920 27939
L48957 27958
L48976 27995
L48976 28201
" />
<path d="M49332 27939
L49332 28257
L49314 28295
L49295 28314
L49257 28332
L49201 28332
L49164 28314
" />
<path d="M49332 28182
L49295 28201
L49220 28201
L49182 28182
L49164 28164
L49145 28126
L49145 28014
L49164 27976
L49182 27958
L49220 27939
L49295 27939
L49332 27958
" />
<path d="M49820 28201
L49820 27808
L50045 28201
L50045 27808
" />
<path d="M50382 28182
L50345 28201
L50270 28201
L50232 28182
L50213 28145
L50213 27995
L50232 27958
L50270 27939
L50345 27939
L50382 27958
L50401 27995
L50401 28032
L50213 28070
" />
<path d="M50738 27939
L50738 28201
" />
<path d="M50570 27939
L50570 28145
L50588 28182
L50626 28201
L50682 28201
L50720 28182
L50738 28164
" />
<path d="M50926 28201
L50926 27939
" />
<path d="M50926 28014
L50945 27976
L50963 27958
L51001 27939
L51038 27939
" />
<path d="M51226 28201
L51188 28182
L51170 28164
L51151 28126
L51151 28014
L51170 27976
L51188 27958
L51226 27939
L51282 27939
L51320 27958
L51338 27976
L51357 28014
L51357 28126
L51338 28164
L51320 28182
L51282 28201
L51226 28201
" />
<path d="M51657 27995
L51713 28014
L51732 28032
L51751 28070
L51751 28126
L51732 28164
L51713 28182
L51676 28201
L51526 28201
L51526 27808
L51657 27808
L51694 27826
L51713 27845
L51732 27883
L51732 27920
L51713 27958
L51694 27976
L51657 27995
L51526 27995
" />
<path d="M51882 27939
L51976 28201
" />
<path d="M52069 27939
L51976 28201
L51938 28295
L51919 28314
L51882 28332
" />
<path d="M52163 27939
L52313 27939
" />
<path d="M52219 27808
L52219 28145
L52238 28182
L52276 28201
L52313 28201
" />
<path d="M52594 28182
L52557 28201
L52482 28201
L52444 28182
L52426 28145
L52426 27995
L52444 27958
L52482 27939
L52557 27939
L52594 27958
L52613 27995
L52613 28032
L52426 28070
" />
<path d="M52763 28182
L52801 28201
L52876 28201
L52913 28182
L52932 28145
L52932 28126
L52913 28089
L52876 28070
L52819 28070
L52782 28051
L52763 28014
L52763 27995
L52782 27958
L52819 27939
L52876 27939
L52913 27958
" />
<path d="M53401 28201
L53401 27808
" />
<path d="M53401 27958
L53438 27939
L53513 27939
L53550 27958
L53569 27976
L53588 28014
L53588 28126
L53569 28164
L53550 28182
L53513 28201
L53438 28201
L53401 28182
" />
<path d="M53813 28201
L53775 28182
L53757 28164
L53738 28126
L53738 28014
L53757 27976
L53775 27958
L53813 27939
L53869 27939
L53907 27958
L53925 27976
L53944 28014
L53944 28126
L53925 28164
L53907 28182
L53869 28201
L53813 28201
" />
<path d="M54282 28201
L54282 27995
L54263 27958
L54225 27939
L54150 27939
L54113 27958
" />
<path d="M54282 28182
L54244 28201
L54150 28201
L54113 28182
L54094 28145
L54094 28107
L54113 28070
L54150 28051
L54244 28051
L54282 28032
" />
<path d="M54469 28201
L54469 27939
" />
<path d="M54469 28014
L54488 27976
L54507 27958
L54544 27939
L54582 27939
" />
<path d="M54882 28201
L54882 27808
" />
<path d="M54882 28182
L54844 28201
L54769 28201
L54732 28182
L54713 28164
L54694 28126
L54694 28014
L54713 27976
L54732 27958
L54769 27939
L54844 27939
L54882 27958
" />
<path d="M46914 28847
L46914 28453
L47008 28453
L47064 28472
L47101 28509
L47120 28547
L47139 28622
L47139 28678
L47120 28753
L47101 28791
L47064 28828
L47008 28847
L46914 28847
" />
<path d="M47383 28453
L47457 28453
L47495 28472
L47532 28509
L47551 28584
L47551 28716
L47532 28791
L47495 28828
L47457 28847
L47383 28847
L47345 28828
L47308 28791
L47289 28716
L47289 28584
L47308 28509
L47345 28472
L47383 28453
" />
<path d="M48020 28847
L48020 28453
L48245 28847
L48245 28453
" />
<path d="M48507 28453
L48582 28453
L48620 28472
L48657 28509
L48676 28584
L48676 28716
L48657 28791
L48620 28828
L48582 28847
L48507 28847
L48470 28828
L48432 28791
L48414 28716
L48414 28584
L48432 28509
L48470 28472
L48507 28453
" />
<path d="M48789 28453
L49014 28453
" />
<path d="M48901 28847
L48901 28453
" />
<path d="M49445 28847
L49445 28453
L49538 28453
L49595 28472
L49632 28509
L49651 28547
L49670 28622
L49670 28678
L49651 28753
L49632 28791
L49595 28828
L49538 28847
L49445 28847
" />
<path d="M49838 28847
L49838 28453
" />
<path d="M50007 28828
L50063 28847
L50157 28847
L50195 28828
L50213 28809
L50232 28772
L50232 28734
L50213 28697
L50195 28678
L50157 28659
L50082 28641
L50045 28622
L50026 28603
L50007 28566
L50007 28528
L50026 28491
L50045 28472
L50082 28453
L50176 28453
L50232 28472
" />
<path d="M50626 28809
L50607 28828
L50551 28847
L50513 28847
L50457 28828
L50420 28791
L50401 28753
L50382 28678
L50382 28622
L50401 28547
L50420 28509
L50457 28472
L50513 28453
L50551 28453
L50607 28472
L50626 28491
" />
<path d="M50870 28453
L50945 28453
L50982 28472
L51020 28509
L51038 28584
L51038 28716
L51020 28791
L50982 28828
L50945 28847
L50870 28847
L50832 28828
L50795 28791
L50776 28716
L50776 28584
L50795 28509
L50832 28472
L50870 28453
" />
<path d="M51207 28847
L51207 28453
L51432 28847
L51432 28453
" />
<path d="M51619 28847
L51619 28453
L51844 28847
L51844 28453
" />
<path d="M52032 28641
L52163 28641
" />
<path d="M52219 28847
L52032 28847
L52032 28453
L52219 28453
" />
<path d="M52613 28809
L52594 28828
L52538 28847
L52501 28847
L52444 28828
L52407 28791
L52388 28753
L52369 28678
L52369 28622
L52388 28547
L52407 28509
L52444 28472
L52501 28453
L52538 28453
L52594 28472
L52613 28491
" />
<path d="M52726 28453
L52951 28453
" />
<path d="M52838 28847
L52838 28453
" />
<path d="M53082 28809
L53101 28828
L53082 28847
L53063 28828
L53082 28809
L53082 28847
" />
<path d="M53082 28697
L53063 28472
L53082 28453
L53101 28472
L53082 28697
L53082 28453
" />
<path d="M46914 24390
L46914 23997
L47139 24390
L47139 23997
" />
<path d="M47326 24390
L47326 23997
" />
<path d="M47514 24390
L47514 23997
L47607 23997
L47664 24015
L47701 24053
L47720 24090
L47739 24165
L47739 24221
L47720 24296
L47701 24334
L47664 24371
L47607 24390
L47514 24390
" />
<path d="M48207 24128
L48207 24521
" />
<path d="M48207 24146
L48245 24128
L48320 24128
L48357 24146
L48376 24165
L48395 24203
L48395 24315
L48376 24353
L48357 24371
L48320 24390
L48245 24390
L48207 24371
" />
<path d="M48620 24390
L48582 24371
L48564 24353
L48545 24315
L48545 24203
L48564 24165
L48582 24146
L48620 24128
L48676 24128
L48714 24146
L48732 24165
L48751 24203
L48751 24315
L48732 24353
L48714 24371
L48676 24390
L48620 24390
" />
<path d="M48882 24128
L48957 24390
L49032 24203
L49107 24390
L49182 24128
" />
<path d="M49482 24371
L49445 24390
L49370 24390
L49332 24371
L49314 24334
L49314 24184
L49332 24146
L49370 24128
L49445 24128
L49482 24146
L49501 24184
L49501 24221
L49314 24259
" />
<path d="M49670 24390
L49670 24128
" />
<path d="M49670 24203
L49688 24165
L49707 24146
L49745 24128
L49782 24128
" />
</g>
<g style="fill:#008484; fill-opacity:0.0; 
stroke:#008484; stroke-width:78.7402; stroke-opacity:1; 
stroke-linecap:round; stroke-linejoin:round;">
<path d="M46426 23818
L46426 24606
" />
<path d="M46426 24606
L45245 24606
" />
<path d="M45245 24606
L45245 23818
" />
<path d="M45245 23818
L46426 23818
" />
</g>
<g style="fill:#008484; fill-opacity:0.0; 
stroke:#008484; stroke-width:157.48; stroke-opacity:1; 
stroke-linecap:round; stroke-linejoin:round;">
<path d="M59025 38779
L42096 38779
" />
</g>
<g style="fill:#008484; fill-opacity:0.0; 
stroke:#008484; stroke-width:78.7402; stroke-opacity:1; 
stroke-linecap:round; stroke-linejoin:round;">
<path d="M44655 31299
L44655 23622
" />
<path d="M56466 31299
L56466 23622
" />
<path d="M48592 35039
L48592 34448
" />
<path d="M52529 35039
L52529 34448
" />
<path d="M54497 35039
L54497 35433
" />
<path d="M46623 35039
L54497 35039
" />
<path d="M46623 35433
L46623 35039
" />
</g>
<g style="fill:#008484; fill-opacity:0.0; 
stroke:#008484; stroke-width:157.48; stroke-opacity:1; 
stroke-linecap:round; stroke-linejoin:round;">
<path d="M42096 35433
L59025 35433
" />
<path d="M42096 38779
L42096 35433
" />
<path d="M59025 35433
L59025 38779
" />
</g>
<g style="fill:#008484; fill-opacity:0.0; 
stroke:#008484; stroke-width:78.7402; stroke-opacity:1; 
stroke-linecap:round; stroke-linejoin:round;">
<path d="M45245 28740
L45245 27952
" />
<path d="M46426 28740
L45245 28740
" />
<path d="M46426 27952
L46426 28740
" />
<path d="M45245 27952
L46426 27952
" />
<path d="M45245 27362
L45245 26574
" />
<path d="M46426 27362
L45245 27362
" />
<path d="M46426 26574
L46426 27362
" />
<path d="M45245 26574
L46426 26574
" />
<path d="M45245 25984
L45245 25196
" />
<path d="M46426 25984
L45245 25984
" />
<path d="M46426 25196
L46426 25984
" />
<path d="M45245 25196
L46426 25196
" />
</g>
<g style="fill:#008484; fill-opacity:0.0; 
stroke:#008484; stroke-width:55.1181; stroke-opacity:1; 
stroke-linecap:round; stroke-linejoin:round;">
<path d="M46914 26752
L46914 27071
L46933 27109
L46951 27127
L46989 27146
L47064 27146
L47101 27127
L47120 27109
L47139 27071
L47139 26752
" />
<path d="M47308 27127
L47364 27146
L47457 27146
L47495 27127
L47514 27109
L47532 27071
L47532 27034
L47514 26996
L47495 26977
L47457 26959
L47383 26940
L47345 26921
L47326 26902
L47308 26865
L47308 26827
L47326 26790
L47345 26771
L47383 26752
L47476 26752
L47532 26771
" />
<path d="M47832 26940
L47889 26959
L47907 26977
L47926 27015
L47926 27071
L47907 27109
L47889 27127
L47851 27146
L47701 27146
L47701 26752
L47832 26752
L47870 26771
L47889 26790
L47907 26827
L47907 26865
L47889 26902
L47870 26921
L47832 26940
L47701 26940
" />
<path d="M48564 27127
L48526 27146
L48451 27146
L48414 27127
L48395 27109
L48376 27071
L48376 26959
L48395 26921
L48414 26902
L48451 26884
L48526 26884
L48564 26902
" />
<path d="M48789 27146
L48751 27127
L48732 27109
L48714 27071
L48714 26959
L48732 26921
L48751 26902
L48789 26884
L48845 26884
L48882 26902
L48901 26921
L48920 26959
L48920 27071
L48901 27109
L48882 27127
L48845 27146
L48789 27146
" />
<path d="M49089 27146
L49089 26884
" />
<path d="M49089 26921
L49107 26902
L49145 26884
L49201 26884
L49239 26902
L49257 26940
L49257 27146
" />
<path d="M49257 26940
L49276 26902
L49314 26884
L49370 26884
L49407 26902
L49426 26940
L49426 27146
" />
<path d="M49613 27146
L49613 26884
" />
<path d="M49613 26921
L49632 26902
L49670 26884
L49726 26884
L49763 26902
L49782 26940
L49782 27146
" />
<path d="M49782 26940
L49801 26902
L49838 26884
L49895 26884
L49932 26902
L49951 26940
L49951 27146
" />
<path d="M50120 27127
L50157 27146
L50232 27146
L50270 27127
L50288 27090
L50288 27071
L50270 27034
L50232 27015
L50176 27015
L50138 26996
L50120 26959
L50120 26940
L50138 26902
L50176 26884
L50232 26884
L50270 26902
" />
<path d="M50813 27146
L50776 27127
L50757 27090
L50757 26752
" />
<path d="M50963 27146
L50963 26884
" />
<path d="M50963 26752
L50945 26771
L50963 26790
L50982 26771
L50963 26752
L50963 26790
" />
<path d="M51151 26884
L51151 27146
" />
<path d="M51151 26921
L51170 26902
L51207 26884
L51263 26884
L51301 26902
L51320 26940
L51320 27146
" />
<path d="M51507 27146
L51507 26752
" />
<path d="M51544 26996
L51657 27146
" />
<path d="M51657 26884
L51507 27034
" />
<path d="M52294 27146
L52294 26940
L52276 26902
L52238 26884
L52163 26884
L52126 26902
" />
<path d="M52294 27127
L52257 27146
L52163 27146
L52126 27127
L52107 27090
L52107 27052
L52126 27015
L52163 26996
L52257 26996
L52294 26977
" />
<path d="M52651 27127
L52613 27146
L52538 27146
L52501 27127
L52482 27109
L52463 27071
L52463 26959
L52482 26921
L52501 26902
L52538 26884
L52613 26884
L52651 26902
" />
<path d="M52763 26884
L52913 26884
" />
<path d="M52819 26752
L52819 27090
L52838 27127
L52876 27146
L52913 27146
" />
<path d="M53044 27146
L53044 26884
" />
<path d="M53044 26752
L53026 26771
L53044 26790
L53063 26771
L53044 26752
L53044 26790
" />
<path d="M53194 26884
L53288 27146
L53382 26884
" />
<path d="M53682 27127
L53644 27146
L53569 27146
L53532 27127
L53513 27090
L53513 26940
L53532 26902
L53569 26884
L53644 26884
L53682 26902
L53700 26940
L53700 26977
L53513 27015
" />
<path d="M46914 25768
L46914 25374
L47139 25768
L47139 25374
" />
<path d="M47476 25749
L47439 25768
L47364 25768
L47326 25749
L47308 25712
L47308 25562
L47326 25524
L47364 25506
L47439 25506
L47476 25524
L47495 25562
L47495 25599
L47308 25637
" />
<path d="M47832 25506
L47832 25768
" />
<path d="M47664 25506
L47664 25712
L47682 25749
L47720 25768
L47776 25768
L47814 25749
L47832 25731
" />
<path d="M48020 25768
L48020 25506
" />
<path d="M48020 25581
L48039 25543
L48057 25524
L48095 25506
L48132 25506
" />
<path d="M48320 25768
L48282 25749
L48264 25731
L48245 25693
L48245 25581
L48264 25543
L48282 25524
L48320 25506
L48376 25506
L48414 25524
L48432 25543
L48451 25581
L48451 25693
L48432 25731
L48414 25749
L48376 25768
L48320 25768
" />
<path d="M48751 25562
L48807 25581
L48826 25599
L48845 25637
L48845 25693
L48826 25731
L48807 25749
L48770 25768
L48620 25768
L48620 25374
L48751 25374
L48789 25393
L48807 25412
L48826 25449
L48826 25487
L48807 25524
L48789 25543
L48751 25562
L48620 25562
" />
<path d="M48976 25506
L49070 25768
" />
<path d="M49164 25506
L49070 25768
L49032 25862
L49014 25881
L48976 25899
" />
<path d="M49257 25506
L49407 25506
" />
<path d="M49314 25374
L49314 25712
L49332 25749
L49370 25768
L49407 25768
" />
<path d="M49688 25749
L49651 25768
L49576 25768
L49538 25749
L49520 25712
L49520 25562
L49538 25524
L49576 25506
L49651 25506
L49688 25524
L49707 25562
L49707 25599
L49520 25637
" />
<path d="M49857 25749
L49895 25768
L49970 25768
L50007 25749
L50026 25712
L50026 25693
L50007 25656
L49970 25637
L49913 25637
L49876 25618
L49857 25581
L49857 25562
L49876 25524
L49913 25506
L49970 25506
L50007 25524
" />
<path d="M50663 25749
L50626 25768
L50551 25768
L50513 25749
L50495 25731
L50476 25693
L50476 25581
L50495 25543
L50513 25524
L50551 25506
L50626 25506
L50663 25524
" />
<path d="M50888 25768
L50851 25749
L50832 25731
L50813 25693
L50813 25581
L50832 25543
L50851 25524
L50888 25506
L50945 25506
L50982 25524
L51001 25543
L51020 25581
L51020 25693
L51001 25731
L50982 25749
L50945 25768
L50888 25768
" />
<path d="M51188 25768
L51188 25506
" />
<path d="M51188 25543
L51207 25524
L51245 25506
L51301 25506
L51338 25524
L51357 25562
L51357 25768
" />
<path d="M51357 25562
L51376 25524
L51413 25506
L51469 25506
L51507 25524
L51526 25562
L51526 25768
" />
<path d="M51713 25768
L51713 25506
" />
<path d="M51713 25543
L51732 25524
L51769 25506
L51826 25506
L51863 25524
L51882 25562
L51882 25768
" />
<path d="M51882 25562
L51901 25524
L51938 25506
L51994 25506
L52032 25524
L52051 25562
L52051 25768
" />
<path d="M52219 25749
L52257 25768
L52332 25768
L52369 25749
L52388 25712
L52388 25693
L52369 25656
L52332 25637
L52276 25637
L52238 25618
L52219 25581
L52219 25562
L52238 25524
L52276 25506
L52332 25506
L52369 25524
" />
<path d="M52913 25768
L52876 25749
L52857 25712
L52857 25374
" />
<path d="M53063 25768
L53063 25506
" />
<path d="M53063 25374
L53044 25393
L53063 25412
L53082 25393
L53063 25374
L53063 25412
" />
<path d="M53251 25506
L53251 25768
" />
<path d="M53251 25543
L53269 25524
L53307 25506
L53363 25506
L53401 25524
L53419 25562
L53419 25768
" />
<path d="M53607 25768
L53607 25374
" />
<path d="M53644 25618
L53757 25768
" />
<path d="M53757 25506
L53607 25656
" />
<path d="M54394 25768
L54394 25562
L54375 25524
L54338 25506
L54263 25506
L54225 25524
" />
<path d="M54394 25749
L54357 25768
L54263 25768
L54225 25749
L54207 25712
L54207 25674
L54225 25637
L54263 25618
L54357 25618
L54394 25599
" />
<path d="M54750 25749
L54713 25768
L54638 25768
L54600 25749
L54582 25731
L54563 25693
L54563 25581
L54582 25543
L54600 25524
L54638 25506
L54713 25506
L54750 25524
" />
<path d="M54863 25506
L55013 25506
" />
<path d="M54919 25374
L54919 25712
L54938 25749
L54975 25768
L55013 25768
" />
<path d="M55144 25768
L55144 25506
" />
<path d="M55144 25374
L55125 25393
L55144 25412
L55163 25393
L55144 25374
L55144 25412
" />
<path d="M55294 25506
L55388 25768
L55481 25506
" />
<path d="M55781 25749
L55744 25768
L55669 25768
L55631 25749
L55613 25712
L55613 25562
L55631 25524
L55669 25506
L55744 25506
L55781 25524
L55800 25562
L55800 25599
L55613 25637
" />
</g>
<g style="fill:#008484; fill-opacity:0.0; 
stroke:#008484; stroke-width:78.7402; stroke-opacity:1; 
stroke-linecap:round; stroke-linejoin:round;">
<path d="M56072 31692
L45048 31692
" />
<path d="M45048 23228
L56072 23228
" />
<path d="M56072.5 31692.9 A393.701 393.701 0.0 0 0 56466.2 31299.2 " />
<path d="M56466.2 23622 A393.701 393.701 0.0 0 0 56072.5 23228.3 " />
<path d="M45048.9 23228.3 A393.701 393.701 0.0 0 0 44655.2 23622 " />
<path d="M44655.2 31299.2 A393.701 393.701 0.0 0 0 45048.9 31692.9 " />
</g>
<g style="fill:#008484; fill-opacity:0.0; 
stroke:#008484; stroke-width:157.48; stroke-opacity:1; 
stroke-linecap:round; stroke-linejoin:round;">
<path d="M43670 34448
L57450 34448
" />
<path d="M43670 22244
L43670 34448
" />
<path d="M57450 22244
L43670 22244
" />
<path d="M57450 34448
L57450 22244
" />
</g>
<g style="fill:#008484; fill-opacity:1.0; 
stroke:#008484; stroke-width:3.93701; stroke-opacity:1; 
stroke-linecap:round; stroke-linejoin:round;">
<polyline style="fill-rule:evenodd;"
points="45263,36968
45264,37210
45266,37413
45269,37576
45273,37700
45278,37783
45285,37827
45285,37829
45322,37892
45380,37924
45440,37931
45513,37924
45562,37896
45599,37844
45608,37824
45615,37799
45621,37762
45626,37711
45629,37643
45632,37552
45635,37435
45637,37288
45639,37107
45640,36976
45646,36171
46025,36171
46019,36996
46017,37214
46015,37395
46012,37544
46008,37665
46002,37762
45993,37837
45982,37897
45968,37943
45950,37980
45928,38012
45901,38043
45888,38058
45815,38122
45735,38165
45638,38191
45513,38203
45483,38204
45393,38205
45311,38202
45250,38197
45233,38194
45106,38142
45006,38061
44938,37961
44919,37919
44904,37870
44892,37809
44882,37733
44875,37639
44870,37521
44866,37376
44864,37200
44863,36990
44863,36917
44863,36171
45263,36171
45263,36968
" /> 
<polyline style="fill-rule:evenodd;"
points="48238,36162
48312,36165
48366,36172
48408,36184
48448,36203
48463,36211
48537,36265
48603,36336
48615,36354
48646,36403
48670,36455
48689,36514
48703,36585
48713,36672
48719,36781
48721,36916
48721,37082
48720,37242
48713,37802
48648,37934
48578,38047
48493,38126
48384,38179
48352,38189
48278,38202
48181,38208
48077,38208
47980,38201
47907,38188
47906,38188
47792,38139
47700,38060
47626,37949
47618,37934
47553,37802
47549,37458
47945,37458
47946,37582
47950,37679
47955,37753
47963,37807
47975,37846
47989,37874
48005,37893
48055,37919
48124,37931
48197,37927
48244,37911
48265,37894
48283,37867
48296,37826
48306,37767
48314,37685
48319,37577
48322,37439
48323,37267
48323,37161
48323,36990
48322,36855
48320,36750
48318,36670
48313,36612
48307,36569
48299,36538
48289,36513
48288,36511
48243,36454
48177,36427
48086,36427
48077,36428
48044,36435
48017,36447
47996,36468
47980,36503
47968,36556
47960,36631
47954,36732
47951,36863
47948,37027
47947,37110
47945,37302
47945,37458
47549,37458
47546,37262
47545,37044
47546,36864
47551,36724
47558,36623
47563,36586
47605,36443
47673,36325
47765,36236
47803,36211
47845,36190
47886,36175
47934,36167
48000,36163
48093,36161
48133,36161
48238,36162
" /> 
<polyline style="fill-rule:evenodd;"
points="43064,36706
43293,37241
43299,36706
43304,36171
43623,36171
43623,38191
43368,38191
42913,37061
42908,37626
42903,38191
42563,38191
42563,36171
42834,36171
43064,36706
" /> 
<polyline style="fill-rule:evenodd;"
points="44703,36431
44243,36431
44243,36991
44603,36991
44603,37271
44243,37271
44243,37931
44723,37931
44723,38191
43843,38191
43843,36171
44703,36171
44703,36431
" /> 
<polyline style="fill-rule:evenodd;"
points="46618,36175
46756,36178
46861,36181
46939,36186
46997,36192
47042,36201
47081,36214
47119,36229
47222,36288
47298,36361
47348,36453
47375,36571
47381,36718
47380,36761
47364,36904
47330,37015
47276,37099
47209,37154
47167,37183
47145,37205
47144,37208
47149,37230
47164,37285
47186,37368
47216,37474
47250,37597
47281,37706
47417,38191
47012,38191
46915,37796
46884,37672
46855,37557
46830,37458
46812,37384
46800,37340
46799,37336
46785,37296
46763,37277
46719,37271
46692,37271
46603,37271
46603,38191
46223,38191
46223,36431
46603,36431
46603,37036
46756,37028
46836,37022
46887,37013
46922,36997
46950,36971
46954,36966
46997,36890
47019,36794
47020,36691
47001,36592
46963,36511
46943,36488
46909,36458
46875,36441
46827,36433
46753,36431
46745,36431
46603,36431
46223,36431
46223,36168
46618,36175
" /> 
<polyline style="fill-rule:evenodd;"
points="53023,36451
52703,36451
52703,38191
52323,38191
52323,36451
51983,36451
51983,36171
53023,36171
53023,36451
" /> 
<polyline style="fill-rule:evenodd;"
points="53543,38191
53143,38191
53143,36171
53543,36171
53543,38191
" /> 
<polyline style="fill-rule:evenodd;"
points="54286,36706
54513,37241
54519,36706
54524,36171
54843,36171
54843,38191
54591,38191
54374,37646
54319,37507
54267,37379
54222,37269
54184,37179
54157,37117
54142,37085
54141,37082
54136,37096
54132,37146
54129,37226
54126,37332
54124,37460
54123,37606
54123,37627
54123,38191
53783,38191
53783,36171
54060,36171
54286,36706
" /> 
<polyline style="fill-rule:evenodd;"
points="55483,36602
55484,36728
55486,36839
55489,36928
55492,36991
55497,37022
55498,37024
55510,37004
55535,36952
55571,36874
55614,36775
55664,36660
55693,36593
55872,36171
56058,36171
56138,36172
56201,36175
56238,36179
56243,36181
56236,36202
56215,36254
56184,36332
56143,36432
56095,36547
56063,36623
56012,36747
55967,36858
55929,36952
55902,37023
55886,37065
55883,37075
55890,37097
55908,37150
55936,37230
55972,37330
56013,37444
56057,37568
56103,37695
56149,37819
56191,37935
56229,38036
56260,38118
56274,38156
56277,38172
56266,38182
56235,38188
56177,38191
56088,38191
55888,38191
55731,37730
55573,37270
55528,37325
55513,37346
55502,37368
55494,37399
55489,37443
55486,37507
55484,37596
55484,37716
55483,37786
55483,38191
55103,38191
55103,36171
55483,36171
55483,36602
" /> 
<polyline style="fill-rule:evenodd;"
points="57263,36431
56783,36431
56783,36991
57163,36991
57163,37271
56783,37271
56783,37931
57263,37931
57263,38191
56403,38191
56403,36171
57263,36171
57263,36431
" /> 
<polyline style="fill-rule:evenodd;"
points="57768,36171
57955,36175
58106,36185
58227,36203
58323,36231
58399,36269
58459,36320
58490,36356
58538,36435
58567,36521
58581,36628
58583,36711
58573,36865
58539,36989
58481,37087
58397,37165
58384,37173
58336,37205
58477,37698
58618,38191
58212,38191
58115,37796
58084,37672
58055,37557
58030,37458
58012,37384
58000,37340
57999,37336
57985,37296
57963,37277
57919,37271
57892,37271
57803,37271
57803,38191
57423,38191
57423,36431
57803,36431
57803,37031
57924,37031
58001,37026
58069,37014
58102,37002
58159,36951
58196,36868
58212,36752
58213,36710
58205,36600
58176,36520
58124,36469
58043,36440
57929,36431
57922,36431
57803,36431
57423,36431
57423,36171
57768,36171
" /> 
</g>
<g style="fill:#000000; fill-opacity:1.0; 
stroke:#000000; stroke-width:3.93701; stroke-opacity:1; 
stroke-linecap:round; stroke-linejoin:round;">
</g>
<g style="fill:#C2C200; fill-opacity:1.0; 
stroke:#C2C200; stroke-width:3.93701; stroke-opacity:1; 
stroke-linecap:round; stroke-linejoin:round;">
</g>
<g style="fill:#C2C200; fill-opacity:1.0; 
stroke:#C2C200; stroke-width:39.3701; stroke-opacity:1; 
stroke-linecap:round; stroke-linejoin:round;">
</g>
<g style="fill:#C2C200; fill-opacity:0.0; 
stroke:#C2C200; stroke-width:39.3701; stroke-opacity:1; 
stroke-linecap:round; stroke-linejoin:round;">
<path d="M58631 34842
L59025 34842
" />
<path d="M42096 39370
L59025 39370
" />
<path d="M42096 34842
L42489 34842
" />
<path d="M59615 35433
L59615 38779
" />
<path d="M59615.9 35433.1 A590.551 590.551 0.0 0 0 59025.3 34842.5 " />
<path d="M58041 34252 A590.551 590.551 0.0 0 0 58631.6 34842.5 " />
<path d="M58041 22244
L58041 34251
" />
<path d="M58041 22244.1 A590.551 590.551 0.0 0 0 57450.5 21653.5 " />
<path d="M43670 21653
L57450 21653
" />
<path d="M43671 21653.5 A590.551 590.551 0.0 0 0 43080.4 22244.1 " />
<path d="M43080 34251
L43080 22244
" />
<path d="M41505 38779
L41505 35433
" />
<path d="M42489.9 34842.5 A590.551 590.551 0.0 0 0 43080.4 34252 " />
<path d="M42096.2 34842.5 A590.551 590.551 0.0 0 0 41505.6 35433.1 " />
<path d="M41505.6 38779.5 A590.551 590.551 0.0 0 0 42096.2 39370.1 " />
<path d="M59025.3 39370.1 A590.551 590.551 0.0 0 0 59615.9 38779.5 " />
</g> 
</svg>
