G04 #@! TF.FileFunction,Soldermask,Bot*
%FSLAX46Y46*%
G04 Gerber Fmt 4.6, Leading zero omitted, Abs format (unit mm)*
G04 Created by KiCad (PCBNEW 4.0.7-e2-6376~58~ubuntu14.04.1) date Wed Aug  8 12:01:23 2018*
%MOMM*%
%LPD*%
G01*
G04 APERTURE LIST*
%ADD10C,0.100000*%
%ADD11C,0.140000*%
%ADD12C,0.010000*%
%ADD13R,1.200000X0.600000*%
%ADD14C,1.500000*%
%ADD15R,0.600000X1.700000*%
%ADD16R,1.000000X2.700000*%
%ADD17R,1.600000X1.600000*%
%ADD18R,0.750000X1.200000*%
%ADD19R,1.200000X0.750000*%
%ADD20R,0.800000X0.500000*%
%ADD21R,0.500000X0.800000*%
%ADD22R,0.600000X1.200000*%
%ADD23R,1.800000X1.900000*%
%ADD24R,2.100000X1.600000*%
%ADD25R,0.400000X1.500000*%
%ADD26R,0.500000X1.000000*%
%ADD27R,0.800000X0.300000*%
%ADD28R,1.500000X2.300000*%
G04 APERTURE END LIST*
D10*
D11*
X143109525Y-79508545D02*
X142974838Y-79441201D01*
X142907494Y-79441202D01*
X142806478Y-79474874D01*
X142705463Y-79575889D01*
X142671792Y-79676904D01*
X142671792Y-79744247D01*
X142705463Y-79845263D01*
X142974838Y-80114637D01*
X143681945Y-79407530D01*
X143446242Y-79171828D01*
X143345227Y-79138156D01*
X143277883Y-79138156D01*
X143176868Y-79171828D01*
X143109525Y-79239171D01*
X143075853Y-79340186D01*
X143075853Y-79407530D01*
X143109525Y-79508545D01*
X143345227Y-79744247D01*
X142638121Y-79037141D02*
X142402418Y-78801438D01*
X141931013Y-79070812D02*
X142267731Y-79407530D01*
X142974838Y-78700424D01*
X142638120Y-78363706D01*
X141998357Y-78397377D02*
X141762654Y-78161675D01*
X141291250Y-78431049D02*
X141627968Y-78767767D01*
X142335074Y-78060660D01*
X141998357Y-77723942D01*
X140988204Y-78128004D02*
X141695311Y-77420897D01*
X141425937Y-77151522D01*
X141324921Y-77117851D01*
X141257578Y-77117851D01*
X141156563Y-77151522D01*
X141055548Y-77252538D01*
X141021876Y-77353553D01*
X141021876Y-77420896D01*
X141055548Y-77521911D01*
X141324922Y-77791286D01*
X139877036Y-76276056D02*
X139742349Y-76208713D01*
X139675005Y-76208714D01*
X139573990Y-76242385D01*
X139472975Y-76343400D01*
X139439303Y-76444416D01*
X139439303Y-76511759D01*
X139472975Y-76612774D01*
X139742349Y-76882149D01*
X140449456Y-76175042D01*
X140213753Y-75939339D01*
X140112738Y-75905667D01*
X140045395Y-75905667D01*
X139944380Y-75939339D01*
X139877036Y-76006683D01*
X139843364Y-76107698D01*
X139843364Y-76175041D01*
X139877036Y-76276056D01*
X140112739Y-76511759D01*
X139405632Y-75804652D02*
X139169929Y-75568950D01*
X138698525Y-75838324D02*
X139035243Y-76175042D01*
X139742349Y-75467935D01*
X139405631Y-75131217D01*
X138765869Y-75164889D02*
X138530166Y-74929186D01*
X138058761Y-75198561D02*
X138395479Y-75535279D01*
X139102586Y-74828172D01*
X138765868Y-74491454D01*
X137755716Y-74895515D02*
X138462823Y-74188408D01*
X138193448Y-73919034D01*
X138092433Y-73885362D01*
X138025090Y-73885362D01*
X137924074Y-73919034D01*
X137823059Y-74020049D01*
X137789388Y-74121064D01*
X137789388Y-74188408D01*
X137823059Y-74289423D01*
X138092434Y-74558797D01*
D12*
G36*
X133125285Y-67346193D02*
X133034751Y-67393900D01*
X132977036Y-67463147D01*
X132955264Y-67538609D01*
X132943202Y-67659844D01*
X132940805Y-67765844D01*
X132941451Y-67875935D01*
X132945872Y-67948619D01*
X132957790Y-67997340D01*
X132980930Y-68035541D01*
X133019014Y-68076666D01*
X133029911Y-68087584D01*
X133090896Y-68142237D01*
X133141377Y-68165686D01*
X133202227Y-68166744D01*
X133214245Y-68165433D01*
X133289822Y-68152772D01*
X133348986Y-68136660D01*
X133353968Y-68134628D01*
X133373639Y-68129939D01*
X133386492Y-68141984D01*
X133393958Y-68178887D01*
X133397466Y-68248769D01*
X133398444Y-68359755D01*
X133398462Y-68387487D01*
X133397810Y-68507668D01*
X133394899Y-68585154D01*
X133388301Y-68628092D01*
X133376587Y-68644632D01*
X133358328Y-68642922D01*
X133353968Y-68641192D01*
X133224875Y-68607349D01*
X133112249Y-68621500D01*
X133015479Y-68683743D01*
X133002201Y-68697333D01*
X132977370Y-68726779D01*
X132960323Y-68758535D01*
X132949602Y-68802277D01*
X132943747Y-68867685D01*
X132941301Y-68964435D01*
X132940805Y-69102206D01*
X132940805Y-69445864D01*
X133023437Y-69437897D01*
X133106070Y-69429930D01*
X133113341Y-69151241D01*
X133120501Y-69002730D01*
X133134682Y-68898220D01*
X133158460Y-68831059D01*
X133194408Y-68794593D01*
X133245102Y-68782166D01*
X133256207Y-68781971D01*
X133307599Y-68786481D01*
X133343752Y-68804354D01*
X133367864Y-68843419D01*
X133383133Y-68911506D01*
X133392760Y-69016447D01*
X133398462Y-69130177D01*
X133411175Y-69429930D01*
X133493983Y-69437910D01*
X133560613Y-69434061D01*
X133589625Y-69412442D01*
X133592273Y-69380417D01*
X133594409Y-69303163D01*
X133596000Y-69186302D01*
X133597012Y-69035453D01*
X133597414Y-68856238D01*
X133597172Y-68654276D01*
X133596252Y-68435188D01*
X133595807Y-68362020D01*
X133592037Y-67785704D01*
X133398861Y-67785704D01*
X133386843Y-67875330D01*
X133362259Y-67939388D01*
X133356384Y-67946897D01*
X133289766Y-67988076D01*
X133215068Y-67982657D01*
X133165279Y-67951314D01*
X133135207Y-67896463D01*
X133119152Y-67811350D01*
X133117321Y-67714653D01*
X133129925Y-67625050D01*
X133157173Y-67561220D01*
X133160862Y-67556807D01*
X133226930Y-67516777D01*
X133302484Y-67517418D01*
X133358508Y-67550264D01*
X133384793Y-67604487D01*
X133398211Y-67689195D01*
X133398861Y-67785704D01*
X133592037Y-67785704D01*
X133589153Y-67345045D01*
X133517696Y-67336851D01*
X133452732Y-67340468D01*
X133411263Y-67357685D01*
X133364516Y-67373406D01*
X133325483Y-67359522D01*
X133227830Y-67333058D01*
X133125285Y-67346193D01*
X133125285Y-67346193D01*
G37*
X133125285Y-67346193D02*
X133034751Y-67393900D01*
X132977036Y-67463147D01*
X132955264Y-67538609D01*
X132943202Y-67659844D01*
X132940805Y-67765844D01*
X132941451Y-67875935D01*
X132945872Y-67948619D01*
X132957790Y-67997340D01*
X132980930Y-68035541D01*
X133019014Y-68076666D01*
X133029911Y-68087584D01*
X133090896Y-68142237D01*
X133141377Y-68165686D01*
X133202227Y-68166744D01*
X133214245Y-68165433D01*
X133289822Y-68152772D01*
X133348986Y-68136660D01*
X133353968Y-68134628D01*
X133373639Y-68129939D01*
X133386492Y-68141984D01*
X133393958Y-68178887D01*
X133397466Y-68248769D01*
X133398444Y-68359755D01*
X133398462Y-68387487D01*
X133397810Y-68507668D01*
X133394899Y-68585154D01*
X133388301Y-68628092D01*
X133376587Y-68644632D01*
X133358328Y-68642922D01*
X133353968Y-68641192D01*
X133224875Y-68607349D01*
X133112249Y-68621500D01*
X133015479Y-68683743D01*
X133002201Y-68697333D01*
X132977370Y-68726779D01*
X132960323Y-68758535D01*
X132949602Y-68802277D01*
X132943747Y-68867685D01*
X132941301Y-68964435D01*
X132940805Y-69102206D01*
X132940805Y-69445864D01*
X133023437Y-69437897D01*
X133106070Y-69429930D01*
X133113341Y-69151241D01*
X133120501Y-69002730D01*
X133134682Y-68898220D01*
X133158460Y-68831059D01*
X133194408Y-68794593D01*
X133245102Y-68782166D01*
X133256207Y-68781971D01*
X133307599Y-68786481D01*
X133343752Y-68804354D01*
X133367864Y-68843419D01*
X133383133Y-68911506D01*
X133392760Y-69016447D01*
X133398462Y-69130177D01*
X133411175Y-69429930D01*
X133493983Y-69437910D01*
X133560613Y-69434061D01*
X133589625Y-69412442D01*
X133592273Y-69380417D01*
X133594409Y-69303163D01*
X133596000Y-69186302D01*
X133597012Y-69035453D01*
X133597414Y-68856238D01*
X133597172Y-68654276D01*
X133596252Y-68435188D01*
X133595807Y-68362020D01*
X133592037Y-67785704D01*
X133398861Y-67785704D01*
X133386843Y-67875330D01*
X133362259Y-67939388D01*
X133356384Y-67946897D01*
X133289766Y-67988076D01*
X133215068Y-67982657D01*
X133165279Y-67951314D01*
X133135207Y-67896463D01*
X133119152Y-67811350D01*
X133117321Y-67714653D01*
X133129925Y-67625050D01*
X133157173Y-67561220D01*
X133160862Y-67556807D01*
X133226930Y-67516777D01*
X133302484Y-67517418D01*
X133358508Y-67550264D01*
X133384793Y-67604487D01*
X133398211Y-67689195D01*
X133398861Y-67785704D01*
X133592037Y-67785704D01*
X133589153Y-67345045D01*
X133517696Y-67336851D01*
X133452732Y-67340468D01*
X133411263Y-67357685D01*
X133364516Y-67373406D01*
X133325483Y-67359522D01*
X133227830Y-67333058D01*
X133125285Y-67346193D01*
G36*
X132425922Y-68609504D02*
X132323994Y-68638760D01*
X132242438Y-68686052D01*
X132194524Y-68748745D01*
X132190430Y-68761724D01*
X132185358Y-68809341D01*
X132182365Y-68895312D01*
X132181692Y-69007172D01*
X132183392Y-69124825D01*
X132186910Y-69253515D01*
X132191316Y-69340067D01*
X132198444Y-69393183D01*
X132210123Y-69421566D01*
X132228188Y-69433920D01*
X132249361Y-69438238D01*
X132308799Y-69434468D01*
X132339203Y-69420623D01*
X132387519Y-69409468D01*
X132407724Y-69418282D01*
X132466673Y-69435744D01*
X132550714Y-69439533D01*
X132635973Y-69429696D01*
X132676683Y-69417724D01*
X132744451Y-69370911D01*
X132802509Y-69298756D01*
X132835950Y-69221676D01*
X132839103Y-69195239D01*
X132832452Y-69166497D01*
X132659570Y-69166497D01*
X132645694Y-69216517D01*
X132630615Y-69234154D01*
X132582191Y-69255714D01*
X132507538Y-69264321D01*
X132429970Y-69258475D01*
X132396238Y-69249232D01*
X132365179Y-69212903D01*
X132356020Y-69160243D01*
X132360192Y-69113321D01*
X132382331Y-69092269D01*
X132436868Y-69086816D01*
X132459393Y-69086687D01*
X132561171Y-69097061D01*
X132629646Y-69125171D01*
X132659570Y-69166497D01*
X132832452Y-69166497D01*
X132817743Y-69102944D01*
X132762715Y-69019315D01*
X132687599Y-68964121D01*
X132677703Y-68960285D01*
X132605809Y-68944332D01*
X132513514Y-68935073D01*
X132477664Y-68934134D01*
X132403438Y-68932468D01*
X132367723Y-68922555D01*
X132358191Y-68897025D01*
X132360688Y-68864214D01*
X132371380Y-68819753D01*
X132399915Y-68797559D01*
X132461308Y-68787726D01*
X132478670Y-68786384D01*
X132554835Y-68787831D01*
X132612481Y-68801012D01*
X132623650Y-68807557D01*
X132660691Y-68821154D01*
X132709766Y-68799109D01*
X132722674Y-68790042D01*
X132772849Y-68748133D01*
X132780965Y-68715660D01*
X132746856Y-68677035D01*
X132721260Y-68656300D01*
X132637823Y-68615639D01*
X132534954Y-68600918D01*
X132425922Y-68609504D01*
X132425922Y-68609504D01*
G37*
X132425922Y-68609504D02*
X132323994Y-68638760D01*
X132242438Y-68686052D01*
X132194524Y-68748745D01*
X132190430Y-68761724D01*
X132185358Y-68809341D01*
X132182365Y-68895312D01*
X132181692Y-69007172D01*
X132183392Y-69124825D01*
X132186910Y-69253515D01*
X132191316Y-69340067D01*
X132198444Y-69393183D01*
X132210123Y-69421566D01*
X132228188Y-69433920D01*
X132249361Y-69438238D01*
X132308799Y-69434468D01*
X132339203Y-69420623D01*
X132387519Y-69409468D01*
X132407724Y-69418282D01*
X132466673Y-69435744D01*
X132550714Y-69439533D01*
X132635973Y-69429696D01*
X132676683Y-69417724D01*
X132744451Y-69370911D01*
X132802509Y-69298756D01*
X132835950Y-69221676D01*
X132839103Y-69195239D01*
X132832452Y-69166497D01*
X132659570Y-69166497D01*
X132645694Y-69216517D01*
X132630615Y-69234154D01*
X132582191Y-69255714D01*
X132507538Y-69264321D01*
X132429970Y-69258475D01*
X132396238Y-69249232D01*
X132365179Y-69212903D01*
X132356020Y-69160243D01*
X132360192Y-69113321D01*
X132382331Y-69092269D01*
X132436868Y-69086816D01*
X132459393Y-69086687D01*
X132561171Y-69097061D01*
X132629646Y-69125171D01*
X132659570Y-69166497D01*
X132832452Y-69166497D01*
X132817743Y-69102944D01*
X132762715Y-69019315D01*
X132687599Y-68964121D01*
X132677703Y-68960285D01*
X132605809Y-68944332D01*
X132513514Y-68935073D01*
X132477664Y-68934134D01*
X132403438Y-68932468D01*
X132367723Y-68922555D01*
X132358191Y-68897025D01*
X132360688Y-68864214D01*
X132371380Y-68819753D01*
X132399915Y-68797559D01*
X132461308Y-68787726D01*
X132478670Y-68786384D01*
X132554835Y-68787831D01*
X132612481Y-68801012D01*
X132623650Y-68807557D01*
X132660691Y-68821154D01*
X132709766Y-68799109D01*
X132722674Y-68790042D01*
X132772849Y-68748133D01*
X132780965Y-68715660D01*
X132746856Y-68677035D01*
X132721260Y-68656300D01*
X132637823Y-68615639D01*
X132534954Y-68600918D01*
X132425922Y-68609504D01*
G36*
X131852113Y-68611241D02*
X131817949Y-68629907D01*
X131816633Y-68632675D01*
X131796778Y-68649031D01*
X131752622Y-68632675D01*
X131666096Y-68606994D01*
X131573705Y-68610059D01*
X131505765Y-68637503D01*
X131475880Y-68664307D01*
X131476150Y-68692515D01*
X131503730Y-68739054D01*
X131541764Y-68784111D01*
X131587790Y-68797833D01*
X131640577Y-68793256D01*
X131706064Y-68787107D01*
X131752296Y-68795628D01*
X131783121Y-68825962D01*
X131802385Y-68885248D01*
X131813935Y-68980628D01*
X131821618Y-69119242D01*
X131822086Y-69130177D01*
X131834799Y-69429930D01*
X131917431Y-69437897D01*
X132000064Y-69445864D01*
X132000064Y-68603603D01*
X131913194Y-68603603D01*
X131852113Y-68611241D01*
X131852113Y-68611241D01*
G37*
X131852113Y-68611241D02*
X131817949Y-68629907D01*
X131816633Y-68632675D01*
X131796778Y-68649031D01*
X131752622Y-68632675D01*
X131666096Y-68606994D01*
X131573705Y-68610059D01*
X131505765Y-68637503D01*
X131475880Y-68664307D01*
X131476150Y-68692515D01*
X131503730Y-68739054D01*
X131541764Y-68784111D01*
X131587790Y-68797833D01*
X131640577Y-68793256D01*
X131706064Y-68787107D01*
X131752296Y-68795628D01*
X131783121Y-68825962D01*
X131802385Y-68885248D01*
X131813935Y-68980628D01*
X131821618Y-69119242D01*
X131822086Y-69130177D01*
X131834799Y-69429930D01*
X131917431Y-69437897D01*
X132000064Y-69445864D01*
X132000064Y-68603603D01*
X131913194Y-68603603D01*
X131852113Y-68611241D01*
G36*
X130810948Y-68851501D02*
X130817782Y-69429930D01*
X130900414Y-69437897D01*
X130960925Y-69436461D01*
X130982593Y-69414024D01*
X130983047Y-69407623D01*
X130988766Y-69383985D01*
X131014912Y-69387381D01*
X131052967Y-69405856D01*
X131168715Y-69438814D01*
X131289408Y-69423008D01*
X131307061Y-69416484D01*
X131358299Y-69379956D01*
X131409641Y-69320223D01*
X131416316Y-69310038D01*
X131441541Y-69262216D01*
X131456329Y-69209065D01*
X131462580Y-69136933D01*
X131462195Y-69032167D01*
X131462099Y-69028780D01*
X131288152Y-69028780D01*
X131273650Y-69139833D01*
X131234108Y-69218626D01*
X131175472Y-69260181D01*
X131103687Y-69259517D01*
X131047522Y-69230337D01*
X131013398Y-69182558D01*
X130994176Y-69095921D01*
X130990736Y-69058715D01*
X130993245Y-68931136D01*
X131022960Y-68844800D01*
X131081129Y-68797224D01*
X131127381Y-68786509D01*
X131205079Y-68798333D01*
X131256990Y-68852268D01*
X131283812Y-68949367D01*
X131288152Y-69028780D01*
X131462099Y-69028780D01*
X131460972Y-68989225D01*
X131456657Y-68877463D01*
X131449843Y-68803799D01*
X131436825Y-68755494D01*
X131413896Y-68719809D01*
X131377352Y-68684006D01*
X131370384Y-68677763D01*
X131274398Y-68620339D01*
X131168607Y-68602591D01*
X131068558Y-68626143D01*
X131039555Y-68643183D01*
X130983047Y-68682763D01*
X130983047Y-68273073D01*
X130804114Y-68273073D01*
X130810948Y-68851501D01*
X130810948Y-68851501D01*
G37*
X130810948Y-68851501D02*
X130817782Y-69429930D01*
X130900414Y-69437897D01*
X130960925Y-69436461D01*
X130982593Y-69414024D01*
X130983047Y-69407623D01*
X130988766Y-69383985D01*
X131014912Y-69387381D01*
X131052967Y-69405856D01*
X131168715Y-69438814D01*
X131289408Y-69423008D01*
X131307061Y-69416484D01*
X131358299Y-69379956D01*
X131409641Y-69320223D01*
X131416316Y-69310038D01*
X131441541Y-69262216D01*
X131456329Y-69209065D01*
X131462580Y-69136933D01*
X131462195Y-69032167D01*
X131462099Y-69028780D01*
X131288152Y-69028780D01*
X131273650Y-69139833D01*
X131234108Y-69218626D01*
X131175472Y-69260181D01*
X131103687Y-69259517D01*
X131047522Y-69230337D01*
X131013398Y-69182558D01*
X130994176Y-69095921D01*
X130990736Y-69058715D01*
X130993245Y-68931136D01*
X131022960Y-68844800D01*
X131081129Y-68797224D01*
X131127381Y-68786509D01*
X131205079Y-68798333D01*
X131256990Y-68852268D01*
X131283812Y-68949367D01*
X131288152Y-69028780D01*
X131462099Y-69028780D01*
X131460972Y-68989225D01*
X131456657Y-68877463D01*
X131449843Y-68803799D01*
X131436825Y-68755494D01*
X131413896Y-68719809D01*
X131377352Y-68684006D01*
X131370384Y-68677763D01*
X131274398Y-68620339D01*
X131168607Y-68602591D01*
X131068558Y-68626143D01*
X131039555Y-68643183D01*
X130983047Y-68682763D01*
X130983047Y-68273073D01*
X130804114Y-68273073D01*
X130810948Y-68851501D01*
G36*
X130604288Y-68605668D02*
X130575391Y-68616661D01*
X130551317Y-68643778D01*
X130528466Y-68694216D01*
X130503238Y-68775173D01*
X130472032Y-68893844D01*
X130447651Y-68991341D01*
X130427367Y-69060980D01*
X130408970Y-69104399D01*
X130401600Y-69111666D01*
X130387845Y-69088807D01*
X130363459Y-69027468D01*
X130332299Y-68937915D01*
X130308469Y-68863768D01*
X130272265Y-68751043D01*
X130244779Y-68678197D01*
X130220899Y-68636174D01*
X130195516Y-68615918D01*
X130164414Y-68608478D01*
X130133718Y-68607672D01*
X130109860Y-68619184D01*
X130087767Y-68651341D01*
X130062366Y-68712465D01*
X130028586Y-68810882D01*
X130013904Y-68855495D01*
X129978565Y-68958433D01*
X129947865Y-69038894D01*
X129925577Y-69087522D01*
X129916417Y-69097302D01*
X129904114Y-69068575D01*
X129882537Y-69002140D01*
X129855291Y-68909482D01*
X129838864Y-68850285D01*
X129775261Y-68616316D01*
X129677712Y-68608291D01*
X129615393Y-68605635D01*
X129591689Y-68616759D01*
X129594751Y-68649185D01*
X129597607Y-68659142D01*
X129645470Y-68817775D01*
X129693828Y-68972904D01*
X129740008Y-69116442D01*
X129781331Y-69240302D01*
X129815122Y-69336397D01*
X129838705Y-69396640D01*
X129846790Y-69412146D01*
X129889877Y-69434855D01*
X129936004Y-69437572D01*
X129965583Y-69429624D01*
X129989639Y-69408088D01*
X130012746Y-69364166D01*
X130039477Y-69289059D01*
X130074406Y-69173968D01*
X130076197Y-69167867D01*
X130110567Y-69058763D01*
X130139993Y-68980793D01*
X130161721Y-68940587D01*
X130171223Y-68939038D01*
X130186165Y-68977969D01*
X130209792Y-69051976D01*
X130237680Y-69147004D01*
X130245708Y-69175676D01*
X130280554Y-69294608D01*
X130309802Y-69372325D01*
X130338805Y-69417273D01*
X130372913Y-69437894D01*
X130414886Y-69442642D01*
X130466363Y-69430981D01*
X130487459Y-69410861D01*
X130505889Y-69355917D01*
X130533648Y-69269281D01*
X130567636Y-69161058D01*
X130604753Y-69041349D01*
X130641898Y-68920258D01*
X130675972Y-68807888D01*
X130703875Y-68714342D01*
X130722505Y-68649723D01*
X130728793Y-68624399D01*
X130706460Y-68610537D01*
X130651692Y-68603743D01*
X130641608Y-68603603D01*
X130604288Y-68605668D01*
X130604288Y-68605668D01*
G37*
X130604288Y-68605668D02*
X130575391Y-68616661D01*
X130551317Y-68643778D01*
X130528466Y-68694216D01*
X130503238Y-68775173D01*
X130472032Y-68893844D01*
X130447651Y-68991341D01*
X130427367Y-69060980D01*
X130408970Y-69104399D01*
X130401600Y-69111666D01*
X130387845Y-69088807D01*
X130363459Y-69027468D01*
X130332299Y-68937915D01*
X130308469Y-68863768D01*
X130272265Y-68751043D01*
X130244779Y-68678197D01*
X130220899Y-68636174D01*
X130195516Y-68615918D01*
X130164414Y-68608478D01*
X130133718Y-68607672D01*
X130109860Y-68619184D01*
X130087767Y-68651341D01*
X130062366Y-68712465D01*
X130028586Y-68810882D01*
X130013904Y-68855495D01*
X129978565Y-68958433D01*
X129947865Y-69038894D01*
X129925577Y-69087522D01*
X129916417Y-69097302D01*
X129904114Y-69068575D01*
X129882537Y-69002140D01*
X129855291Y-68909482D01*
X129838864Y-68850285D01*
X129775261Y-68616316D01*
X129677712Y-68608291D01*
X129615393Y-68605635D01*
X129591689Y-68616759D01*
X129594751Y-68649185D01*
X129597607Y-68659142D01*
X129645470Y-68817775D01*
X129693828Y-68972904D01*
X129740008Y-69116442D01*
X129781331Y-69240302D01*
X129815122Y-69336397D01*
X129838705Y-69396640D01*
X129846790Y-69412146D01*
X129889877Y-69434855D01*
X129936004Y-69437572D01*
X129965583Y-69429624D01*
X129989639Y-69408088D01*
X130012746Y-69364166D01*
X130039477Y-69289059D01*
X130074406Y-69173968D01*
X130076197Y-69167867D01*
X130110567Y-69058763D01*
X130139993Y-68980793D01*
X130161721Y-68940587D01*
X130171223Y-68939038D01*
X130186165Y-68977969D01*
X130209792Y-69051976D01*
X130237680Y-69147004D01*
X130245708Y-69175676D01*
X130280554Y-69294608D01*
X130309802Y-69372325D01*
X130338805Y-69417273D01*
X130372913Y-69437894D01*
X130414886Y-69442642D01*
X130466363Y-69430981D01*
X130487459Y-69410861D01*
X130505889Y-69355917D01*
X130533648Y-69269281D01*
X130567636Y-69161058D01*
X130604753Y-69041349D01*
X130641898Y-68920258D01*
X130675972Y-68807888D01*
X130703875Y-68714342D01*
X130722505Y-68649723D01*
X130728793Y-68624399D01*
X130706460Y-68610537D01*
X130651692Y-68603743D01*
X130641608Y-68603603D01*
X130604288Y-68605668D01*
G36*
X129158824Y-68613632D02*
X129066991Y-68638614D01*
X129010898Y-68669970D01*
X128971140Y-68714974D01*
X128945485Y-68781508D01*
X128931702Y-68877457D01*
X128927560Y-69010704D01*
X128929090Y-69125795D01*
X128932550Y-69254246D01*
X128936926Y-69340572D01*
X128944055Y-69393492D01*
X128955773Y-69421723D01*
X128973917Y-69433983D01*
X128994907Y-69438238D01*
X129053959Y-69435157D01*
X129083896Y-69422311D01*
X129130484Y-69411128D01*
X129165129Y-69418572D01*
X129260398Y-69437534D01*
X129368929Y-69431553D01*
X129432096Y-69414478D01*
X129515771Y-69356765D01*
X129568750Y-69269797D01*
X129582516Y-69188208D01*
X129405735Y-69188208D01*
X129391505Y-69234621D01*
X129374889Y-69247826D01*
X129311524Y-69260770D01*
X129234088Y-69261150D01*
X129165438Y-69250254D01*
X129132076Y-69234154D01*
X129107445Y-69185450D01*
X129101566Y-69145165D01*
X129107294Y-69108713D01*
X129133516Y-69091608D01*
X129193787Y-69086796D01*
X129213901Y-69086687D01*
X129292587Y-69090060D01*
X129353887Y-69098502D01*
X129366453Y-69102119D01*
X129396899Y-69135656D01*
X129405735Y-69188208D01*
X129582516Y-69188208D01*
X129585878Y-69168289D01*
X129561999Y-69066958D01*
X129557177Y-69057437D01*
X129501037Y-69001094D01*
X129407250Y-68959362D01*
X129288019Y-68936810D01*
X129227821Y-68934134D01*
X129151833Y-68932612D01*
X129114541Y-68923388D01*
X129103790Y-68899473D01*
X129106233Y-68864214D01*
X129115689Y-68821926D01*
X129140759Y-68799825D01*
X129195528Y-68789630D01*
X129238596Y-68786400D01*
X129316270Y-68786605D01*
X129373287Y-68796041D01*
X129388219Y-68803810D01*
X129425147Y-68810199D01*
X129474783Y-68789220D01*
X129517495Y-68752747D01*
X129533798Y-68715747D01*
X129510699Y-68671674D01*
X129449502Y-68637418D01*
X129362358Y-68614988D01*
X129261415Y-68606390D01*
X129158824Y-68613632D01*
X129158824Y-68613632D01*
G37*
X129158824Y-68613632D02*
X129066991Y-68638614D01*
X129010898Y-68669970D01*
X128971140Y-68714974D01*
X128945485Y-68781508D01*
X128931702Y-68877457D01*
X128927560Y-69010704D01*
X128929090Y-69125795D01*
X128932550Y-69254246D01*
X128936926Y-69340572D01*
X128944055Y-69393492D01*
X128955773Y-69421723D01*
X128973917Y-69433983D01*
X128994907Y-69438238D01*
X129053959Y-69435157D01*
X129083896Y-69422311D01*
X129130484Y-69411128D01*
X129165129Y-69418572D01*
X129260398Y-69437534D01*
X129368929Y-69431553D01*
X129432096Y-69414478D01*
X129515771Y-69356765D01*
X129568750Y-69269797D01*
X129582516Y-69188208D01*
X129405735Y-69188208D01*
X129391505Y-69234621D01*
X129374889Y-69247826D01*
X129311524Y-69260770D01*
X129234088Y-69261150D01*
X129165438Y-69250254D01*
X129132076Y-69234154D01*
X129107445Y-69185450D01*
X129101566Y-69145165D01*
X129107294Y-69108713D01*
X129133516Y-69091608D01*
X129193787Y-69086796D01*
X129213901Y-69086687D01*
X129292587Y-69090060D01*
X129353887Y-69098502D01*
X129366453Y-69102119D01*
X129396899Y-69135656D01*
X129405735Y-69188208D01*
X129582516Y-69188208D01*
X129585878Y-69168289D01*
X129561999Y-69066958D01*
X129557177Y-69057437D01*
X129501037Y-69001094D01*
X129407250Y-68959362D01*
X129288019Y-68936810D01*
X129227821Y-68934134D01*
X129151833Y-68932612D01*
X129114541Y-68923388D01*
X129103790Y-68899473D01*
X129106233Y-68864214D01*
X129115689Y-68821926D01*
X129140759Y-68799825D01*
X129195528Y-68789630D01*
X129238596Y-68786400D01*
X129316270Y-68786605D01*
X129373287Y-68796041D01*
X129388219Y-68803810D01*
X129425147Y-68810199D01*
X129474783Y-68789220D01*
X129517495Y-68752747D01*
X129533798Y-68715747D01*
X129510699Y-68671674D01*
X129449502Y-68637418D01*
X129362358Y-68614988D01*
X129261415Y-68606390D01*
X129158824Y-68613632D01*
G36*
X128615005Y-68612515D02*
X128593058Y-68639981D01*
X128593057Y-68640234D01*
X128587010Y-68662615D01*
X128559975Y-68658336D01*
X128523137Y-68640390D01*
X128425477Y-68609105D01*
X128326449Y-68609197D01*
X128248317Y-68639693D01*
X128217219Y-68666287D01*
X128217400Y-68690666D01*
X128250740Y-68730876D01*
X128258713Y-68739383D01*
X128316656Y-68784747D01*
X128381579Y-68792665D01*
X128398553Y-68790469D01*
X128483531Y-68794544D01*
X128529494Y-68815807D01*
X128551812Y-68837825D01*
X128567138Y-68871053D01*
X128577207Y-68925188D01*
X128583750Y-69009930D01*
X128588501Y-69134975D01*
X128588889Y-69148151D01*
X128597433Y-69442642D01*
X128667284Y-69442642D01*
X128724700Y-69437032D01*
X128754085Y-69425692D01*
X128759861Y-69395697D01*
X128764793Y-69323894D01*
X128768513Y-69219324D01*
X128770657Y-69091028D01*
X128771035Y-69006173D01*
X128771035Y-68603603D01*
X128682046Y-68603603D01*
X128615005Y-68612515D01*
X128615005Y-68612515D01*
G37*
X128615005Y-68612515D02*
X128593058Y-68639981D01*
X128593057Y-68640234D01*
X128587010Y-68662615D01*
X128559975Y-68658336D01*
X128523137Y-68640390D01*
X128425477Y-68609105D01*
X128326449Y-68609197D01*
X128248317Y-68639693D01*
X128217219Y-68666287D01*
X128217400Y-68690666D01*
X128250740Y-68730876D01*
X128258713Y-68739383D01*
X128316656Y-68784747D01*
X128381579Y-68792665D01*
X128398553Y-68790469D01*
X128483531Y-68794544D01*
X128529494Y-68815807D01*
X128551812Y-68837825D01*
X128567138Y-68871053D01*
X128577207Y-68925188D01*
X128583750Y-69009930D01*
X128588501Y-69134975D01*
X128588889Y-69148151D01*
X128597433Y-69442642D01*
X128667284Y-69442642D01*
X128724700Y-69437032D01*
X128754085Y-69425692D01*
X128759861Y-69395697D01*
X128764793Y-69323894D01*
X128768513Y-69219324D01*
X128770657Y-69091028D01*
X128771035Y-69006173D01*
X128771035Y-68603603D01*
X128682046Y-68603603D01*
X128615005Y-68612515D01*
G36*
X127721068Y-68645022D02*
X127626063Y-68718909D01*
X127563553Y-68829238D01*
X127542152Y-68919179D01*
X127535037Y-68995238D01*
X127535909Y-69050203D01*
X127539528Y-69063892D01*
X127569508Y-69073773D01*
X127638369Y-69081495D01*
X127734154Y-69085984D01*
X127793657Y-69086687D01*
X127919589Y-69089616D01*
X127998739Y-69100116D01*
X128034928Y-69120756D01*
X128031977Y-69154102D01*
X127993709Y-69202723D01*
X127982847Y-69213814D01*
X127907853Y-69256013D01*
X127818108Y-69259937D01*
X127737033Y-69227034D01*
X127695506Y-69204741D01*
X127658800Y-69212056D01*
X127616005Y-69242345D01*
X127572707Y-69282632D01*
X127567362Y-69312946D01*
X127581439Y-69334765D01*
X127663324Y-69397104D01*
X127773012Y-69431663D01*
X127894317Y-69436176D01*
X128011055Y-69408376D01*
X128033698Y-69398108D01*
X128126755Y-69324228D01*
X128185944Y-69212956D01*
X128210815Y-69065231D01*
X128211636Y-69028663D01*
X128195925Y-68874099D01*
X128030612Y-68874099D01*
X128029161Y-68908249D01*
X127981301Y-68927721D01*
X127885486Y-68934127D01*
X127881145Y-68934134D01*
X127791328Y-68930914D01*
X127743372Y-68919877D01*
X127728615Y-68898963D01*
X127728593Y-68897812D01*
X127750180Y-68838418D01*
X127804519Y-68799145D01*
X127875975Y-68784475D01*
X127948912Y-68798893D01*
X127987201Y-68823660D01*
X128030612Y-68874099D01*
X128195925Y-68874099D01*
X128195286Y-68867818D01*
X128146957Y-68744535D01*
X128067877Y-68660209D01*
X127959271Y-68616233D01*
X127844584Y-68611628D01*
X127721068Y-68645022D01*
X127721068Y-68645022D01*
G37*
X127721068Y-68645022D02*
X127626063Y-68718909D01*
X127563553Y-68829238D01*
X127542152Y-68919179D01*
X127535037Y-68995238D01*
X127535909Y-69050203D01*
X127539528Y-69063892D01*
X127569508Y-69073773D01*
X127638369Y-69081495D01*
X127734154Y-69085984D01*
X127793657Y-69086687D01*
X127919589Y-69089616D01*
X127998739Y-69100116D01*
X128034928Y-69120756D01*
X128031977Y-69154102D01*
X127993709Y-69202723D01*
X127982847Y-69213814D01*
X127907853Y-69256013D01*
X127818108Y-69259937D01*
X127737033Y-69227034D01*
X127695506Y-69204741D01*
X127658800Y-69212056D01*
X127616005Y-69242345D01*
X127572707Y-69282632D01*
X127567362Y-69312946D01*
X127581439Y-69334765D01*
X127663324Y-69397104D01*
X127773012Y-69431663D01*
X127894317Y-69436176D01*
X128011055Y-69408376D01*
X128033698Y-69398108D01*
X128126755Y-69324228D01*
X128185944Y-69212956D01*
X128210815Y-69065231D01*
X128211636Y-69028663D01*
X128195925Y-68874099D01*
X128030612Y-68874099D01*
X128029161Y-68908249D01*
X127981301Y-68927721D01*
X127885486Y-68934127D01*
X127881145Y-68934134D01*
X127791328Y-68930914D01*
X127743372Y-68919877D01*
X127728615Y-68898963D01*
X127728593Y-68897812D01*
X127750180Y-68838418D01*
X127804519Y-68799145D01*
X127875975Y-68784475D01*
X127948912Y-68798893D01*
X127987201Y-68823660D01*
X128030612Y-68874099D01*
X128195925Y-68874099D01*
X128195286Y-68867818D01*
X128146957Y-68744535D01*
X128067877Y-68660209D01*
X127959271Y-68616233D01*
X127844584Y-68611628D01*
X127721068Y-68645022D01*
G36*
X133974358Y-67340692D02*
X133868411Y-67379936D01*
X133781899Y-67455037D01*
X133767652Y-67474945D01*
X133727902Y-67571255D01*
X133709060Y-67694686D01*
X133711907Y-67825660D01*
X133737221Y-67944601D01*
X133747858Y-67971771D01*
X133819374Y-68077943D01*
X133917683Y-68144732D01*
X134034181Y-68169265D01*
X134160263Y-68148667D01*
X134212076Y-68126837D01*
X134290134Y-68067876D01*
X134345520Y-67993393D01*
X134376612Y-67892622D01*
X134388929Y-67766701D01*
X134386634Y-67723399D01*
X134209599Y-67723399D01*
X134206700Y-67770831D01*
X134185346Y-67888836D01*
X134143031Y-67964104D01*
X134082270Y-67994730D01*
X134005577Y-67978806D01*
X133964494Y-67954524D01*
X133916024Y-67892792D01*
X133890368Y-67802919D01*
X133888198Y-67702542D01*
X133910187Y-67609297D01*
X133949003Y-67548187D01*
X134015165Y-67514303D01*
X134093121Y-67520275D01*
X134164075Y-67564011D01*
X134194452Y-67602605D01*
X134208475Y-67650149D01*
X134209599Y-67723399D01*
X134386634Y-67723399D01*
X134382099Y-67637888D01*
X134355745Y-67528441D01*
X134353446Y-67522763D01*
X134289283Y-67428339D01*
X134196745Y-67365869D01*
X134087786Y-67336328D01*
X133974358Y-67340692D01*
X133974358Y-67340692D01*
G37*
X133974358Y-67340692D02*
X133868411Y-67379936D01*
X133781899Y-67455037D01*
X133767652Y-67474945D01*
X133727902Y-67571255D01*
X133709060Y-67694686D01*
X133711907Y-67825660D01*
X133737221Y-67944601D01*
X133747858Y-67971771D01*
X133819374Y-68077943D01*
X133917683Y-68144732D01*
X134034181Y-68169265D01*
X134160263Y-68148667D01*
X134212076Y-68126837D01*
X134290134Y-68067876D01*
X134345520Y-67993393D01*
X134376612Y-67892622D01*
X134388929Y-67766701D01*
X134386634Y-67723399D01*
X134209599Y-67723399D01*
X134206700Y-67770831D01*
X134185346Y-67888836D01*
X134143031Y-67964104D01*
X134082270Y-67994730D01*
X134005577Y-67978806D01*
X133964494Y-67954524D01*
X133916024Y-67892792D01*
X133890368Y-67802919D01*
X133888198Y-67702542D01*
X133910187Y-67609297D01*
X133949003Y-67548187D01*
X134015165Y-67514303D01*
X134093121Y-67520275D01*
X134164075Y-67564011D01*
X134194452Y-67602605D01*
X134208475Y-67650149D01*
X134209599Y-67723399D01*
X134386634Y-67723399D01*
X134382099Y-67637888D01*
X134355745Y-67528441D01*
X134353446Y-67522763D01*
X134289283Y-67428339D01*
X134196745Y-67365869D01*
X134087786Y-67336328D01*
X133974358Y-67340692D01*
G36*
X132376566Y-67358442D02*
X132337568Y-67374898D01*
X132254715Y-67440070D01*
X132192182Y-67540203D01*
X132157600Y-67661017D01*
X132153175Y-67720070D01*
X132152617Y-67815415D01*
X132406871Y-67815415D01*
X132536699Y-67818050D01*
X132619860Y-67827615D01*
X132660343Y-67846606D01*
X132662137Y-67877514D01*
X132629232Y-67922833D01*
X132610274Y-67942542D01*
X132536376Y-67983734D01*
X132444709Y-67990060D01*
X132355412Y-67960549D01*
X132346857Y-67955243D01*
X132302915Y-67932446D01*
X132269470Y-67941455D01*
X132232942Y-67976370D01*
X132196743Y-68019307D01*
X132194622Y-68046612D01*
X132222189Y-68076315D01*
X132329804Y-68141460D01*
X132457029Y-68167997D01*
X132588355Y-68154093D01*
X132658172Y-68127830D01*
X132740350Y-68060779D01*
X132799002Y-67959221D01*
X132831578Y-67834972D01*
X132835527Y-67699848D01*
X132824011Y-67643095D01*
X132661125Y-67643095D01*
X132638025Y-67653521D01*
X132577983Y-67660684D01*
X132508573Y-67662863D01*
X132422642Y-67660698D01*
X132376215Y-67651954D01*
X132358044Y-67633257D01*
X132356020Y-67617097D01*
X132377019Y-67557628D01*
X132429686Y-67520103D01*
X132498524Y-67507458D01*
X132568038Y-67522626D01*
X132621545Y-67566818D01*
X132651024Y-67615517D01*
X132661125Y-67643095D01*
X132824011Y-67643095D01*
X132808299Y-67565664D01*
X132789692Y-67518353D01*
X132718548Y-67415588D01*
X132620987Y-67353097D01*
X132504497Y-67333257D01*
X132376566Y-67358442D01*
X132376566Y-67358442D01*
G37*
X132376566Y-67358442D02*
X132337568Y-67374898D01*
X132254715Y-67440070D01*
X132192182Y-67540203D01*
X132157600Y-67661017D01*
X132153175Y-67720070D01*
X132152617Y-67815415D01*
X132406871Y-67815415D01*
X132536699Y-67818050D01*
X132619860Y-67827615D01*
X132660343Y-67846606D01*
X132662137Y-67877514D01*
X132629232Y-67922833D01*
X132610274Y-67942542D01*
X132536376Y-67983734D01*
X132444709Y-67990060D01*
X132355412Y-67960549D01*
X132346857Y-67955243D01*
X132302915Y-67932446D01*
X132269470Y-67941455D01*
X132232942Y-67976370D01*
X132196743Y-68019307D01*
X132194622Y-68046612D01*
X132222189Y-68076315D01*
X132329804Y-68141460D01*
X132457029Y-68167997D01*
X132588355Y-68154093D01*
X132658172Y-68127830D01*
X132740350Y-68060779D01*
X132799002Y-67959221D01*
X132831578Y-67834972D01*
X132835527Y-67699848D01*
X132824011Y-67643095D01*
X132661125Y-67643095D01*
X132638025Y-67653521D01*
X132577983Y-67660684D01*
X132508573Y-67662863D01*
X132422642Y-67660698D01*
X132376215Y-67651954D01*
X132358044Y-67633257D01*
X132356020Y-67617097D01*
X132377019Y-67557628D01*
X132429686Y-67520103D01*
X132498524Y-67507458D01*
X132568038Y-67522626D01*
X132621545Y-67566818D01*
X132651024Y-67615517D01*
X132661125Y-67643095D01*
X132824011Y-67643095D01*
X132808299Y-67565664D01*
X132789692Y-67518353D01*
X132718548Y-67415588D01*
X132620987Y-67353097D01*
X132504497Y-67333257D01*
X132376566Y-67358442D01*
G36*
X131567962Y-67348734D02*
X131471807Y-67405172D01*
X131434914Y-67443366D01*
X131416455Y-67474030D01*
X131403810Y-67518493D01*
X131395948Y-67585872D01*
X131391836Y-67685280D01*
X131390440Y-67825834D01*
X131390419Y-67836095D01*
X131389854Y-68174593D01*
X131472487Y-68166626D01*
X131555119Y-68158659D01*
X131562390Y-67879970D01*
X131569550Y-67731459D01*
X131583731Y-67626949D01*
X131607509Y-67559788D01*
X131643457Y-67523321D01*
X131694151Y-67510895D01*
X131705256Y-67510699D01*
X131756649Y-67515210D01*
X131792801Y-67533082D01*
X131816913Y-67572147D01*
X131832183Y-67640235D01*
X131841809Y-67745176D01*
X131847512Y-67858906D01*
X131860224Y-68158659D01*
X131943032Y-68166639D01*
X132010998Y-68162419D01*
X132039087Y-68140096D01*
X132043293Y-68103525D01*
X132045986Y-68026014D01*
X132047018Y-67917459D01*
X132046243Y-67787752D01*
X132045268Y-67725309D01*
X132038202Y-67345045D01*
X131966745Y-67336851D01*
X131901781Y-67340468D01*
X131860312Y-67357685D01*
X131813565Y-67373406D01*
X131774532Y-67359522D01*
X131673647Y-67332339D01*
X131567962Y-67348734D01*
X131567962Y-67348734D01*
G37*
X131567962Y-67348734D02*
X131471807Y-67405172D01*
X131434914Y-67443366D01*
X131416455Y-67474030D01*
X131403810Y-67518493D01*
X131395948Y-67585872D01*
X131391836Y-67685280D01*
X131390440Y-67825834D01*
X131390419Y-67836095D01*
X131389854Y-68174593D01*
X131472487Y-68166626D01*
X131555119Y-68158659D01*
X131562390Y-67879970D01*
X131569550Y-67731459D01*
X131583731Y-67626949D01*
X131607509Y-67559788D01*
X131643457Y-67523321D01*
X131694151Y-67510895D01*
X131705256Y-67510699D01*
X131756649Y-67515210D01*
X131792801Y-67533082D01*
X131816913Y-67572147D01*
X131832183Y-67640235D01*
X131841809Y-67745176D01*
X131847512Y-67858906D01*
X131860224Y-68158659D01*
X131943032Y-68166639D01*
X132010998Y-68162419D01*
X132039087Y-68140096D01*
X132043293Y-68103525D01*
X132045986Y-68026014D01*
X132047018Y-67917459D01*
X132046243Y-67787752D01*
X132045268Y-67725309D01*
X132038202Y-67345045D01*
X131966745Y-67336851D01*
X131901781Y-67340468D01*
X131860312Y-67357685D01*
X131813565Y-67373406D01*
X131774532Y-67359522D01*
X131673647Y-67332339D01*
X131567962Y-67348734D01*
G36*
X130429397Y-67359716D02*
X130371248Y-67383993D01*
X130269984Y-67435655D01*
X130315054Y-67498509D01*
X130362678Y-67543682D01*
X130410975Y-67545278D01*
X130466828Y-67533049D01*
X130547751Y-67521146D01*
X130582457Y-67517308D01*
X130659488Y-67513441D01*
X130700875Y-67523660D01*
X130720071Y-67549681D01*
X130716649Y-67599257D01*
X130671432Y-67637876D01*
X130593201Y-67659870D01*
X130544693Y-67662863D01*
X130422435Y-67681678D01*
X130330565Y-67733642D01*
X130274253Y-67812031D01*
X130258672Y-67910119D01*
X130281681Y-68004841D01*
X130342669Y-68088659D01*
X130438402Y-68144324D01*
X130559632Y-68169191D01*
X130697114Y-68160616D01*
X130766931Y-68143612D01*
X130845902Y-68109389D01*
X130906443Y-68071329D01*
X130969679Y-68022218D01*
X130910202Y-67958908D01*
X130850726Y-67895598D01*
X130770690Y-67944400D01*
X130687348Y-67980340D01*
X130601824Y-67993765D01*
X130526085Y-67986246D01*
X130472096Y-67959360D01*
X130451821Y-67914678D01*
X130453071Y-67902632D01*
X130473609Y-67871693D01*
X130527563Y-67847204D01*
X130614481Y-67826711D01*
X130724648Y-67803586D01*
X130795950Y-67781659D01*
X130839863Y-67754931D01*
X130867861Y-67717402D01*
X130881927Y-67686885D01*
X130903019Y-67580719D01*
X130882274Y-67480748D01*
X130823600Y-67401056D01*
X130797333Y-67382065D01*
X130688206Y-67341851D01*
X130559242Y-67334430D01*
X130429397Y-67359716D01*
X130429397Y-67359716D01*
G37*
X130429397Y-67359716D02*
X130371248Y-67383993D01*
X130269984Y-67435655D01*
X130315054Y-67498509D01*
X130362678Y-67543682D01*
X130410975Y-67545278D01*
X130466828Y-67533049D01*
X130547751Y-67521146D01*
X130582457Y-67517308D01*
X130659488Y-67513441D01*
X130700875Y-67523660D01*
X130720071Y-67549681D01*
X130716649Y-67599257D01*
X130671432Y-67637876D01*
X130593201Y-67659870D01*
X130544693Y-67662863D01*
X130422435Y-67681678D01*
X130330565Y-67733642D01*
X130274253Y-67812031D01*
X130258672Y-67910119D01*
X130281681Y-68004841D01*
X130342669Y-68088659D01*
X130438402Y-68144324D01*
X130559632Y-68169191D01*
X130697114Y-68160616D01*
X130766931Y-68143612D01*
X130845902Y-68109389D01*
X130906443Y-68071329D01*
X130969679Y-68022218D01*
X130910202Y-67958908D01*
X130850726Y-67895598D01*
X130770690Y-67944400D01*
X130687348Y-67980340D01*
X130601824Y-67993765D01*
X130526085Y-67986246D01*
X130472096Y-67959360D01*
X130451821Y-67914678D01*
X130453071Y-67902632D01*
X130473609Y-67871693D01*
X130527563Y-67847204D01*
X130614481Y-67826711D01*
X130724648Y-67803586D01*
X130795950Y-67781659D01*
X130839863Y-67754931D01*
X130867861Y-67717402D01*
X130881927Y-67686885D01*
X130903019Y-67580719D01*
X130882274Y-67480748D01*
X130823600Y-67401056D01*
X130797333Y-67382065D01*
X130688206Y-67341851D01*
X130559242Y-67334430D01*
X130429397Y-67359716D01*
G36*
X129721813Y-67356642D02*
X129620820Y-67413295D01*
X129600799Y-67431574D01*
X129560186Y-67476281D01*
X129535505Y-67520217D01*
X129521898Y-67578697D01*
X129514508Y-67667039D01*
X129512375Y-67710403D01*
X129514059Y-67859401D01*
X129537123Y-67970450D01*
X129585262Y-68053279D01*
X129662171Y-68117616D01*
X129668516Y-68121550D01*
X129772895Y-68160484D01*
X129890356Y-68167364D01*
X129978743Y-68147115D01*
X130031228Y-68113998D01*
X130088416Y-68062740D01*
X130090754Y-68060247D01*
X130143481Y-67971498D01*
X130174022Y-67852867D01*
X130179583Y-67754351D01*
X129991455Y-67754351D01*
X129988790Y-67846411D01*
X129977992Y-67902608D01*
X129954859Y-67937774D01*
X129934947Y-67953813D01*
X129854128Y-67989909D01*
X129781440Y-67976643D01*
X129737201Y-67942542D01*
X129704318Y-67893546D01*
X129688971Y-67821952D01*
X129686350Y-67751852D01*
X129700754Y-67633091D01*
X129742719Y-67552751D01*
X129810371Y-67513716D01*
X129843257Y-67510310D01*
X129916458Y-67526843D01*
X129963641Y-67579264D01*
X129987379Y-67671809D01*
X129991455Y-67754351D01*
X130179583Y-67754351D01*
X130181486Y-67720650D01*
X130164977Y-67591142D01*
X130123603Y-67480642D01*
X130122632Y-67478939D01*
X130049418Y-67398435D01*
X129949371Y-67350415D01*
X129835750Y-67336083D01*
X129721813Y-67356642D01*
X129721813Y-67356642D01*
G37*
X129721813Y-67356642D02*
X129620820Y-67413295D01*
X129600799Y-67431574D01*
X129560186Y-67476281D01*
X129535505Y-67520217D01*
X129521898Y-67578697D01*
X129514508Y-67667039D01*
X129512375Y-67710403D01*
X129514059Y-67859401D01*
X129537123Y-67970450D01*
X129585262Y-68053279D01*
X129662171Y-68117616D01*
X129668516Y-68121550D01*
X129772895Y-68160484D01*
X129890356Y-68167364D01*
X129978743Y-68147115D01*
X130031228Y-68113998D01*
X130088416Y-68062740D01*
X130090754Y-68060247D01*
X130143481Y-67971498D01*
X130174022Y-67852867D01*
X130179583Y-67754351D01*
X129991455Y-67754351D01*
X129988790Y-67846411D01*
X129977992Y-67902608D01*
X129954859Y-67937774D01*
X129934947Y-67953813D01*
X129854128Y-67989909D01*
X129781440Y-67976643D01*
X129737201Y-67942542D01*
X129704318Y-67893546D01*
X129688971Y-67821952D01*
X129686350Y-67751852D01*
X129700754Y-67633091D01*
X129742719Y-67552751D01*
X129810371Y-67513716D01*
X129843257Y-67510310D01*
X129916458Y-67526843D01*
X129963641Y-67579264D01*
X129987379Y-67671809D01*
X129991455Y-67754351D01*
X130179583Y-67754351D01*
X130181486Y-67720650D01*
X130164977Y-67591142D01*
X130123603Y-67480642D01*
X130122632Y-67478939D01*
X130049418Y-67398435D01*
X129949371Y-67350415D01*
X129835750Y-67336083D01*
X129721813Y-67356642D01*
G36*
X129203267Y-67612012D02*
X129202235Y-67737982D01*
X129198058Y-67823671D01*
X129189113Y-67879624D01*
X129173777Y-67916388D01*
X129152416Y-67942542D01*
X129097067Y-67980636D01*
X129050715Y-67993393D01*
X128995365Y-67976137D01*
X128949013Y-67942542D01*
X128926297Y-67914151D01*
X128911477Y-67876355D01*
X128902930Y-67818610D01*
X128899034Y-67730367D01*
X128898162Y-67612012D01*
X128898162Y-67332332D01*
X128718925Y-67332332D01*
X128725911Y-67745495D01*
X128732897Y-68158659D01*
X128815530Y-68166626D01*
X128875184Y-68165597D01*
X128897272Y-68143949D01*
X128898162Y-68134191D01*
X128902995Y-68109224D01*
X128926483Y-68110329D01*
X128973176Y-68132580D01*
X129089455Y-68167547D01*
X129204201Y-68151875D01*
X129215980Y-68147335D01*
X129270979Y-68112865D01*
X129317682Y-68070083D01*
X129338777Y-68041098D01*
X129353678Y-68002626D01*
X129363781Y-67945287D01*
X129370484Y-67859701D01*
X129375187Y-67736485D01*
X129376859Y-67672988D01*
X129385185Y-67332332D01*
X129203267Y-67332332D01*
X129203267Y-67612012D01*
X129203267Y-67612012D01*
G37*
X129203267Y-67612012D02*
X129202235Y-67737982D01*
X129198058Y-67823671D01*
X129189113Y-67879624D01*
X129173777Y-67916388D01*
X129152416Y-67942542D01*
X129097067Y-67980636D01*
X129050715Y-67993393D01*
X128995365Y-67976137D01*
X128949013Y-67942542D01*
X128926297Y-67914151D01*
X128911477Y-67876355D01*
X128902930Y-67818610D01*
X128899034Y-67730367D01*
X128898162Y-67612012D01*
X128898162Y-67332332D01*
X128718925Y-67332332D01*
X128725911Y-67745495D01*
X128732897Y-68158659D01*
X128815530Y-68166626D01*
X128875184Y-68165597D01*
X128897272Y-68143949D01*
X128898162Y-68134191D01*
X128902995Y-68109224D01*
X128926483Y-68110329D01*
X128973176Y-68132580D01*
X129089455Y-68167547D01*
X129204201Y-68151875D01*
X129215980Y-68147335D01*
X129270979Y-68112865D01*
X129317682Y-68070083D01*
X129338777Y-68041098D01*
X129353678Y-68002626D01*
X129363781Y-67945287D01*
X129370484Y-67859701D01*
X129375187Y-67736485D01*
X129376859Y-67672988D01*
X129385185Y-67332332D01*
X129203267Y-67332332D01*
X129203267Y-67612012D01*
G36*
X128413766Y-67340102D02*
X128390116Y-67365645D01*
X128389654Y-67371912D01*
X128385058Y-67397279D01*
X128362270Y-67391308D01*
X128333146Y-67371912D01*
X128254950Y-67340903D01*
X128160168Y-67334362D01*
X128073727Y-67352591D01*
X128044914Y-67368421D01*
X128014197Y-67394730D01*
X128014087Y-67419070D01*
X128046736Y-67458944D01*
X128057455Y-67470396D01*
X128111977Y-67515652D01*
X128168988Y-67525397D01*
X128201268Y-67520913D01*
X128273985Y-67519295D01*
X128330426Y-67552954D01*
X128336420Y-67558778D01*
X128360100Y-67587475D01*
X128375557Y-67623958D01*
X128384496Y-67678903D01*
X128388626Y-67762985D01*
X128389653Y-67886879D01*
X128389654Y-67891692D01*
X128389654Y-68171371D01*
X128567632Y-68171371D01*
X128567632Y-67332332D01*
X128478643Y-67332332D01*
X128413766Y-67340102D01*
X128413766Y-67340102D01*
G37*
X128413766Y-67340102D02*
X128390116Y-67365645D01*
X128389654Y-67371912D01*
X128385058Y-67397279D01*
X128362270Y-67391308D01*
X128333146Y-67371912D01*
X128254950Y-67340903D01*
X128160168Y-67334362D01*
X128073727Y-67352591D01*
X128044914Y-67368421D01*
X128014197Y-67394730D01*
X128014087Y-67419070D01*
X128046736Y-67458944D01*
X128057455Y-67470396D01*
X128111977Y-67515652D01*
X128168988Y-67525397D01*
X128201268Y-67520913D01*
X128273985Y-67519295D01*
X128330426Y-67552954D01*
X128336420Y-67558778D01*
X128360100Y-67587475D01*
X128375557Y-67623958D01*
X128384496Y-67678903D01*
X128388626Y-67762985D01*
X128389653Y-67886879D01*
X128389654Y-67891692D01*
X128389654Y-68171371D01*
X128567632Y-68171371D01*
X128567632Y-67332332D01*
X128478643Y-67332332D01*
X128413766Y-67340102D01*
G36*
X127565476Y-67346893D02*
X127473702Y-67389539D01*
X127407648Y-67440298D01*
X127385157Y-67479090D01*
X127403881Y-67515816D01*
X127437238Y-67543411D01*
X127485903Y-67573053D01*
X127522699Y-67570552D01*
X127556447Y-67549767D01*
X127643282Y-67513634D01*
X127725233Y-67522397D01*
X127793685Y-67570240D01*
X127840022Y-67651345D01*
X127855720Y-67751852D01*
X127837774Y-67858739D01*
X127789678Y-67937789D01*
X127720048Y-67983186D01*
X127637499Y-67989112D01*
X127556447Y-67953936D01*
X127511950Y-67929262D01*
X127474466Y-67935723D01*
X127437238Y-67960292D01*
X127391771Y-68002130D01*
X127388484Y-68039150D01*
X127428754Y-68083087D01*
X127453968Y-68102700D01*
X127553627Y-68149186D01*
X127672395Y-68163950D01*
X127788503Y-68145509D01*
X127829788Y-68128264D01*
X127936422Y-68049116D01*
X128003278Y-67941300D01*
X128032164Y-67801495D01*
X128033698Y-67754051D01*
X128020430Y-67608610D01*
X127987239Y-67511878D01*
X127910838Y-67419221D01*
X127806091Y-67358697D01*
X127686477Y-67333517D01*
X127565476Y-67346893D01*
X127565476Y-67346893D01*
G37*
X127565476Y-67346893D02*
X127473702Y-67389539D01*
X127407648Y-67440298D01*
X127385157Y-67479090D01*
X127403881Y-67515816D01*
X127437238Y-67543411D01*
X127485903Y-67573053D01*
X127522699Y-67570552D01*
X127556447Y-67549767D01*
X127643282Y-67513634D01*
X127725233Y-67522397D01*
X127793685Y-67570240D01*
X127840022Y-67651345D01*
X127855720Y-67751852D01*
X127837774Y-67858739D01*
X127789678Y-67937789D01*
X127720048Y-67983186D01*
X127637499Y-67989112D01*
X127556447Y-67953936D01*
X127511950Y-67929262D01*
X127474466Y-67935723D01*
X127437238Y-67960292D01*
X127391771Y-68002130D01*
X127388484Y-68039150D01*
X127428754Y-68083087D01*
X127453968Y-68102700D01*
X127553627Y-68149186D01*
X127672395Y-68163950D01*
X127788503Y-68145509D01*
X127829788Y-68128264D01*
X127936422Y-68049116D01*
X128003278Y-67941300D01*
X128032164Y-67801495D01*
X128033698Y-67754051D01*
X128020430Y-67608610D01*
X127987239Y-67511878D01*
X127910838Y-67419221D01*
X127806091Y-67358697D01*
X127686477Y-67333517D01*
X127565476Y-67346893D01*
G36*
X126885932Y-67357606D02*
X126850391Y-67372661D01*
X126765676Y-67428983D01*
X126710244Y-67508793D01*
X126677670Y-67622845D01*
X126670336Y-67674072D01*
X126653724Y-67815415D01*
X126911478Y-67815415D01*
X127042245Y-67817983D01*
X127126371Y-67827336D01*
X127167881Y-67845949D01*
X127170801Y-67876294D01*
X127139159Y-67920845D01*
X127118382Y-67942542D01*
X127044484Y-67983734D01*
X126952818Y-67990060D01*
X126863520Y-67960549D01*
X126854965Y-67955243D01*
X126811023Y-67932446D01*
X126777578Y-67941455D01*
X126741050Y-67976370D01*
X126704851Y-68019307D01*
X126702730Y-68046612D01*
X126730297Y-68076315D01*
X126837912Y-68141460D01*
X126965137Y-68167997D01*
X127096463Y-68154093D01*
X127166280Y-68127830D01*
X127248459Y-68060779D01*
X127307111Y-67959221D01*
X127339686Y-67834972D01*
X127343635Y-67699848D01*
X127332120Y-67643095D01*
X127169233Y-67643095D01*
X127146133Y-67653521D01*
X127086091Y-67660684D01*
X127016681Y-67662863D01*
X126930750Y-67660698D01*
X126884323Y-67651954D01*
X126866153Y-67633257D01*
X126864128Y-67617097D01*
X126885127Y-67557628D01*
X126937794Y-67520103D01*
X127006632Y-67507458D01*
X127076146Y-67522626D01*
X127129653Y-67566818D01*
X127159132Y-67615517D01*
X127169233Y-67643095D01*
X127332120Y-67643095D01*
X127316408Y-67565664D01*
X127297800Y-67518353D01*
X127226628Y-67415898D01*
X127128820Y-67353184D01*
X127012536Y-67332868D01*
X126885932Y-67357606D01*
X126885932Y-67357606D01*
G37*
X126885932Y-67357606D02*
X126850391Y-67372661D01*
X126765676Y-67428983D01*
X126710244Y-67508793D01*
X126677670Y-67622845D01*
X126670336Y-67674072D01*
X126653724Y-67815415D01*
X126911478Y-67815415D01*
X127042245Y-67817983D01*
X127126371Y-67827336D01*
X127167881Y-67845949D01*
X127170801Y-67876294D01*
X127139159Y-67920845D01*
X127118382Y-67942542D01*
X127044484Y-67983734D01*
X126952818Y-67990060D01*
X126863520Y-67960549D01*
X126854965Y-67955243D01*
X126811023Y-67932446D01*
X126777578Y-67941455D01*
X126741050Y-67976370D01*
X126704851Y-68019307D01*
X126702730Y-68046612D01*
X126730297Y-68076315D01*
X126837912Y-68141460D01*
X126965137Y-68167997D01*
X127096463Y-68154093D01*
X127166280Y-68127830D01*
X127248459Y-68060779D01*
X127307111Y-67959221D01*
X127339686Y-67834972D01*
X127343635Y-67699848D01*
X127332120Y-67643095D01*
X127169233Y-67643095D01*
X127146133Y-67653521D01*
X127086091Y-67660684D01*
X127016681Y-67662863D01*
X126930750Y-67660698D01*
X126884323Y-67651954D01*
X126866153Y-67633257D01*
X126864128Y-67617097D01*
X126885127Y-67557628D01*
X126937794Y-67520103D01*
X127006632Y-67507458D01*
X127076146Y-67522626D01*
X127129653Y-67566818D01*
X127159132Y-67615517D01*
X127169233Y-67643095D01*
X127332120Y-67643095D01*
X127316408Y-67565664D01*
X127297800Y-67518353D01*
X127226628Y-67415898D01*
X127128820Y-67353184D01*
X127012536Y-67332868D01*
X126885932Y-67357606D01*
G36*
X130452733Y-61307442D02*
X130333371Y-61311821D01*
X130231459Y-61318509D01*
X130158072Y-61327338D01*
X130124286Y-61338138D01*
X130124158Y-61338288D01*
X130110478Y-61373595D01*
X130090465Y-61449236D01*
X130066419Y-61555433D01*
X130040639Y-61682405D01*
X130030002Y-61738739D01*
X130003966Y-61871059D01*
X129978292Y-61986238D01*
X129955361Y-62074622D01*
X129937555Y-62126560D01*
X129932195Y-62135168D01*
X129898578Y-62157539D01*
X129833625Y-62189552D01*
X129732482Y-62233368D01*
X129590295Y-62291153D01*
X129518001Y-62319781D01*
X129387790Y-62371052D01*
X129061038Y-62143884D01*
X128947309Y-62065942D01*
X128847316Y-61999532D01*
X128768840Y-61949656D01*
X128719662Y-61921316D01*
X128707733Y-61916717D01*
X128679266Y-61934202D01*
X128624187Y-61981472D01*
X128550158Y-62050743D01*
X128464838Y-62134235D01*
X128375891Y-62224166D01*
X128290976Y-62312753D01*
X128217755Y-62392217D01*
X128163890Y-62454775D01*
X128137041Y-62492645D01*
X128135399Y-62498042D01*
X128149213Y-62529963D01*
X128187243Y-62595199D01*
X128244375Y-62685529D01*
X128315494Y-62792730D01*
X128351516Y-62845469D01*
X128427003Y-62955843D01*
X128490996Y-63051021D01*
X128538458Y-63123381D01*
X128564347Y-63165300D01*
X128567632Y-63172381D01*
X128557722Y-63205478D01*
X128531363Y-63272311D01*
X128493609Y-63361570D01*
X128449518Y-63461945D01*
X128404143Y-63562126D01*
X128362540Y-63650804D01*
X128329765Y-63716669D01*
X128310872Y-63748410D01*
X128309688Y-63749447D01*
X128275992Y-63759731D01*
X128203860Y-63775723D01*
X128105044Y-63794951D01*
X128026371Y-63809000D01*
X127901574Y-63830941D01*
X127781191Y-63852857D01*
X127683226Y-63871439D01*
X127645960Y-63878927D01*
X127525189Y-63904113D01*
X127525189Y-64319813D01*
X127525659Y-64475139D01*
X127527578Y-64586983D01*
X127531710Y-64662709D01*
X127538821Y-64709681D01*
X127549674Y-64735263D01*
X127565035Y-64746819D01*
X127569684Y-64748384D01*
X127613731Y-64758517D01*
X127693703Y-64774675D01*
X127795448Y-64794041D01*
X127843007Y-64802770D01*
X127962370Y-64824852D01*
X128078351Y-64847029D01*
X128170680Y-64865405D01*
X128190938Y-64869637D01*
X128310039Y-64894989D01*
X128430829Y-65198979D01*
X128551618Y-65502970D01*
X128343509Y-65806046D01*
X128269252Y-65916413D01*
X128206697Y-66013626D01*
X128161040Y-66089279D01*
X128137479Y-66134964D01*
X128135399Y-66142733D01*
X128152685Y-66171611D01*
X128199413Y-66227420D01*
X128267890Y-66302404D01*
X128350423Y-66388803D01*
X128439317Y-66478859D01*
X128526881Y-66564814D01*
X128605419Y-66638910D01*
X128667240Y-66693388D01*
X128704649Y-66720490D01*
X128709941Y-66722122D01*
X128739613Y-66708443D01*
X128802779Y-66670845D01*
X128891213Y-66614486D01*
X128996692Y-66544523D01*
X129040056Y-66515086D01*
X129343107Y-66308049D01*
X129491934Y-66390413D01*
X129569875Y-66429034D01*
X129630702Y-66450872D01*
X129661065Y-66451253D01*
X129675790Y-66422937D01*
X129707138Y-66353852D01*
X129752404Y-66250261D01*
X129808882Y-66118431D01*
X129873867Y-65964625D01*
X129944654Y-65795108D01*
X129950351Y-65781381D01*
X130219334Y-65133033D01*
X130162602Y-65087516D01*
X130035007Y-64981862D01*
X129941024Y-64895223D01*
X129871895Y-64818493D01*
X129818865Y-64742568D01*
X129800570Y-64711054D01*
X129764272Y-64640980D01*
X129741757Y-64579882D01*
X129729788Y-64511646D01*
X129725131Y-64420158D01*
X129724489Y-64332132D01*
X129732440Y-64163368D01*
X129760010Y-64028794D01*
X129812767Y-63913727D01*
X129896283Y-63803486D01*
X129944382Y-63752551D01*
X130101525Y-63624070D01*
X130272973Y-63543505D01*
X130463567Y-63508810D01*
X130525243Y-63507040D01*
X130733173Y-63530597D01*
X130917903Y-63598775D01*
X131076527Y-63709773D01*
X131206139Y-63861789D01*
X131265873Y-63966000D01*
X131331417Y-64155298D01*
X131349108Y-64354916D01*
X131318461Y-64556679D01*
X131303797Y-64604699D01*
X131246752Y-64722619D01*
X131158373Y-64846666D01*
X131052594Y-64959806D01*
X130943802Y-65044728D01*
X130888211Y-65087171D01*
X130857838Y-65126084D01*
X130855920Y-65134666D01*
X130865243Y-65166282D01*
X130891159Y-65237218D01*
X130930594Y-65339903D01*
X130980469Y-65466766D01*
X131037710Y-65610234D01*
X131099238Y-65762736D01*
X131161978Y-65916701D01*
X131222854Y-66064556D01*
X131278788Y-66198730D01*
X131326704Y-66311652D01*
X131363526Y-66395750D01*
X131386177Y-66443451D01*
X131390669Y-66450748D01*
X131420731Y-66450646D01*
X131482289Y-66430416D01*
X131562260Y-66394397D01*
X131565631Y-66392703D01*
X131722254Y-66313639D01*
X132021207Y-66517881D01*
X132131162Y-66591044D01*
X132228317Y-66652048D01*
X132304080Y-66695766D01*
X132349860Y-66717072D01*
X132357159Y-66718292D01*
X132387216Y-66699510D01*
X132445026Y-66650410D01*
X132523362Y-66577578D01*
X132614997Y-66487603D01*
X132656997Y-66444968D01*
X132750356Y-66348985D01*
X132830839Y-66265750D01*
X132891856Y-66202116D01*
X132926818Y-66164935D01*
X132932264Y-66158699D01*
X132922948Y-66133055D01*
X132889052Y-66073450D01*
X132835268Y-65987508D01*
X132766287Y-65882849D01*
X132725979Y-65823576D01*
X132507265Y-65505228D01*
X132626395Y-65204716D01*
X132671700Y-65090900D01*
X132709959Y-64995664D01*
X132737461Y-64928183D01*
X132750496Y-64897633D01*
X132750935Y-64896852D01*
X132776460Y-64889882D01*
X132843232Y-64875541D01*
X132942473Y-64855612D01*
X133065411Y-64831880D01*
X133134610Y-64818848D01*
X133512877Y-64748197D01*
X133516318Y-64539578D01*
X133344736Y-64539578D01*
X133343374Y-64596430D01*
X133341039Y-64611812D01*
X133314406Y-64616336D01*
X133247376Y-64628720D01*
X133149478Y-64647176D01*
X133030243Y-64669921D01*
X133004515Y-64674858D01*
X132838970Y-64709836D01*
X132719473Y-64742202D01*
X132647934Y-64771403D01*
X132632326Y-64782916D01*
X132600764Y-64830136D01*
X132559390Y-64912741D01*
X132512381Y-65019753D01*
X132463917Y-65140195D01*
X132418176Y-65263088D01*
X132379338Y-65377455D01*
X132351580Y-65472319D01*
X132339081Y-65536701D01*
X132339449Y-65552331D01*
X132358387Y-65597854D01*
X132400497Y-65674396D01*
X132459627Y-65771429D01*
X132529626Y-65878430D01*
X132532526Y-65882710D01*
X132712625Y-66148201D01*
X132528225Y-66333840D01*
X132448760Y-66410094D01*
X132380366Y-66468841D01*
X132331854Y-66502899D01*
X132314343Y-66508166D01*
X132282650Y-66489838D01*
X132218894Y-66448630D01*
X132132651Y-66390850D01*
X132043598Y-66329808D01*
X131915011Y-66244996D01*
X131815067Y-66191141D01*
X131734200Y-66165648D01*
X131662841Y-66165920D01*
X131591422Y-66189364D01*
X131568012Y-66200808D01*
X131514117Y-66220645D01*
X131481717Y-66217841D01*
X131480495Y-66216286D01*
X131467006Y-66186919D01*
X131437329Y-66117834D01*
X131394550Y-66016364D01*
X131341757Y-65889848D01*
X131282038Y-65745620D01*
X131264948Y-65704159D01*
X131063348Y-65214598D01*
X131200287Y-65089444D01*
X131344165Y-64926241D01*
X131449842Y-64738679D01*
X131514235Y-64535788D01*
X131534262Y-64326596D01*
X131516656Y-64162654D01*
X131449433Y-63949194D01*
X131343607Y-63762160D01*
X131205002Y-63605038D01*
X131039439Y-63481316D01*
X130852742Y-63394481D01*
X130650733Y-63348022D01*
X130439235Y-63345424D01*
X130225904Y-63389584D01*
X130019220Y-63481118D01*
X129844211Y-63610087D01*
X129704450Y-63771545D01*
X129603512Y-63960548D01*
X129544972Y-64172147D01*
X129531047Y-64351100D01*
X129555997Y-64578357D01*
X129627522Y-64787170D01*
X129743917Y-64973822D01*
X129882189Y-65116861D01*
X129995634Y-65213830D01*
X129787047Y-65720078D01*
X129725390Y-65869307D01*
X129670288Y-66001876D01*
X129624653Y-66110847D01*
X129591395Y-66189286D01*
X129573422Y-66230255D01*
X129571205Y-66234557D01*
X129546370Y-66229730D01*
X129495062Y-66207094D01*
X129486572Y-66202776D01*
X129419607Y-66174287D01*
X129356166Y-66164784D01*
X129287155Y-66176885D01*
X129203481Y-66213210D01*
X129096052Y-66276378D01*
X128990278Y-66345724D01*
X128717849Y-66528686D01*
X128529524Y-66339368D01*
X128341198Y-66150050D01*
X128530691Y-65871787D01*
X128624842Y-65727244D01*
X128687398Y-65616751D01*
X128717459Y-65541966D01*
X128720184Y-65522316D01*
X128709900Y-65463725D01*
X128682280Y-65371498D01*
X128642171Y-65257758D01*
X128594421Y-65134627D01*
X128543878Y-65014224D01*
X128495388Y-64908674D01*
X128453800Y-64830096D01*
X128429588Y-64795659D01*
X128393948Y-64768140D01*
X128337964Y-64743407D01*
X128253145Y-64718786D01*
X128130999Y-64691599D01*
X128046422Y-64674889D01*
X127924108Y-64651497D01*
X127821305Y-64632031D01*
X127747508Y-64618273D01*
X127712214Y-64612009D01*
X127710600Y-64611812D01*
X127707540Y-64588143D01*
X127705091Y-64524163D01*
X127703550Y-64430410D01*
X127703167Y-64346558D01*
X127704174Y-64225946D01*
X127708180Y-64146905D01*
X127716665Y-64100175D01*
X127731108Y-64076499D01*
X127747662Y-64068019D01*
X127789327Y-64058356D01*
X127869326Y-64042021D01*
X127975948Y-64021339D01*
X128091051Y-63999818D01*
X128232406Y-63971750D01*
X128331838Y-63946440D01*
X128397980Y-63921171D01*
X128439466Y-63893229D01*
X128443907Y-63888837D01*
X128477301Y-63840204D01*
X128522092Y-63756268D01*
X128573178Y-63648948D01*
X128625453Y-63530166D01*
X128673815Y-63411840D01*
X128713158Y-63305893D01*
X128738379Y-63224243D01*
X128744962Y-63185723D01*
X128729669Y-63133684D01*
X128684913Y-63046985D01*
X128613356Y-62930385D01*
X128544302Y-62827049D01*
X128342994Y-62534203D01*
X128525831Y-62352587D01*
X128604366Y-62276395D01*
X128670168Y-62215936D01*
X128714680Y-62178883D01*
X128728394Y-62170971D01*
X128755654Y-62184479D01*
X128816458Y-62221475D01*
X128902428Y-62276668D01*
X129005186Y-62344763D01*
X129030267Y-62361662D01*
X129162909Y-62448546D01*
X129262605Y-62506958D01*
X129335980Y-62540360D01*
X129389661Y-62552213D01*
X129395313Y-62552352D01*
X129460218Y-62541501D01*
X129556229Y-62512431D01*
X129670916Y-62470373D01*
X129791847Y-62420552D01*
X129906591Y-62368198D01*
X130002718Y-62318538D01*
X130067797Y-62276800D01*
X130082466Y-62263364D01*
X130109244Y-62219543D01*
X130134962Y-62146672D01*
X130161521Y-62037940D01*
X130190824Y-61886540D01*
X130196092Y-61856775D01*
X130256846Y-61509910D01*
X130530957Y-61509910D01*
X130642125Y-61511814D01*
X130731629Y-61516971D01*
X130789106Y-61524548D01*
X130805069Y-61531938D01*
X130809553Y-61563806D01*
X130821841Y-61635762D01*
X130840188Y-61737947D01*
X130862851Y-61860501D01*
X130869156Y-61894067D01*
X130903301Y-62059627D01*
X130934931Y-62181456D01*
X130963283Y-62256840D01*
X130977214Y-62277532D01*
X131026573Y-62311091D01*
X131111925Y-62354806D01*
X131220732Y-62403655D01*
X131340453Y-62452616D01*
X131458551Y-62496665D01*
X131562485Y-62530782D01*
X131639717Y-62549942D01*
X131663338Y-62552352D01*
X131712821Y-62545080D01*
X131774665Y-62520481D01*
X131856833Y-62474381D01*
X131967290Y-62402606D01*
X132027126Y-62361662D01*
X132131083Y-62290819D01*
X132220399Y-62231900D01*
X132286638Y-62190327D01*
X132321365Y-62171523D01*
X132323750Y-62170971D01*
X132349280Y-62188011D01*
X132401542Y-62233973D01*
X132472029Y-62301118D01*
X132526401Y-62355305D01*
X132708223Y-62539639D01*
X132506696Y-62839432D01*
X132433938Y-62950892D01*
X132372866Y-63050594D01*
X132328707Y-63129529D01*
X132306687Y-63178689D01*
X132305169Y-63186777D01*
X132315936Y-63236117D01*
X132344864Y-63319291D01*
X132386891Y-63424892D01*
X132436957Y-63541516D01*
X132490002Y-63657755D01*
X132540964Y-63762205D01*
X132584783Y-63843460D01*
X132616398Y-63890114D01*
X132617949Y-63891715D01*
X132656308Y-63918826D01*
X132718150Y-63943706D01*
X132811504Y-63968764D01*
X132944404Y-63996410D01*
X133004368Y-64007623D01*
X133334899Y-64068152D01*
X133342115Y-64339982D01*
X133344331Y-64450627D01*
X133344736Y-64539578D01*
X133516318Y-64539578D01*
X133526799Y-63904373D01*
X133405423Y-63879477D01*
X133326219Y-63863953D01*
X133215317Y-63843141D01*
X133091116Y-63820467D01*
X133029794Y-63809506D01*
X132919522Y-63787857D01*
X132826915Y-63765782D01*
X132764273Y-63746427D01*
X132745480Y-63736820D01*
X132723015Y-63702361D01*
X132687366Y-63633061D01*
X132644048Y-63541367D01*
X132598578Y-63439724D01*
X132556473Y-63340578D01*
X132523249Y-63256376D01*
X132504424Y-63199563D01*
X132502213Y-63187988D01*
X132514870Y-63154761D01*
X132551979Y-63088167D01*
X132608607Y-62996342D01*
X132679822Y-62887421D01*
X132723365Y-62823255D01*
X132947861Y-62496661D01*
X132658712Y-62206689D01*
X132559755Y-62108710D01*
X132472692Y-62024877D01*
X132404029Y-61961272D01*
X132360276Y-61923974D01*
X132348321Y-61916717D01*
X132321035Y-61930455D01*
X132259828Y-61968332D01*
X132172449Y-62025338D01*
X132066645Y-62096466D01*
X132006180Y-62137879D01*
X131892248Y-62214433D01*
X131790774Y-62278947D01*
X131710013Y-62326452D01*
X131658221Y-62351978D01*
X131645625Y-62354933D01*
X131596369Y-62342122D01*
X131518038Y-62313603D01*
X131422653Y-62274701D01*
X131322234Y-62230739D01*
X131228799Y-62187042D01*
X131154369Y-62148935D01*
X131110964Y-62121743D01*
X131105180Y-62115527D01*
X131094520Y-62079575D01*
X131077168Y-62003367D01*
X131055197Y-61896737D01*
X131030684Y-61769517D01*
X131020337Y-61713447D01*
X130994704Y-61582039D01*
X130969392Y-61468681D01*
X130946739Y-61382741D01*
X130929085Y-61333584D01*
X130923629Y-61326099D01*
X130883158Y-61316398D01*
X130804757Y-61309851D01*
X130699502Y-61306288D01*
X130578468Y-61305542D01*
X130452733Y-61307442D01*
X130452733Y-61307442D01*
G37*
X130452733Y-61307442D02*
X130333371Y-61311821D01*
X130231459Y-61318509D01*
X130158072Y-61327338D01*
X130124286Y-61338138D01*
X130124158Y-61338288D01*
X130110478Y-61373595D01*
X130090465Y-61449236D01*
X130066419Y-61555433D01*
X130040639Y-61682405D01*
X130030002Y-61738739D01*
X130003966Y-61871059D01*
X129978292Y-61986238D01*
X129955361Y-62074622D01*
X129937555Y-62126560D01*
X129932195Y-62135168D01*
X129898578Y-62157539D01*
X129833625Y-62189552D01*
X129732482Y-62233368D01*
X129590295Y-62291153D01*
X129518001Y-62319781D01*
X129387790Y-62371052D01*
X129061038Y-62143884D01*
X128947309Y-62065942D01*
X128847316Y-61999532D01*
X128768840Y-61949656D01*
X128719662Y-61921316D01*
X128707733Y-61916717D01*
X128679266Y-61934202D01*
X128624187Y-61981472D01*
X128550158Y-62050743D01*
X128464838Y-62134235D01*
X128375891Y-62224166D01*
X128290976Y-62312753D01*
X128217755Y-62392217D01*
X128163890Y-62454775D01*
X128137041Y-62492645D01*
X128135399Y-62498042D01*
X128149213Y-62529963D01*
X128187243Y-62595199D01*
X128244375Y-62685529D01*
X128315494Y-62792730D01*
X128351516Y-62845469D01*
X128427003Y-62955843D01*
X128490996Y-63051021D01*
X128538458Y-63123381D01*
X128564347Y-63165300D01*
X128567632Y-63172381D01*
X128557722Y-63205478D01*
X128531363Y-63272311D01*
X128493609Y-63361570D01*
X128449518Y-63461945D01*
X128404143Y-63562126D01*
X128362540Y-63650804D01*
X128329765Y-63716669D01*
X128310872Y-63748410D01*
X128309688Y-63749447D01*
X128275992Y-63759731D01*
X128203860Y-63775723D01*
X128105044Y-63794951D01*
X128026371Y-63809000D01*
X127901574Y-63830941D01*
X127781191Y-63852857D01*
X127683226Y-63871439D01*
X127645960Y-63878927D01*
X127525189Y-63904113D01*
X127525189Y-64319813D01*
X127525659Y-64475139D01*
X127527578Y-64586983D01*
X127531710Y-64662709D01*
X127538821Y-64709681D01*
X127549674Y-64735263D01*
X127565035Y-64746819D01*
X127569684Y-64748384D01*
X127613731Y-64758517D01*
X127693703Y-64774675D01*
X127795448Y-64794041D01*
X127843007Y-64802770D01*
X127962370Y-64824852D01*
X128078351Y-64847029D01*
X128170680Y-64865405D01*
X128190938Y-64869637D01*
X128310039Y-64894989D01*
X128430829Y-65198979D01*
X128551618Y-65502970D01*
X128343509Y-65806046D01*
X128269252Y-65916413D01*
X128206697Y-66013626D01*
X128161040Y-66089279D01*
X128137479Y-66134964D01*
X128135399Y-66142733D01*
X128152685Y-66171611D01*
X128199413Y-66227420D01*
X128267890Y-66302404D01*
X128350423Y-66388803D01*
X128439317Y-66478859D01*
X128526881Y-66564814D01*
X128605419Y-66638910D01*
X128667240Y-66693388D01*
X128704649Y-66720490D01*
X128709941Y-66722122D01*
X128739613Y-66708443D01*
X128802779Y-66670845D01*
X128891213Y-66614486D01*
X128996692Y-66544523D01*
X129040056Y-66515086D01*
X129343107Y-66308049D01*
X129491934Y-66390413D01*
X129569875Y-66429034D01*
X129630702Y-66450872D01*
X129661065Y-66451253D01*
X129675790Y-66422937D01*
X129707138Y-66353852D01*
X129752404Y-66250261D01*
X129808882Y-66118431D01*
X129873867Y-65964625D01*
X129944654Y-65795108D01*
X129950351Y-65781381D01*
X130219334Y-65133033D01*
X130162602Y-65087516D01*
X130035007Y-64981862D01*
X129941024Y-64895223D01*
X129871895Y-64818493D01*
X129818865Y-64742568D01*
X129800570Y-64711054D01*
X129764272Y-64640980D01*
X129741757Y-64579882D01*
X129729788Y-64511646D01*
X129725131Y-64420158D01*
X129724489Y-64332132D01*
X129732440Y-64163368D01*
X129760010Y-64028794D01*
X129812767Y-63913727D01*
X129896283Y-63803486D01*
X129944382Y-63752551D01*
X130101525Y-63624070D01*
X130272973Y-63543505D01*
X130463567Y-63508810D01*
X130525243Y-63507040D01*
X130733173Y-63530597D01*
X130917903Y-63598775D01*
X131076527Y-63709773D01*
X131206139Y-63861789D01*
X131265873Y-63966000D01*
X131331417Y-64155298D01*
X131349108Y-64354916D01*
X131318461Y-64556679D01*
X131303797Y-64604699D01*
X131246752Y-64722619D01*
X131158373Y-64846666D01*
X131052594Y-64959806D01*
X130943802Y-65044728D01*
X130888211Y-65087171D01*
X130857838Y-65126084D01*
X130855920Y-65134666D01*
X130865243Y-65166282D01*
X130891159Y-65237218D01*
X130930594Y-65339903D01*
X130980469Y-65466766D01*
X131037710Y-65610234D01*
X131099238Y-65762736D01*
X131161978Y-65916701D01*
X131222854Y-66064556D01*
X131278788Y-66198730D01*
X131326704Y-66311652D01*
X131363526Y-66395750D01*
X131386177Y-66443451D01*
X131390669Y-66450748D01*
X131420731Y-66450646D01*
X131482289Y-66430416D01*
X131562260Y-66394397D01*
X131565631Y-66392703D01*
X131722254Y-66313639D01*
X132021207Y-66517881D01*
X132131162Y-66591044D01*
X132228317Y-66652048D01*
X132304080Y-66695766D01*
X132349860Y-66717072D01*
X132357159Y-66718292D01*
X132387216Y-66699510D01*
X132445026Y-66650410D01*
X132523362Y-66577578D01*
X132614997Y-66487603D01*
X132656997Y-66444968D01*
X132750356Y-66348985D01*
X132830839Y-66265750D01*
X132891856Y-66202116D01*
X132926818Y-66164935D01*
X132932264Y-66158699D01*
X132922948Y-66133055D01*
X132889052Y-66073450D01*
X132835268Y-65987508D01*
X132766287Y-65882849D01*
X132725979Y-65823576D01*
X132507265Y-65505228D01*
X132626395Y-65204716D01*
X132671700Y-65090900D01*
X132709959Y-64995664D01*
X132737461Y-64928183D01*
X132750496Y-64897633D01*
X132750935Y-64896852D01*
X132776460Y-64889882D01*
X132843232Y-64875541D01*
X132942473Y-64855612D01*
X133065411Y-64831880D01*
X133134610Y-64818848D01*
X133512877Y-64748197D01*
X133516318Y-64539578D01*
X133344736Y-64539578D01*
X133343374Y-64596430D01*
X133341039Y-64611812D01*
X133314406Y-64616336D01*
X133247376Y-64628720D01*
X133149478Y-64647176D01*
X133030243Y-64669921D01*
X133004515Y-64674858D01*
X132838970Y-64709836D01*
X132719473Y-64742202D01*
X132647934Y-64771403D01*
X132632326Y-64782916D01*
X132600764Y-64830136D01*
X132559390Y-64912741D01*
X132512381Y-65019753D01*
X132463917Y-65140195D01*
X132418176Y-65263088D01*
X132379338Y-65377455D01*
X132351580Y-65472319D01*
X132339081Y-65536701D01*
X132339449Y-65552331D01*
X132358387Y-65597854D01*
X132400497Y-65674396D01*
X132459627Y-65771429D01*
X132529626Y-65878430D01*
X132532526Y-65882710D01*
X132712625Y-66148201D01*
X132528225Y-66333840D01*
X132448760Y-66410094D01*
X132380366Y-66468841D01*
X132331854Y-66502899D01*
X132314343Y-66508166D01*
X132282650Y-66489838D01*
X132218894Y-66448630D01*
X132132651Y-66390850D01*
X132043598Y-66329808D01*
X131915011Y-66244996D01*
X131815067Y-66191141D01*
X131734200Y-66165648D01*
X131662841Y-66165920D01*
X131591422Y-66189364D01*
X131568012Y-66200808D01*
X131514117Y-66220645D01*
X131481717Y-66217841D01*
X131480495Y-66216286D01*
X131467006Y-66186919D01*
X131437329Y-66117834D01*
X131394550Y-66016364D01*
X131341757Y-65889848D01*
X131282038Y-65745620D01*
X131264948Y-65704159D01*
X131063348Y-65214598D01*
X131200287Y-65089444D01*
X131344165Y-64926241D01*
X131449842Y-64738679D01*
X131514235Y-64535788D01*
X131534262Y-64326596D01*
X131516656Y-64162654D01*
X131449433Y-63949194D01*
X131343607Y-63762160D01*
X131205002Y-63605038D01*
X131039439Y-63481316D01*
X130852742Y-63394481D01*
X130650733Y-63348022D01*
X130439235Y-63345424D01*
X130225904Y-63389584D01*
X130019220Y-63481118D01*
X129844211Y-63610087D01*
X129704450Y-63771545D01*
X129603512Y-63960548D01*
X129544972Y-64172147D01*
X129531047Y-64351100D01*
X129555997Y-64578357D01*
X129627522Y-64787170D01*
X129743917Y-64973822D01*
X129882189Y-65116861D01*
X129995634Y-65213830D01*
X129787047Y-65720078D01*
X129725390Y-65869307D01*
X129670288Y-66001876D01*
X129624653Y-66110847D01*
X129591395Y-66189286D01*
X129573422Y-66230255D01*
X129571205Y-66234557D01*
X129546370Y-66229730D01*
X129495062Y-66207094D01*
X129486572Y-66202776D01*
X129419607Y-66174287D01*
X129356166Y-66164784D01*
X129287155Y-66176885D01*
X129203481Y-66213210D01*
X129096052Y-66276378D01*
X128990278Y-66345724D01*
X128717849Y-66528686D01*
X128529524Y-66339368D01*
X128341198Y-66150050D01*
X128530691Y-65871787D01*
X128624842Y-65727244D01*
X128687398Y-65616751D01*
X128717459Y-65541966D01*
X128720184Y-65522316D01*
X128709900Y-65463725D01*
X128682280Y-65371498D01*
X128642171Y-65257758D01*
X128594421Y-65134627D01*
X128543878Y-65014224D01*
X128495388Y-64908674D01*
X128453800Y-64830096D01*
X128429588Y-64795659D01*
X128393948Y-64768140D01*
X128337964Y-64743407D01*
X128253145Y-64718786D01*
X128130999Y-64691599D01*
X128046422Y-64674889D01*
X127924108Y-64651497D01*
X127821305Y-64632031D01*
X127747508Y-64618273D01*
X127712214Y-64612009D01*
X127710600Y-64611812D01*
X127707540Y-64588143D01*
X127705091Y-64524163D01*
X127703550Y-64430410D01*
X127703167Y-64346558D01*
X127704174Y-64225946D01*
X127708180Y-64146905D01*
X127716665Y-64100175D01*
X127731108Y-64076499D01*
X127747662Y-64068019D01*
X127789327Y-64058356D01*
X127869326Y-64042021D01*
X127975948Y-64021339D01*
X128091051Y-63999818D01*
X128232406Y-63971750D01*
X128331838Y-63946440D01*
X128397980Y-63921171D01*
X128439466Y-63893229D01*
X128443907Y-63888837D01*
X128477301Y-63840204D01*
X128522092Y-63756268D01*
X128573178Y-63648948D01*
X128625453Y-63530166D01*
X128673815Y-63411840D01*
X128713158Y-63305893D01*
X128738379Y-63224243D01*
X128744962Y-63185723D01*
X128729669Y-63133684D01*
X128684913Y-63046985D01*
X128613356Y-62930385D01*
X128544302Y-62827049D01*
X128342994Y-62534203D01*
X128525831Y-62352587D01*
X128604366Y-62276395D01*
X128670168Y-62215936D01*
X128714680Y-62178883D01*
X128728394Y-62170971D01*
X128755654Y-62184479D01*
X128816458Y-62221475D01*
X128902428Y-62276668D01*
X129005186Y-62344763D01*
X129030267Y-62361662D01*
X129162909Y-62448546D01*
X129262605Y-62506958D01*
X129335980Y-62540360D01*
X129389661Y-62552213D01*
X129395313Y-62552352D01*
X129460218Y-62541501D01*
X129556229Y-62512431D01*
X129670916Y-62470373D01*
X129791847Y-62420552D01*
X129906591Y-62368198D01*
X130002718Y-62318538D01*
X130067797Y-62276800D01*
X130082466Y-62263364D01*
X130109244Y-62219543D01*
X130134962Y-62146672D01*
X130161521Y-62037940D01*
X130190824Y-61886540D01*
X130196092Y-61856775D01*
X130256846Y-61509910D01*
X130530957Y-61509910D01*
X130642125Y-61511814D01*
X130731629Y-61516971D01*
X130789106Y-61524548D01*
X130805069Y-61531938D01*
X130809553Y-61563806D01*
X130821841Y-61635762D01*
X130840188Y-61737947D01*
X130862851Y-61860501D01*
X130869156Y-61894067D01*
X130903301Y-62059627D01*
X130934931Y-62181456D01*
X130963283Y-62256840D01*
X130977214Y-62277532D01*
X131026573Y-62311091D01*
X131111925Y-62354806D01*
X131220732Y-62403655D01*
X131340453Y-62452616D01*
X131458551Y-62496665D01*
X131562485Y-62530782D01*
X131639717Y-62549942D01*
X131663338Y-62552352D01*
X131712821Y-62545080D01*
X131774665Y-62520481D01*
X131856833Y-62474381D01*
X131967290Y-62402606D01*
X132027126Y-62361662D01*
X132131083Y-62290819D01*
X132220399Y-62231900D01*
X132286638Y-62190327D01*
X132321365Y-62171523D01*
X132323750Y-62170971D01*
X132349280Y-62188011D01*
X132401542Y-62233973D01*
X132472029Y-62301118D01*
X132526401Y-62355305D01*
X132708223Y-62539639D01*
X132506696Y-62839432D01*
X132433938Y-62950892D01*
X132372866Y-63050594D01*
X132328707Y-63129529D01*
X132306687Y-63178689D01*
X132305169Y-63186777D01*
X132315936Y-63236117D01*
X132344864Y-63319291D01*
X132386891Y-63424892D01*
X132436957Y-63541516D01*
X132490002Y-63657755D01*
X132540964Y-63762205D01*
X132584783Y-63843460D01*
X132616398Y-63890114D01*
X132617949Y-63891715D01*
X132656308Y-63918826D01*
X132718150Y-63943706D01*
X132811504Y-63968764D01*
X132944404Y-63996410D01*
X133004368Y-64007623D01*
X133334899Y-64068152D01*
X133342115Y-64339982D01*
X133344331Y-64450627D01*
X133344736Y-64539578D01*
X133516318Y-64539578D01*
X133526799Y-63904373D01*
X133405423Y-63879477D01*
X133326219Y-63863953D01*
X133215317Y-63843141D01*
X133091116Y-63820467D01*
X133029794Y-63809506D01*
X132919522Y-63787857D01*
X132826915Y-63765782D01*
X132764273Y-63746427D01*
X132745480Y-63736820D01*
X132723015Y-63702361D01*
X132687366Y-63633061D01*
X132644048Y-63541367D01*
X132598578Y-63439724D01*
X132556473Y-63340578D01*
X132523249Y-63256376D01*
X132504424Y-63199563D01*
X132502213Y-63187988D01*
X132514870Y-63154761D01*
X132551979Y-63088167D01*
X132608607Y-62996342D01*
X132679822Y-62887421D01*
X132723365Y-62823255D01*
X132947861Y-62496661D01*
X132658712Y-62206689D01*
X132559755Y-62108710D01*
X132472692Y-62024877D01*
X132404029Y-61961272D01*
X132360276Y-61923974D01*
X132348321Y-61916717D01*
X132321035Y-61930455D01*
X132259828Y-61968332D01*
X132172449Y-62025338D01*
X132066645Y-62096466D01*
X132006180Y-62137879D01*
X131892248Y-62214433D01*
X131790774Y-62278947D01*
X131710013Y-62326452D01*
X131658221Y-62351978D01*
X131645625Y-62354933D01*
X131596369Y-62342122D01*
X131518038Y-62313603D01*
X131422653Y-62274701D01*
X131322234Y-62230739D01*
X131228799Y-62187042D01*
X131154369Y-62148935D01*
X131110964Y-62121743D01*
X131105180Y-62115527D01*
X131094520Y-62079575D01*
X131077168Y-62003367D01*
X131055197Y-61896737D01*
X131030684Y-61769517D01*
X131020337Y-61713447D01*
X130994704Y-61582039D01*
X130969392Y-61468681D01*
X130946739Y-61382741D01*
X130929085Y-61333584D01*
X130923629Y-61326099D01*
X130883158Y-61316398D01*
X130804757Y-61309851D01*
X130699502Y-61306288D01*
X130578468Y-61305542D01*
X130452733Y-61307442D01*
D10*
G36*
X114752477Y-74932411D02*
X113267553Y-73447487D01*
X113550395Y-73164645D01*
X115035319Y-74649569D01*
X114752477Y-74932411D01*
X114752477Y-74932411D01*
G37*
G36*
X115601005Y-74083883D02*
X114116081Y-72598959D01*
X114398923Y-72316117D01*
X115883847Y-73801041D01*
X115601005Y-74083883D01*
X115601005Y-74083883D01*
G37*
G36*
X116449533Y-73235355D02*
X114964609Y-71750431D01*
X115247451Y-71467589D01*
X116732375Y-72952513D01*
X116449533Y-73235355D01*
X116449533Y-73235355D01*
G37*
D13*
X140649964Y-96000000D03*
X138349964Y-96000000D03*
X138349964Y-96950000D03*
X138349964Y-95050000D03*
X140649964Y-95050000D03*
X140649964Y-96950000D03*
D14*
X117959964Y-87160000D03*
X120499964Y-87160000D03*
X115419964Y-87160000D03*
D15*
X130499964Y-59600000D03*
X131749964Y-59600000D03*
X129249964Y-59600000D03*
X127999964Y-59600000D03*
D16*
X134999964Y-56550000D03*
X125999964Y-56550000D03*
D15*
X132999964Y-59600000D03*
D10*
G36*
X116239646Y-76840901D02*
X115355762Y-75957017D01*
X115567894Y-75744885D01*
X116451778Y-76628769D01*
X116239646Y-76840901D01*
X116239646Y-76840901D01*
G37*
G36*
X116593199Y-76487348D02*
X115709315Y-75603464D01*
X115921447Y-75391332D01*
X116805331Y-76275216D01*
X116593199Y-76487348D01*
X116593199Y-76487348D01*
G37*
G36*
X116946753Y-76133794D02*
X116062869Y-75249910D01*
X116275001Y-75037778D01*
X117158885Y-75921662D01*
X116946753Y-76133794D01*
X116946753Y-76133794D01*
G37*
G36*
X117300306Y-75780241D02*
X116416422Y-74896357D01*
X116628554Y-74684225D01*
X117512438Y-75568109D01*
X117300306Y-75780241D01*
X117300306Y-75780241D01*
G37*
G36*
X117653859Y-75426688D02*
X116769975Y-74542804D01*
X116982107Y-74330672D01*
X117865991Y-75214556D01*
X117653859Y-75426688D01*
X117653859Y-75426688D01*
G37*
G36*
X118007413Y-75073134D02*
X117123529Y-74189250D01*
X117335661Y-73977118D01*
X118219545Y-74861002D01*
X118007413Y-75073134D01*
X118007413Y-75073134D01*
G37*
G36*
X118360966Y-74719581D02*
X117477082Y-73835697D01*
X117689214Y-73623565D01*
X118573098Y-74507449D01*
X118360966Y-74719581D01*
X118360966Y-74719581D01*
G37*
G36*
X118714520Y-74366027D02*
X117830636Y-73482143D01*
X118042768Y-73270011D01*
X118926652Y-74153895D01*
X118714520Y-74366027D01*
X118714520Y-74366027D01*
G37*
G36*
X119068073Y-74012474D02*
X118184189Y-73128590D01*
X118396321Y-72916458D01*
X119280205Y-73800342D01*
X119068073Y-74012474D01*
X119068073Y-74012474D01*
G37*
G36*
X119421626Y-73658921D02*
X118537742Y-72775037D01*
X118749874Y-72562905D01*
X119633758Y-73446789D01*
X119421626Y-73658921D01*
X119421626Y-73658921D01*
G37*
G36*
X119775180Y-73305367D02*
X118891296Y-72421483D01*
X119103428Y-72209351D01*
X119987312Y-73093235D01*
X119775180Y-73305367D01*
X119775180Y-73305367D01*
G37*
G36*
X120128733Y-72951814D02*
X119244849Y-72067930D01*
X119456981Y-71855798D01*
X120340865Y-72739682D01*
X120128733Y-72951814D01*
X120128733Y-72951814D01*
G37*
G36*
X120659063Y-72739682D02*
X121542947Y-71855798D01*
X121755079Y-72067930D01*
X120871195Y-72951814D01*
X120659063Y-72739682D01*
X120659063Y-72739682D01*
G37*
G36*
X121012616Y-73093235D02*
X121896500Y-72209351D01*
X122108632Y-72421483D01*
X121224748Y-73305367D01*
X121012616Y-73093235D01*
X121012616Y-73093235D01*
G37*
G36*
X121366170Y-73446789D02*
X122250054Y-72562905D01*
X122462186Y-72775037D01*
X121578302Y-73658921D01*
X121366170Y-73446789D01*
X121366170Y-73446789D01*
G37*
G36*
X121719723Y-73800342D02*
X122603607Y-72916458D01*
X122815739Y-73128590D01*
X121931855Y-74012474D01*
X121719723Y-73800342D01*
X121719723Y-73800342D01*
G37*
G36*
X122073276Y-74153895D02*
X122957160Y-73270011D01*
X123169292Y-73482143D01*
X122285408Y-74366027D01*
X122073276Y-74153895D01*
X122073276Y-74153895D01*
G37*
G36*
X122426830Y-74507449D02*
X123310714Y-73623565D01*
X123522846Y-73835697D01*
X122638962Y-74719581D01*
X122426830Y-74507449D01*
X122426830Y-74507449D01*
G37*
G36*
X122780383Y-74861002D02*
X123664267Y-73977118D01*
X123876399Y-74189250D01*
X122992515Y-75073134D01*
X122780383Y-74861002D01*
X122780383Y-74861002D01*
G37*
G36*
X123133937Y-75214556D02*
X124017821Y-74330672D01*
X124229953Y-74542804D01*
X123346069Y-75426688D01*
X123133937Y-75214556D01*
X123133937Y-75214556D01*
G37*
G36*
X123487490Y-75568109D02*
X124371374Y-74684225D01*
X124583506Y-74896357D01*
X123699622Y-75780241D01*
X123487490Y-75568109D01*
X123487490Y-75568109D01*
G37*
G36*
X123841043Y-75921662D02*
X124724927Y-75037778D01*
X124937059Y-75249910D01*
X124053175Y-76133794D01*
X123841043Y-75921662D01*
X123841043Y-75921662D01*
G37*
G36*
X124194597Y-76275216D02*
X125078481Y-75391332D01*
X125290613Y-75603464D01*
X124406729Y-76487348D01*
X124194597Y-76275216D01*
X124194597Y-76275216D01*
G37*
G36*
X124548150Y-76628769D02*
X125432034Y-75744885D01*
X125644166Y-75957017D01*
X124760282Y-76840901D01*
X124548150Y-76628769D01*
X124548150Y-76628769D01*
G37*
G36*
X124760282Y-77159099D02*
X125644166Y-78042983D01*
X125432034Y-78255115D01*
X124548150Y-77371231D01*
X124760282Y-77159099D01*
X124760282Y-77159099D01*
G37*
G36*
X124406729Y-77512652D02*
X125290613Y-78396536D01*
X125078481Y-78608668D01*
X124194597Y-77724784D01*
X124406729Y-77512652D01*
X124406729Y-77512652D01*
G37*
G36*
X124053175Y-77866206D02*
X124937059Y-78750090D01*
X124724927Y-78962222D01*
X123841043Y-78078338D01*
X124053175Y-77866206D01*
X124053175Y-77866206D01*
G37*
G36*
X123699622Y-78219759D02*
X124583506Y-79103643D01*
X124371374Y-79315775D01*
X123487490Y-78431891D01*
X123699622Y-78219759D01*
X123699622Y-78219759D01*
G37*
G36*
X123346069Y-78573312D02*
X124229953Y-79457196D01*
X124017821Y-79669328D01*
X123133937Y-78785444D01*
X123346069Y-78573312D01*
X123346069Y-78573312D01*
G37*
G36*
X122992515Y-78926866D02*
X123876399Y-79810750D01*
X123664267Y-80022882D01*
X122780383Y-79138998D01*
X122992515Y-78926866D01*
X122992515Y-78926866D01*
G37*
G36*
X122638962Y-79280419D02*
X123522846Y-80164303D01*
X123310714Y-80376435D01*
X122426830Y-79492551D01*
X122638962Y-79280419D01*
X122638962Y-79280419D01*
G37*
G36*
X122285408Y-79633973D02*
X123169292Y-80517857D01*
X122957160Y-80729989D01*
X122073276Y-79846105D01*
X122285408Y-79633973D01*
X122285408Y-79633973D01*
G37*
G36*
X121931855Y-79987526D02*
X122815739Y-80871410D01*
X122603607Y-81083542D01*
X121719723Y-80199658D01*
X121931855Y-79987526D01*
X121931855Y-79987526D01*
G37*
G36*
X121578302Y-80341079D02*
X122462186Y-81224963D01*
X122250054Y-81437095D01*
X121366170Y-80553211D01*
X121578302Y-80341079D01*
X121578302Y-80341079D01*
G37*
G36*
X121224748Y-80694633D02*
X122108632Y-81578517D01*
X121896500Y-81790649D01*
X121012616Y-80906765D01*
X121224748Y-80694633D01*
X121224748Y-80694633D01*
G37*
G36*
X120871195Y-81048186D02*
X121755079Y-81932070D01*
X121542947Y-82144202D01*
X120659063Y-81260318D01*
X120871195Y-81048186D01*
X120871195Y-81048186D01*
G37*
G36*
X119244849Y-81932070D02*
X120128733Y-81048186D01*
X120340865Y-81260318D01*
X119456981Y-82144202D01*
X119244849Y-81932070D01*
X119244849Y-81932070D01*
G37*
G36*
X118891296Y-81578517D02*
X119775180Y-80694633D01*
X119987312Y-80906765D01*
X119103428Y-81790649D01*
X118891296Y-81578517D01*
X118891296Y-81578517D01*
G37*
G36*
X118537742Y-81224963D02*
X119421626Y-80341079D01*
X119633758Y-80553211D01*
X118749874Y-81437095D01*
X118537742Y-81224963D01*
X118537742Y-81224963D01*
G37*
G36*
X118184189Y-80871410D02*
X119068073Y-79987526D01*
X119280205Y-80199658D01*
X118396321Y-81083542D01*
X118184189Y-80871410D01*
X118184189Y-80871410D01*
G37*
G36*
X117830636Y-80517857D02*
X118714520Y-79633973D01*
X118926652Y-79846105D01*
X118042768Y-80729989D01*
X117830636Y-80517857D01*
X117830636Y-80517857D01*
G37*
G36*
X117477082Y-80164303D02*
X118360966Y-79280419D01*
X118573098Y-79492551D01*
X117689214Y-80376435D01*
X117477082Y-80164303D01*
X117477082Y-80164303D01*
G37*
G36*
X117123529Y-79810750D02*
X118007413Y-78926866D01*
X118219545Y-79138998D01*
X117335661Y-80022882D01*
X117123529Y-79810750D01*
X117123529Y-79810750D01*
G37*
G36*
X116769975Y-79457196D02*
X117653859Y-78573312D01*
X117865991Y-78785444D01*
X116982107Y-79669328D01*
X116769975Y-79457196D01*
X116769975Y-79457196D01*
G37*
G36*
X116416422Y-79103643D02*
X117300306Y-78219759D01*
X117512438Y-78431891D01*
X116628554Y-79315775D01*
X116416422Y-79103643D01*
X116416422Y-79103643D01*
G37*
G36*
X116062869Y-78750090D02*
X116946753Y-77866206D01*
X117158885Y-78078338D01*
X116275001Y-78962222D01*
X116062869Y-78750090D01*
X116062869Y-78750090D01*
G37*
G36*
X115709315Y-78396536D02*
X116593199Y-77512652D01*
X116805331Y-77724784D01*
X115921447Y-78608668D01*
X115709315Y-78396536D01*
X115709315Y-78396536D01*
G37*
G36*
X115355762Y-78042983D02*
X116239646Y-77159099D01*
X116451778Y-77371231D01*
X115567894Y-78255115D01*
X115355762Y-78042983D01*
X115355762Y-78042983D01*
G37*
G36*
X120499964Y-75727208D02*
X119227172Y-74454416D01*
X120499964Y-73181624D01*
X121772756Y-74454416D01*
X120499964Y-75727208D01*
X120499964Y-75727208D01*
G37*
G36*
X117954380Y-78272792D02*
X116681588Y-77000000D01*
X117954380Y-75727208D01*
X119227172Y-77000000D01*
X117954380Y-78272792D01*
X117954380Y-78272792D01*
G37*
G36*
X120499964Y-80818376D02*
X119227172Y-79545584D01*
X120499964Y-78272792D01*
X121772756Y-79545584D01*
X120499964Y-80818376D01*
X120499964Y-80818376D01*
G37*
G36*
X123045548Y-78272792D02*
X121772756Y-77000000D01*
X123045548Y-75727208D01*
X124318340Y-77000000D01*
X123045548Y-78272792D01*
X123045548Y-78272792D01*
G37*
G36*
X119227172Y-77000000D02*
X117954380Y-75727208D01*
X119227172Y-74454416D01*
X120499964Y-75727208D01*
X119227172Y-77000000D01*
X119227172Y-77000000D01*
G37*
G36*
X120499964Y-78272792D02*
X119227172Y-77000000D01*
X120499964Y-75727208D01*
X121772756Y-77000000D01*
X120499964Y-78272792D01*
X120499964Y-78272792D01*
G37*
G36*
X121772756Y-77000000D02*
X120499964Y-75727208D01*
X121772756Y-74454416D01*
X123045548Y-75727208D01*
X121772756Y-77000000D01*
X121772756Y-77000000D01*
G37*
G36*
X121772756Y-79545584D02*
X120499964Y-78272792D01*
X121772756Y-77000000D01*
X123045548Y-78272792D01*
X121772756Y-79545584D01*
X121772756Y-79545584D01*
G37*
G36*
X119227172Y-79545584D02*
X117954380Y-78272792D01*
X119227172Y-77000000D01*
X120499964Y-78272792D01*
X119227172Y-79545584D01*
X119227172Y-79545584D01*
G37*
D14*
X125579964Y-87160000D03*
X123039964Y-87160000D03*
D17*
X136099964Y-93500000D03*
X132499964Y-93500000D03*
X128499964Y-93500000D03*
X124899964Y-93500000D03*
D18*
X112999964Y-76050000D03*
X112999964Y-77950000D03*
D19*
X119549964Y-69500000D03*
X121449964Y-69500000D03*
D18*
X142699964Y-86450000D03*
X142699964Y-88350000D03*
X136299964Y-86450000D03*
X136299964Y-88350000D03*
X144699964Y-86450000D03*
X144699964Y-88350000D03*
D19*
X138549964Y-98400000D03*
X140449964Y-98400000D03*
D18*
X135499964Y-64950000D03*
X135499964Y-63050000D03*
X137499964Y-64950000D03*
X137499964Y-63050000D03*
X125499964Y-64950000D03*
X125499964Y-63050000D03*
D20*
X132899964Y-73000000D03*
X134099964Y-73000000D03*
X124099964Y-67100000D03*
X122899964Y-67100000D03*
X131099964Y-73000000D03*
X129899964Y-73000000D03*
D21*
X146299964Y-88000000D03*
X146299964Y-86800000D03*
D20*
X119899964Y-71000000D03*
X121099964Y-71000000D03*
D21*
X114499964Y-76400000D03*
X114499964Y-77600000D03*
D10*
G36*
X123316081Y-82269670D02*
X123669634Y-81916117D01*
X124235319Y-82481802D01*
X123881766Y-82835355D01*
X123316081Y-82269670D01*
X123316081Y-82269670D01*
G37*
G36*
X124164609Y-83118198D02*
X124518162Y-82764645D01*
X125083847Y-83330330D01*
X124730294Y-83683883D01*
X124164609Y-83118198D01*
X124164609Y-83118198D01*
G37*
G36*
X125416081Y-80169670D02*
X125769634Y-79816117D01*
X126335319Y-80381802D01*
X125981766Y-80735355D01*
X125416081Y-80169670D01*
X125416081Y-80169670D01*
G37*
G36*
X126264609Y-81018198D02*
X126618162Y-80664645D01*
X127183847Y-81230330D01*
X126830294Y-81583883D01*
X126264609Y-81018198D01*
X126264609Y-81018198D01*
G37*
D20*
X121099964Y-83000000D03*
X119899964Y-83000000D03*
D21*
X127499964Y-76400000D03*
X127499964Y-77600000D03*
X117999964Y-70600000D03*
X117999964Y-69400000D03*
X136999964Y-95400000D03*
X136999964Y-96600000D03*
D10*
G36*
X127083847Y-85330330D02*
X126730294Y-85683883D01*
X126164609Y-85118198D01*
X126518162Y-84764645D01*
X127083847Y-85330330D01*
X127083847Y-85330330D01*
G37*
G36*
X126235319Y-84481802D02*
X125881766Y-84835355D01*
X125316081Y-84269670D01*
X125669634Y-83916117D01*
X126235319Y-84481802D01*
X126235319Y-84481802D01*
G37*
G36*
X125019634Y-73533883D02*
X124666081Y-73180330D01*
X125231766Y-72614645D01*
X125585319Y-72968198D01*
X125019634Y-73533883D01*
X125019634Y-73533883D01*
G37*
G36*
X125868162Y-72685355D02*
X125514609Y-72331802D01*
X126080294Y-71766117D01*
X126433847Y-72119670D01*
X125868162Y-72685355D01*
X125868162Y-72685355D01*
G37*
D20*
X140099964Y-94000000D03*
X138899964Y-94000000D03*
D10*
G36*
X124716081Y-80869670D02*
X125069634Y-80516117D01*
X125635319Y-81081802D01*
X125281766Y-81435355D01*
X124716081Y-80869670D01*
X124716081Y-80869670D01*
G37*
G36*
X125564609Y-81718198D02*
X125918162Y-81364645D01*
X126483847Y-81930330D01*
X126130294Y-82283883D01*
X125564609Y-81718198D01*
X125564609Y-81718198D01*
G37*
G36*
X124016081Y-81569670D02*
X124369634Y-81216117D01*
X124935319Y-81781802D01*
X124581766Y-82135355D01*
X124016081Y-81569670D01*
X124016081Y-81569670D01*
G37*
G36*
X124864609Y-82418198D02*
X125218162Y-82064645D01*
X125783847Y-82630330D01*
X125430294Y-82983883D01*
X124864609Y-82418198D01*
X124864609Y-82418198D01*
G37*
D20*
X121099964Y-68000000D03*
X119899964Y-68000000D03*
D10*
G36*
X124580294Y-70266117D02*
X124933847Y-70619670D01*
X124368162Y-71185355D01*
X124014609Y-70831802D01*
X124580294Y-70266117D01*
X124580294Y-70266117D01*
G37*
G36*
X123731766Y-71114645D02*
X124085319Y-71468198D01*
X123519634Y-72033883D01*
X123166081Y-71680330D01*
X123731766Y-71114645D01*
X123731766Y-71114645D01*
G37*
G36*
X125330294Y-71016117D02*
X125683847Y-71369670D01*
X125118162Y-71935355D01*
X124764609Y-71581802D01*
X125330294Y-71016117D01*
X125330294Y-71016117D01*
G37*
G36*
X124481766Y-71864645D02*
X124835319Y-72218198D01*
X124269634Y-72783883D01*
X123916081Y-72430330D01*
X124481766Y-71864645D01*
X124481766Y-71864645D01*
G37*
G36*
X126830294Y-72516117D02*
X127183847Y-72869670D01*
X126618162Y-73435355D01*
X126264609Y-73081802D01*
X126830294Y-72516117D01*
X126830294Y-72516117D01*
G37*
G36*
X125981766Y-73364645D02*
X126335319Y-73718198D01*
X125769634Y-74283883D01*
X125416081Y-73930330D01*
X125981766Y-73364645D01*
X125981766Y-73364645D01*
G37*
D21*
X128499964Y-77600000D03*
X128499964Y-76400000D03*
X126499964Y-77600000D03*
X126499964Y-76400000D03*
D20*
X138899964Y-93000000D03*
X140099964Y-93000000D03*
D21*
X137699964Y-94100000D03*
X137699964Y-92900000D03*
D10*
G36*
X145469634Y-83383883D02*
X145116081Y-83030330D01*
X145681766Y-82464645D01*
X146035319Y-82818198D01*
X145469634Y-83383883D01*
X145469634Y-83383883D01*
G37*
G36*
X146318162Y-82535355D02*
X145964609Y-82181802D01*
X146530294Y-81616117D01*
X146883847Y-81969670D01*
X146318162Y-82535355D01*
X146318162Y-82535355D01*
G37*
D21*
X129499964Y-76400000D03*
X129499964Y-77600000D03*
X130499964Y-76400000D03*
X130499964Y-77600000D03*
D10*
G36*
X123830294Y-69516117D02*
X124183847Y-69869670D01*
X123618162Y-70435355D01*
X123264609Y-70081802D01*
X123830294Y-69516117D01*
X123830294Y-69516117D01*
G37*
G36*
X122981766Y-70364645D02*
X123335319Y-70718198D01*
X122769634Y-71283883D01*
X122416081Y-70930330D01*
X122981766Y-70364645D01*
X122981766Y-70364645D01*
G37*
D22*
X132499964Y-75850000D03*
X133449964Y-78150000D03*
X131549964Y-78150000D03*
D13*
X140649964Y-91000000D03*
X138349964Y-91950000D03*
X138349964Y-90050000D03*
X140649964Y-87400000D03*
X140649964Y-86450000D03*
X140649964Y-88350000D03*
X138349964Y-88350000D03*
X138349964Y-86450000D03*
D23*
X126699964Y-98500000D03*
X134299964Y-98500000D03*
D24*
X133599964Y-95950000D03*
X127399964Y-95950000D03*
D25*
X131799964Y-96000000D03*
X131149964Y-96000000D03*
X130499964Y-96000000D03*
X129849964Y-96000000D03*
X129199964Y-96000000D03*
D23*
X131699964Y-98500000D03*
X129299964Y-98500000D03*
D26*
X130929964Y-93850000D03*
X130069964Y-93850000D03*
X130069964Y-91950000D03*
X130929964Y-91950000D03*
D27*
X129499964Y-90450000D03*
X129499964Y-89800000D03*
X129499964Y-89150000D03*
X131499964Y-89150000D03*
X131499964Y-90450000D03*
D28*
X145249964Y-68000000D03*
X141749964Y-68000000D03*
D10*
G36*
X144176920Y-75727207D02*
X141772757Y-73323044D01*
X143186970Y-71908831D01*
X145591133Y-74312994D01*
X144176920Y-75727207D01*
X144176920Y-75727207D01*
G37*
G36*
X137812958Y-82091169D02*
X135408795Y-79687006D01*
X136823008Y-78272793D01*
X139227171Y-80676956D01*
X137812958Y-82091169D01*
X137812958Y-82091169D01*
G37*
G36*
X144204469Y-81411611D02*
X145088353Y-82295495D01*
X144027693Y-83356155D01*
X143143809Y-82472271D01*
X144204469Y-81411611D01*
X144204469Y-81411611D01*
G37*
G36*
X145972235Y-79643845D02*
X146856119Y-80527729D01*
X145795459Y-81588389D01*
X144911575Y-80704505D01*
X145972235Y-79643845D01*
X145972235Y-79643845D01*
G37*
M02*
