G04 #@! TF.FileFunction,Other,Fab,Top*
%FSLAX46Y46*%
G04 Gerber Fmt 4.6, Leading zero omitted, Abs format (unit mm)*
G04 Created by KiCad (PCBNEW 4.0.7-e2-6376~58~ubuntu14.04.1) date Wed May 23 17:08:04 2018*
%MOMM*%
%LPD*%
G01*
G04 APERTURE LIST*
%ADD10C,0.100000*%
%ADD11C,0.200000*%
%ADD12C,0.300000*%
%ADD13C,0.150000*%
G04 APERTURE END LIST*
D10*
D11*
X146575700Y-66500000D02*
X146575700Y-68500000D01*
X151575700Y-88500000D02*
X153575700Y-88500000D01*
X151575700Y-86500000D02*
X151575700Y-86500000D01*
X151575700Y-88500000D02*
X151575700Y-86500000D01*
X159575700Y-80500000D02*
X151575700Y-88500000D01*
X159575700Y-70500000D02*
X159575700Y-80500000D01*
X146575700Y-66500000D02*
X148575700Y-66500000D01*
X221500000Y-70500000D02*
X221500000Y-70500000D01*
X148500000Y-70500000D02*
X221500000Y-70500000D01*
X146575700Y-66500000D02*
X150575700Y-70500000D01*
X108575700Y-106500000D02*
X147575700Y-106500000D01*
X108575700Y-106500000D02*
X108575700Y-106500000D01*
X105575700Y-103500000D02*
X108575700Y-106500000D01*
X102575700Y-102500000D02*
X106575700Y-102500000D01*
X104575700Y-100500000D02*
X104575700Y-104500000D01*
X150575700Y-60500000D02*
X152575700Y-60500000D01*
X150575700Y-58500000D02*
X150575700Y-58500000D01*
X150575700Y-60500000D02*
X150575700Y-58500000D01*
X160500000Y-50500000D02*
X150500000Y-60500000D01*
X186500000Y-50500000D02*
X158500000Y-50500000D01*
X105575700Y-91500000D02*
X103575700Y-93500000D01*
X105575700Y-91500000D02*
X103575700Y-89500000D01*
X56500000Y-91500000D02*
X103500000Y-91500000D01*
X154575700Y-91500000D02*
X156575700Y-93500000D01*
X154575700Y-91500000D02*
X156575700Y-89500000D01*
X195500000Y-91500000D02*
X152500000Y-91500000D01*
D12*
X173142856Y-66903571D02*
X173142856Y-65403571D01*
X173857142Y-66903571D02*
X173857142Y-65403571D01*
X174714285Y-66903571D01*
X174714285Y-65403571D01*
X175357142Y-66832143D02*
X175571428Y-66903571D01*
X175928571Y-66903571D01*
X176071428Y-66832143D01*
X176142857Y-66760714D01*
X176214285Y-66617857D01*
X176214285Y-66475000D01*
X176142857Y-66332143D01*
X176071428Y-66260714D01*
X175928571Y-66189286D01*
X175642857Y-66117857D01*
X175499999Y-66046429D01*
X175428571Y-65975000D01*
X175357142Y-65832143D01*
X175357142Y-65689286D01*
X175428571Y-65546429D01*
X175499999Y-65475000D01*
X175642857Y-65403571D01*
X175999999Y-65403571D01*
X176214285Y-65475000D01*
X176642856Y-65403571D02*
X177499999Y-65403571D01*
X177071428Y-66903571D02*
X177071428Y-65403571D01*
X177928570Y-66475000D02*
X178642856Y-66475000D01*
X177785713Y-66903571D02*
X178285713Y-65403571D01*
X178785713Y-66903571D01*
X179999999Y-66903571D02*
X179285713Y-66903571D01*
X179285713Y-65403571D01*
X181214285Y-66903571D02*
X180499999Y-66903571D01*
X180499999Y-65403571D01*
X183357142Y-66117857D02*
X182857142Y-66117857D01*
X182857142Y-66903571D02*
X182857142Y-65403571D01*
X183571428Y-65403571D01*
X184428570Y-65403571D02*
X184714284Y-65403571D01*
X184857142Y-65475000D01*
X184999999Y-65617857D01*
X185071427Y-65903571D01*
X185071427Y-66403571D01*
X184999999Y-66689286D01*
X184857142Y-66832143D01*
X184714284Y-66903571D01*
X184428570Y-66903571D01*
X184285713Y-66832143D01*
X184142856Y-66689286D01*
X184071427Y-66403571D01*
X184071427Y-65903571D01*
X184142856Y-65617857D01*
X184285713Y-65475000D01*
X184428570Y-65403571D01*
X185714285Y-65403571D02*
X185714285Y-66617857D01*
X185785713Y-66760714D01*
X185857142Y-66832143D01*
X185999999Y-66903571D01*
X186285713Y-66903571D01*
X186428571Y-66832143D01*
X186499999Y-66760714D01*
X186571428Y-66617857D01*
X186571428Y-65403571D01*
X188142857Y-66903571D02*
X187642857Y-66189286D01*
X187285714Y-66903571D02*
X187285714Y-65403571D01*
X187857142Y-65403571D01*
X188000000Y-65475000D01*
X188071428Y-65546429D01*
X188142857Y-65689286D01*
X188142857Y-65903571D01*
X188071428Y-66046429D01*
X188000000Y-66117857D01*
X187857142Y-66189286D01*
X187285714Y-66189286D01*
X189928571Y-66903571D02*
X189928571Y-65403571D01*
X190499999Y-65403571D01*
X190642857Y-65475000D01*
X190714285Y-65546429D01*
X190785714Y-65689286D01*
X190785714Y-65903571D01*
X190714285Y-66046429D01*
X190642857Y-66117857D01*
X190499999Y-66189286D01*
X189928571Y-66189286D01*
X191714285Y-65403571D02*
X191999999Y-65403571D01*
X192142857Y-65475000D01*
X192285714Y-65617857D01*
X192357142Y-65903571D01*
X192357142Y-66403571D01*
X192285714Y-66689286D01*
X192142857Y-66832143D01*
X191999999Y-66903571D01*
X191714285Y-66903571D01*
X191571428Y-66832143D01*
X191428571Y-66689286D01*
X191357142Y-66403571D01*
X191357142Y-65903571D01*
X191428571Y-65617857D01*
X191571428Y-65475000D01*
X191714285Y-65403571D01*
X193714286Y-66903571D02*
X193000000Y-66903571D01*
X193000000Y-65403571D01*
X194500000Y-66189286D02*
X194500000Y-66903571D01*
X194000000Y-65403571D02*
X194500000Y-66189286D01*
X195000000Y-65403571D01*
X195500000Y-65403571D02*
X195500000Y-66617857D01*
X195571428Y-66760714D01*
X195642857Y-66832143D01*
X195785714Y-66903571D01*
X196071428Y-66903571D01*
X196214286Y-66832143D01*
X196285714Y-66760714D01*
X196357143Y-66617857D01*
X196357143Y-65403571D01*
X197928572Y-66903571D02*
X197428572Y-66189286D01*
X197071429Y-66903571D02*
X197071429Y-65403571D01*
X197642857Y-65403571D01*
X197785715Y-65475000D01*
X197857143Y-65546429D01*
X197928572Y-65689286D01*
X197928572Y-65903571D01*
X197857143Y-66046429D01*
X197785715Y-66117857D01*
X197642857Y-66189286D01*
X197071429Y-66189286D01*
X198571429Y-66117857D02*
X199071429Y-66117857D01*
X199285715Y-66903571D02*
X198571429Y-66903571D01*
X198571429Y-65403571D01*
X199285715Y-65403571D01*
X199714286Y-65403571D02*
X200571429Y-65403571D01*
X200142858Y-66903571D02*
X200142858Y-65403571D01*
X201071429Y-66903571D02*
X201071429Y-65403571D01*
X201071429Y-66117857D02*
X201928572Y-66117857D01*
X201928572Y-66903571D02*
X201928572Y-65403571D01*
X202571429Y-66475000D02*
X203285715Y-66475000D01*
X202428572Y-66903571D02*
X202928572Y-65403571D01*
X203428572Y-66903571D01*
X203928572Y-66903571D02*
X203928572Y-65403571D01*
X204785715Y-66903571D01*
X204785715Y-65403571D01*
X205500001Y-66117857D02*
X206000001Y-66117857D01*
X206214287Y-66903571D02*
X205500001Y-66903571D01*
X205500001Y-65403571D01*
X206214287Y-65403571D01*
X208500001Y-66117857D02*
X208714287Y-66189286D01*
X208785715Y-66260714D01*
X208857144Y-66403571D01*
X208857144Y-66617857D01*
X208785715Y-66760714D01*
X208714287Y-66832143D01*
X208571429Y-66903571D01*
X208000001Y-66903571D01*
X208000001Y-65403571D01*
X208500001Y-65403571D01*
X208642858Y-65475000D01*
X208714287Y-65546429D01*
X208785715Y-65689286D01*
X208785715Y-65832143D01*
X208714287Y-65975000D01*
X208642858Y-66046429D01*
X208500001Y-66117857D01*
X208000001Y-66117857D01*
X209500001Y-65403571D02*
X209500001Y-66617857D01*
X209571429Y-66760714D01*
X209642858Y-66832143D01*
X209785715Y-66903571D01*
X210071429Y-66903571D01*
X210214287Y-66832143D01*
X210285715Y-66760714D01*
X210357144Y-66617857D01*
X210357144Y-65403571D01*
X211071430Y-66903571D02*
X211071430Y-65403571D01*
X211571430Y-66475000D01*
X212071430Y-65403571D01*
X212071430Y-66903571D01*
X212785716Y-66903571D02*
X212785716Y-65403571D01*
X213357144Y-65403571D01*
X213500002Y-65475000D01*
X213571430Y-65546429D01*
X213642859Y-65689286D01*
X213642859Y-65903571D01*
X213571430Y-66046429D01*
X213500002Y-66117857D01*
X213357144Y-66189286D01*
X212785716Y-66189286D01*
X214285716Y-66117857D02*
X214785716Y-66117857D01*
X215000002Y-66903571D02*
X214285716Y-66903571D01*
X214285716Y-65403571D01*
X215000002Y-65403571D01*
X216500002Y-66903571D02*
X216000002Y-66189286D01*
X215642859Y-66903571D02*
X215642859Y-65403571D01*
X216214287Y-65403571D01*
X216357145Y-65475000D01*
X216428573Y-65546429D01*
X216500002Y-65689286D01*
X216500002Y-65903571D01*
X216428573Y-66046429D01*
X216357145Y-66117857D01*
X216214287Y-66189286D01*
X215642859Y-66189286D01*
X217071430Y-66832143D02*
X217285716Y-66903571D01*
X217642859Y-66903571D01*
X217785716Y-66832143D01*
X217857145Y-66760714D01*
X217928573Y-66617857D01*
X217928573Y-66475000D01*
X217857145Y-66332143D01*
X217785716Y-66260714D01*
X217642859Y-66189286D01*
X217357145Y-66117857D01*
X217214287Y-66046429D01*
X217142859Y-65975000D01*
X217071430Y-65832143D01*
X217071430Y-65689286D01*
X217142859Y-65546429D01*
X217214287Y-65475000D01*
X217357145Y-65403571D01*
X217714287Y-65403571D01*
X217928573Y-65475000D01*
X170464286Y-69453571D02*
X170464286Y-67953571D01*
X171178572Y-69453571D02*
X171178572Y-67953571D01*
X172035715Y-69453571D01*
X172035715Y-67953571D01*
X174392858Y-68667857D02*
X173892858Y-68667857D01*
X173892858Y-69453571D02*
X173892858Y-67953571D01*
X174607144Y-67953571D01*
X175464286Y-67953571D02*
X175750000Y-67953571D01*
X175892858Y-68025000D01*
X176035715Y-68167857D01*
X176107143Y-68453571D01*
X176107143Y-68953571D01*
X176035715Y-69239286D01*
X175892858Y-69382143D01*
X175750000Y-69453571D01*
X175464286Y-69453571D01*
X175321429Y-69382143D01*
X175178572Y-69239286D01*
X175107143Y-68953571D01*
X175107143Y-68453571D01*
X175178572Y-68167857D01*
X175321429Y-68025000D01*
X175464286Y-67953571D01*
X176750001Y-67953571D02*
X176750001Y-69167857D01*
X176821429Y-69310714D01*
X176892858Y-69382143D01*
X177035715Y-69453571D01*
X177321429Y-69453571D01*
X177464287Y-69382143D01*
X177535715Y-69310714D01*
X177607144Y-69167857D01*
X177607144Y-67953571D01*
X179178573Y-69453571D02*
X178678573Y-68739286D01*
X178321430Y-69453571D02*
X178321430Y-67953571D01*
X178892858Y-67953571D01*
X179035716Y-68025000D01*
X179107144Y-68096429D01*
X179178573Y-68239286D01*
X179178573Y-68453571D01*
X179107144Y-68596429D01*
X179035716Y-68667857D01*
X178892858Y-68739286D01*
X178321430Y-68739286D01*
X181750001Y-69453571D02*
X180892858Y-69453571D01*
X181321430Y-69453571D02*
X181321430Y-67953571D01*
X181178573Y-68167857D01*
X181035715Y-68310714D01*
X180892858Y-68382143D01*
X182678572Y-67953571D02*
X182821429Y-67953571D01*
X182964286Y-68025000D01*
X183035715Y-68096429D01*
X183107144Y-68239286D01*
X183178572Y-68525000D01*
X183178572Y-68882143D01*
X183107144Y-69167857D01*
X183035715Y-69310714D01*
X182964286Y-69382143D01*
X182821429Y-69453571D01*
X182678572Y-69453571D01*
X182535715Y-69382143D01*
X182464286Y-69310714D01*
X182392858Y-69167857D01*
X182321429Y-68882143D01*
X182321429Y-68525000D01*
X182392858Y-68239286D01*
X182464286Y-68096429D01*
X182535715Y-68025000D01*
X182678572Y-67953571D01*
X183821429Y-69453571D02*
X183821429Y-67953571D01*
X184321429Y-69025000D01*
X184821429Y-67953571D01*
X184821429Y-69453571D01*
X185535715Y-69453571D02*
X185535715Y-67953571D01*
X186035715Y-69025000D01*
X186535715Y-67953571D01*
X186535715Y-69453571D01*
X188321429Y-69382143D02*
X188535715Y-69453571D01*
X188892858Y-69453571D01*
X189035715Y-69382143D01*
X189107144Y-69310714D01*
X189178572Y-69167857D01*
X189178572Y-69025000D01*
X189107144Y-68882143D01*
X189035715Y-68810714D01*
X188892858Y-68739286D01*
X188607144Y-68667857D01*
X188464286Y-68596429D01*
X188392858Y-68525000D01*
X188321429Y-68382143D01*
X188321429Y-68239286D01*
X188392858Y-68096429D01*
X188464286Y-68025000D01*
X188607144Y-67953571D01*
X188964286Y-67953571D01*
X189178572Y-68025000D01*
X189821429Y-69453571D02*
X189821429Y-67953571D01*
X191250001Y-69453571D02*
X190535715Y-69453571D01*
X190535715Y-67953571D01*
X191750001Y-69453571D02*
X191750001Y-67953571D01*
X192607144Y-69453571D02*
X191964287Y-68596429D01*
X192607144Y-67953571D02*
X191750001Y-68810714D01*
X193178572Y-69382143D02*
X193392858Y-69453571D01*
X193750001Y-69453571D01*
X193892858Y-69382143D01*
X193964287Y-69310714D01*
X194035715Y-69167857D01*
X194035715Y-69025000D01*
X193964287Y-68882143D01*
X193892858Y-68810714D01*
X193750001Y-68739286D01*
X193464287Y-68667857D01*
X193321429Y-68596429D01*
X193250001Y-68525000D01*
X193178572Y-68382143D01*
X193178572Y-68239286D01*
X193250001Y-68096429D01*
X193321429Y-68025000D01*
X193464287Y-67953571D01*
X193821429Y-67953571D01*
X194035715Y-68025000D01*
X195535715Y-69310714D02*
X195464286Y-69382143D01*
X195250000Y-69453571D01*
X195107143Y-69453571D01*
X194892858Y-69382143D01*
X194750000Y-69239286D01*
X194678572Y-69096429D01*
X194607143Y-68810714D01*
X194607143Y-68596429D01*
X194678572Y-68310714D01*
X194750000Y-68167857D01*
X194892858Y-68025000D01*
X195107143Y-67953571D01*
X195250000Y-67953571D01*
X195464286Y-68025000D01*
X195535715Y-68096429D01*
X197035715Y-69453571D02*
X196535715Y-68739286D01*
X196178572Y-69453571D02*
X196178572Y-67953571D01*
X196750000Y-67953571D01*
X196892858Y-68025000D01*
X196964286Y-68096429D01*
X197035715Y-68239286D01*
X197035715Y-68453571D01*
X196964286Y-68596429D01*
X196892858Y-68667857D01*
X196750000Y-68739286D01*
X196178572Y-68739286D01*
X197678572Y-68667857D02*
X198178572Y-68667857D01*
X198392858Y-69453571D02*
X197678572Y-69453571D01*
X197678572Y-67953571D01*
X198392858Y-67953571D01*
X199035715Y-68667857D02*
X199535715Y-68667857D01*
X199750001Y-69453571D02*
X199035715Y-69453571D01*
X199035715Y-67953571D01*
X199750001Y-67953571D01*
X200392858Y-69453571D02*
X200392858Y-67953571D01*
X201250001Y-69453571D01*
X201250001Y-67953571D01*
X203964287Y-69310714D02*
X203892858Y-69382143D01*
X203678572Y-69453571D01*
X203535715Y-69453571D01*
X203321430Y-69382143D01*
X203178572Y-69239286D01*
X203107144Y-69096429D01*
X203035715Y-68810714D01*
X203035715Y-68596429D01*
X203107144Y-68310714D01*
X203178572Y-68167857D01*
X203321430Y-68025000D01*
X203535715Y-67953571D01*
X203678572Y-67953571D01*
X203892858Y-68025000D01*
X203964287Y-68096429D01*
X204607144Y-69453571D02*
X204607144Y-67953571D01*
X206178573Y-69453571D02*
X205678573Y-68739286D01*
X205321430Y-69453571D02*
X205321430Y-67953571D01*
X205892858Y-67953571D01*
X206035716Y-68025000D01*
X206107144Y-68096429D01*
X206178573Y-68239286D01*
X206178573Y-68453571D01*
X206107144Y-68596429D01*
X206035716Y-68667857D01*
X205892858Y-68739286D01*
X205321430Y-68739286D01*
X207678573Y-69310714D02*
X207607144Y-69382143D01*
X207392858Y-69453571D01*
X207250001Y-69453571D01*
X207035716Y-69382143D01*
X206892858Y-69239286D01*
X206821430Y-69096429D01*
X206750001Y-68810714D01*
X206750001Y-68596429D01*
X206821430Y-68310714D01*
X206892858Y-68167857D01*
X207035716Y-68025000D01*
X207250001Y-67953571D01*
X207392858Y-67953571D01*
X207607144Y-68025000D01*
X207678573Y-68096429D01*
X209035716Y-69453571D02*
X208321430Y-69453571D01*
X208321430Y-67953571D01*
X209535716Y-68667857D02*
X210035716Y-68667857D01*
X210250002Y-69453571D02*
X209535716Y-69453571D01*
X209535716Y-67953571D01*
X210250002Y-67953571D01*
X210821430Y-69382143D02*
X211035716Y-69453571D01*
X211392859Y-69453571D01*
X211535716Y-69382143D01*
X211607145Y-69310714D01*
X211678573Y-69167857D01*
X211678573Y-69025000D01*
X211607145Y-68882143D01*
X211535716Y-68810714D01*
X211392859Y-68739286D01*
X211107145Y-68667857D01*
X210964287Y-68596429D01*
X210892859Y-68525000D01*
X210821430Y-68382143D01*
X210821430Y-68239286D01*
X210892859Y-68096429D01*
X210964287Y-68025000D01*
X211107145Y-67953571D01*
X211464287Y-67953571D01*
X211678573Y-68025000D01*
X213892858Y-70025000D02*
X213821430Y-69953571D01*
X213678573Y-69739286D01*
X213607144Y-69596429D01*
X213535715Y-69382143D01*
X213464287Y-69025000D01*
X213464287Y-68739286D01*
X213535715Y-68382143D01*
X213607144Y-68167857D01*
X213678573Y-68025000D01*
X213821430Y-67810714D01*
X213892858Y-67739286D01*
X214964287Y-68667857D02*
X215178573Y-68739286D01*
X215250001Y-68810714D01*
X215321430Y-68953571D01*
X215321430Y-69167857D01*
X215250001Y-69310714D01*
X215178573Y-69382143D01*
X215035715Y-69453571D01*
X214464287Y-69453571D01*
X214464287Y-67953571D01*
X214964287Y-67953571D01*
X215107144Y-68025000D01*
X215178573Y-68096429D01*
X215250001Y-68239286D01*
X215250001Y-68382143D01*
X215178573Y-68525000D01*
X215107144Y-68596429D01*
X214964287Y-68667857D01*
X214464287Y-68667857D01*
X215892858Y-69025000D02*
X216607144Y-69025000D01*
X215750001Y-69453571D02*
X216250001Y-67953571D01*
X216750001Y-69453571D01*
X218107144Y-69310714D02*
X218035715Y-69382143D01*
X217821429Y-69453571D01*
X217678572Y-69453571D01*
X217464287Y-69382143D01*
X217321429Y-69239286D01*
X217250001Y-69096429D01*
X217178572Y-68810714D01*
X217178572Y-68596429D01*
X217250001Y-68310714D01*
X217321429Y-68167857D01*
X217464287Y-68025000D01*
X217678572Y-67953571D01*
X217821429Y-67953571D01*
X218035715Y-68025000D01*
X218107144Y-68096429D01*
X218750001Y-69453571D02*
X218750001Y-67953571D01*
X219607144Y-69453571D02*
X218964287Y-68596429D01*
X219607144Y-67953571D02*
X218750001Y-68810714D01*
X220107144Y-70025000D02*
X220178572Y-69953571D01*
X220321429Y-69739286D01*
X220392858Y-69596429D01*
X220464287Y-69382143D01*
X220535715Y-69025000D01*
X220535715Y-68739286D01*
X220464287Y-68382143D01*
X220392858Y-68167857D01*
X220321429Y-68025000D01*
X220178572Y-67810714D01*
X220107144Y-67739286D01*
X88857143Y-121703571D02*
X88857143Y-120203571D01*
X89714286Y-121703571D01*
X89714286Y-120203571D01*
X90714286Y-120203571D02*
X91000000Y-120203571D01*
X91142858Y-120275000D01*
X91285715Y-120417857D01*
X91357143Y-120703571D01*
X91357143Y-121203571D01*
X91285715Y-121489286D01*
X91142858Y-121632143D01*
X91000000Y-121703571D01*
X90714286Y-121703571D01*
X90571429Y-121632143D01*
X90428572Y-121489286D01*
X90357143Y-121203571D01*
X90357143Y-120703571D01*
X90428572Y-120417857D01*
X90571429Y-120275000D01*
X90714286Y-120203571D01*
X91785715Y-120203571D02*
X92642858Y-120203571D01*
X92214287Y-121703571D02*
X92214287Y-120203571D01*
X93142858Y-120917857D02*
X93642858Y-120917857D01*
X93857144Y-121703571D02*
X93142858Y-121703571D01*
X93142858Y-120203571D01*
X93857144Y-120203571D01*
X94428572Y-121632143D02*
X94642858Y-121703571D01*
X95000001Y-121703571D01*
X95142858Y-121632143D01*
X95214287Y-121560714D01*
X95285715Y-121417857D01*
X95285715Y-121275000D01*
X95214287Y-121132143D01*
X95142858Y-121060714D01*
X95000001Y-120989286D01*
X94714287Y-120917857D01*
X94571429Y-120846429D01*
X94500001Y-120775000D01*
X94428572Y-120632143D01*
X94428572Y-120489286D01*
X94500001Y-120346429D01*
X94571429Y-120275000D01*
X94714287Y-120203571D01*
X95071429Y-120203571D01*
X95285715Y-120275000D01*
X95928572Y-121560714D02*
X96000000Y-121632143D01*
X95928572Y-121703571D01*
X95857143Y-121632143D01*
X95928572Y-121560714D01*
X95928572Y-121703571D01*
X95928572Y-120775000D02*
X96000000Y-120846429D01*
X95928572Y-120917857D01*
X95857143Y-120846429D01*
X95928572Y-120775000D01*
X95928572Y-120917857D01*
X89642857Y-124253571D02*
X88785714Y-124253571D01*
X89214286Y-124253571D02*
X89214286Y-122753571D01*
X89071429Y-122967857D01*
X88928571Y-123110714D01*
X88785714Y-123182143D01*
X90285714Y-124110714D02*
X90357142Y-124182143D01*
X90285714Y-124253571D01*
X90214285Y-124182143D01*
X90285714Y-124110714D01*
X90285714Y-124253571D01*
X92642857Y-123467857D02*
X92142857Y-123467857D01*
X92142857Y-124253571D02*
X92142857Y-122753571D01*
X92857143Y-122753571D01*
X93714285Y-122753571D02*
X93999999Y-122753571D01*
X94142857Y-122825000D01*
X94285714Y-122967857D01*
X94357142Y-123253571D01*
X94357142Y-123753571D01*
X94285714Y-124039286D01*
X94142857Y-124182143D01*
X93999999Y-124253571D01*
X93714285Y-124253571D01*
X93571428Y-124182143D01*
X93428571Y-124039286D01*
X93357142Y-123753571D01*
X93357142Y-123253571D01*
X93428571Y-122967857D01*
X93571428Y-122825000D01*
X93714285Y-122753571D01*
X95285714Y-122753571D02*
X95571428Y-122753571D01*
X95714286Y-122825000D01*
X95857143Y-122967857D01*
X95928571Y-123253571D01*
X95928571Y-123753571D01*
X95857143Y-124039286D01*
X95714286Y-124182143D01*
X95571428Y-124253571D01*
X95285714Y-124253571D01*
X95142857Y-124182143D01*
X95000000Y-124039286D01*
X94928571Y-123753571D01*
X94928571Y-123253571D01*
X95000000Y-122967857D01*
X95142857Y-122825000D01*
X95285714Y-122753571D01*
X96357143Y-122753571D02*
X97214286Y-122753571D01*
X96785715Y-124253571D02*
X96785715Y-122753571D01*
X97714286Y-124253571D02*
X97714286Y-122753571D01*
X98285714Y-122753571D01*
X98428572Y-122825000D01*
X98500000Y-122896429D01*
X98571429Y-123039286D01*
X98571429Y-123253571D01*
X98500000Y-123396429D01*
X98428572Y-123467857D01*
X98285714Y-123539286D01*
X97714286Y-123539286D01*
X100071429Y-124253571D02*
X99571429Y-123539286D01*
X99214286Y-124253571D02*
X99214286Y-122753571D01*
X99785714Y-122753571D01*
X99928572Y-122825000D01*
X100000000Y-122896429D01*
X100071429Y-123039286D01*
X100071429Y-123253571D01*
X100000000Y-123396429D01*
X99928572Y-123467857D01*
X99785714Y-123539286D01*
X99214286Y-123539286D01*
X100714286Y-124253571D02*
X100714286Y-122753571D01*
X101428572Y-124253571D02*
X101428572Y-122753571D01*
X102285715Y-124253571D01*
X102285715Y-122753571D01*
X102785715Y-122753571D02*
X103642858Y-122753571D01*
X103214287Y-124253571D02*
X103214287Y-122753571D01*
X104071429Y-124182143D02*
X104285715Y-124253571D01*
X104642858Y-124253571D01*
X104785715Y-124182143D01*
X104857144Y-124110714D01*
X104928572Y-123967857D01*
X104928572Y-123825000D01*
X104857144Y-123682143D01*
X104785715Y-123610714D01*
X104642858Y-123539286D01*
X104357144Y-123467857D01*
X104214286Y-123396429D01*
X104142858Y-123325000D01*
X104071429Y-123182143D01*
X104071429Y-123039286D01*
X104142858Y-122896429D01*
X104214286Y-122825000D01*
X104357144Y-122753571D01*
X104714286Y-122753571D01*
X104928572Y-122825000D01*
X107000000Y-122753571D02*
X107285714Y-122753571D01*
X107428572Y-122825000D01*
X107571429Y-122967857D01*
X107642857Y-123253571D01*
X107642857Y-123753571D01*
X107571429Y-124039286D01*
X107428572Y-124182143D01*
X107285714Y-124253571D01*
X107000000Y-124253571D01*
X106857143Y-124182143D01*
X106714286Y-124039286D01*
X106642857Y-123753571D01*
X106642857Y-123253571D01*
X106714286Y-122967857D01*
X106857143Y-122825000D01*
X107000000Y-122753571D01*
X109142858Y-124253571D02*
X108642858Y-123539286D01*
X108285715Y-124253571D02*
X108285715Y-122753571D01*
X108857143Y-122753571D01*
X109000001Y-122825000D01*
X109071429Y-122896429D01*
X109142858Y-123039286D01*
X109142858Y-123253571D01*
X109071429Y-123396429D01*
X109000001Y-123467857D01*
X108857143Y-123539286D01*
X108285715Y-123539286D01*
X109785715Y-124253571D02*
X109785715Y-122753571D01*
X110500001Y-123467857D02*
X111000001Y-123467857D01*
X111214287Y-124253571D02*
X110500001Y-124253571D01*
X110500001Y-122753571D01*
X111214287Y-122753571D01*
X111857144Y-124253571D02*
X111857144Y-122753571D01*
X112714287Y-124253571D01*
X112714287Y-122753571D01*
X113214287Y-122753571D02*
X114071430Y-122753571D01*
X113642859Y-124253571D02*
X113642859Y-122753571D01*
X114571430Y-123467857D02*
X115071430Y-123467857D01*
X115285716Y-124253571D02*
X114571430Y-124253571D01*
X114571430Y-122753571D01*
X115285716Y-122753571D01*
X115928573Y-124253571D02*
X115928573Y-122753571D01*
X116285716Y-122753571D01*
X116500001Y-122825000D01*
X116642859Y-122967857D01*
X116714287Y-123110714D01*
X116785716Y-123396429D01*
X116785716Y-123610714D01*
X116714287Y-123896429D01*
X116642859Y-124039286D01*
X116500001Y-124182143D01*
X116285716Y-124253571D01*
X115928573Y-124253571D01*
X118571430Y-124253571D02*
X118571430Y-122753571D01*
X119142858Y-122753571D01*
X119285716Y-122825000D01*
X119357144Y-122896429D01*
X119428573Y-123039286D01*
X119428573Y-123253571D01*
X119357144Y-123396429D01*
X119285716Y-123467857D01*
X119142858Y-123539286D01*
X118571430Y-123539286D01*
X120071430Y-123467857D02*
X120571430Y-123467857D01*
X120785716Y-124253571D02*
X120071430Y-124253571D01*
X120071430Y-122753571D01*
X120785716Y-122753571D01*
X122285716Y-124253571D02*
X121785716Y-123539286D01*
X121428573Y-124253571D02*
X121428573Y-122753571D01*
X122000001Y-122753571D01*
X122142859Y-122825000D01*
X122214287Y-122896429D01*
X122285716Y-123039286D01*
X122285716Y-123253571D01*
X122214287Y-123396429D01*
X122142859Y-123467857D01*
X122000001Y-123539286D01*
X121428573Y-123539286D01*
X124071430Y-124253571D02*
X124071430Y-122753571D01*
X124785716Y-124253571D02*
X124785716Y-122753571D01*
X125357144Y-122753571D01*
X125500002Y-122825000D01*
X125571430Y-122896429D01*
X125642859Y-123039286D01*
X125642859Y-123253571D01*
X125571430Y-123396429D01*
X125500002Y-123467857D01*
X125357144Y-123539286D01*
X124785716Y-123539286D01*
X127142859Y-124110714D02*
X127071430Y-124182143D01*
X126857144Y-124253571D01*
X126714287Y-124253571D01*
X126500002Y-124182143D01*
X126357144Y-124039286D01*
X126285716Y-123896429D01*
X126214287Y-123610714D01*
X126214287Y-123396429D01*
X126285716Y-123110714D01*
X126357144Y-122967857D01*
X126500002Y-122825000D01*
X126714287Y-122753571D01*
X126857144Y-122753571D01*
X127071430Y-122825000D01*
X127142859Y-122896429D01*
X127785716Y-123682143D02*
X128928573Y-123682143D01*
X129500002Y-122753571D02*
X130500002Y-122753571D01*
X129857145Y-124253571D01*
X130928573Y-122753571D02*
X131857144Y-122753571D01*
X131357144Y-123325000D01*
X131571430Y-123325000D01*
X131714287Y-123396429D01*
X131785716Y-123467857D01*
X131857144Y-123610714D01*
X131857144Y-123967857D01*
X131785716Y-124110714D01*
X131714287Y-124182143D01*
X131571430Y-124253571D01*
X131142858Y-124253571D01*
X131000001Y-124182143D01*
X130928573Y-124110714D01*
X133214287Y-122753571D02*
X132500001Y-122753571D01*
X132428572Y-123467857D01*
X132500001Y-123396429D01*
X132642858Y-123325000D01*
X133000001Y-123325000D01*
X133142858Y-123396429D01*
X133214287Y-123467857D01*
X133285715Y-123610714D01*
X133285715Y-123967857D01*
X133214287Y-124110714D01*
X133142858Y-124182143D01*
X133000001Y-124253571D01*
X132642858Y-124253571D01*
X132500001Y-124182143D01*
X132428572Y-124110714D01*
X134714286Y-124253571D02*
X133857143Y-124253571D01*
X134285715Y-124253571D02*
X134285715Y-122753571D01*
X134142858Y-122967857D01*
X134000000Y-123110714D01*
X133857143Y-123182143D01*
X135857143Y-123467857D02*
X135357143Y-123467857D01*
X135357143Y-124253571D02*
X135357143Y-122753571D01*
X136071429Y-122753571D01*
X137500000Y-124110714D02*
X137428571Y-124182143D01*
X137214285Y-124253571D01*
X137071428Y-124253571D01*
X136857143Y-124182143D01*
X136714285Y-124039286D01*
X136642857Y-123896429D01*
X136571428Y-123610714D01*
X136571428Y-123396429D01*
X136642857Y-123110714D01*
X136714285Y-122967857D01*
X136857143Y-122825000D01*
X137071428Y-122753571D01*
X137214285Y-122753571D01*
X137428571Y-122825000D01*
X137500000Y-122896429D01*
X140000000Y-124253571D02*
X139285714Y-124253571D01*
X139285714Y-122753571D01*
X140500000Y-123467857D02*
X141000000Y-123467857D01*
X141214286Y-124253571D02*
X140500000Y-124253571D01*
X140500000Y-122753571D01*
X141214286Y-122753571D01*
X141642857Y-122753571D02*
X142142857Y-124253571D01*
X142642857Y-122753571D01*
X143142857Y-123467857D02*
X143642857Y-123467857D01*
X143857143Y-124253571D02*
X143142857Y-124253571D01*
X143142857Y-122753571D01*
X143857143Y-122753571D01*
X145214286Y-124253571D02*
X144500000Y-124253571D01*
X144500000Y-122753571D01*
X147357143Y-123467857D02*
X147571429Y-123539286D01*
X147642857Y-123610714D01*
X147714286Y-123753571D01*
X147714286Y-123967857D01*
X147642857Y-124110714D01*
X147571429Y-124182143D01*
X147428571Y-124253571D01*
X146857143Y-124253571D01*
X146857143Y-122753571D01*
X147357143Y-122753571D01*
X147500000Y-122825000D01*
X147571429Y-122896429D01*
X147642857Y-123039286D01*
X147642857Y-123182143D01*
X147571429Y-123325000D01*
X147500000Y-123396429D01*
X147357143Y-123467857D01*
X146857143Y-123467857D01*
X149928571Y-124825000D02*
X149857143Y-124753571D01*
X149714286Y-124539286D01*
X149642857Y-124396429D01*
X149571428Y-124182143D01*
X149500000Y-123825000D01*
X149500000Y-123539286D01*
X149571428Y-123182143D01*
X149642857Y-122967857D01*
X149714286Y-122825000D01*
X149857143Y-122610714D01*
X149928571Y-122539286D01*
X150500000Y-124253571D02*
X150500000Y-122753571D01*
X151071428Y-122753571D01*
X151214286Y-122825000D01*
X151285714Y-122896429D01*
X151357143Y-123039286D01*
X151357143Y-123253571D01*
X151285714Y-123396429D01*
X151214286Y-123467857D01*
X151071428Y-123539286D01*
X150500000Y-123539286D01*
X152000000Y-124253571D02*
X152000000Y-122753571D01*
X152714286Y-124253571D02*
X152714286Y-122753571D01*
X153571429Y-124253571D01*
X153571429Y-122753571D01*
X156214286Y-124253571D02*
X155357143Y-124253571D01*
X155785715Y-124253571D02*
X155785715Y-122753571D01*
X155642858Y-122967857D01*
X155500000Y-123110714D01*
X155357143Y-123182143D01*
X158000000Y-124253571D02*
X158000000Y-122753571D01*
X158714286Y-124253571D02*
X158714286Y-122753571D01*
X159571429Y-124253571D01*
X159571429Y-122753571D01*
X162142858Y-124253571D02*
X161428572Y-124253571D01*
X161428572Y-122753571D01*
X162928572Y-122753571D02*
X163214286Y-122753571D01*
X163357144Y-122825000D01*
X163500001Y-122967857D01*
X163571429Y-123253571D01*
X163571429Y-123753571D01*
X163500001Y-124039286D01*
X163357144Y-124182143D01*
X163214286Y-124253571D01*
X162928572Y-124253571D01*
X162785715Y-124182143D01*
X162642858Y-124039286D01*
X162571429Y-123753571D01*
X162571429Y-123253571D01*
X162642858Y-122967857D01*
X162785715Y-122825000D01*
X162928572Y-122753571D01*
X164071430Y-122753571D02*
X164428573Y-124253571D01*
X164714287Y-123182143D01*
X165000001Y-124253571D01*
X165357144Y-122753571D01*
X165928573Y-123467857D02*
X166428573Y-123467857D01*
X166642859Y-124253571D02*
X165928573Y-124253571D01*
X165928573Y-122753571D01*
X166642859Y-122753571D01*
X168142859Y-124253571D02*
X167642859Y-123539286D01*
X167285716Y-124253571D02*
X167285716Y-122753571D01*
X167857144Y-122753571D01*
X168000002Y-122825000D01*
X168071430Y-122896429D01*
X168142859Y-123039286D01*
X168142859Y-123253571D01*
X168071430Y-123396429D01*
X168000002Y-123467857D01*
X167857144Y-123539286D01*
X167285716Y-123539286D01*
X170642859Y-124253571D02*
X169928573Y-124253571D01*
X169928573Y-122753571D01*
X171142859Y-123467857D02*
X171642859Y-123467857D01*
X171857145Y-124253571D02*
X171142859Y-124253571D01*
X171142859Y-122753571D01*
X171857145Y-122753571D01*
X173000002Y-123467857D02*
X172500002Y-123467857D01*
X172500002Y-124253571D02*
X172500002Y-122753571D01*
X173214288Y-122753571D01*
X173571430Y-122753571D02*
X174428573Y-122753571D01*
X174000002Y-124253571D02*
X174000002Y-122753571D01*
X174785716Y-124825000D02*
X174857144Y-124753571D01*
X175000001Y-124539286D01*
X175071430Y-124396429D01*
X175142859Y-124182143D01*
X175214287Y-123825000D01*
X175214287Y-123539286D01*
X175142859Y-123182143D01*
X175071430Y-122967857D01*
X175000001Y-122825000D01*
X174857144Y-122610714D01*
X174785716Y-122539286D01*
X88785714Y-125446429D02*
X88857143Y-125375000D01*
X89000000Y-125303571D01*
X89357143Y-125303571D01*
X89500000Y-125375000D01*
X89571429Y-125446429D01*
X89642857Y-125589286D01*
X89642857Y-125732143D01*
X89571429Y-125946429D01*
X88714286Y-126803571D01*
X89642857Y-126803571D01*
X90285714Y-126660714D02*
X90357142Y-126732143D01*
X90285714Y-126803571D01*
X90214285Y-126732143D01*
X90285714Y-126660714D01*
X90285714Y-126803571D01*
X93000000Y-126660714D02*
X92928571Y-126732143D01*
X92714285Y-126803571D01*
X92571428Y-126803571D01*
X92357143Y-126732143D01*
X92214285Y-126589286D01*
X92142857Y-126446429D01*
X92071428Y-126160714D01*
X92071428Y-125946429D01*
X92142857Y-125660714D01*
X92214285Y-125517857D01*
X92357143Y-125375000D01*
X92571428Y-125303571D01*
X92714285Y-125303571D01*
X92928571Y-125375000D01*
X93000000Y-125446429D01*
X93928571Y-125303571D02*
X94214285Y-125303571D01*
X94357143Y-125375000D01*
X94500000Y-125517857D01*
X94571428Y-125803571D01*
X94571428Y-126303571D01*
X94500000Y-126589286D01*
X94357143Y-126732143D01*
X94214285Y-126803571D01*
X93928571Y-126803571D01*
X93785714Y-126732143D01*
X93642857Y-126589286D01*
X93571428Y-126303571D01*
X93571428Y-125803571D01*
X93642857Y-125517857D01*
X93785714Y-125375000D01*
X93928571Y-125303571D01*
X95214286Y-126803571D02*
X95214286Y-125303571D01*
X95714286Y-126375000D01*
X96214286Y-125303571D01*
X96214286Y-126803571D01*
X96928572Y-126803571D02*
X96928572Y-125303571D01*
X97500000Y-125303571D01*
X97642858Y-125375000D01*
X97714286Y-125446429D01*
X97785715Y-125589286D01*
X97785715Y-125803571D01*
X97714286Y-125946429D01*
X97642858Y-126017857D01*
X97500000Y-126089286D01*
X96928572Y-126089286D01*
X98714286Y-125303571D02*
X99000000Y-125303571D01*
X99142858Y-125375000D01*
X99285715Y-125517857D01*
X99357143Y-125803571D01*
X99357143Y-126303571D01*
X99285715Y-126589286D01*
X99142858Y-126732143D01*
X99000000Y-126803571D01*
X98714286Y-126803571D01*
X98571429Y-126732143D01*
X98428572Y-126589286D01*
X98357143Y-126303571D01*
X98357143Y-125803571D01*
X98428572Y-125517857D01*
X98571429Y-125375000D01*
X98714286Y-125303571D01*
X100000001Y-126803571D02*
X100000001Y-125303571D01*
X100857144Y-126803571D01*
X100857144Y-125303571D01*
X101571430Y-126017857D02*
X102071430Y-126017857D01*
X102285716Y-126803571D02*
X101571430Y-126803571D01*
X101571430Y-125303571D01*
X102285716Y-125303571D01*
X102928573Y-126803571D02*
X102928573Y-125303571D01*
X103785716Y-126803571D01*
X103785716Y-125303571D01*
X104285716Y-125303571D02*
X105142859Y-125303571D01*
X104714288Y-126803571D02*
X104714288Y-125303571D01*
X107642859Y-126803571D02*
X107142859Y-126089286D01*
X106785716Y-126803571D02*
X106785716Y-125303571D01*
X107357144Y-125303571D01*
X107500002Y-125375000D01*
X107571430Y-125446429D01*
X107642859Y-125589286D01*
X107642859Y-125803571D01*
X107571430Y-125946429D01*
X107500002Y-126017857D01*
X107357144Y-126089286D01*
X106785716Y-126089286D01*
X108571430Y-125303571D02*
X108857144Y-125303571D01*
X109000002Y-125375000D01*
X109142859Y-125517857D01*
X109214287Y-125803571D01*
X109214287Y-126303571D01*
X109142859Y-126589286D01*
X109000002Y-126732143D01*
X108857144Y-126803571D01*
X108571430Y-126803571D01*
X108428573Y-126732143D01*
X108285716Y-126589286D01*
X108214287Y-126303571D01*
X108214287Y-125803571D01*
X108285716Y-125517857D01*
X108428573Y-125375000D01*
X108571430Y-125303571D01*
X109642859Y-125303571D02*
X110500002Y-125303571D01*
X110071431Y-126803571D02*
X110071431Y-125303571D01*
X110928573Y-126375000D02*
X111642859Y-126375000D01*
X110785716Y-126803571D02*
X111285716Y-125303571D01*
X111785716Y-126803571D01*
X112071430Y-125303571D02*
X112928573Y-125303571D01*
X112500002Y-126803571D02*
X112500002Y-125303571D01*
X113428573Y-126803571D02*
X113428573Y-125303571D01*
X114428573Y-125303571D02*
X114714287Y-125303571D01*
X114857145Y-125375000D01*
X115000002Y-125517857D01*
X115071430Y-125803571D01*
X115071430Y-126303571D01*
X115000002Y-126589286D01*
X114857145Y-126732143D01*
X114714287Y-126803571D01*
X114428573Y-126803571D01*
X114285716Y-126732143D01*
X114142859Y-126589286D01*
X114071430Y-126303571D01*
X114071430Y-125803571D01*
X114142859Y-125517857D01*
X114285716Y-125375000D01*
X114428573Y-125303571D01*
X115714288Y-126803571D02*
X115714288Y-125303571D01*
X116571431Y-126803571D01*
X116571431Y-125303571D01*
X118428574Y-126803571D02*
X118428574Y-125303571D01*
X119142860Y-126803571D02*
X119142860Y-125303571D01*
X120000003Y-126803571D01*
X120000003Y-125303571D01*
X121857146Y-126803571D02*
X121857146Y-125303571D01*
X122214289Y-125303571D01*
X122428574Y-125375000D01*
X122571432Y-125517857D01*
X122642860Y-125660714D01*
X122714289Y-125946429D01*
X122714289Y-126160714D01*
X122642860Y-126446429D01*
X122571432Y-126589286D01*
X122428574Y-126732143D01*
X122214289Y-126803571D01*
X121857146Y-126803571D01*
X123357146Y-126017857D02*
X123857146Y-126017857D01*
X124071432Y-126803571D02*
X123357146Y-126803571D01*
X123357146Y-125303571D01*
X124071432Y-125303571D01*
X125500003Y-125375000D02*
X125357146Y-125303571D01*
X125142860Y-125303571D01*
X124928575Y-125375000D01*
X124785717Y-125517857D01*
X124714289Y-125660714D01*
X124642860Y-125946429D01*
X124642860Y-126160714D01*
X124714289Y-126446429D01*
X124785717Y-126589286D01*
X124928575Y-126732143D01*
X125142860Y-126803571D01*
X125285717Y-126803571D01*
X125500003Y-126732143D01*
X125571432Y-126660714D01*
X125571432Y-126160714D01*
X125285717Y-126160714D01*
X127071432Y-126803571D02*
X126571432Y-126089286D01*
X126214289Y-126803571D02*
X126214289Y-125303571D01*
X126785717Y-125303571D01*
X126928575Y-125375000D01*
X127000003Y-125446429D01*
X127071432Y-125589286D01*
X127071432Y-125803571D01*
X127000003Y-125946429D01*
X126928575Y-126017857D01*
X126785717Y-126089286D01*
X126214289Y-126089286D01*
X127714289Y-126017857D02*
X128214289Y-126017857D01*
X128428575Y-126803571D02*
X127714289Y-126803571D01*
X127714289Y-125303571D01*
X128428575Y-125303571D01*
X129071432Y-126017857D02*
X129571432Y-126017857D01*
X129785718Y-126803571D02*
X129071432Y-126803571D01*
X129071432Y-125303571D01*
X129785718Y-125303571D01*
X130357146Y-126732143D02*
X130571432Y-126803571D01*
X130928575Y-126803571D01*
X131071432Y-126732143D01*
X131142861Y-126660714D01*
X131214289Y-126517857D01*
X131214289Y-126375000D01*
X131142861Y-126232143D01*
X131071432Y-126160714D01*
X130928575Y-126089286D01*
X130642861Y-126017857D01*
X130500003Y-125946429D01*
X130428575Y-125875000D01*
X130357146Y-125732143D01*
X130357146Y-125589286D01*
X130428575Y-125446429D01*
X130500003Y-125375000D01*
X130642861Y-125303571D01*
X131000003Y-125303571D01*
X131214289Y-125375000D01*
X133857146Y-126660714D02*
X133785717Y-126732143D01*
X133571431Y-126803571D01*
X133428574Y-126803571D01*
X133214289Y-126732143D01*
X133071431Y-126589286D01*
X133000003Y-126446429D01*
X132928574Y-126160714D01*
X132928574Y-125946429D01*
X133000003Y-125660714D01*
X133071431Y-125517857D01*
X133214289Y-125375000D01*
X133428574Y-125303571D01*
X133571431Y-125303571D01*
X133785717Y-125375000D01*
X133857146Y-125446429D01*
X134785717Y-125303571D02*
X135071431Y-125303571D01*
X135214289Y-125375000D01*
X135357146Y-125517857D01*
X135428574Y-125803571D01*
X135428574Y-126303571D01*
X135357146Y-126589286D01*
X135214289Y-126732143D01*
X135071431Y-126803571D01*
X134785717Y-126803571D01*
X134642860Y-126732143D01*
X134500003Y-126589286D01*
X134428574Y-126303571D01*
X134428574Y-125803571D01*
X134500003Y-125517857D01*
X134642860Y-125375000D01*
X134785717Y-125303571D01*
X136071432Y-125303571D02*
X136071432Y-126517857D01*
X136142860Y-126660714D01*
X136214289Y-126732143D01*
X136357146Y-126803571D01*
X136642860Y-126803571D01*
X136785718Y-126732143D01*
X136857146Y-126660714D01*
X136928575Y-126517857D01*
X136928575Y-125303571D01*
X137642861Y-126803571D02*
X137642861Y-125303571D01*
X138500004Y-126803571D01*
X138500004Y-125303571D01*
X139000004Y-125303571D02*
X139857147Y-125303571D01*
X139428576Y-126803571D02*
X139428576Y-125303571D01*
X140357147Y-126017857D02*
X140857147Y-126017857D01*
X141071433Y-126803571D02*
X140357147Y-126803571D01*
X140357147Y-125303571D01*
X141071433Y-125303571D01*
X142571433Y-126803571D02*
X142071433Y-126089286D01*
X141714290Y-126803571D02*
X141714290Y-125303571D01*
X142285718Y-125303571D01*
X142428576Y-125375000D01*
X142500004Y-125446429D01*
X142571433Y-125589286D01*
X142571433Y-125803571D01*
X142500004Y-125946429D01*
X142428576Y-126017857D01*
X142285718Y-126089286D01*
X141714290Y-126089286D01*
X143214290Y-126232143D02*
X144357147Y-126232143D01*
X145928576Y-126660714D02*
X145857147Y-126732143D01*
X145642861Y-126803571D01*
X145500004Y-126803571D01*
X145285719Y-126732143D01*
X145142861Y-126589286D01*
X145071433Y-126446429D01*
X145000004Y-126160714D01*
X145000004Y-125946429D01*
X145071433Y-125660714D01*
X145142861Y-125517857D01*
X145285719Y-125375000D01*
X145500004Y-125303571D01*
X145642861Y-125303571D01*
X145857147Y-125375000D01*
X145928576Y-125446429D01*
X147285719Y-126803571D02*
X146571433Y-126803571D01*
X146571433Y-125303571D01*
X148071433Y-125303571D02*
X148357147Y-125303571D01*
X148500005Y-125375000D01*
X148642862Y-125517857D01*
X148714290Y-125803571D01*
X148714290Y-126303571D01*
X148642862Y-126589286D01*
X148500005Y-126732143D01*
X148357147Y-126803571D01*
X148071433Y-126803571D01*
X147928576Y-126732143D01*
X147785719Y-126589286D01*
X147714290Y-126303571D01*
X147714290Y-125803571D01*
X147785719Y-125517857D01*
X147928576Y-125375000D01*
X148071433Y-125303571D01*
X150214291Y-126660714D02*
X150142862Y-126732143D01*
X149928576Y-126803571D01*
X149785719Y-126803571D01*
X149571434Y-126732143D01*
X149428576Y-126589286D01*
X149357148Y-126446429D01*
X149285719Y-126160714D01*
X149285719Y-125946429D01*
X149357148Y-125660714D01*
X149428576Y-125517857D01*
X149571434Y-125375000D01*
X149785719Y-125303571D01*
X149928576Y-125303571D01*
X150142862Y-125375000D01*
X150214291Y-125446429D01*
X150857148Y-126803571D02*
X150857148Y-125303571D01*
X151714291Y-126803571D02*
X151071434Y-125946429D01*
X151714291Y-125303571D02*
X150857148Y-126160714D01*
X152214291Y-125303571D02*
X152571434Y-126803571D01*
X152857148Y-125732143D01*
X153142862Y-126803571D01*
X153500005Y-125303571D01*
X154071434Y-126803571D02*
X154071434Y-125303571D01*
X154714291Y-126732143D02*
X154928577Y-126803571D01*
X155285720Y-126803571D01*
X155428577Y-126732143D01*
X155500006Y-126660714D01*
X155571434Y-126517857D01*
X155571434Y-126375000D01*
X155500006Y-126232143D01*
X155428577Y-126160714D01*
X155285720Y-126089286D01*
X155000006Y-126017857D01*
X154857148Y-125946429D01*
X154785720Y-125875000D01*
X154714291Y-125732143D01*
X154714291Y-125589286D01*
X154785720Y-125446429D01*
X154857148Y-125375000D01*
X155000006Y-125303571D01*
X155357148Y-125303571D01*
X155571434Y-125375000D01*
X156214291Y-126017857D02*
X156714291Y-126017857D01*
X156928577Y-126803571D02*
X156214291Y-126803571D01*
X156214291Y-125303571D01*
X156928577Y-125303571D01*
X88714286Y-127853571D02*
X89642857Y-127853571D01*
X89142857Y-128425000D01*
X89357143Y-128425000D01*
X89500000Y-128496429D01*
X89571429Y-128567857D01*
X89642857Y-128710714D01*
X89642857Y-129067857D01*
X89571429Y-129210714D01*
X89500000Y-129282143D01*
X89357143Y-129353571D01*
X88928571Y-129353571D01*
X88785714Y-129282143D01*
X88714286Y-129210714D01*
X90285714Y-129210714D02*
X90357142Y-129282143D01*
X90285714Y-129353571D01*
X90214285Y-129282143D01*
X90285714Y-129210714D01*
X90285714Y-129353571D01*
X93000000Y-129210714D02*
X92928571Y-129282143D01*
X92714285Y-129353571D01*
X92571428Y-129353571D01*
X92357143Y-129282143D01*
X92214285Y-129139286D01*
X92142857Y-128996429D01*
X92071428Y-128710714D01*
X92071428Y-128496429D01*
X92142857Y-128210714D01*
X92214285Y-128067857D01*
X92357143Y-127925000D01*
X92571428Y-127853571D01*
X92714285Y-127853571D01*
X92928571Y-127925000D01*
X93000000Y-127996429D01*
X93928571Y-127853571D02*
X94214285Y-127853571D01*
X94357143Y-127925000D01*
X94500000Y-128067857D01*
X94571428Y-128353571D01*
X94571428Y-128853571D01*
X94500000Y-129139286D01*
X94357143Y-129282143D01*
X94214285Y-129353571D01*
X93928571Y-129353571D01*
X93785714Y-129282143D01*
X93642857Y-129139286D01*
X93571428Y-128853571D01*
X93571428Y-128353571D01*
X93642857Y-128067857D01*
X93785714Y-127925000D01*
X93928571Y-127853571D01*
X95214286Y-129353571D02*
X95214286Y-127853571D01*
X95714286Y-128925000D01*
X96214286Y-127853571D01*
X96214286Y-129353571D01*
X96928572Y-129353571D02*
X96928572Y-127853571D01*
X97500000Y-127853571D01*
X97642858Y-127925000D01*
X97714286Y-127996429D01*
X97785715Y-128139286D01*
X97785715Y-128353571D01*
X97714286Y-128496429D01*
X97642858Y-128567857D01*
X97500000Y-128639286D01*
X96928572Y-128639286D01*
X98714286Y-127853571D02*
X99000000Y-127853571D01*
X99142858Y-127925000D01*
X99285715Y-128067857D01*
X99357143Y-128353571D01*
X99357143Y-128853571D01*
X99285715Y-129139286D01*
X99142858Y-129282143D01*
X99000000Y-129353571D01*
X98714286Y-129353571D01*
X98571429Y-129282143D01*
X98428572Y-129139286D01*
X98357143Y-128853571D01*
X98357143Y-128353571D01*
X98428572Y-128067857D01*
X98571429Y-127925000D01*
X98714286Y-127853571D01*
X100000001Y-129353571D02*
X100000001Y-127853571D01*
X100857144Y-129353571D01*
X100857144Y-127853571D01*
X101571430Y-128567857D02*
X102071430Y-128567857D01*
X102285716Y-129353571D02*
X101571430Y-129353571D01*
X101571430Y-127853571D01*
X102285716Y-127853571D01*
X102928573Y-129353571D02*
X102928573Y-127853571D01*
X103785716Y-129353571D01*
X103785716Y-127853571D01*
X104285716Y-127853571D02*
X105142859Y-127853571D01*
X104714288Y-129353571D02*
X104714288Y-127853571D01*
X105571430Y-129282143D02*
X105785716Y-129353571D01*
X106142859Y-129353571D01*
X106285716Y-129282143D01*
X106357145Y-129210714D01*
X106428573Y-129067857D01*
X106428573Y-128925000D01*
X106357145Y-128782143D01*
X106285716Y-128710714D01*
X106142859Y-128639286D01*
X105857145Y-128567857D01*
X105714287Y-128496429D01*
X105642859Y-128425000D01*
X105571430Y-128282143D01*
X105571430Y-128139286D01*
X105642859Y-127996429D01*
X105714287Y-127925000D01*
X105857145Y-127853571D01*
X106214287Y-127853571D01*
X106428573Y-127925000D01*
X108214287Y-129353571D02*
X108214287Y-127853571D01*
X108714287Y-128925000D01*
X109214287Y-127853571D01*
X109214287Y-129353571D01*
X110214287Y-127853571D02*
X110500001Y-127853571D01*
X110642859Y-127925000D01*
X110785716Y-128067857D01*
X110857144Y-128353571D01*
X110857144Y-128853571D01*
X110785716Y-129139286D01*
X110642859Y-129282143D01*
X110500001Y-129353571D01*
X110214287Y-129353571D01*
X110071430Y-129282143D01*
X109928573Y-129139286D01*
X109857144Y-128853571D01*
X109857144Y-128353571D01*
X109928573Y-128067857D01*
X110071430Y-127925000D01*
X110214287Y-127853571D01*
X111500002Y-127853571D02*
X111500002Y-129067857D01*
X111571430Y-129210714D01*
X111642859Y-129282143D01*
X111785716Y-129353571D01*
X112071430Y-129353571D01*
X112214288Y-129282143D01*
X112285716Y-129210714D01*
X112357145Y-129067857D01*
X112357145Y-127853571D01*
X113071431Y-129353571D02*
X113071431Y-127853571D01*
X113928574Y-129353571D01*
X113928574Y-127853571D01*
X114428574Y-127853571D02*
X115285717Y-127853571D01*
X114857146Y-129353571D02*
X114857146Y-127853571D01*
X115785717Y-128567857D02*
X116285717Y-128567857D01*
X116500003Y-129353571D02*
X115785717Y-129353571D01*
X115785717Y-127853571D01*
X116500003Y-127853571D01*
X117142860Y-129353571D02*
X117142860Y-127853571D01*
X117500003Y-127853571D01*
X117714288Y-127925000D01*
X117857146Y-128067857D01*
X117928574Y-128210714D01*
X118000003Y-128496429D01*
X118000003Y-128710714D01*
X117928574Y-128996429D01*
X117857146Y-129139286D01*
X117714288Y-129282143D01*
X117500003Y-129353571D01*
X117142860Y-129353571D01*
X120071431Y-127853571D02*
X120357145Y-127853571D01*
X120500003Y-127925000D01*
X120642860Y-128067857D01*
X120714288Y-128353571D01*
X120714288Y-128853571D01*
X120642860Y-129139286D01*
X120500003Y-129282143D01*
X120357145Y-129353571D01*
X120071431Y-129353571D01*
X119928574Y-129282143D01*
X119785717Y-129139286D01*
X119714288Y-128853571D01*
X119714288Y-128353571D01*
X119785717Y-128067857D01*
X119928574Y-127925000D01*
X120071431Y-127853571D01*
X121357146Y-129353571D02*
X121357146Y-127853571D01*
X122214289Y-129353571D01*
X122214289Y-127853571D01*
X124571432Y-128567857D02*
X124785718Y-128639286D01*
X124857146Y-128710714D01*
X124928575Y-128853571D01*
X124928575Y-129067857D01*
X124857146Y-129210714D01*
X124785718Y-129282143D01*
X124642860Y-129353571D01*
X124071432Y-129353571D01*
X124071432Y-127853571D01*
X124571432Y-127853571D01*
X124714289Y-127925000D01*
X124785718Y-127996429D01*
X124857146Y-128139286D01*
X124857146Y-128282143D01*
X124785718Y-128425000D01*
X124714289Y-128496429D01*
X124571432Y-128567857D01*
X124071432Y-128567857D01*
X125857146Y-127853571D02*
X126142860Y-127853571D01*
X126285718Y-127925000D01*
X126428575Y-128067857D01*
X126500003Y-128353571D01*
X126500003Y-128853571D01*
X126428575Y-129139286D01*
X126285718Y-129282143D01*
X126142860Y-129353571D01*
X125857146Y-129353571D01*
X125714289Y-129282143D01*
X125571432Y-129139286D01*
X125500003Y-128853571D01*
X125500003Y-128353571D01*
X125571432Y-128067857D01*
X125714289Y-127925000D01*
X125857146Y-127853571D01*
X126928575Y-127853571D02*
X127785718Y-127853571D01*
X127357147Y-129353571D02*
X127357147Y-127853571D01*
X128285718Y-129353571D02*
X128285718Y-127853571D01*
X128285718Y-128567857D02*
X129142861Y-128567857D01*
X129142861Y-129353571D02*
X129142861Y-127853571D01*
X130928575Y-129282143D02*
X131142861Y-129353571D01*
X131500004Y-129353571D01*
X131642861Y-129282143D01*
X131714290Y-129210714D01*
X131785718Y-129067857D01*
X131785718Y-128925000D01*
X131714290Y-128782143D01*
X131642861Y-128710714D01*
X131500004Y-128639286D01*
X131214290Y-128567857D01*
X131071432Y-128496429D01*
X131000004Y-128425000D01*
X130928575Y-128282143D01*
X130928575Y-128139286D01*
X131000004Y-127996429D01*
X131071432Y-127925000D01*
X131214290Y-127853571D01*
X131571432Y-127853571D01*
X131785718Y-127925000D01*
X132428575Y-129353571D02*
X132428575Y-127853571D01*
X133142861Y-129353571D02*
X133142861Y-127853571D01*
X133500004Y-127853571D01*
X133714289Y-127925000D01*
X133857147Y-128067857D01*
X133928575Y-128210714D01*
X134000004Y-128496429D01*
X134000004Y-128710714D01*
X133928575Y-128996429D01*
X133857147Y-129139286D01*
X133714289Y-129282143D01*
X133500004Y-129353571D01*
X133142861Y-129353571D01*
X134642861Y-128567857D02*
X135142861Y-128567857D01*
X135357147Y-129353571D02*
X134642861Y-129353571D01*
X134642861Y-127853571D01*
X135357147Y-127853571D01*
X135928575Y-129282143D02*
X136142861Y-129353571D01*
X136500004Y-129353571D01*
X136642861Y-129282143D01*
X136714290Y-129210714D01*
X136785718Y-129067857D01*
X136785718Y-128925000D01*
X136714290Y-128782143D01*
X136642861Y-128710714D01*
X136500004Y-128639286D01*
X136214290Y-128567857D01*
X136071432Y-128496429D01*
X136000004Y-128425000D01*
X135928575Y-128282143D01*
X135928575Y-128139286D01*
X136000004Y-127996429D01*
X136071432Y-127925000D01*
X136214290Y-127853571D01*
X136571432Y-127853571D01*
X136785718Y-127925000D01*
X139000003Y-129925000D02*
X138928575Y-129853571D01*
X138785718Y-129639286D01*
X138714289Y-129496429D01*
X138642860Y-129282143D01*
X138571432Y-128925000D01*
X138571432Y-128639286D01*
X138642860Y-128282143D01*
X138714289Y-128067857D01*
X138785718Y-127925000D01*
X138928575Y-127710714D01*
X139000003Y-127639286D01*
X140071432Y-128567857D02*
X139571432Y-128567857D01*
X139571432Y-129353571D02*
X139571432Y-127853571D01*
X140285718Y-127853571D01*
X141142860Y-127853571D02*
X141428574Y-127853571D01*
X141571432Y-127925000D01*
X141714289Y-128067857D01*
X141785717Y-128353571D01*
X141785717Y-128853571D01*
X141714289Y-129139286D01*
X141571432Y-129282143D01*
X141428574Y-129353571D01*
X141142860Y-129353571D01*
X141000003Y-129282143D01*
X140857146Y-129139286D01*
X140785717Y-128853571D01*
X140785717Y-128353571D01*
X140857146Y-128067857D01*
X141000003Y-127925000D01*
X141142860Y-127853571D01*
X142428575Y-127853571D02*
X142428575Y-129067857D01*
X142500003Y-129210714D01*
X142571432Y-129282143D01*
X142714289Y-129353571D01*
X143000003Y-129353571D01*
X143142861Y-129282143D01*
X143214289Y-129210714D01*
X143285718Y-129067857D01*
X143285718Y-127853571D01*
X144857147Y-129353571D02*
X144357147Y-128639286D01*
X144000004Y-129353571D02*
X144000004Y-127853571D01*
X144571432Y-127853571D01*
X144714290Y-127925000D01*
X144785718Y-127996429D01*
X144857147Y-128139286D01*
X144857147Y-128353571D01*
X144785718Y-128496429D01*
X144714290Y-128567857D01*
X144571432Y-128639286D01*
X144000004Y-128639286D01*
X147357147Y-129353571D02*
X146642861Y-129353571D01*
X146642861Y-127853571D01*
X147857147Y-128567857D02*
X148357147Y-128567857D01*
X148571433Y-129353571D02*
X147857147Y-129353571D01*
X147857147Y-127853571D01*
X148571433Y-127853571D01*
X149214290Y-129353571D02*
X149214290Y-127853571D01*
X149571433Y-127853571D01*
X149785718Y-127925000D01*
X149928576Y-128067857D01*
X150000004Y-128210714D01*
X150071433Y-128496429D01*
X150071433Y-128710714D01*
X150000004Y-128996429D01*
X149928576Y-129139286D01*
X149785718Y-129282143D01*
X149571433Y-129353571D01*
X149214290Y-129353571D01*
X150642861Y-129282143D02*
X150857147Y-129353571D01*
X151214290Y-129353571D01*
X151357147Y-129282143D01*
X151428576Y-129210714D01*
X151500004Y-129067857D01*
X151500004Y-128925000D01*
X151428576Y-128782143D01*
X151357147Y-128710714D01*
X151214290Y-128639286D01*
X150928576Y-128567857D01*
X150785718Y-128496429D01*
X150714290Y-128425000D01*
X150642861Y-128282143D01*
X150642861Y-128139286D01*
X150714290Y-127996429D01*
X150785718Y-127925000D01*
X150928576Y-127853571D01*
X151285718Y-127853571D01*
X151500004Y-127925000D01*
X153571432Y-127853571D02*
X153857146Y-127853571D01*
X154000004Y-127925000D01*
X154142861Y-128067857D01*
X154214289Y-128353571D01*
X154214289Y-128853571D01*
X154142861Y-129139286D01*
X154000004Y-129282143D01*
X153857146Y-129353571D01*
X153571432Y-129353571D01*
X153428575Y-129282143D01*
X153285718Y-129139286D01*
X153214289Y-128853571D01*
X153214289Y-128353571D01*
X153285718Y-128067857D01*
X153428575Y-127925000D01*
X153571432Y-127853571D01*
X154857147Y-129353571D02*
X154857147Y-127853571D01*
X155714290Y-129353571D01*
X155714290Y-127853571D01*
X158071433Y-128567857D02*
X157571433Y-128567857D01*
X157571433Y-129353571D02*
X157571433Y-127853571D01*
X158285719Y-127853571D01*
X159714290Y-129353571D02*
X159214290Y-128639286D01*
X158857147Y-129353571D02*
X158857147Y-127853571D01*
X159428575Y-127853571D01*
X159571433Y-127925000D01*
X159642861Y-127996429D01*
X159714290Y-128139286D01*
X159714290Y-128353571D01*
X159642861Y-128496429D01*
X159571433Y-128567857D01*
X159428575Y-128639286D01*
X158857147Y-128639286D01*
X160642861Y-127853571D02*
X160928575Y-127853571D01*
X161071433Y-127925000D01*
X161214290Y-128067857D01*
X161285718Y-128353571D01*
X161285718Y-128853571D01*
X161214290Y-129139286D01*
X161071433Y-129282143D01*
X160928575Y-129353571D01*
X160642861Y-129353571D01*
X160500004Y-129282143D01*
X160357147Y-129139286D01*
X160285718Y-128853571D01*
X160285718Y-128353571D01*
X160357147Y-128067857D01*
X160500004Y-127925000D01*
X160642861Y-127853571D01*
X161928576Y-129353571D02*
X161928576Y-127853571D01*
X162785719Y-129353571D01*
X162785719Y-127853571D01*
X163285719Y-127853571D02*
X164142862Y-127853571D01*
X163714291Y-129353571D02*
X163714291Y-127853571D01*
X164714290Y-129282143D02*
X164714290Y-129353571D01*
X164642862Y-129496429D01*
X164571433Y-129567857D01*
X166428576Y-128925000D02*
X167142862Y-128925000D01*
X166285719Y-129353571D02*
X166785719Y-127853571D01*
X167285719Y-129353571D01*
X168500005Y-129353571D02*
X167785719Y-129353571D01*
X167785719Y-127853571D01*
X169714291Y-129353571D02*
X169000005Y-129353571D01*
X169000005Y-127853571D01*
X171642862Y-127853571D02*
X171928576Y-127853571D01*
X172071434Y-127925000D01*
X172214291Y-128067857D01*
X172285719Y-128353571D01*
X172285719Y-128853571D01*
X172214291Y-129139286D01*
X172071434Y-129282143D01*
X171928576Y-129353571D01*
X171642862Y-129353571D01*
X171500005Y-129282143D01*
X171357148Y-129139286D01*
X171285719Y-128853571D01*
X171285719Y-128353571D01*
X171357148Y-128067857D01*
X171500005Y-127925000D01*
X171642862Y-127853571D01*
X172714291Y-127853571D02*
X173571434Y-127853571D01*
X173142863Y-129353571D02*
X173142863Y-127853571D01*
X174071434Y-129353571D02*
X174071434Y-127853571D01*
X174071434Y-128567857D02*
X174928577Y-128567857D01*
X174928577Y-129353571D02*
X174928577Y-127853571D01*
X175642863Y-128567857D02*
X176142863Y-128567857D01*
X176357149Y-129353571D02*
X175642863Y-129353571D01*
X175642863Y-127853571D01*
X176357149Y-127853571D01*
X177857149Y-129353571D02*
X177357149Y-128639286D01*
X177000006Y-129353571D02*
X177000006Y-127853571D01*
X177571434Y-127853571D01*
X177714292Y-127925000D01*
X177785720Y-127996429D01*
X177857149Y-128139286D01*
X177857149Y-128353571D01*
X177785720Y-128496429D01*
X177714292Y-128567857D01*
X177571434Y-128639286D01*
X177000006Y-128639286D01*
X178428577Y-129282143D02*
X178642863Y-129353571D01*
X179000006Y-129353571D01*
X179142863Y-129282143D01*
X179214292Y-129210714D01*
X179285720Y-129067857D01*
X179285720Y-128925000D01*
X179214292Y-128782143D01*
X179142863Y-128710714D01*
X179000006Y-128639286D01*
X178714292Y-128567857D01*
X178571434Y-128496429D01*
X178500006Y-128425000D01*
X178428577Y-128282143D01*
X178428577Y-128139286D01*
X178500006Y-127996429D01*
X178571434Y-127925000D01*
X178714292Y-127853571D01*
X179071434Y-127853571D01*
X179285720Y-127925000D01*
X181357148Y-127853571D02*
X181642862Y-127853571D01*
X181785720Y-127925000D01*
X181928577Y-128067857D01*
X182000005Y-128353571D01*
X182000005Y-128853571D01*
X181928577Y-129139286D01*
X181785720Y-129282143D01*
X181642862Y-129353571D01*
X181357148Y-129353571D01*
X181214291Y-129282143D01*
X181071434Y-129139286D01*
X181000005Y-128853571D01*
X181000005Y-128353571D01*
X181071434Y-128067857D01*
X181214291Y-127925000D01*
X181357148Y-127853571D01*
X182642863Y-129353571D02*
X182642863Y-127853571D01*
X183500006Y-129353571D01*
X183500006Y-127853571D01*
X185857149Y-128567857D02*
X186071435Y-128639286D01*
X186142863Y-128710714D01*
X186214292Y-128853571D01*
X186214292Y-129067857D01*
X186142863Y-129210714D01*
X186071435Y-129282143D01*
X185928577Y-129353571D01*
X185357149Y-129353571D01*
X185357149Y-127853571D01*
X185857149Y-127853571D01*
X186000006Y-127925000D01*
X186071435Y-127996429D01*
X186142863Y-128139286D01*
X186142863Y-128282143D01*
X186071435Y-128425000D01*
X186000006Y-128496429D01*
X185857149Y-128567857D01*
X185357149Y-128567857D01*
X186785720Y-128925000D02*
X187500006Y-128925000D01*
X186642863Y-129353571D02*
X187142863Y-127853571D01*
X187642863Y-129353571D01*
X189000006Y-129210714D02*
X188928577Y-129282143D01*
X188714291Y-129353571D01*
X188571434Y-129353571D01*
X188357149Y-129282143D01*
X188214291Y-129139286D01*
X188142863Y-128996429D01*
X188071434Y-128710714D01*
X188071434Y-128496429D01*
X188142863Y-128210714D01*
X188214291Y-128067857D01*
X188357149Y-127925000D01*
X188571434Y-127853571D01*
X188714291Y-127853571D01*
X188928577Y-127925000D01*
X189000006Y-127996429D01*
X189642863Y-129353571D02*
X189642863Y-127853571D01*
X190500006Y-129353571D02*
X189857149Y-128496429D01*
X190500006Y-127853571D02*
X189642863Y-128710714D01*
X191000006Y-129925000D02*
X191071434Y-129853571D01*
X191214291Y-129639286D01*
X191285720Y-129496429D01*
X191357149Y-129282143D01*
X191428577Y-128925000D01*
X191428577Y-128639286D01*
X191357149Y-128282143D01*
X191285720Y-128067857D01*
X191214291Y-127925000D01*
X191071434Y-127710714D01*
X191000006Y-127639286D01*
X89500000Y-130903571D02*
X89500000Y-131903571D01*
X89142857Y-130332143D02*
X88785714Y-131403571D01*
X89714286Y-131403571D01*
X90285714Y-131760714D02*
X90357142Y-131832143D01*
X90285714Y-131903571D01*
X90214285Y-131832143D01*
X90285714Y-131760714D01*
X90285714Y-131903571D01*
X92142857Y-131903571D02*
X92142857Y-130403571D01*
X92714285Y-130403571D01*
X92857143Y-130475000D01*
X92928571Y-130546429D01*
X93000000Y-130689286D01*
X93000000Y-130903571D01*
X92928571Y-131046429D01*
X92857143Y-131117857D01*
X92714285Y-131189286D01*
X92142857Y-131189286D01*
X94500000Y-131760714D02*
X94428571Y-131832143D01*
X94214285Y-131903571D01*
X94071428Y-131903571D01*
X93857143Y-131832143D01*
X93714285Y-131689286D01*
X93642857Y-131546429D01*
X93571428Y-131260714D01*
X93571428Y-131046429D01*
X93642857Y-130760714D01*
X93714285Y-130617857D01*
X93857143Y-130475000D01*
X94071428Y-130403571D01*
X94214285Y-130403571D01*
X94428571Y-130475000D01*
X94500000Y-130546429D01*
X95642857Y-131117857D02*
X95857143Y-131189286D01*
X95928571Y-131260714D01*
X96000000Y-131403571D01*
X96000000Y-131617857D01*
X95928571Y-131760714D01*
X95857143Y-131832143D01*
X95714285Y-131903571D01*
X95142857Y-131903571D01*
X95142857Y-130403571D01*
X95642857Y-130403571D01*
X95785714Y-130475000D01*
X95857143Y-130546429D01*
X95928571Y-130689286D01*
X95928571Y-130832143D01*
X95857143Y-130975000D01*
X95785714Y-131046429D01*
X95642857Y-131117857D01*
X95142857Y-131117857D01*
X97785714Y-131903571D02*
X97785714Y-130403571D01*
X98428571Y-131832143D02*
X98642857Y-131903571D01*
X99000000Y-131903571D01*
X99142857Y-131832143D01*
X99214286Y-131760714D01*
X99285714Y-131617857D01*
X99285714Y-131475000D01*
X99214286Y-131332143D01*
X99142857Y-131260714D01*
X99000000Y-131189286D01*
X98714286Y-131117857D01*
X98571428Y-131046429D01*
X98500000Y-130975000D01*
X98428571Y-130832143D01*
X98428571Y-130689286D01*
X98500000Y-130546429D01*
X98571428Y-130475000D01*
X98714286Y-130403571D01*
X99071428Y-130403571D01*
X99285714Y-130475000D01*
X101857142Y-131903571D02*
X100999999Y-131903571D01*
X101428571Y-131903571D02*
X101428571Y-130403571D01*
X101285714Y-130617857D01*
X101142856Y-130760714D01*
X100999999Y-130832143D01*
X102499999Y-131760714D02*
X102571427Y-131832143D01*
X102499999Y-131903571D01*
X102428570Y-131832143D01*
X102499999Y-131760714D01*
X102499999Y-131903571D01*
X103857142Y-130403571D02*
X103571428Y-130403571D01*
X103428571Y-130475000D01*
X103357142Y-130546429D01*
X103214285Y-130760714D01*
X103142856Y-131046429D01*
X103142856Y-131617857D01*
X103214285Y-131760714D01*
X103285713Y-131832143D01*
X103428571Y-131903571D01*
X103714285Y-131903571D01*
X103857142Y-131832143D01*
X103928571Y-131760714D01*
X103999999Y-131617857D01*
X103999999Y-131260714D01*
X103928571Y-131117857D01*
X103857142Y-131046429D01*
X103714285Y-130975000D01*
X103428571Y-130975000D01*
X103285713Y-131046429D01*
X103214285Y-131117857D01*
X103142856Y-131260714D01*
X104642856Y-131903571D02*
X104642856Y-130903571D01*
X104642856Y-131046429D02*
X104714284Y-130975000D01*
X104857142Y-130903571D01*
X105071427Y-130903571D01*
X105214284Y-130975000D01*
X105285713Y-131117857D01*
X105285713Y-131903571D01*
X105285713Y-131117857D02*
X105357142Y-130975000D01*
X105499999Y-130903571D01*
X105714284Y-130903571D01*
X105857142Y-130975000D01*
X105928570Y-131117857D01*
X105928570Y-131903571D01*
X106642856Y-131903571D02*
X106642856Y-130903571D01*
X106642856Y-131046429D02*
X106714284Y-130975000D01*
X106857142Y-130903571D01*
X107071427Y-130903571D01*
X107214284Y-130975000D01*
X107285713Y-131117857D01*
X107285713Y-131903571D01*
X107285713Y-131117857D02*
X107357142Y-130975000D01*
X107499999Y-130903571D01*
X107714284Y-130903571D01*
X107857142Y-130975000D01*
X107928570Y-131117857D01*
X107928570Y-131903571D01*
X110285713Y-131117857D02*
X109785713Y-131117857D01*
X109785713Y-131903571D02*
X109785713Y-130403571D01*
X110499999Y-130403571D01*
X111928570Y-131903571D02*
X111428570Y-131189286D01*
X111071427Y-131903571D02*
X111071427Y-130403571D01*
X111642855Y-130403571D01*
X111785713Y-130475000D01*
X111857141Y-130546429D01*
X111928570Y-130689286D01*
X111928570Y-130903571D01*
X111857141Y-131046429D01*
X111785713Y-131117857D01*
X111642855Y-131189286D01*
X111071427Y-131189286D01*
X113214284Y-130903571D02*
X113214284Y-131903571D01*
X112857141Y-130332143D02*
X112499998Y-131403571D01*
X113428570Y-131403571D01*
X115999998Y-131903571D02*
X115499998Y-131189286D01*
X115142855Y-131903571D02*
X115142855Y-130403571D01*
X115714283Y-130403571D01*
X115857141Y-130475000D01*
X115928569Y-130546429D01*
X115999998Y-130689286D01*
X115999998Y-130903571D01*
X115928569Y-131046429D01*
X115857141Y-131117857D01*
X115714283Y-131189286D01*
X115142855Y-131189286D01*
X116571426Y-131475000D02*
X117285712Y-131475000D01*
X116428569Y-131903571D02*
X116928569Y-130403571D01*
X117428569Y-131903571D01*
X117714283Y-130403571D02*
X118571426Y-130403571D01*
X118142855Y-131903571D02*
X118142855Y-130403571D01*
X119071426Y-131117857D02*
X119571426Y-131117857D01*
X119785712Y-131903571D02*
X119071426Y-131903571D01*
X119071426Y-130403571D01*
X119785712Y-130403571D01*
X120428569Y-131903571D02*
X120428569Y-130403571D01*
X120785712Y-130403571D01*
X120999997Y-130475000D01*
X121142855Y-130617857D01*
X121214283Y-130760714D01*
X121285712Y-131046429D01*
X121285712Y-131260714D01*
X121214283Y-131546429D01*
X121142855Y-131689286D01*
X120999997Y-131832143D01*
X120785712Y-131903571D01*
X120428569Y-131903571D01*
X123571426Y-131117857D02*
X123071426Y-131117857D01*
X123071426Y-131903571D02*
X123071426Y-130403571D01*
X123785712Y-130403571D01*
X124642854Y-130403571D02*
X124928568Y-130403571D01*
X125071426Y-130475000D01*
X125214283Y-130617857D01*
X125285711Y-130903571D01*
X125285711Y-131403571D01*
X125214283Y-131689286D01*
X125071426Y-131832143D01*
X124928568Y-131903571D01*
X124642854Y-131903571D01*
X124499997Y-131832143D01*
X124357140Y-131689286D01*
X124285711Y-131403571D01*
X124285711Y-130903571D01*
X124357140Y-130617857D01*
X124499997Y-130475000D01*
X124642854Y-130403571D01*
X126785712Y-131903571D02*
X126285712Y-131189286D01*
X125928569Y-131903571D02*
X125928569Y-130403571D01*
X126499997Y-130403571D01*
X126642855Y-130475000D01*
X126714283Y-130546429D01*
X126785712Y-130689286D01*
X126785712Y-130903571D01*
X126714283Y-131046429D01*
X126642855Y-131117857D01*
X126499997Y-131189286D01*
X125928569Y-131189286D01*
X129428569Y-131903571D02*
X128928569Y-131189286D01*
X128571426Y-131903571D02*
X128571426Y-130403571D01*
X129142854Y-130403571D01*
X129285712Y-130475000D01*
X129357140Y-130546429D01*
X129428569Y-130689286D01*
X129428569Y-130903571D01*
X129357140Y-131046429D01*
X129285712Y-131117857D01*
X129142854Y-131189286D01*
X128571426Y-131189286D01*
X130357140Y-130403571D02*
X130642854Y-130403571D01*
X130785712Y-130475000D01*
X130928569Y-130617857D01*
X130999997Y-130903571D01*
X130999997Y-131403571D01*
X130928569Y-131689286D01*
X130785712Y-131832143D01*
X130642854Y-131903571D01*
X130357140Y-131903571D01*
X130214283Y-131832143D01*
X130071426Y-131689286D01*
X129999997Y-131403571D01*
X129999997Y-130903571D01*
X130071426Y-130617857D01*
X130214283Y-130475000D01*
X130357140Y-130403571D01*
X131642855Y-131903571D02*
X131642855Y-130403571D01*
X131642855Y-131117857D02*
X132499998Y-131117857D01*
X132499998Y-131903571D02*
X132499998Y-130403571D01*
X133142855Y-131832143D02*
X133357141Y-131903571D01*
X133714284Y-131903571D01*
X133857141Y-131832143D01*
X133928570Y-131760714D01*
X133999998Y-131617857D01*
X133999998Y-131475000D01*
X133928570Y-131332143D01*
X133857141Y-131260714D01*
X133714284Y-131189286D01*
X133428570Y-131117857D01*
X133285712Y-131046429D01*
X133214284Y-130975000D01*
X133142855Y-130832143D01*
X133142855Y-130689286D01*
X133214284Y-130546429D01*
X133285712Y-130475000D01*
X133428570Y-130403571D01*
X133785712Y-130403571D01*
X133999998Y-130475000D01*
X136642855Y-131903571D02*
X136142855Y-131189286D01*
X135785712Y-131903571D02*
X135785712Y-130403571D01*
X136357140Y-130403571D01*
X136499998Y-130475000D01*
X136571426Y-130546429D01*
X136642855Y-130689286D01*
X136642855Y-130903571D01*
X136571426Y-131046429D01*
X136499998Y-131117857D01*
X136357140Y-131189286D01*
X135785712Y-131189286D01*
X137285712Y-131117857D02*
X137785712Y-131117857D01*
X137999998Y-131903571D02*
X137285712Y-131903571D01*
X137285712Y-130403571D01*
X137999998Y-130403571D01*
X139142855Y-131117857D02*
X138642855Y-131117857D01*
X138642855Y-131903571D02*
X138642855Y-130403571D01*
X139357141Y-130403571D01*
X140642855Y-131903571D02*
X139928569Y-131903571D01*
X139928569Y-130403571D01*
X141428569Y-130403571D02*
X141714283Y-130403571D01*
X141857141Y-130475000D01*
X141999998Y-130617857D01*
X142071426Y-130903571D01*
X142071426Y-131403571D01*
X141999998Y-131689286D01*
X141857141Y-131832143D01*
X141714283Y-131903571D01*
X141428569Y-131903571D01*
X141285712Y-131832143D01*
X141142855Y-131689286D01*
X141071426Y-131403571D01*
X141071426Y-130903571D01*
X141142855Y-130617857D01*
X141285712Y-130475000D01*
X141428569Y-130403571D01*
X142571427Y-130403571D02*
X142928570Y-131903571D01*
X143214284Y-130832143D01*
X143499998Y-131903571D01*
X143857141Y-130403571D01*
X144499998Y-131832143D02*
X144499998Y-131903571D01*
X144428570Y-132046429D01*
X144357141Y-132117857D01*
X147071427Y-131903571D02*
X146214284Y-131903571D01*
X146642856Y-131903571D02*
X146642856Y-130403571D01*
X146499999Y-130617857D01*
X146357141Y-130760714D01*
X146214284Y-130832143D01*
X147999998Y-130403571D02*
X148285712Y-130403571D01*
X148428570Y-130475000D01*
X148571427Y-130617857D01*
X148642855Y-130903571D01*
X148642855Y-131403571D01*
X148571427Y-131689286D01*
X148428570Y-131832143D01*
X148285712Y-131903571D01*
X147999998Y-131903571D01*
X147857141Y-131832143D01*
X147714284Y-131689286D01*
X147642855Y-131403571D01*
X147642855Y-130903571D01*
X147714284Y-130617857D01*
X147857141Y-130475000D01*
X147999998Y-130403571D01*
X149142856Y-130403571D02*
X150142856Y-130403571D01*
X149142856Y-131903571D01*
X150142856Y-131903571D01*
X152714284Y-131760714D02*
X152642855Y-131832143D01*
X152428569Y-131903571D01*
X152285712Y-131903571D01*
X152071427Y-131832143D01*
X151928569Y-131689286D01*
X151857141Y-131546429D01*
X151785712Y-131260714D01*
X151785712Y-131046429D01*
X151857141Y-130760714D01*
X151928569Y-130617857D01*
X152071427Y-130475000D01*
X152285712Y-130403571D01*
X152428569Y-130403571D01*
X152642855Y-130475000D01*
X152714284Y-130546429D01*
X153642855Y-130403571D02*
X153928569Y-130403571D01*
X154071427Y-130475000D01*
X154214284Y-130617857D01*
X154285712Y-130903571D01*
X154285712Y-131403571D01*
X154214284Y-131689286D01*
X154071427Y-131832143D01*
X153928569Y-131903571D01*
X153642855Y-131903571D01*
X153499998Y-131832143D01*
X153357141Y-131689286D01*
X153285712Y-131403571D01*
X153285712Y-130903571D01*
X153357141Y-130617857D01*
X153499998Y-130475000D01*
X153642855Y-130403571D01*
X154928570Y-131903571D02*
X154928570Y-130403571D01*
X155499998Y-130403571D01*
X155642856Y-130475000D01*
X155714284Y-130546429D01*
X155785713Y-130689286D01*
X155785713Y-130903571D01*
X155714284Y-131046429D01*
X155642856Y-131117857D01*
X155499998Y-131189286D01*
X154928570Y-131189286D01*
X156428570Y-131903571D02*
X156428570Y-130403571D01*
X156999998Y-130403571D01*
X157142856Y-130475000D01*
X157214284Y-130546429D01*
X157285713Y-130689286D01*
X157285713Y-130903571D01*
X157214284Y-131046429D01*
X157142856Y-131117857D01*
X156999998Y-131189286D01*
X156428570Y-131189286D01*
X157928570Y-131117857D02*
X158428570Y-131117857D01*
X158642856Y-131903571D02*
X157928570Y-131903571D01*
X157928570Y-130403571D01*
X158642856Y-130403571D01*
X160142856Y-131903571D02*
X159642856Y-131189286D01*
X159285713Y-131903571D02*
X159285713Y-130403571D01*
X159857141Y-130403571D01*
X159999999Y-130475000D01*
X160071427Y-130546429D01*
X160142856Y-130689286D01*
X160142856Y-130903571D01*
X160071427Y-131046429D01*
X159999999Y-131117857D01*
X159857141Y-131189286D01*
X159285713Y-131189286D01*
X160857141Y-131832143D02*
X160857141Y-131903571D01*
X160785713Y-132046429D01*
X160714284Y-132117857D01*
X162642856Y-131117857D02*
X163142856Y-131117857D01*
X163357142Y-131903571D02*
X162642856Y-131903571D01*
X162642856Y-130403571D01*
X163357142Y-130403571D01*
X163999999Y-131903571D02*
X163999999Y-130403571D01*
X164857142Y-131903571D01*
X164857142Y-130403571D01*
X165571428Y-131903571D02*
X165571428Y-130403571D01*
X167071428Y-130475000D02*
X166928571Y-130403571D01*
X166714285Y-130403571D01*
X166500000Y-130475000D01*
X166357142Y-130617857D01*
X166285714Y-130760714D01*
X166214285Y-131046429D01*
X166214285Y-131260714D01*
X166285714Y-131546429D01*
X166357142Y-131689286D01*
X166500000Y-131832143D01*
X166714285Y-131903571D01*
X166857142Y-131903571D01*
X167071428Y-131832143D01*
X167142857Y-131760714D01*
X167142857Y-131260714D01*
X166857142Y-131260714D01*
X169428571Y-131117857D02*
X168928571Y-131117857D01*
X168928571Y-131903571D02*
X168928571Y-130403571D01*
X169642857Y-130403571D01*
X170214285Y-131903571D02*
X170214285Y-130403571D01*
X170928571Y-131903571D02*
X170928571Y-130403571D01*
X171785714Y-131903571D01*
X171785714Y-130403571D01*
X172500000Y-131903571D02*
X172500000Y-130403571D01*
X173142857Y-131832143D02*
X173357143Y-131903571D01*
X173714286Y-131903571D01*
X173857143Y-131832143D01*
X173928572Y-131760714D01*
X174000000Y-131617857D01*
X174000000Y-131475000D01*
X173928572Y-131332143D01*
X173857143Y-131260714D01*
X173714286Y-131189286D01*
X173428572Y-131117857D01*
X173285714Y-131046429D01*
X173214286Y-130975000D01*
X173142857Y-130832143D01*
X173142857Y-130689286D01*
X173214286Y-130546429D01*
X173285714Y-130475000D01*
X173428572Y-130403571D01*
X173785714Y-130403571D01*
X174000000Y-130475000D01*
X174642857Y-131903571D02*
X174642857Y-130403571D01*
X174642857Y-131117857D02*
X175500000Y-131117857D01*
X175500000Y-131903571D02*
X175500000Y-130403571D01*
X89571429Y-132953571D02*
X88857143Y-132953571D01*
X88785714Y-133667857D01*
X88857143Y-133596429D01*
X89000000Y-133525000D01*
X89357143Y-133525000D01*
X89500000Y-133596429D01*
X89571429Y-133667857D01*
X89642857Y-133810714D01*
X89642857Y-134167857D01*
X89571429Y-134310714D01*
X89500000Y-134382143D01*
X89357143Y-134453571D01*
X89000000Y-134453571D01*
X88857143Y-134382143D01*
X88785714Y-134310714D01*
X90285714Y-134310714D02*
X90357142Y-134382143D01*
X90285714Y-134453571D01*
X90214285Y-134382143D01*
X90285714Y-134310714D01*
X90285714Y-134453571D01*
X92142857Y-134453571D02*
X92142857Y-132953571D01*
X92642857Y-134025000D01*
X93142857Y-132953571D01*
X93142857Y-134453571D01*
X93785714Y-134025000D02*
X94500000Y-134025000D01*
X93642857Y-134453571D02*
X94142857Y-132953571D01*
X94642857Y-134453571D01*
X94928571Y-132953571D02*
X95785714Y-132953571D01*
X95357143Y-134453571D02*
X95357143Y-132953571D01*
X96071428Y-132953571D02*
X96928571Y-132953571D01*
X96500000Y-134453571D02*
X96500000Y-132953571D01*
X97428571Y-133667857D02*
X97928571Y-133667857D01*
X98142857Y-134453571D02*
X97428571Y-134453571D01*
X97428571Y-132953571D01*
X98142857Y-132953571D01*
X100428571Y-133667857D02*
X100642857Y-133739286D01*
X100714285Y-133810714D01*
X100785714Y-133953571D01*
X100785714Y-134167857D01*
X100714285Y-134310714D01*
X100642857Y-134382143D01*
X100499999Y-134453571D01*
X99928571Y-134453571D01*
X99928571Y-132953571D01*
X100428571Y-132953571D01*
X100571428Y-133025000D01*
X100642857Y-133096429D01*
X100714285Y-133239286D01*
X100714285Y-133382143D01*
X100642857Y-133525000D01*
X100571428Y-133596429D01*
X100428571Y-133667857D01*
X99928571Y-133667857D01*
X102142857Y-134453571D02*
X101428571Y-134453571D01*
X101428571Y-132953571D01*
X102571428Y-134025000D02*
X103285714Y-134025000D01*
X102428571Y-134453571D02*
X102928571Y-132953571D01*
X103428571Y-134453571D01*
X104785714Y-134310714D02*
X104714285Y-134382143D01*
X104499999Y-134453571D01*
X104357142Y-134453571D01*
X104142857Y-134382143D01*
X103999999Y-134239286D01*
X103928571Y-134096429D01*
X103857142Y-133810714D01*
X103857142Y-133596429D01*
X103928571Y-133310714D01*
X103999999Y-133167857D01*
X104142857Y-133025000D01*
X104357142Y-132953571D01*
X104499999Y-132953571D01*
X104714285Y-133025000D01*
X104785714Y-133096429D01*
X105428571Y-134453571D02*
X105428571Y-132953571D01*
X106285714Y-134453571D02*
X105642857Y-133596429D01*
X106285714Y-132953571D02*
X105428571Y-133810714D01*
X107999999Y-134382143D02*
X108214285Y-134453571D01*
X108571428Y-134453571D01*
X108714285Y-134382143D01*
X108785714Y-134310714D01*
X108857142Y-134167857D01*
X108857142Y-134025000D01*
X108785714Y-133882143D01*
X108714285Y-133810714D01*
X108571428Y-133739286D01*
X108285714Y-133667857D01*
X108142856Y-133596429D01*
X108071428Y-133525000D01*
X107999999Y-133382143D01*
X107999999Y-133239286D01*
X108071428Y-133096429D01*
X108142856Y-133025000D01*
X108285714Y-132953571D01*
X108642856Y-132953571D01*
X108857142Y-133025000D01*
X109785713Y-132953571D02*
X110071427Y-132953571D01*
X110214285Y-133025000D01*
X110357142Y-133167857D01*
X110428570Y-133453571D01*
X110428570Y-133953571D01*
X110357142Y-134239286D01*
X110214285Y-134382143D01*
X110071427Y-134453571D01*
X109785713Y-134453571D01*
X109642856Y-134382143D01*
X109499999Y-134239286D01*
X109428570Y-133953571D01*
X109428570Y-133453571D01*
X109499999Y-133167857D01*
X109642856Y-133025000D01*
X109785713Y-132953571D01*
X111785714Y-134453571D02*
X111071428Y-134453571D01*
X111071428Y-132953571D01*
X112285714Y-134453571D02*
X112285714Y-132953571D01*
X112642857Y-132953571D01*
X112857142Y-133025000D01*
X113000000Y-133167857D01*
X113071428Y-133310714D01*
X113142857Y-133596429D01*
X113142857Y-133810714D01*
X113071428Y-134096429D01*
X113000000Y-134239286D01*
X112857142Y-134382143D01*
X112642857Y-134453571D01*
X112285714Y-134453571D01*
X113785714Y-133667857D02*
X114285714Y-133667857D01*
X114500000Y-134453571D02*
X113785714Y-134453571D01*
X113785714Y-132953571D01*
X114500000Y-132953571D01*
X116000000Y-134453571D02*
X115500000Y-133739286D01*
X115142857Y-134453571D02*
X115142857Y-132953571D01*
X115714285Y-132953571D01*
X115857143Y-133025000D01*
X115928571Y-133096429D01*
X116000000Y-133239286D01*
X116000000Y-133453571D01*
X115928571Y-133596429D01*
X115857143Y-133667857D01*
X115714285Y-133739286D01*
X115142857Y-133739286D01*
X117785714Y-134453571D02*
X117785714Y-132953571D01*
X118285714Y-134025000D01*
X118785714Y-132953571D01*
X118785714Y-134453571D01*
X119428571Y-134025000D02*
X120142857Y-134025000D01*
X119285714Y-134453571D02*
X119785714Y-132953571D01*
X120285714Y-134453571D01*
X120714285Y-134382143D02*
X120928571Y-134453571D01*
X121285714Y-134453571D01*
X121428571Y-134382143D01*
X121500000Y-134310714D01*
X121571428Y-134167857D01*
X121571428Y-134025000D01*
X121500000Y-133882143D01*
X121428571Y-133810714D01*
X121285714Y-133739286D01*
X121000000Y-133667857D01*
X120857142Y-133596429D01*
X120785714Y-133525000D01*
X120714285Y-133382143D01*
X120714285Y-133239286D01*
X120785714Y-133096429D01*
X120857142Y-133025000D01*
X121000000Y-132953571D01*
X121357142Y-132953571D01*
X121571428Y-133025000D01*
X122214285Y-134453571D02*
X122214285Y-132953571D01*
X123071428Y-134453571D02*
X122428571Y-133596429D01*
X123071428Y-132953571D02*
X122214285Y-133810714D01*
X124714285Y-132953571D02*
X125071428Y-134453571D01*
X125357142Y-133382143D01*
X125642856Y-134453571D01*
X125999999Y-132953571D01*
X126571428Y-134453571D02*
X126571428Y-132953571D01*
X127071428Y-132953571D02*
X127928571Y-132953571D01*
X127500000Y-134453571D02*
X127500000Y-132953571D01*
X128428571Y-134453571D02*
X128428571Y-132953571D01*
X128428571Y-133667857D02*
X129285714Y-133667857D01*
X129285714Y-134453571D02*
X129285714Y-132953571D01*
X131000000Y-132953571D02*
X131357143Y-134453571D01*
X131642857Y-133382143D01*
X131928571Y-134453571D01*
X132285714Y-132953571D01*
X132857143Y-134453571D02*
X132857143Y-132953571D01*
X132857143Y-133667857D02*
X133714286Y-133667857D01*
X133714286Y-134453571D02*
X133714286Y-132953571D01*
X134428572Y-134453571D02*
X134428572Y-132953571D01*
X134928572Y-132953571D02*
X135785715Y-132953571D01*
X135357144Y-134453571D02*
X135357144Y-132953571D01*
X136285715Y-133667857D02*
X136785715Y-133667857D01*
X137000001Y-134453571D02*
X136285715Y-134453571D01*
X136285715Y-132953571D01*
X137000001Y-132953571D01*
X138714286Y-134382143D02*
X138928572Y-134453571D01*
X139285715Y-134453571D01*
X139428572Y-134382143D01*
X139500001Y-134310714D01*
X139571429Y-134167857D01*
X139571429Y-134025000D01*
X139500001Y-133882143D01*
X139428572Y-133810714D01*
X139285715Y-133739286D01*
X139000001Y-133667857D01*
X138857143Y-133596429D01*
X138785715Y-133525000D01*
X138714286Y-133382143D01*
X138714286Y-133239286D01*
X138785715Y-133096429D01*
X138857143Y-133025000D01*
X139000001Y-132953571D01*
X139357143Y-132953571D01*
X139571429Y-133025000D01*
X140214286Y-134453571D02*
X140214286Y-132953571D01*
X141642858Y-134453571D02*
X140928572Y-134453571D01*
X140928572Y-132953571D01*
X142142858Y-134453571D02*
X142142858Y-132953571D01*
X143000001Y-134453571D02*
X142357144Y-133596429D01*
X143000001Y-132953571D02*
X142142858Y-133810714D01*
X143571429Y-134382143D02*
X143785715Y-134453571D01*
X144142858Y-134453571D01*
X144285715Y-134382143D01*
X144357144Y-134310714D01*
X144428572Y-134167857D01*
X144428572Y-134025000D01*
X144357144Y-133882143D01*
X144285715Y-133810714D01*
X144142858Y-133739286D01*
X143857144Y-133667857D01*
X143714286Y-133596429D01*
X143642858Y-133525000D01*
X143571429Y-133382143D01*
X143571429Y-133239286D01*
X143642858Y-133096429D01*
X143714286Y-133025000D01*
X143857144Y-132953571D01*
X144214286Y-132953571D01*
X144428572Y-133025000D01*
X145928572Y-134310714D02*
X145857143Y-134382143D01*
X145642857Y-134453571D01*
X145500000Y-134453571D01*
X145285715Y-134382143D01*
X145142857Y-134239286D01*
X145071429Y-134096429D01*
X145000000Y-133810714D01*
X145000000Y-133596429D01*
X145071429Y-133310714D01*
X145142857Y-133167857D01*
X145285715Y-133025000D01*
X145500000Y-132953571D01*
X145642857Y-132953571D01*
X145857143Y-133025000D01*
X145928572Y-133096429D01*
X147428572Y-134453571D02*
X146928572Y-133739286D01*
X146571429Y-134453571D02*
X146571429Y-132953571D01*
X147142857Y-132953571D01*
X147285715Y-133025000D01*
X147357143Y-133096429D01*
X147428572Y-133239286D01*
X147428572Y-133453571D01*
X147357143Y-133596429D01*
X147285715Y-133667857D01*
X147142857Y-133739286D01*
X146571429Y-133739286D01*
X148071429Y-133667857D02*
X148571429Y-133667857D01*
X148785715Y-134453571D02*
X148071429Y-134453571D01*
X148071429Y-132953571D01*
X148785715Y-132953571D01*
X149428572Y-133667857D02*
X149928572Y-133667857D01*
X150142858Y-134453571D02*
X149428572Y-134453571D01*
X149428572Y-132953571D01*
X150142858Y-132953571D01*
X150785715Y-134453571D02*
X150785715Y-132953571D01*
X151642858Y-134453571D01*
X151642858Y-132953571D01*
X89500000Y-135503571D02*
X89214286Y-135503571D01*
X89071429Y-135575000D01*
X89000000Y-135646429D01*
X88857143Y-135860714D01*
X88785714Y-136146429D01*
X88785714Y-136717857D01*
X88857143Y-136860714D01*
X88928571Y-136932143D01*
X89071429Y-137003571D01*
X89357143Y-137003571D01*
X89500000Y-136932143D01*
X89571429Y-136860714D01*
X89642857Y-136717857D01*
X89642857Y-136360714D01*
X89571429Y-136217857D01*
X89500000Y-136146429D01*
X89357143Y-136075000D01*
X89071429Y-136075000D01*
X88928571Y-136146429D01*
X88857143Y-136217857D01*
X88785714Y-136360714D01*
X90285714Y-136860714D02*
X90357142Y-136932143D01*
X90285714Y-137003571D01*
X90214285Y-136932143D01*
X90285714Y-136860714D01*
X90285714Y-137003571D01*
X92071428Y-136932143D02*
X92285714Y-137003571D01*
X92642857Y-137003571D01*
X92785714Y-136932143D01*
X92857143Y-136860714D01*
X92928571Y-136717857D01*
X92928571Y-136575000D01*
X92857143Y-136432143D01*
X92785714Y-136360714D01*
X92642857Y-136289286D01*
X92357143Y-136217857D01*
X92214285Y-136146429D01*
X92142857Y-136075000D01*
X92071428Y-135932143D01*
X92071428Y-135789286D01*
X92142857Y-135646429D01*
X92214285Y-135575000D01*
X92357143Y-135503571D01*
X92714285Y-135503571D01*
X92928571Y-135575000D01*
X93857142Y-135503571D02*
X94142856Y-135503571D01*
X94285714Y-135575000D01*
X94428571Y-135717857D01*
X94499999Y-136003571D01*
X94499999Y-136503571D01*
X94428571Y-136789286D01*
X94285714Y-136932143D01*
X94142856Y-137003571D01*
X93857142Y-137003571D01*
X93714285Y-136932143D01*
X93571428Y-136789286D01*
X93499999Y-136503571D01*
X93499999Y-136003571D01*
X93571428Y-135717857D01*
X93714285Y-135575000D01*
X93857142Y-135503571D01*
X95857143Y-137003571D02*
X95142857Y-137003571D01*
X95142857Y-135503571D01*
X96357143Y-137003571D02*
X96357143Y-135503571D01*
X96714286Y-135503571D01*
X96928571Y-135575000D01*
X97071429Y-135717857D01*
X97142857Y-135860714D01*
X97214286Y-136146429D01*
X97214286Y-136360714D01*
X97142857Y-136646429D01*
X97071429Y-136789286D01*
X96928571Y-136932143D01*
X96714286Y-137003571D01*
X96357143Y-137003571D01*
X97857143Y-136217857D02*
X98357143Y-136217857D01*
X98571429Y-137003571D02*
X97857143Y-137003571D01*
X97857143Y-135503571D01*
X98571429Y-135503571D01*
X100071429Y-137003571D02*
X99571429Y-136289286D01*
X99214286Y-137003571D02*
X99214286Y-135503571D01*
X99785714Y-135503571D01*
X99928572Y-135575000D01*
X100000000Y-135646429D01*
X100071429Y-135789286D01*
X100071429Y-136003571D01*
X100000000Y-136146429D01*
X99928572Y-136217857D01*
X99785714Y-136289286D01*
X99214286Y-136289286D01*
X101857143Y-137003571D02*
X101857143Y-135503571D01*
X102428571Y-135503571D01*
X102571429Y-135575000D01*
X102642857Y-135646429D01*
X102714286Y-135789286D01*
X102714286Y-136003571D01*
X102642857Y-136146429D01*
X102571429Y-136217857D01*
X102428571Y-136289286D01*
X101857143Y-136289286D01*
X103285714Y-136575000D02*
X104000000Y-136575000D01*
X103142857Y-137003571D02*
X103642857Y-135503571D01*
X104142857Y-137003571D01*
X104571428Y-136932143D02*
X104785714Y-137003571D01*
X105142857Y-137003571D01*
X105285714Y-136932143D01*
X105357143Y-136860714D01*
X105428571Y-136717857D01*
X105428571Y-136575000D01*
X105357143Y-136432143D01*
X105285714Y-136360714D01*
X105142857Y-136289286D01*
X104857143Y-136217857D01*
X104714285Y-136146429D01*
X104642857Y-136075000D01*
X104571428Y-135932143D01*
X104571428Y-135789286D01*
X104642857Y-135646429D01*
X104714285Y-135575000D01*
X104857143Y-135503571D01*
X105214285Y-135503571D01*
X105428571Y-135575000D01*
X105857142Y-135503571D02*
X106714285Y-135503571D01*
X106285714Y-137003571D02*
X106285714Y-135503571D01*
X107214285Y-136217857D02*
X107714285Y-136217857D01*
X107928571Y-137003571D02*
X107214285Y-137003571D01*
X107214285Y-135503571D01*
X107928571Y-135503571D01*
X109714285Y-137003571D02*
X109714285Y-135503571D01*
X110214285Y-136575000D01*
X110714285Y-135503571D01*
X110714285Y-137003571D01*
X111428571Y-135503571D02*
X111428571Y-136717857D01*
X111499999Y-136860714D01*
X111571428Y-136932143D01*
X111714285Y-137003571D01*
X111999999Y-137003571D01*
X112142857Y-136932143D01*
X112214285Y-136860714D01*
X112285714Y-136717857D01*
X112285714Y-135503571D01*
X112928571Y-136932143D02*
X113142857Y-137003571D01*
X113500000Y-137003571D01*
X113642857Y-136932143D01*
X113714286Y-136860714D01*
X113785714Y-136717857D01*
X113785714Y-136575000D01*
X113714286Y-136432143D01*
X113642857Y-136360714D01*
X113500000Y-136289286D01*
X113214286Y-136217857D01*
X113071428Y-136146429D01*
X113000000Y-136075000D01*
X112928571Y-135932143D01*
X112928571Y-135789286D01*
X113000000Y-135646429D01*
X113071428Y-135575000D01*
X113214286Y-135503571D01*
X113571428Y-135503571D01*
X113785714Y-135575000D01*
X114214285Y-135503571D02*
X115071428Y-135503571D01*
X114642857Y-137003571D02*
X114642857Y-135503571D01*
X117214285Y-136217857D02*
X117428571Y-136289286D01*
X117499999Y-136360714D01*
X117571428Y-136503571D01*
X117571428Y-136717857D01*
X117499999Y-136860714D01*
X117428571Y-136932143D01*
X117285713Y-137003571D01*
X116714285Y-137003571D01*
X116714285Y-135503571D01*
X117214285Y-135503571D01*
X117357142Y-135575000D01*
X117428571Y-135646429D01*
X117499999Y-135789286D01*
X117499999Y-135932143D01*
X117428571Y-136075000D01*
X117357142Y-136146429D01*
X117214285Y-136217857D01*
X116714285Y-136217857D01*
X118214285Y-136217857D02*
X118714285Y-136217857D01*
X118928571Y-137003571D02*
X118214285Y-137003571D01*
X118214285Y-135503571D01*
X118928571Y-135503571D01*
X121571428Y-137003571D02*
X121071428Y-136289286D01*
X120714285Y-137003571D02*
X120714285Y-135503571D01*
X121285713Y-135503571D01*
X121428571Y-135575000D01*
X121499999Y-135646429D01*
X121571428Y-135789286D01*
X121571428Y-136003571D01*
X121499999Y-136146429D01*
X121428571Y-136217857D01*
X121285713Y-136289286D01*
X120714285Y-136289286D01*
X122499999Y-135503571D02*
X122785713Y-135503571D01*
X122928571Y-135575000D01*
X123071428Y-135717857D01*
X123142856Y-136003571D01*
X123142856Y-136503571D01*
X123071428Y-136789286D01*
X122928571Y-136932143D01*
X122785713Y-137003571D01*
X122499999Y-137003571D01*
X122357142Y-136932143D01*
X122214285Y-136789286D01*
X122142856Y-136503571D01*
X122142856Y-136003571D01*
X122214285Y-135717857D01*
X122357142Y-135575000D01*
X122499999Y-135503571D01*
X123785714Y-137003571D02*
X123785714Y-135503571D01*
X123785714Y-136217857D02*
X124642857Y-136217857D01*
X124642857Y-137003571D02*
X124642857Y-135503571D01*
X125285714Y-136932143D02*
X125500000Y-137003571D01*
X125857143Y-137003571D01*
X126000000Y-136932143D01*
X126071429Y-136860714D01*
X126142857Y-136717857D01*
X126142857Y-136575000D01*
X126071429Y-136432143D01*
X126000000Y-136360714D01*
X125857143Y-136289286D01*
X125571429Y-136217857D01*
X125428571Y-136146429D01*
X125357143Y-136075000D01*
X125285714Y-135932143D01*
X125285714Y-135789286D01*
X125357143Y-135646429D01*
X125428571Y-135575000D01*
X125571429Y-135503571D01*
X125928571Y-135503571D01*
X126142857Y-135575000D01*
X128785714Y-136860714D02*
X128714285Y-136932143D01*
X128499999Y-137003571D01*
X128357142Y-137003571D01*
X128142857Y-136932143D01*
X127999999Y-136789286D01*
X127928571Y-136646429D01*
X127857142Y-136360714D01*
X127857142Y-136146429D01*
X127928571Y-135860714D01*
X127999999Y-135717857D01*
X128142857Y-135575000D01*
X128357142Y-135503571D01*
X128499999Y-135503571D01*
X128714285Y-135575000D01*
X128785714Y-135646429D01*
X129714285Y-135503571D02*
X129999999Y-135503571D01*
X130142857Y-135575000D01*
X130285714Y-135717857D01*
X130357142Y-136003571D01*
X130357142Y-136503571D01*
X130285714Y-136789286D01*
X130142857Y-136932143D01*
X129999999Y-137003571D01*
X129714285Y-137003571D01*
X129571428Y-136932143D01*
X129428571Y-136789286D01*
X129357142Y-136503571D01*
X129357142Y-136003571D01*
X129428571Y-135717857D01*
X129571428Y-135575000D01*
X129714285Y-135503571D01*
X131000000Y-137003571D02*
X131000000Y-135503571D01*
X131500000Y-136575000D01*
X132000000Y-135503571D01*
X132000000Y-137003571D01*
X132714286Y-137003571D02*
X132714286Y-135503571D01*
X133285714Y-135503571D01*
X133428572Y-135575000D01*
X133500000Y-135646429D01*
X133571429Y-135789286D01*
X133571429Y-136003571D01*
X133500000Y-136146429D01*
X133428572Y-136217857D01*
X133285714Y-136289286D01*
X132714286Y-136289286D01*
X134928572Y-137003571D02*
X134214286Y-137003571D01*
X134214286Y-135503571D01*
X135428572Y-137003571D02*
X135428572Y-135503571D01*
X136071429Y-136575000D02*
X136785715Y-136575000D01*
X135928572Y-137003571D02*
X136428572Y-135503571D01*
X136928572Y-137003571D01*
X137428572Y-137003571D02*
X137428572Y-135503571D01*
X138285715Y-137003571D01*
X138285715Y-135503571D01*
X138785715Y-135503571D02*
X139642858Y-135503571D01*
X139214287Y-137003571D02*
X139214287Y-135503571D01*
X141714286Y-137575000D02*
X141642858Y-137503571D01*
X141500001Y-137289286D01*
X141428572Y-137146429D01*
X141357143Y-136932143D01*
X141285715Y-136575000D01*
X141285715Y-136289286D01*
X141357143Y-135932143D01*
X141428572Y-135717857D01*
X141500001Y-135575000D01*
X141642858Y-135360714D01*
X141714286Y-135289286D01*
X143000001Y-137003571D02*
X142285715Y-137003571D01*
X142285715Y-135503571D01*
X143500001Y-136217857D02*
X144000001Y-136217857D01*
X144214287Y-137003571D02*
X143500001Y-137003571D01*
X143500001Y-135503571D01*
X144214287Y-135503571D01*
X144785715Y-136575000D02*
X145500001Y-136575000D01*
X144642858Y-137003571D02*
X145142858Y-135503571D01*
X145642858Y-137003571D01*
X146142858Y-137003571D02*
X146142858Y-135503571D01*
X146500001Y-135503571D01*
X146714286Y-135575000D01*
X146857144Y-135717857D01*
X146928572Y-135860714D01*
X147000001Y-136146429D01*
X147000001Y-136360714D01*
X146928572Y-136646429D01*
X146857144Y-136789286D01*
X146714286Y-136932143D01*
X146500001Y-137003571D01*
X146142858Y-137003571D01*
X147642858Y-136432143D02*
X148785715Y-136432143D01*
X150000001Y-136217857D02*
X149500001Y-136217857D01*
X149500001Y-137003571D02*
X149500001Y-135503571D01*
X150214287Y-135503571D01*
X151642858Y-137003571D02*
X151142858Y-136289286D01*
X150785715Y-137003571D02*
X150785715Y-135503571D01*
X151357143Y-135503571D01*
X151500001Y-135575000D01*
X151571429Y-135646429D01*
X151642858Y-135789286D01*
X151642858Y-136003571D01*
X151571429Y-136146429D01*
X151500001Y-136217857D01*
X151357143Y-136289286D01*
X150785715Y-136289286D01*
X152285715Y-136217857D02*
X152785715Y-136217857D01*
X153000001Y-137003571D02*
X152285715Y-137003571D01*
X152285715Y-135503571D01*
X153000001Y-135503571D01*
X153642858Y-136217857D02*
X154142858Y-136217857D01*
X154357144Y-137003571D02*
X153642858Y-137003571D01*
X153642858Y-135503571D01*
X154357144Y-135503571D01*
X154857144Y-137575000D02*
X154928572Y-137503571D01*
X155071429Y-137289286D01*
X155142858Y-137146429D01*
X155214287Y-136932143D01*
X155285715Y-136575000D01*
X155285715Y-136289286D01*
X155214287Y-135932143D01*
X155142858Y-135717857D01*
X155071429Y-135575000D01*
X154928572Y-135360714D01*
X154857144Y-135289286D01*
X88714286Y-138053571D02*
X89714286Y-138053571D01*
X89071429Y-139553571D01*
X90285714Y-139410714D02*
X90357142Y-139482143D01*
X90285714Y-139553571D01*
X90214285Y-139482143D01*
X90285714Y-139410714D01*
X90285714Y-139553571D01*
X92142857Y-139553571D02*
X92142857Y-138053571D01*
X93000000Y-139553571D01*
X93000000Y-138053571D01*
X94000000Y-138053571D02*
X94285714Y-138053571D01*
X94428572Y-138125000D01*
X94571429Y-138267857D01*
X94642857Y-138553571D01*
X94642857Y-139053571D01*
X94571429Y-139339286D01*
X94428572Y-139482143D01*
X94285714Y-139553571D01*
X94000000Y-139553571D01*
X93857143Y-139482143D01*
X93714286Y-139339286D01*
X93642857Y-139053571D01*
X93642857Y-138553571D01*
X93714286Y-138267857D01*
X93857143Y-138125000D01*
X94000000Y-138053571D01*
X96428572Y-139553571D02*
X96428572Y-138053571D01*
X96928572Y-139125000D01*
X97428572Y-138053571D01*
X97428572Y-139553571D01*
X98071429Y-139125000D02*
X98785715Y-139125000D01*
X97928572Y-139553571D02*
X98428572Y-138053571D01*
X98928572Y-139553571D01*
X100285715Y-139553571D02*
X99785715Y-138839286D01*
X99428572Y-139553571D02*
X99428572Y-138053571D01*
X100000000Y-138053571D01*
X100142858Y-138125000D01*
X100214286Y-138196429D01*
X100285715Y-138339286D01*
X100285715Y-138553571D01*
X100214286Y-138696429D01*
X100142858Y-138767857D01*
X100000000Y-138839286D01*
X99428572Y-138839286D01*
X100928572Y-139553571D02*
X100928572Y-138053571D01*
X101785715Y-139553571D02*
X101142858Y-138696429D01*
X101785715Y-138053571D02*
X100928572Y-138910714D01*
X102357143Y-139482143D02*
X102571429Y-139553571D01*
X102928572Y-139553571D01*
X103071429Y-139482143D01*
X103142858Y-139410714D01*
X103214286Y-139267857D01*
X103214286Y-139125000D01*
X103142858Y-138982143D01*
X103071429Y-138910714D01*
X102928572Y-138839286D01*
X102642858Y-138767857D01*
X102500000Y-138696429D01*
X102428572Y-138625000D01*
X102357143Y-138482143D01*
X102357143Y-138339286D01*
X102428572Y-138196429D01*
X102500000Y-138125000D01*
X102642858Y-138053571D01*
X103000000Y-138053571D01*
X103214286Y-138125000D01*
X105428571Y-140125000D02*
X105357143Y-140053571D01*
X105214286Y-139839286D01*
X105142857Y-139696429D01*
X105071428Y-139482143D01*
X105000000Y-139125000D01*
X105000000Y-138839286D01*
X105071428Y-138482143D01*
X105142857Y-138267857D01*
X105214286Y-138125000D01*
X105357143Y-137910714D01*
X105428571Y-137839286D01*
X106000000Y-138767857D02*
X106500000Y-138767857D01*
X106714286Y-139553571D02*
X106000000Y-139553571D01*
X106000000Y-138053571D01*
X106714286Y-138053571D01*
X107357143Y-138982143D02*
X108500000Y-138982143D01*
X109000000Y-138053571D02*
X109857143Y-138053571D01*
X109428572Y-139553571D02*
X109428572Y-138053571D01*
X110357143Y-138767857D02*
X110857143Y-138767857D01*
X111071429Y-139553571D02*
X110357143Y-139553571D01*
X110357143Y-138053571D01*
X111071429Y-138053571D01*
X111642857Y-139482143D02*
X111857143Y-139553571D01*
X112214286Y-139553571D01*
X112357143Y-139482143D01*
X112428572Y-139410714D01*
X112500000Y-139267857D01*
X112500000Y-139125000D01*
X112428572Y-138982143D01*
X112357143Y-138910714D01*
X112214286Y-138839286D01*
X111928572Y-138767857D01*
X111785714Y-138696429D01*
X111714286Y-138625000D01*
X111642857Y-138482143D01*
X111642857Y-138339286D01*
X111714286Y-138196429D01*
X111785714Y-138125000D01*
X111928572Y-138053571D01*
X112285714Y-138053571D01*
X112500000Y-138125000D01*
X112928571Y-138053571D02*
X113785714Y-138053571D01*
X113357143Y-139553571D02*
X113357143Y-138053571D01*
X114357142Y-139482143D02*
X114357142Y-139553571D01*
X114285714Y-139696429D01*
X114214285Y-139767857D01*
X117142857Y-139696429D02*
X117000000Y-139625000D01*
X116857143Y-139482143D01*
X116642857Y-139267857D01*
X116500000Y-139196429D01*
X116357143Y-139196429D01*
X116428571Y-139553571D02*
X116285714Y-139482143D01*
X116142857Y-139339286D01*
X116071428Y-139053571D01*
X116071428Y-138553571D01*
X116142857Y-138267857D01*
X116285714Y-138125000D01*
X116428571Y-138053571D01*
X116714285Y-138053571D01*
X116857143Y-138125000D01*
X117000000Y-138267857D01*
X117071428Y-138553571D01*
X117071428Y-139053571D01*
X117000000Y-139339286D01*
X116857143Y-139482143D01*
X116714285Y-139553571D01*
X116428571Y-139553571D01*
X117642857Y-139125000D02*
X118357143Y-139125000D01*
X117500000Y-139553571D02*
X118000000Y-138053571D01*
X118500000Y-139553571D01*
X119071428Y-139482143D02*
X119071428Y-139553571D01*
X119000000Y-139696429D01*
X118928571Y-139767857D01*
X120785714Y-139482143D02*
X121000000Y-139553571D01*
X121357143Y-139553571D01*
X121500000Y-139482143D01*
X121571429Y-139410714D01*
X121642857Y-139267857D01*
X121642857Y-139125000D01*
X121571429Y-138982143D01*
X121500000Y-138910714D01*
X121357143Y-138839286D01*
X121071429Y-138767857D01*
X120928571Y-138696429D01*
X120857143Y-138625000D01*
X120785714Y-138482143D01*
X120785714Y-138339286D01*
X120857143Y-138196429D01*
X120928571Y-138125000D01*
X121071429Y-138053571D01*
X121428571Y-138053571D01*
X121642857Y-138125000D01*
X122285714Y-138767857D02*
X122785714Y-138767857D01*
X123000000Y-139553571D02*
X122285714Y-139553571D01*
X122285714Y-138053571D01*
X123000000Y-138053571D01*
X124500000Y-139553571D02*
X124000000Y-138839286D01*
X123642857Y-139553571D02*
X123642857Y-138053571D01*
X124214285Y-138053571D01*
X124357143Y-138125000D01*
X124428571Y-138196429D01*
X124500000Y-138339286D01*
X124500000Y-138553571D01*
X124428571Y-138696429D01*
X124357143Y-138767857D01*
X124214285Y-138839286D01*
X123642857Y-138839286D01*
X125142857Y-139553571D02*
X125142857Y-138053571D01*
X125785714Y-139125000D02*
X126500000Y-139125000D01*
X125642857Y-139553571D02*
X126142857Y-138053571D01*
X126642857Y-139553571D01*
X127857143Y-139553571D02*
X127142857Y-139553571D01*
X127142857Y-138053571D01*
X129500000Y-139553571D02*
X129500000Y-138053571D01*
X130357143Y-139553571D01*
X130357143Y-138053571D01*
X131071429Y-138053571D02*
X131071429Y-139267857D01*
X131142857Y-139410714D01*
X131214286Y-139482143D01*
X131357143Y-139553571D01*
X131642857Y-139553571D01*
X131785715Y-139482143D01*
X131857143Y-139410714D01*
X131928572Y-139267857D01*
X131928572Y-138053571D01*
X132642858Y-139553571D02*
X132642858Y-138053571D01*
X133142858Y-139125000D01*
X133642858Y-138053571D01*
X133642858Y-139553571D01*
X134857144Y-138767857D02*
X135071430Y-138839286D01*
X135142858Y-138910714D01*
X135214287Y-139053571D01*
X135214287Y-139267857D01*
X135142858Y-139410714D01*
X135071430Y-139482143D01*
X134928572Y-139553571D01*
X134357144Y-139553571D01*
X134357144Y-138053571D01*
X134857144Y-138053571D01*
X135000001Y-138125000D01*
X135071430Y-138196429D01*
X135142858Y-138339286D01*
X135142858Y-138482143D01*
X135071430Y-138625000D01*
X135000001Y-138696429D01*
X134857144Y-138767857D01*
X134357144Y-138767857D01*
X135857144Y-138767857D02*
X136357144Y-138767857D01*
X136571430Y-139553571D02*
X135857144Y-139553571D01*
X135857144Y-138053571D01*
X136571430Y-138053571D01*
X138071430Y-139553571D02*
X137571430Y-138839286D01*
X137214287Y-139553571D02*
X137214287Y-138053571D01*
X137785715Y-138053571D01*
X137928573Y-138125000D01*
X138000001Y-138196429D01*
X138071430Y-138339286D01*
X138071430Y-138553571D01*
X138000001Y-138696429D01*
X137928573Y-138767857D01*
X137785715Y-138839286D01*
X137214287Y-138839286D01*
X138785715Y-139482143D02*
X138785715Y-139553571D01*
X138714287Y-139696429D01*
X138642858Y-139767857D01*
X140571430Y-138767857D02*
X141071430Y-138767857D01*
X141285716Y-139553571D02*
X140571430Y-139553571D01*
X140571430Y-138053571D01*
X141285716Y-138053571D01*
X141714287Y-138053571D02*
X142571430Y-138053571D01*
X142142859Y-139553571D02*
X142142859Y-138053571D01*
X143928573Y-139410714D02*
X143857144Y-139482143D01*
X143642858Y-139553571D01*
X143500001Y-139553571D01*
X143285716Y-139482143D01*
X143142858Y-139339286D01*
X143071430Y-139196429D01*
X143000001Y-138910714D01*
X143000001Y-138696429D01*
X143071430Y-138410714D01*
X143142858Y-138267857D01*
X143285716Y-138125000D01*
X143500001Y-138053571D01*
X143642858Y-138053571D01*
X143857144Y-138125000D01*
X143928573Y-138196429D01*
X144428573Y-140125000D02*
X144500001Y-140053571D01*
X144642858Y-139839286D01*
X144714287Y-139696429D01*
X144785716Y-139482143D01*
X144857144Y-139125000D01*
X144857144Y-138839286D01*
X144785716Y-138482143D01*
X144714287Y-138267857D01*
X144642858Y-138125000D01*
X144500001Y-137910714D01*
X144428573Y-137839286D01*
X147000001Y-138053571D02*
X147285715Y-138053571D01*
X147428573Y-138125000D01*
X147571430Y-138267857D01*
X147642858Y-138553571D01*
X147642858Y-139053571D01*
X147571430Y-139339286D01*
X147428573Y-139482143D01*
X147285715Y-139553571D01*
X147000001Y-139553571D01*
X146857144Y-139482143D01*
X146714287Y-139339286D01*
X146642858Y-139053571D01*
X146642858Y-138553571D01*
X146714287Y-138267857D01*
X146857144Y-138125000D01*
X147000001Y-138053571D01*
X148285716Y-139553571D02*
X148285716Y-138053571D01*
X149142859Y-139553571D01*
X149142859Y-138053571D01*
X151500002Y-138767857D02*
X151000002Y-138767857D01*
X151000002Y-139553571D02*
X151000002Y-138053571D01*
X151714288Y-138053571D01*
X153142859Y-139553571D02*
X152642859Y-138839286D01*
X152285716Y-139553571D02*
X152285716Y-138053571D01*
X152857144Y-138053571D01*
X153000002Y-138125000D01*
X153071430Y-138196429D01*
X153142859Y-138339286D01*
X153142859Y-138553571D01*
X153071430Y-138696429D01*
X153000002Y-138767857D01*
X152857144Y-138839286D01*
X152285716Y-138839286D01*
X154071430Y-138053571D02*
X154357144Y-138053571D01*
X154500002Y-138125000D01*
X154642859Y-138267857D01*
X154714287Y-138553571D01*
X154714287Y-139053571D01*
X154642859Y-139339286D01*
X154500002Y-139482143D01*
X154357144Y-139553571D01*
X154071430Y-139553571D01*
X153928573Y-139482143D01*
X153785716Y-139339286D01*
X153714287Y-139053571D01*
X153714287Y-138553571D01*
X153785716Y-138267857D01*
X153928573Y-138125000D01*
X154071430Y-138053571D01*
X155357145Y-139553571D02*
X155357145Y-138053571D01*
X156214288Y-139553571D01*
X156214288Y-138053571D01*
X156714288Y-138053571D02*
X157571431Y-138053571D01*
X157142860Y-139553571D02*
X157142860Y-138053571D01*
X159642859Y-140125000D02*
X159571431Y-140053571D01*
X159428574Y-139839286D01*
X159357145Y-139696429D01*
X159285716Y-139482143D01*
X159214288Y-139125000D01*
X159214288Y-138839286D01*
X159285716Y-138482143D01*
X159357145Y-138267857D01*
X159428574Y-138125000D01*
X159571431Y-137910714D01*
X159642859Y-137839286D01*
X160928574Y-139553571D02*
X160214288Y-139553571D01*
X160214288Y-138053571D01*
X161714288Y-138053571D02*
X162000002Y-138053571D01*
X162142860Y-138125000D01*
X162285717Y-138267857D01*
X162357145Y-138553571D01*
X162357145Y-139053571D01*
X162285717Y-139339286D01*
X162142860Y-139482143D01*
X162000002Y-139553571D01*
X161714288Y-139553571D01*
X161571431Y-139482143D01*
X161428574Y-139339286D01*
X161357145Y-139053571D01*
X161357145Y-138553571D01*
X161428574Y-138267857D01*
X161571431Y-138125000D01*
X161714288Y-138053571D01*
X163785717Y-138125000D02*
X163642860Y-138053571D01*
X163428574Y-138053571D01*
X163214289Y-138125000D01*
X163071431Y-138267857D01*
X163000003Y-138410714D01*
X162928574Y-138696429D01*
X162928574Y-138910714D01*
X163000003Y-139196429D01*
X163071431Y-139339286D01*
X163214289Y-139482143D01*
X163428574Y-139553571D01*
X163571431Y-139553571D01*
X163785717Y-139482143D01*
X163857146Y-139410714D01*
X163857146Y-138910714D01*
X163571431Y-138910714D01*
X164785717Y-138053571D02*
X165071431Y-138053571D01*
X165214289Y-138125000D01*
X165357146Y-138267857D01*
X165428574Y-138553571D01*
X165428574Y-139053571D01*
X165357146Y-139339286D01*
X165214289Y-139482143D01*
X165071431Y-139553571D01*
X164785717Y-139553571D01*
X164642860Y-139482143D01*
X164500003Y-139339286D01*
X164428574Y-139053571D01*
X164428574Y-138553571D01*
X164500003Y-138267857D01*
X164642860Y-138125000D01*
X164785717Y-138053571D01*
X167142860Y-139482143D02*
X167357146Y-139553571D01*
X167714289Y-139553571D01*
X167857146Y-139482143D01*
X167928575Y-139410714D01*
X168000003Y-139267857D01*
X168000003Y-139125000D01*
X167928575Y-138982143D01*
X167857146Y-138910714D01*
X167714289Y-138839286D01*
X167428575Y-138767857D01*
X167285717Y-138696429D01*
X167214289Y-138625000D01*
X167142860Y-138482143D01*
X167142860Y-138339286D01*
X167214289Y-138196429D01*
X167285717Y-138125000D01*
X167428575Y-138053571D01*
X167785717Y-138053571D01*
X168000003Y-138125000D01*
X168642860Y-139553571D02*
X168642860Y-138053571D01*
X169357146Y-139553571D02*
X169357146Y-138053571D01*
X169714289Y-138053571D01*
X169928574Y-138125000D01*
X170071432Y-138267857D01*
X170142860Y-138410714D01*
X170214289Y-138696429D01*
X170214289Y-138910714D01*
X170142860Y-139196429D01*
X170071432Y-139339286D01*
X169928574Y-139482143D01*
X169714289Y-139553571D01*
X169357146Y-139553571D01*
X170857146Y-138767857D02*
X171357146Y-138767857D01*
X171571432Y-139553571D02*
X170857146Y-139553571D01*
X170857146Y-138053571D01*
X171571432Y-138053571D01*
X172071432Y-140125000D02*
X172142860Y-140053571D01*
X172285717Y-139839286D01*
X172357146Y-139696429D01*
X172428575Y-139482143D01*
X172500003Y-139125000D01*
X172500003Y-138839286D01*
X172428575Y-138482143D01*
X172357146Y-138267857D01*
X172285717Y-138125000D01*
X172142860Y-137910714D01*
X172071432Y-137839286D01*
X174642860Y-138053571D02*
X174928574Y-138053571D01*
X175071432Y-138125000D01*
X175214289Y-138267857D01*
X175285717Y-138553571D01*
X175285717Y-139053571D01*
X175214289Y-139339286D01*
X175071432Y-139482143D01*
X174928574Y-139553571D01*
X174642860Y-139553571D01*
X174500003Y-139482143D01*
X174357146Y-139339286D01*
X174285717Y-139053571D01*
X174285717Y-138553571D01*
X174357146Y-138267857D01*
X174500003Y-138125000D01*
X174642860Y-138053571D01*
X176428575Y-138767857D02*
X175928575Y-138767857D01*
X175928575Y-139553571D02*
X175928575Y-138053571D01*
X176642861Y-138053571D01*
X178857146Y-138767857D02*
X179071432Y-138839286D01*
X179142860Y-138910714D01*
X179214289Y-139053571D01*
X179214289Y-139267857D01*
X179142860Y-139410714D01*
X179071432Y-139482143D01*
X178928574Y-139553571D01*
X178357146Y-139553571D01*
X178357146Y-138053571D01*
X178857146Y-138053571D01*
X179000003Y-138125000D01*
X179071432Y-138196429D01*
X179142860Y-138339286D01*
X179142860Y-138482143D01*
X179071432Y-138625000D01*
X179000003Y-138696429D01*
X178857146Y-138767857D01*
X178357146Y-138767857D01*
X180142860Y-138053571D02*
X180428574Y-138053571D01*
X180571432Y-138125000D01*
X180714289Y-138267857D01*
X180785717Y-138553571D01*
X180785717Y-139053571D01*
X180714289Y-139339286D01*
X180571432Y-139482143D01*
X180428574Y-139553571D01*
X180142860Y-139553571D01*
X180000003Y-139482143D01*
X179857146Y-139339286D01*
X179785717Y-139053571D01*
X179785717Y-138553571D01*
X179857146Y-138267857D01*
X180000003Y-138125000D01*
X180142860Y-138053571D01*
X181357146Y-139125000D02*
X182071432Y-139125000D01*
X181214289Y-139553571D02*
X181714289Y-138053571D01*
X182214289Y-139553571D01*
X183571432Y-139553571D02*
X183071432Y-138839286D01*
X182714289Y-139553571D02*
X182714289Y-138053571D01*
X183285717Y-138053571D01*
X183428575Y-138125000D01*
X183500003Y-138196429D01*
X183571432Y-138339286D01*
X183571432Y-138553571D01*
X183500003Y-138696429D01*
X183428575Y-138767857D01*
X183285717Y-138839286D01*
X182714289Y-138839286D01*
X184214289Y-139553571D02*
X184214289Y-138053571D01*
X184571432Y-138053571D01*
X184785717Y-138125000D01*
X184928575Y-138267857D01*
X185000003Y-138410714D01*
X185071432Y-138696429D01*
X185071432Y-138910714D01*
X185000003Y-139196429D01*
X184928575Y-139339286D01*
X184785717Y-139482143D01*
X184571432Y-139553571D01*
X184214289Y-139553571D01*
X89071429Y-141246429D02*
X88928571Y-141175000D01*
X88857143Y-141103571D01*
X88785714Y-140960714D01*
X88785714Y-140889286D01*
X88857143Y-140746429D01*
X88928571Y-140675000D01*
X89071429Y-140603571D01*
X89357143Y-140603571D01*
X89500000Y-140675000D01*
X89571429Y-140746429D01*
X89642857Y-140889286D01*
X89642857Y-140960714D01*
X89571429Y-141103571D01*
X89500000Y-141175000D01*
X89357143Y-141246429D01*
X89071429Y-141246429D01*
X88928571Y-141317857D01*
X88857143Y-141389286D01*
X88785714Y-141532143D01*
X88785714Y-141817857D01*
X88857143Y-141960714D01*
X88928571Y-142032143D01*
X89071429Y-142103571D01*
X89357143Y-142103571D01*
X89500000Y-142032143D01*
X89571429Y-141960714D01*
X89642857Y-141817857D01*
X89642857Y-141532143D01*
X89571429Y-141389286D01*
X89500000Y-141317857D01*
X89357143Y-141246429D01*
X90285714Y-141960714D02*
X90357142Y-142032143D01*
X90285714Y-142103571D01*
X90214285Y-142032143D01*
X90285714Y-141960714D01*
X90285714Y-142103571D01*
X92642857Y-141317857D02*
X92857143Y-141389286D01*
X92928571Y-141460714D01*
X93000000Y-141603571D01*
X93000000Y-141817857D01*
X92928571Y-141960714D01*
X92857143Y-142032143D01*
X92714285Y-142103571D01*
X92142857Y-142103571D01*
X92142857Y-140603571D01*
X92642857Y-140603571D01*
X92785714Y-140675000D01*
X92857143Y-140746429D01*
X92928571Y-140889286D01*
X92928571Y-141032143D01*
X92857143Y-141175000D01*
X92785714Y-141246429D01*
X92642857Y-141317857D01*
X92142857Y-141317857D01*
X93928571Y-140603571D02*
X94214285Y-140603571D01*
X94357143Y-140675000D01*
X94500000Y-140817857D01*
X94571428Y-141103571D01*
X94571428Y-141603571D01*
X94500000Y-141889286D01*
X94357143Y-142032143D01*
X94214285Y-142103571D01*
X93928571Y-142103571D01*
X93785714Y-142032143D01*
X93642857Y-141889286D01*
X93571428Y-141603571D01*
X93571428Y-141103571D01*
X93642857Y-140817857D01*
X93785714Y-140675000D01*
X93928571Y-140603571D01*
X95142857Y-141675000D02*
X95857143Y-141675000D01*
X95000000Y-142103571D02*
X95500000Y-140603571D01*
X96000000Y-142103571D01*
X97357143Y-142103571D02*
X96857143Y-141389286D01*
X96500000Y-142103571D02*
X96500000Y-140603571D01*
X97071428Y-140603571D01*
X97214286Y-140675000D01*
X97285714Y-140746429D01*
X97357143Y-140889286D01*
X97357143Y-141103571D01*
X97285714Y-141246429D01*
X97214286Y-141317857D01*
X97071428Y-141389286D01*
X96500000Y-141389286D01*
X98000000Y-142103571D02*
X98000000Y-140603571D01*
X98357143Y-140603571D01*
X98571428Y-140675000D01*
X98714286Y-140817857D01*
X98785714Y-140960714D01*
X98857143Y-141246429D01*
X98857143Y-141460714D01*
X98785714Y-141746429D01*
X98714286Y-141889286D01*
X98571428Y-142032143D01*
X98357143Y-142103571D01*
X98000000Y-142103571D01*
X99428571Y-142032143D02*
X99642857Y-142103571D01*
X100000000Y-142103571D01*
X100142857Y-142032143D01*
X100214286Y-141960714D01*
X100285714Y-141817857D01*
X100285714Y-141675000D01*
X100214286Y-141532143D01*
X100142857Y-141460714D01*
X100000000Y-141389286D01*
X99714286Y-141317857D01*
X99571428Y-141246429D01*
X99500000Y-141175000D01*
X99428571Y-141032143D01*
X99428571Y-140889286D01*
X99500000Y-140746429D01*
X99571428Y-140675000D01*
X99714286Y-140603571D01*
X100071428Y-140603571D01*
X100285714Y-140675000D01*
X101857142Y-140603571D02*
X102714285Y-140603571D01*
X102285714Y-142103571D02*
X102285714Y-140603571D01*
X103499999Y-140603571D02*
X103785713Y-140603571D01*
X103928571Y-140675000D01*
X104071428Y-140817857D01*
X104142856Y-141103571D01*
X104142856Y-141603571D01*
X104071428Y-141889286D01*
X103928571Y-142032143D01*
X103785713Y-142103571D01*
X103499999Y-142103571D01*
X103357142Y-142032143D01*
X103214285Y-141889286D01*
X103142856Y-141603571D01*
X103142856Y-141103571D01*
X103214285Y-140817857D01*
X103357142Y-140675000D01*
X103499999Y-140603571D01*
X106428571Y-141317857D02*
X106642857Y-141389286D01*
X106714285Y-141460714D01*
X106785714Y-141603571D01*
X106785714Y-141817857D01*
X106714285Y-141960714D01*
X106642857Y-142032143D01*
X106499999Y-142103571D01*
X105928571Y-142103571D01*
X105928571Y-140603571D01*
X106428571Y-140603571D01*
X106571428Y-140675000D01*
X106642857Y-140746429D01*
X106714285Y-140889286D01*
X106714285Y-141032143D01*
X106642857Y-141175000D01*
X106571428Y-141246429D01*
X106428571Y-141317857D01*
X105928571Y-141317857D01*
X107428571Y-141317857D02*
X107928571Y-141317857D01*
X108142857Y-142103571D02*
X107428571Y-142103571D01*
X107428571Y-140603571D01*
X108142857Y-140603571D01*
X109857142Y-142032143D02*
X110071428Y-142103571D01*
X110428571Y-142103571D01*
X110571428Y-142032143D01*
X110642857Y-141960714D01*
X110714285Y-141817857D01*
X110714285Y-141675000D01*
X110642857Y-141532143D01*
X110571428Y-141460714D01*
X110428571Y-141389286D01*
X110142857Y-141317857D01*
X109999999Y-141246429D01*
X109928571Y-141175000D01*
X109857142Y-141032143D01*
X109857142Y-140889286D01*
X109928571Y-140746429D01*
X109999999Y-140675000D01*
X110142857Y-140603571D01*
X110499999Y-140603571D01*
X110714285Y-140675000D01*
X111357142Y-142103571D02*
X111357142Y-140603571D01*
X111357142Y-141317857D02*
X112214285Y-141317857D01*
X112214285Y-142103571D02*
X112214285Y-140603571D01*
X112928571Y-142103571D02*
X112928571Y-140603571D01*
X113642857Y-142103571D02*
X113642857Y-140603571D01*
X114214285Y-140603571D01*
X114357143Y-140675000D01*
X114428571Y-140746429D01*
X114500000Y-140889286D01*
X114500000Y-141103571D01*
X114428571Y-141246429D01*
X114357143Y-141317857D01*
X114214285Y-141389286D01*
X113642857Y-141389286D01*
X115142857Y-142103571D02*
X115142857Y-140603571D01*
X115714285Y-140603571D01*
X115857143Y-140675000D01*
X115928571Y-140746429D01*
X116000000Y-140889286D01*
X116000000Y-141103571D01*
X115928571Y-141246429D01*
X115857143Y-141317857D01*
X115714285Y-141389286D01*
X115142857Y-141389286D01*
X116642857Y-141317857D02*
X117142857Y-141317857D01*
X117357143Y-142103571D02*
X116642857Y-142103571D01*
X116642857Y-140603571D01*
X117357143Y-140603571D01*
X118000000Y-142103571D02*
X118000000Y-140603571D01*
X118357143Y-140603571D01*
X118571428Y-140675000D01*
X118714286Y-140817857D01*
X118785714Y-140960714D01*
X118857143Y-141246429D01*
X118857143Y-141460714D01*
X118785714Y-141746429D01*
X118714286Y-141889286D01*
X118571428Y-142032143D01*
X118357143Y-142103571D01*
X118000000Y-142103571D01*
X120642857Y-142103571D02*
X120642857Y-140603571D01*
X121357143Y-142103571D02*
X121357143Y-140603571D01*
X122214286Y-142103571D01*
X122214286Y-140603571D01*
X124071429Y-142103571D02*
X124071429Y-140603571D01*
X124785715Y-142103571D02*
X124785715Y-140603571D01*
X125642858Y-142103571D01*
X125642858Y-140603571D01*
X126357144Y-142103571D02*
X126357144Y-140603571D01*
X126714287Y-140603571D01*
X126928572Y-140675000D01*
X127071430Y-140817857D01*
X127142858Y-140960714D01*
X127214287Y-141246429D01*
X127214287Y-141460714D01*
X127142858Y-141746429D01*
X127071430Y-141889286D01*
X126928572Y-142032143D01*
X126714287Y-142103571D01*
X126357144Y-142103571D01*
X127857144Y-142103571D02*
X127857144Y-140603571D01*
X128357144Y-140603571D02*
X128857144Y-142103571D01*
X129357144Y-140603571D01*
X129857144Y-142103571D02*
X129857144Y-140603571D01*
X130571430Y-142103571D02*
X130571430Y-140603571D01*
X130928573Y-140603571D01*
X131142858Y-140675000D01*
X131285716Y-140817857D01*
X131357144Y-140960714D01*
X131428573Y-141246429D01*
X131428573Y-141460714D01*
X131357144Y-141746429D01*
X131285716Y-141889286D01*
X131142858Y-142032143D01*
X130928573Y-142103571D01*
X130571430Y-142103571D01*
X132071430Y-140603571D02*
X132071430Y-141817857D01*
X132142858Y-141960714D01*
X132214287Y-142032143D01*
X132357144Y-142103571D01*
X132642858Y-142103571D01*
X132785716Y-142032143D01*
X132857144Y-141960714D01*
X132928573Y-141817857D01*
X132928573Y-140603571D01*
X133571430Y-141675000D02*
X134285716Y-141675000D01*
X133428573Y-142103571D02*
X133928573Y-140603571D01*
X134428573Y-142103571D01*
X135642859Y-142103571D02*
X134928573Y-142103571D01*
X134928573Y-140603571D01*
X137214287Y-141675000D02*
X137928573Y-141675000D01*
X137071430Y-142103571D02*
X137571430Y-140603571D01*
X138071430Y-142103571D01*
X138571430Y-142103571D02*
X138571430Y-140603571D01*
X139428573Y-142103571D01*
X139428573Y-140603571D01*
X139928573Y-140603571D02*
X140785716Y-140603571D01*
X140357145Y-142103571D02*
X140357145Y-140603571D01*
X141285716Y-142103571D02*
X141285716Y-140603571D01*
X142000002Y-141532143D02*
X143142859Y-141532143D01*
X143785716Y-142032143D02*
X144000002Y-142103571D01*
X144357145Y-142103571D01*
X144500002Y-142032143D01*
X144571431Y-141960714D01*
X144642859Y-141817857D01*
X144642859Y-141675000D01*
X144571431Y-141532143D01*
X144500002Y-141460714D01*
X144357145Y-141389286D01*
X144071431Y-141317857D01*
X143928573Y-141246429D01*
X143857145Y-141175000D01*
X143785716Y-141032143D01*
X143785716Y-140889286D01*
X143857145Y-140746429D01*
X143928573Y-140675000D01*
X144071431Y-140603571D01*
X144428573Y-140603571D01*
X144642859Y-140675000D01*
X145071430Y-140603571D02*
X145928573Y-140603571D01*
X145500002Y-142103571D02*
X145500002Y-140603571D01*
X146357144Y-141675000D02*
X147071430Y-141675000D01*
X146214287Y-142103571D02*
X146714287Y-140603571D01*
X147214287Y-142103571D01*
X147500001Y-140603571D02*
X148357144Y-140603571D01*
X147928573Y-142103571D02*
X147928573Y-140603571D01*
X148857144Y-142103571D02*
X148857144Y-140603571D01*
X150428573Y-141960714D02*
X150357144Y-142032143D01*
X150142858Y-142103571D01*
X150000001Y-142103571D01*
X149785716Y-142032143D01*
X149642858Y-141889286D01*
X149571430Y-141746429D01*
X149500001Y-141460714D01*
X149500001Y-141246429D01*
X149571430Y-140960714D01*
X149642858Y-140817857D01*
X149785716Y-140675000D01*
X150000001Y-140603571D01*
X150142858Y-140603571D01*
X150357144Y-140675000D01*
X150428573Y-140746429D01*
X152714287Y-141317857D02*
X152928573Y-141389286D01*
X153000001Y-141460714D01*
X153071430Y-141603571D01*
X153071430Y-141817857D01*
X153000001Y-141960714D01*
X152928573Y-142032143D01*
X152785715Y-142103571D01*
X152214287Y-142103571D01*
X152214287Y-140603571D01*
X152714287Y-140603571D01*
X152857144Y-140675000D01*
X152928573Y-140746429D01*
X153000001Y-140889286D01*
X153000001Y-141032143D01*
X152928573Y-141175000D01*
X152857144Y-141246429D01*
X152714287Y-141317857D01*
X152214287Y-141317857D01*
X153642858Y-141675000D02*
X154357144Y-141675000D01*
X153500001Y-142103571D02*
X154000001Y-140603571D01*
X154500001Y-142103571D01*
X155785715Y-140675000D02*
X155642858Y-140603571D01*
X155428572Y-140603571D01*
X155214287Y-140675000D01*
X155071429Y-140817857D01*
X155000001Y-140960714D01*
X154928572Y-141246429D01*
X154928572Y-141460714D01*
X155000001Y-141746429D01*
X155071429Y-141889286D01*
X155214287Y-142032143D01*
X155428572Y-142103571D01*
X155571429Y-142103571D01*
X155785715Y-142032143D01*
X155857144Y-141960714D01*
X155857144Y-141460714D01*
X155571429Y-141460714D01*
X156428572Y-142032143D02*
X156642858Y-142103571D01*
X157000001Y-142103571D01*
X157142858Y-142032143D01*
X157214287Y-141960714D01*
X157285715Y-141817857D01*
X157285715Y-141675000D01*
X157214287Y-141532143D01*
X157142858Y-141460714D01*
X157000001Y-141389286D01*
X156714287Y-141317857D01*
X156571429Y-141246429D01*
X156500001Y-141175000D01*
X156428572Y-141032143D01*
X156428572Y-140889286D01*
X156500001Y-140746429D01*
X156571429Y-140675000D01*
X156714287Y-140603571D01*
X157071429Y-140603571D01*
X157285715Y-140675000D01*
X88928571Y-144653571D02*
X89214286Y-144653571D01*
X89357143Y-144582143D01*
X89428571Y-144510714D01*
X89571429Y-144296429D01*
X89642857Y-144010714D01*
X89642857Y-143439286D01*
X89571429Y-143296429D01*
X89500000Y-143225000D01*
X89357143Y-143153571D01*
X89071429Y-143153571D01*
X88928571Y-143225000D01*
X88857143Y-143296429D01*
X88785714Y-143439286D01*
X88785714Y-143796429D01*
X88857143Y-143939286D01*
X88928571Y-144010714D01*
X89071429Y-144082143D01*
X89357143Y-144082143D01*
X89500000Y-144010714D01*
X89571429Y-143939286D01*
X89642857Y-143796429D01*
X90285714Y-144510714D02*
X90357142Y-144582143D01*
X90285714Y-144653571D01*
X90214285Y-144582143D01*
X90285714Y-144510714D01*
X90285714Y-144653571D01*
X92642857Y-143867857D02*
X92142857Y-143867857D01*
X92142857Y-144653571D02*
X92142857Y-143153571D01*
X92857143Y-143153571D01*
X93714285Y-143153571D02*
X93999999Y-143153571D01*
X94142857Y-143225000D01*
X94285714Y-143367857D01*
X94357142Y-143653571D01*
X94357142Y-144153571D01*
X94285714Y-144439286D01*
X94142857Y-144582143D01*
X93999999Y-144653571D01*
X93714285Y-144653571D01*
X93571428Y-144582143D01*
X93428571Y-144439286D01*
X93357142Y-144153571D01*
X93357142Y-143653571D01*
X93428571Y-143367857D01*
X93571428Y-143225000D01*
X93714285Y-143153571D01*
X95000000Y-143153571D02*
X95000000Y-144367857D01*
X95071428Y-144510714D01*
X95142857Y-144582143D01*
X95285714Y-144653571D01*
X95571428Y-144653571D01*
X95714286Y-144582143D01*
X95785714Y-144510714D01*
X95857143Y-144367857D01*
X95857143Y-143153571D01*
X97428572Y-144653571D02*
X96928572Y-143939286D01*
X96571429Y-144653571D02*
X96571429Y-143153571D01*
X97142857Y-143153571D01*
X97285715Y-143225000D01*
X97357143Y-143296429D01*
X97428572Y-143439286D01*
X97428572Y-143653571D01*
X97357143Y-143796429D01*
X97285715Y-143867857D01*
X97142857Y-143939286D01*
X96571429Y-143939286D01*
X99142857Y-144582143D02*
X99357143Y-144653571D01*
X99714286Y-144653571D01*
X99857143Y-144582143D01*
X99928572Y-144510714D01*
X100000000Y-144367857D01*
X100000000Y-144225000D01*
X99928572Y-144082143D01*
X99857143Y-144010714D01*
X99714286Y-143939286D01*
X99428572Y-143867857D01*
X99285714Y-143796429D01*
X99214286Y-143725000D01*
X99142857Y-143582143D01*
X99142857Y-143439286D01*
X99214286Y-143296429D01*
X99285714Y-143225000D01*
X99428572Y-143153571D01*
X99785714Y-143153571D01*
X100000000Y-143225000D01*
X100642857Y-143867857D02*
X101142857Y-143867857D01*
X101357143Y-144653571D02*
X100642857Y-144653571D01*
X100642857Y-143153571D01*
X101357143Y-143153571D01*
X102714286Y-144653571D02*
X102000000Y-144653571D01*
X102000000Y-143153571D01*
X103714286Y-143867857D02*
X103214286Y-143867857D01*
X103214286Y-144653571D02*
X103214286Y-143153571D01*
X103928572Y-143153571D01*
X104500000Y-144082143D02*
X105642857Y-144082143D01*
X106285714Y-144225000D02*
X107000000Y-144225000D01*
X106142857Y-144653571D02*
X106642857Y-143153571D01*
X107142857Y-144653571D01*
X107642857Y-144653571D02*
X107642857Y-143153571D01*
X108000000Y-143153571D01*
X108214285Y-143225000D01*
X108357143Y-143367857D01*
X108428571Y-143510714D01*
X108500000Y-143796429D01*
X108500000Y-144010714D01*
X108428571Y-144296429D01*
X108357143Y-144439286D01*
X108214285Y-144582143D01*
X108000000Y-144653571D01*
X107642857Y-144653571D01*
X109142857Y-144653571D02*
X109142857Y-143153571D01*
X109142857Y-143867857D02*
X110000000Y-143867857D01*
X110000000Y-144653571D02*
X110000000Y-143153571D01*
X110714286Y-143867857D02*
X111214286Y-143867857D01*
X111428572Y-144653571D02*
X110714286Y-144653571D01*
X110714286Y-143153571D01*
X111428572Y-143153571D01*
X112000000Y-144582143D02*
X112214286Y-144653571D01*
X112571429Y-144653571D01*
X112714286Y-144582143D01*
X112785715Y-144510714D01*
X112857143Y-144367857D01*
X112857143Y-144225000D01*
X112785715Y-144082143D01*
X112714286Y-144010714D01*
X112571429Y-143939286D01*
X112285715Y-143867857D01*
X112142857Y-143796429D01*
X112071429Y-143725000D01*
X112000000Y-143582143D01*
X112000000Y-143439286D01*
X112071429Y-143296429D01*
X112142857Y-143225000D01*
X112285715Y-143153571D01*
X112642857Y-143153571D01*
X112857143Y-143225000D01*
X113500000Y-144653571D02*
X113500000Y-143153571D01*
X114000000Y-143153571D02*
X114500000Y-144653571D01*
X115000000Y-143153571D01*
X115500000Y-143867857D02*
X116000000Y-143867857D01*
X116214286Y-144653571D02*
X115500000Y-144653571D01*
X115500000Y-143153571D01*
X116214286Y-143153571D01*
X118000000Y-144653571D02*
X118000000Y-143153571D01*
X118571428Y-143153571D01*
X118714286Y-143225000D01*
X118785714Y-143296429D01*
X118857143Y-143439286D01*
X118857143Y-143653571D01*
X118785714Y-143796429D01*
X118714286Y-143867857D01*
X118571428Y-143939286D01*
X118000000Y-143939286D01*
X119785714Y-143153571D02*
X120071428Y-143153571D01*
X120214286Y-143225000D01*
X120357143Y-143367857D01*
X120428571Y-143653571D01*
X120428571Y-144153571D01*
X120357143Y-144439286D01*
X120214286Y-144582143D01*
X120071428Y-144653571D01*
X119785714Y-144653571D01*
X119642857Y-144582143D01*
X119500000Y-144439286D01*
X119428571Y-144153571D01*
X119428571Y-143653571D01*
X119500000Y-143367857D01*
X119642857Y-143225000D01*
X119785714Y-143153571D01*
X121785715Y-144653571D02*
X121071429Y-144653571D01*
X121071429Y-143153571D01*
X122571429Y-143939286D02*
X122571429Y-144653571D01*
X122071429Y-143153571D02*
X122571429Y-143939286D01*
X123071429Y-143153571D01*
X123571429Y-143153571D02*
X123571429Y-144367857D01*
X123642857Y-144510714D01*
X123714286Y-144582143D01*
X123857143Y-144653571D01*
X124142857Y-144653571D01*
X124285715Y-144582143D01*
X124357143Y-144510714D01*
X124428572Y-144367857D01*
X124428572Y-143153571D01*
X126000001Y-144653571D02*
X125500001Y-143939286D01*
X125142858Y-144653571D02*
X125142858Y-143153571D01*
X125714286Y-143153571D01*
X125857144Y-143225000D01*
X125928572Y-143296429D01*
X126000001Y-143439286D01*
X126000001Y-143653571D01*
X125928572Y-143796429D01*
X125857144Y-143867857D01*
X125714286Y-143939286D01*
X125142858Y-143939286D01*
X126642858Y-143867857D02*
X127142858Y-143867857D01*
X127357144Y-144653571D02*
X126642858Y-144653571D01*
X126642858Y-143153571D01*
X127357144Y-143153571D01*
X127785715Y-143153571D02*
X128642858Y-143153571D01*
X128214287Y-144653571D02*
X128214287Y-143153571D01*
X129142858Y-144653571D02*
X129142858Y-143153571D01*
X129142858Y-143867857D02*
X130000001Y-143867857D01*
X130000001Y-144653571D02*
X130000001Y-143153571D01*
X130642858Y-144225000D02*
X131357144Y-144225000D01*
X130500001Y-144653571D02*
X131000001Y-143153571D01*
X131500001Y-144653571D01*
X132000001Y-144653571D02*
X132000001Y-143153571D01*
X132857144Y-144653571D01*
X132857144Y-143153571D01*
X133571430Y-143867857D02*
X134071430Y-143867857D01*
X134285716Y-144653571D02*
X133571430Y-144653571D01*
X133571430Y-143153571D01*
X134285716Y-143153571D01*
X136571430Y-143867857D02*
X136785716Y-143939286D01*
X136857144Y-144010714D01*
X136928573Y-144153571D01*
X136928573Y-144367857D01*
X136857144Y-144510714D01*
X136785716Y-144582143D01*
X136642858Y-144653571D01*
X136071430Y-144653571D01*
X136071430Y-143153571D01*
X136571430Y-143153571D01*
X136714287Y-143225000D01*
X136785716Y-143296429D01*
X136857144Y-143439286D01*
X136857144Y-143582143D01*
X136785716Y-143725000D01*
X136714287Y-143796429D01*
X136571430Y-143867857D01*
X136071430Y-143867857D01*
X137571430Y-143153571D02*
X137571430Y-144367857D01*
X137642858Y-144510714D01*
X137714287Y-144582143D01*
X137857144Y-144653571D01*
X138142858Y-144653571D01*
X138285716Y-144582143D01*
X138357144Y-144510714D01*
X138428573Y-144367857D01*
X138428573Y-143153571D01*
X139142859Y-144653571D02*
X139142859Y-143153571D01*
X139642859Y-144225000D01*
X140142859Y-143153571D01*
X140142859Y-144653571D01*
X140857145Y-144653571D02*
X140857145Y-143153571D01*
X141428573Y-143153571D01*
X141571431Y-143225000D01*
X141642859Y-143296429D01*
X141714288Y-143439286D01*
X141714288Y-143653571D01*
X141642859Y-143796429D01*
X141571431Y-143867857D01*
X141428573Y-143939286D01*
X140857145Y-143939286D01*
X142357145Y-143867857D02*
X142857145Y-143867857D01*
X143071431Y-144653571D02*
X142357145Y-144653571D01*
X142357145Y-143153571D01*
X143071431Y-143153571D01*
X144571431Y-144653571D02*
X144071431Y-143939286D01*
X143714288Y-144653571D02*
X143714288Y-143153571D01*
X144285716Y-143153571D01*
X144428574Y-143225000D01*
X144500002Y-143296429D01*
X144571431Y-143439286D01*
X144571431Y-143653571D01*
X144500002Y-143796429D01*
X144428574Y-143867857D01*
X144285716Y-143939286D01*
X143714288Y-143939286D01*
X145142859Y-144582143D02*
X145357145Y-144653571D01*
X145714288Y-144653571D01*
X145857145Y-144582143D01*
X145928574Y-144510714D01*
X146000002Y-144367857D01*
X146000002Y-144225000D01*
X145928574Y-144082143D01*
X145857145Y-144010714D01*
X145714288Y-143939286D01*
X145428574Y-143867857D01*
X145285716Y-143796429D01*
X145214288Y-143725000D01*
X145142859Y-143582143D01*
X145142859Y-143439286D01*
X145214288Y-143296429D01*
X145285716Y-143225000D01*
X145428574Y-143153571D01*
X145785716Y-143153571D01*
X146000002Y-143225000D01*
X147571430Y-143153571D02*
X148428573Y-143153571D01*
X148000002Y-144653571D02*
X148000002Y-143153571D01*
X149214287Y-143153571D02*
X149500001Y-143153571D01*
X149642859Y-143225000D01*
X149785716Y-143367857D01*
X149857144Y-143653571D01*
X149857144Y-144153571D01*
X149785716Y-144439286D01*
X149642859Y-144582143D01*
X149500001Y-144653571D01*
X149214287Y-144653571D01*
X149071430Y-144582143D01*
X148928573Y-144439286D01*
X148857144Y-144153571D01*
X148857144Y-143653571D01*
X148928573Y-143367857D01*
X149071430Y-143225000D01*
X149214287Y-143153571D01*
X152142859Y-143867857D02*
X152357145Y-143939286D01*
X152428573Y-144010714D01*
X152500002Y-144153571D01*
X152500002Y-144367857D01*
X152428573Y-144510714D01*
X152357145Y-144582143D01*
X152214287Y-144653571D01*
X151642859Y-144653571D01*
X151642859Y-143153571D01*
X152142859Y-143153571D01*
X152285716Y-143225000D01*
X152357145Y-143296429D01*
X152428573Y-143439286D01*
X152428573Y-143582143D01*
X152357145Y-143725000D01*
X152285716Y-143796429D01*
X152142859Y-143867857D01*
X151642859Y-143867857D01*
X153142859Y-143867857D02*
X153642859Y-143867857D01*
X153857145Y-144653571D02*
X153142859Y-144653571D01*
X153142859Y-143153571D01*
X153857145Y-143153571D01*
X155571430Y-144225000D02*
X156285716Y-144225000D01*
X155428573Y-144653571D02*
X155928573Y-143153571D01*
X156428573Y-144653571D01*
X156928573Y-144653571D02*
X156928573Y-143153571D01*
X157500001Y-143153571D01*
X157642859Y-143225000D01*
X157714287Y-143296429D01*
X157785716Y-143439286D01*
X157785716Y-143653571D01*
X157714287Y-143796429D01*
X157642859Y-143867857D01*
X157500001Y-143939286D01*
X156928573Y-143939286D01*
X158428573Y-144653571D02*
X158428573Y-143153571D01*
X159000001Y-143153571D01*
X159142859Y-143225000D01*
X159214287Y-143296429D01*
X159285716Y-143439286D01*
X159285716Y-143653571D01*
X159214287Y-143796429D01*
X159142859Y-143867857D01*
X159000001Y-143939286D01*
X158428573Y-143939286D01*
X160642859Y-144653571D02*
X159928573Y-144653571D01*
X159928573Y-143153571D01*
X161142859Y-144653571D02*
X161142859Y-143153571D01*
X161857145Y-143867857D02*
X162357145Y-143867857D01*
X162571431Y-144653571D02*
X161857145Y-144653571D01*
X161857145Y-143153571D01*
X162571431Y-143153571D01*
X163214288Y-144653571D02*
X163214288Y-143153571D01*
X163571431Y-143153571D01*
X163785716Y-143225000D01*
X163928574Y-143367857D01*
X164000002Y-143510714D01*
X164071431Y-143796429D01*
X164071431Y-144010714D01*
X164000002Y-144296429D01*
X163928574Y-144439286D01*
X163785716Y-144582143D01*
X163571431Y-144653571D01*
X163214288Y-144653571D01*
X165785716Y-144225000D02*
X166500002Y-144225000D01*
X165642859Y-144653571D02*
X166142859Y-143153571D01*
X166642859Y-144653571D01*
X167071430Y-144582143D02*
X167285716Y-144653571D01*
X167642859Y-144653571D01*
X167785716Y-144582143D01*
X167857145Y-144510714D01*
X167928573Y-144367857D01*
X167928573Y-144225000D01*
X167857145Y-144082143D01*
X167785716Y-144010714D01*
X167642859Y-143939286D01*
X167357145Y-143867857D01*
X167214287Y-143796429D01*
X167142859Y-143725000D01*
X167071430Y-143582143D01*
X167071430Y-143439286D01*
X167142859Y-143296429D01*
X167214287Y-143225000D01*
X167357145Y-143153571D01*
X167714287Y-143153571D01*
X167928573Y-143225000D01*
X169642858Y-144582143D02*
X169857144Y-144653571D01*
X170214287Y-144653571D01*
X170357144Y-144582143D01*
X170428573Y-144510714D01*
X170500001Y-144367857D01*
X170500001Y-144225000D01*
X170428573Y-144082143D01*
X170357144Y-144010714D01*
X170214287Y-143939286D01*
X169928573Y-143867857D01*
X169785715Y-143796429D01*
X169714287Y-143725000D01*
X169642858Y-143582143D01*
X169642858Y-143439286D01*
X169714287Y-143296429D01*
X169785715Y-143225000D01*
X169928573Y-143153571D01*
X170285715Y-143153571D01*
X170500001Y-143225000D01*
X171142858Y-144653571D02*
X171142858Y-143153571D01*
X171142858Y-143867857D02*
X172000001Y-143867857D01*
X172000001Y-144653571D02*
X172000001Y-143153571D01*
X173000001Y-143153571D02*
X173285715Y-143153571D01*
X173428573Y-143225000D01*
X173571430Y-143367857D01*
X173642858Y-143653571D01*
X173642858Y-144153571D01*
X173571430Y-144439286D01*
X173428573Y-144582143D01*
X173285715Y-144653571D01*
X173000001Y-144653571D01*
X172857144Y-144582143D01*
X172714287Y-144439286D01*
X172642858Y-144153571D01*
X172642858Y-143653571D01*
X172714287Y-143367857D01*
X172857144Y-143225000D01*
X173000001Y-143153571D01*
X174142859Y-143153571D02*
X174500002Y-144653571D01*
X174785716Y-143582143D01*
X175071430Y-144653571D01*
X175428573Y-143153571D01*
X176000002Y-144653571D02*
X176000002Y-143153571D01*
X176857145Y-144653571D01*
X176857145Y-143153571D01*
X178642859Y-144225000D02*
X179357145Y-144225000D01*
X178500002Y-144653571D02*
X179000002Y-143153571D01*
X179500002Y-144653571D01*
X180500002Y-143867857D02*
X180000002Y-143867857D01*
X180000002Y-144653571D02*
X180000002Y-143153571D01*
X180714288Y-143153571D01*
X181071430Y-143153571D02*
X181928573Y-143153571D01*
X181500002Y-144653571D02*
X181500002Y-143153571D01*
X182428573Y-143867857D02*
X182928573Y-143867857D01*
X183142859Y-144653571D02*
X182428573Y-144653571D01*
X182428573Y-143153571D01*
X183142859Y-143153571D01*
X184642859Y-144653571D02*
X184142859Y-143939286D01*
X183785716Y-144653571D02*
X183785716Y-143153571D01*
X184357144Y-143153571D01*
X184500002Y-143225000D01*
X184571430Y-143296429D01*
X184642859Y-143439286D01*
X184642859Y-143653571D01*
X184571430Y-143796429D01*
X184500002Y-143867857D01*
X184357144Y-143939286D01*
X183785716Y-143939286D01*
X186357144Y-144225000D02*
X187071430Y-144225000D01*
X186214287Y-144653571D02*
X186714287Y-143153571D01*
X187214287Y-144653571D01*
X187642858Y-144582143D02*
X187857144Y-144653571D01*
X188214287Y-144653571D01*
X188357144Y-144582143D01*
X188428573Y-144510714D01*
X188500001Y-144367857D01*
X188500001Y-144225000D01*
X188428573Y-144082143D01*
X188357144Y-144010714D01*
X188214287Y-143939286D01*
X187928573Y-143867857D01*
X187785715Y-143796429D01*
X187714287Y-143725000D01*
X187642858Y-143582143D01*
X187642858Y-143439286D01*
X187714287Y-143296429D01*
X187785715Y-143225000D01*
X187928573Y-143153571D01*
X188285715Y-143153571D01*
X188500001Y-143225000D01*
X189071429Y-144582143D02*
X189285715Y-144653571D01*
X189642858Y-144653571D01*
X189785715Y-144582143D01*
X189857144Y-144510714D01*
X189928572Y-144367857D01*
X189928572Y-144225000D01*
X189857144Y-144082143D01*
X189785715Y-144010714D01*
X189642858Y-143939286D01*
X189357144Y-143867857D01*
X189214286Y-143796429D01*
X189142858Y-143725000D01*
X189071429Y-143582143D01*
X189071429Y-143439286D01*
X189142858Y-143296429D01*
X189214286Y-143225000D01*
X189357144Y-143153571D01*
X189714286Y-143153571D01*
X189928572Y-143225000D01*
X190571429Y-143867857D02*
X191071429Y-143867857D01*
X191285715Y-144653571D02*
X190571429Y-144653571D01*
X190571429Y-143153571D01*
X191285715Y-143153571D01*
X191928572Y-144653571D02*
X191928572Y-143153571D01*
X192428572Y-144225000D01*
X192928572Y-143153571D01*
X192928572Y-144653571D01*
X194142858Y-143867857D02*
X194357144Y-143939286D01*
X194428572Y-144010714D01*
X194500001Y-144153571D01*
X194500001Y-144367857D01*
X194428572Y-144510714D01*
X194357144Y-144582143D01*
X194214286Y-144653571D01*
X193642858Y-144653571D01*
X193642858Y-143153571D01*
X194142858Y-143153571D01*
X194285715Y-143225000D01*
X194357144Y-143296429D01*
X194428572Y-143439286D01*
X194428572Y-143582143D01*
X194357144Y-143725000D01*
X194285715Y-143796429D01*
X194142858Y-143867857D01*
X193642858Y-143867857D01*
X195857144Y-144653571D02*
X195142858Y-144653571D01*
X195142858Y-143153571D01*
X196642858Y-143939286D02*
X196642858Y-144653571D01*
X196142858Y-143153571D02*
X196642858Y-143939286D01*
X197142858Y-143153571D01*
X114004270Y-105535714D02*
X113932841Y-105607143D01*
X113718555Y-105678571D01*
X113575698Y-105678571D01*
X113361413Y-105607143D01*
X113218555Y-105464286D01*
X113147127Y-105321429D01*
X113075698Y-105035714D01*
X113075698Y-104821429D01*
X113147127Y-104535714D01*
X113218555Y-104392857D01*
X113361413Y-104250000D01*
X113575698Y-104178571D01*
X113718555Y-104178571D01*
X113932841Y-104250000D01*
X114004270Y-104321429D01*
X114932841Y-104178571D02*
X115218555Y-104178571D01*
X115361413Y-104250000D01*
X115504270Y-104392857D01*
X115575698Y-104678571D01*
X115575698Y-105178571D01*
X115504270Y-105464286D01*
X115361413Y-105607143D01*
X115218555Y-105678571D01*
X114932841Y-105678571D01*
X114789984Y-105607143D01*
X114647127Y-105464286D01*
X114575698Y-105178571D01*
X114575698Y-104678571D01*
X114647127Y-104392857D01*
X114789984Y-104250000D01*
X114932841Y-104178571D01*
X116218556Y-105678571D02*
X116218556Y-104178571D01*
X116718556Y-105250000D01*
X117218556Y-104178571D01*
X117218556Y-105678571D01*
X117932842Y-105678571D02*
X117932842Y-104178571D01*
X118504270Y-104178571D01*
X118647128Y-104250000D01*
X118718556Y-104321429D01*
X118789985Y-104464286D01*
X118789985Y-104678571D01*
X118718556Y-104821429D01*
X118647128Y-104892857D01*
X118504270Y-104964286D01*
X117932842Y-104964286D01*
X119718556Y-104178571D02*
X120004270Y-104178571D01*
X120147128Y-104250000D01*
X120289985Y-104392857D01*
X120361413Y-104678571D01*
X120361413Y-105178571D01*
X120289985Y-105464286D01*
X120147128Y-105607143D01*
X120004270Y-105678571D01*
X119718556Y-105678571D01*
X119575699Y-105607143D01*
X119432842Y-105464286D01*
X119361413Y-105178571D01*
X119361413Y-104678571D01*
X119432842Y-104392857D01*
X119575699Y-104250000D01*
X119718556Y-104178571D01*
X121004271Y-105678571D02*
X121004271Y-104178571D01*
X121861414Y-105678571D01*
X121861414Y-104178571D01*
X122575700Y-104892857D02*
X123075700Y-104892857D01*
X123289986Y-105678571D02*
X122575700Y-105678571D01*
X122575700Y-104178571D01*
X123289986Y-104178571D01*
X123932843Y-105678571D02*
X123932843Y-104178571D01*
X124789986Y-105678571D01*
X124789986Y-104178571D01*
X125289986Y-104178571D02*
X126147129Y-104178571D01*
X125718558Y-105678571D02*
X125718558Y-104178571D01*
X127789986Y-105678571D02*
X127789986Y-104178571D01*
X128361414Y-104178571D01*
X128504272Y-104250000D01*
X128575700Y-104321429D01*
X128647129Y-104464286D01*
X128647129Y-104678571D01*
X128575700Y-104821429D01*
X128504272Y-104892857D01*
X128361414Y-104964286D01*
X127789986Y-104964286D01*
X129575700Y-104178571D02*
X129861414Y-104178571D01*
X130004272Y-104250000D01*
X130147129Y-104392857D01*
X130218557Y-104678571D01*
X130218557Y-105178571D01*
X130147129Y-105464286D01*
X130004272Y-105607143D01*
X129861414Y-105678571D01*
X129575700Y-105678571D01*
X129432843Y-105607143D01*
X129289986Y-105464286D01*
X129218557Y-105178571D01*
X129218557Y-104678571D01*
X129289986Y-104392857D01*
X129432843Y-104250000D01*
X129575700Y-104178571D01*
X130789986Y-105607143D02*
X131004272Y-105678571D01*
X131361415Y-105678571D01*
X131504272Y-105607143D01*
X131575701Y-105535714D01*
X131647129Y-105392857D01*
X131647129Y-105250000D01*
X131575701Y-105107143D01*
X131504272Y-105035714D01*
X131361415Y-104964286D01*
X131075701Y-104892857D01*
X130932843Y-104821429D01*
X130861415Y-104750000D01*
X130789986Y-104607143D01*
X130789986Y-104464286D01*
X130861415Y-104321429D01*
X130932843Y-104250000D01*
X131075701Y-104178571D01*
X131432843Y-104178571D01*
X131647129Y-104250000D01*
X132289986Y-105678571D02*
X132289986Y-104178571D01*
X132789986Y-104178571D02*
X133647129Y-104178571D01*
X133218558Y-105678571D02*
X133218558Y-104178571D01*
X134147129Y-105678571D02*
X134147129Y-104178571D01*
X135147129Y-104178571D02*
X135432843Y-104178571D01*
X135575701Y-104250000D01*
X135718558Y-104392857D01*
X135789986Y-104678571D01*
X135789986Y-105178571D01*
X135718558Y-105464286D01*
X135575701Y-105607143D01*
X135432843Y-105678571D01*
X135147129Y-105678571D01*
X135004272Y-105607143D01*
X134861415Y-105464286D01*
X134789986Y-105178571D01*
X134789986Y-104678571D01*
X134861415Y-104392857D01*
X135004272Y-104250000D01*
X135147129Y-104178571D01*
X136432844Y-105678571D02*
X136432844Y-104178571D01*
X137289987Y-105678571D01*
X137289987Y-104178571D01*
X139432844Y-104178571D02*
X139718558Y-104178571D01*
X139861416Y-104250000D01*
X140004273Y-104392857D01*
X140075701Y-104678571D01*
X140075701Y-105178571D01*
X140004273Y-105464286D01*
X139861416Y-105607143D01*
X139718558Y-105678571D01*
X139432844Y-105678571D01*
X139289987Y-105607143D01*
X139147130Y-105464286D01*
X139075701Y-105178571D01*
X139075701Y-104678571D01*
X139147130Y-104392857D01*
X139289987Y-104250000D01*
X139432844Y-104178571D01*
X141575702Y-105678571D02*
X141075702Y-104964286D01*
X140718559Y-105678571D02*
X140718559Y-104178571D01*
X141289987Y-104178571D01*
X141432845Y-104250000D01*
X141504273Y-104321429D01*
X141575702Y-104464286D01*
X141575702Y-104678571D01*
X141504273Y-104821429D01*
X141432845Y-104892857D01*
X141289987Y-104964286D01*
X140718559Y-104964286D01*
X142218559Y-105678571D02*
X142218559Y-104178571D01*
X143718559Y-104250000D02*
X143575702Y-104178571D01*
X143361416Y-104178571D01*
X143147131Y-104250000D01*
X143004273Y-104392857D01*
X142932845Y-104535714D01*
X142861416Y-104821429D01*
X142861416Y-105035714D01*
X142932845Y-105321429D01*
X143004273Y-105464286D01*
X143147131Y-105607143D01*
X143361416Y-105678571D01*
X143504273Y-105678571D01*
X143718559Y-105607143D01*
X143789988Y-105535714D01*
X143789988Y-105035714D01*
X143504273Y-105035714D01*
X144432845Y-105678571D02*
X144432845Y-104178571D01*
X145147131Y-105678571D02*
X145147131Y-104178571D01*
X146004274Y-105678571D01*
X146004274Y-104178571D01*
X57750000Y-89178571D02*
X58250000Y-90678571D01*
X58750000Y-89178571D01*
X59250000Y-90107143D02*
X60392857Y-90107143D01*
X61035714Y-90607143D02*
X61250000Y-90678571D01*
X61607143Y-90678571D01*
X61750000Y-90607143D01*
X61821429Y-90535714D01*
X61892857Y-90392857D01*
X61892857Y-90250000D01*
X61821429Y-90107143D01*
X61750000Y-90035714D01*
X61607143Y-89964286D01*
X61321429Y-89892857D01*
X61178571Y-89821429D01*
X61107143Y-89750000D01*
X61035714Y-89607143D01*
X61035714Y-89464286D01*
X61107143Y-89321429D01*
X61178571Y-89250000D01*
X61321429Y-89178571D01*
X61678571Y-89178571D01*
X61892857Y-89250000D01*
X63392857Y-90535714D02*
X63321428Y-90607143D01*
X63107142Y-90678571D01*
X62964285Y-90678571D01*
X62750000Y-90607143D01*
X62607142Y-90464286D01*
X62535714Y-90321429D01*
X62464285Y-90035714D01*
X62464285Y-89821429D01*
X62535714Y-89535714D01*
X62607142Y-89392857D01*
X62750000Y-89250000D01*
X62964285Y-89178571D01*
X63107142Y-89178571D01*
X63321428Y-89250000D01*
X63392857Y-89321429D01*
X64321428Y-89178571D02*
X64607142Y-89178571D01*
X64750000Y-89250000D01*
X64892857Y-89392857D01*
X64964285Y-89678571D01*
X64964285Y-90178571D01*
X64892857Y-90464286D01*
X64750000Y-90607143D01*
X64607142Y-90678571D01*
X64321428Y-90678571D01*
X64178571Y-90607143D01*
X64035714Y-90464286D01*
X63964285Y-90178571D01*
X63964285Y-89678571D01*
X64035714Y-89392857D01*
X64178571Y-89250000D01*
X64321428Y-89178571D01*
X66464286Y-90678571D02*
X65964286Y-89964286D01*
X65607143Y-90678571D02*
X65607143Y-89178571D01*
X66178571Y-89178571D01*
X66321429Y-89250000D01*
X66392857Y-89321429D01*
X66464286Y-89464286D01*
X66464286Y-89678571D01*
X66392857Y-89821429D01*
X66321429Y-89892857D01*
X66178571Y-89964286D01*
X65607143Y-89964286D01*
X67107143Y-89892857D02*
X67607143Y-89892857D01*
X67821429Y-90678571D02*
X67107143Y-90678571D01*
X67107143Y-89178571D01*
X67821429Y-89178571D01*
X69607143Y-90678571D02*
X69607143Y-89178571D01*
X70178571Y-89178571D01*
X70321429Y-89250000D01*
X70392857Y-89321429D01*
X70464286Y-89464286D01*
X70464286Y-89678571D01*
X70392857Y-89821429D01*
X70321429Y-89892857D01*
X70178571Y-89964286D01*
X69607143Y-89964286D01*
X71035714Y-90250000D02*
X71750000Y-90250000D01*
X70892857Y-90678571D02*
X71392857Y-89178571D01*
X71892857Y-90678571D01*
X73250000Y-90678571D02*
X72750000Y-89964286D01*
X72392857Y-90678571D02*
X72392857Y-89178571D01*
X72964285Y-89178571D01*
X73107143Y-89250000D01*
X73178571Y-89321429D01*
X73250000Y-89464286D01*
X73250000Y-89678571D01*
X73178571Y-89821429D01*
X73107143Y-89892857D01*
X72964285Y-89964286D01*
X72392857Y-89964286D01*
X73821428Y-90250000D02*
X74535714Y-90250000D01*
X73678571Y-90678571D02*
X74178571Y-89178571D01*
X74678571Y-90678571D01*
X75892857Y-90678571D02*
X75178571Y-90678571D01*
X75178571Y-89178571D01*
X77107143Y-90678571D02*
X76392857Y-90678571D01*
X76392857Y-89178571D01*
X77607143Y-89892857D02*
X78107143Y-89892857D01*
X78321429Y-90678571D02*
X77607143Y-90678571D01*
X77607143Y-89178571D01*
X78321429Y-89178571D01*
X79678572Y-90678571D02*
X78964286Y-90678571D01*
X78964286Y-89178571D01*
X81250000Y-90607143D02*
X81464286Y-90678571D01*
X81821429Y-90678571D01*
X81964286Y-90607143D01*
X82035715Y-90535714D01*
X82107143Y-90392857D01*
X82107143Y-90250000D01*
X82035715Y-90107143D01*
X81964286Y-90035714D01*
X81821429Y-89964286D01*
X81535715Y-89892857D01*
X81392857Y-89821429D01*
X81321429Y-89750000D01*
X81250000Y-89607143D01*
X81250000Y-89464286D01*
X81321429Y-89321429D01*
X81392857Y-89250000D01*
X81535715Y-89178571D01*
X81892857Y-89178571D01*
X82107143Y-89250000D01*
X82750000Y-90678571D02*
X82750000Y-89178571D01*
X83464286Y-90678571D02*
X83464286Y-89178571D01*
X83821429Y-89178571D01*
X84035714Y-89250000D01*
X84178572Y-89392857D01*
X84250000Y-89535714D01*
X84321429Y-89821429D01*
X84321429Y-90035714D01*
X84250000Y-90321429D01*
X84178572Y-90464286D01*
X84035714Y-90607143D01*
X83821429Y-90678571D01*
X83464286Y-90678571D01*
X84964286Y-89892857D02*
X85464286Y-89892857D01*
X85678572Y-90678571D02*
X84964286Y-90678571D01*
X84964286Y-89178571D01*
X85678572Y-89178571D01*
X86250000Y-90607143D02*
X86464286Y-90678571D01*
X86821429Y-90678571D01*
X86964286Y-90607143D01*
X87035715Y-90535714D01*
X87107143Y-90392857D01*
X87107143Y-90250000D01*
X87035715Y-90107143D01*
X86964286Y-90035714D01*
X86821429Y-89964286D01*
X86535715Y-89892857D01*
X86392857Y-89821429D01*
X86321429Y-89750000D01*
X86250000Y-89607143D01*
X86250000Y-89464286D01*
X86321429Y-89321429D01*
X86392857Y-89250000D01*
X86535715Y-89178571D01*
X86892857Y-89178571D01*
X87107143Y-89250000D01*
X160749999Y-46903571D02*
X160249999Y-46189286D01*
X159892856Y-46903571D02*
X159892856Y-45403571D01*
X160464284Y-45403571D01*
X160607142Y-45475000D01*
X160678570Y-45546429D01*
X160749999Y-45689286D01*
X160749999Y-45903571D01*
X160678570Y-46046429D01*
X160607142Y-46117857D01*
X160464284Y-46189286D01*
X159892856Y-46189286D01*
X161678570Y-45403571D02*
X161964284Y-45403571D01*
X162107142Y-45475000D01*
X162249999Y-45617857D01*
X162321427Y-45903571D01*
X162321427Y-46403571D01*
X162249999Y-46689286D01*
X162107142Y-46832143D01*
X161964284Y-46903571D01*
X161678570Y-46903571D01*
X161535713Y-46832143D01*
X161392856Y-46689286D01*
X161321427Y-46403571D01*
X161321427Y-45903571D01*
X161392856Y-45617857D01*
X161535713Y-45475000D01*
X161678570Y-45403571D01*
X162964285Y-45403571D02*
X162964285Y-46617857D01*
X163035713Y-46760714D01*
X163107142Y-46832143D01*
X163249999Y-46903571D01*
X163535713Y-46903571D01*
X163678571Y-46832143D01*
X163749999Y-46760714D01*
X163821428Y-46617857D01*
X163821428Y-45403571D01*
X164321428Y-45403571D02*
X165178571Y-45403571D01*
X164750000Y-46903571D02*
X164750000Y-45403571D01*
X165678571Y-46117857D02*
X166178571Y-46117857D01*
X166392857Y-46903571D02*
X165678571Y-46903571D01*
X165678571Y-45403571D01*
X166392857Y-45403571D01*
X168678571Y-46117857D02*
X168892857Y-46189286D01*
X168964285Y-46260714D01*
X169035714Y-46403571D01*
X169035714Y-46617857D01*
X168964285Y-46760714D01*
X168892857Y-46832143D01*
X168749999Y-46903571D01*
X168178571Y-46903571D01*
X168178571Y-45403571D01*
X168678571Y-45403571D01*
X168821428Y-45475000D01*
X168892857Y-45546429D01*
X168964285Y-45689286D01*
X168964285Y-45832143D01*
X168892857Y-45975000D01*
X168821428Y-46046429D01*
X168678571Y-46117857D01*
X168178571Y-46117857D01*
X169964285Y-45403571D02*
X170249999Y-45403571D01*
X170392857Y-45475000D01*
X170535714Y-45617857D01*
X170607142Y-45903571D01*
X170607142Y-46403571D01*
X170535714Y-46689286D01*
X170392857Y-46832143D01*
X170249999Y-46903571D01*
X169964285Y-46903571D01*
X169821428Y-46832143D01*
X169678571Y-46689286D01*
X169607142Y-46403571D01*
X169607142Y-45903571D01*
X169678571Y-45617857D01*
X169821428Y-45475000D01*
X169964285Y-45403571D01*
X171178571Y-46475000D02*
X171892857Y-46475000D01*
X171035714Y-46903571D02*
X171535714Y-45403571D01*
X172035714Y-46903571D01*
X173392857Y-46903571D02*
X172892857Y-46189286D01*
X172535714Y-46903571D02*
X172535714Y-45403571D01*
X173107142Y-45403571D01*
X173250000Y-45475000D01*
X173321428Y-45546429D01*
X173392857Y-45689286D01*
X173392857Y-45903571D01*
X173321428Y-46046429D01*
X173250000Y-46117857D01*
X173107142Y-46189286D01*
X172535714Y-46189286D01*
X174035714Y-46903571D02*
X174035714Y-45403571D01*
X174392857Y-45403571D01*
X174607142Y-45475000D01*
X174750000Y-45617857D01*
X174821428Y-45760714D01*
X174892857Y-46046429D01*
X174892857Y-46260714D01*
X174821428Y-46546429D01*
X174750000Y-46689286D01*
X174607142Y-46832143D01*
X174392857Y-46903571D01*
X174035714Y-46903571D01*
X176964285Y-45403571D02*
X177249999Y-45403571D01*
X177392857Y-45475000D01*
X177535714Y-45617857D01*
X177607142Y-45903571D01*
X177607142Y-46403571D01*
X177535714Y-46689286D01*
X177392857Y-46832143D01*
X177249999Y-46903571D01*
X176964285Y-46903571D01*
X176821428Y-46832143D01*
X176678571Y-46689286D01*
X176607142Y-46403571D01*
X176607142Y-45903571D01*
X176678571Y-45617857D01*
X176821428Y-45475000D01*
X176964285Y-45403571D01*
X178250000Y-45403571D02*
X178250000Y-46617857D01*
X178321428Y-46760714D01*
X178392857Y-46832143D01*
X178535714Y-46903571D01*
X178821428Y-46903571D01*
X178964286Y-46832143D01*
X179035714Y-46760714D01*
X179107143Y-46617857D01*
X179107143Y-45403571D01*
X179607143Y-45403571D02*
X180464286Y-45403571D01*
X180035715Y-46903571D02*
X180035715Y-45403571D01*
X181678572Y-46903571D02*
X180964286Y-46903571D01*
X180964286Y-45403571D01*
X182178572Y-46903571D02*
X182178572Y-45403571D01*
X182892858Y-46903571D02*
X182892858Y-45403571D01*
X183750001Y-46903571D01*
X183750001Y-45403571D01*
X184464287Y-46117857D02*
X184964287Y-46117857D01*
X185178573Y-46903571D02*
X184464287Y-46903571D01*
X184464287Y-45403571D01*
X185178573Y-45403571D01*
X162142858Y-48667857D02*
X162642858Y-48667857D01*
X162857144Y-49453571D02*
X162142858Y-49453571D01*
X162142858Y-47953571D01*
X162857144Y-47953571D01*
X163357144Y-47953571D02*
X164357144Y-49453571D01*
X164357144Y-47953571D02*
X163357144Y-49453571D01*
X165785715Y-49310714D02*
X165714286Y-49382143D01*
X165500000Y-49453571D01*
X165357143Y-49453571D01*
X165142858Y-49382143D01*
X165000000Y-49239286D01*
X164928572Y-49096429D01*
X164857143Y-48810714D01*
X164857143Y-48596429D01*
X164928572Y-48310714D01*
X165000000Y-48167857D01*
X165142858Y-48025000D01*
X165357143Y-47953571D01*
X165500000Y-47953571D01*
X165714286Y-48025000D01*
X165785715Y-48096429D01*
X166428572Y-48667857D02*
X166928572Y-48667857D01*
X167142858Y-49453571D02*
X166428572Y-49453571D01*
X166428572Y-47953571D01*
X167142858Y-47953571D01*
X167785715Y-49453571D02*
X167785715Y-47953571D01*
X168357143Y-47953571D01*
X168500001Y-48025000D01*
X168571429Y-48096429D01*
X168642858Y-48239286D01*
X168642858Y-48453571D01*
X168571429Y-48596429D01*
X168500001Y-48667857D01*
X168357143Y-48739286D01*
X167785715Y-48739286D01*
X169071429Y-47953571D02*
X169928572Y-47953571D01*
X169500001Y-49453571D02*
X169500001Y-47953571D01*
X171357143Y-47953571D02*
X172214286Y-47953571D01*
X171785715Y-49453571D02*
X171785715Y-47953571D01*
X172571429Y-47953571D02*
X172928572Y-49453571D01*
X173214286Y-48382143D01*
X173500000Y-49453571D01*
X173857143Y-47953571D01*
X174714286Y-47953571D02*
X175000000Y-47953571D01*
X175142858Y-48025000D01*
X175285715Y-48167857D01*
X175357143Y-48453571D01*
X175357143Y-48953571D01*
X175285715Y-49239286D01*
X175142858Y-49382143D01*
X175000000Y-49453571D01*
X174714286Y-49453571D01*
X174571429Y-49382143D01*
X174428572Y-49239286D01*
X174357143Y-48953571D01*
X174357143Y-48453571D01*
X174428572Y-48167857D01*
X174571429Y-48025000D01*
X174714286Y-47953571D01*
X177071429Y-49382143D02*
X177285715Y-49453571D01*
X177642858Y-49453571D01*
X177785715Y-49382143D01*
X177857144Y-49310714D01*
X177928572Y-49167857D01*
X177928572Y-49025000D01*
X177857144Y-48882143D01*
X177785715Y-48810714D01*
X177642858Y-48739286D01*
X177357144Y-48667857D01*
X177214286Y-48596429D01*
X177142858Y-48525000D01*
X177071429Y-48382143D01*
X177071429Y-48239286D01*
X177142858Y-48096429D01*
X177214286Y-48025000D01*
X177357144Y-47953571D01*
X177714286Y-47953571D01*
X177928572Y-48025000D01*
X178571429Y-49453571D02*
X178571429Y-47953571D01*
X179285715Y-49453571D02*
X179285715Y-47953571D01*
X179642858Y-47953571D01*
X179857143Y-48025000D01*
X180000001Y-48167857D01*
X180071429Y-48310714D01*
X180142858Y-48596429D01*
X180142858Y-48810714D01*
X180071429Y-49096429D01*
X180000001Y-49239286D01*
X179857143Y-49382143D01*
X179642858Y-49453571D01*
X179285715Y-49453571D01*
X180785715Y-48667857D02*
X181285715Y-48667857D01*
X181500001Y-49453571D02*
X180785715Y-49453571D01*
X180785715Y-47953571D01*
X181500001Y-47953571D01*
X182071429Y-49382143D02*
X182285715Y-49453571D01*
X182642858Y-49453571D01*
X182785715Y-49382143D01*
X182857144Y-49310714D01*
X182928572Y-49167857D01*
X182928572Y-49025000D01*
X182857144Y-48882143D01*
X182785715Y-48810714D01*
X182642858Y-48739286D01*
X182357144Y-48667857D01*
X182214286Y-48596429D01*
X182142858Y-48525000D01*
X182071429Y-48382143D01*
X182071429Y-48239286D01*
X182142858Y-48096429D01*
X182214286Y-48025000D01*
X182357144Y-47953571D01*
X182714286Y-47953571D01*
X182928572Y-48025000D01*
X165250000Y-89178571D02*
X165750000Y-90678571D01*
X166250000Y-89178571D01*
X166750000Y-90107143D02*
X167892857Y-90107143D01*
X168535714Y-90607143D02*
X168750000Y-90678571D01*
X169107143Y-90678571D01*
X169250000Y-90607143D01*
X169321429Y-90535714D01*
X169392857Y-90392857D01*
X169392857Y-90250000D01*
X169321429Y-90107143D01*
X169250000Y-90035714D01*
X169107143Y-89964286D01*
X168821429Y-89892857D01*
X168678571Y-89821429D01*
X168607143Y-89750000D01*
X168535714Y-89607143D01*
X168535714Y-89464286D01*
X168607143Y-89321429D01*
X168678571Y-89250000D01*
X168821429Y-89178571D01*
X169178571Y-89178571D01*
X169392857Y-89250000D01*
X170892857Y-90535714D02*
X170821428Y-90607143D01*
X170607142Y-90678571D01*
X170464285Y-90678571D01*
X170250000Y-90607143D01*
X170107142Y-90464286D01*
X170035714Y-90321429D01*
X169964285Y-90035714D01*
X169964285Y-89821429D01*
X170035714Y-89535714D01*
X170107142Y-89392857D01*
X170250000Y-89250000D01*
X170464285Y-89178571D01*
X170607142Y-89178571D01*
X170821428Y-89250000D01*
X170892857Y-89321429D01*
X171821428Y-89178571D02*
X172107142Y-89178571D01*
X172250000Y-89250000D01*
X172392857Y-89392857D01*
X172464285Y-89678571D01*
X172464285Y-90178571D01*
X172392857Y-90464286D01*
X172250000Y-90607143D01*
X172107142Y-90678571D01*
X171821428Y-90678571D01*
X171678571Y-90607143D01*
X171535714Y-90464286D01*
X171464285Y-90178571D01*
X171464285Y-89678571D01*
X171535714Y-89392857D01*
X171678571Y-89250000D01*
X171821428Y-89178571D01*
X173964286Y-90678571D02*
X173464286Y-89964286D01*
X173107143Y-90678571D02*
X173107143Y-89178571D01*
X173678571Y-89178571D01*
X173821429Y-89250000D01*
X173892857Y-89321429D01*
X173964286Y-89464286D01*
X173964286Y-89678571D01*
X173892857Y-89821429D01*
X173821429Y-89892857D01*
X173678571Y-89964286D01*
X173107143Y-89964286D01*
X174607143Y-89892857D02*
X175107143Y-89892857D01*
X175321429Y-90678571D02*
X174607143Y-90678571D01*
X174607143Y-89178571D01*
X175321429Y-89178571D01*
X177107143Y-90678571D02*
X177107143Y-89178571D01*
X177678571Y-89178571D01*
X177821429Y-89250000D01*
X177892857Y-89321429D01*
X177964286Y-89464286D01*
X177964286Y-89678571D01*
X177892857Y-89821429D01*
X177821429Y-89892857D01*
X177678571Y-89964286D01*
X177107143Y-89964286D01*
X178535714Y-90250000D02*
X179250000Y-90250000D01*
X178392857Y-90678571D02*
X178892857Y-89178571D01*
X179392857Y-90678571D01*
X180750000Y-90678571D02*
X180250000Y-89964286D01*
X179892857Y-90678571D02*
X179892857Y-89178571D01*
X180464285Y-89178571D01*
X180607143Y-89250000D01*
X180678571Y-89321429D01*
X180750000Y-89464286D01*
X180750000Y-89678571D01*
X180678571Y-89821429D01*
X180607143Y-89892857D01*
X180464285Y-89964286D01*
X179892857Y-89964286D01*
X181321428Y-90250000D02*
X182035714Y-90250000D01*
X181178571Y-90678571D02*
X181678571Y-89178571D01*
X182178571Y-90678571D01*
X183392857Y-90678571D02*
X182678571Y-90678571D01*
X182678571Y-89178571D01*
X184607143Y-90678571D02*
X183892857Y-90678571D01*
X183892857Y-89178571D01*
X185107143Y-89892857D02*
X185607143Y-89892857D01*
X185821429Y-90678571D02*
X185107143Y-90678571D01*
X185107143Y-89178571D01*
X185821429Y-89178571D01*
X187178572Y-90678571D02*
X186464286Y-90678571D01*
X186464286Y-89178571D01*
X188750000Y-90607143D02*
X188964286Y-90678571D01*
X189321429Y-90678571D01*
X189464286Y-90607143D01*
X189535715Y-90535714D01*
X189607143Y-90392857D01*
X189607143Y-90250000D01*
X189535715Y-90107143D01*
X189464286Y-90035714D01*
X189321429Y-89964286D01*
X189035715Y-89892857D01*
X188892857Y-89821429D01*
X188821429Y-89750000D01*
X188750000Y-89607143D01*
X188750000Y-89464286D01*
X188821429Y-89321429D01*
X188892857Y-89250000D01*
X189035715Y-89178571D01*
X189392857Y-89178571D01*
X189607143Y-89250000D01*
X190250000Y-90678571D02*
X190250000Y-89178571D01*
X190964286Y-90678571D02*
X190964286Y-89178571D01*
X191321429Y-89178571D01*
X191535714Y-89250000D01*
X191678572Y-89392857D01*
X191750000Y-89535714D01*
X191821429Y-89821429D01*
X191821429Y-90035714D01*
X191750000Y-90321429D01*
X191678572Y-90464286D01*
X191535714Y-90607143D01*
X191321429Y-90678571D01*
X190964286Y-90678571D01*
X192464286Y-89892857D02*
X192964286Y-89892857D01*
X193178572Y-90678571D02*
X192464286Y-90678571D01*
X192464286Y-89178571D01*
X193178572Y-89178571D01*
X193750000Y-90607143D02*
X193964286Y-90678571D01*
X194321429Y-90678571D01*
X194464286Y-90607143D01*
X194535715Y-90535714D01*
X194607143Y-90392857D01*
X194607143Y-90250000D01*
X194535715Y-90107143D01*
X194464286Y-90035714D01*
X194321429Y-89964286D01*
X194035715Y-89892857D01*
X193892857Y-89821429D01*
X193821429Y-89750000D01*
X193750000Y-89607143D01*
X193750000Y-89464286D01*
X193821429Y-89321429D01*
X193892857Y-89250000D01*
X194035715Y-89178571D01*
X194392857Y-89178571D01*
X194607143Y-89250000D01*
D13*
X117761869Y-63452381D02*
X117761869Y-62452381D01*
X117999964Y-62452381D01*
X118142822Y-62500000D01*
X118238060Y-62595238D01*
X118285679Y-62690476D01*
X118333298Y-62880952D01*
X118333298Y-63023810D01*
X118285679Y-63214286D01*
X118238060Y-63309524D01*
X118142822Y-63404762D01*
X117999964Y-63452381D01*
X117761869Y-63452381D01*
X119285679Y-63452381D02*
X118714250Y-63452381D01*
X118999964Y-63452381D02*
X118999964Y-62452381D01*
X118904726Y-62595238D01*
X118809488Y-62690476D01*
X118714250Y-62738095D01*
X117761869Y-66952381D02*
X117761869Y-65952381D01*
X117999964Y-65952381D01*
X118142822Y-66000000D01*
X118238060Y-66095238D01*
X118285679Y-66190476D01*
X118333298Y-66380952D01*
X118333298Y-66523810D01*
X118285679Y-66714286D01*
X118238060Y-66809524D01*
X118142822Y-66904762D01*
X117999964Y-66952381D01*
X117761869Y-66952381D01*
X118714250Y-66047619D02*
X118761869Y-66000000D01*
X118857107Y-65952381D01*
X119095203Y-65952381D01*
X119190441Y-66000000D01*
X119238060Y-66047619D01*
X119285679Y-66142857D01*
X119285679Y-66238095D01*
X119238060Y-66380952D01*
X118666631Y-66952381D01*
X119285679Y-66952381D01*
X117761869Y-70452381D02*
X117761869Y-69452381D01*
X117999964Y-69452381D01*
X118142822Y-69500000D01*
X118238060Y-69595238D01*
X118285679Y-69690476D01*
X118333298Y-69880952D01*
X118333298Y-70023810D01*
X118285679Y-70214286D01*
X118238060Y-70309524D01*
X118142822Y-70404762D01*
X117999964Y-70452381D01*
X117761869Y-70452381D01*
X118666631Y-69452381D02*
X119285679Y-69452381D01*
X118952345Y-69833333D01*
X119095203Y-69833333D01*
X119190441Y-69880952D01*
X119238060Y-69928571D01*
X119285679Y-70023810D01*
X119285679Y-70261905D01*
X119238060Y-70357143D01*
X119190441Y-70404762D01*
X119095203Y-70452381D01*
X118809488Y-70452381D01*
X118714250Y-70404762D01*
X118666631Y-70357143D01*
X117761869Y-73952381D02*
X117761869Y-72952381D01*
X117999964Y-72952381D01*
X118142822Y-73000000D01*
X118238060Y-73095238D01*
X118285679Y-73190476D01*
X118333298Y-73380952D01*
X118333298Y-73523810D01*
X118285679Y-73714286D01*
X118238060Y-73809524D01*
X118142822Y-73904762D01*
X117999964Y-73952381D01*
X117761869Y-73952381D01*
X119190441Y-73285714D02*
X119190441Y-73952381D01*
X118952345Y-72904762D02*
X118714250Y-73619048D01*
X119333298Y-73619048D01*
M02*
