M48
;DRILL file {KiCad 4.0.7-e2-6376~58~ubuntu14.04.1} date Wed May 23 17:07:54 2018
;FORMAT={-:-/ absolute / metric / decimal}
FMAT,2
METRIC,TZ
T1C0.400
%
G90
G05
M71
T1
X112.4Y-67.3
X113.2Y-97.7
X113.7Y-79.6
X113.8Y-91.5
X113.9Y-72.1
X114.5Y-75.7
X115.5Y-80.9
X116.3Y-68.4
X116.6Y-85.7
X117.954Y-77.
X119.227Y-75.727
X119.227Y-78.273
X119.6Y-90.8
X119.9Y-70.4
X120.5Y-67.
X120.5Y-74.454
X120.5Y-77.
X120.5Y-79.546
X120.7Y-62.4
X120.9Y-71.8
X121.Y-84.8
X121.1Y-83.75
X121.2Y-97.6
X121.773Y-75.727
X121.773Y-78.273
X122.Y-67.5
X122.7Y-82.
X123.046Y-77.
X123.4Y-83.5
X124.3Y-64.
X125.1Y-67.6
X125.75Y-76.4
X125.9Y-78.5
X126.1Y-66.8
X126.2Y-91.3
X126.7Y-97.2
X126.9Y-78.5
X127.1Y-59.6
X127.1Y-86.1
X127.3Y-66.8
X127.3Y-81.7
X127.4Y-73.9
X128.Y-71.7
X128.Y-78.5
X128.106Y-70.096
X128.5Y-75.1
X128.5Y-99.2
X129.Y-87.
X129.1Y-74.5
X129.2Y-82.5
X129.3Y-81.
X129.3Y-88.3
X129.6Y-70.1
X130.2Y-84.7
X130.7Y-78.9
X131.9Y-74.
X132.2Y-70.3
X132.3Y-88.3
X132.5Y-80.
X132.5Y-99.2
X133.1Y-74.7
X133.5Y-81.6
X133.9Y-62.7
X134.1Y-82.2
X134.3Y-91.2
X134.3Y-97.2
X134.4Y-66.3
X134.5Y-88.4
X134.7Y-69.8
X135.2Y-61.8
X135.5Y-84.9
X136.3Y-97.7
X136.5Y-70.2
X136.6Y-61.
X136.6Y-66.8
X136.7Y-90.7
X138.8Y-78.7
X139.3Y-59.8
X139.5Y-97.8
X139.8Y-68.
X140.5Y-74.8
X141.7Y-85.6
X141.74Y-91.2
X142.5Y-97.8
X143.2Y-60.
X143.3Y-83.2
X143.7Y-89.5
X144.4Y-63.5
X146.9Y-71.6
X147.1Y-95.6
X148.9Y-85.1
X149.6Y-97.7
X150.5Y-90.8
T0
M30
