<?xml version="1.0" standalone="no"?>
 <!DOCTYPE svg PUBLIC "-//W3C//DTD SVG 1.1//EN" 
 "http://www.w3.org/Graphics/SVG/1.1/DTD/svg11.dtd"> 
<svg xmlns="http://www.w3.org/2000/svg" version="1.1" 
    width="16.5176cm" height="10.0279cm" viewBox="0 0 65030 39480 ">
<title>SVG Picture created as NeuroBytes_NID-brd.svg date 2018/08/08 12:04:50 </title>
  <desc>Picture generated by PCBNEW </desc>
<g style="fill:#000000; fill-opacity:1;stroke:#000000; stroke-opacity:1;
stroke-linecap:round; stroke-linejoin:round; "
 transform="translate(0 0) scale(1 1)">
</g>
<g style="fill:#000000; fill-opacity:0.0; 
stroke:#000000; stroke-width:-0.000393701; stroke-opacity:1; 
stroke-linecap:round; stroke-linejoin:round;">
</g>
<g style="fill:#840000; fill-opacity:0.0; 
stroke:#840000; stroke-width:-0.000393701; stroke-opacity:1; 
stroke-linecap:round; stroke-linejoin:round;">
</g>
<g style="fill:#840000; fill-opacity:0.0; 
stroke:#840000; stroke-width:39.3701; stroke-opacity:1; 
stroke-linecap:round; stroke-linejoin:round;">
<path d="M42589 12273
L42904 12273
" />
<path d="M42589 12903
L42589 12273
" />
<path d="M42904 12903
L42589 12903
" />
<path d="M42904 12273
L42904 12903
" />
<path d="M40108 9478
L40108 9793
" />
<path d="M39478 9478
L40108 9478
" />
<path d="M39478 9793
L39478 9478
" />
<path d="M40108 9793
L39478 9793
" />
<path d="M30896 16368
L31211 16368
" />
<path d="M30896 16998
L30896 16368
" />
<path d="M31211 16998
L30896 16998
" />
<path d="M31211 16368
L31211 16998
" />
<path d="M33415 16368
L33730 16368
" />
<path d="M33415 16998
L33415 16368
" />
<path d="M33730 16998
L33415 16998
" />
<path d="M33730 16368
L33730 16998
" />
<path d="M30108 16368
L30423 16368
" />
<path d="M30108 16998
L30108 16368
" />
<path d="M30423 16998
L30108 16998
" />
<path d="M30423 16368
L30423 16998
" />
<path d="M32628 20856
L32628 21171
" />
<path d="M31998 20856
L32628 20856
" />
<path d="M31998 21171
L31998 20856
" />
<path d="M32628 21171
L31998 21171
" />
<path d="M34045 7785
L33730 7785
" />
<path d="M34045 7155
L34045 7785
" />
<path d="M33730 7155
L34045 7155
" />
<path d="M33730 7785
L33730 7155
" />
<path d="M33258 7785
L32943 7785
" />
<path d="M33258 7155
L33258 7785
" />
<path d="M32943 7155
L33258 7155
" />
<path d="M32943 7785
L32943 7155
" />
<path d="M37982 7785
L37667 7785
" />
<path d="M37982 7155
L37982 7785
" />
<path d="M37667 7155
L37982 7155
" />
<path d="M37667 7785
L37667 7155
" />
</g>
<g style="fill:#840000; fill-opacity:0.0; 
stroke:#840000; stroke-width:59.0551; stroke-opacity:1; 
stroke-linecap:round; stroke-linejoin:round;">
<path d="M34872 10915
L34872 11112
" />
<path d="M34478 10915
L34872 10915
" />
<path d="M34478 11112
L34478 10915
" />
<path d="M34872 11112
L34478 11112
" />
<path d="M38415 8789
L38415 8592
" />
<path d="M38809 8789
L38415 8789
" />
<path d="M38809 8592
L38809 8789
" />
<path d="M38415 8592
L38809 8592
" />
<path d="M35659 11112
L35659 10915
" />
<path d="M36053 11112
L35659 11112
" />
<path d="M36053 10915
L36053 11112
" />
<path d="M35659 10915
L36053 10915
" />
<path d="M29734 16879
L29537 16879
" />
<path d="M29734 16486
L29734 16879
" />
<path d="M29537 16486
L29734 16486
" />
<path d="M29537 16879
L29537 16486
" />
<path d="M39990 10127
L39990 10324
" />
<path d="M39596 10127
L39990 10127
" />
<path d="M39596 10324
L39596 10127
" />
<path d="M39990 10324
L39596 10324
" />
<path d="M42057 12391
L42254 12391
" />
<path d="M42057 12785
L42057 12391
" />
<path d="M42254 12785
L42057 12785
" />
<path d="M42254 12391
L42254 12785
" />
<path d="M38406 14663
L38545 14802
" />
<path d="M38128 14941
L38406 14663
" />
<path d="M38267 15080
L38128 14941
" />
<path d="M38545 14802
L38267 15080
" />
<path d="M37579 13836
L37719 13975
" />
<path d="M37301 14114
L37579 13836
" />
<path d="M37440 14254
L37301 14114
" />
<path d="M37719 13975
L37440 14254
" />
<path d="M39596 15049
L39596 14852
" />
<path d="M39990 15049
L39596 15049
" />
<path d="M39990 14852
L39990 15049
" />
<path d="M39596 14852
L39990 14852
" />
<path d="M36939 12391
L37136 12391
" />
<path d="M36939 12785
L36939 12391
" />
<path d="M37136 12785
L36939 12785
" />
<path d="M37136 12391
L37136 12785
" />
<path d="M40876 10029
L40679 10029
" />
<path d="M40876 9635
L40876 10029
" />
<path d="M40679 9635
L40876 9635
" />
<path d="M40679 10029
L40679 9635
" />
<path d="M33199 19872
L33396 19872
" />
<path d="M33199 20265
L33199 19872
" />
<path d="M33396 20265
L33199 20265
" />
<path d="M33396 19872
L33396 20265
" />
<path d="M37480 15868
L37340 15729
" />
<path d="M37758 15589
L37480 15868
" />
<path d="M37619 15450
L37758 15589
" />
<path d="M37340 15729
L37619 15450
" />
<path d="M38014 10945
L37875 11084
" />
<path d="M37736 10667
L38014 10945
" />
<path d="M37596 10806
L37736 10667
" />
<path d="M37875 11084
L37596 10806
" />
<path d="M32116 19379
L32116 19183
" />
<path d="M32510 19379
L32116 19379
" />
<path d="M32510 19183
L32510 19379
" />
<path d="M32116 19183
L32510 19183
" />
<path d="M37855 14112
L37994 14251
" />
<path d="M37577 14390
L37855 14112
" />
<path d="M37716 14529
L37577 14390
" />
<path d="M37994 14251
L37716 14529
" />
<path d="M38131 14387
L38270 14526
" />
<path d="M37852 14666
L38131 14387
" />
<path d="M37991 14805
L37852 14666
" />
<path d="M38270 14526
L37991 14805
" />
<path d="M39596 9143
L39596 8946
" />
<path d="M39990 9143
L39596 9143
" />
<path d="M39990 8946
L39990 9143
" />
<path d="M39596 8946
L39990 8946
" />
<path d="M38187 10215
L38326 10076
" />
<path d="M38465 10494
L38187 10215
" />
<path d="M38604 10355
L38465 10494
" />
<path d="M38326 10076
L38604 10355
" />
<path d="M37892 10511
L38031 10371
" />
<path d="M38170 10789
L37892 10511
" />
<path d="M38309 10650
L38170 10789
" />
<path d="M38031 10371
L38309 10650
" />
<path d="M37301 11101
L37440 10962
" />
<path d="M37579 11380
L37301 11101
" />
<path d="M37719 11240
L37579 11380
" />
<path d="M37440 10962
L37719 11240
" />
<path d="M36742 12785
L36545 12785
" />
<path d="M36742 12391
L36742 12785
" />
<path d="M36545 12391
L36742 12391
" />
<path d="M36545 12785
L36545 12391
" />
<path d="M37530 12785
L37333 12785
" />
<path d="M37530 12391
L37530 12785
" />
<path d="M37333 12391
L37530 12391
" />
<path d="M37333 12785
L37333 12391
" />
<path d="M32510 18789
L32510 18986
" />
<path d="M32116 18789
L32510 18789
" />
<path d="M32116 18986
L32116 18789
" />
<path d="M32510 18986
L32116 18986
" />
<path d="M33120 19281
L32923 19281
" />
<path d="M33120 18887
L33120 19281
" />
<path d="M32923 18887
L33120 18887
" />
<path d="M32923 19281
L32923 18887
" />
<path d="M29963 14823
L29824 14962
" />
<path d="M29684 14545
L29963 14823
" />
<path d="M29545 14684
L29684 14545
" />
<path d="M29824 14962
L29545 14684
" />
<path d="M36152 12391
L36348 12391
" />
<path d="M36152 12785
L36152 12391
" />
<path d="M36348 12785
L36152 12785
" />
<path d="M36348 12391
L36348 12785
" />
<path d="M35758 12391
L35955 12391
" />
<path d="M35758 12785
L35758 12391
" />
<path d="M35955 12785
L35758 12785
" />
<path d="M35955 12391
L35955 12785
" />
<path d="M38482 9920
L38621 9781
" />
<path d="M38761 10198
L38482 9920
" />
<path d="M38900 10059
L38761 10198
" />
<path d="M38621 9781
L38900 10059
" />
<path d="M36093 19242
L35620 19242
" />
<path d="M36093 18454
L36093 19242
" />
<path d="M35620 18454
L36093 18454
" />
<path d="M35620 19242
L35620 18454
" />
<path d="M42187 10559
L42054 10692
" />
<path d="M42240 10321
L42187 10559
L42426 10506
" />
<path d="M42386 11023
L42227 10864
" />
<path d="M42306 10944
L42585 10665
L42518 10678
L42465 10678
L42426 10665
" />
<path d="M32489 19768
L32170 19768
L32133 19787
L32114 19806
L32095 19843
L32095 19918
L32114 19956
L32133 19975
L32170 19993
L32489 19993
" />
<path d="M32095 20387
L32095 20162
" />
<path d="M32095 20275
L32489 20275
L32433 20237
L32395 20200
L32377 20162
" />
<path d="M36072 4583
L35791 4583
L35734 4564
L35697 4527
L35678 4470
L35678 4433
" />
<path d="M35678 4977
L35678 4752
" />
<path d="M35678 4864
L36072 4864
L36016 4827
L35978 4789
L35959 4752
" />
<path d="M39734 12224
L39508 12449
L39495 12489
L39495 12515
L39508 12555
L39561 12608
L39601 12621
L39628 12621
L39667 12608
L39893 12383
" />
<path d="M39985 12528
L40012 12528
L40052 12542
L40118 12608
L40131 12648
L40131 12674
L40118 12714
L40092 12741
L40039 12767
L39720 12767
L39893 12939
" />
<path d="M34295 19302
L34107 19302
L34107 18908
" />
<path d="M34632 19302
L34407 19302
" />
<path d="M34520 19302
L34520 18908
L34482 18964
L34445 19002
L34407 19020
" />
<path d="M37247 19302
L37060 19302
L37060 18908
" />
<path d="M37360 18945
L37379 18927
L37416 18908
L37510 18908
L37547 18927
L37566 18945
L37585 18983
L37585 19020
L37566 19077
L37341 19302
L37585 19302
" />
<path d="M43098 12522
L43079 12504
L43060 12447
L43060 12410
L43079 12354
L43116 12316
L43154 12297
L43229 12279
L43285 12279
L43360 12297
L43398 12316
L43435 12354
L43454 12410
L43454 12447
L43435 12504
L43416 12522
" />
<path d="M43454 12879
L43454 12691
L43266 12672
L43285 12691
L43304 12729
L43304 12822
L43285 12860
L43266 12879
L43229 12897
L43135 12897
L43098 12879
L43079 12860
L43060 12822
L43060 12729
L43079 12691
L43098 12672
" />
<path d="M40397 9500
L40378 9519
L40322 9538
L40284 9538
L40228 9519
L40191 9482
L40172 9444
L40153 9369
L40153 9313
L40172 9238
L40191 9200
L40228 9163
L40284 9144
L40322 9144
L40378 9163
L40397 9182
" />
<path d="M40584 9538
L40659 9538
L40697 9519
L40716 9500
L40753 9444
L40772 9369
L40772 9219
L40753 9182
L40734 9163
L40697 9144
L40622 9144
L40584 9163
L40566 9182
L40547 9219
L40547 9313
L40566 9350
L40584 9369
L40622 9388
L40697 9388
L40734 9369
L40753 9350
L40772 9313
" />
<path d="M30913 17335
L30894 17316
L30875 17260
L30875 17223
L30894 17166
L30931 17129
L30969 17110
L31044 17091
L31100 17091
L31175 17110
L31212 17129
L31250 17166
L31269 17223
L31269 17260
L31250 17316
L31231 17335
" />
<path d="M30875 17710
L30875 17485
" />
<path d="M30875 17597
L31269 17597
L31212 17560
L31175 17522
L31156 17485
" />
<path d="M30875 18085
L30875 17860
" />
<path d="M30875 17972
L31269 17972
L31212 17935
L31175 17897
L31156 17860
" />
<path d="M33924 16429
L33906 16411
L33887 16354
L33887 16317
L33906 16261
L33943 16223
L33981 16205
L34056 16186
L34112 16186
L34187 16205
L34224 16223
L34262 16261
L34281 16317
L34281 16354
L34262 16411
L34243 16429
" />
<path d="M33887 16804
L33887 16579
" />
<path d="M33887 16692
L34281 16692
L34224 16654
L34187 16617
L34168 16579
" />
<path d="M34243 16954
L34262 16973
L34281 17011
L34281 17104
L34262 17142
L34243 17161
L34206 17179
L34168 17179
L34112 17161
L33887 16936
L33887 17179
" />
<path d="M30086 17335
L30067 17316
L30048 17260
L30048 17223
L30067 17166
L30104 17129
L30142 17110
L30217 17091
L30273 17091
L30348 17110
L30386 17129
L30423 17166
L30442 17223
L30442 17260
L30423 17316
L30404 17335
" />
<path d="M30048 17710
L30048 17485
" />
<path d="M30048 17597
L30442 17597
L30386 17560
L30348 17522
L30329 17485
" />
<path d="M30442 17841
L30442 18085
L30292 17954
L30292 18010
L30273 18047
L30254 18066
L30217 18085
L30123 18085
L30086 18066
L30067 18047
L30048 18010
L30048 17897
L30067 17860
L30086 17841
" />
<path d="M32247 20601
L32022 20601
" />
<path d="M32135 20601
L32135 20207
L32097 20263
L32060 20301
L32022 20320
" />
<path d="M32585 20338
L32585 20601
" />
<path d="M32416 20338
L32416 20545
L32435 20582
L32472 20601
L32529 20601
L32566 20582
L32585 20563
" />
<path d="M32060 21587
L32041 21606
L31985 21624
L31947 21624
L31891 21606
L31854 21568
L31835 21531
L31816 21456
L31816 21399
L31835 21324
L31854 21287
L31891 21250
L31947 21231
L31985 21231
L32041 21250
L32060 21268
" />
<path d="M32435 21624
L32210 21624
" />
<path d="M32322 21624
L32322 21231
L32285 21287
L32247 21324
L32210 21343
" />
<path d="M32791 21231
L32604 21231
L32585 21418
L32604 21399
L32641 21381
L32735 21381
L32772 21399
L32791 21418
L32810 21456
L32810 21549
L32791 21587
L32772 21606
L32735 21624
L32641 21624
L32604 21606
L32585 21587
" />
<path d="M33710 8074
L33710 7886
L34103 7886
" />
<path d="M34103 8167
L34103 8411
L33953 8280
L33953 8336
L33935 8374
L33916 8392
L33878 8411
L33785 8411
L33747 8392
L33728 8374
L33710 8336
L33710 8224
L33728 8186
L33747 8167
" />
<path d="M32922 8074
L32922 7886
L33316 7886
" />
<path d="M33185 8374
L32922 8374
" />
<path d="M33335 8280
L33053 8186
L33053 8430
" />
<path d="M37155 7404
L37155 7217
L37548 7217
" />
<path d="M37548 7723
L37548 7536
L37361 7517
L37380 7536
L37398 7573
L37398 7667
L37380 7704
L37361 7723
L37323 7742
L37230 7742
L37192 7723
L37173 7704
L37155 7667
L37155 7573
L37173 7536
L37192 7517
" />
<path d="M34422 10800
L34403 10818
L34347 10837
L34310 10837
L34253 10818
L34216 10781
L34197 10743
L34178 10668
L34178 10612
L34197 10537
L34216 10500
L34253 10462
L34310 10443
L34347 10443
L34403 10462
L34422 10481
" />
<path d="M34797 10837
L34572 10837
" />
<path d="M34685 10837
L34685 10443
L34647 10500
L34610 10537
L34572 10556
" />
<path d="M34985 10837
L35059 10837
L35097 10818
L35116 10800
L35153 10743
L35172 10668
L35172 10518
L35153 10481
L35134 10462
L35097 10443
L35022 10443
L34985 10462
L34966 10481
L34947 10518
L34947 10612
L34966 10650
L34985 10668
L35022 10687
L35097 10687
L35134 10668
L35153 10650
L35172 10612
" />
<path d="M38359 8477
L38340 8495
L38284 8514
L38247 8514
L38190 8495
L38153 8458
L38134 8420
L38115 8345
L38115 8289
L38134 8214
L38153 8177
L38190 8139
L38247 8121
L38284 8121
L38340 8139
L38359 8158
" />
<path d="M38734 8514
L38509 8514
" />
<path d="M38622 8514
L38622 8121
L38584 8177
L38547 8214
L38509 8233
" />
<path d="M38959 8289
L38922 8270
L38903 8252
L38884 8214
L38884 8196
L38903 8158
L38922 8139
L38959 8121
L39034 8121
L39072 8139
L39090 8158
L39109 8196
L39109 8214
L39090 8252
L39072 8270
L39034 8289
L38959 8289
L38922 8308
L38903 8327
L38884 8364
L38884 8439
L38903 8477
L38922 8495
L38959 8514
L39034 8514
L39072 8495
L39090 8477
L39109 8439
L39109 8364
L39090 8327
L39072 8308
L39034 8289
" />
<path d="M35603 10800
L35584 10818
L35528 10837
L35491 10837
L35434 10818
L35397 10781
L35378 10743
L35359 10668
L35359 10612
L35378 10537
L35397 10500
L35434 10462
L35491 10443
L35528 10443
L35584 10462
L35603 10481
" />
<path d="M35978 10837
L35753 10837
" />
<path d="M35866 10837
L35866 10443
L35828 10500
L35791 10537
L35753 10556
" />
<path d="M36109 10443
L36372 10443
L36203 10837
" />
<path d="M29062 16429
L29043 16411
L29025 16354
L29025 16317
L29043 16261
L29081 16223
L29118 16205
L29193 16186
L29250 16186
L29325 16205
L29362 16223
L29400 16261
L29418 16317
L29418 16354
L29400 16411
L29381 16429
" />
<path d="M29025 16804
L29025 16579
" />
<path d="M29025 16692
L29418 16692
L29362 16654
L29325 16617
L29306 16579
" />
<path d="M29287 17142
L29025 17142
" />
<path d="M29437 17048
L29156 16954
L29156 17198
" />
<path d="M39540 10760
L39521 10779
L39465 10798
L39428 10798
L39371 10779
L39334 10741
L39315 10704
L39296 10629
L39296 10573
L39315 10498
L39334 10460
L39371 10423
L39428 10404
L39465 10404
L39521 10423
L39540 10441
" />
<path d="M39915 10798
L39690 10798
" />
<path d="M39803 10798
L39803 10404
L39765 10460
L39728 10498
L39690 10516
" />
<path d="M40159 10404
L40196 10404
L40234 10423
L40253 10441
L40271 10479
L40290 10554
L40290 10648
L40271 10723
L40253 10760
L40234 10779
L40196 10798
L40159 10798
L40121 10779
L40103 10760
L40084 10723
L40065 10648
L40065 10554
L40084 10479
L40103 10441
L40121 10423
L40159 10404
" />
<path d="M42015 13113
L41996 13094
L41977 13038
L41977 13001
L41996 12944
L42034 12907
L42071 12888
L42146 12869
L42202 12869
L42277 12888
L42315 12907
L42352 12944
L42371 13001
L42371 13038
L42352 13094
L42334 13113
" />
<path d="M42202 13338
L42221 13300
L42240 13282
L42277 13263
L42296 13263
L42334 13282
L42352 13300
L42371 13338
L42371 13413
L42352 13450
L42334 13469
L42296 13488
L42277 13488
L42240 13469
L42221 13450
L42202 13413
L42202 13338
L42184 13300
L42165 13282
L42127 13263
L42052 13263
L42015 13282
L41996 13300
L41977 13338
L41977 13413
L41996 13450
L42015 13469
L42052 13488
L42127 13488
L42165 13469
L42184 13450
L42202 13413
" />
<path d="M38901 14702
L38901 14729
L38875 14782
L38848 14808
L38795 14835
L38742 14835
L38703 14822
L38636 14782
L38597 14742
L38557 14676
L38543 14636
L38543 14583
L38570 14530
L38597 14504
L38650 14477
L38676 14477
" />
<path d="M38742 14358
L38928 14172
L39087 14570
" />
<path d="M37130 14624
L37130 14650
L37103 14703
L37077 14730
L37024 14756
L36971 14756
L36931 14743
L36865 14703
L36825 14663
L36785 14597
L36772 14557
L36772 14504
L36798 14451
L36825 14425
L36878 14398
L36904 14398
" />
<path d="M37117 14133
L37063 14186
L37050 14226
L37050 14252
L37063 14319
L37103 14385
L37209 14491
L37249 14504
L37276 14504
L37315 14491
L37368 14438
L37382 14398
L37382 14372
L37368 14332
L37302 14266
L37262 14252
L37236 14252
L37196 14266
L37143 14319
L37130 14359
L37130 14385
L37143 14425
" />
<path d="M39728 15524
L39709 15543
L39653 15561
L39615 15561
L39559 15543
L39521 15505
L39503 15468
L39484 15393
L39484 15336
L39503 15261
L39521 15224
L39559 15187
L39615 15168
L39653 15168
L39709 15187
L39728 15205
" />
<path d="M40065 15299
L40065 15561
" />
<path d="M39971 15149
L39878 15430
L40121 15430
" />
<path d="M36936 13113
L36917 13094
L36899 13038
L36899 13001
L36917 12944
L36955 12907
L36992 12888
L37067 12869
L37124 12869
L37199 12888
L37236 12907
L37274 12944
L37292 13001
L37292 13038
L37274 13094
L37255 13113
" />
<path d="M37292 13244
L37292 13488
L37142 13357
L37142 13413
L37124 13450
L37105 13469
L37067 13488
L36974 13488
L36936 13469
L36917 13450
L36899 13413
L36899 13300
L36917 13263
L36936 13244
" />
<path d="M41031 9767
L41012 9748
L40993 9692
L40993 9654
L41012 9598
L41049 9560
L41087 9542
L41162 9523
L41218 9523
L41293 9542
L41331 9560
L41368 9598
L41387 9654
L41387 9692
L41368 9748
L41349 9767
" />
<path d="M41349 9917
L41368 9935
L41387 9973
L41387 10067
L41368 10104
L41349 10123
L41312 10142
L41274 10142
L41218 10123
L40993 9898
L40993 10142
" />
<path d="M33550 20003
L33532 19984
L33513 19928
L33513 19890
L33532 19834
L33569 19797
L33607 19778
L33682 19759
L33738 19759
L33813 19778
L33850 19797
L33888 19834
L33907 19890
L33907 19928
L33888 19984
L33869 20003
" />
<path d="M33513 20378
L33513 20153
" />
<path d="M33513 20265
L33907 20265
L33850 20228
L33813 20190
L33794 20153
" />
<path d="M37944 16107
L37718 16067
" />
<path d="M37785 16266
L37506 15988
L37612 15882
L37652 15868
L37679 15868
L37718 15882
L37758 15921
L37771 15961
L37771 15988
L37758 16027
L37652 16133
" />
<path d="M38209 15842
L38050 16001
" />
<path d="M38129 15921
L37851 15643
L37864 15709
L37864 15762
L37851 15802
" />
<path d="M37101 10660
L37141 10434
" />
<path d="M36942 10501
L37221 10222
L37327 10328
L37340 10368
L37340 10395
L37327 10434
L37287 10474
L37247 10487
L37221 10487
L37181 10474
L37075 10368
" />
<path d="M37459 10514
L37486 10514
L37525 10527
L37592 10593
L37605 10633
L37605 10660
L37592 10700
L37565 10726
L37512 10753
L37194 10753
L37366 10925
" />
<path d="M31617 19498
L31486 19311
" />
<path d="M31392 19498
L31392 19105
L31542 19105
L31580 19124
L31599 19142
L31617 19180
L31617 19236
L31599 19273
L31580 19292
L31542 19311
L31392 19311
" />
<path d="M31749 19105
L31992 19105
L31861 19255
L31917 19255
L31955 19273
L31974 19292
L31992 19330
L31992 19423
L31974 19461
L31955 19480
L31917 19498
L31805 19498
L31767 19480
L31749 19461
" />
<path d="M38219 14020
L37994 13980
" />
<path d="M38060 14179
L37782 13901
L37888 13795
L37928 13782
L37954 13782
L37994 13795
L38034 13835
L38047 13874
L38047 13901
L38034 13941
L37928 14047
" />
<path d="M38272 13596
L38458 13782
" />
<path d="M38100 13556
L38233 13821
L38405 13649
" />
<path d="M38574 14375
L38348 14335
" />
<path d="M38415 14534
L38136 14255
L38242 14149
L38282 14136
L38308 14136
L38348 14149
L38388 14189
L38401 14229
L38401 14255
L38388 14295
L38282 14401
" />
<path d="M38547 13844
L38415 13977
L38534 14123
L38534 14096
L38547 14056
L38613 13990
L38653 13977
L38680 13977
L38719 13990
L38786 14056
L38799 14096
L38799 14123
L38786 14162
L38719 14229
L38680 14242
L38653 14242
" />
<path d="M39540 8869
L39409 8681
" />
<path d="M39315 8869
L39315 8475
L39465 8475
L39503 8494
L39521 8512
L39540 8550
L39540 8606
L39521 8644
L39503 8662
L39465 8681
L39315 8681
" />
<path d="M39915 8869
L39690 8869
" />
<path d="M39803 8869
L39803 8475
L39765 8531
L39728 8569
L39690 8587
" />
<path d="M40290 8869
L40065 8869
" />
<path d="M40178 8869
L40178 8475
L40140 8531
L40103 8569
L40065 8587
" />
<path d="M37520 9700
L37560 9475
" />
<path d="M37361 9541
L37639 9263
L37745 9369
L37758 9409
L37758 9435
L37745 9475
L37705 9515
L37666 9528
L37639 9528
L37599 9515
L37493 9409
" />
<path d="M37785 9966
L37626 9806
" />
<path d="M37705 9886
L37984 9608
L37918 9621
L37865 9621
L37825 9608
" />
<path d="M38143 9820
L38169 9820
L38209 9833
L38275 9899
L38289 9939
L38289 9966
L38275 10005
L38249 10032
L38196 10058
L37878 10058
L38050 10231
" />
<path d="M37166 10055
L37205 9829
" />
<path d="M37006 9896
L37285 9617
L37391 9723
L37404 9763
L37404 9790
L37391 9829
L37351 9869
L37311 9882
L37285 9882
L37245 9869
L37139 9763
" />
<path d="M37431 10320
L37272 10161
" />
<path d="M37351 10240
L37630 9962
L37563 9975
L37510 9975
L37470 9962
" />
<path d="M37802 10134
L37974 10307
L37775 10320
L37815 10360
L37828 10399
L37828 10426
L37815 10466
L37749 10532
L37709 10545
L37683 10545
L37643 10532
L37563 10452
L37550 10413
L37550 10386
" />
<path d="M36969 11433
L37008 11207
" />
<path d="M36810 11274
L37088 10995
L37194 11101
L37207 11141
L37207 11168
L37194 11207
L37154 11247
L37115 11260
L37088 11260
L37048 11247
L36942 11141
" />
<path d="M37234 11698
L37075 11539
" />
<path d="M37154 11618
L37433 11340
L37366 11353
L37313 11353
L37274 11340
" />
<path d="M37658 11751
L37472 11936
" />
<path d="M37698 11579
L37433 11711
L37605 11883
" />
<path d="M36387 13122
L36574 12991
" />
<path d="M36387 12897
L36781 12897
L36781 13047
L36762 13085
L36743 13104
L36706 13122
L36649 13122
L36612 13104
L36593 13085
L36574 13047
L36574 12897
" />
<path d="M36387 13497
L36387 13272
" />
<path d="M36387 13385
L36781 13385
L36724 13347
L36687 13310
L36668 13272
" />
<path d="M36781 13854
L36781 13666
L36593 13647
L36612 13666
L36631 13704
L36631 13797
L36612 13835
L36593 13854
L36556 13872
L36462 13872
L36424 13854
L36406 13835
L36387 13797
L36387 13704
L36406 13666
L36424 13647
" />
<path d="M37410 13113
L37598 12982
" />
<path d="M37410 12888
L37804 12888
L37804 13038
L37785 13076
L37767 13094
L37729 13113
L37673 13113
L37635 13094
L37617 13076
L37598 13038
L37598 12888
" />
<path d="M37804 13450
L37804 13375
L37785 13338
L37767 13319
L37710 13282
L37635 13263
L37485 13263
L37448 13282
L37429 13300
L37410 13338
L37410 13413
L37429 13450
L37448 13469
L37485 13488
L37579 13488
L37617 13469
L37635 13450
L37654 13413
L37654 13338
L37635 13300
L37617 13282
L37579 13263
" />
<path d="M31617 19026
L31486 18839
" />
<path d="M31392 19026
L31392 18632
L31542 18632
L31580 18651
L31599 18670
L31617 18707
L31617 18764
L31599 18801
L31580 18820
L31542 18839
L31392 18839
" />
<path d="M31749 18632
L32011 18632
L31842 19026
" />
<path d="M33198 19019
L33385 18887
" />
<path d="M33198 18794
L33592 18794
L33592 18944
L33573 18981
L33554 19000
L33517 19019
L33460 19019
L33423 19000
L33404 18981
L33385 18944
L33385 18794
" />
<path d="M33423 19244
L33442 19206
L33460 19187
L33498 19169
L33517 19169
L33554 19187
L33573 19206
L33592 19244
L33592 19318
L33573 19356
L33554 19375
L33517 19393
L33498 19393
L33460 19375
L33442 19356
L33423 19318
L33423 19244
L33404 19206
L33385 19187
L33348 19169
L33273 19169
L33235 19187
L33217 19206
L33198 19244
L33198 19318
L33217 19356
L33235 19375
L33273 19393
L33348 19393
L33385 19375
L33404 19356
L33423 19318
" />
<path d="M29109 14439
L29149 14214
" />
<path d="M28950 14280
L29228 14002
L29334 14108
L29348 14148
L29348 14174
L29334 14214
L29295 14254
L29255 14267
L29228 14267
L29189 14254
L29083 14148
" />
<path d="M29242 14572
L29295 14625
L29334 14638
L29361 14638
L29427 14625
L29494 14585
L29600 14479
L29613 14439
L29613 14413
L29600 14373
L29547 14320
L29507 14307
L29480 14307
L29441 14320
L29374 14386
L29361 14426
L29361 14453
L29374 14492
L29427 14545
L29467 14559
L29494 14559
L29533 14545
" />
<path d="M36190 11548
L36377 11416
" />
<path d="M36190 11323
L36584 11323
L36584 11473
L36565 11510
L36546 11529
L36509 11548
L36452 11548
L36415 11529
L36396 11510
L36377 11473
L36377 11323
" />
<path d="M36190 11923
L36190 11698
" />
<path d="M36190 11810
L36584 11810
L36527 11773
L36490 11735
L36471 11698
" />
<path d="M36584 12166
L36584 12204
L36565 12241
L36546 12260
L36509 12279
L36434 12297
L36340 12297
L36265 12279
L36227 12260
L36209 12241
L36190 12204
L36190 12166
L36209 12129
L36227 12110
L36265 12091
L36340 12073
L36434 12073
L36509 12091
L36546 12110
L36565 12129
L36584 12166
" />
<path d="M35678 11548
L35866 11416
" />
<path d="M35678 11323
L36072 11323
L36072 11473
L36053 11510
L36034 11529
L35997 11548
L35941 11548
L35903 11529
L35884 11510
L35866 11473
L35866 11323
" />
<path d="M35678 11923
L35678 11698
" />
<path d="M35678 11810
L36072 11810
L36016 11773
L35978 11735
L35959 11698
" />
<path d="M36072 12260
L36072 12185
L36053 12148
L36034 12129
L35978 12091
L35903 12073
L35753 12073
L35716 12091
L35697 12110
L35678 12148
L35678 12223
L35697 12260
L35716 12279
L35753 12297
L35847 12297
L35884 12279
L35903 12260
L35922 12223
L35922 12148
L35903 12110
L35884 12091
L35847 12073
" />
<path d="M37874 9346
L37914 9121
" />
<path d="M37715 9187
L37994 8909
L38100 9015
L38113 9054
L38113 9081
L38100 9121
L38060 9160
L38020 9174
L37994 9174
L37954 9160
L37848 9054
" />
<path d="M38139 9611
L37980 9452
" />
<path d="M38060 9532
L38338 9253
L38272 9267
L38219 9267
L38179 9253
" />
<path d="M38511 9426
L38696 9611
L38298 9770
" />
<path d="M35031 12804
L34994 12785
L34956 12747
L34900 12691
L34863 12672
L34825 12672
" />
<path d="M34844 12766
L34806 12747
L34769 12710
L34750 12635
L34750 12504
L34769 12429
L34806 12391
L34844 12372
L34919 12372
L34956 12391
L34994 12429
L35013 12504
L35013 12635
L34994 12710
L34956 12747
L34919 12766
L34844 12766
" />
<path d="M35388 12766
L35163 12766
" />
<path d="M35275 12766
L35275 12372
L35238 12429
L35200 12466
L35163 12485
" />
<path d="M32097 18062
L32116 18025
L32154 17987
L32210 17931
L32229 17894
L32229 17856
" />
<path d="M32135 17875
L32154 17837
L32191 17800
L32266 17781
L32397 17781
L32472 17800
L32510 17837
L32529 17875
L32529 17950
L32510 17987
L32472 18025
L32397 18044
L32266 18044
L32191 18025
L32154 17987
L32135 17950
L32135 17875
" />
<path d="M32491 18194
L32510 18212
L32529 18250
L32529 18344
L32510 18381
L32491 18400
L32454 18419
L32416 18419
L32360 18400
L32135 18175
L32135 18419
" />
<path d="M32529 16383
L32210 16383
L32172 16401
L32154 16420
L32135 16458
L32135 16533
L32154 16570
L32172 16589
L32210 16608
L32529 16608
" />
<path d="M32529 16758
L32529 17001
L32379 16870
L32379 16926
L32360 16964
L32341 16983
L32304 17001
L32210 17001
L32172 16983
L32154 16964
L32135 16926
L32135 16814
L32154 16776
L32172 16758
" />
<path d="M35725 20837
L35725 21118
L35706 21175
L35669 21212
L35613 21231
L35575 21231
" />
<path d="M35875 20837
L36119 20837
L35988 20987
L36044 20987
L36081 21006
L36100 21025
L36119 21062
L36119 21156
L36100 21193
L36081 21212
L36044 21231
L35931 21231
L35894 21212
L35875 21193
" />
<path d="M36436 18557
L36436 18426
" />
<path d="M36229 18426
L36623 18426
L36623 18614
" />
<path d="M36229 18951
L36229 18764
L36623 18764
" />
<path d="M36229 19288
L36229 19064
" />
<path d="M36229 19176
L36623 19176
L36567 19139
L36529 19101
L36511 19064
" />
<path d="M36584 17327
L36265 17327
L36227 17346
L36209 17365
L36190 17402
L36190 17477
L36209 17515
L36227 17534
L36265 17552
L36584 17552
" />
<path d="M36452 17909
L36190 17909
" />
<path d="M36602 17815
L36321 17721
L36321 17965
" />
<path d="M30485 9185
L30466 9204
L30410 9223
L30373 9223
L30316 9204
L30279 9167
L30260 9129
L30241 9054
L30241 8998
L30260 8923
L30279 8885
L30316 8848
L30373 8829
L30410 8829
L30466 8848
L30485 8867
" />
<path d="M30860 9223
L30635 9223
" />
<path d="M30748 9223
L30748 8829
L30710 8885
L30673 8923
L30635 8942
" />
<path d="M31197 8829
L31123 8829
L31085 8848
L31066 8867
L31029 8923
L31010 8998
L31010 9148
L31029 9185
L31048 9204
L31085 9223
L31160 9223
L31197 9204
L31216 9185
L31235 9148
L31235 9054
L31216 9017
L31197 8998
L31160 8979
L31085 8979
L31048 8998
L31029 9017
L31010 9054
" />
<path d="M31614 12535
L31482 12402
L31760 12124
" />
<path d="M31707 12601
L31734 12654
L31800 12721
L31840 12734
L31866 12734
L31906 12721
L31933 12694
L31946 12654
L31946 12628
L31933 12588
L31893 12522
L31880 12482
L31880 12456
L31893 12416
L31919 12389
L31959 12376
L31986 12376
L32025 12389
L32092 12456
L32118 12509
" />
<path d="M32118 13039
L31959 12880
" />
<path d="M32039 12959
L32317 12681
L32251 12694
L32198 12694
L32158 12681
" />
<path d="M29816 14280
L30095 14002
L30161 14068
L30187 14121
L30187 14174
L30174 14214
L30134 14280
L30095 14320
L30028 14360
L29989 14373
L29936 14373
L29882 14346
L29816 14280
" />
<path d="M30506 14413
L30373 14280
L30227 14400
L30254 14400
L30293 14413
L30360 14479
L30373 14519
L30373 14545
L30360 14585
L30293 14651
L30254 14665
L30227 14665
L30187 14651
L30121 14585
L30108 14545
L30108 14519
" />
</g>
<g style="fill:#000000; fill-opacity:0.0; 
stroke:#000000; stroke-width:59.0551; stroke-opacity:1; 
stroke-linecap:round; stroke-linejoin:round;">
</g>
<g style="fill:#840084; fill-opacity:0.0; 
stroke:#840084; stroke-width:59.0551; stroke-opacity:1; 
stroke-linecap:round; stroke-linejoin:round;">
</g>
<g style="fill:#840084; fill-opacity:0.0; 
stroke:#840084; stroke-width:55.1181; stroke-opacity:1; 
stroke-linecap:round; stroke-linejoin:round;">
<path d="M36718 17385
L36678 17398
L36638 17438
L36612 17491
L36612 17544
L36625 17584
L36665 17650
L36705 17690
L36771 17730
L36811 17743
L36864 17743
L36917 17717
L36943 17690
L36970 17637
L36970 17611
L36877 17518
L36824 17571
" />
<path d="M37115 17518
L36837 17239
L37275 17359
L36996 17080
" />
<path d="M37407 17226
L37129 16948
L37195 16881
L37248 16855
L37301 16855
L37341 16868
L37407 16908
L37447 16948
L37487 17014
L37500 17054
L37500 17107
L37473 17160
L37407 17226
" />
<path d="M37492 17929
L37705 17717
" />
<path d="M37705 17929
L37492 17717
" />
<path d="M37638 17438
L37811 17266
L37824 17465
L37864 17425
L37903 17412
L37930 17412
L37970 17425
L38036 17491
L38049 17531
L38049 17558
L38036 17597
L37956 17677
L37917 17690
L37890 17690
" />
<path d="M37996 17266
L38248 17385
L38129 17133
" />
<path d="M38115 16961
L38288 16789
L38301 16988
L38341 16948
L38381 16934
L38407 16934
L38447 16948
L38513 17014
L38526 17054
L38526 17080
L38513 17120
L38434 17200
L38394 17213
L38367 17213
" />
<path d="M38373 18234
L38426 18207
L38492 18141
L38506 18101
L38506 18075
L38492 18035
L38466 18008
L38426 17995
L38400 17995
L38360 18008
L38294 18048
L38254 18061
L38227 18061
L38188 18048
L38161 18022
L38148 17982
L38148 17955
L38161 17915
L38227 17849
L38280 17823
" />
<path d="M38360 17717
L38705 17929
L38559 17677
L38811 17823
L38598 17478
" />
<path d="M38983 17650
L38705 17372
L38771 17306
L38824 17279
L38877 17279
L38917 17292
L38983 17332
L39023 17372
L39062 17438
L39076 17478
L39076 17531
L39049 17584
L38983 17650
" />
<path d="M39261 17372
L38983 17094
" />
<path d="M39169 16908
L39222 16855
L39261 16842
L39314 16842
L39381 16881
L39473 16974
L39513 17041
L39513 17094
L39500 17133
L39447 17186
L39407 17200
L39354 17200
L39288 17160
L39195 17067
L39155 17001
L39155 16948
L39169 16908
" />
<path d="M39294 18313
L39347 18287
L39413 18220
L39426 18181
L39426 18154
L39413 18114
L39386 18088
L39347 18075
L39320 18075
L39280 18088
L39214 18128
L39174 18141
L39148 18141
L39108 18128
L39081 18101
L39068 18061
L39068 18035
L39081 17995
L39148 17929
L39201 17902
" />
<path d="M39280 17796
L39625 18008
L39479 17756
L39731 17902
L39519 17558
" />
<path d="M40036 17544
L40036 17571
L40009 17624
L39983 17650
L39930 17677
L39877 17677
L39837 17664
L39771 17624
L39731 17584
L39691 17518
L39678 17478
L39678 17425
L39705 17372
L39731 17345
L39784 17319
L39811 17319
" />
<path d="M40314 17319
L40182 17451
L39903 17173
" />
<path d="M40407 17226
L40129 16948
" />
<path d="M40566 17067
L40288 17027
" />
<path d="M40288 16789
L40288 17107
" />
<path d="M41089 17544
L40864 17505
" />
<path d="M40930 17703
L40651 17425
L40758 17319
L40797 17306
L40824 17306
L40864 17319
L40903 17359
L40917 17398
L40917 17425
L40903 17465
L40797 17571
" />
<path d="M41182 17425
L41235 17398
L41301 17332
L41314 17292
L41314 17266
L41301 17226
L41275 17200
L41235 17186
L41208 17186
L41169 17200
L41102 17239
L41062 17253
L41036 17253
L40996 17239
L40970 17213
L40956 17173
L40956 17147
L40970 17107
L41036 17041
L41089 17014
" />
<path d="M41155 16921
L41314 16762
" />
<path d="M41513 17120
L41235 16842
" />
<path d="M28952 10320
L28690 10320
" />
<path d="M28915 10320
L28934 10338
L28952 10376
L28952 10432
L28934 10470
L28896 10488
L28690 10488
" />
<path d="M28709 10826
L28690 10788
L28690 10713
L28709 10676
L28746 10657
L28896 10657
L28934 10676
L28952 10713
L28952 10788
L28934 10826
L28896 10845
L28859 10845
L28821 10657
" />
<path d="M28952 11182
L28690 11182
" />
<path d="M28952 11013
L28746 11013
L28709 11032
L28690 11070
L28690 11126
L28709 11163
L28727 11182
" />
<path d="M28690 11369
L28952 11369
" />
<path d="M28877 11369
L28915 11388
L28934 11407
L28952 11444
L28952 11482
" />
<path d="M28690 11669
L28709 11632
L28727 11613
L28765 11594
L28877 11594
L28915 11613
L28934 11632
L28952 11669
L28952 11726
L28934 11763
L28915 11782
L28877 11801
L28765 11801
L28727 11782
L28709 11763
L28690 11726
L28690 11669
" />
<path d="M28952 11913
L28952 12063
" />
<path d="M29084 11969
L28746 11969
L28709 11988
L28690 12026
L28690 12063
" />
<path d="M28690 12194
L28952 12194
" />
<path d="M29084 12194
L29065 12176
L29046 12194
L29065 12213
L29084 12194
L29046 12194
" />
<path d="M28952 12382
L28690 12382
" />
<path d="M28915 12382
L28934 12401
L28952 12438
L28952 12494
L28934 12532
L28896 12551
L28690 12551
" />
<path d="M28690 12738
L29084 12738
" />
<path d="M28840 12776
L28690 12888
" />
<path d="M28952 12888
L28802 12738
" />
<path d="M28709 13207
L28690 13169
L28690 13094
L28709 13057
L28746 13038
L28896 13038
L28934 13057
L28952 13094
L28952 13169
L28934 13207
L28896 13226
L28859 13226
L28821 13038
" />
<path d="M28690 13394
L28952 13394
" />
<path d="M28877 13394
L28915 13413
L28934 13432
L28952 13469
L28952 13507
" />
<path d="M28727 13638
L28709 13657
L28690 13638
L28709 13619
L28727 13638
L28690 13638
" />
<path d="M28709 13994
L28690 13957
L28690 13882
L28709 13844
L28727 13825
L28765 13807
L28877 13807
L28915 13825
L28934 13844
L28952 13882
L28952 13957
L28934 13994
" />
<path d="M28690 14219
L28709 14182
L28727 14163
L28765 14144
L28877 14144
L28915 14163
L28934 14182
L28952 14219
L28952 14275
L28934 14313
L28915 14332
L28877 14350
L28765 14350
L28727 14332
L28709 14313
L28690 14275
L28690 14219
" />
<path d="M28690 14519
L28952 14519
" />
<path d="M28915 14519
L28934 14538
L28952 14575
L28952 14632
L28934 14669
L28896 14688
L28690 14688
" />
<path d="M28896 14688
L28934 14707
L28952 14744
L28952 14800
L28934 14838
L28896 14857
L28690 14857
" />
</g>
<g style="fill:#840084; fill-opacity:0.0; 
stroke:#840084; stroke-width:78.7402; stroke-opacity:1; 
stroke-linecap:round; stroke-linejoin:round;">
<circle cx="42549.7" cy="19281.5" r="1968.5" /> 
<circle cx="40974.9" cy="6289.37" r="1968.5" /> 
<circle cx="30738.7" cy="6289.37" r="1968.5" /> 
<circle cx="29163.9" cy="19281.5" r="1968.5" /> 
</g>
<g style="fill:#840084; fill-opacity:0.0; 
stroke:#840084; stroke-width:59.0551; stroke-opacity:1; 
stroke-linecap:round; stroke-linejoin:round;">
<path d="M42223 11718
L42223 11718
" />
<path d="M42585 11356
L42223 11718
" />
<path d="M41694 10466
L42585 11356
" />
<path d="M41332 10828
L41694 10466
" />
<path d="M42223 11718
L41332 10828
" />
</g>
<g style="fill:#840084; fill-opacity:0.0; 
stroke:#840084; stroke-width:39.3701; stroke-opacity:1; 
stroke-linecap:round; stroke-linejoin:round;">
<circle cx="32667.8" cy="20659.4" r="62.2496" /> 
<path d="M31998 19517
L32628 19517
" />
<path d="M32628 19517
L32628 20620
" />
<path d="M32628 20620
L31998 20620
" />
<path d="M31998 20620
L31998 19517
" />
</g>
<g style="fill:#840084; fill-opacity:0.0; 
stroke:#840084; stroke-width:59.0551; stroke-opacity:1; 
stroke-linecap:round; stroke-linejoin:round;">
<path d="M33976 4045
L33976 5541
" />
<path d="M33976 5541
L37736 5541
" />
<path d="M37736 5541
L37736 4045
" />
<path d="M37736 4045
L33976 4045
" />
<circle cx="41853.9" cy="12588.6" r="88.0343" /> 
<path d="M37845 12588
L39793 10639
" />
<path d="M39793 14537
L37845 12588
" />
<path d="M41742 12588
L39793 14537
" />
<path d="M39793 10639
L41742 12588
" />
<path d="M33730 19399
L33730 18769
" />
<path d="M34990 19399
L33730 19399
" />
<path d="M34990 18769
L34990 19399
" />
<path d="M33730 18769
L34990 18769
" />
<path d="M36722 19399
L36722 18769
" />
<path d="M37982 19399
L36722 19399
" />
<path d="M37982 18769
L37982 19399
" />
<path d="M36722 18769
L37982 18769
" />
</g>
<g style="fill:#840084; fill-opacity:0.0; 
stroke:#840084; stroke-width:47.2441; stroke-opacity:1; 
stroke-linecap:round; stroke-linejoin:round;">
<path d="M42982 12450
L42982 12726
" />
<path d="M42510 12726
L42510 12450
" />
<path d="M39931 9872
L39655 9872
" />
<path d="M39655 9399
L39931 9399
" />
<path d="M31289 16545
L31289 16820
" />
<path d="M30817 16820
L30817 16545
" />
<path d="M33809 16545
L33809 16820
" />
<path d="M33337 16820
L33337 16545
" />
<path d="M30502 16545
L30502 16820
" />
<path d="M30030 16820
L30030 16545
" />
<path d="M32451 21250
L32175 21250
" />
<path d="M32175 20777
L32451 20777
" />
<path d="M33652 7608
L33652 7332
" />
<path d="M34124 7332
L34124 7608
" />
<path d="M32864 7608
L32864 7332
" />
<path d="M33337 7332
L33337 7608
" />
<path d="M37589 7608
L37589 7332
" />
<path d="M38061 7332
L38061 7608
" />
</g>
<g style="fill:#840084; fill-opacity:0.0; 
stroke:#840084; stroke-width:59.0551; stroke-opacity:1; 
stroke-linecap:round; stroke-linejoin:round;">
<circle cx="34380.4" cy="12982.3" r="98.4252" /> 
<path d="M35659 12293
L35659 12883
" />
<path d="M34478 12293
L35659 12293
" />
<path d="M34478 12883
L34478 12293
" />
<path d="M35659 12883
L34478 12883
" />
<circle cx="32707.2" cy="18789.4" r="98.4252" /> 
<path d="M32018 17509
L32608 17509
" />
<path d="M32018 18690
L32018 17509
" />
<path d="M32608 18690
L32018 18690
" />
<path d="M32608 17509
L32608 18690
" />
<circle cx="31919.8" cy="16092.5" r="98.4252" /> 
<path d="M32608 16190
L32018 16190
" />
<path d="M32608 17175
L32608 16190
" />
<path d="M32018 17175
L32608 17175
" />
<path d="M32018 16190
L32018 17175
" />
<path d="M34281 21604
L37431 21604
" />
<path d="M34281 19872
L34281 21604
" />
<path d="M37431 19872
L34281 19872
" />
<path d="M37431 21604
L37431 19872
" />
</g>
<g style="fill:#840084; fill-opacity:0.0; 
stroke:#840084; stroke-width:39.3701; stroke-opacity:1; 
stroke-linecap:round; stroke-linejoin:round;">
<circle cx="36171.7" cy="18100.4" r="78.7402" /> 
<path d="M35620 18021
L35620 17234
" />
<path d="M36093 18021
L35620 18021
" />
<path d="M36093 17234
L36093 18021
" />
<path d="M35620 17234
L36093 17234
" />
</g>
<g style="fill:#840084; fill-opacity:0.0; 
stroke:#840084; stroke-width:59.0551; stroke-opacity:1; 
stroke-linecap:round; stroke-linejoin:round;">
<path d="M30108 9478
L30108 8612
" />
<path d="M31368 9478
L30108 9478
" />
<path d="M31368 8612
L31368 9478
" />
<path d="M30108 8612
L31368 8612
" />
</g>
<g style="fill:#840084; fill-opacity:0.0; 
stroke:#840084; stroke-width:39.3701; stroke-opacity:1; 
stroke-linecap:round; stroke-linejoin:round;">
<path d="M31919 10083
L29414 12588
" />
<path d="M34425 12588
L31919 10083
" />
<path d="M31919 15094
L34425 12588
" />
<path d="M29414 12588
L31919 15094
" />
</g>
<g style="fill:#840084; fill-opacity:0.0; 
stroke:#840084; stroke-width:59.0551; stroke-opacity:1; 
stroke-linecap:round; stroke-linejoin:round;">
<path d="M30941 14736
L30523 15153
" />
<path d="M30635 14429
L29772 13566
" />
<path d="M29772 13566
L29354 13984
" />
<path d="M29354 13984
L30217 14847
" />
</g>
<g style="fill:#000000; fill-opacity:0.0; 
stroke:#000000; stroke-width:59.0551; stroke-opacity:1; 
stroke-linecap:round; stroke-linejoin:round;">
</g>
<g style="fill:#C2C200; fill-opacity:0.0; 
stroke:#C2C200; stroke-width:59.0551; stroke-opacity:1; 
stroke-linecap:round; stroke-linejoin:round;">
</g>
<g style="fill:#C2C200; fill-opacity:0.0; 
stroke:#C2C200; stroke-width:39.3701; stroke-opacity:1; 
stroke-linecap:round; stroke-linejoin:round;">
<path d="M27785 17116
L27392 17116
" />
<path d="M44321 21643
L27392 21643
" />
<path d="M44321 17116
L43927 17116
" />
<path d="M26801 17706
L26801 21053
" />
<path d="M27392.2 17116.1 A590.551 590.551 0.0 0 0 26801.7 17706.7 " />
<path d="M27785.9 17116.1 A590.551 590.551 0.0 0 0 28376.5 16525.6 " />
<path d="M28376 4517
L28376 16525
" />
<path d="M28967 3927.17 A590.551 590.551 0.0 0 0 28376.5 4517.72 " />
<path d="M42746 3927
L28967 3927
" />
<path d="M43337.1 4517.72 A590.551 590.551 0.0 0 0 42746.5 3927.17 " />
<path d="M43337 16525
L43337 4517
" />
<path d="M44911 21053
L44911 17706
" />
<path d="M43337.1 16525.6 A590.551 590.551 0.0 0 0 43927.7 17116.1 " />
<path d="M44911.9 17706.7 A590.551 590.551 0.0 0 0 44321.4 17116.1 " />
<path d="M44321.4 21643.7 A590.551 590.551 0.0 0 0 44911.9 21053.1 " />
<path d="M26801.7 21053.1 A590.551 590.551 0.0 0 0 27392.2 21643.7 " />
</g> 
</svg>
