G04 #@! TF.FileFunction,Copper,L1,Top,Signal*
%FSLAX46Y46*%
G04 Gerber Fmt 4.6, Leading zero omitted, Abs format (unit mm)*
G04 Created by KiCad (PCBNEW 4.0.6-e0-6349~53~ubuntu16.04.1) date Sat Jun 17 13:56:32 2017*
%MOMM*%
%LPD*%
G01*
G04 APERTURE LIST*
%ADD10C,0.100000*%
%ADD11R,1.350000X0.400000*%
%ADD12O,0.950000X1.250000*%
%ADD13O,1.550000X1.000000*%
%ADD14R,1.800000X0.600000*%
%ADD15R,2.800000X1.000000*%
%ADD16R,0.600000X1.800000*%
%ADD17R,1.000000X2.800000*%
%ADD18R,0.650000X1.060000*%
%ADD19O,0.300000X0.750000*%
%ADD20O,0.750000X0.300000*%
%ADD21R,0.900000X0.900000*%
%ADD22R,1.200000X0.750000*%
%ADD23R,0.500000X0.900000*%
%ADD24R,0.900000X0.500000*%
%ADD25R,0.800000X0.200000*%
%ADD26R,0.200000X0.800000*%
%ADD27R,1.175000X1.175000*%
%ADD28C,0.600000*%
%ADD29C,0.150000*%
%ADD30C,0.200000*%
%ADD31C,0.250000*%
%ADD32C,0.254000*%
G04 APERTURE END LIST*
D10*
D11*
X96600000Y-85060000D03*
X96600000Y-85710000D03*
X96600000Y-86360000D03*
X96600000Y-87010000D03*
X96600000Y-87660000D03*
D12*
X96600000Y-83860000D03*
X96600000Y-88860000D03*
D13*
X93900000Y-82860000D03*
X93900000Y-89860000D03*
D14*
X126340000Y-88025000D03*
X126340000Y-86775000D03*
X126340000Y-85525000D03*
X126340000Y-84275000D03*
D15*
X129540000Y-82550000D03*
X129540000Y-89750000D03*
D16*
X118130000Y-78740000D03*
X116880000Y-78740000D03*
X115630000Y-78740000D03*
X114380000Y-78740000D03*
X113130000Y-78740000D03*
X111880000Y-78740000D03*
X110630000Y-78740000D03*
D17*
X108880000Y-75540000D03*
X119880000Y-75540000D03*
D18*
X115395000Y-92770000D03*
X116345000Y-92770000D03*
X117295000Y-92770000D03*
X117295000Y-90570000D03*
X115395000Y-90570000D03*
X116345000Y-90570000D03*
D19*
X104685000Y-85135000D03*
X104185000Y-85135000D03*
X103685000Y-85135000D03*
X103185000Y-85135000D03*
D20*
X102460000Y-85860000D03*
X102460000Y-86360000D03*
X102460000Y-86860000D03*
X102460000Y-87360000D03*
D19*
X103185000Y-88085000D03*
X103685000Y-88085000D03*
X104185000Y-88085000D03*
X104685000Y-88085000D03*
D20*
X105410000Y-87360000D03*
X105410000Y-86860000D03*
X105410000Y-86360000D03*
X105410000Y-85860000D03*
D21*
X103485000Y-87060000D03*
X104385000Y-87060000D03*
X103485000Y-86160000D03*
X104385000Y-86160000D03*
D22*
X105090000Y-91440000D03*
X103190000Y-91440000D03*
X110170000Y-88900000D03*
X108270000Y-88900000D03*
X103190000Y-92710000D03*
X105090000Y-92710000D03*
X110170000Y-91440000D03*
X108270000Y-91440000D03*
X110170000Y-90170000D03*
X108270000Y-90170000D03*
D23*
X111240000Y-83820000D03*
X109740000Y-83820000D03*
D24*
X121425000Y-91840000D03*
X121425000Y-90340000D03*
X121425000Y-89300000D03*
X121425000Y-87800000D03*
D25*
X114300000Y-84290000D03*
X114300000Y-84690000D03*
X114300000Y-85090000D03*
X114300000Y-85490000D03*
X114300000Y-85890000D03*
X114300000Y-86290000D03*
X114300000Y-86690000D03*
D26*
X115100000Y-87490000D03*
X115500000Y-87490000D03*
X115900000Y-87490000D03*
X116300000Y-87490000D03*
X116700000Y-87490000D03*
X117100000Y-87490000D03*
X117500000Y-87490000D03*
D25*
X118300000Y-86690000D03*
X118300000Y-86290000D03*
X118300000Y-85890000D03*
X118300000Y-85490000D03*
X118300000Y-85090000D03*
X118300000Y-84690000D03*
X118300000Y-84290000D03*
D26*
X117500000Y-83490000D03*
X117100000Y-83490000D03*
X116700000Y-83490000D03*
X116300000Y-83490000D03*
X115900000Y-83490000D03*
X115500000Y-83490000D03*
X115100000Y-83490000D03*
D27*
X116887500Y-86077500D03*
X116887500Y-84902500D03*
X115712500Y-86077500D03*
X115712500Y-84902500D03*
D28*
X97790000Y-91440000D03*
X99060000Y-90170000D03*
X124460000Y-86360000D03*
X114300000Y-90170000D03*
X110490000Y-80010000D03*
X115029877Y-81338111D03*
X124460000Y-83820000D03*
X115975010Y-82550000D03*
X116840000Y-80010000D03*
X97790000Y-85090000D03*
X113030000Y-92710000D03*
X103190000Y-91440000D03*
X104140000Y-88900000D03*
X114300000Y-82550000D03*
X109220000Y-81280000D03*
X101600000Y-86360000D03*
X99060000Y-86360000D03*
X107950000Y-82550000D03*
X114300000Y-81280000D03*
X110490000Y-82550000D03*
X113030000Y-83820000D03*
D29*
X123190000Y-91090002D02*
X123190000Y-89965000D01*
X123190000Y-89965000D02*
X121425000Y-88200000D01*
X121425000Y-88200000D02*
X121425000Y-87800000D01*
X118525002Y-92710000D02*
X121570002Y-92710000D01*
X121570002Y-92710000D02*
X123190000Y-91090002D01*
X116345000Y-92770000D02*
X116345000Y-92975000D01*
X116345000Y-92975000D02*
X116845001Y-93475001D01*
X116845001Y-93475001D02*
X117760001Y-93475001D01*
X117760001Y-93475001D02*
X118525002Y-92710000D01*
X119380000Y-80590000D02*
X119380000Y-85090000D01*
X118130000Y-78740000D02*
X118130000Y-79340000D01*
X118130000Y-79340000D02*
X119380000Y-80590000D01*
X119380000Y-85090000D02*
X120650000Y-85090000D01*
X119380000Y-85760000D02*
X119380000Y-85090000D01*
X118300000Y-86290000D02*
X118850000Y-86290000D01*
X118850000Y-86290000D02*
X119380000Y-85760000D01*
X108270000Y-90170000D02*
X108270000Y-88900000D01*
X105090000Y-91440000D02*
X108270000Y-91440000D01*
X105090000Y-91440000D02*
X105090000Y-92710000D01*
X105410000Y-87360000D02*
X107255000Y-87360000D01*
X108270000Y-88375000D02*
X108270000Y-88900000D01*
X107255000Y-87360000D02*
X108270000Y-88375000D01*
X103485000Y-87060000D02*
X103485000Y-86160000D01*
X104385000Y-87060000D02*
X104685000Y-87360000D01*
X104685000Y-87360000D02*
X105410000Y-87360000D01*
X103485000Y-86160000D02*
X103685000Y-85960000D01*
X103685000Y-85960000D02*
X103685000Y-85135000D01*
X103485000Y-87060000D02*
X104385000Y-87060000D01*
X104385000Y-86160000D02*
X103485000Y-86160000D01*
X97790000Y-92710000D02*
X97790000Y-91440000D01*
X96600000Y-87660000D02*
X97075000Y-87660000D01*
X99060000Y-89645000D02*
X99060000Y-90170000D01*
X97075000Y-87660000D02*
X99060000Y-89645000D01*
D30*
X124460000Y-86360000D02*
X124875000Y-86775000D01*
X124875000Y-86775000D02*
X126340000Y-86775000D01*
X114300000Y-90170000D02*
X114995000Y-90170000D01*
X114995000Y-90170000D02*
X115395000Y-90570000D01*
X110630000Y-78740000D02*
X110630000Y-79870000D01*
X110630000Y-79870000D02*
X110490000Y-80010000D01*
X126340000Y-85525000D02*
X120325002Y-85525000D01*
X120325002Y-85525000D02*
X117760001Y-88090001D01*
X117760001Y-88090001D02*
X116700000Y-88090000D01*
X116700000Y-88090000D02*
X116700000Y-87490000D01*
X126340000Y-84275000D02*
X124915000Y-84275000D01*
X124915000Y-84275000D02*
X124460000Y-83820000D01*
X115900000Y-83490000D02*
X115900000Y-82625010D01*
X115900000Y-82625010D02*
X115975010Y-82550000D01*
X116880000Y-78740000D02*
X116880000Y-79970000D01*
X116880000Y-79970000D02*
X116840000Y-80010000D01*
X117140009Y-82849991D02*
X117100000Y-82890000D01*
X117140009Y-81580009D02*
X117140009Y-82849991D01*
X115630000Y-80070000D02*
X117140009Y-81580009D01*
X115630000Y-78740000D02*
X115630000Y-80070000D01*
X117100000Y-82890000D02*
X117100000Y-83490000D01*
X117100000Y-83029998D02*
X117100000Y-83490000D01*
X116090001Y-77639999D02*
X117340001Y-77639999D01*
X117340001Y-77639999D02*
X117500000Y-77799998D01*
X117500000Y-77799998D02*
X117500000Y-82890000D01*
X117500000Y-82890000D02*
X117500000Y-83490000D01*
X114380000Y-78740000D02*
X114380000Y-78140000D01*
X114380000Y-78140000D02*
X114880000Y-77640000D01*
X114880000Y-77640000D02*
X116090001Y-77639999D01*
X116090001Y-77639999D02*
X116130001Y-77679999D01*
X113130000Y-78740000D02*
X113130000Y-82320000D01*
X118100001Y-84090001D02*
X118300000Y-84290000D01*
X113130000Y-82320000D02*
X114900001Y-84090001D01*
X114900001Y-84090001D02*
X118100001Y-84090001D01*
X112935000Y-86360000D02*
X113805000Y-85490000D01*
X110395000Y-88900000D02*
X112935000Y-86360000D01*
X112935000Y-86360000D02*
X111880000Y-85305000D01*
X111880000Y-85305000D02*
X111880000Y-78740000D01*
X110170000Y-88900000D02*
X110395000Y-88900000D01*
X113805000Y-85490000D02*
X114300000Y-85490000D01*
D29*
X96600000Y-85060000D02*
X97760000Y-85060000D01*
X97760000Y-85060000D02*
X97790000Y-85090000D01*
X117295000Y-92770000D02*
X117295000Y-92549998D01*
X117295000Y-92549998D02*
X116810001Y-92064999D01*
X116810001Y-92064999D02*
X115895001Y-92064999D01*
X115895001Y-92064999D02*
X115395000Y-92565000D01*
X115395000Y-92565000D02*
X115395000Y-92770000D01*
X115395000Y-92770000D02*
X113090000Y-92770000D01*
X113090000Y-92770000D02*
X113030000Y-92710000D01*
X103685000Y-88085000D02*
X103685000Y-88445000D01*
X103685000Y-88445000D02*
X104140000Y-88900000D01*
D31*
X121425000Y-91840000D02*
X118020000Y-91840000D01*
X118020000Y-91840000D02*
X117295000Y-92565000D01*
X117295000Y-92565000D02*
X117295000Y-92770000D01*
X117845000Y-90340000D02*
X117615000Y-90570000D01*
X117615000Y-90570000D02*
X117295000Y-90570000D01*
X121425000Y-90340000D02*
X117845000Y-90340000D01*
X121425000Y-89300000D02*
X116835000Y-89300000D01*
X116835000Y-89300000D02*
X116345000Y-89790000D01*
X116345000Y-89790000D02*
X116345000Y-90570000D01*
D29*
X115224999Y-83474999D02*
X115209998Y-83490000D01*
X115209998Y-83490000D02*
X115100000Y-83490000D01*
X114300000Y-82550000D02*
X115224999Y-83474999D01*
X104185000Y-85135000D02*
X104185000Y-84910000D01*
X104185000Y-84910000D02*
X107815000Y-81280000D01*
X107815000Y-81280000D02*
X109220000Y-81280000D01*
X101600000Y-86360000D02*
X102460000Y-86360000D01*
X96600000Y-86360000D02*
X99060000Y-86360000D01*
X101935000Y-86860000D02*
X102460000Y-86860000D01*
X100263004Y-86860000D02*
X101935000Y-86860000D01*
X96600000Y-85710000D02*
X99113004Y-85710000D01*
X99113004Y-85710000D02*
X100263004Y-86860000D01*
X102460000Y-89760000D02*
X102460000Y-87360000D01*
X103445001Y-90745001D02*
X102460000Y-89760000D01*
X118300000Y-85890000D02*
X117650001Y-85890000D01*
X117615001Y-86840001D02*
X114984999Y-86840001D01*
X117650001Y-85890000D02*
X117650001Y-86805001D01*
X117650001Y-86805001D02*
X117615001Y-86840001D01*
X114984999Y-86840001D02*
X114949999Y-86805001D01*
X114949999Y-86805001D02*
X114949999Y-85989999D01*
X114850000Y-85890000D02*
X114300000Y-85890000D01*
X114949999Y-85989999D02*
X114850000Y-85890000D01*
D30*
X110170000Y-91440000D02*
X109945000Y-91440000D01*
X109945000Y-91440000D02*
X109250001Y-90745001D01*
X109250001Y-90745001D02*
X103445001Y-90745001D01*
X102460000Y-88040000D02*
X102460000Y-87360000D01*
X102460000Y-87710000D02*
X102460000Y-87360000D01*
X102460000Y-88079988D02*
X102460000Y-87710000D01*
X110170000Y-91440000D02*
X110170000Y-90170000D01*
X110170000Y-90170000D02*
X110395000Y-90170000D01*
X110395000Y-90170000D02*
X113699999Y-86865001D01*
X113699999Y-86865001D02*
X113699999Y-86029999D01*
X113699999Y-86029999D02*
X113839998Y-85890000D01*
X113839998Y-85890000D02*
X114300000Y-85890000D01*
D29*
X105635000Y-86360000D02*
X105410000Y-86360000D01*
X107950000Y-82550000D02*
X107950000Y-84045000D01*
X107950000Y-84045000D02*
X105635000Y-86360000D01*
X115500000Y-83490000D02*
X115500000Y-82480000D01*
X115500000Y-82480000D02*
X114300000Y-81280000D01*
X96600000Y-88860000D02*
X95975000Y-88860000D01*
X95975000Y-88860000D02*
X95749999Y-88634999D01*
X95749999Y-88634999D02*
X95749999Y-84085001D01*
X95749999Y-84085001D02*
X95975000Y-83860000D01*
X95975000Y-83860000D02*
X96600000Y-83860000D01*
X103190000Y-92710000D02*
X100300000Y-92710000D01*
X100300000Y-92710000D02*
X96600000Y-89010000D01*
X96600000Y-89010000D02*
X96600000Y-88860000D01*
D30*
X96600000Y-83860000D02*
X96600000Y-83710000D01*
X96600000Y-83710000D02*
X95750000Y-82860000D01*
X95750000Y-82860000D02*
X94875000Y-82860000D01*
X94875000Y-82860000D02*
X93900000Y-82860000D01*
X93900000Y-89860000D02*
X95750000Y-89860000D01*
X95750000Y-89860000D02*
X96600000Y-89010000D01*
D29*
X110490000Y-82550000D02*
X110490000Y-83470000D01*
X110490000Y-83470000D02*
X110840000Y-83820000D01*
X110840000Y-83820000D02*
X111240000Y-83820000D01*
X114300000Y-84290000D02*
X113500000Y-84290000D01*
X113500000Y-84290000D02*
X113030000Y-83820000D01*
D31*
X111240000Y-83820000D02*
X111240000Y-84570000D01*
D32*
G36*
X107732560Y-76940000D02*
X107776838Y-77175317D01*
X107915910Y-77391441D01*
X108128110Y-77536431D01*
X108380000Y-77587440D01*
X109380000Y-77587440D01*
X109615317Y-77543162D01*
X109831441Y-77404090D01*
X109976431Y-77191890D01*
X110027440Y-76940000D01*
X110027440Y-74422000D01*
X118732560Y-74422000D01*
X118732560Y-76940000D01*
X118776838Y-77175317D01*
X118915910Y-77391441D01*
X119128110Y-77536431D01*
X119380000Y-77587440D01*
X120380000Y-77587440D01*
X120615317Y-77543162D01*
X120831441Y-77404090D01*
X120976431Y-77191890D01*
X121027440Y-76940000D01*
X121027440Y-74422000D01*
X129797491Y-74422000D01*
X130143130Y-74490752D01*
X130425545Y-74679455D01*
X130614248Y-74961870D01*
X130683000Y-75307509D01*
X130683000Y-81402560D01*
X128140000Y-81402560D01*
X127904683Y-81446838D01*
X127688559Y-81585910D01*
X127543569Y-81798110D01*
X127492560Y-82050000D01*
X127492560Y-83050000D01*
X127536838Y-83285317D01*
X127675910Y-83501441D01*
X127888110Y-83646431D01*
X128140000Y-83697440D01*
X130683000Y-83697440D01*
X130683000Y-88602560D01*
X128140000Y-88602560D01*
X127904683Y-88646838D01*
X127688559Y-88785910D01*
X127543569Y-88998110D01*
X127492560Y-89250000D01*
X127492560Y-90250000D01*
X127536838Y-90485317D01*
X127675910Y-90701441D01*
X127888110Y-90846431D01*
X128140000Y-90897440D01*
X130683000Y-90897440D01*
X130683000Y-92332491D01*
X130614248Y-92678130D01*
X130425545Y-92960545D01*
X130143130Y-93149248D01*
X129797491Y-93218000D01*
X118267440Y-93218000D01*
X118267440Y-92667362D01*
X118334802Y-92600000D01*
X120596614Y-92600000D01*
X120723110Y-92686431D01*
X120975000Y-92737440D01*
X121875000Y-92737440D01*
X122110317Y-92693162D01*
X122326441Y-92554090D01*
X122471431Y-92341890D01*
X122522440Y-92090000D01*
X122522440Y-91590000D01*
X122478162Y-91354683D01*
X122339090Y-91138559D01*
X122269289Y-91090866D01*
X122326441Y-91054090D01*
X122471431Y-90841890D01*
X122522440Y-90590000D01*
X122522440Y-90090000D01*
X122478162Y-89854683D01*
X122457402Y-89822422D01*
X122471431Y-89801890D01*
X122522440Y-89550000D01*
X122522440Y-89050000D01*
X122478162Y-88814683D01*
X122339090Y-88598559D01*
X122270994Y-88552031D01*
X122413327Y-88409698D01*
X122454312Y-88310750D01*
X124805000Y-88310750D01*
X124805000Y-88451309D01*
X124901673Y-88684698D01*
X125080301Y-88863327D01*
X125313690Y-88960000D01*
X126054250Y-88960000D01*
X126213000Y-88801250D01*
X126213000Y-88152000D01*
X126467000Y-88152000D01*
X126467000Y-88801250D01*
X126625750Y-88960000D01*
X127366310Y-88960000D01*
X127599699Y-88863327D01*
X127778327Y-88684698D01*
X127875000Y-88451309D01*
X127875000Y-88310750D01*
X127716250Y-88152000D01*
X126467000Y-88152000D01*
X126213000Y-88152000D01*
X124963750Y-88152000D01*
X124805000Y-88310750D01*
X122454312Y-88310750D01*
X122510000Y-88176309D01*
X122510000Y-88083750D01*
X122351250Y-87925000D01*
X121552000Y-87925000D01*
X121552000Y-87947000D01*
X121298000Y-87947000D01*
X121298000Y-87925000D01*
X120498750Y-87925000D01*
X120340000Y-88083750D01*
X120340000Y-88176309D01*
X120436673Y-88409698D01*
X120566974Y-88540000D01*
X118349448Y-88540000D01*
X119465757Y-87423691D01*
X120340000Y-87423691D01*
X120340000Y-87516250D01*
X120498750Y-87675000D01*
X121298000Y-87675000D01*
X121298000Y-87073750D01*
X121552000Y-87073750D01*
X121552000Y-87675000D01*
X122351250Y-87675000D01*
X122510000Y-87516250D01*
X122510000Y-87423691D01*
X122413327Y-87190302D01*
X122234699Y-87011673D01*
X122001310Y-86915000D01*
X121710750Y-86915000D01*
X121552000Y-87073750D01*
X121298000Y-87073750D01*
X121139250Y-86915000D01*
X120848690Y-86915000D01*
X120615301Y-87011673D01*
X120436673Y-87190302D01*
X120340000Y-87423691D01*
X119465757Y-87423691D01*
X120629449Y-86260000D01*
X123525086Y-86260000D01*
X123524838Y-86545167D01*
X123666883Y-86888943D01*
X123929673Y-87152192D01*
X124273201Y-87294838D01*
X124355555Y-87294910D01*
X124535402Y-87415079D01*
X124593728Y-87454051D01*
X124844269Y-87503887D01*
X124805000Y-87598691D01*
X124805000Y-87739250D01*
X124963750Y-87898000D01*
X126213000Y-87898000D01*
X126213000Y-87878000D01*
X126467000Y-87878000D01*
X126467000Y-87898000D01*
X127716250Y-87898000D01*
X127875000Y-87739250D01*
X127875000Y-87598691D01*
X127790351Y-87394330D01*
X127836431Y-87326890D01*
X127887440Y-87075000D01*
X127887440Y-86475000D01*
X127843162Y-86239683D01*
X127785949Y-86150772D01*
X127836431Y-86076890D01*
X127887440Y-85825000D01*
X127887440Y-85225000D01*
X127843162Y-84989683D01*
X127785949Y-84900772D01*
X127836431Y-84826890D01*
X127887440Y-84575000D01*
X127887440Y-83975000D01*
X127843162Y-83739683D01*
X127704090Y-83523559D01*
X127491890Y-83378569D01*
X127240000Y-83327560D01*
X125440000Y-83327560D01*
X125280593Y-83357555D01*
X125253117Y-83291057D01*
X124990327Y-83027808D01*
X124646799Y-82885162D01*
X124274833Y-82884838D01*
X123931057Y-83026883D01*
X123667808Y-83289673D01*
X123525162Y-83633201D01*
X123524838Y-84005167D01*
X123666883Y-84348943D01*
X123929673Y-84612192D01*
X124273201Y-84754838D01*
X124355463Y-84754910D01*
X124390553Y-84790000D01*
X120325002Y-84790000D01*
X120043730Y-84845949D01*
X119805278Y-85005277D01*
X119347440Y-85463115D01*
X119347440Y-85390000D01*
X119327933Y-85286329D01*
X119347440Y-85190000D01*
X119347440Y-84990000D01*
X119327933Y-84886329D01*
X119347440Y-84790000D01*
X119347440Y-84590000D01*
X119327933Y-84486329D01*
X119347440Y-84390000D01*
X119347440Y-84190000D01*
X119303162Y-83954683D01*
X119164090Y-83738559D01*
X118951890Y-83593569D01*
X118700000Y-83542560D01*
X118578241Y-83542560D01*
X118381273Y-83410950D01*
X118247440Y-83384329D01*
X118247440Y-83090000D01*
X118235000Y-83023887D01*
X118235000Y-80275000D01*
X118257002Y-80275000D01*
X118257002Y-80116252D01*
X118415750Y-80275000D01*
X118556309Y-80275000D01*
X118789698Y-80178327D01*
X118968327Y-79999699D01*
X119065000Y-79766310D01*
X119065000Y-79025750D01*
X118906250Y-78867000D01*
X118257000Y-78867000D01*
X118257000Y-78887000D01*
X118235000Y-78887000D01*
X118235000Y-77799998D01*
X118179051Y-77518726D01*
X118102454Y-77404090D01*
X118075500Y-77363750D01*
X118257000Y-77363750D01*
X118257000Y-78613000D01*
X118906250Y-78613000D01*
X119065000Y-78454250D01*
X119065000Y-77713690D01*
X118968327Y-77480301D01*
X118789698Y-77301673D01*
X118556309Y-77205000D01*
X118415750Y-77205000D01*
X118257000Y-77363750D01*
X118075500Y-77363750D01*
X118019724Y-77280275D01*
X117859724Y-77120276D01*
X117621273Y-76960948D01*
X117340001Y-76904999D01*
X116090001Y-76904999D01*
X114879999Y-76905000D01*
X114598727Y-76960949D01*
X114503218Y-77024767D01*
X114360277Y-77120276D01*
X114287993Y-77192560D01*
X114080000Y-77192560D01*
X113844683Y-77236838D01*
X113755772Y-77294051D01*
X113681890Y-77243569D01*
X113430000Y-77192560D01*
X112830000Y-77192560D01*
X112594683Y-77236838D01*
X112505772Y-77294051D01*
X112431890Y-77243569D01*
X112180000Y-77192560D01*
X111580000Y-77192560D01*
X111344683Y-77236838D01*
X111255772Y-77294051D01*
X111181890Y-77243569D01*
X110930000Y-77192560D01*
X110330000Y-77192560D01*
X110094683Y-77236838D01*
X109878559Y-77375910D01*
X109733569Y-77588110D01*
X109682560Y-77840000D01*
X109682560Y-79516394D01*
X109555162Y-79823201D01*
X109554838Y-80195167D01*
X109660310Y-80450430D01*
X109406799Y-80345162D01*
X109034833Y-80344838D01*
X108691057Y-80486883D01*
X108607795Y-80570000D01*
X107815000Y-80570000D01*
X107543295Y-80624046D01*
X107312954Y-80777954D01*
X103936206Y-84154702D01*
X103927252Y-84156483D01*
X103881316Y-84149944D01*
X103844840Y-84191531D01*
X103685000Y-84298332D01*
X103525160Y-84191531D01*
X103488684Y-84149944D01*
X103442748Y-84156483D01*
X103185000Y-84105213D01*
X102884594Y-84164968D01*
X102629921Y-84335134D01*
X102459755Y-84589807D01*
X102400000Y-84890213D01*
X102400000Y-85075000D01*
X102215213Y-85075000D01*
X101914807Y-85134755D01*
X101660134Y-85304921D01*
X101579912Y-85424982D01*
X101414833Y-85424838D01*
X101071057Y-85566883D01*
X100807808Y-85829673D01*
X100674796Y-86150000D01*
X100557096Y-86150000D01*
X99615050Y-85207954D01*
X99384709Y-85054046D01*
X99113004Y-85000000D01*
X98725079Y-85000000D01*
X98725162Y-84904833D01*
X98583117Y-84561057D01*
X98320327Y-84297808D01*
X97976799Y-84155162D01*
X97686086Y-84154909D01*
X97710000Y-84034685D01*
X97710000Y-83685315D01*
X97625506Y-83260536D01*
X97384889Y-82900426D01*
X97024779Y-82659809D01*
X96600000Y-82575315D01*
X96520562Y-82591116D01*
X96269723Y-82340277D01*
X96031272Y-82180949D01*
X95750000Y-82125000D01*
X95050336Y-82125000D01*
X95005190Y-82057434D01*
X94636970Y-81811397D01*
X94202624Y-81725000D01*
X93597376Y-81725000D01*
X93163030Y-81811397D01*
X92794810Y-82057434D01*
X92548773Y-82425654D01*
X92462376Y-82860000D01*
X92548773Y-83294346D01*
X92794810Y-83662566D01*
X93163030Y-83908603D01*
X93597376Y-83995000D01*
X94202624Y-83995000D01*
X94636970Y-83908603D01*
X95005190Y-83662566D01*
X95050336Y-83595000D01*
X95239905Y-83595000D01*
X95094045Y-83813296D01*
X95039999Y-84085001D01*
X95039999Y-88634999D01*
X95094045Y-88906704D01*
X95239905Y-89125000D01*
X95050336Y-89125000D01*
X95005190Y-89057434D01*
X94636970Y-88811397D01*
X94202624Y-88725000D01*
X93597376Y-88725000D01*
X93163030Y-88811397D01*
X92794810Y-89057434D01*
X92548773Y-89425654D01*
X92462376Y-89860000D01*
X92548773Y-90294346D01*
X92794810Y-90662566D01*
X93163030Y-90908603D01*
X93597376Y-90995000D01*
X94202624Y-90995000D01*
X94636970Y-90908603D01*
X95005190Y-90662566D01*
X95050336Y-90595000D01*
X95750000Y-90595000D01*
X96031272Y-90539051D01*
X96269723Y-90379723D01*
X96520562Y-90128884D01*
X96600000Y-90144685D01*
X96708926Y-90123018D01*
X99797954Y-93212046D01*
X99806865Y-93218000D01*
X93087509Y-93218000D01*
X92741870Y-93149248D01*
X92459455Y-92960545D01*
X92270752Y-92678130D01*
X92202000Y-92332491D01*
X92202000Y-75307509D01*
X92270752Y-74961870D01*
X92459455Y-74679455D01*
X92741870Y-74490752D01*
X93087509Y-74422000D01*
X107732560Y-74422000D01*
X107732560Y-76940000D01*
X107732560Y-76940000D01*
G37*
X107732560Y-76940000D02*
X107776838Y-77175317D01*
X107915910Y-77391441D01*
X108128110Y-77536431D01*
X108380000Y-77587440D01*
X109380000Y-77587440D01*
X109615317Y-77543162D01*
X109831441Y-77404090D01*
X109976431Y-77191890D01*
X110027440Y-76940000D01*
X110027440Y-74422000D01*
X118732560Y-74422000D01*
X118732560Y-76940000D01*
X118776838Y-77175317D01*
X118915910Y-77391441D01*
X119128110Y-77536431D01*
X119380000Y-77587440D01*
X120380000Y-77587440D01*
X120615317Y-77543162D01*
X120831441Y-77404090D01*
X120976431Y-77191890D01*
X121027440Y-76940000D01*
X121027440Y-74422000D01*
X129797491Y-74422000D01*
X130143130Y-74490752D01*
X130425545Y-74679455D01*
X130614248Y-74961870D01*
X130683000Y-75307509D01*
X130683000Y-81402560D01*
X128140000Y-81402560D01*
X127904683Y-81446838D01*
X127688559Y-81585910D01*
X127543569Y-81798110D01*
X127492560Y-82050000D01*
X127492560Y-83050000D01*
X127536838Y-83285317D01*
X127675910Y-83501441D01*
X127888110Y-83646431D01*
X128140000Y-83697440D01*
X130683000Y-83697440D01*
X130683000Y-88602560D01*
X128140000Y-88602560D01*
X127904683Y-88646838D01*
X127688559Y-88785910D01*
X127543569Y-88998110D01*
X127492560Y-89250000D01*
X127492560Y-90250000D01*
X127536838Y-90485317D01*
X127675910Y-90701441D01*
X127888110Y-90846431D01*
X128140000Y-90897440D01*
X130683000Y-90897440D01*
X130683000Y-92332491D01*
X130614248Y-92678130D01*
X130425545Y-92960545D01*
X130143130Y-93149248D01*
X129797491Y-93218000D01*
X118267440Y-93218000D01*
X118267440Y-92667362D01*
X118334802Y-92600000D01*
X120596614Y-92600000D01*
X120723110Y-92686431D01*
X120975000Y-92737440D01*
X121875000Y-92737440D01*
X122110317Y-92693162D01*
X122326441Y-92554090D01*
X122471431Y-92341890D01*
X122522440Y-92090000D01*
X122522440Y-91590000D01*
X122478162Y-91354683D01*
X122339090Y-91138559D01*
X122269289Y-91090866D01*
X122326441Y-91054090D01*
X122471431Y-90841890D01*
X122522440Y-90590000D01*
X122522440Y-90090000D01*
X122478162Y-89854683D01*
X122457402Y-89822422D01*
X122471431Y-89801890D01*
X122522440Y-89550000D01*
X122522440Y-89050000D01*
X122478162Y-88814683D01*
X122339090Y-88598559D01*
X122270994Y-88552031D01*
X122413327Y-88409698D01*
X122454312Y-88310750D01*
X124805000Y-88310750D01*
X124805000Y-88451309D01*
X124901673Y-88684698D01*
X125080301Y-88863327D01*
X125313690Y-88960000D01*
X126054250Y-88960000D01*
X126213000Y-88801250D01*
X126213000Y-88152000D01*
X126467000Y-88152000D01*
X126467000Y-88801250D01*
X126625750Y-88960000D01*
X127366310Y-88960000D01*
X127599699Y-88863327D01*
X127778327Y-88684698D01*
X127875000Y-88451309D01*
X127875000Y-88310750D01*
X127716250Y-88152000D01*
X126467000Y-88152000D01*
X126213000Y-88152000D01*
X124963750Y-88152000D01*
X124805000Y-88310750D01*
X122454312Y-88310750D01*
X122510000Y-88176309D01*
X122510000Y-88083750D01*
X122351250Y-87925000D01*
X121552000Y-87925000D01*
X121552000Y-87947000D01*
X121298000Y-87947000D01*
X121298000Y-87925000D01*
X120498750Y-87925000D01*
X120340000Y-88083750D01*
X120340000Y-88176309D01*
X120436673Y-88409698D01*
X120566974Y-88540000D01*
X118349448Y-88540000D01*
X119465757Y-87423691D01*
X120340000Y-87423691D01*
X120340000Y-87516250D01*
X120498750Y-87675000D01*
X121298000Y-87675000D01*
X121298000Y-87073750D01*
X121552000Y-87073750D01*
X121552000Y-87675000D01*
X122351250Y-87675000D01*
X122510000Y-87516250D01*
X122510000Y-87423691D01*
X122413327Y-87190302D01*
X122234699Y-87011673D01*
X122001310Y-86915000D01*
X121710750Y-86915000D01*
X121552000Y-87073750D01*
X121298000Y-87073750D01*
X121139250Y-86915000D01*
X120848690Y-86915000D01*
X120615301Y-87011673D01*
X120436673Y-87190302D01*
X120340000Y-87423691D01*
X119465757Y-87423691D01*
X120629449Y-86260000D01*
X123525086Y-86260000D01*
X123524838Y-86545167D01*
X123666883Y-86888943D01*
X123929673Y-87152192D01*
X124273201Y-87294838D01*
X124355555Y-87294910D01*
X124535402Y-87415079D01*
X124593728Y-87454051D01*
X124844269Y-87503887D01*
X124805000Y-87598691D01*
X124805000Y-87739250D01*
X124963750Y-87898000D01*
X126213000Y-87898000D01*
X126213000Y-87878000D01*
X126467000Y-87878000D01*
X126467000Y-87898000D01*
X127716250Y-87898000D01*
X127875000Y-87739250D01*
X127875000Y-87598691D01*
X127790351Y-87394330D01*
X127836431Y-87326890D01*
X127887440Y-87075000D01*
X127887440Y-86475000D01*
X127843162Y-86239683D01*
X127785949Y-86150772D01*
X127836431Y-86076890D01*
X127887440Y-85825000D01*
X127887440Y-85225000D01*
X127843162Y-84989683D01*
X127785949Y-84900772D01*
X127836431Y-84826890D01*
X127887440Y-84575000D01*
X127887440Y-83975000D01*
X127843162Y-83739683D01*
X127704090Y-83523559D01*
X127491890Y-83378569D01*
X127240000Y-83327560D01*
X125440000Y-83327560D01*
X125280593Y-83357555D01*
X125253117Y-83291057D01*
X124990327Y-83027808D01*
X124646799Y-82885162D01*
X124274833Y-82884838D01*
X123931057Y-83026883D01*
X123667808Y-83289673D01*
X123525162Y-83633201D01*
X123524838Y-84005167D01*
X123666883Y-84348943D01*
X123929673Y-84612192D01*
X124273201Y-84754838D01*
X124355463Y-84754910D01*
X124390553Y-84790000D01*
X120325002Y-84790000D01*
X120043730Y-84845949D01*
X119805278Y-85005277D01*
X119347440Y-85463115D01*
X119347440Y-85390000D01*
X119327933Y-85286329D01*
X119347440Y-85190000D01*
X119347440Y-84990000D01*
X119327933Y-84886329D01*
X119347440Y-84790000D01*
X119347440Y-84590000D01*
X119327933Y-84486329D01*
X119347440Y-84390000D01*
X119347440Y-84190000D01*
X119303162Y-83954683D01*
X119164090Y-83738559D01*
X118951890Y-83593569D01*
X118700000Y-83542560D01*
X118578241Y-83542560D01*
X118381273Y-83410950D01*
X118247440Y-83384329D01*
X118247440Y-83090000D01*
X118235000Y-83023887D01*
X118235000Y-80275000D01*
X118257002Y-80275000D01*
X118257002Y-80116252D01*
X118415750Y-80275000D01*
X118556309Y-80275000D01*
X118789698Y-80178327D01*
X118968327Y-79999699D01*
X119065000Y-79766310D01*
X119065000Y-79025750D01*
X118906250Y-78867000D01*
X118257000Y-78867000D01*
X118257000Y-78887000D01*
X118235000Y-78887000D01*
X118235000Y-77799998D01*
X118179051Y-77518726D01*
X118102454Y-77404090D01*
X118075500Y-77363750D01*
X118257000Y-77363750D01*
X118257000Y-78613000D01*
X118906250Y-78613000D01*
X119065000Y-78454250D01*
X119065000Y-77713690D01*
X118968327Y-77480301D01*
X118789698Y-77301673D01*
X118556309Y-77205000D01*
X118415750Y-77205000D01*
X118257000Y-77363750D01*
X118075500Y-77363750D01*
X118019724Y-77280275D01*
X117859724Y-77120276D01*
X117621273Y-76960948D01*
X117340001Y-76904999D01*
X116090001Y-76904999D01*
X114879999Y-76905000D01*
X114598727Y-76960949D01*
X114503218Y-77024767D01*
X114360277Y-77120276D01*
X114287993Y-77192560D01*
X114080000Y-77192560D01*
X113844683Y-77236838D01*
X113755772Y-77294051D01*
X113681890Y-77243569D01*
X113430000Y-77192560D01*
X112830000Y-77192560D01*
X112594683Y-77236838D01*
X112505772Y-77294051D01*
X112431890Y-77243569D01*
X112180000Y-77192560D01*
X111580000Y-77192560D01*
X111344683Y-77236838D01*
X111255772Y-77294051D01*
X111181890Y-77243569D01*
X110930000Y-77192560D01*
X110330000Y-77192560D01*
X110094683Y-77236838D01*
X109878559Y-77375910D01*
X109733569Y-77588110D01*
X109682560Y-77840000D01*
X109682560Y-79516394D01*
X109555162Y-79823201D01*
X109554838Y-80195167D01*
X109660310Y-80450430D01*
X109406799Y-80345162D01*
X109034833Y-80344838D01*
X108691057Y-80486883D01*
X108607795Y-80570000D01*
X107815000Y-80570000D01*
X107543295Y-80624046D01*
X107312954Y-80777954D01*
X103936206Y-84154702D01*
X103927252Y-84156483D01*
X103881316Y-84149944D01*
X103844840Y-84191531D01*
X103685000Y-84298332D01*
X103525160Y-84191531D01*
X103488684Y-84149944D01*
X103442748Y-84156483D01*
X103185000Y-84105213D01*
X102884594Y-84164968D01*
X102629921Y-84335134D01*
X102459755Y-84589807D01*
X102400000Y-84890213D01*
X102400000Y-85075000D01*
X102215213Y-85075000D01*
X101914807Y-85134755D01*
X101660134Y-85304921D01*
X101579912Y-85424982D01*
X101414833Y-85424838D01*
X101071057Y-85566883D01*
X100807808Y-85829673D01*
X100674796Y-86150000D01*
X100557096Y-86150000D01*
X99615050Y-85207954D01*
X99384709Y-85054046D01*
X99113004Y-85000000D01*
X98725079Y-85000000D01*
X98725162Y-84904833D01*
X98583117Y-84561057D01*
X98320327Y-84297808D01*
X97976799Y-84155162D01*
X97686086Y-84154909D01*
X97710000Y-84034685D01*
X97710000Y-83685315D01*
X97625506Y-83260536D01*
X97384889Y-82900426D01*
X97024779Y-82659809D01*
X96600000Y-82575315D01*
X96520562Y-82591116D01*
X96269723Y-82340277D01*
X96031272Y-82180949D01*
X95750000Y-82125000D01*
X95050336Y-82125000D01*
X95005190Y-82057434D01*
X94636970Y-81811397D01*
X94202624Y-81725000D01*
X93597376Y-81725000D01*
X93163030Y-81811397D01*
X92794810Y-82057434D01*
X92548773Y-82425654D01*
X92462376Y-82860000D01*
X92548773Y-83294346D01*
X92794810Y-83662566D01*
X93163030Y-83908603D01*
X93597376Y-83995000D01*
X94202624Y-83995000D01*
X94636970Y-83908603D01*
X95005190Y-83662566D01*
X95050336Y-83595000D01*
X95239905Y-83595000D01*
X95094045Y-83813296D01*
X95039999Y-84085001D01*
X95039999Y-88634999D01*
X95094045Y-88906704D01*
X95239905Y-89125000D01*
X95050336Y-89125000D01*
X95005190Y-89057434D01*
X94636970Y-88811397D01*
X94202624Y-88725000D01*
X93597376Y-88725000D01*
X93163030Y-88811397D01*
X92794810Y-89057434D01*
X92548773Y-89425654D01*
X92462376Y-89860000D01*
X92548773Y-90294346D01*
X92794810Y-90662566D01*
X93163030Y-90908603D01*
X93597376Y-90995000D01*
X94202624Y-90995000D01*
X94636970Y-90908603D01*
X95005190Y-90662566D01*
X95050336Y-90595000D01*
X95750000Y-90595000D01*
X96031272Y-90539051D01*
X96269723Y-90379723D01*
X96520562Y-90128884D01*
X96600000Y-90144685D01*
X96708926Y-90123018D01*
X99797954Y-93212046D01*
X99806865Y-93218000D01*
X93087509Y-93218000D01*
X92741870Y-93149248D01*
X92459455Y-92960545D01*
X92270752Y-92678130D01*
X92202000Y-92332491D01*
X92202000Y-75307509D01*
X92270752Y-74961870D01*
X92459455Y-74679455D01*
X92741870Y-74490752D01*
X93087509Y-74422000D01*
X107732560Y-74422000D01*
X107732560Y-76940000D01*
G36*
X114352560Y-87890000D02*
X114396838Y-88125317D01*
X114535910Y-88341441D01*
X114748110Y-88486431D01*
X115000000Y-88537440D01*
X115200000Y-88537440D01*
X115303671Y-88517933D01*
X115400000Y-88537440D01*
X115600000Y-88537440D01*
X115703671Y-88517933D01*
X115800000Y-88537440D01*
X116000000Y-88537440D01*
X116103671Y-88517933D01*
X116121335Y-88521510D01*
X116180277Y-88609723D01*
X116353335Y-88725357D01*
X116297599Y-88762599D01*
X115807599Y-89252599D01*
X115714080Y-89392560D01*
X115070000Y-89392560D01*
X114880625Y-89428193D01*
X114830327Y-89377808D01*
X114486799Y-89235162D01*
X114114833Y-89234838D01*
X113771057Y-89376883D01*
X113507808Y-89639673D01*
X113365162Y-89983201D01*
X113364838Y-90355167D01*
X113506883Y-90698943D01*
X113769673Y-90962192D01*
X114113201Y-91104838D01*
X114423521Y-91105108D01*
X114466838Y-91335317D01*
X114605910Y-91551441D01*
X114781232Y-91671233D01*
X114618559Y-91775910D01*
X114473569Y-91988110D01*
X114459011Y-92060000D01*
X113702271Y-92060000D01*
X113560327Y-91917808D01*
X113216799Y-91775162D01*
X112844833Y-91774838D01*
X112501057Y-91916883D01*
X112237808Y-92179673D01*
X112095162Y-92523201D01*
X112094838Y-92895167D01*
X112228230Y-93218000D01*
X106322229Y-93218000D01*
X106325000Y-93211310D01*
X106325000Y-92995750D01*
X106166250Y-92837000D01*
X105217000Y-92837000D01*
X105217000Y-92857000D01*
X104963000Y-92857000D01*
X104963000Y-92837000D01*
X104943000Y-92837000D01*
X104943000Y-92583000D01*
X104963000Y-92583000D01*
X104963000Y-91567000D01*
X104943000Y-91567000D01*
X104943000Y-91480001D01*
X105237000Y-91480001D01*
X105237000Y-91567000D01*
X105217000Y-91567000D01*
X105217000Y-92583000D01*
X106166250Y-92583000D01*
X106325000Y-92424250D01*
X106325000Y-92208690D01*
X106269624Y-92075000D01*
X106325000Y-91941310D01*
X106325000Y-91725750D01*
X106166252Y-91567002D01*
X106325000Y-91567002D01*
X106325000Y-91480001D01*
X107035000Y-91480001D01*
X107035000Y-91567002D01*
X107193748Y-91567002D01*
X107035000Y-91725750D01*
X107035000Y-91941310D01*
X107131673Y-92174699D01*
X107310302Y-92353327D01*
X107543691Y-92450000D01*
X107984250Y-92450000D01*
X108143000Y-92291250D01*
X108143000Y-91567000D01*
X108123000Y-91567000D01*
X108123000Y-91480001D01*
X108417000Y-91480001D01*
X108417000Y-91567000D01*
X108397000Y-91567000D01*
X108397000Y-92291250D01*
X108555750Y-92450000D01*
X108996309Y-92450000D01*
X109229698Y-92353327D01*
X109231068Y-92351957D01*
X109318110Y-92411431D01*
X109570000Y-92462440D01*
X110770000Y-92462440D01*
X111005317Y-92418162D01*
X111221441Y-92279090D01*
X111366431Y-92066890D01*
X111417440Y-91815000D01*
X111417440Y-91065000D01*
X111373162Y-90829683D01*
X111359030Y-90807721D01*
X111366431Y-90796890D01*
X111417440Y-90545000D01*
X111417440Y-90187006D01*
X114167007Y-87437440D01*
X114352560Y-87437440D01*
X114352560Y-87890000D01*
X114352560Y-87890000D01*
G37*
X114352560Y-87890000D02*
X114396838Y-88125317D01*
X114535910Y-88341441D01*
X114748110Y-88486431D01*
X115000000Y-88537440D01*
X115200000Y-88537440D01*
X115303671Y-88517933D01*
X115400000Y-88537440D01*
X115600000Y-88537440D01*
X115703671Y-88517933D01*
X115800000Y-88537440D01*
X116000000Y-88537440D01*
X116103671Y-88517933D01*
X116121335Y-88521510D01*
X116180277Y-88609723D01*
X116353335Y-88725357D01*
X116297599Y-88762599D01*
X115807599Y-89252599D01*
X115714080Y-89392560D01*
X115070000Y-89392560D01*
X114880625Y-89428193D01*
X114830327Y-89377808D01*
X114486799Y-89235162D01*
X114114833Y-89234838D01*
X113771057Y-89376883D01*
X113507808Y-89639673D01*
X113365162Y-89983201D01*
X113364838Y-90355167D01*
X113506883Y-90698943D01*
X113769673Y-90962192D01*
X114113201Y-91104838D01*
X114423521Y-91105108D01*
X114466838Y-91335317D01*
X114605910Y-91551441D01*
X114781232Y-91671233D01*
X114618559Y-91775910D01*
X114473569Y-91988110D01*
X114459011Y-92060000D01*
X113702271Y-92060000D01*
X113560327Y-91917808D01*
X113216799Y-91775162D01*
X112844833Y-91774838D01*
X112501057Y-91916883D01*
X112237808Y-92179673D01*
X112095162Y-92523201D01*
X112094838Y-92895167D01*
X112228230Y-93218000D01*
X106322229Y-93218000D01*
X106325000Y-93211310D01*
X106325000Y-92995750D01*
X106166250Y-92837000D01*
X105217000Y-92837000D01*
X105217000Y-92857000D01*
X104963000Y-92857000D01*
X104963000Y-92837000D01*
X104943000Y-92837000D01*
X104943000Y-92583000D01*
X104963000Y-92583000D01*
X104963000Y-91567000D01*
X104943000Y-91567000D01*
X104943000Y-91480001D01*
X105237000Y-91480001D01*
X105237000Y-91567000D01*
X105217000Y-91567000D01*
X105217000Y-92583000D01*
X106166250Y-92583000D01*
X106325000Y-92424250D01*
X106325000Y-92208690D01*
X106269624Y-92075000D01*
X106325000Y-91941310D01*
X106325000Y-91725750D01*
X106166252Y-91567002D01*
X106325000Y-91567002D01*
X106325000Y-91480001D01*
X107035000Y-91480001D01*
X107035000Y-91567002D01*
X107193748Y-91567002D01*
X107035000Y-91725750D01*
X107035000Y-91941310D01*
X107131673Y-92174699D01*
X107310302Y-92353327D01*
X107543691Y-92450000D01*
X107984250Y-92450000D01*
X108143000Y-92291250D01*
X108143000Y-91567000D01*
X108123000Y-91567000D01*
X108123000Y-91480001D01*
X108417000Y-91480001D01*
X108417000Y-91567000D01*
X108397000Y-91567000D01*
X108397000Y-92291250D01*
X108555750Y-92450000D01*
X108996309Y-92450000D01*
X109229698Y-92353327D01*
X109231068Y-92351957D01*
X109318110Y-92411431D01*
X109570000Y-92462440D01*
X110770000Y-92462440D01*
X111005317Y-92418162D01*
X111221441Y-92279090D01*
X111366431Y-92066890D01*
X111417440Y-91815000D01*
X111417440Y-91065000D01*
X111373162Y-90829683D01*
X111359030Y-90807721D01*
X111366431Y-90796890D01*
X111417440Y-90545000D01*
X111417440Y-90187006D01*
X114167007Y-87437440D01*
X114352560Y-87437440D01*
X114352560Y-87890000D01*
G36*
X98529673Y-87152192D02*
X98873201Y-87294838D01*
X99245167Y-87295162D01*
X99562822Y-87163910D01*
X99760958Y-87362046D01*
X99991299Y-87515954D01*
X100263004Y-87570001D01*
X100263009Y-87570000D01*
X101471985Y-87570000D01*
X101489968Y-87660406D01*
X101660134Y-87915079D01*
X101725000Y-87958421D01*
X101725000Y-88079988D01*
X101750000Y-88205670D01*
X101750000Y-89760000D01*
X101804046Y-90031705D01*
X101957954Y-90262046D01*
X102234854Y-90538946D01*
X102138559Y-90600910D01*
X101993569Y-90813110D01*
X101942560Y-91065000D01*
X101942560Y-91815000D01*
X101977370Y-92000000D01*
X100594092Y-92000000D01*
X97696524Y-89102432D01*
X97710000Y-89034685D01*
X97710000Y-88685315D01*
X97649892Y-88383133D01*
X97813327Y-88219699D01*
X97910000Y-87986310D01*
X97910000Y-87918750D01*
X97751250Y-87760000D01*
X97592933Y-87760000D01*
X97726441Y-87674090D01*
X97871431Y-87461890D01*
X97877035Y-87434215D01*
X97910000Y-87401250D01*
X97910000Y-87333690D01*
X97901532Y-87313247D01*
X97922440Y-87210000D01*
X97922440Y-87070000D01*
X98447624Y-87070000D01*
X98529673Y-87152192D01*
X98529673Y-87152192D01*
G37*
X98529673Y-87152192D02*
X98873201Y-87294838D01*
X99245167Y-87295162D01*
X99562822Y-87163910D01*
X99760958Y-87362046D01*
X99991299Y-87515954D01*
X100263004Y-87570001D01*
X100263009Y-87570000D01*
X101471985Y-87570000D01*
X101489968Y-87660406D01*
X101660134Y-87915079D01*
X101725000Y-87958421D01*
X101725000Y-88079988D01*
X101750000Y-88205670D01*
X101750000Y-89760000D01*
X101804046Y-90031705D01*
X101957954Y-90262046D01*
X102234854Y-90538946D01*
X102138559Y-90600910D01*
X101993569Y-90813110D01*
X101942560Y-91065000D01*
X101942560Y-91815000D01*
X101977370Y-92000000D01*
X100594092Y-92000000D01*
X97696524Y-89102432D01*
X97710000Y-89034685D01*
X97710000Y-88685315D01*
X97649892Y-88383133D01*
X97813327Y-88219699D01*
X97910000Y-87986310D01*
X97910000Y-87918750D01*
X97751250Y-87760000D01*
X97592933Y-87760000D01*
X97726441Y-87674090D01*
X97871431Y-87461890D01*
X97877035Y-87434215D01*
X97910000Y-87401250D01*
X97910000Y-87333690D01*
X97901532Y-87313247D01*
X97922440Y-87210000D01*
X97922440Y-87070000D01*
X98447624Y-87070000D01*
X98529673Y-87152192D01*
G36*
X109033201Y-82214838D02*
X109405167Y-82215162D01*
X109660430Y-82109690D01*
X109555162Y-82363201D01*
X109554838Y-82735167D01*
X109612998Y-82875925D01*
X109612998Y-82891748D01*
X109456250Y-82735000D01*
X109363691Y-82735000D01*
X109130302Y-82831673D01*
X108951673Y-83010301D01*
X108855000Y-83243690D01*
X108855000Y-83534250D01*
X109013750Y-83693000D01*
X109615000Y-83693000D01*
X109615000Y-83673000D01*
X109820380Y-83673000D01*
X109834046Y-83741705D01*
X109887000Y-83820957D01*
X109887000Y-83947000D01*
X109865000Y-83947000D01*
X109865000Y-84746250D01*
X110023750Y-84905000D01*
X110116309Y-84905000D01*
X110349698Y-84808327D01*
X110490936Y-84667090D01*
X110503060Y-84685932D01*
X110537852Y-84860839D01*
X110702599Y-85107401D01*
X110949161Y-85272148D01*
X111146264Y-85311355D01*
X111197092Y-85566883D01*
X111200949Y-85586272D01*
X111360277Y-85824723D01*
X111895553Y-86360000D01*
X110377994Y-87877560D01*
X109570000Y-87877560D01*
X109334683Y-87921838D01*
X109231354Y-87988329D01*
X109229698Y-87986673D01*
X108996309Y-87890000D01*
X108555750Y-87890000D01*
X108397000Y-88048750D01*
X108397000Y-88773000D01*
X108417000Y-88773000D01*
X108417000Y-89027000D01*
X108397000Y-89027000D01*
X108397000Y-90010001D01*
X108143000Y-90010001D01*
X108143000Y-89027000D01*
X107193750Y-89027000D01*
X107035000Y-89185750D01*
X107035000Y-89401310D01*
X107090376Y-89535000D01*
X107035000Y-89668690D01*
X107035000Y-89884250D01*
X107160751Y-90010001D01*
X103714093Y-90010001D01*
X103170000Y-89465908D01*
X103170000Y-89111803D01*
X103185000Y-89114787D01*
X103214641Y-89108891D01*
X103346883Y-89428943D01*
X103609673Y-89692192D01*
X103953201Y-89834838D01*
X104325167Y-89835162D01*
X104668943Y-89693117D01*
X104932192Y-89430327D01*
X105074838Y-89086799D01*
X105074918Y-88995223D01*
X105240079Y-88884866D01*
X105410245Y-88630193D01*
X105456294Y-88398690D01*
X107035000Y-88398690D01*
X107035000Y-88614250D01*
X107193750Y-88773000D01*
X108143000Y-88773000D01*
X108143000Y-88048750D01*
X107984250Y-87890000D01*
X107543691Y-87890000D01*
X107310302Y-87986673D01*
X107131673Y-88165301D01*
X107035000Y-88398690D01*
X105456294Y-88398690D01*
X105470000Y-88329787D01*
X105470000Y-88145000D01*
X105537002Y-88145000D01*
X105537002Y-87994127D01*
X105662239Y-88158443D01*
X105965716Y-88087241D01*
X106218845Y-87905324D01*
X106383089Y-87640386D01*
X106395056Y-87556316D01*
X106256743Y-87435000D01*
X106180052Y-87435000D01*
X106209866Y-87415079D01*
X106353469Y-87200160D01*
X106395056Y-87163684D01*
X106388517Y-87117748D01*
X106439787Y-86860000D01*
X106390058Y-86610000D01*
X106390298Y-86608794D01*
X108452046Y-84547046D01*
X108605954Y-84316705D01*
X108647915Y-84105750D01*
X108855000Y-84105750D01*
X108855000Y-84396310D01*
X108951673Y-84629699D01*
X109130302Y-84808327D01*
X109363691Y-84905000D01*
X109456250Y-84905000D01*
X109615000Y-84746250D01*
X109615000Y-83947000D01*
X109013750Y-83947000D01*
X108855000Y-84105750D01*
X108647915Y-84105750D01*
X108660000Y-84045000D01*
X108660000Y-83162376D01*
X108742192Y-83080327D01*
X108884838Y-82736799D01*
X108885162Y-82364833D01*
X108779690Y-82109570D01*
X109033201Y-82214838D01*
X109033201Y-82214838D01*
G37*
X109033201Y-82214838D02*
X109405167Y-82215162D01*
X109660430Y-82109690D01*
X109555162Y-82363201D01*
X109554838Y-82735167D01*
X109612998Y-82875925D01*
X109612998Y-82891748D01*
X109456250Y-82735000D01*
X109363691Y-82735000D01*
X109130302Y-82831673D01*
X108951673Y-83010301D01*
X108855000Y-83243690D01*
X108855000Y-83534250D01*
X109013750Y-83693000D01*
X109615000Y-83693000D01*
X109615000Y-83673000D01*
X109820380Y-83673000D01*
X109834046Y-83741705D01*
X109887000Y-83820957D01*
X109887000Y-83947000D01*
X109865000Y-83947000D01*
X109865000Y-84746250D01*
X110023750Y-84905000D01*
X110116309Y-84905000D01*
X110349698Y-84808327D01*
X110490936Y-84667090D01*
X110503060Y-84685932D01*
X110537852Y-84860839D01*
X110702599Y-85107401D01*
X110949161Y-85272148D01*
X111146264Y-85311355D01*
X111197092Y-85566883D01*
X111200949Y-85586272D01*
X111360277Y-85824723D01*
X111895553Y-86360000D01*
X110377994Y-87877560D01*
X109570000Y-87877560D01*
X109334683Y-87921838D01*
X109231354Y-87988329D01*
X109229698Y-87986673D01*
X108996309Y-87890000D01*
X108555750Y-87890000D01*
X108397000Y-88048750D01*
X108397000Y-88773000D01*
X108417000Y-88773000D01*
X108417000Y-89027000D01*
X108397000Y-89027000D01*
X108397000Y-90010001D01*
X108143000Y-90010001D01*
X108143000Y-89027000D01*
X107193750Y-89027000D01*
X107035000Y-89185750D01*
X107035000Y-89401310D01*
X107090376Y-89535000D01*
X107035000Y-89668690D01*
X107035000Y-89884250D01*
X107160751Y-90010001D01*
X103714093Y-90010001D01*
X103170000Y-89465908D01*
X103170000Y-89111803D01*
X103185000Y-89114787D01*
X103214641Y-89108891D01*
X103346883Y-89428943D01*
X103609673Y-89692192D01*
X103953201Y-89834838D01*
X104325167Y-89835162D01*
X104668943Y-89693117D01*
X104932192Y-89430327D01*
X105074838Y-89086799D01*
X105074918Y-88995223D01*
X105240079Y-88884866D01*
X105410245Y-88630193D01*
X105456294Y-88398690D01*
X107035000Y-88398690D01*
X107035000Y-88614250D01*
X107193750Y-88773000D01*
X108143000Y-88773000D01*
X108143000Y-88048750D01*
X107984250Y-87890000D01*
X107543691Y-87890000D01*
X107310302Y-87986673D01*
X107131673Y-88165301D01*
X107035000Y-88398690D01*
X105456294Y-88398690D01*
X105470000Y-88329787D01*
X105470000Y-88145000D01*
X105537002Y-88145000D01*
X105537002Y-87994127D01*
X105662239Y-88158443D01*
X105965716Y-88087241D01*
X106218845Y-87905324D01*
X106383089Y-87640386D01*
X106395056Y-87556316D01*
X106256743Y-87435000D01*
X106180052Y-87435000D01*
X106209866Y-87415079D01*
X106353469Y-87200160D01*
X106395056Y-87163684D01*
X106388517Y-87117748D01*
X106439787Y-86860000D01*
X106390058Y-86610000D01*
X106390298Y-86608794D01*
X108452046Y-84547046D01*
X108605954Y-84316705D01*
X108647915Y-84105750D01*
X108855000Y-84105750D01*
X108855000Y-84396310D01*
X108951673Y-84629699D01*
X109130302Y-84808327D01*
X109363691Y-84905000D01*
X109456250Y-84905000D01*
X109615000Y-84746250D01*
X109615000Y-83947000D01*
X109013750Y-83947000D01*
X108855000Y-84105750D01*
X108647915Y-84105750D01*
X108660000Y-84045000D01*
X108660000Y-83162376D01*
X108742192Y-83080327D01*
X108884838Y-82736799D01*
X108885162Y-82364833D01*
X108779690Y-82109570D01*
X109033201Y-82214838D01*
M02*
