G04 #@! TF.FileFunction,Legend,Top*
%FSLAX46Y46*%
G04 Gerber Fmt 4.6, Leading zero omitted, Abs format (unit mm)*
G04 Created by KiCad (PCBNEW 4.0.6-e0-6349~53~ubuntu16.04.1) date Sat Jun 17 13:56:32 2017*
%MOMM*%
%LPD*%
G01*
G04 APERTURE LIST*
%ADD10C,0.100000*%
%ADD11C,0.120000*%
%ADD12C,0.150000*%
G04 APERTURE END LIST*
D10*
D11*
X97630000Y-82010000D02*
X97630000Y-90710000D01*
X92450000Y-90710000D02*
X92450000Y-82010000D01*
X130790000Y-88650000D02*
X130790000Y-83650000D01*
X127590000Y-90350000D02*
X126490000Y-90350000D01*
X126490000Y-90350000D02*
X126490000Y-88800000D01*
X126490000Y-88800000D02*
X126990000Y-88800000D01*
X126990000Y-88800000D02*
X126990000Y-89850000D01*
X126990000Y-89850000D02*
X127590000Y-89850000D01*
X127590000Y-89850000D02*
X127590000Y-90350000D01*
X127590000Y-81950000D02*
X126490000Y-81950000D01*
X126490000Y-81950000D02*
X126490000Y-83500000D01*
X126490000Y-83500000D02*
X126990000Y-83500000D01*
X126990000Y-83500000D02*
X126990000Y-82450000D01*
X126990000Y-82450000D02*
X127590000Y-82450000D01*
X127590000Y-82450000D02*
X127590000Y-81950000D01*
X125790000Y-89025000D02*
X125490000Y-89625000D01*
X125490000Y-89625000D02*
X126090000Y-89625000D01*
X126090000Y-89625000D02*
X125790000Y-89025000D01*
X118780000Y-74290000D02*
X109980000Y-74290000D01*
X120480000Y-77490000D02*
X120480000Y-78590000D01*
X120480000Y-78590000D02*
X118930000Y-78590000D01*
X118930000Y-78590000D02*
X118930000Y-78090000D01*
X118930000Y-78090000D02*
X119980000Y-78090000D01*
X119980000Y-78090000D02*
X119980000Y-77490000D01*
X119980000Y-77490000D02*
X120480000Y-77490000D01*
X108280000Y-77490000D02*
X108280000Y-78590000D01*
X108280000Y-78590000D02*
X109830000Y-78590000D01*
X109830000Y-78590000D02*
X109830000Y-78090000D01*
X109830000Y-78090000D02*
X108780000Y-78090000D01*
X108780000Y-78090000D02*
X108780000Y-77490000D01*
X108780000Y-77490000D02*
X108280000Y-77490000D01*
X119130000Y-79290000D02*
X119730000Y-79590000D01*
X119730000Y-79590000D02*
X119730000Y-78990000D01*
X119730000Y-78990000D02*
X119130000Y-79290000D01*
X117955000Y-92570000D02*
X117955000Y-90770000D01*
X114735000Y-90770000D02*
X114735000Y-93220000D01*
D12*
X105560000Y-88235000D02*
X105060000Y-88235000D01*
X102310000Y-84985000D02*
X102810000Y-84985000D01*
X102310000Y-88235000D02*
X102810000Y-88235000D01*
X105560000Y-84985000D02*
X105560000Y-85485000D01*
X102310000Y-84985000D02*
X102310000Y-85485000D01*
X102310000Y-88235000D02*
X102310000Y-87735000D01*
X105560000Y-88235000D02*
X105560000Y-87735000D01*
D11*
X104490000Y-92040000D02*
X103790000Y-92040000D01*
X103790000Y-90840000D02*
X104490000Y-90840000D01*
X109570000Y-89500000D02*
X108870000Y-89500000D01*
X108870000Y-88300000D02*
X109570000Y-88300000D01*
X103790000Y-92110000D02*
X104490000Y-92110000D01*
X104490000Y-93310000D02*
X103790000Y-93310000D01*
X109570000Y-92040000D02*
X108870000Y-92040000D01*
X108870000Y-90840000D02*
X109570000Y-90840000D01*
X109570000Y-90770000D02*
X108870000Y-90770000D01*
X108870000Y-89570000D02*
X109570000Y-89570000D01*
X109990000Y-83140000D02*
X110990000Y-83140000D01*
X110990000Y-84500000D02*
X109990000Y-84500000D01*
X122105000Y-90590000D02*
X122105000Y-91590000D01*
X120745000Y-91590000D02*
X120745000Y-90590000D01*
X122105000Y-88050000D02*
X122105000Y-89050000D01*
X120745000Y-89050000D02*
X120745000Y-88050000D01*
D12*
X118425000Y-83365000D02*
X118425000Y-83965000D01*
X114175000Y-87615000D02*
X114175000Y-87015000D01*
X118425000Y-87615000D02*
X118425000Y-87015000D01*
X114175000Y-83365000D02*
X114775000Y-83365000D01*
X114175000Y-87615000D02*
X114775000Y-87615000D01*
X118425000Y-87615000D02*
X117825000Y-87615000D01*
X118425000Y-83365000D02*
X117825000Y-83365000D01*
X97942381Y-86693333D02*
X98656667Y-86693333D01*
X98799524Y-86740953D01*
X98894762Y-86836191D01*
X98942381Y-86979048D01*
X98942381Y-87074286D01*
X97942381Y-86312381D02*
X97942381Y-85693333D01*
X98323333Y-86026667D01*
X98323333Y-85883809D01*
X98370952Y-85788571D01*
X98418571Y-85740952D01*
X98513810Y-85693333D01*
X98751905Y-85693333D01*
X98847143Y-85740952D01*
X98894762Y-85788571D01*
X98942381Y-85883809D01*
X98942381Y-86169524D01*
X98894762Y-86264762D01*
X98847143Y-86312381D01*
X123592381Y-86483333D02*
X124306667Y-86483333D01*
X124449524Y-86530953D01*
X124544762Y-86626191D01*
X124592381Y-86769048D01*
X124592381Y-86864286D01*
X124592381Y-85483333D02*
X124592381Y-86054762D01*
X124592381Y-85769048D02*
X123592381Y-85769048D01*
X123735238Y-85864286D01*
X123830476Y-85959524D01*
X123878095Y-86054762D01*
X114046667Y-80392381D02*
X114046667Y-81106667D01*
X113999047Y-81249524D01*
X113903809Y-81344762D01*
X113760952Y-81392381D01*
X113665714Y-81392381D01*
X114475238Y-80487619D02*
X114522857Y-80440000D01*
X114618095Y-80392381D01*
X114856191Y-80392381D01*
X114951429Y-80440000D01*
X114999048Y-80487619D01*
X115046667Y-80582857D01*
X115046667Y-80678095D01*
X114999048Y-80820952D01*
X114427619Y-81392381D01*
X115046667Y-81392381D01*
X118618095Y-92162381D02*
X118618095Y-92971905D01*
X118665714Y-93067143D01*
X118713333Y-93114762D01*
X118808571Y-93162381D01*
X118999048Y-93162381D01*
X119094286Y-93114762D01*
X119141905Y-93067143D01*
X119189524Y-92971905D01*
X119189524Y-92162381D01*
X120189524Y-93162381D02*
X119618095Y-93162381D01*
X119903809Y-93162381D02*
X119903809Y-92162381D01*
X119808571Y-92305238D01*
X119713333Y-92400476D01*
X119618095Y-92448095D01*
X106237381Y-87371905D02*
X107046905Y-87371905D01*
X107142143Y-87324286D01*
X107189762Y-87276667D01*
X107237381Y-87181429D01*
X107237381Y-86990952D01*
X107189762Y-86895714D01*
X107142143Y-86848095D01*
X107046905Y-86800476D01*
X106237381Y-86800476D01*
X106237381Y-86419524D02*
X106237381Y-85800476D01*
X106618333Y-86133810D01*
X106618333Y-85990952D01*
X106665952Y-85895714D01*
X106713571Y-85848095D01*
X106808810Y-85800476D01*
X107046905Y-85800476D01*
X107142143Y-85848095D01*
X107189762Y-85895714D01*
X107237381Y-85990952D01*
X107237381Y-86276667D01*
X107189762Y-86371905D01*
X107142143Y-86419524D01*
X101433334Y-93067143D02*
X101385715Y-93114762D01*
X101242858Y-93162381D01*
X101147620Y-93162381D01*
X101004762Y-93114762D01*
X100909524Y-93019524D01*
X100861905Y-92924286D01*
X100814286Y-92733810D01*
X100814286Y-92590952D01*
X100861905Y-92400476D01*
X100909524Y-92305238D01*
X101004762Y-92210000D01*
X101147620Y-92162381D01*
X101242858Y-92162381D01*
X101385715Y-92210000D01*
X101433334Y-92257619D01*
X102385715Y-93162381D02*
X101814286Y-93162381D01*
X102100000Y-93162381D02*
X102100000Y-92162381D01*
X102004762Y-92305238D01*
X101909524Y-92400476D01*
X101814286Y-92448095D01*
X111593334Y-89257143D02*
X111545715Y-89304762D01*
X111402858Y-89352381D01*
X111307620Y-89352381D01*
X111164762Y-89304762D01*
X111069524Y-89209524D01*
X111021905Y-89114286D01*
X110974286Y-88923810D01*
X110974286Y-88780952D01*
X111021905Y-88590476D01*
X111069524Y-88495238D01*
X111164762Y-88400000D01*
X111307620Y-88352381D01*
X111402858Y-88352381D01*
X111545715Y-88400000D01*
X111593334Y-88447619D01*
X111974286Y-88447619D02*
X112021905Y-88400000D01*
X112117143Y-88352381D01*
X112355239Y-88352381D01*
X112450477Y-88400000D01*
X112498096Y-88447619D01*
X112545715Y-88542857D01*
X112545715Y-88638095D01*
X112498096Y-88780952D01*
X111926667Y-89352381D01*
X112545715Y-89352381D01*
X101433334Y-91797143D02*
X101385715Y-91844762D01*
X101242858Y-91892381D01*
X101147620Y-91892381D01*
X101004762Y-91844762D01*
X100909524Y-91749524D01*
X100861905Y-91654286D01*
X100814286Y-91463810D01*
X100814286Y-91320952D01*
X100861905Y-91130476D01*
X100909524Y-91035238D01*
X101004762Y-90940000D01*
X101147620Y-90892381D01*
X101242858Y-90892381D01*
X101385715Y-90940000D01*
X101433334Y-90987619D01*
X101766667Y-90892381D02*
X102385715Y-90892381D01*
X102052381Y-91273333D01*
X102195239Y-91273333D01*
X102290477Y-91320952D01*
X102338096Y-91368571D01*
X102385715Y-91463810D01*
X102385715Y-91701905D01*
X102338096Y-91797143D01*
X102290477Y-91844762D01*
X102195239Y-91892381D01*
X101909524Y-91892381D01*
X101814286Y-91844762D01*
X101766667Y-91797143D01*
X111593334Y-91797143D02*
X111545715Y-91844762D01*
X111402858Y-91892381D01*
X111307620Y-91892381D01*
X111164762Y-91844762D01*
X111069524Y-91749524D01*
X111021905Y-91654286D01*
X110974286Y-91463810D01*
X110974286Y-91320952D01*
X111021905Y-91130476D01*
X111069524Y-91035238D01*
X111164762Y-90940000D01*
X111307620Y-90892381D01*
X111402858Y-90892381D01*
X111545715Y-90940000D01*
X111593334Y-90987619D01*
X112450477Y-91225714D02*
X112450477Y-91892381D01*
X112212381Y-90844762D02*
X111974286Y-91559048D01*
X112593334Y-91559048D01*
X111593334Y-90527143D02*
X111545715Y-90574762D01*
X111402858Y-90622381D01*
X111307620Y-90622381D01*
X111164762Y-90574762D01*
X111069524Y-90479524D01*
X111021905Y-90384286D01*
X110974286Y-90193810D01*
X110974286Y-90050952D01*
X111021905Y-89860476D01*
X111069524Y-89765238D01*
X111164762Y-89670000D01*
X111307620Y-89622381D01*
X111402858Y-89622381D01*
X111545715Y-89670000D01*
X111593334Y-89717619D01*
X112498096Y-89622381D02*
X112021905Y-89622381D01*
X111974286Y-90098571D01*
X112021905Y-90050952D01*
X112117143Y-90003333D01*
X112355239Y-90003333D01*
X112450477Y-90050952D01*
X112498096Y-90098571D01*
X112545715Y-90193810D01*
X112545715Y-90431905D01*
X112498096Y-90527143D01*
X112450477Y-90574762D01*
X112355239Y-90622381D01*
X112117143Y-90622381D01*
X112021905Y-90574762D01*
X111974286Y-90527143D01*
X110323334Y-85722381D02*
X109990000Y-85246190D01*
X109751905Y-85722381D02*
X109751905Y-84722381D01*
X110132858Y-84722381D01*
X110228096Y-84770000D01*
X110275715Y-84817619D01*
X110323334Y-84912857D01*
X110323334Y-85055714D01*
X110275715Y-85150952D01*
X110228096Y-85198571D01*
X110132858Y-85246190D01*
X109751905Y-85246190D01*
X111275715Y-85722381D02*
X110704286Y-85722381D01*
X110990000Y-85722381D02*
X110990000Y-84722381D01*
X110894762Y-84865238D01*
X110799524Y-84960476D01*
X110704286Y-85008095D01*
X120427381Y-91256666D02*
X119951190Y-91590000D01*
X120427381Y-91828095D02*
X119427381Y-91828095D01*
X119427381Y-91447142D01*
X119475000Y-91351904D01*
X119522619Y-91304285D01*
X119617857Y-91256666D01*
X119760714Y-91256666D01*
X119855952Y-91304285D01*
X119903571Y-91351904D01*
X119951190Y-91447142D01*
X119951190Y-91828095D01*
X119522619Y-90875714D02*
X119475000Y-90828095D01*
X119427381Y-90732857D01*
X119427381Y-90494761D01*
X119475000Y-90399523D01*
X119522619Y-90351904D01*
X119617857Y-90304285D01*
X119713095Y-90304285D01*
X119855952Y-90351904D01*
X120427381Y-90923333D01*
X120427381Y-90304285D01*
X120427381Y-88716666D02*
X119951190Y-89050000D01*
X120427381Y-89288095D02*
X119427381Y-89288095D01*
X119427381Y-88907142D01*
X119475000Y-88811904D01*
X119522619Y-88764285D01*
X119617857Y-88716666D01*
X119760714Y-88716666D01*
X119855952Y-88764285D01*
X119903571Y-88811904D01*
X119951190Y-88907142D01*
X119951190Y-89288095D01*
X119427381Y-88383333D02*
X119427381Y-87764285D01*
X119808333Y-88097619D01*
X119808333Y-87954761D01*
X119855952Y-87859523D01*
X119903571Y-87811904D01*
X119998810Y-87764285D01*
X120236905Y-87764285D01*
X120332143Y-87811904D01*
X120379762Y-87859523D01*
X120427381Y-87954761D01*
X120427381Y-88240476D01*
X120379762Y-88335714D01*
X120332143Y-88383333D01*
X115538095Y-81542381D02*
X115538095Y-82351905D01*
X115585714Y-82447143D01*
X115633333Y-82494762D01*
X115728571Y-82542381D01*
X115919048Y-82542381D01*
X116014286Y-82494762D01*
X116061905Y-82447143D01*
X116109524Y-82351905D01*
X116109524Y-81542381D01*
X116538095Y-81637619D02*
X116585714Y-81590000D01*
X116680952Y-81542381D01*
X116919048Y-81542381D01*
X117014286Y-81590000D01*
X117061905Y-81637619D01*
X117109524Y-81732857D01*
X117109524Y-81828095D01*
X117061905Y-81970952D01*
X116490476Y-82542381D01*
X117109524Y-82542381D01*
M02*
