<?xml version="1.0" standalone="no"?>
 <!DOCTYPE svg PUBLIC "-//W3C//DTD SVG 1.1//EN" 
 "http://www.w3.org/Graphics/SVG/1.1/DTD/svg11.dtd"> 
<svg xmlns="http://www.w3.org/2000/svg" version="1.1" 
    width="6.28904cm" height="7.76224cm" viewBox="0 0 24760 30560 ">
<title>SVG Picture created as NeuroBytes_NID-brd.svg date 2017/10/25 09:55:25 </title>
  <desc>Picture generated by PCBNEW </desc>
<g style="fill:#000000; fill-opacity:1;stroke:#000000; stroke-opacity:1;
stroke-linecap:round; stroke-linejoin:round; "
 transform="translate(0 0) scale(1 1)">
</g>
<g style="fill:#000000; fill-opacity:0.0; 
stroke:#000000; stroke-width:-0.000393701; stroke-opacity:1; 
stroke-linecap:round; stroke-linejoin:round;">
</g>
<g style="fill:#840084; fill-opacity:0.0; 
stroke:#840084; stroke-width:-0.000393701; stroke-opacity:1; 
stroke-linecap:round; stroke-linejoin:round;">
</g>
<g style="fill:#840084; fill-opacity:0.0; 
stroke:#840084; stroke-width:78.7402; stroke-opacity:1; 
stroke-linecap:round; stroke-linejoin:round;">
<circle cx="9385.98" cy="15263.8" r="1968.5" /> 
<circle cx="22378.1" cy="15263.8" r="1968.5" /> 
</g>
<g style="fill:#840084; fill-opacity:0.0; 
stroke:#840084; stroke-width:59.0551; stroke-opacity:1; 
stroke-linecap:round; stroke-linejoin:round;">
<path d="M14002 1996
L14002 3492
" />
<path d="M14002 3492
L17761 3492
" />
<path d="M17761 3492
L17761 1996
" />
<path d="M17761 1996
L14002 1996
" />
</g>
<g style="fill:#840084; fill-opacity:0.0; 
stroke:#840084; stroke-width:39.3701; stroke-opacity:1; 
stroke-linecap:round; stroke-linejoin:round;">
<circle cx="13323" cy="13059.1" r="62.2496" /> 
<path d="M14464 12389
L14464 13019
" />
<path d="M14464 13019
L13362 13019
" />
<path d="M13362 13019
L13362 12389
" />
<path d="M13362 12389
L14464 12389
" />
</g>
<g style="fill:#840084; fill-opacity:0.0; 
stroke:#840084; stroke-width:59.0551; stroke-opacity:1; 
stroke-linecap:round; stroke-linejoin:round;">
<circle cx="21879.1" cy="8767.72" r="88.0343" /> 
<path d="M17870 8767
L19819 6818
" />
<path d="M19819 10716
L17870 8767
" />
<path d="M21767 8767
L19819 10716
" />
<path d="M19819 6818
L21767 8767
" />
<path d="M23328 6510
L22075 5258
" />
<path d="M22771 7067
L23328 6510
" />
<path d="M21519 5814
L22771 7067
" />
<path d="M22075 5258
L21519 5814
" />
<path d="M8697 7940
L9287 7940
" />
<path d="M8697 8374
L8697 9594
" />
<path d="M8697 9594
L9287 9594
" />
<path d="M9287 9594
L9287 8374
" />
</g>
<g style="fill:#840084; fill-opacity:0.0; 
stroke:#840084; stroke-width:39.3701; stroke-opacity:1; 
stroke-linecap:round; stroke-linejoin:round;">
<path d="M14450 8767
L11945 6262
" />
<path d="M11945 11273
L14450 8767
" />
<path d="M9439 8767
L11945 11273
" />
<path d="M11945 6262
L9439 8767
" />
</g>
<g style="fill:#000000; fill-opacity:0.0; 
stroke:#000000; stroke-width:39.3701; stroke-opacity:1; 
stroke-linecap:round; stroke-linejoin:round;">
</g>
<g style="fill:#008400; fill-opacity:0.0; 
stroke:#008400; stroke-width:39.3701; stroke-opacity:1; 
stroke-linecap:round; stroke-linejoin:round;">
</g>
<g style="fill:#008400; fill-opacity:0.0; 
stroke:#008400; stroke-width:0; stroke-opacity:1; 
stroke-linecap:round; stroke-linejoin:round;">
</g>
<g style="fill:#008400; fill-opacity:1.0; 
stroke:#008400; stroke-width:0; stroke-opacity:1; 
stroke-linecap:round; stroke-linejoin:round;">
<polyline style="fill-rule:evenodd;"
points="7685,23682
7685,23485
7370,23485
7370,23682
7685,23682
" /> 
<polyline style="fill-rule:evenodd;"
points="7212,23682
7212,23485
6897,23485
6897,23682
7212,23682
" /> 
<polyline style="fill-rule:evenodd;"
points="6999,21793
6999,21596
6684,21596
6684,21793
6999,21793
" /> 
<polyline style="fill-rule:evenodd;"
points="6527,21793
6527,21596
6212,21596
6212,21793
6527,21793
" /> 
<polyline style="fill-rule:evenodd;"
points="5448,23682
5448,23485
5133,23485
5133,23682
5448,23682
" /> 
<polyline style="fill-rule:evenodd;"
points="4976,23682
4976,23485
4661,23485
4661,23682
4976,23682
" /> 
<polyline style="fill-rule:evenodd;"
points="8637,21694
8637,21497
8322,21497
8322,21694
8637,21694
" /> 
<polyline style="fill-rule:evenodd;"
points="8165,21694
8165,21497
7850,21497
7850,21694
8165,21694
" /> 
<polyline style="fill-rule:evenodd;"
points="14259,21320
14259,20848
13866,20848
13866,21320
14259,21320
" /> 
<polyline style="fill-rule:evenodd;"
points="13472,21320
13472,20848
13078,20848
13078,21320
13472,21320
" /> 
<polyline style="fill-rule:evenodd;"
points="6740,23682
6740,23485
6425,23485
6425,23682
6740,23682
" /> 
<polyline style="fill-rule:evenodd;"
points="6267,23682
6267,23485
5952,23485
5952,23682
6267,23682
" /> 
<polyline style="fill-rule:evenodd;"
points="3374,27659
3374,27462
3059,27462
3059,27659
3374,27659
" /> 
<polyline style="fill-rule:evenodd;"
points="2901,27659
2901,27462
2586,27462
2586,27659
2901,27659
" /> 
<polyline style="fill-rule:evenodd;"
points="4901,25670
4901,25474
4586,25474
4586,25670
4901,25670
" /> 
<polyline style="fill-rule:evenodd;"
points="4428,25670
4428,25474
4113,25474
4113,25670
4428,25670
" /> 
<polyline style="fill-rule:evenodd;"
points="12921,21989
12921,21517
12527,21517
12527,21989
12921,21989
" /> 
<polyline style="fill-rule:evenodd;"
points="12134,21989
12134,21517
11740,21517
11740,21989
12134,21989
" /> 
<polyline style="fill-rule:evenodd;"
points="3810,23781
3810,23584
3495,23584
3495,23781
3810,23781
" /> 
<polyline style="fill-rule:evenodd;"
points="3338,23781
3338,23584
3023,23584
3023,23781
3338,23781
" /> 
<polyline style="fill-rule:evenodd;"
points="14259,24568
14259,24096
13866,24096
13866,24568
14259,24568
" /> 
<polyline style="fill-rule:evenodd;"
points="13472,24568
13472,24096
13078,24096
13078,24568
13472,24568
" /> 
<polyline style="fill-rule:evenodd;"
points="8610,28525
8610,28052
8216,28052
8216,28525
8610,28525
" /> 
<polyline style="fill-rule:evenodd;"
points="7822,28525
7822,28052
7429,28052
7429,28525
7822,28525
" /> 
<polyline style="fill-rule:evenodd;"
points="16000,4023
16000,3354
15763,3354
15763,4023
16000,4023
" /> 
<polyline style="fill-rule:evenodd;"
points="15508,4023
15508,3354
15271,3354
15271,4023
15508,4023
" /> 
<polyline style="fill-rule:evenodd;"
points="16492,4023
16492,3354
16256,3354
16256,4023
16492,4023
" /> 
<polyline style="fill-rule:evenodd;"
points="16984,4023
16984,3354
16748,3354
16748,4023
16984,4023
" /> 
<polyline style="fill-rule:evenodd;"
points="14307,3019
14307,1956
13913,1956
13913,3019
14307,3019
" /> 
<polyline style="fill-rule:evenodd;"
points="17850,3019
17850,1956
17456,1956
17456,3019
17850,3019
" /> 
<polyline style="fill-rule:evenodd;"
points="14779,4023
15015,4023
15015,3354
14779,3354
14779,4023
" /> 
</g>
<g style="fill:#840000; fill-opacity:1.0; 
stroke:#840000; stroke-width:0; stroke-opacity:1; 
stroke-linecap:round; stroke-linejoin:round;">
</g>
<g style="fill:#840000; fill-opacity:1.0; 
stroke:#840000; stroke-width:787.402; stroke-opacity:1; 
stroke-linecap:round; stroke-linejoin:round;">
</g>
<g style="fill:#840000; fill-opacity:0.0; 
stroke:#840000; stroke-width:787.402; stroke-opacity:1; 
stroke-linecap:round; stroke-linejoin:round;">
<path d="M17210 17035
L17210 17035
" />
<path d="M14553 17035
L14553 17035
" />
</g>
<g style="fill:#008400; fill-opacity:0.0; 
stroke:#008400; stroke-width:787.402; stroke-opacity:1; 
stroke-linecap:round; stroke-linejoin:round;">
</g>
<g style="fill:#008400; fill-opacity:0.0; 
stroke:#008400; stroke-width:0; stroke-opacity:1; 
stroke-linecap:round; stroke-linejoin:round;">
</g>
<g style="fill:#008400; fill-opacity:1.0; 
stroke:#008400; stroke-width:0; stroke-opacity:1; 
stroke-linecap:round; stroke-linejoin:round;">
<polyline style="fill-rule:evenodd;"
points="15291,15677
15291,16267
15448,16267
15448,15677
15291,15677
" /> 
<polyline style="fill-rule:evenodd;"
points="15547,15677
15547,16267
15704,16267
15704,15677
15547,15677
" /> 
<polyline style="fill-rule:evenodd;"
points="15803,15677
15803,16267
15960,16267
15960,15677
15803,15677
" /> 
<polyline style="fill-rule:evenodd;"
points="16059,15677
16059,16267
16216,16267
16216,15677
16059,15677
" /> 
<polyline style="fill-rule:evenodd;"
points="16315,15677
16315,16267
16472,16267
16472,15677
16315,15677
" /> 
</g>
<g style="fill:#840000; fill-opacity:1.0; 
stroke:#840000; stroke-width:0; stroke-opacity:1; 
stroke-linecap:round; stroke-linejoin:round;">
</g>
<g style="fill:#840000; fill-opacity:1.0; 
stroke:#840000; stroke-width:492.126; stroke-opacity:1; 
stroke-linecap:round; stroke-linejoin:round;">
</g>
<g style="fill:#840000; fill-opacity:0.0; 
stroke:#840000; stroke-width:492.126; stroke-opacity:1; 
stroke-linecap:round; stroke-linejoin:round;">
<path d="M16866 16070
L16866 15874
" />
<path d="M14897 16070
L14897 15874
" />
</g>
<g style="fill:#008400; fill-opacity:0.0; 
stroke:#008400; stroke-width:492.126; stroke-opacity:1; 
stroke-linecap:round; stroke-linejoin:round;">
</g>
<g style="fill:#008400; fill-opacity:0.0; 
stroke:#008400; stroke-width:0; stroke-opacity:1; 
stroke-linecap:round; stroke-linejoin:round;">
</g>
<g style="fill:#008400; fill-opacity:1.0; 
stroke:#008400; stroke-width:0; stroke-opacity:1; 
stroke-linecap:round; stroke-linejoin:round;">
<polyline style="fill-rule:evenodd;"
points="14602,16641
14602,17429
15193,17429
15193,16641
14602,16641
" /> 
<polyline style="fill-rule:evenodd;"
points="16571,16641
16571,17429
17161,17429
17161,16641
16571,16641
" /> 
<polyline style="fill-rule:evenodd;"
points="11184,28525
11184,28052
10790,28052
10790,28525
11184,28525
" /> 
<polyline style="fill-rule:evenodd;"
points="10396,28525
10396,28052
10002,28052
10002,28525
10396,28525
" /> 
<polyline style="fill-rule:evenodd;"
points="7131,29647
7131,29450
6816,29450
6816,29647
7131,29647
" /> 
<polyline style="fill-rule:evenodd;"
points="6658,29647
6658,29450
6343,29450
6343,29647
6658,29647
" /> 
<polyline style="fill-rule:evenodd;"
points="15685,21273
15685,21076
15370,21076
15370,21273
15685,21273
" /> 
<polyline style="fill-rule:evenodd;"
points="15212,21273
15212,21076
14897,21076
14897,21273
15212,21273
" /> 
<polyline style="fill-rule:evenodd;"
points="6193,25670
6193,25474
5878,25474
5878,25670
6193,25670
" /> 
<polyline style="fill-rule:evenodd;"
points="5720,25670
5720,25474
5405,25474
5405,25670
5720,25670
" /> 
<polyline style="fill-rule:evenodd;"
points="5794,27659
5794,27462
5479,27462
5479,27659
5794,27659
" /> 
<polyline style="fill-rule:evenodd;"
points="5322,27659
5322,27462
5007,27462
5007,27659
5322,27659
" /> 
<polyline style="fill-rule:evenodd;"
points="16806,21273
16806,21076
16491,21076
16491,21273
16806,21273
" /> 
<polyline style="fill-rule:evenodd;"
points="16333,21273
16333,21076
16018,21076
16018,21273
16333,21273
" /> 
<polyline style="fill-rule:evenodd;"
points="8437,25670
8437,25474
8122,25474
8122,25670
8437,25670
" /> 
<polyline style="fill-rule:evenodd;"
points="7964,25670
7964,25474
7649,25474
7649,25670
7964,25670
" /> 
<polyline style="fill-rule:evenodd;"
points="7314,25670
7314,25474
6999,25474
6999,25670
7314,25670
" /> 
<polyline style="fill-rule:evenodd;"
points="6841,25670
6841,25474
6526,25474
6526,25670
6841,25670
" /> 
<polyline style="fill-rule:evenodd;"
points="11404,23111
11404,22915
11089,22915
11089,23111
11404,23111
" /> 
<polyline style="fill-rule:evenodd;"
points="10932,23111
10932,22915
10617,22915
10617,23111
10932,23111
" /> 
<polyline style="fill-rule:evenodd;"
points="10105,23111
10105,22915
9790,22915
9790,23111
10105,23111
" /> 
<polyline style="fill-rule:evenodd;"
points="9633,23111
9633,22915
9318,22915
9318,23111
9633,23111
" /> 
<polyline style="fill-rule:evenodd;"
points="8806,23682
8806,23485
8491,23485
8491,23682
8806,23682
" /> 
<polyline style="fill-rule:evenodd;"
points="8333,23682
8333,23485
8018,23485
8018,23682
8333,23682
" /> 
<polyline style="fill-rule:evenodd;"
points="11404,21123
11404,20926
11089,20926
11089,21123
11404,21123
" /> 
<polyline style="fill-rule:evenodd;"
points="10932,21123
10932,20926
10617,20926
10617,21123
10932,21123
" /> 
<polyline style="fill-rule:evenodd;"
points="4495,27659
4495,27462
4180,27462
4180,27659
4495,27659
" /> 
<polyline style="fill-rule:evenodd;"
points="4022,27659
4022,27462
3707,27462
3707,27659
4022,27659
" /> 
<polyline style="fill-rule:evenodd;"
points="10105,21123
10105,20926
9790,20926
9790,21123
10105,21123
" /> 
<polyline style="fill-rule:evenodd;"
points="9633,21123
9633,20926
9318,20926
9318,21123
9633,21123
" /> 
<polyline style="fill-rule:evenodd;"
points="7093,27659
7093,27462
6778,27462
6778,27659
7093,27659
" /> 
<polyline style="fill-rule:evenodd;"
points="6621,27659
6621,27462
6306,27462
6306,27659
6621,27659
" /> 
<polyline style="fill-rule:evenodd;"
points="14031,12488
14031,12015
13795,12015
13795,12488
14031,12488
" /> 
<polyline style="fill-rule:evenodd;"
points="14031,13393
14031,12921
13795,12921
13795,13393
14031,13393
" /> 
<polyline style="fill-rule:evenodd;"
points="13657,13393
13657,12921
13421,12921
13421,13393
13657,13393
" /> 
<polyline style="fill-rule:evenodd;"
points="14405,13393
14405,12921
14169,12921
14169,13393
14405,13393
" /> 
<polyline style="fill-rule:evenodd;"
points="14405,12488
14405,12015
14169,12015
14169,12488
14405,12488
" /> 
<polyline style="fill-rule:evenodd;"
points="13657,12488
13657,12015
13421,12015
13421,12488
13657,12488
" /> 
<polyline style="fill-rule:evenodd;"
points="21496,8705
21844,8357
21760,8273
21412,8621
21496,8705
" /> 
<polyline style="fill-rule:evenodd;"
points="21357,8565
21705,8217
21621,8134
21273,8482
21357,8565
" /> 
<polyline style="fill-rule:evenodd;"
points="21217,8426
21565,8078
21482,7995
21134,8343
21217,8426
" /> 
<polyline style="fill-rule:evenodd;"
points="21078,8287
21426,7939
21343,7855
20995,8203
21078,8287
" /> 
<polyline style="fill-rule:evenodd;"
points="20939,8148
21287,7800
21204,7716
20856,8064
20939,8148
" /> 
<polyline style="fill-rule:evenodd;"
points="20800,8009
21148,7661
21064,7577
20716,7925
20800,8009
" /> 
<polyline style="fill-rule:evenodd;"
points="20661,7869
21009,7521
20925,7438
20577,7786
20661,7869
" /> 
<polyline style="fill-rule:evenodd;"
points="20521,7730
20869,7382
20786,7299
20438,7647
20521,7730
" /> 
<polyline style="fill-rule:evenodd;"
points="20382,7591
20730,7243
20647,7160
20299,7508
20382,7591
" /> 
<polyline style="fill-rule:evenodd;"
points="20243,7452
20591,7104
20508,7020
20160,7368
20243,7452
" /> 
<polyline style="fill-rule:evenodd;"
points="20104,7313
20452,6965
20368,6881
20020,7229
20104,7313
" /> 
<polyline style="fill-rule:evenodd;"
points="19965,7173
20313,6825
20229,6742
19881,7090
19965,7173
" /> 
<polyline style="fill-rule:evenodd;"
points="19756,7090
19408,6742
19324,6825
19672,7173
19756,7090
" /> 
<polyline style="fill-rule:evenodd;"
points="19617,7229
19269,6881
19185,6965
19533,7313
19617,7229
" /> 
<polyline style="fill-rule:evenodd;"
points="19478,7368
19130,7020
19046,7104
19394,7452
19478,7368
" /> 
<polyline style="fill-rule:evenodd;"
points="19338,7508
18990,7160
18907,7243
19255,7591
19338,7508
" /> 
<polyline style="fill-rule:evenodd;"
points="19199,7647
18851,7299
18768,7382
19116,7730
19199,7647
" /> 
<polyline style="fill-rule:evenodd;"
points="19060,7786
18712,7438
18628,7521
18976,7869
19060,7786
" /> 
<polyline style="fill-rule:evenodd;"
points="18921,7925
18573,7577
18489,7661
18837,8009
18921,7925
" /> 
<polyline style="fill-rule:evenodd;"
points="18782,8064
18434,7716
18350,7800
18698,8148
18782,8064
" /> 
<polyline style="fill-rule:evenodd;"
points="18642,8203
18294,7855
18211,7939
18559,8287
18642,8203
" /> 
<polyline style="fill-rule:evenodd;"
points="18503,8343
18155,7995
18072,8078
18420,8426
18503,8343
" /> 
<polyline style="fill-rule:evenodd;"
points="18364,8482
18016,8134
17932,8217
18280,8565
18364,8482
" /> 
<polyline style="fill-rule:evenodd;"
points="18225,8621
17877,8273
17793,8357
18141,8705
18225,8621
" /> 
<polyline style="fill-rule:evenodd;"
points="18141,8830
17793,9178
17877,9261
18225,8913
18141,8830
" /> 
<polyline style="fill-rule:evenodd;"
points="18280,8969
17932,9317
18016,9401
18364,9053
18280,8969
" /> 
<polyline style="fill-rule:evenodd;"
points="18420,9108
18072,9456
18155,9540
18503,9192
18420,9108
" /> 
<polyline style="fill-rule:evenodd;"
points="18559,9247
18211,9595
18294,9679
18642,9331
18559,9247
" /> 
<polyline style="fill-rule:evenodd;"
points="18698,9387
18350,9735
18434,9818
18782,9470
18698,9387
" /> 
<polyline style="fill-rule:evenodd;"
points="18837,9526
18489,9874
18573,9957
18921,9609
18837,9526
" /> 
<polyline style="fill-rule:evenodd;"
points="18976,9665
18628,10013
18712,10097
19060,9749
18976,9665
" /> 
<polyline style="fill-rule:evenodd;"
points="19116,9804
18768,10152
18851,10236
19199,9888
19116,9804
" /> 
<polyline style="fill-rule:evenodd;"
points="19255,9943
18907,10291
18990,10375
19338,10027
19255,9943
" /> 
<polyline style="fill-rule:evenodd;"
points="19394,10083
19046,10431
19130,10514
19478,10166
19394,10083
" /> 
<polyline style="fill-rule:evenodd;"
points="19533,10222
19185,10570
19269,10653
19617,10305
19533,10222
" /> 
<polyline style="fill-rule:evenodd;"
points="19672,10361
19324,10709
19408,10792
19756,10445
19672,10361
" /> 
<polyline style="fill-rule:evenodd;"
points="20313,10709
19965,10361
19881,10445
20229,10792
20313,10709
" /> 
<polyline style="fill-rule:evenodd;"
points="20452,10570
20104,10222
20020,10305
20368,10653
20452,10570
" /> 
<polyline style="fill-rule:evenodd;"
points="20591,10431
20243,10083
20160,10166
20508,10514
20591,10431
" /> 
<polyline style="fill-rule:evenodd;"
points="20730,10291
20382,9943
20299,10027
20647,10375
20730,10291
" /> 
<polyline style="fill-rule:evenodd;"
points="20869,10152
20521,9804
20438,9888
20786,10236
20869,10152
" /> 
<polyline style="fill-rule:evenodd;"
points="21009,10013
20661,9665
20577,9749
20925,10097
21009,10013
" /> 
<polyline style="fill-rule:evenodd;"
points="21148,9874
20800,9526
20716,9609
21064,9957
21148,9874
" /> 
<polyline style="fill-rule:evenodd;"
points="21287,9735
20939,9387
20856,9470
21204,9818
21287,9735
" /> 
<polyline style="fill-rule:evenodd;"
points="21426,9595
21078,9247
20995,9331
21343,9679
21426,9595
" /> 
<polyline style="fill-rule:evenodd;"
points="21565,9456
21217,9108
21134,9192
21482,9540
21565,9456
" /> 
<polyline style="fill-rule:evenodd;"
points="21705,9317
21357,8969
21273,9053
21621,9401
21705,9317
" /> 
<polyline style="fill-rule:evenodd;"
points="21844,9178
21496,8830
21412,8913
21760,9261
21844,9178
" /> 
<polyline style="fill-rule:evenodd;"
points="19819,8266
20320,7765
19819,7264
19317,7765
19819,8266
" /> 
<polyline style="fill-rule:evenodd;"
points="20821,9268
21322,8767
20821,8266
20320,8767
20821,9268
" /> 
<polyline style="fill-rule:evenodd;"
points="19819,10271
20320,9769
19819,9268
19317,9769
19819,10271
" /> 
<polyline style="fill-rule:evenodd;"
points="18816,9268
19317,8767
18816,8266
18315,8767
18816,9268
" /> 
<polyline style="fill-rule:evenodd;"
points="20320,8767
20821,8266
20320,7765
19819,8266
20320,8767
" /> 
<polyline style="fill-rule:evenodd;"
points="19819,9268
20320,8767
19819,8266
19317,8767
19819,9268
" /> 
<polyline style="fill-rule:evenodd;"
points="19317,8767
19819,8266
19317,7765
18816,8266
19317,8767
" /> 
<polyline style="fill-rule:evenodd;"
points="19317,9769
19819,9268
19317,8767
18816,9268
19317,9769
" /> 
<polyline style="fill-rule:evenodd;"
points="20320,9769
20821,9268
20320,8767
19819,9268
20320,9769
" /> 
<polyline style="fill-rule:evenodd;"
points="17732,12015
17732,12488
17968,12488
17968,12015
17732,12015
" /> 
<polyline style="fill-rule:evenodd;"
points="18106,12015
18106,12488
18342,12488
18342,12015
18106,12015
" /> 
<polyline style="fill-rule:evenodd;"
points="17358,12015
17358,12488
17594,12488
17594,12015
17358,12015
" /> 
<polyline style="fill-rule:evenodd;"
points="17358,12921
17358,13393
17594,13393
17594,12921
17358,12921
" /> 
<polyline style="fill-rule:evenodd;"
points="18106,12921
18106,13393
18342,13393
18342,12921
18106,12921
" /> 
<polyline style="fill-rule:evenodd;"
points="22660,6872
23133,6399
23022,6288
22549,6761
22660,6872
" /> 
<polyline style="fill-rule:evenodd;"
points="22242,6455
22716,5981
22604,5870
22131,6343
22242,6455
" /> 
<polyline style="fill-rule:evenodd;"
points="21825,6037
22298,5564
22187,5453
21713,5926
21825,6037
" /> 
<polyline style="fill-rule:evenodd;"
points="23217,6483
23439,6260
23161,5981
22938,6204
23217,6483
" /> 
<polyline style="fill-rule:evenodd;"
points="22799,6065
23022,5842
22743,5564
22521,5787
22799,6065
" /> 
<polyline style="fill-rule:evenodd;"
points="22382,5647
22604,5425
22326,5146
22103,5369
22382,5647
" /> 
<polyline style="fill-rule:evenodd;"
points="21686,6343
21908,6121
21630,5842
21407,6065
21686,6343
" /> 
<polyline style="fill-rule:evenodd;"
points="22103,6761
22326,6538
22048,6260
21825,6483
22103,6761
" /> 
<polyline style="fill-rule:evenodd;"
points="22521,7179
22743,6956
22465,6677
22242,6900
22521,7179
" /> 
<polyline style="fill-rule:evenodd;"
points="8746,8570
9238,8570
9238,7980
8746,7980
8746,8570
" /> 
<polyline style="fill-rule:evenodd;"
points="8746,9555
9238,9555
9238,8964
8746,8964
8746,9555
" /> 
<polyline style="fill-rule:evenodd;"
points="12446,7320
13392,8266
13949,7709
13002,6763
12446,7320
" /> 
<polyline style="fill-rule:evenodd;"
points="9940,9825
10887,10772
11443,10215
10497,9268
9940,9825
" /> 
<polyline style="fill-rule:evenodd;"
points="15153,8078
15153,8551
15389,8551
15389,8078
15153,8078
" /> 
<polyline style="fill-rule:evenodd;"
points="14779,8984
14779,9456
15015,9456
15015,8984
14779,8984
" /> 
<polyline style="fill-rule:evenodd;"
points="15527,8984
15527,9456
15763,9456
15763,8984
15527,8984
" /> 
<polyline style="fill-rule:evenodd;"
points="15291,9850
15291,9653
14976,9653
14976,9850
15291,9850
" /> 
<polyline style="fill-rule:evenodd;"
points="14819,9850
14819,9653
14504,9653
14504,9850
14819,9850
" /> 
</g>
<g style="fill:#FFFFFF; fill-opacity:1.0; 
stroke:#FFFFFF; stroke-width:0; stroke-opacity:1; 
stroke-linecap:round; stroke-linejoin:round;">
<circle cx="17210.8" cy="17035.4" r="226.378" /> 
</g>
<g style="fill:#FFFFFF; fill-opacity:1.0; 
stroke:#FFFFFF; stroke-width:39.3701; stroke-opacity:1; 
stroke-linecap:round; stroke-linejoin:round;">
</g>
<g style="fill:#FFFFFF; fill-opacity:1.0; 
stroke:#FFFFFF; stroke-width:0; stroke-opacity:1; 
stroke-linecap:round; stroke-linejoin:round;">
<circle cx="14553.3" cy="17035.4" r="226.378" /> 
</g>
<g style="fill:#FFFFFF; fill-opacity:1.0; 
stroke:#FFFFFF; stroke-width:39.3701; stroke-opacity:1; 
stroke-linecap:round; stroke-linejoin:round;">
</g>
<g style="fill:#FFFFFF; fill-opacity:1.0; 
stroke:#FFFFFF; stroke-width:0; stroke-opacity:1; 
stroke-linecap:round; stroke-linejoin:round;">
<circle cx="16866.3" cy="15972.4" r="167.323" /> 
</g>
<g style="fill:#FFFFFF; fill-opacity:1.0; 
stroke:#FFFFFF; stroke-width:39.3701; stroke-opacity:1; 
stroke-linecap:round; stroke-linejoin:round;">
</g>
<g style="fill:#FFFFFF; fill-opacity:1.0; 
stroke:#FFFFFF; stroke-width:0; stroke-opacity:1; 
stroke-linecap:round; stroke-linejoin:round;">
<circle cx="14897.8" cy="15972.4" r="167.323" /> 
</g>
<g style="fill:#FFFFFF; fill-opacity:1.0; 
stroke:#FFFFFF; stroke-width:39.3701; stroke-opacity:1; 
stroke-linecap:round; stroke-linejoin:round;">
</g>
<g style="fill:#000000; fill-opacity:1.0; 
stroke:#000000; stroke-width:39.3701; stroke-opacity:1; 
stroke-linecap:round; stroke-linejoin:round;">
</g>
<g style="fill:#840000; fill-opacity:1.0; 
stroke:#840000; stroke-width:39.3701; stroke-opacity:1; 
stroke-linecap:round; stroke-linejoin:round;">
</g>
<g style="fill:#840000; fill-opacity:0.0; 
stroke:#840000; stroke-width:39.3701; stroke-opacity:1; 
stroke-linecap:round; stroke-linejoin:round;">
</g>
<g style="fill:#840000; fill-opacity:0.0; 
stroke:#840000; stroke-width:82.6772; stroke-opacity:1; 
stroke-linecap:round; stroke-linejoin:round;">
<path d="M24304 1160
L24304 570
L23966 1160
L23966 570
" />
<path d="M23460 1132
L23517 1160
L23629 1160
L23685 1132
L23713 1076
L23713 851
L23685 795
L23629 767
L23517 767
L23460 795
L23432 851
L23432 907
L23713 964
" />
<path d="M22926 767
L22926 1160
" />
<path d="M23179 767
L23179 1076
L23151 1132
L23095 1160
L23010 1160
L22954 1132
L22926 1104
" />
<path d="M22645 1160
L22645 767
" />
<path d="M22645 879
L22617 823
L22589 795
L22532 767
L22476 767
" />
<path d="M22195 1160
L22251 1132
L22279 1104
L22307 1048
L22307 879
L22279 823
L22251 795
L22195 767
L22110 767
L22054 795
L22026 823
L21998 879
L21998 1048
L22026 1104
L22054 1132
L22110 1160
L22195 1160
" />
<path d="M21548 851
L21464 879
L21436 907
L21407 964
L21407 1048
L21436 1104
L21464 1132
L21520 1160
L21745 1160
L21745 570
L21548 570
L21492 598
L21464 626
L21436 682
L21436 739
L21464 795
L21492 823
L21548 851
L21745 851
" />
<path d="M21211 767
L21070 1160
" />
<path d="M20929 767
L21070 1160
L21126 1301
L21154 1329
L21211 1357
" />
<path d="M20789 767
L20564 767
" />
<path d="M20704 570
L20704 1076
L20676 1132
L20620 1160
L20564 1160
" />
<path d="M20142 1132
L20198 1160
L20311 1160
L20367 1132
L20395 1076
L20395 851
L20367 795
L20311 767
L20198 767
L20142 795
L20114 851
L20114 907
L20395 964
" />
<path d="M19889 1132
L19833 1160
L19720 1160
L19664 1132
L19636 1076
L19636 1048
L19664 992
L19720 964
L19804 964
L19861 935
L19889 879
L19889 851
L19861 795
L19804 767
L19720 767
L19664 795
" />
</g>
<g style="fill:#840000; fill-opacity:0.0; 
stroke:#840000; stroke-width:55.1181; stroke-opacity:1; 
stroke-linecap:round; stroke-linejoin:round;">
<path d="M19134 425
L19228 312
" />
<path d="M19303 425
L19303 162
L19191 162
L19153 181
L19134 218
L19134 256
L19153 293
L19191 312
L19303 312
" />
<path d="M19228 31
L19322 50
L19415 106
L19472 200
L19490 293
L19472 387
L19415 481
L19322 537
L19228 556
L19134 537
L19041 481
L18984 387
L18966 293
L18984 200
L19041 106
L19134 50
L19228 31
" />
</g>
<g style="fill:#840000; fill-opacity:0.0; 
stroke:#840000; stroke-width:0; stroke-opacity:1; 
stroke-linecap:round; stroke-linejoin:round;">
</g>
<g style="fill:#840000; fill-opacity:1.0; 
stroke:#840000; stroke-width:0; stroke-opacity:1; 
stroke-linecap:round; stroke-linejoin:round;">
<polyline style="fill-rule:evenodd;"
points="12141,14968
12141,14771
11826,14771
11826,14968
12141,14968
" /> 
<polyline style="fill-rule:evenodd;"
points="11669,14968
11669,14771
11354,14771
11354,14968
11669,14968
" /> 
<polyline style="fill-rule:evenodd;"
points="20606,7778
20606,7581
20291,7581
20291,7778
20606,7778
" /> 
<polyline style="fill-rule:evenodd;"
points="20134,7778
20134,7581
19819,7581
19819,7778
20134,7778
" /> 
<polyline style="fill-rule:evenodd;"
points="20606,6897
20606,6700
20291,6700
20291,6897
20606,6897
" /> 
<polyline style="fill-rule:evenodd;"
points="20134,6897
20134,6700
19819,6700
19819,6897
20134,6897
" /> 
<polyline style="fill-rule:evenodd;"
points="20606,5913
20606,5716
20291,5716
20291,5913
20606,5913
" /> 
<polyline style="fill-rule:evenodd;"
points="20134,5913
20134,5716
19819,5716
19819,5913
20134,5913
" /> 
</g>
<g style="fill:#840000; fill-opacity:1.0; 
stroke:#840000; stroke-width:787.402; stroke-opacity:1; 
stroke-linecap:round; stroke-linejoin:round;">
</g>
<g style="fill:#840000; fill-opacity:0.0; 
stroke:#840000; stroke-width:787.402; stroke-opacity:1; 
stroke-linecap:round; stroke-linejoin:round;">
<path d="M17210 17035
L17210 17035
" />
<path d="M14553 17035
L14553 17035
" />
</g>
<g style="fill:#840000; fill-opacity:0.0; 
stroke:#840000; stroke-width:492.126; stroke-opacity:1; 
stroke-linecap:round; stroke-linejoin:round;">
<path d="M16866 16070
L16866 15874
" />
<path d="M14897 16070
L14897 15874
" />
</g>
<g style="fill:#FFFFFF; fill-opacity:0.0; 
stroke:#FFFFFF; stroke-width:492.126; stroke-opacity:1; 
stroke-linecap:round; stroke-linejoin:round;">
</g>
<g style="fill:#FFFFFF; fill-opacity:1.0; 
stroke:#FFFFFF; stroke-width:0; stroke-opacity:1; 
stroke-linecap:round; stroke-linejoin:round;">
<circle cx="17210.8" cy="17035.4" r="226.378" /> 
</g>
<g style="fill:#FFFFFF; fill-opacity:1.0; 
stroke:#FFFFFF; stroke-width:39.3701; stroke-opacity:1; 
stroke-linecap:round; stroke-linejoin:round;">
</g>
<g style="fill:#FFFFFF; fill-opacity:1.0; 
stroke:#FFFFFF; stroke-width:0; stroke-opacity:1; 
stroke-linecap:round; stroke-linejoin:round;">
<circle cx="14553.3" cy="17035.4" r="226.378" /> 
</g>
<g style="fill:#FFFFFF; fill-opacity:1.0; 
stroke:#FFFFFF; stroke-width:39.3701; stroke-opacity:1; 
stroke-linecap:round; stroke-linejoin:round;">
</g>
<g style="fill:#FFFFFF; fill-opacity:1.0; 
stroke:#FFFFFF; stroke-width:0; stroke-opacity:1; 
stroke-linecap:round; stroke-linejoin:round;">
<circle cx="16866.3" cy="15972.4" r="167.323" /> 
</g>
<g style="fill:#FFFFFF; fill-opacity:1.0; 
stroke:#FFFFFF; stroke-width:39.3701; stroke-opacity:1; 
stroke-linecap:round; stroke-linejoin:round;">
</g>
<g style="fill:#FFFFFF; fill-opacity:1.0; 
stroke:#FFFFFF; stroke-width:0; stroke-opacity:1; 
stroke-linecap:round; stroke-linejoin:round;">
<circle cx="14897.8" cy="15972.4" r="167.323" /> 
</g>
<g style="fill:#FFFFFF; fill-opacity:1.0; 
stroke:#FFFFFF; stroke-width:39.3701; stroke-opacity:1; 
stroke-linecap:round; stroke-linejoin:round;">
</g>
<g style="fill:#000000; fill-opacity:1.0; 
stroke:#000000; stroke-width:39.3701; stroke-opacity:1; 
stroke-linecap:round; stroke-linejoin:round;">
</g>
<g style="fill:#008484; fill-opacity:1.0; 
stroke:#008484; stroke-width:39.3701; stroke-opacity:1; 
stroke-linecap:round; stroke-linejoin:round;">
</g>
<g style="fill:#008484; fill-opacity:0.0; 
stroke:#008484; stroke-width:39.3701; stroke-opacity:1; 
stroke-linecap:round; stroke-linejoin:round;">
</g>
<g style="fill:#008484; fill-opacity:0.0; 
stroke:#008484; stroke-width:55.1181; stroke-opacity:1; 
stroke-linecap:round; stroke-linejoin:round;">
<path d="M16672 874
L16623 481
L16447 874
L16398 481
" />
<path d="M16234 668
L16103 668
" />
<path d="M16073 874
L16260 874
L16211 481
L16023 481
" />
<path d="M15911 481
L15686 481
" />
<path d="M15848 874
L15798 481
" />
<path d="M15592 481
L15548 874
L15437 593
L15398 874
L15255 481
" />
<path d="M15030 481
L14955 481
L14920 500
L14887 537
L14877 612
L14894 743
L14922 818
L14964 856
L15004 874
L15079 874
L15114 856
L15147 818
L15156 743
L15140 612
L15112 537
L15070 500
L15030 481
" />
<path d="M14516 874
L14624 687
" />
<path d="M14741 874
L14692 481
L14542 481
L14507 500
L14491 518
L14477 556
L14484 612
L14507 649
L14528 668
L14568 687
L14718 687
" />
<path d="M14348 874
L14299 481
" />
<path d="M14123 874
L14263 649
" />
<path d="M14074 481
L14327 706
" />
<path d="M13654 874
L13605 481
" />
<path d="M13467 874
L13417 481
L13242 874
L13192 481
" />
<path d="M13061 481
L12836 481
" />
<path d="M12998 874
L12949 481
" />
<path d="M12728 668
L12597 668
" />
<path d="M12567 874
L12754 874
L12705 481
L12518 481
" />
<path d="M12173 874
L12281 687
" />
<path d="M12398 874
L12349 481
L12199 481
L12164 500
L12147 518
L12133 556
L12140 612
L12164 649
L12185 668
L12225 687
L12375 687
" />
<path d="M11847 668
L11979 668
" />
<path d="M12004 874
L11955 481
L11768 481
" />
<path d="M11672 762
L11484 762
" />
<path d="M11723 874
L11543 481
L11461 874
" />
<path d="M11100 837
L11121 856
L11179 874
L11217 874
L11271 856
L11304 818
L11318 781
L11327 706
L11320 649
L11292 574
L11268 537
L11226 500
L11168 481
L11130 481
L11076 500
L11060 518
" />
<path d="M10910 668
L10779 668
" />
<path d="M10748 874
L10936 874
L10886 481
L10699 481
" />
<path d="M10280 874
L10230 481
L10137 481
L10083 500
L10050 537
L10036 574
L10026 649
L10033 706
L10062 781
L10085 818
L10127 856
L10186 874
L10280 874
" />
<path d="M9860 668
L9729 668
" />
<path d="M9698 874
L9886 874
L9837 481
L9649 481
" />
<path d="M9537 481
L9455 874
L9274 481
" />
<path d="M9192 874
L9143 481
" />
<path d="M8775 837
L8796 856
L8855 874
L8892 874
L8946 856
L8979 818
L8993 781
L9002 706
L8995 649
L8967 574
L8944 537
L8902 500
L8843 481
L8805 481
L8752 500
L8735 518
" />
<path d="M8585 668
L8454 668
" />
<path d="M8423 874
L8611 874
L8562 481
L8374 481
" />
</g>
<g style="fill:#000000; fill-opacity:0.0; 
stroke:#000000; stroke-width:55.1181; stroke-opacity:1; 
stroke-linecap:round; stroke-linejoin:round;">
</g>
<g style="fill:#C2C200; fill-opacity:0.0; 
stroke:#C2C200; stroke-width:55.1181; stroke-opacity:1; 
stroke-linecap:round; stroke-linejoin:round;">
</g>
<g style="fill:#C2C200; fill-opacity:0.0; 
stroke:#C2C200; stroke-width:39.3701; stroke-opacity:1; 
stroke-linecap:round; stroke-linejoin:round;">
<path d="M24740 1877
L24740 15263
" />
<path d="M7023 1877
L24740 1877
" />
<path d="M7023 15263
L7023 1877
" />
<path d="M7023.78 15263.8 A2362.2 2362.2 0.0 0 0 9385.98 17626 " />
<path d="M22378.1 17626 A2362.2 2362.2 0.0 0 0 24740.3 15263.8 " />
<path d="M9385 17625
L22378 17625
" />
</g> 
</svg>
