G04 #@! TF.FileFunction,Paste,Top*
%FSLAX46Y46*%
G04 Gerber Fmt 4.6, Leading zero omitted, Abs format (unit mm)*
G04 Created by KiCad (PCBNEW 4.0.7-e2-6376~58~ubuntu14.04.1) date Tue Mar  6 17:24:19 2018*
%MOMM*%
%LPD*%
G01*
G04 APERTURE LIST*
%ADD10C,0.100000*%
%ADD11R,1.500000X2.300000*%
%ADD12R,0.600000X1.200000*%
%ADD13R,0.800000X0.300000*%
%ADD14R,1.800000X1.900000*%
%ADD15R,2.100000X1.600000*%
%ADD16R,0.400000X1.500000*%
%ADD17R,1.200000X0.600000*%
%ADD18R,3.400000X2.000000*%
%ADD19R,0.500000X0.800000*%
%ADD20R,0.800000X0.500000*%
%ADD21R,1.000000X1.200000*%
%ADD22R,1.200000X1.000000*%
%ADD23R,0.600000X1.700000*%
%ADD24R,1.000000X2.700000*%
%ADD25R,1.700000X0.400000*%
%ADD26R,0.800000X1.000000*%
%ADD27R,1.500000X1.250000*%
%ADD28R,0.500000X1.000000*%
%ADD29R,1.250000X1.800000*%
%ADD30R,1.500000X2.540000*%
G04 APERTURE END LIST*
D10*
G36*
X55268466Y-62957017D02*
X54384582Y-63840901D01*
X54172450Y-63628769D01*
X55056334Y-62744885D01*
X55268466Y-62957017D01*
X55268466Y-62957017D01*
G37*
G36*
X54914913Y-62603464D02*
X54031029Y-63487348D01*
X53818897Y-63275216D01*
X54702781Y-62391332D01*
X54914913Y-62603464D01*
X54914913Y-62603464D01*
G37*
G36*
X54561359Y-62249910D02*
X53677475Y-63133794D01*
X53465343Y-62921662D01*
X54349227Y-62037778D01*
X54561359Y-62249910D01*
X54561359Y-62249910D01*
G37*
G36*
X54207806Y-61896357D02*
X53323922Y-62780241D01*
X53111790Y-62568109D01*
X53995674Y-61684225D01*
X54207806Y-61896357D01*
X54207806Y-61896357D01*
G37*
G36*
X53854253Y-61542804D02*
X52970369Y-62426688D01*
X52758237Y-62214556D01*
X53642121Y-61330672D01*
X53854253Y-61542804D01*
X53854253Y-61542804D01*
G37*
G36*
X53500699Y-61189250D02*
X52616815Y-62073134D01*
X52404683Y-61861002D01*
X53288567Y-60977118D01*
X53500699Y-61189250D01*
X53500699Y-61189250D01*
G37*
G36*
X53147146Y-60835697D02*
X52263262Y-61719581D01*
X52051130Y-61507449D01*
X52935014Y-60623565D01*
X53147146Y-60835697D01*
X53147146Y-60835697D01*
G37*
G36*
X52793592Y-60482143D02*
X51909708Y-61366027D01*
X51697576Y-61153895D01*
X52581460Y-60270011D01*
X52793592Y-60482143D01*
X52793592Y-60482143D01*
G37*
G36*
X52440039Y-60128590D02*
X51556155Y-61012474D01*
X51344023Y-60800342D01*
X52227907Y-59916458D01*
X52440039Y-60128590D01*
X52440039Y-60128590D01*
G37*
G36*
X52086486Y-59775037D02*
X51202602Y-60658921D01*
X50990470Y-60446789D01*
X51874354Y-59562905D01*
X52086486Y-59775037D01*
X52086486Y-59775037D01*
G37*
G36*
X51732932Y-59421483D02*
X50849048Y-60305367D01*
X50636916Y-60093235D01*
X51520800Y-59209351D01*
X51732932Y-59421483D01*
X51732932Y-59421483D01*
G37*
G36*
X51379379Y-59067930D02*
X50495495Y-59951814D01*
X50283363Y-59739682D01*
X51167247Y-58855798D01*
X51379379Y-59067930D01*
X51379379Y-59067930D01*
G37*
G36*
X49081281Y-58855798D02*
X49965165Y-59739682D01*
X49753033Y-59951814D01*
X48869149Y-59067930D01*
X49081281Y-58855798D01*
X49081281Y-58855798D01*
G37*
G36*
X48727728Y-59209351D02*
X49611612Y-60093235D01*
X49399480Y-60305367D01*
X48515596Y-59421483D01*
X48727728Y-59209351D01*
X48727728Y-59209351D01*
G37*
G36*
X48374174Y-59562905D02*
X49258058Y-60446789D01*
X49045926Y-60658921D01*
X48162042Y-59775037D01*
X48374174Y-59562905D01*
X48374174Y-59562905D01*
G37*
G36*
X48020621Y-59916458D02*
X48904505Y-60800342D01*
X48692373Y-61012474D01*
X47808489Y-60128590D01*
X48020621Y-59916458D01*
X48020621Y-59916458D01*
G37*
G36*
X47667068Y-60270011D02*
X48550952Y-61153895D01*
X48338820Y-61366027D01*
X47454936Y-60482143D01*
X47667068Y-60270011D01*
X47667068Y-60270011D01*
G37*
G36*
X47313514Y-60623565D02*
X48197398Y-61507449D01*
X47985266Y-61719581D01*
X47101382Y-60835697D01*
X47313514Y-60623565D01*
X47313514Y-60623565D01*
G37*
G36*
X46959961Y-60977118D02*
X47843845Y-61861002D01*
X47631713Y-62073134D01*
X46747829Y-61189250D01*
X46959961Y-60977118D01*
X46959961Y-60977118D01*
G37*
G36*
X46606407Y-61330672D02*
X47490291Y-62214556D01*
X47278159Y-62426688D01*
X46394275Y-61542804D01*
X46606407Y-61330672D01*
X46606407Y-61330672D01*
G37*
G36*
X46252854Y-61684225D02*
X47136738Y-62568109D01*
X46924606Y-62780241D01*
X46040722Y-61896357D01*
X46252854Y-61684225D01*
X46252854Y-61684225D01*
G37*
G36*
X45899301Y-62037778D02*
X46783185Y-62921662D01*
X46571053Y-63133794D01*
X45687169Y-62249910D01*
X45899301Y-62037778D01*
X45899301Y-62037778D01*
G37*
G36*
X45545747Y-62391332D02*
X46429631Y-63275216D01*
X46217499Y-63487348D01*
X45333615Y-62603464D01*
X45545747Y-62391332D01*
X45545747Y-62391332D01*
G37*
G36*
X45192194Y-62744885D02*
X46076078Y-63628769D01*
X45863946Y-63840901D01*
X44980062Y-62957017D01*
X45192194Y-62744885D01*
X45192194Y-62744885D01*
G37*
G36*
X44980062Y-65042983D02*
X45863946Y-64159099D01*
X46076078Y-64371231D01*
X45192194Y-65255115D01*
X44980062Y-65042983D01*
X44980062Y-65042983D01*
G37*
G36*
X45333615Y-65396536D02*
X46217499Y-64512652D01*
X46429631Y-64724784D01*
X45545747Y-65608668D01*
X45333615Y-65396536D01*
X45333615Y-65396536D01*
G37*
G36*
X45687169Y-65750090D02*
X46571053Y-64866206D01*
X46783185Y-65078338D01*
X45899301Y-65962222D01*
X45687169Y-65750090D01*
X45687169Y-65750090D01*
G37*
G36*
X46040722Y-66103643D02*
X46924606Y-65219759D01*
X47136738Y-65431891D01*
X46252854Y-66315775D01*
X46040722Y-66103643D01*
X46040722Y-66103643D01*
G37*
G36*
X46394275Y-66457196D02*
X47278159Y-65573312D01*
X47490291Y-65785444D01*
X46606407Y-66669328D01*
X46394275Y-66457196D01*
X46394275Y-66457196D01*
G37*
G36*
X46747829Y-66810750D02*
X47631713Y-65926866D01*
X47843845Y-66138998D01*
X46959961Y-67022882D01*
X46747829Y-66810750D01*
X46747829Y-66810750D01*
G37*
G36*
X47101382Y-67164303D02*
X47985266Y-66280419D01*
X48197398Y-66492551D01*
X47313514Y-67376435D01*
X47101382Y-67164303D01*
X47101382Y-67164303D01*
G37*
G36*
X47454936Y-67517857D02*
X48338820Y-66633973D01*
X48550952Y-66846105D01*
X47667068Y-67729989D01*
X47454936Y-67517857D01*
X47454936Y-67517857D01*
G37*
G36*
X47808489Y-67871410D02*
X48692373Y-66987526D01*
X48904505Y-67199658D01*
X48020621Y-68083542D01*
X47808489Y-67871410D01*
X47808489Y-67871410D01*
G37*
G36*
X48162042Y-68224963D02*
X49045926Y-67341079D01*
X49258058Y-67553211D01*
X48374174Y-68437095D01*
X48162042Y-68224963D01*
X48162042Y-68224963D01*
G37*
G36*
X48515596Y-68578517D02*
X49399480Y-67694633D01*
X49611612Y-67906765D01*
X48727728Y-68790649D01*
X48515596Y-68578517D01*
X48515596Y-68578517D01*
G37*
G36*
X48869149Y-68932070D02*
X49753033Y-68048186D01*
X49965165Y-68260318D01*
X49081281Y-69144202D01*
X48869149Y-68932070D01*
X48869149Y-68932070D01*
G37*
G36*
X50495495Y-68048186D02*
X51379379Y-68932070D01*
X51167247Y-69144202D01*
X50283363Y-68260318D01*
X50495495Y-68048186D01*
X50495495Y-68048186D01*
G37*
G36*
X50849048Y-67694633D02*
X51732932Y-68578517D01*
X51520800Y-68790649D01*
X50636916Y-67906765D01*
X50849048Y-67694633D01*
X50849048Y-67694633D01*
G37*
G36*
X51202602Y-67341079D02*
X52086486Y-68224963D01*
X51874354Y-68437095D01*
X50990470Y-67553211D01*
X51202602Y-67341079D01*
X51202602Y-67341079D01*
G37*
G36*
X51556155Y-66987526D02*
X52440039Y-67871410D01*
X52227907Y-68083542D01*
X51344023Y-67199658D01*
X51556155Y-66987526D01*
X51556155Y-66987526D01*
G37*
G36*
X51909708Y-66633973D02*
X52793592Y-67517857D01*
X52581460Y-67729989D01*
X51697576Y-66846105D01*
X51909708Y-66633973D01*
X51909708Y-66633973D01*
G37*
G36*
X52263262Y-66280419D02*
X53147146Y-67164303D01*
X52935014Y-67376435D01*
X52051130Y-66492551D01*
X52263262Y-66280419D01*
X52263262Y-66280419D01*
G37*
G36*
X52616815Y-65926866D02*
X53500699Y-66810750D01*
X53288567Y-67022882D01*
X52404683Y-66138998D01*
X52616815Y-65926866D01*
X52616815Y-65926866D01*
G37*
G36*
X52970369Y-65573312D02*
X53854253Y-66457196D01*
X53642121Y-66669328D01*
X52758237Y-65785444D01*
X52970369Y-65573312D01*
X52970369Y-65573312D01*
G37*
G36*
X53323922Y-65219759D02*
X54207806Y-66103643D01*
X53995674Y-66315775D01*
X53111790Y-65431891D01*
X53323922Y-65219759D01*
X53323922Y-65219759D01*
G37*
G36*
X53677475Y-64866206D02*
X54561359Y-65750090D01*
X54349227Y-65962222D01*
X53465343Y-65078338D01*
X53677475Y-64866206D01*
X53677475Y-64866206D01*
G37*
G36*
X54031029Y-64512652D02*
X54914913Y-65396536D01*
X54702781Y-65608668D01*
X53818897Y-64724784D01*
X54031029Y-64512652D01*
X54031029Y-64512652D01*
G37*
G36*
X54384582Y-64159099D02*
X55268466Y-65042983D01*
X55056334Y-65255115D01*
X54172450Y-64371231D01*
X54384582Y-64159099D01*
X54384582Y-64159099D01*
G37*
G36*
X51142498Y-61454416D02*
X50124264Y-62472650D01*
X49106030Y-61454416D01*
X50124264Y-60436182D01*
X51142498Y-61454416D01*
X51142498Y-61454416D01*
G37*
G36*
X53688082Y-64000000D02*
X52669848Y-65018234D01*
X51651614Y-64000000D01*
X52669848Y-62981766D01*
X53688082Y-64000000D01*
X53688082Y-64000000D01*
G37*
G36*
X51142498Y-66545584D02*
X50124264Y-67563818D01*
X49106030Y-66545584D01*
X50124264Y-65527350D01*
X51142498Y-66545584D01*
X51142498Y-66545584D01*
G37*
G36*
X48596914Y-64000000D02*
X47578680Y-65018234D01*
X46560446Y-64000000D01*
X47578680Y-62981766D01*
X48596914Y-64000000D01*
X48596914Y-64000000D01*
G37*
G36*
X52415290Y-62727208D02*
X51397056Y-63745442D01*
X50378822Y-62727208D01*
X51397056Y-61708974D01*
X52415290Y-62727208D01*
X52415290Y-62727208D01*
G37*
G36*
X51142498Y-64000000D02*
X50124264Y-65018234D01*
X49106030Y-64000000D01*
X50124264Y-62981766D01*
X51142498Y-64000000D01*
X51142498Y-64000000D01*
G37*
G36*
X49869706Y-62727208D02*
X48851472Y-63745442D01*
X47833238Y-62727208D01*
X48851472Y-61708974D01*
X49869706Y-62727208D01*
X49869706Y-62727208D01*
G37*
G36*
X49869706Y-65272792D02*
X48851472Y-66291026D01*
X47833238Y-65272792D01*
X48851472Y-64254558D01*
X49869706Y-65272792D01*
X49869706Y-65272792D01*
G37*
G36*
X52415290Y-65272792D02*
X51397056Y-66291026D01*
X50378822Y-65272792D01*
X51397056Y-64254558D01*
X52415290Y-65272792D01*
X52415290Y-65272792D01*
G37*
D11*
X44574264Y-52200000D03*
X48074264Y-52200000D03*
D12*
X34824264Y-77050000D03*
X33874264Y-77050000D03*
X35774264Y-77050000D03*
X35774264Y-74750000D03*
X33874264Y-74750000D03*
D13*
X47324264Y-74150000D03*
X47324264Y-73500000D03*
X47324264Y-72850000D03*
X45324264Y-72850000D03*
X45324264Y-74150000D03*
D12*
X39824264Y-79550000D03*
X39824264Y-77250000D03*
X40774264Y-77250000D03*
X38874264Y-77250000D03*
X38874264Y-79550000D03*
X40774264Y-79550000D03*
D14*
X50124264Y-81600000D03*
X42524264Y-81600000D03*
D15*
X43224264Y-79050000D03*
X49424264Y-79050000D03*
D16*
X45024264Y-79100000D03*
X45674264Y-79100000D03*
X46324264Y-79100000D03*
X46974264Y-79100000D03*
X47624264Y-79100000D03*
D17*
X36474264Y-81400000D03*
X34174264Y-80450000D03*
X34174264Y-82350000D03*
D18*
X38124264Y-60900000D03*
X38124264Y-69900000D03*
D19*
X42024264Y-76300000D03*
X42024264Y-75100000D03*
D20*
X58000000Y-68000000D03*
X56800000Y-68000000D03*
X58000000Y-67100000D03*
X56800000Y-67100000D03*
X48724264Y-69700000D03*
X49924264Y-69700000D03*
D21*
X58400000Y-65800000D03*
X56400000Y-65800000D03*
D19*
X45524264Y-70600000D03*
X45524264Y-71800000D03*
D20*
X48724264Y-70700000D03*
X49924264Y-70700000D03*
D19*
X51400000Y-58000000D03*
X51400000Y-56800000D03*
D22*
X43524264Y-65500000D03*
X43524264Y-67500000D03*
D19*
X44724264Y-65900000D03*
X44724264Y-67100000D03*
D22*
X37224264Y-74900000D03*
X37224264Y-76900000D03*
X34824264Y-73100000D03*
X34824264Y-71100000D03*
D23*
X46347918Y-49534924D03*
X45097918Y-49534924D03*
X47597918Y-49534924D03*
X48847918Y-49534924D03*
D24*
X41847918Y-46484924D03*
X50847918Y-46484924D03*
D23*
X43847918Y-49534924D03*
D20*
X48724264Y-71700000D03*
X49924264Y-71700000D03*
X45724264Y-56700000D03*
X46924264Y-56700000D03*
X40424264Y-80900000D03*
X39224264Y-80900000D03*
D19*
X46524264Y-70600000D03*
X46524264Y-71800000D03*
X47524264Y-70600000D03*
X47524264Y-71800000D03*
D25*
X57400000Y-63500000D03*
X57400000Y-62000000D03*
X57400000Y-60500000D03*
D26*
X58650000Y-63500000D03*
X58650000Y-62000000D03*
X58650000Y-60500000D03*
X56150000Y-60500000D03*
X56150000Y-62000000D03*
X56150000Y-63500000D03*
D27*
X39774264Y-73000000D03*
X37274264Y-73000000D03*
D12*
X43324264Y-70050000D03*
X42374264Y-72350000D03*
X44274264Y-72350000D03*
D19*
X41324264Y-71800000D03*
X41324264Y-70600000D03*
X43500000Y-64100000D03*
X43500000Y-62900000D03*
D20*
X39224264Y-81900000D03*
X40424264Y-81900000D03*
X35924264Y-79400000D03*
X34724264Y-79400000D03*
D21*
X45324264Y-54500000D03*
X47324264Y-54500000D03*
D20*
X45724264Y-55800000D03*
X46924264Y-55800000D03*
D21*
X40824264Y-75700000D03*
X38824264Y-75700000D03*
D20*
X39124264Y-71600000D03*
X37924264Y-71600000D03*
D28*
X45894264Y-77450000D03*
X46754264Y-77450000D03*
X46754264Y-75550000D03*
X45894264Y-75550000D03*
D29*
X43324264Y-74200000D03*
X43324264Y-76800000D03*
X49324264Y-76800000D03*
X49324264Y-74200000D03*
D30*
X52784264Y-70000000D03*
X55324264Y-70000000D03*
X57864264Y-70000000D03*
X39864264Y-58000000D03*
X37324264Y-58000000D03*
X34784264Y-58000000D03*
X57864264Y-58000000D03*
X55324264Y-58000000D03*
X52784264Y-58000000D03*
M02*
