M48
;DRILL file {KiCad 4.0.7-e2-6376~58~ubuntu14.04.1} date Mon Apr  9 12:37:12 2018
;FORMAT={-:-/ absolute / metric / decimal}
FMAT,2
METRIC,TZ
T1C0.400
%
G90
G05
M71
T1
X111.824Y-72.1
X112.424Y-75.7
X112.424Y-78.5
X114.424Y-61.5
X114.424Y-65.
X114.424Y-68.5
X114.424Y-71.2
X115.879Y-77.
X117.151Y-75.727
X117.151Y-78.273
X117.824Y-70.4
X117.824Y-83.75
X118.424Y-74.454
X118.424Y-77.
X118.424Y-79.546
X118.624Y-62.4
X118.824Y-71.8
X118.924Y-84.8
X119.024Y-83.75
X119.697Y-75.727
X119.697Y-78.273
X119.924Y-67.4
X120.624Y-82.
X120.97Y-77.
X121.124Y-88.4
X121.324Y-83.5
X122.924Y-55.8
X122.924Y-57.1
X123.124Y-84.8
X123.674Y-76.4
X123.824Y-78.5
X124.024Y-66.8
X124.624Y-97.2
X124.824Y-78.5
X125.024Y-59.6
X125.024Y-86.7
X125.224Y-81.7
X125.324Y-73.9
X125.924Y-71.7
X125.924Y-78.5
X126.024Y-90.6
X126.03Y-70.096
X126.424Y-75.1
X126.424Y-99.2
X126.924Y-70.1
X127.024Y-74.5
X127.224Y-81.
X128.124Y-73.8
X128.624Y-78.9
X130.424Y-80.
X130.424Y-89.5
X130.424Y-99.2
X131.424Y-81.6
X131.724Y-59.6
X132.024Y-73.8
X132.024Y-82.2
X132.224Y-97.2
X132.924Y-78.8
X132.924Y-88.4
X133.424Y-84.9
X133.824Y-55.8
X133.824Y-57.1
X134.324Y-95.4
X135.224Y-97.4
X136.724Y-78.7
X137.424Y-97.8
X138.324Y-68.
X139.524Y-97.6
X139.624Y-85.6
X139.664Y-91.2
X139.724Y-69.7
X140.424Y-97.8
X141.224Y-83.2
X141.624Y-86.4
X141.624Y-88.4
X141.824Y-68.
X142.824Y-69.7
X143.624Y-86.8
X143.624Y-88.4
X144.824Y-79.6
T0
M30
