G04 #@! TF.FileFunction,Copper,L3,Inr,Signal*
%FSLAX46Y46*%
G04 Gerber Fmt 4.6, Leading zero omitted, Abs format (unit mm)*
G04 Created by KiCad (PCBNEW 4.0.7-e2-6376~58~ubuntu14.04.1) date Sun Apr  8 21:09:44 2018*
%MOMM*%
%LPD*%
G01*
G04 APERTURE LIST*
%ADD10C,0.100000*%
%ADD11C,0.600000*%
%ADD12C,0.300000*%
G04 APERTURE END LIST*
D10*
D11*
X117824264Y-83750000D03*
X132024264Y-73800000D03*
X128124264Y-73800000D03*
X139724264Y-69700000D03*
X138324264Y-68000000D03*
X122924264Y-57100000D03*
X122924264Y-55800000D03*
X133824264Y-55800000D03*
X133824264Y-57100000D03*
X112424264Y-78500000D03*
X125024264Y-86700000D03*
X126024264Y-90600000D03*
X134324264Y-95400000D03*
X132924264Y-88400000D03*
X141624264Y-88400000D03*
X143624264Y-88400000D03*
X119924264Y-67400000D03*
X114424264Y-71200000D03*
X114424264Y-68500000D03*
X114424264Y-65000000D03*
X114424264Y-61500000D03*
X111824264Y-72100000D03*
X121324264Y-83500000D03*
X125024264Y-59600000D03*
X140424264Y-97800000D03*
X137424264Y-97800000D03*
X125224264Y-81700000D03*
X128624264Y-78900000D03*
X118424264Y-74454416D03*
X124824264Y-78500000D03*
X118424264Y-77000000D03*
X119697056Y-78272792D03*
X120969848Y-77000000D03*
X119697056Y-75727208D03*
X117151472Y-75727208D03*
X115878680Y-77000000D03*
X117151472Y-78272792D03*
X118424264Y-79545584D03*
X130424264Y-89500000D03*
X135224264Y-97400000D03*
X121124264Y-88400000D03*
X123124264Y-84800000D03*
X126924264Y-70100000D03*
X133424264Y-84900000D03*
X117824264Y-70400000D03*
X123674264Y-76400000D03*
X112424264Y-75700000D03*
X119024264Y-83750000D03*
X132924264Y-78800000D03*
X144824264Y-79600000D03*
X142824264Y-69700000D03*
X141824264Y-68000000D03*
X131724264Y-59600000D03*
X139524264Y-97600000D03*
X143624264Y-86800000D03*
X141624264Y-86400000D03*
X123824264Y-78500000D03*
X127224264Y-81000000D03*
X118624264Y-62400000D03*
X124024264Y-66800000D03*
X126030194Y-70096442D03*
X125924264Y-71700000D03*
X139664266Y-91200000D03*
X139624264Y-85600000D03*
X132024264Y-82200000D03*
X127024264Y-74500000D03*
X136724264Y-78700000D03*
X141224264Y-83200000D03*
X125924264Y-78500000D03*
X130424264Y-80000000D03*
X125324264Y-73900000D03*
X118824264Y-71800000D03*
X118924264Y-84800000D03*
X120624264Y-82000000D03*
X131424264Y-81600000D03*
X126424264Y-75100000D03*
X130424264Y-99200000D03*
X126424264Y-99200000D03*
X124624264Y-97200000D03*
X132224264Y-97200000D03*
D12*
G36*
X128274264Y-67062132D02*
X128274264Y-73116165D01*
X128197788Y-73100466D01*
X128060514Y-73099508D01*
X127925669Y-73125231D01*
X127798388Y-73176656D01*
X127683519Y-73251824D01*
X127585438Y-73347872D01*
X127507881Y-73461141D01*
X127453802Y-73587317D01*
X127425261Y-73721594D01*
X127423344Y-73858858D01*
X127437155Y-73934110D01*
X127358812Y-73881267D01*
X127232261Y-73828070D01*
X127097788Y-73800466D01*
X126960514Y-73799508D01*
X126825669Y-73825231D01*
X126698388Y-73876656D01*
X126583519Y-73951824D01*
X126485438Y-74047872D01*
X126407881Y-74161141D01*
X126353802Y-74287317D01*
X126328664Y-74405584D01*
X126225669Y-74425231D01*
X126098388Y-74476656D01*
X125983519Y-74551824D01*
X125885438Y-74647872D01*
X125807881Y-74761141D01*
X125753802Y-74887317D01*
X125725261Y-75021594D01*
X125723344Y-75158858D01*
X125748125Y-75293880D01*
X125798660Y-75421517D01*
X125873024Y-75536907D01*
X125968385Y-75635656D01*
X126081110Y-75714002D01*
X126206905Y-75768961D01*
X126340980Y-75798439D01*
X126478227Y-75801314D01*
X126613419Y-75777476D01*
X126741405Y-75727833D01*
X126857312Y-75654277D01*
X126956724Y-75559608D01*
X127035855Y-75447432D01*
X127091691Y-75322023D01*
X127120822Y-75193803D01*
X127213419Y-75177476D01*
X127341405Y-75127833D01*
X127457312Y-75054277D01*
X127556724Y-74959608D01*
X127635855Y-74847432D01*
X127691691Y-74722023D01*
X127722105Y-74588158D01*
X127724294Y-74431361D01*
X127711242Y-74365442D01*
X127781110Y-74414002D01*
X127906905Y-74468961D01*
X128040980Y-74498439D01*
X128178227Y-74501314D01*
X128274264Y-74484380D01*
X128274264Y-78292442D01*
X128183519Y-78351824D01*
X128085438Y-78447872D01*
X128007881Y-78561141D01*
X127953802Y-78687317D01*
X127925261Y-78821594D01*
X127923344Y-78958858D01*
X127948125Y-79093880D01*
X127998660Y-79221517D01*
X128073024Y-79336907D01*
X128168385Y-79435656D01*
X128281110Y-79514002D01*
X128406905Y-79568961D01*
X128540980Y-79598439D01*
X128678227Y-79601314D01*
X128813419Y-79577476D01*
X128941405Y-79527833D01*
X129057312Y-79454277D01*
X129113194Y-79401062D01*
X129724000Y-80011868D01*
X129723344Y-80058858D01*
X129748125Y-80193880D01*
X129798660Y-80321517D01*
X129873024Y-80436907D01*
X129968385Y-80535656D01*
X130081110Y-80614002D01*
X130206905Y-80668961D01*
X130340980Y-80698439D01*
X130412060Y-80699928D01*
X130875101Y-81162969D01*
X130807881Y-81261141D01*
X130753802Y-81387317D01*
X130725261Y-81521594D01*
X130723344Y-81658858D01*
X130748125Y-81793880D01*
X130798660Y-81921517D01*
X130873024Y-82036907D01*
X130968385Y-82135656D01*
X131081110Y-82214002D01*
X131206905Y-82268961D01*
X131330172Y-82296063D01*
X131348125Y-82393880D01*
X131398660Y-82521517D01*
X131473024Y-82636907D01*
X131568385Y-82735656D01*
X131681110Y-82814002D01*
X131806905Y-82868961D01*
X131940980Y-82898439D01*
X132078227Y-82901314D01*
X132213419Y-82877476D01*
X132341405Y-82827833D01*
X132457312Y-82754277D01*
X132461972Y-82749840D01*
X134274264Y-84562132D01*
X134274264Y-85850000D01*
X126424264Y-85850000D01*
X126382475Y-85855939D01*
X126343995Y-85873284D01*
X126318198Y-85893934D01*
X125700572Y-86511560D01*
X125697630Y-86496699D01*
X125645318Y-86369780D01*
X125569350Y-86255439D01*
X125472620Y-86158031D01*
X125358812Y-86081267D01*
X125232261Y-86028070D01*
X125097788Y-86000466D01*
X124960514Y-85999508D01*
X124825669Y-86025231D01*
X124698388Y-86076656D01*
X124583519Y-86151824D01*
X124485438Y-86247872D01*
X124407881Y-86361141D01*
X124353802Y-86487317D01*
X124325261Y-86621594D01*
X124323344Y-86758858D01*
X124348125Y-86893880D01*
X124398660Y-87021517D01*
X124473024Y-87136907D01*
X124568385Y-87235656D01*
X124681110Y-87314002D01*
X124806905Y-87368961D01*
X124836635Y-87375497D01*
X120318198Y-91893934D01*
X120292848Y-91927683D01*
X120277904Y-91967157D01*
X120274264Y-92000000D01*
X120274264Y-99550000D01*
X106946269Y-99550000D01*
X106720741Y-99527887D01*
X106524960Y-99468777D01*
X106344401Y-99372772D01*
X106185918Y-99243517D01*
X106055563Y-99085944D01*
X105958297Y-98906055D01*
X105897824Y-98710699D01*
X105874264Y-98486536D01*
X105874264Y-90022005D01*
X105896377Y-89796477D01*
X105955487Y-89600694D01*
X106051493Y-89420135D01*
X106180745Y-89261656D01*
X106338320Y-89131299D01*
X106518209Y-89034033D01*
X106713563Y-88973560D01*
X106937728Y-88950000D01*
X107924264Y-88950000D01*
X107924348Y-88949992D01*
X107925854Y-88949997D01*
X107936326Y-88949960D01*
X107955873Y-88947974D01*
X107975520Y-88948111D01*
X107981773Y-88947498D01*
X108272918Y-88916898D01*
X108312928Y-88908685D01*
X108352935Y-88901054D01*
X108358942Y-88899240D01*
X108358949Y-88899239D01*
X108358955Y-88899236D01*
X108638605Y-88812670D01*
X108676194Y-88796869D01*
X108714021Y-88781586D01*
X108719569Y-88778636D01*
X108977085Y-88639397D01*
X109010930Y-88616568D01*
X109045024Y-88594258D01*
X109049894Y-88590287D01*
X109275461Y-88403682D01*
X109304220Y-88374722D01*
X109333340Y-88346206D01*
X109337340Y-88341370D01*
X109337345Y-88341365D01*
X109337349Y-88341360D01*
X109522371Y-88114500D01*
X109544947Y-88080521D01*
X109567984Y-88046876D01*
X109570969Y-88041354D01*
X109570972Y-88041350D01*
X109570974Y-88041346D01*
X109708409Y-87782868D01*
X109723957Y-87745146D01*
X109740019Y-87707673D01*
X109741877Y-87701671D01*
X109826491Y-87421417D01*
X109834418Y-87381383D01*
X109842892Y-87341513D01*
X109843549Y-87335264D01*
X109872116Y-87043912D01*
X109872116Y-87025040D01*
X109874220Y-87006283D01*
X109874264Y-87000000D01*
X109874264Y-84858858D01*
X118223344Y-84858858D01*
X118248125Y-84993880D01*
X118298660Y-85121517D01*
X118373024Y-85236907D01*
X118468385Y-85335656D01*
X118581110Y-85414002D01*
X118706905Y-85468961D01*
X118840980Y-85498439D01*
X118978227Y-85501314D01*
X119113419Y-85477476D01*
X119241405Y-85427833D01*
X119357312Y-85354277D01*
X119456724Y-85259608D01*
X119535855Y-85147432D01*
X119591691Y-85022023D01*
X119622105Y-84888158D01*
X119624294Y-84731361D01*
X119597630Y-84596699D01*
X119545318Y-84469780D01*
X119469350Y-84355439D01*
X119372620Y-84258031D01*
X119258812Y-84181267D01*
X119132261Y-84128070D01*
X118997788Y-84100466D01*
X118860514Y-84099508D01*
X118725669Y-84125231D01*
X118598388Y-84176656D01*
X118483519Y-84251824D01*
X118385438Y-84347872D01*
X118307881Y-84461141D01*
X118253802Y-84587317D01*
X118225261Y-84721594D01*
X118223344Y-84858858D01*
X109874264Y-84858858D01*
X109874264Y-83808858D01*
X117123344Y-83808858D01*
X117148125Y-83943880D01*
X117198660Y-84071517D01*
X117273024Y-84186907D01*
X117368385Y-84285656D01*
X117481110Y-84364002D01*
X117606905Y-84418961D01*
X117740980Y-84448439D01*
X117878227Y-84451314D01*
X118013419Y-84427476D01*
X118141405Y-84377833D01*
X118257312Y-84304277D01*
X118356724Y-84209608D01*
X118435855Y-84097432D01*
X118491691Y-83972023D01*
X118522105Y-83838158D01*
X118524294Y-83681361D01*
X118500038Y-83558858D01*
X120623344Y-83558858D01*
X120648125Y-83693880D01*
X120698660Y-83821517D01*
X120773024Y-83936907D01*
X120868385Y-84035656D01*
X120981110Y-84114002D01*
X121106905Y-84168961D01*
X121240980Y-84198439D01*
X121378227Y-84201314D01*
X121513419Y-84177476D01*
X121641405Y-84127833D01*
X121757312Y-84054277D01*
X121856724Y-83959608D01*
X121935855Y-83847432D01*
X121991691Y-83722023D01*
X122022105Y-83588158D01*
X122024294Y-83431361D01*
X121997630Y-83296699D01*
X121945318Y-83169780D01*
X121869350Y-83055439D01*
X121772620Y-82958031D01*
X121658812Y-82881267D01*
X121532261Y-82828070D01*
X121397788Y-82800466D01*
X121260514Y-82799508D01*
X121125669Y-82825231D01*
X120998388Y-82876656D01*
X120883519Y-82951824D01*
X120785438Y-83047872D01*
X120707881Y-83161141D01*
X120653802Y-83287317D01*
X120625261Y-83421594D01*
X120623344Y-83558858D01*
X118500038Y-83558858D01*
X118497630Y-83546699D01*
X118445318Y-83419780D01*
X118369350Y-83305439D01*
X118272620Y-83208031D01*
X118158812Y-83131267D01*
X118032261Y-83078070D01*
X117897788Y-83050466D01*
X117760514Y-83049508D01*
X117625669Y-83075231D01*
X117498388Y-83126656D01*
X117383519Y-83201824D01*
X117285438Y-83297872D01*
X117207881Y-83411141D01*
X117153802Y-83537317D01*
X117125261Y-83671594D01*
X117123344Y-83808858D01*
X109874264Y-83808858D01*
X109874264Y-82058858D01*
X119923344Y-82058858D01*
X119948125Y-82193880D01*
X119998660Y-82321517D01*
X120073024Y-82436907D01*
X120168385Y-82535656D01*
X120281110Y-82614002D01*
X120406905Y-82668961D01*
X120540980Y-82698439D01*
X120678227Y-82701314D01*
X120813419Y-82677476D01*
X120941405Y-82627833D01*
X121057312Y-82554277D01*
X121156724Y-82459608D01*
X121235855Y-82347432D01*
X121291691Y-82222023D01*
X121322105Y-82088158D01*
X121324294Y-81931361D01*
X121297630Y-81796699D01*
X121282034Y-81758858D01*
X124523344Y-81758858D01*
X124548125Y-81893880D01*
X124598660Y-82021517D01*
X124673024Y-82136907D01*
X124768385Y-82235656D01*
X124881110Y-82314002D01*
X125006905Y-82368961D01*
X125140980Y-82398439D01*
X125278227Y-82401314D01*
X125413419Y-82377476D01*
X125541405Y-82327833D01*
X125657312Y-82254277D01*
X125756724Y-82159608D01*
X125835855Y-82047432D01*
X125891691Y-81922023D01*
X125922105Y-81788158D01*
X125924294Y-81631361D01*
X125897630Y-81496699D01*
X125845318Y-81369780D01*
X125769350Y-81255439D01*
X125672620Y-81158031D01*
X125558812Y-81081267D01*
X125505503Y-81058858D01*
X126523344Y-81058858D01*
X126548125Y-81193880D01*
X126598660Y-81321517D01*
X126673024Y-81436907D01*
X126768385Y-81535656D01*
X126881110Y-81614002D01*
X127006905Y-81668961D01*
X127140980Y-81698439D01*
X127278227Y-81701314D01*
X127413419Y-81677476D01*
X127541405Y-81627833D01*
X127657312Y-81554277D01*
X127756724Y-81459608D01*
X127835855Y-81347432D01*
X127891691Y-81222023D01*
X127922105Y-81088158D01*
X127924294Y-80931361D01*
X127897630Y-80796699D01*
X127845318Y-80669780D01*
X127769350Y-80555439D01*
X127672620Y-80458031D01*
X127558812Y-80381267D01*
X127432261Y-80328070D01*
X127297788Y-80300466D01*
X127160514Y-80299508D01*
X127025669Y-80325231D01*
X126898388Y-80376656D01*
X126783519Y-80451824D01*
X126685438Y-80547872D01*
X126607881Y-80661141D01*
X126553802Y-80787317D01*
X126525261Y-80921594D01*
X126523344Y-81058858D01*
X125505503Y-81058858D01*
X125432261Y-81028070D01*
X125297788Y-81000466D01*
X125160514Y-80999508D01*
X125025669Y-81025231D01*
X124898388Y-81076656D01*
X124783519Y-81151824D01*
X124685438Y-81247872D01*
X124607881Y-81361141D01*
X124553802Y-81487317D01*
X124525261Y-81621594D01*
X124523344Y-81758858D01*
X121282034Y-81758858D01*
X121245318Y-81669780D01*
X121169350Y-81555439D01*
X121072620Y-81458031D01*
X120958812Y-81381267D01*
X120832261Y-81328070D01*
X120697788Y-81300466D01*
X120560514Y-81299508D01*
X120425669Y-81325231D01*
X120298388Y-81376656D01*
X120183519Y-81451824D01*
X120085438Y-81547872D01*
X120007881Y-81661141D01*
X119953802Y-81787317D01*
X119925261Y-81921594D01*
X119923344Y-82058858D01*
X109874264Y-82058858D01*
X109874264Y-79604442D01*
X117723344Y-79604442D01*
X117748125Y-79739464D01*
X117798660Y-79867101D01*
X117873024Y-79982491D01*
X117968385Y-80081240D01*
X118081110Y-80159586D01*
X118206905Y-80214545D01*
X118340980Y-80244023D01*
X118478227Y-80246898D01*
X118613419Y-80223060D01*
X118741405Y-80173417D01*
X118857312Y-80099861D01*
X118956724Y-80005192D01*
X119035855Y-79893016D01*
X119091691Y-79767607D01*
X119122105Y-79633742D01*
X119124294Y-79476945D01*
X119097630Y-79342283D01*
X119045318Y-79215364D01*
X118969350Y-79101023D01*
X118872620Y-79003615D01*
X118758812Y-78926851D01*
X118632261Y-78873654D01*
X118497788Y-78846050D01*
X118360514Y-78845092D01*
X118225669Y-78870815D01*
X118098388Y-78922240D01*
X117983519Y-78997408D01*
X117885438Y-79093456D01*
X117807881Y-79206725D01*
X117753802Y-79332901D01*
X117725261Y-79467178D01*
X117723344Y-79604442D01*
X109874264Y-79604442D01*
X109874264Y-78558858D01*
X111723344Y-78558858D01*
X111748125Y-78693880D01*
X111798660Y-78821517D01*
X111873024Y-78936907D01*
X111968385Y-79035656D01*
X112081110Y-79114002D01*
X112206905Y-79168961D01*
X112340980Y-79198439D01*
X112478227Y-79201314D01*
X112613419Y-79177476D01*
X112741405Y-79127833D01*
X112857312Y-79054277D01*
X112956724Y-78959608D01*
X113035855Y-78847432D01*
X113091691Y-78722023D01*
X113122105Y-78588158D01*
X113124294Y-78431361D01*
X113104551Y-78331650D01*
X116450552Y-78331650D01*
X116475333Y-78466672D01*
X116525868Y-78594309D01*
X116600232Y-78709699D01*
X116695593Y-78808448D01*
X116808318Y-78886794D01*
X116934113Y-78941753D01*
X117068188Y-78971231D01*
X117205435Y-78974106D01*
X117340627Y-78950268D01*
X117468613Y-78900625D01*
X117584520Y-78827069D01*
X117683932Y-78732400D01*
X117763063Y-78620224D01*
X117818899Y-78494815D01*
X117849313Y-78360950D01*
X117849722Y-78331650D01*
X118996136Y-78331650D01*
X119020917Y-78466672D01*
X119071452Y-78594309D01*
X119145816Y-78709699D01*
X119241177Y-78808448D01*
X119353902Y-78886794D01*
X119479697Y-78941753D01*
X119613772Y-78971231D01*
X119751019Y-78974106D01*
X119886211Y-78950268D01*
X120014197Y-78900625D01*
X120130104Y-78827069D01*
X120229516Y-78732400D01*
X120308647Y-78620224D01*
X120335969Y-78558858D01*
X123123344Y-78558858D01*
X123148125Y-78693880D01*
X123198660Y-78821517D01*
X123273024Y-78936907D01*
X123368385Y-79035656D01*
X123481110Y-79114002D01*
X123606905Y-79168961D01*
X123740980Y-79198439D01*
X123878227Y-79201314D01*
X124013419Y-79177476D01*
X124141405Y-79127833D01*
X124257312Y-79054277D01*
X124324542Y-78990255D01*
X124368385Y-79035656D01*
X124481110Y-79114002D01*
X124606905Y-79168961D01*
X124740980Y-79198439D01*
X124878227Y-79201314D01*
X125013419Y-79177476D01*
X125141405Y-79127833D01*
X125257312Y-79054277D01*
X125356724Y-78959608D01*
X125372887Y-78936695D01*
X125373024Y-78936907D01*
X125468385Y-79035656D01*
X125581110Y-79114002D01*
X125706905Y-79168961D01*
X125840980Y-79198439D01*
X125978227Y-79201314D01*
X126113419Y-79177476D01*
X126241405Y-79127833D01*
X126357312Y-79054277D01*
X126456724Y-78959608D01*
X126535855Y-78847432D01*
X126591691Y-78722023D01*
X126622105Y-78588158D01*
X126624294Y-78431361D01*
X126597630Y-78296699D01*
X126545318Y-78169780D01*
X126469350Y-78055439D01*
X126372620Y-77958031D01*
X126258812Y-77881267D01*
X126132261Y-77828070D01*
X125997788Y-77800466D01*
X125860514Y-77799508D01*
X125725669Y-77825231D01*
X125598388Y-77876656D01*
X125483519Y-77951824D01*
X125385438Y-78047872D01*
X125374721Y-78063523D01*
X125369350Y-78055439D01*
X125272620Y-77958031D01*
X125158812Y-77881267D01*
X125032261Y-77828070D01*
X124897788Y-77800466D01*
X124760514Y-77799508D01*
X124625669Y-77825231D01*
X124498388Y-77876656D01*
X124383519Y-77951824D01*
X124324170Y-78009943D01*
X124272620Y-77958031D01*
X124158812Y-77881267D01*
X124032261Y-77828070D01*
X123897788Y-77800466D01*
X123760514Y-77799508D01*
X123625669Y-77825231D01*
X123498388Y-77876656D01*
X123383519Y-77951824D01*
X123285438Y-78047872D01*
X123207881Y-78161141D01*
X123153802Y-78287317D01*
X123125261Y-78421594D01*
X123123344Y-78558858D01*
X120335969Y-78558858D01*
X120364483Y-78494815D01*
X120394897Y-78360950D01*
X120397086Y-78204153D01*
X120370422Y-78069491D01*
X120318110Y-77942572D01*
X120242142Y-77828231D01*
X120145412Y-77730823D01*
X120031604Y-77654059D01*
X119905053Y-77600862D01*
X119770580Y-77573258D01*
X119633306Y-77572300D01*
X119498461Y-77598023D01*
X119371180Y-77649448D01*
X119256311Y-77724616D01*
X119158230Y-77820664D01*
X119080673Y-77933933D01*
X119026594Y-78060109D01*
X118998053Y-78194386D01*
X118996136Y-78331650D01*
X117849722Y-78331650D01*
X117851502Y-78204153D01*
X117824838Y-78069491D01*
X117772526Y-77942572D01*
X117696558Y-77828231D01*
X117599828Y-77730823D01*
X117486020Y-77654059D01*
X117359469Y-77600862D01*
X117224996Y-77573258D01*
X117087722Y-77572300D01*
X116952877Y-77598023D01*
X116825596Y-77649448D01*
X116710727Y-77724616D01*
X116612646Y-77820664D01*
X116535089Y-77933933D01*
X116481010Y-78060109D01*
X116452469Y-78194386D01*
X116450552Y-78331650D01*
X113104551Y-78331650D01*
X113097630Y-78296699D01*
X113045318Y-78169780D01*
X112969350Y-78055439D01*
X112872620Y-77958031D01*
X112758812Y-77881267D01*
X112632261Y-77828070D01*
X112497788Y-77800466D01*
X112360514Y-77799508D01*
X112225669Y-77825231D01*
X112098388Y-77876656D01*
X111983519Y-77951824D01*
X111885438Y-78047872D01*
X111807881Y-78161141D01*
X111753802Y-78287317D01*
X111725261Y-78421594D01*
X111723344Y-78558858D01*
X109874264Y-78558858D01*
X109874264Y-77058858D01*
X115177760Y-77058858D01*
X115202541Y-77193880D01*
X115253076Y-77321517D01*
X115327440Y-77436907D01*
X115422801Y-77535656D01*
X115535526Y-77614002D01*
X115661321Y-77668961D01*
X115795396Y-77698439D01*
X115932643Y-77701314D01*
X116067835Y-77677476D01*
X116195821Y-77627833D01*
X116311728Y-77554277D01*
X116411140Y-77459608D01*
X116490271Y-77347432D01*
X116546107Y-77222023D01*
X116576521Y-77088158D01*
X116576930Y-77058858D01*
X117723344Y-77058858D01*
X117748125Y-77193880D01*
X117798660Y-77321517D01*
X117873024Y-77436907D01*
X117968385Y-77535656D01*
X118081110Y-77614002D01*
X118206905Y-77668961D01*
X118340980Y-77698439D01*
X118478227Y-77701314D01*
X118613419Y-77677476D01*
X118741405Y-77627833D01*
X118857312Y-77554277D01*
X118956724Y-77459608D01*
X119035855Y-77347432D01*
X119091691Y-77222023D01*
X119122105Y-77088158D01*
X119122514Y-77058858D01*
X120268928Y-77058858D01*
X120293709Y-77193880D01*
X120344244Y-77321517D01*
X120418608Y-77436907D01*
X120513969Y-77535656D01*
X120626694Y-77614002D01*
X120752489Y-77668961D01*
X120886564Y-77698439D01*
X121023811Y-77701314D01*
X121159003Y-77677476D01*
X121286989Y-77627833D01*
X121402896Y-77554277D01*
X121502308Y-77459608D01*
X121581439Y-77347432D01*
X121637275Y-77222023D01*
X121667689Y-77088158D01*
X121669878Y-76931361D01*
X121643214Y-76796699D01*
X121590902Y-76669780D01*
X121514934Y-76555439D01*
X121418204Y-76458031D01*
X121304396Y-76381267D01*
X121177845Y-76328070D01*
X121043372Y-76300466D01*
X120906098Y-76299508D01*
X120771253Y-76325231D01*
X120643972Y-76376656D01*
X120529103Y-76451824D01*
X120431022Y-76547872D01*
X120353465Y-76661141D01*
X120299386Y-76787317D01*
X120270845Y-76921594D01*
X120268928Y-77058858D01*
X119122514Y-77058858D01*
X119124294Y-76931361D01*
X119097630Y-76796699D01*
X119045318Y-76669780D01*
X118969350Y-76555439D01*
X118872620Y-76458031D01*
X118758812Y-76381267D01*
X118632261Y-76328070D01*
X118497788Y-76300466D01*
X118360514Y-76299508D01*
X118225669Y-76325231D01*
X118098388Y-76376656D01*
X117983519Y-76451824D01*
X117885438Y-76547872D01*
X117807881Y-76661141D01*
X117753802Y-76787317D01*
X117725261Y-76921594D01*
X117723344Y-77058858D01*
X116576930Y-77058858D01*
X116578710Y-76931361D01*
X116552046Y-76796699D01*
X116499734Y-76669780D01*
X116423766Y-76555439D01*
X116327036Y-76458031D01*
X116213228Y-76381267D01*
X116086677Y-76328070D01*
X115952204Y-76300466D01*
X115814930Y-76299508D01*
X115680085Y-76325231D01*
X115552804Y-76376656D01*
X115437935Y-76451824D01*
X115339854Y-76547872D01*
X115262297Y-76661141D01*
X115208218Y-76787317D01*
X115179677Y-76921594D01*
X115177760Y-77058858D01*
X109874264Y-77058858D01*
X109874264Y-75786066D01*
X116450552Y-75786066D01*
X116475333Y-75921088D01*
X116525868Y-76048725D01*
X116600232Y-76164115D01*
X116695593Y-76262864D01*
X116808318Y-76341210D01*
X116934113Y-76396169D01*
X117068188Y-76425647D01*
X117205435Y-76428522D01*
X117340627Y-76404684D01*
X117468613Y-76355041D01*
X117584520Y-76281485D01*
X117683932Y-76186816D01*
X117763063Y-76074640D01*
X117818899Y-75949231D01*
X117849313Y-75815366D01*
X117849722Y-75786066D01*
X118996136Y-75786066D01*
X119020917Y-75921088D01*
X119071452Y-76048725D01*
X119145816Y-76164115D01*
X119241177Y-76262864D01*
X119353902Y-76341210D01*
X119479697Y-76396169D01*
X119613772Y-76425647D01*
X119751019Y-76428522D01*
X119886211Y-76404684D01*
X120014197Y-76355041D01*
X120130104Y-76281485D01*
X120229516Y-76186816D01*
X120308647Y-76074640D01*
X120364483Y-75949231D01*
X120394897Y-75815366D01*
X120397086Y-75658569D01*
X120370422Y-75523907D01*
X120318110Y-75396988D01*
X120242142Y-75282647D01*
X120145412Y-75185239D01*
X120031604Y-75108475D01*
X119905053Y-75055278D01*
X119770580Y-75027674D01*
X119633306Y-75026716D01*
X119498461Y-75052439D01*
X119371180Y-75103864D01*
X119256311Y-75179032D01*
X119158230Y-75275080D01*
X119080673Y-75388349D01*
X119026594Y-75514525D01*
X118998053Y-75648802D01*
X118996136Y-75786066D01*
X117849722Y-75786066D01*
X117851502Y-75658569D01*
X117824838Y-75523907D01*
X117772526Y-75396988D01*
X117696558Y-75282647D01*
X117599828Y-75185239D01*
X117486020Y-75108475D01*
X117359469Y-75055278D01*
X117224996Y-75027674D01*
X117087722Y-75026716D01*
X116952877Y-75052439D01*
X116825596Y-75103864D01*
X116710727Y-75179032D01*
X116612646Y-75275080D01*
X116535089Y-75388349D01*
X116481010Y-75514525D01*
X116452469Y-75648802D01*
X116450552Y-75786066D01*
X109874264Y-75786066D01*
X109874264Y-74513274D01*
X117723344Y-74513274D01*
X117748125Y-74648296D01*
X117798660Y-74775933D01*
X117873024Y-74891323D01*
X117968385Y-74990072D01*
X118081110Y-75068418D01*
X118206905Y-75123377D01*
X118340980Y-75152855D01*
X118478227Y-75155730D01*
X118613419Y-75131892D01*
X118741405Y-75082249D01*
X118857312Y-75008693D01*
X118956724Y-74914024D01*
X119035855Y-74801848D01*
X119091691Y-74676439D01*
X119122105Y-74542574D01*
X119124294Y-74385777D01*
X119097630Y-74251115D01*
X119045318Y-74124196D01*
X118969350Y-74009855D01*
X118918708Y-73958858D01*
X124623344Y-73958858D01*
X124648125Y-74093880D01*
X124698660Y-74221517D01*
X124773024Y-74336907D01*
X124868385Y-74435656D01*
X124981110Y-74514002D01*
X125106905Y-74568961D01*
X125240980Y-74598439D01*
X125378227Y-74601314D01*
X125513419Y-74577476D01*
X125641405Y-74527833D01*
X125757312Y-74454277D01*
X125856724Y-74359608D01*
X125935855Y-74247432D01*
X125991691Y-74122023D01*
X126022105Y-73988158D01*
X126024294Y-73831361D01*
X125997630Y-73696699D01*
X125945318Y-73569780D01*
X125869350Y-73455439D01*
X125772620Y-73358031D01*
X125658812Y-73281267D01*
X125532261Y-73228070D01*
X125397788Y-73200466D01*
X125260514Y-73199508D01*
X125125669Y-73225231D01*
X124998388Y-73276656D01*
X124883519Y-73351824D01*
X124785438Y-73447872D01*
X124707881Y-73561141D01*
X124653802Y-73687317D01*
X124625261Y-73821594D01*
X124623344Y-73958858D01*
X118918708Y-73958858D01*
X118872620Y-73912447D01*
X118758812Y-73835683D01*
X118632261Y-73782486D01*
X118497788Y-73754882D01*
X118360514Y-73753924D01*
X118225669Y-73779647D01*
X118098388Y-73831072D01*
X117983519Y-73906240D01*
X117885438Y-74002288D01*
X117807881Y-74115557D01*
X117753802Y-74241733D01*
X117725261Y-74376010D01*
X117723344Y-74513274D01*
X109874264Y-74513274D01*
X109874264Y-72158858D01*
X111123344Y-72158858D01*
X111148125Y-72293880D01*
X111198660Y-72421517D01*
X111273024Y-72536907D01*
X111368385Y-72635656D01*
X111481110Y-72714002D01*
X111606905Y-72768961D01*
X111740980Y-72798439D01*
X111878227Y-72801314D01*
X112013419Y-72777476D01*
X112141405Y-72727833D01*
X112257312Y-72654277D01*
X112356724Y-72559608D01*
X112435855Y-72447432D01*
X112491691Y-72322023D01*
X112522105Y-72188158D01*
X112524294Y-72031361D01*
X112497630Y-71896699D01*
X112445318Y-71769780D01*
X112369350Y-71655439D01*
X112272620Y-71558031D01*
X112158812Y-71481267D01*
X112032261Y-71428070D01*
X111897788Y-71400466D01*
X111760514Y-71399508D01*
X111625669Y-71425231D01*
X111498388Y-71476656D01*
X111383519Y-71551824D01*
X111285438Y-71647872D01*
X111207881Y-71761141D01*
X111153802Y-71887317D01*
X111125261Y-72021594D01*
X111123344Y-72158858D01*
X109874264Y-72158858D01*
X109874264Y-71258858D01*
X113723344Y-71258858D01*
X113748125Y-71393880D01*
X113798660Y-71521517D01*
X113873024Y-71636907D01*
X113968385Y-71735656D01*
X114081110Y-71814002D01*
X114206905Y-71868961D01*
X114340980Y-71898439D01*
X114478227Y-71901314D01*
X114613419Y-71877476D01*
X114661418Y-71858858D01*
X118123344Y-71858858D01*
X118148125Y-71993880D01*
X118198660Y-72121517D01*
X118273024Y-72236907D01*
X118368385Y-72335656D01*
X118481110Y-72414002D01*
X118606905Y-72468961D01*
X118740980Y-72498439D01*
X118878227Y-72501314D01*
X119013419Y-72477476D01*
X119141405Y-72427833D01*
X119257312Y-72354277D01*
X119356724Y-72259608D01*
X119435855Y-72147432D01*
X119491691Y-72022023D01*
X119522105Y-71888158D01*
X119523910Y-71758858D01*
X125223344Y-71758858D01*
X125248125Y-71893880D01*
X125298660Y-72021517D01*
X125373024Y-72136907D01*
X125468385Y-72235656D01*
X125581110Y-72314002D01*
X125706905Y-72368961D01*
X125840980Y-72398439D01*
X125978227Y-72401314D01*
X126113419Y-72377476D01*
X126241405Y-72327833D01*
X126357312Y-72254277D01*
X126456724Y-72159608D01*
X126535855Y-72047432D01*
X126591691Y-71922023D01*
X126622105Y-71788158D01*
X126624294Y-71631361D01*
X126597630Y-71496699D01*
X126545318Y-71369780D01*
X126469350Y-71255439D01*
X126372620Y-71158031D01*
X126258812Y-71081267D01*
X126132261Y-71028070D01*
X125997788Y-71000466D01*
X125860514Y-70999508D01*
X125725669Y-71025231D01*
X125598388Y-71076656D01*
X125483519Y-71151824D01*
X125385438Y-71247872D01*
X125307881Y-71361141D01*
X125253802Y-71487317D01*
X125225261Y-71621594D01*
X125223344Y-71758858D01*
X119523910Y-71758858D01*
X119524294Y-71731361D01*
X119497630Y-71596699D01*
X119445318Y-71469780D01*
X119369350Y-71355439D01*
X119272620Y-71258031D01*
X119158812Y-71181267D01*
X119032261Y-71128070D01*
X118897788Y-71100466D01*
X118760514Y-71099508D01*
X118625669Y-71125231D01*
X118498388Y-71176656D01*
X118383519Y-71251824D01*
X118285438Y-71347872D01*
X118207881Y-71461141D01*
X118153802Y-71587317D01*
X118125261Y-71721594D01*
X118123344Y-71858858D01*
X114661418Y-71858858D01*
X114741405Y-71827833D01*
X114857312Y-71754277D01*
X114956724Y-71659608D01*
X115035855Y-71547432D01*
X115091691Y-71422023D01*
X115122105Y-71288158D01*
X115124294Y-71131361D01*
X115097630Y-70996699D01*
X115045318Y-70869780D01*
X114969350Y-70755439D01*
X114872620Y-70658031D01*
X114758812Y-70581267D01*
X114632261Y-70528070D01*
X114497788Y-70500466D01*
X114360514Y-70499508D01*
X114225669Y-70525231D01*
X114098388Y-70576656D01*
X113983519Y-70651824D01*
X113885438Y-70747872D01*
X113807881Y-70861141D01*
X113753802Y-70987317D01*
X113725261Y-71121594D01*
X113723344Y-71258858D01*
X109874264Y-71258858D01*
X109874264Y-70155300D01*
X125329274Y-70155300D01*
X125354055Y-70290322D01*
X125404590Y-70417959D01*
X125478954Y-70533349D01*
X125574315Y-70632098D01*
X125687040Y-70710444D01*
X125812835Y-70765403D01*
X125946910Y-70794881D01*
X126084157Y-70797756D01*
X126219349Y-70773918D01*
X126347335Y-70724275D01*
X126463242Y-70650719D01*
X126562654Y-70556050D01*
X126641785Y-70443874D01*
X126697621Y-70318465D01*
X126728035Y-70184600D01*
X126730224Y-70027803D01*
X126703560Y-69893141D01*
X126651248Y-69766222D01*
X126575280Y-69651881D01*
X126478550Y-69554473D01*
X126364742Y-69477709D01*
X126238191Y-69424512D01*
X126103718Y-69396908D01*
X125966444Y-69395950D01*
X125831599Y-69421673D01*
X125704318Y-69473098D01*
X125589449Y-69548266D01*
X125491368Y-69644314D01*
X125413811Y-69757583D01*
X125359732Y-69883759D01*
X125331191Y-70018036D01*
X125329274Y-70155300D01*
X109874264Y-70155300D01*
X109874264Y-68558858D01*
X113723344Y-68558858D01*
X113748125Y-68693880D01*
X113798660Y-68821517D01*
X113873024Y-68936907D01*
X113968385Y-69035656D01*
X114081110Y-69114002D01*
X114206905Y-69168961D01*
X114340980Y-69198439D01*
X114478227Y-69201314D01*
X114613419Y-69177476D01*
X114741405Y-69127833D01*
X114857312Y-69054277D01*
X114956724Y-68959608D01*
X115035855Y-68847432D01*
X115091691Y-68722023D01*
X115122105Y-68588158D01*
X115124294Y-68431361D01*
X115097630Y-68296699D01*
X115045318Y-68169780D01*
X114969350Y-68055439D01*
X114872620Y-67958031D01*
X114758812Y-67881267D01*
X114632261Y-67828070D01*
X114497788Y-67800466D01*
X114360514Y-67799508D01*
X114225669Y-67825231D01*
X114098388Y-67876656D01*
X113983519Y-67951824D01*
X113885438Y-68047872D01*
X113807881Y-68161141D01*
X113753802Y-68287317D01*
X113725261Y-68421594D01*
X113723344Y-68558858D01*
X109874264Y-68558858D01*
X109874264Y-67458858D01*
X119223344Y-67458858D01*
X119248125Y-67593880D01*
X119298660Y-67721517D01*
X119373024Y-67836907D01*
X119468385Y-67935656D01*
X119581110Y-68014002D01*
X119706905Y-68068961D01*
X119840980Y-68098439D01*
X119978227Y-68101314D01*
X120113419Y-68077476D01*
X120241405Y-68027833D01*
X120357312Y-67954277D01*
X120456724Y-67859608D01*
X120535855Y-67747432D01*
X120591691Y-67622023D01*
X120622105Y-67488158D01*
X120624294Y-67331361D01*
X120597630Y-67196699D01*
X120545318Y-67069780D01*
X120469350Y-66955439D01*
X120373442Y-66858858D01*
X123323344Y-66858858D01*
X123348125Y-66993880D01*
X123398660Y-67121517D01*
X123473024Y-67236907D01*
X123568385Y-67335656D01*
X123681110Y-67414002D01*
X123806905Y-67468961D01*
X123940980Y-67498439D01*
X124078227Y-67501314D01*
X124213419Y-67477476D01*
X124341405Y-67427833D01*
X124457312Y-67354277D01*
X124556724Y-67259608D01*
X124635855Y-67147432D01*
X124691691Y-67022023D01*
X124722105Y-66888158D01*
X124724294Y-66731361D01*
X124697630Y-66596699D01*
X124645318Y-66469780D01*
X124569350Y-66355439D01*
X124472620Y-66258031D01*
X124358812Y-66181267D01*
X124232261Y-66128070D01*
X124097788Y-66100466D01*
X123960514Y-66099508D01*
X123825669Y-66125231D01*
X123698388Y-66176656D01*
X123583519Y-66251824D01*
X123485438Y-66347872D01*
X123407881Y-66461141D01*
X123353802Y-66587317D01*
X123325261Y-66721594D01*
X123323344Y-66858858D01*
X120373442Y-66858858D01*
X120372620Y-66858031D01*
X120258812Y-66781267D01*
X120132261Y-66728070D01*
X119997788Y-66700466D01*
X119860514Y-66699508D01*
X119725669Y-66725231D01*
X119598388Y-66776656D01*
X119483519Y-66851824D01*
X119385438Y-66947872D01*
X119307881Y-67061141D01*
X119253802Y-67187317D01*
X119225261Y-67321594D01*
X119223344Y-67458858D01*
X109874264Y-67458858D01*
X109874264Y-65058858D01*
X113723344Y-65058858D01*
X113748125Y-65193880D01*
X113798660Y-65321517D01*
X113873024Y-65436907D01*
X113968385Y-65535656D01*
X114081110Y-65614002D01*
X114206905Y-65668961D01*
X114340980Y-65698439D01*
X114478227Y-65701314D01*
X114613419Y-65677476D01*
X114741405Y-65627833D01*
X114857312Y-65554277D01*
X114956724Y-65459608D01*
X115035855Y-65347432D01*
X115091691Y-65222023D01*
X115122105Y-65088158D01*
X115124294Y-64931361D01*
X115097630Y-64796699D01*
X115045318Y-64669780D01*
X114969350Y-64555439D01*
X114872620Y-64458031D01*
X114758812Y-64381267D01*
X114632261Y-64328070D01*
X114497788Y-64300466D01*
X114360514Y-64299508D01*
X114225669Y-64325231D01*
X114098388Y-64376656D01*
X113983519Y-64451824D01*
X113885438Y-64547872D01*
X113807881Y-64661141D01*
X113753802Y-64787317D01*
X113725261Y-64921594D01*
X113723344Y-65058858D01*
X109874264Y-65058858D01*
X109874264Y-62458858D01*
X117923344Y-62458858D01*
X117948125Y-62593880D01*
X117998660Y-62721517D01*
X118073024Y-62836907D01*
X118168385Y-62935656D01*
X118281110Y-63014002D01*
X118406905Y-63068961D01*
X118540980Y-63098439D01*
X118678227Y-63101314D01*
X118813419Y-63077476D01*
X118941405Y-63027833D01*
X119057312Y-62954277D01*
X119156724Y-62859608D01*
X119235855Y-62747432D01*
X119291691Y-62622023D01*
X119322105Y-62488158D01*
X119324294Y-62331361D01*
X119297630Y-62196699D01*
X119245318Y-62069780D01*
X119169350Y-61955439D01*
X119072620Y-61858031D01*
X118958812Y-61781267D01*
X118832261Y-61728070D01*
X118697788Y-61700466D01*
X118560514Y-61699508D01*
X118425669Y-61725231D01*
X118298388Y-61776656D01*
X118183519Y-61851824D01*
X118085438Y-61947872D01*
X118007881Y-62061141D01*
X117953802Y-62187317D01*
X117925261Y-62321594D01*
X117923344Y-62458858D01*
X109874264Y-62458858D01*
X109874264Y-61558858D01*
X113723344Y-61558858D01*
X113748125Y-61693880D01*
X113798660Y-61821517D01*
X113873024Y-61936907D01*
X113968385Y-62035656D01*
X114081110Y-62114002D01*
X114206905Y-62168961D01*
X114340980Y-62198439D01*
X114478227Y-62201314D01*
X114613419Y-62177476D01*
X114741405Y-62127833D01*
X114857312Y-62054277D01*
X114956724Y-61959608D01*
X115035855Y-61847432D01*
X115091691Y-61722023D01*
X115122105Y-61588158D01*
X115124294Y-61431361D01*
X115097630Y-61296699D01*
X115045318Y-61169780D01*
X114969350Y-61055439D01*
X114872620Y-60958031D01*
X114758812Y-60881267D01*
X114632261Y-60828070D01*
X114497788Y-60800466D01*
X114360514Y-60799508D01*
X114225669Y-60825231D01*
X114098388Y-60876656D01*
X113983519Y-60951824D01*
X113885438Y-61047872D01*
X113807881Y-61161141D01*
X113753802Y-61287317D01*
X113725261Y-61421594D01*
X113723344Y-61558858D01*
X109874264Y-61558858D01*
X109874264Y-56522005D01*
X109896377Y-56296477D01*
X109955487Y-56100694D01*
X110051493Y-55920135D01*
X110180745Y-55761656D01*
X110338320Y-55631299D01*
X110518209Y-55534033D01*
X110713563Y-55473560D01*
X110937728Y-55450000D01*
X116662132Y-55450000D01*
X128274264Y-67062132D01*
X128274264Y-67062132D01*
G37*
X128274264Y-67062132D02*
X128274264Y-73116165D01*
X128197788Y-73100466D01*
X128060514Y-73099508D01*
X127925669Y-73125231D01*
X127798388Y-73176656D01*
X127683519Y-73251824D01*
X127585438Y-73347872D01*
X127507881Y-73461141D01*
X127453802Y-73587317D01*
X127425261Y-73721594D01*
X127423344Y-73858858D01*
X127437155Y-73934110D01*
X127358812Y-73881267D01*
X127232261Y-73828070D01*
X127097788Y-73800466D01*
X126960514Y-73799508D01*
X126825669Y-73825231D01*
X126698388Y-73876656D01*
X126583519Y-73951824D01*
X126485438Y-74047872D01*
X126407881Y-74161141D01*
X126353802Y-74287317D01*
X126328664Y-74405584D01*
X126225669Y-74425231D01*
X126098388Y-74476656D01*
X125983519Y-74551824D01*
X125885438Y-74647872D01*
X125807881Y-74761141D01*
X125753802Y-74887317D01*
X125725261Y-75021594D01*
X125723344Y-75158858D01*
X125748125Y-75293880D01*
X125798660Y-75421517D01*
X125873024Y-75536907D01*
X125968385Y-75635656D01*
X126081110Y-75714002D01*
X126206905Y-75768961D01*
X126340980Y-75798439D01*
X126478227Y-75801314D01*
X126613419Y-75777476D01*
X126741405Y-75727833D01*
X126857312Y-75654277D01*
X126956724Y-75559608D01*
X127035855Y-75447432D01*
X127091691Y-75322023D01*
X127120822Y-75193803D01*
X127213419Y-75177476D01*
X127341405Y-75127833D01*
X127457312Y-75054277D01*
X127556724Y-74959608D01*
X127635855Y-74847432D01*
X127691691Y-74722023D01*
X127722105Y-74588158D01*
X127724294Y-74431361D01*
X127711242Y-74365442D01*
X127781110Y-74414002D01*
X127906905Y-74468961D01*
X128040980Y-74498439D01*
X128178227Y-74501314D01*
X128274264Y-74484380D01*
X128274264Y-78292442D01*
X128183519Y-78351824D01*
X128085438Y-78447872D01*
X128007881Y-78561141D01*
X127953802Y-78687317D01*
X127925261Y-78821594D01*
X127923344Y-78958858D01*
X127948125Y-79093880D01*
X127998660Y-79221517D01*
X128073024Y-79336907D01*
X128168385Y-79435656D01*
X128281110Y-79514002D01*
X128406905Y-79568961D01*
X128540980Y-79598439D01*
X128678227Y-79601314D01*
X128813419Y-79577476D01*
X128941405Y-79527833D01*
X129057312Y-79454277D01*
X129113194Y-79401062D01*
X129724000Y-80011868D01*
X129723344Y-80058858D01*
X129748125Y-80193880D01*
X129798660Y-80321517D01*
X129873024Y-80436907D01*
X129968385Y-80535656D01*
X130081110Y-80614002D01*
X130206905Y-80668961D01*
X130340980Y-80698439D01*
X130412060Y-80699928D01*
X130875101Y-81162969D01*
X130807881Y-81261141D01*
X130753802Y-81387317D01*
X130725261Y-81521594D01*
X130723344Y-81658858D01*
X130748125Y-81793880D01*
X130798660Y-81921517D01*
X130873024Y-82036907D01*
X130968385Y-82135656D01*
X131081110Y-82214002D01*
X131206905Y-82268961D01*
X131330172Y-82296063D01*
X131348125Y-82393880D01*
X131398660Y-82521517D01*
X131473024Y-82636907D01*
X131568385Y-82735656D01*
X131681110Y-82814002D01*
X131806905Y-82868961D01*
X131940980Y-82898439D01*
X132078227Y-82901314D01*
X132213419Y-82877476D01*
X132341405Y-82827833D01*
X132457312Y-82754277D01*
X132461972Y-82749840D01*
X134274264Y-84562132D01*
X134274264Y-85850000D01*
X126424264Y-85850000D01*
X126382475Y-85855939D01*
X126343995Y-85873284D01*
X126318198Y-85893934D01*
X125700572Y-86511560D01*
X125697630Y-86496699D01*
X125645318Y-86369780D01*
X125569350Y-86255439D01*
X125472620Y-86158031D01*
X125358812Y-86081267D01*
X125232261Y-86028070D01*
X125097788Y-86000466D01*
X124960514Y-85999508D01*
X124825669Y-86025231D01*
X124698388Y-86076656D01*
X124583519Y-86151824D01*
X124485438Y-86247872D01*
X124407881Y-86361141D01*
X124353802Y-86487317D01*
X124325261Y-86621594D01*
X124323344Y-86758858D01*
X124348125Y-86893880D01*
X124398660Y-87021517D01*
X124473024Y-87136907D01*
X124568385Y-87235656D01*
X124681110Y-87314002D01*
X124806905Y-87368961D01*
X124836635Y-87375497D01*
X120318198Y-91893934D01*
X120292848Y-91927683D01*
X120277904Y-91967157D01*
X120274264Y-92000000D01*
X120274264Y-99550000D01*
X106946269Y-99550000D01*
X106720741Y-99527887D01*
X106524960Y-99468777D01*
X106344401Y-99372772D01*
X106185918Y-99243517D01*
X106055563Y-99085944D01*
X105958297Y-98906055D01*
X105897824Y-98710699D01*
X105874264Y-98486536D01*
X105874264Y-90022005D01*
X105896377Y-89796477D01*
X105955487Y-89600694D01*
X106051493Y-89420135D01*
X106180745Y-89261656D01*
X106338320Y-89131299D01*
X106518209Y-89034033D01*
X106713563Y-88973560D01*
X106937728Y-88950000D01*
X107924264Y-88950000D01*
X107924348Y-88949992D01*
X107925854Y-88949997D01*
X107936326Y-88949960D01*
X107955873Y-88947974D01*
X107975520Y-88948111D01*
X107981773Y-88947498D01*
X108272918Y-88916898D01*
X108312928Y-88908685D01*
X108352935Y-88901054D01*
X108358942Y-88899240D01*
X108358949Y-88899239D01*
X108358955Y-88899236D01*
X108638605Y-88812670D01*
X108676194Y-88796869D01*
X108714021Y-88781586D01*
X108719569Y-88778636D01*
X108977085Y-88639397D01*
X109010930Y-88616568D01*
X109045024Y-88594258D01*
X109049894Y-88590287D01*
X109275461Y-88403682D01*
X109304220Y-88374722D01*
X109333340Y-88346206D01*
X109337340Y-88341370D01*
X109337345Y-88341365D01*
X109337349Y-88341360D01*
X109522371Y-88114500D01*
X109544947Y-88080521D01*
X109567984Y-88046876D01*
X109570969Y-88041354D01*
X109570972Y-88041350D01*
X109570974Y-88041346D01*
X109708409Y-87782868D01*
X109723957Y-87745146D01*
X109740019Y-87707673D01*
X109741877Y-87701671D01*
X109826491Y-87421417D01*
X109834418Y-87381383D01*
X109842892Y-87341513D01*
X109843549Y-87335264D01*
X109872116Y-87043912D01*
X109872116Y-87025040D01*
X109874220Y-87006283D01*
X109874264Y-87000000D01*
X109874264Y-84858858D01*
X118223344Y-84858858D01*
X118248125Y-84993880D01*
X118298660Y-85121517D01*
X118373024Y-85236907D01*
X118468385Y-85335656D01*
X118581110Y-85414002D01*
X118706905Y-85468961D01*
X118840980Y-85498439D01*
X118978227Y-85501314D01*
X119113419Y-85477476D01*
X119241405Y-85427833D01*
X119357312Y-85354277D01*
X119456724Y-85259608D01*
X119535855Y-85147432D01*
X119591691Y-85022023D01*
X119622105Y-84888158D01*
X119624294Y-84731361D01*
X119597630Y-84596699D01*
X119545318Y-84469780D01*
X119469350Y-84355439D01*
X119372620Y-84258031D01*
X119258812Y-84181267D01*
X119132261Y-84128070D01*
X118997788Y-84100466D01*
X118860514Y-84099508D01*
X118725669Y-84125231D01*
X118598388Y-84176656D01*
X118483519Y-84251824D01*
X118385438Y-84347872D01*
X118307881Y-84461141D01*
X118253802Y-84587317D01*
X118225261Y-84721594D01*
X118223344Y-84858858D01*
X109874264Y-84858858D01*
X109874264Y-83808858D01*
X117123344Y-83808858D01*
X117148125Y-83943880D01*
X117198660Y-84071517D01*
X117273024Y-84186907D01*
X117368385Y-84285656D01*
X117481110Y-84364002D01*
X117606905Y-84418961D01*
X117740980Y-84448439D01*
X117878227Y-84451314D01*
X118013419Y-84427476D01*
X118141405Y-84377833D01*
X118257312Y-84304277D01*
X118356724Y-84209608D01*
X118435855Y-84097432D01*
X118491691Y-83972023D01*
X118522105Y-83838158D01*
X118524294Y-83681361D01*
X118500038Y-83558858D01*
X120623344Y-83558858D01*
X120648125Y-83693880D01*
X120698660Y-83821517D01*
X120773024Y-83936907D01*
X120868385Y-84035656D01*
X120981110Y-84114002D01*
X121106905Y-84168961D01*
X121240980Y-84198439D01*
X121378227Y-84201314D01*
X121513419Y-84177476D01*
X121641405Y-84127833D01*
X121757312Y-84054277D01*
X121856724Y-83959608D01*
X121935855Y-83847432D01*
X121991691Y-83722023D01*
X122022105Y-83588158D01*
X122024294Y-83431361D01*
X121997630Y-83296699D01*
X121945318Y-83169780D01*
X121869350Y-83055439D01*
X121772620Y-82958031D01*
X121658812Y-82881267D01*
X121532261Y-82828070D01*
X121397788Y-82800466D01*
X121260514Y-82799508D01*
X121125669Y-82825231D01*
X120998388Y-82876656D01*
X120883519Y-82951824D01*
X120785438Y-83047872D01*
X120707881Y-83161141D01*
X120653802Y-83287317D01*
X120625261Y-83421594D01*
X120623344Y-83558858D01*
X118500038Y-83558858D01*
X118497630Y-83546699D01*
X118445318Y-83419780D01*
X118369350Y-83305439D01*
X118272620Y-83208031D01*
X118158812Y-83131267D01*
X118032261Y-83078070D01*
X117897788Y-83050466D01*
X117760514Y-83049508D01*
X117625669Y-83075231D01*
X117498388Y-83126656D01*
X117383519Y-83201824D01*
X117285438Y-83297872D01*
X117207881Y-83411141D01*
X117153802Y-83537317D01*
X117125261Y-83671594D01*
X117123344Y-83808858D01*
X109874264Y-83808858D01*
X109874264Y-82058858D01*
X119923344Y-82058858D01*
X119948125Y-82193880D01*
X119998660Y-82321517D01*
X120073024Y-82436907D01*
X120168385Y-82535656D01*
X120281110Y-82614002D01*
X120406905Y-82668961D01*
X120540980Y-82698439D01*
X120678227Y-82701314D01*
X120813419Y-82677476D01*
X120941405Y-82627833D01*
X121057312Y-82554277D01*
X121156724Y-82459608D01*
X121235855Y-82347432D01*
X121291691Y-82222023D01*
X121322105Y-82088158D01*
X121324294Y-81931361D01*
X121297630Y-81796699D01*
X121282034Y-81758858D01*
X124523344Y-81758858D01*
X124548125Y-81893880D01*
X124598660Y-82021517D01*
X124673024Y-82136907D01*
X124768385Y-82235656D01*
X124881110Y-82314002D01*
X125006905Y-82368961D01*
X125140980Y-82398439D01*
X125278227Y-82401314D01*
X125413419Y-82377476D01*
X125541405Y-82327833D01*
X125657312Y-82254277D01*
X125756724Y-82159608D01*
X125835855Y-82047432D01*
X125891691Y-81922023D01*
X125922105Y-81788158D01*
X125924294Y-81631361D01*
X125897630Y-81496699D01*
X125845318Y-81369780D01*
X125769350Y-81255439D01*
X125672620Y-81158031D01*
X125558812Y-81081267D01*
X125505503Y-81058858D01*
X126523344Y-81058858D01*
X126548125Y-81193880D01*
X126598660Y-81321517D01*
X126673024Y-81436907D01*
X126768385Y-81535656D01*
X126881110Y-81614002D01*
X127006905Y-81668961D01*
X127140980Y-81698439D01*
X127278227Y-81701314D01*
X127413419Y-81677476D01*
X127541405Y-81627833D01*
X127657312Y-81554277D01*
X127756724Y-81459608D01*
X127835855Y-81347432D01*
X127891691Y-81222023D01*
X127922105Y-81088158D01*
X127924294Y-80931361D01*
X127897630Y-80796699D01*
X127845318Y-80669780D01*
X127769350Y-80555439D01*
X127672620Y-80458031D01*
X127558812Y-80381267D01*
X127432261Y-80328070D01*
X127297788Y-80300466D01*
X127160514Y-80299508D01*
X127025669Y-80325231D01*
X126898388Y-80376656D01*
X126783519Y-80451824D01*
X126685438Y-80547872D01*
X126607881Y-80661141D01*
X126553802Y-80787317D01*
X126525261Y-80921594D01*
X126523344Y-81058858D01*
X125505503Y-81058858D01*
X125432261Y-81028070D01*
X125297788Y-81000466D01*
X125160514Y-80999508D01*
X125025669Y-81025231D01*
X124898388Y-81076656D01*
X124783519Y-81151824D01*
X124685438Y-81247872D01*
X124607881Y-81361141D01*
X124553802Y-81487317D01*
X124525261Y-81621594D01*
X124523344Y-81758858D01*
X121282034Y-81758858D01*
X121245318Y-81669780D01*
X121169350Y-81555439D01*
X121072620Y-81458031D01*
X120958812Y-81381267D01*
X120832261Y-81328070D01*
X120697788Y-81300466D01*
X120560514Y-81299508D01*
X120425669Y-81325231D01*
X120298388Y-81376656D01*
X120183519Y-81451824D01*
X120085438Y-81547872D01*
X120007881Y-81661141D01*
X119953802Y-81787317D01*
X119925261Y-81921594D01*
X119923344Y-82058858D01*
X109874264Y-82058858D01*
X109874264Y-79604442D01*
X117723344Y-79604442D01*
X117748125Y-79739464D01*
X117798660Y-79867101D01*
X117873024Y-79982491D01*
X117968385Y-80081240D01*
X118081110Y-80159586D01*
X118206905Y-80214545D01*
X118340980Y-80244023D01*
X118478227Y-80246898D01*
X118613419Y-80223060D01*
X118741405Y-80173417D01*
X118857312Y-80099861D01*
X118956724Y-80005192D01*
X119035855Y-79893016D01*
X119091691Y-79767607D01*
X119122105Y-79633742D01*
X119124294Y-79476945D01*
X119097630Y-79342283D01*
X119045318Y-79215364D01*
X118969350Y-79101023D01*
X118872620Y-79003615D01*
X118758812Y-78926851D01*
X118632261Y-78873654D01*
X118497788Y-78846050D01*
X118360514Y-78845092D01*
X118225669Y-78870815D01*
X118098388Y-78922240D01*
X117983519Y-78997408D01*
X117885438Y-79093456D01*
X117807881Y-79206725D01*
X117753802Y-79332901D01*
X117725261Y-79467178D01*
X117723344Y-79604442D01*
X109874264Y-79604442D01*
X109874264Y-78558858D01*
X111723344Y-78558858D01*
X111748125Y-78693880D01*
X111798660Y-78821517D01*
X111873024Y-78936907D01*
X111968385Y-79035656D01*
X112081110Y-79114002D01*
X112206905Y-79168961D01*
X112340980Y-79198439D01*
X112478227Y-79201314D01*
X112613419Y-79177476D01*
X112741405Y-79127833D01*
X112857312Y-79054277D01*
X112956724Y-78959608D01*
X113035855Y-78847432D01*
X113091691Y-78722023D01*
X113122105Y-78588158D01*
X113124294Y-78431361D01*
X113104551Y-78331650D01*
X116450552Y-78331650D01*
X116475333Y-78466672D01*
X116525868Y-78594309D01*
X116600232Y-78709699D01*
X116695593Y-78808448D01*
X116808318Y-78886794D01*
X116934113Y-78941753D01*
X117068188Y-78971231D01*
X117205435Y-78974106D01*
X117340627Y-78950268D01*
X117468613Y-78900625D01*
X117584520Y-78827069D01*
X117683932Y-78732400D01*
X117763063Y-78620224D01*
X117818899Y-78494815D01*
X117849313Y-78360950D01*
X117849722Y-78331650D01*
X118996136Y-78331650D01*
X119020917Y-78466672D01*
X119071452Y-78594309D01*
X119145816Y-78709699D01*
X119241177Y-78808448D01*
X119353902Y-78886794D01*
X119479697Y-78941753D01*
X119613772Y-78971231D01*
X119751019Y-78974106D01*
X119886211Y-78950268D01*
X120014197Y-78900625D01*
X120130104Y-78827069D01*
X120229516Y-78732400D01*
X120308647Y-78620224D01*
X120335969Y-78558858D01*
X123123344Y-78558858D01*
X123148125Y-78693880D01*
X123198660Y-78821517D01*
X123273024Y-78936907D01*
X123368385Y-79035656D01*
X123481110Y-79114002D01*
X123606905Y-79168961D01*
X123740980Y-79198439D01*
X123878227Y-79201314D01*
X124013419Y-79177476D01*
X124141405Y-79127833D01*
X124257312Y-79054277D01*
X124324542Y-78990255D01*
X124368385Y-79035656D01*
X124481110Y-79114002D01*
X124606905Y-79168961D01*
X124740980Y-79198439D01*
X124878227Y-79201314D01*
X125013419Y-79177476D01*
X125141405Y-79127833D01*
X125257312Y-79054277D01*
X125356724Y-78959608D01*
X125372887Y-78936695D01*
X125373024Y-78936907D01*
X125468385Y-79035656D01*
X125581110Y-79114002D01*
X125706905Y-79168961D01*
X125840980Y-79198439D01*
X125978227Y-79201314D01*
X126113419Y-79177476D01*
X126241405Y-79127833D01*
X126357312Y-79054277D01*
X126456724Y-78959608D01*
X126535855Y-78847432D01*
X126591691Y-78722023D01*
X126622105Y-78588158D01*
X126624294Y-78431361D01*
X126597630Y-78296699D01*
X126545318Y-78169780D01*
X126469350Y-78055439D01*
X126372620Y-77958031D01*
X126258812Y-77881267D01*
X126132261Y-77828070D01*
X125997788Y-77800466D01*
X125860514Y-77799508D01*
X125725669Y-77825231D01*
X125598388Y-77876656D01*
X125483519Y-77951824D01*
X125385438Y-78047872D01*
X125374721Y-78063523D01*
X125369350Y-78055439D01*
X125272620Y-77958031D01*
X125158812Y-77881267D01*
X125032261Y-77828070D01*
X124897788Y-77800466D01*
X124760514Y-77799508D01*
X124625669Y-77825231D01*
X124498388Y-77876656D01*
X124383519Y-77951824D01*
X124324170Y-78009943D01*
X124272620Y-77958031D01*
X124158812Y-77881267D01*
X124032261Y-77828070D01*
X123897788Y-77800466D01*
X123760514Y-77799508D01*
X123625669Y-77825231D01*
X123498388Y-77876656D01*
X123383519Y-77951824D01*
X123285438Y-78047872D01*
X123207881Y-78161141D01*
X123153802Y-78287317D01*
X123125261Y-78421594D01*
X123123344Y-78558858D01*
X120335969Y-78558858D01*
X120364483Y-78494815D01*
X120394897Y-78360950D01*
X120397086Y-78204153D01*
X120370422Y-78069491D01*
X120318110Y-77942572D01*
X120242142Y-77828231D01*
X120145412Y-77730823D01*
X120031604Y-77654059D01*
X119905053Y-77600862D01*
X119770580Y-77573258D01*
X119633306Y-77572300D01*
X119498461Y-77598023D01*
X119371180Y-77649448D01*
X119256311Y-77724616D01*
X119158230Y-77820664D01*
X119080673Y-77933933D01*
X119026594Y-78060109D01*
X118998053Y-78194386D01*
X118996136Y-78331650D01*
X117849722Y-78331650D01*
X117851502Y-78204153D01*
X117824838Y-78069491D01*
X117772526Y-77942572D01*
X117696558Y-77828231D01*
X117599828Y-77730823D01*
X117486020Y-77654059D01*
X117359469Y-77600862D01*
X117224996Y-77573258D01*
X117087722Y-77572300D01*
X116952877Y-77598023D01*
X116825596Y-77649448D01*
X116710727Y-77724616D01*
X116612646Y-77820664D01*
X116535089Y-77933933D01*
X116481010Y-78060109D01*
X116452469Y-78194386D01*
X116450552Y-78331650D01*
X113104551Y-78331650D01*
X113097630Y-78296699D01*
X113045318Y-78169780D01*
X112969350Y-78055439D01*
X112872620Y-77958031D01*
X112758812Y-77881267D01*
X112632261Y-77828070D01*
X112497788Y-77800466D01*
X112360514Y-77799508D01*
X112225669Y-77825231D01*
X112098388Y-77876656D01*
X111983519Y-77951824D01*
X111885438Y-78047872D01*
X111807881Y-78161141D01*
X111753802Y-78287317D01*
X111725261Y-78421594D01*
X111723344Y-78558858D01*
X109874264Y-78558858D01*
X109874264Y-77058858D01*
X115177760Y-77058858D01*
X115202541Y-77193880D01*
X115253076Y-77321517D01*
X115327440Y-77436907D01*
X115422801Y-77535656D01*
X115535526Y-77614002D01*
X115661321Y-77668961D01*
X115795396Y-77698439D01*
X115932643Y-77701314D01*
X116067835Y-77677476D01*
X116195821Y-77627833D01*
X116311728Y-77554277D01*
X116411140Y-77459608D01*
X116490271Y-77347432D01*
X116546107Y-77222023D01*
X116576521Y-77088158D01*
X116576930Y-77058858D01*
X117723344Y-77058858D01*
X117748125Y-77193880D01*
X117798660Y-77321517D01*
X117873024Y-77436907D01*
X117968385Y-77535656D01*
X118081110Y-77614002D01*
X118206905Y-77668961D01*
X118340980Y-77698439D01*
X118478227Y-77701314D01*
X118613419Y-77677476D01*
X118741405Y-77627833D01*
X118857312Y-77554277D01*
X118956724Y-77459608D01*
X119035855Y-77347432D01*
X119091691Y-77222023D01*
X119122105Y-77088158D01*
X119122514Y-77058858D01*
X120268928Y-77058858D01*
X120293709Y-77193880D01*
X120344244Y-77321517D01*
X120418608Y-77436907D01*
X120513969Y-77535656D01*
X120626694Y-77614002D01*
X120752489Y-77668961D01*
X120886564Y-77698439D01*
X121023811Y-77701314D01*
X121159003Y-77677476D01*
X121286989Y-77627833D01*
X121402896Y-77554277D01*
X121502308Y-77459608D01*
X121581439Y-77347432D01*
X121637275Y-77222023D01*
X121667689Y-77088158D01*
X121669878Y-76931361D01*
X121643214Y-76796699D01*
X121590902Y-76669780D01*
X121514934Y-76555439D01*
X121418204Y-76458031D01*
X121304396Y-76381267D01*
X121177845Y-76328070D01*
X121043372Y-76300466D01*
X120906098Y-76299508D01*
X120771253Y-76325231D01*
X120643972Y-76376656D01*
X120529103Y-76451824D01*
X120431022Y-76547872D01*
X120353465Y-76661141D01*
X120299386Y-76787317D01*
X120270845Y-76921594D01*
X120268928Y-77058858D01*
X119122514Y-77058858D01*
X119124294Y-76931361D01*
X119097630Y-76796699D01*
X119045318Y-76669780D01*
X118969350Y-76555439D01*
X118872620Y-76458031D01*
X118758812Y-76381267D01*
X118632261Y-76328070D01*
X118497788Y-76300466D01*
X118360514Y-76299508D01*
X118225669Y-76325231D01*
X118098388Y-76376656D01*
X117983519Y-76451824D01*
X117885438Y-76547872D01*
X117807881Y-76661141D01*
X117753802Y-76787317D01*
X117725261Y-76921594D01*
X117723344Y-77058858D01*
X116576930Y-77058858D01*
X116578710Y-76931361D01*
X116552046Y-76796699D01*
X116499734Y-76669780D01*
X116423766Y-76555439D01*
X116327036Y-76458031D01*
X116213228Y-76381267D01*
X116086677Y-76328070D01*
X115952204Y-76300466D01*
X115814930Y-76299508D01*
X115680085Y-76325231D01*
X115552804Y-76376656D01*
X115437935Y-76451824D01*
X115339854Y-76547872D01*
X115262297Y-76661141D01*
X115208218Y-76787317D01*
X115179677Y-76921594D01*
X115177760Y-77058858D01*
X109874264Y-77058858D01*
X109874264Y-75786066D01*
X116450552Y-75786066D01*
X116475333Y-75921088D01*
X116525868Y-76048725D01*
X116600232Y-76164115D01*
X116695593Y-76262864D01*
X116808318Y-76341210D01*
X116934113Y-76396169D01*
X117068188Y-76425647D01*
X117205435Y-76428522D01*
X117340627Y-76404684D01*
X117468613Y-76355041D01*
X117584520Y-76281485D01*
X117683932Y-76186816D01*
X117763063Y-76074640D01*
X117818899Y-75949231D01*
X117849313Y-75815366D01*
X117849722Y-75786066D01*
X118996136Y-75786066D01*
X119020917Y-75921088D01*
X119071452Y-76048725D01*
X119145816Y-76164115D01*
X119241177Y-76262864D01*
X119353902Y-76341210D01*
X119479697Y-76396169D01*
X119613772Y-76425647D01*
X119751019Y-76428522D01*
X119886211Y-76404684D01*
X120014197Y-76355041D01*
X120130104Y-76281485D01*
X120229516Y-76186816D01*
X120308647Y-76074640D01*
X120364483Y-75949231D01*
X120394897Y-75815366D01*
X120397086Y-75658569D01*
X120370422Y-75523907D01*
X120318110Y-75396988D01*
X120242142Y-75282647D01*
X120145412Y-75185239D01*
X120031604Y-75108475D01*
X119905053Y-75055278D01*
X119770580Y-75027674D01*
X119633306Y-75026716D01*
X119498461Y-75052439D01*
X119371180Y-75103864D01*
X119256311Y-75179032D01*
X119158230Y-75275080D01*
X119080673Y-75388349D01*
X119026594Y-75514525D01*
X118998053Y-75648802D01*
X118996136Y-75786066D01*
X117849722Y-75786066D01*
X117851502Y-75658569D01*
X117824838Y-75523907D01*
X117772526Y-75396988D01*
X117696558Y-75282647D01*
X117599828Y-75185239D01*
X117486020Y-75108475D01*
X117359469Y-75055278D01*
X117224996Y-75027674D01*
X117087722Y-75026716D01*
X116952877Y-75052439D01*
X116825596Y-75103864D01*
X116710727Y-75179032D01*
X116612646Y-75275080D01*
X116535089Y-75388349D01*
X116481010Y-75514525D01*
X116452469Y-75648802D01*
X116450552Y-75786066D01*
X109874264Y-75786066D01*
X109874264Y-74513274D01*
X117723344Y-74513274D01*
X117748125Y-74648296D01*
X117798660Y-74775933D01*
X117873024Y-74891323D01*
X117968385Y-74990072D01*
X118081110Y-75068418D01*
X118206905Y-75123377D01*
X118340980Y-75152855D01*
X118478227Y-75155730D01*
X118613419Y-75131892D01*
X118741405Y-75082249D01*
X118857312Y-75008693D01*
X118956724Y-74914024D01*
X119035855Y-74801848D01*
X119091691Y-74676439D01*
X119122105Y-74542574D01*
X119124294Y-74385777D01*
X119097630Y-74251115D01*
X119045318Y-74124196D01*
X118969350Y-74009855D01*
X118918708Y-73958858D01*
X124623344Y-73958858D01*
X124648125Y-74093880D01*
X124698660Y-74221517D01*
X124773024Y-74336907D01*
X124868385Y-74435656D01*
X124981110Y-74514002D01*
X125106905Y-74568961D01*
X125240980Y-74598439D01*
X125378227Y-74601314D01*
X125513419Y-74577476D01*
X125641405Y-74527833D01*
X125757312Y-74454277D01*
X125856724Y-74359608D01*
X125935855Y-74247432D01*
X125991691Y-74122023D01*
X126022105Y-73988158D01*
X126024294Y-73831361D01*
X125997630Y-73696699D01*
X125945318Y-73569780D01*
X125869350Y-73455439D01*
X125772620Y-73358031D01*
X125658812Y-73281267D01*
X125532261Y-73228070D01*
X125397788Y-73200466D01*
X125260514Y-73199508D01*
X125125669Y-73225231D01*
X124998388Y-73276656D01*
X124883519Y-73351824D01*
X124785438Y-73447872D01*
X124707881Y-73561141D01*
X124653802Y-73687317D01*
X124625261Y-73821594D01*
X124623344Y-73958858D01*
X118918708Y-73958858D01*
X118872620Y-73912447D01*
X118758812Y-73835683D01*
X118632261Y-73782486D01*
X118497788Y-73754882D01*
X118360514Y-73753924D01*
X118225669Y-73779647D01*
X118098388Y-73831072D01*
X117983519Y-73906240D01*
X117885438Y-74002288D01*
X117807881Y-74115557D01*
X117753802Y-74241733D01*
X117725261Y-74376010D01*
X117723344Y-74513274D01*
X109874264Y-74513274D01*
X109874264Y-72158858D01*
X111123344Y-72158858D01*
X111148125Y-72293880D01*
X111198660Y-72421517D01*
X111273024Y-72536907D01*
X111368385Y-72635656D01*
X111481110Y-72714002D01*
X111606905Y-72768961D01*
X111740980Y-72798439D01*
X111878227Y-72801314D01*
X112013419Y-72777476D01*
X112141405Y-72727833D01*
X112257312Y-72654277D01*
X112356724Y-72559608D01*
X112435855Y-72447432D01*
X112491691Y-72322023D01*
X112522105Y-72188158D01*
X112524294Y-72031361D01*
X112497630Y-71896699D01*
X112445318Y-71769780D01*
X112369350Y-71655439D01*
X112272620Y-71558031D01*
X112158812Y-71481267D01*
X112032261Y-71428070D01*
X111897788Y-71400466D01*
X111760514Y-71399508D01*
X111625669Y-71425231D01*
X111498388Y-71476656D01*
X111383519Y-71551824D01*
X111285438Y-71647872D01*
X111207881Y-71761141D01*
X111153802Y-71887317D01*
X111125261Y-72021594D01*
X111123344Y-72158858D01*
X109874264Y-72158858D01*
X109874264Y-71258858D01*
X113723344Y-71258858D01*
X113748125Y-71393880D01*
X113798660Y-71521517D01*
X113873024Y-71636907D01*
X113968385Y-71735656D01*
X114081110Y-71814002D01*
X114206905Y-71868961D01*
X114340980Y-71898439D01*
X114478227Y-71901314D01*
X114613419Y-71877476D01*
X114661418Y-71858858D01*
X118123344Y-71858858D01*
X118148125Y-71993880D01*
X118198660Y-72121517D01*
X118273024Y-72236907D01*
X118368385Y-72335656D01*
X118481110Y-72414002D01*
X118606905Y-72468961D01*
X118740980Y-72498439D01*
X118878227Y-72501314D01*
X119013419Y-72477476D01*
X119141405Y-72427833D01*
X119257312Y-72354277D01*
X119356724Y-72259608D01*
X119435855Y-72147432D01*
X119491691Y-72022023D01*
X119522105Y-71888158D01*
X119523910Y-71758858D01*
X125223344Y-71758858D01*
X125248125Y-71893880D01*
X125298660Y-72021517D01*
X125373024Y-72136907D01*
X125468385Y-72235656D01*
X125581110Y-72314002D01*
X125706905Y-72368961D01*
X125840980Y-72398439D01*
X125978227Y-72401314D01*
X126113419Y-72377476D01*
X126241405Y-72327833D01*
X126357312Y-72254277D01*
X126456724Y-72159608D01*
X126535855Y-72047432D01*
X126591691Y-71922023D01*
X126622105Y-71788158D01*
X126624294Y-71631361D01*
X126597630Y-71496699D01*
X126545318Y-71369780D01*
X126469350Y-71255439D01*
X126372620Y-71158031D01*
X126258812Y-71081267D01*
X126132261Y-71028070D01*
X125997788Y-71000466D01*
X125860514Y-70999508D01*
X125725669Y-71025231D01*
X125598388Y-71076656D01*
X125483519Y-71151824D01*
X125385438Y-71247872D01*
X125307881Y-71361141D01*
X125253802Y-71487317D01*
X125225261Y-71621594D01*
X125223344Y-71758858D01*
X119523910Y-71758858D01*
X119524294Y-71731361D01*
X119497630Y-71596699D01*
X119445318Y-71469780D01*
X119369350Y-71355439D01*
X119272620Y-71258031D01*
X119158812Y-71181267D01*
X119032261Y-71128070D01*
X118897788Y-71100466D01*
X118760514Y-71099508D01*
X118625669Y-71125231D01*
X118498388Y-71176656D01*
X118383519Y-71251824D01*
X118285438Y-71347872D01*
X118207881Y-71461141D01*
X118153802Y-71587317D01*
X118125261Y-71721594D01*
X118123344Y-71858858D01*
X114661418Y-71858858D01*
X114741405Y-71827833D01*
X114857312Y-71754277D01*
X114956724Y-71659608D01*
X115035855Y-71547432D01*
X115091691Y-71422023D01*
X115122105Y-71288158D01*
X115124294Y-71131361D01*
X115097630Y-70996699D01*
X115045318Y-70869780D01*
X114969350Y-70755439D01*
X114872620Y-70658031D01*
X114758812Y-70581267D01*
X114632261Y-70528070D01*
X114497788Y-70500466D01*
X114360514Y-70499508D01*
X114225669Y-70525231D01*
X114098388Y-70576656D01*
X113983519Y-70651824D01*
X113885438Y-70747872D01*
X113807881Y-70861141D01*
X113753802Y-70987317D01*
X113725261Y-71121594D01*
X113723344Y-71258858D01*
X109874264Y-71258858D01*
X109874264Y-70155300D01*
X125329274Y-70155300D01*
X125354055Y-70290322D01*
X125404590Y-70417959D01*
X125478954Y-70533349D01*
X125574315Y-70632098D01*
X125687040Y-70710444D01*
X125812835Y-70765403D01*
X125946910Y-70794881D01*
X126084157Y-70797756D01*
X126219349Y-70773918D01*
X126347335Y-70724275D01*
X126463242Y-70650719D01*
X126562654Y-70556050D01*
X126641785Y-70443874D01*
X126697621Y-70318465D01*
X126728035Y-70184600D01*
X126730224Y-70027803D01*
X126703560Y-69893141D01*
X126651248Y-69766222D01*
X126575280Y-69651881D01*
X126478550Y-69554473D01*
X126364742Y-69477709D01*
X126238191Y-69424512D01*
X126103718Y-69396908D01*
X125966444Y-69395950D01*
X125831599Y-69421673D01*
X125704318Y-69473098D01*
X125589449Y-69548266D01*
X125491368Y-69644314D01*
X125413811Y-69757583D01*
X125359732Y-69883759D01*
X125331191Y-70018036D01*
X125329274Y-70155300D01*
X109874264Y-70155300D01*
X109874264Y-68558858D01*
X113723344Y-68558858D01*
X113748125Y-68693880D01*
X113798660Y-68821517D01*
X113873024Y-68936907D01*
X113968385Y-69035656D01*
X114081110Y-69114002D01*
X114206905Y-69168961D01*
X114340980Y-69198439D01*
X114478227Y-69201314D01*
X114613419Y-69177476D01*
X114741405Y-69127833D01*
X114857312Y-69054277D01*
X114956724Y-68959608D01*
X115035855Y-68847432D01*
X115091691Y-68722023D01*
X115122105Y-68588158D01*
X115124294Y-68431361D01*
X115097630Y-68296699D01*
X115045318Y-68169780D01*
X114969350Y-68055439D01*
X114872620Y-67958031D01*
X114758812Y-67881267D01*
X114632261Y-67828070D01*
X114497788Y-67800466D01*
X114360514Y-67799508D01*
X114225669Y-67825231D01*
X114098388Y-67876656D01*
X113983519Y-67951824D01*
X113885438Y-68047872D01*
X113807881Y-68161141D01*
X113753802Y-68287317D01*
X113725261Y-68421594D01*
X113723344Y-68558858D01*
X109874264Y-68558858D01*
X109874264Y-67458858D01*
X119223344Y-67458858D01*
X119248125Y-67593880D01*
X119298660Y-67721517D01*
X119373024Y-67836907D01*
X119468385Y-67935656D01*
X119581110Y-68014002D01*
X119706905Y-68068961D01*
X119840980Y-68098439D01*
X119978227Y-68101314D01*
X120113419Y-68077476D01*
X120241405Y-68027833D01*
X120357312Y-67954277D01*
X120456724Y-67859608D01*
X120535855Y-67747432D01*
X120591691Y-67622023D01*
X120622105Y-67488158D01*
X120624294Y-67331361D01*
X120597630Y-67196699D01*
X120545318Y-67069780D01*
X120469350Y-66955439D01*
X120373442Y-66858858D01*
X123323344Y-66858858D01*
X123348125Y-66993880D01*
X123398660Y-67121517D01*
X123473024Y-67236907D01*
X123568385Y-67335656D01*
X123681110Y-67414002D01*
X123806905Y-67468961D01*
X123940980Y-67498439D01*
X124078227Y-67501314D01*
X124213419Y-67477476D01*
X124341405Y-67427833D01*
X124457312Y-67354277D01*
X124556724Y-67259608D01*
X124635855Y-67147432D01*
X124691691Y-67022023D01*
X124722105Y-66888158D01*
X124724294Y-66731361D01*
X124697630Y-66596699D01*
X124645318Y-66469780D01*
X124569350Y-66355439D01*
X124472620Y-66258031D01*
X124358812Y-66181267D01*
X124232261Y-66128070D01*
X124097788Y-66100466D01*
X123960514Y-66099508D01*
X123825669Y-66125231D01*
X123698388Y-66176656D01*
X123583519Y-66251824D01*
X123485438Y-66347872D01*
X123407881Y-66461141D01*
X123353802Y-66587317D01*
X123325261Y-66721594D01*
X123323344Y-66858858D01*
X120373442Y-66858858D01*
X120372620Y-66858031D01*
X120258812Y-66781267D01*
X120132261Y-66728070D01*
X119997788Y-66700466D01*
X119860514Y-66699508D01*
X119725669Y-66725231D01*
X119598388Y-66776656D01*
X119483519Y-66851824D01*
X119385438Y-66947872D01*
X119307881Y-67061141D01*
X119253802Y-67187317D01*
X119225261Y-67321594D01*
X119223344Y-67458858D01*
X109874264Y-67458858D01*
X109874264Y-65058858D01*
X113723344Y-65058858D01*
X113748125Y-65193880D01*
X113798660Y-65321517D01*
X113873024Y-65436907D01*
X113968385Y-65535656D01*
X114081110Y-65614002D01*
X114206905Y-65668961D01*
X114340980Y-65698439D01*
X114478227Y-65701314D01*
X114613419Y-65677476D01*
X114741405Y-65627833D01*
X114857312Y-65554277D01*
X114956724Y-65459608D01*
X115035855Y-65347432D01*
X115091691Y-65222023D01*
X115122105Y-65088158D01*
X115124294Y-64931361D01*
X115097630Y-64796699D01*
X115045318Y-64669780D01*
X114969350Y-64555439D01*
X114872620Y-64458031D01*
X114758812Y-64381267D01*
X114632261Y-64328070D01*
X114497788Y-64300466D01*
X114360514Y-64299508D01*
X114225669Y-64325231D01*
X114098388Y-64376656D01*
X113983519Y-64451824D01*
X113885438Y-64547872D01*
X113807881Y-64661141D01*
X113753802Y-64787317D01*
X113725261Y-64921594D01*
X113723344Y-65058858D01*
X109874264Y-65058858D01*
X109874264Y-62458858D01*
X117923344Y-62458858D01*
X117948125Y-62593880D01*
X117998660Y-62721517D01*
X118073024Y-62836907D01*
X118168385Y-62935656D01*
X118281110Y-63014002D01*
X118406905Y-63068961D01*
X118540980Y-63098439D01*
X118678227Y-63101314D01*
X118813419Y-63077476D01*
X118941405Y-63027833D01*
X119057312Y-62954277D01*
X119156724Y-62859608D01*
X119235855Y-62747432D01*
X119291691Y-62622023D01*
X119322105Y-62488158D01*
X119324294Y-62331361D01*
X119297630Y-62196699D01*
X119245318Y-62069780D01*
X119169350Y-61955439D01*
X119072620Y-61858031D01*
X118958812Y-61781267D01*
X118832261Y-61728070D01*
X118697788Y-61700466D01*
X118560514Y-61699508D01*
X118425669Y-61725231D01*
X118298388Y-61776656D01*
X118183519Y-61851824D01*
X118085438Y-61947872D01*
X118007881Y-62061141D01*
X117953802Y-62187317D01*
X117925261Y-62321594D01*
X117923344Y-62458858D01*
X109874264Y-62458858D01*
X109874264Y-61558858D01*
X113723344Y-61558858D01*
X113748125Y-61693880D01*
X113798660Y-61821517D01*
X113873024Y-61936907D01*
X113968385Y-62035656D01*
X114081110Y-62114002D01*
X114206905Y-62168961D01*
X114340980Y-62198439D01*
X114478227Y-62201314D01*
X114613419Y-62177476D01*
X114741405Y-62127833D01*
X114857312Y-62054277D01*
X114956724Y-61959608D01*
X115035855Y-61847432D01*
X115091691Y-61722023D01*
X115122105Y-61588158D01*
X115124294Y-61431361D01*
X115097630Y-61296699D01*
X115045318Y-61169780D01*
X114969350Y-61055439D01*
X114872620Y-60958031D01*
X114758812Y-60881267D01*
X114632261Y-60828070D01*
X114497788Y-60800466D01*
X114360514Y-60799508D01*
X114225669Y-60825231D01*
X114098388Y-60876656D01*
X113983519Y-60951824D01*
X113885438Y-61047872D01*
X113807881Y-61161141D01*
X113753802Y-61287317D01*
X113725261Y-61421594D01*
X113723344Y-61558858D01*
X109874264Y-61558858D01*
X109874264Y-56522005D01*
X109896377Y-56296477D01*
X109955487Y-56100694D01*
X110051493Y-55920135D01*
X110180745Y-55761656D01*
X110338320Y-55631299D01*
X110518209Y-55534033D01*
X110713563Y-55473560D01*
X110937728Y-55450000D01*
X116662132Y-55450000D01*
X128274264Y-67062132D01*
G36*
X131274264Y-90000000D02*
X131280203Y-90041789D01*
X131297548Y-90080269D01*
X131318198Y-90106066D01*
X136274264Y-95062132D01*
X136274264Y-99550000D01*
X133574264Y-99550000D01*
X133574264Y-95458858D01*
X133623344Y-95458858D01*
X133648125Y-95593880D01*
X133698660Y-95721517D01*
X133773024Y-95836907D01*
X133868385Y-95935656D01*
X133981110Y-96014002D01*
X134106905Y-96068961D01*
X134240980Y-96098439D01*
X134378227Y-96101314D01*
X134513419Y-96077476D01*
X134641405Y-96027833D01*
X134757312Y-95954277D01*
X134856724Y-95859608D01*
X134935855Y-95747432D01*
X134991691Y-95622023D01*
X135022105Y-95488158D01*
X135024294Y-95331361D01*
X134997630Y-95196699D01*
X134945318Y-95069780D01*
X134869350Y-94955439D01*
X134772620Y-94858031D01*
X134658812Y-94781267D01*
X134532261Y-94728070D01*
X134397788Y-94700466D01*
X134260514Y-94699508D01*
X134125669Y-94725231D01*
X133998388Y-94776656D01*
X133883519Y-94851824D01*
X133785438Y-94947872D01*
X133707881Y-95061141D01*
X133653802Y-95187317D01*
X133625261Y-95321594D01*
X133623344Y-95458858D01*
X133574264Y-95458858D01*
X133574264Y-95000000D01*
X133568325Y-94958211D01*
X133550980Y-94919731D01*
X133530330Y-94893934D01*
X129574264Y-90937868D01*
X129574264Y-88150000D01*
X131274264Y-88150000D01*
X131274264Y-90000000D01*
X131274264Y-90000000D01*
G37*
X131274264Y-90000000D02*
X131280203Y-90041789D01*
X131297548Y-90080269D01*
X131318198Y-90106066D01*
X136274264Y-95062132D01*
X136274264Y-99550000D01*
X133574264Y-99550000D01*
X133574264Y-95458858D01*
X133623344Y-95458858D01*
X133648125Y-95593880D01*
X133698660Y-95721517D01*
X133773024Y-95836907D01*
X133868385Y-95935656D01*
X133981110Y-96014002D01*
X134106905Y-96068961D01*
X134240980Y-96098439D01*
X134378227Y-96101314D01*
X134513419Y-96077476D01*
X134641405Y-96027833D01*
X134757312Y-95954277D01*
X134856724Y-95859608D01*
X134935855Y-95747432D01*
X134991691Y-95622023D01*
X135022105Y-95488158D01*
X135024294Y-95331361D01*
X134997630Y-95196699D01*
X134945318Y-95069780D01*
X134869350Y-94955439D01*
X134772620Y-94858031D01*
X134658812Y-94781267D01*
X134532261Y-94728070D01*
X134397788Y-94700466D01*
X134260514Y-94699508D01*
X134125669Y-94725231D01*
X133998388Y-94776656D01*
X133883519Y-94851824D01*
X133785438Y-94947872D01*
X133707881Y-95061141D01*
X133653802Y-95187317D01*
X133625261Y-95321594D01*
X133623344Y-95458858D01*
X133574264Y-95458858D01*
X133574264Y-95000000D01*
X133568325Y-94958211D01*
X133550980Y-94919731D01*
X133530330Y-94893934D01*
X129574264Y-90937868D01*
X129574264Y-88150000D01*
X131274264Y-88150000D01*
X131274264Y-90000000D01*
G36*
X133207881Y-55461141D02*
X133153802Y-55587317D01*
X133125261Y-55721594D01*
X133123344Y-55858858D01*
X133148125Y-55993880D01*
X133198660Y-56121517D01*
X133273024Y-56236907D01*
X133368385Y-56335656D01*
X133481110Y-56414002D01*
X133563918Y-56450180D01*
X133498388Y-56476656D01*
X133383519Y-56551824D01*
X133285438Y-56647872D01*
X133207881Y-56761141D01*
X133153802Y-56887317D01*
X133125261Y-57021594D01*
X133123344Y-57158858D01*
X133148125Y-57293880D01*
X133198660Y-57421517D01*
X133273024Y-57536907D01*
X133368385Y-57635656D01*
X133481110Y-57714002D01*
X133606905Y-57768961D01*
X133740980Y-57798439D01*
X133878227Y-57801314D01*
X134013419Y-57777476D01*
X134141405Y-57727833D01*
X134257312Y-57654277D01*
X134356724Y-57559608D01*
X134435855Y-57447432D01*
X134491691Y-57322023D01*
X134522105Y-57188158D01*
X134524294Y-57031361D01*
X134497630Y-56896699D01*
X134445318Y-56769780D01*
X134369350Y-56655439D01*
X134272620Y-56558031D01*
X134158812Y-56481267D01*
X134084347Y-56449965D01*
X134141405Y-56427833D01*
X134257312Y-56354277D01*
X134356724Y-56259608D01*
X134435855Y-56147432D01*
X134491691Y-56022023D01*
X134522105Y-55888158D01*
X134524294Y-55731361D01*
X134497630Y-55596699D01*
X134445318Y-55469780D01*
X134432176Y-55450000D01*
X145902259Y-55450000D01*
X146127787Y-55472113D01*
X146323570Y-55531223D01*
X146504129Y-55627229D01*
X146662608Y-55756481D01*
X146792965Y-55914056D01*
X146890231Y-56093945D01*
X146950704Y-56289299D01*
X146974264Y-56513464D01*
X146974264Y-87000000D01*
X146974272Y-87000084D01*
X146974267Y-87001590D01*
X146974304Y-87012062D01*
X146976290Y-87031609D01*
X146976153Y-87051256D01*
X146976766Y-87057509D01*
X147007366Y-87348654D01*
X147015579Y-87388664D01*
X147023210Y-87428671D01*
X147025024Y-87434678D01*
X147025025Y-87434685D01*
X147025026Y-87434687D01*
X147111594Y-87714341D01*
X147127395Y-87751930D01*
X147142678Y-87789757D01*
X147145628Y-87795305D01*
X147284867Y-88052821D01*
X147307696Y-88086666D01*
X147330006Y-88120760D01*
X147333977Y-88125630D01*
X147520582Y-88351197D01*
X147549542Y-88379956D01*
X147578058Y-88409076D01*
X147582894Y-88413076D01*
X147582899Y-88413081D01*
X147582901Y-88413082D01*
X147809764Y-88598107D01*
X147843743Y-88620683D01*
X147877388Y-88643720D01*
X147882910Y-88646705D01*
X147882914Y-88646708D01*
X147882918Y-88646710D01*
X148141396Y-88784145D01*
X148179118Y-88799693D01*
X148216591Y-88815755D01*
X148222593Y-88817613D01*
X148502847Y-88902227D01*
X148542881Y-88910154D01*
X148582751Y-88918628D01*
X148588998Y-88919285D01*
X148589000Y-88919285D01*
X148880352Y-88947852D01*
X148899224Y-88947852D01*
X148917981Y-88949956D01*
X148924264Y-88950000D01*
X149902259Y-88950000D01*
X150127787Y-88972113D01*
X150323570Y-89031223D01*
X150504129Y-89127229D01*
X150662608Y-89256481D01*
X150792965Y-89414056D01*
X150890231Y-89593945D01*
X150950704Y-89789299D01*
X150974264Y-90013464D01*
X150974264Y-98477995D01*
X150952151Y-98703523D01*
X150893041Y-98899304D01*
X150797036Y-99079863D01*
X150667781Y-99238346D01*
X150510208Y-99368701D01*
X150330319Y-99465967D01*
X150134963Y-99526440D01*
X149910800Y-99550000D01*
X138574264Y-99550000D01*
X138574264Y-97858858D01*
X139723344Y-97858858D01*
X139748125Y-97993880D01*
X139798660Y-98121517D01*
X139873024Y-98236907D01*
X139968385Y-98335656D01*
X140081110Y-98414002D01*
X140206905Y-98468961D01*
X140340980Y-98498439D01*
X140478227Y-98501314D01*
X140613419Y-98477476D01*
X140741405Y-98427833D01*
X140857312Y-98354277D01*
X140956724Y-98259608D01*
X141035855Y-98147432D01*
X141091691Y-98022023D01*
X141122105Y-97888158D01*
X141124294Y-97731361D01*
X141097630Y-97596699D01*
X141045318Y-97469780D01*
X140969350Y-97355439D01*
X140872620Y-97258031D01*
X140758812Y-97181267D01*
X140632261Y-97128070D01*
X140497788Y-97100466D01*
X140360514Y-97099508D01*
X140225669Y-97125231D01*
X140098388Y-97176656D01*
X139983519Y-97251824D01*
X139885438Y-97347872D01*
X139807881Y-97461141D01*
X139753802Y-97587317D01*
X139725261Y-97721594D01*
X139723344Y-97858858D01*
X138574264Y-97858858D01*
X138574264Y-91258858D01*
X138963346Y-91258858D01*
X138988127Y-91393880D01*
X139038662Y-91521517D01*
X139113026Y-91636907D01*
X139208387Y-91735656D01*
X139321112Y-91814002D01*
X139446907Y-91868961D01*
X139580982Y-91898439D01*
X139718229Y-91901314D01*
X139853421Y-91877476D01*
X139981407Y-91827833D01*
X140097314Y-91754277D01*
X140196726Y-91659608D01*
X140275857Y-91547432D01*
X140331693Y-91422023D01*
X140362107Y-91288158D01*
X140364296Y-91131361D01*
X140337632Y-90996699D01*
X140285320Y-90869780D01*
X140209352Y-90755439D01*
X140112622Y-90658031D01*
X139998814Y-90581267D01*
X139872263Y-90528070D01*
X139737790Y-90500466D01*
X139600516Y-90499508D01*
X139465671Y-90525231D01*
X139338390Y-90576656D01*
X139223521Y-90651824D01*
X139125440Y-90747872D01*
X139047883Y-90861141D01*
X138993804Y-90987317D01*
X138965263Y-91121594D01*
X138963346Y-91258858D01*
X138574264Y-91258858D01*
X138574264Y-88458858D01*
X140923344Y-88458858D01*
X140948125Y-88593880D01*
X140998660Y-88721517D01*
X141073024Y-88836907D01*
X141168385Y-88935656D01*
X141281110Y-89014002D01*
X141406905Y-89068961D01*
X141540980Y-89098439D01*
X141678227Y-89101314D01*
X141813419Y-89077476D01*
X141941405Y-89027833D01*
X142057312Y-88954277D01*
X142156724Y-88859608D01*
X142235855Y-88747432D01*
X142291691Y-88622023D01*
X142322105Y-88488158D01*
X142322514Y-88458858D01*
X142923344Y-88458858D01*
X142948125Y-88593880D01*
X142998660Y-88721517D01*
X143073024Y-88836907D01*
X143168385Y-88935656D01*
X143281110Y-89014002D01*
X143406905Y-89068961D01*
X143540980Y-89098439D01*
X143678227Y-89101314D01*
X143813419Y-89077476D01*
X143941405Y-89027833D01*
X144057312Y-88954277D01*
X144156724Y-88859608D01*
X144235855Y-88747432D01*
X144291691Y-88622023D01*
X144322105Y-88488158D01*
X144324294Y-88331361D01*
X144297630Y-88196699D01*
X144245318Y-88069780D01*
X144169350Y-87955439D01*
X144072620Y-87858031D01*
X143958812Y-87781267D01*
X143832261Y-87728070D01*
X143697788Y-87700466D01*
X143560514Y-87699508D01*
X143425669Y-87725231D01*
X143298388Y-87776656D01*
X143183519Y-87851824D01*
X143085438Y-87947872D01*
X143007881Y-88061141D01*
X142953802Y-88187317D01*
X142925261Y-88321594D01*
X142923344Y-88458858D01*
X142322514Y-88458858D01*
X142324294Y-88331361D01*
X142297630Y-88196699D01*
X142245318Y-88069780D01*
X142169350Y-87955439D01*
X142072620Y-87858031D01*
X141958812Y-87781267D01*
X141832261Y-87728070D01*
X141697788Y-87700466D01*
X141560514Y-87699508D01*
X141425669Y-87725231D01*
X141298388Y-87776656D01*
X141183519Y-87851824D01*
X141085438Y-87947872D01*
X141007881Y-88061141D01*
X140953802Y-88187317D01*
X140925261Y-88321594D01*
X140923344Y-88458858D01*
X138574264Y-88458858D01*
X138574264Y-86000000D01*
X138568325Y-85958211D01*
X138550980Y-85919731D01*
X138530330Y-85893934D01*
X138295254Y-85658858D01*
X138923344Y-85658858D01*
X138948125Y-85793880D01*
X138998660Y-85921517D01*
X139073024Y-86036907D01*
X139168385Y-86135656D01*
X139281110Y-86214002D01*
X139406905Y-86268961D01*
X139540980Y-86298439D01*
X139678227Y-86301314D01*
X139813419Y-86277476D01*
X139941405Y-86227833D01*
X140057312Y-86154277D01*
X140156724Y-86059608D01*
X140235855Y-85947432D01*
X140291691Y-85822023D01*
X140322105Y-85688158D01*
X140324294Y-85531361D01*
X140297630Y-85396699D01*
X140245318Y-85269780D01*
X140169350Y-85155439D01*
X140072620Y-85058031D01*
X139958812Y-84981267D01*
X139832261Y-84928070D01*
X139697788Y-84900466D01*
X139560514Y-84899508D01*
X139425669Y-84925231D01*
X139298388Y-84976656D01*
X139183519Y-85051824D01*
X139085438Y-85147872D01*
X139007881Y-85261141D01*
X138953802Y-85387317D01*
X138925261Y-85521594D01*
X138923344Y-85658858D01*
X138295254Y-85658858D01*
X135895254Y-83258858D01*
X140523344Y-83258858D01*
X140548125Y-83393880D01*
X140598660Y-83521517D01*
X140673024Y-83636907D01*
X140768385Y-83735656D01*
X140881110Y-83814002D01*
X141006905Y-83868961D01*
X141140980Y-83898439D01*
X141278227Y-83901314D01*
X141413419Y-83877476D01*
X141541405Y-83827833D01*
X141657312Y-83754277D01*
X141756724Y-83659608D01*
X141835855Y-83547432D01*
X141891691Y-83422023D01*
X141922105Y-83288158D01*
X141924294Y-83131361D01*
X141897630Y-82996699D01*
X141845318Y-82869780D01*
X141769350Y-82755439D01*
X141672620Y-82658031D01*
X141558812Y-82581267D01*
X141432261Y-82528070D01*
X141297788Y-82500466D01*
X141160514Y-82499508D01*
X141025669Y-82525231D01*
X140898388Y-82576656D01*
X140783519Y-82651824D01*
X140685438Y-82747872D01*
X140607881Y-82861141D01*
X140553802Y-82987317D01*
X140525261Y-83121594D01*
X140523344Y-83258858D01*
X135895254Y-83258858D01*
X131395254Y-78758858D01*
X136023344Y-78758858D01*
X136048125Y-78893880D01*
X136098660Y-79021517D01*
X136173024Y-79136907D01*
X136268385Y-79235656D01*
X136381110Y-79314002D01*
X136506905Y-79368961D01*
X136640980Y-79398439D01*
X136778227Y-79401314D01*
X136913419Y-79377476D01*
X137041405Y-79327833D01*
X137157312Y-79254277D01*
X137256724Y-79159608D01*
X137335855Y-79047432D01*
X137391691Y-78922023D01*
X137422105Y-78788158D01*
X137424294Y-78631361D01*
X137397630Y-78496699D01*
X137345318Y-78369780D01*
X137269350Y-78255439D01*
X137172620Y-78158031D01*
X137058812Y-78081267D01*
X136932261Y-78028070D01*
X136797788Y-78000466D01*
X136660514Y-77999508D01*
X136525669Y-78025231D01*
X136398388Y-78076656D01*
X136283519Y-78151824D01*
X136185438Y-78247872D01*
X136107881Y-78361141D01*
X136053802Y-78487317D01*
X136025261Y-78621594D01*
X136023344Y-78758858D01*
X131395254Y-78758858D01*
X131074264Y-78437868D01*
X131074264Y-73858858D01*
X131323344Y-73858858D01*
X131348125Y-73993880D01*
X131398660Y-74121517D01*
X131473024Y-74236907D01*
X131568385Y-74335656D01*
X131681110Y-74414002D01*
X131806905Y-74468961D01*
X131940980Y-74498439D01*
X132078227Y-74501314D01*
X132213419Y-74477476D01*
X132341405Y-74427833D01*
X132457312Y-74354277D01*
X132556724Y-74259608D01*
X132635855Y-74147432D01*
X132691691Y-74022023D01*
X132722105Y-73888158D01*
X132724294Y-73731361D01*
X132697630Y-73596699D01*
X132645318Y-73469780D01*
X132569350Y-73355439D01*
X132472620Y-73258031D01*
X132358812Y-73181267D01*
X132232261Y-73128070D01*
X132097788Y-73100466D01*
X131960514Y-73099508D01*
X131825669Y-73125231D01*
X131698388Y-73176656D01*
X131583519Y-73251824D01*
X131485438Y-73347872D01*
X131407881Y-73461141D01*
X131353802Y-73587317D01*
X131325261Y-73721594D01*
X131323344Y-73858858D01*
X131074264Y-73858858D01*
X131074264Y-69758858D01*
X139023344Y-69758858D01*
X139048125Y-69893880D01*
X139098660Y-70021517D01*
X139173024Y-70136907D01*
X139268385Y-70235656D01*
X139381110Y-70314002D01*
X139506905Y-70368961D01*
X139640980Y-70398439D01*
X139778227Y-70401314D01*
X139913419Y-70377476D01*
X140041405Y-70327833D01*
X140157312Y-70254277D01*
X140256724Y-70159608D01*
X140335855Y-70047432D01*
X140391691Y-69922023D01*
X140422105Y-69788158D01*
X140424294Y-69631361D01*
X140397630Y-69496699D01*
X140345318Y-69369780D01*
X140269350Y-69255439D01*
X140172620Y-69158031D01*
X140058812Y-69081267D01*
X139932261Y-69028070D01*
X139797788Y-69000466D01*
X139660514Y-68999508D01*
X139525669Y-69025231D01*
X139398388Y-69076656D01*
X139283519Y-69151824D01*
X139185438Y-69247872D01*
X139107881Y-69361141D01*
X139053802Y-69487317D01*
X139025261Y-69621594D01*
X139023344Y-69758858D01*
X131074264Y-69758858D01*
X131074264Y-68058858D01*
X137623344Y-68058858D01*
X137648125Y-68193880D01*
X137698660Y-68321517D01*
X137773024Y-68436907D01*
X137868385Y-68535656D01*
X137981110Y-68614002D01*
X138106905Y-68668961D01*
X138240980Y-68698439D01*
X138378227Y-68701314D01*
X138513419Y-68677476D01*
X138641405Y-68627833D01*
X138757312Y-68554277D01*
X138856724Y-68459608D01*
X138935855Y-68347432D01*
X138991691Y-68222023D01*
X139022105Y-68088158D01*
X139024294Y-67931361D01*
X138997630Y-67796699D01*
X138945318Y-67669780D01*
X138869350Y-67555439D01*
X138772620Y-67458031D01*
X138658812Y-67381267D01*
X138532261Y-67328070D01*
X138397788Y-67300466D01*
X138260514Y-67299508D01*
X138125669Y-67325231D01*
X137998388Y-67376656D01*
X137883519Y-67451824D01*
X137785438Y-67547872D01*
X137707881Y-67661141D01*
X137653802Y-67787317D01*
X137625261Y-67921594D01*
X137623344Y-68058858D01*
X131074264Y-68058858D01*
X131074264Y-55450000D01*
X133215509Y-55450000D01*
X133207881Y-55461141D01*
X133207881Y-55461141D01*
G37*
X133207881Y-55461141D02*
X133153802Y-55587317D01*
X133125261Y-55721594D01*
X133123344Y-55858858D01*
X133148125Y-55993880D01*
X133198660Y-56121517D01*
X133273024Y-56236907D01*
X133368385Y-56335656D01*
X133481110Y-56414002D01*
X133563918Y-56450180D01*
X133498388Y-56476656D01*
X133383519Y-56551824D01*
X133285438Y-56647872D01*
X133207881Y-56761141D01*
X133153802Y-56887317D01*
X133125261Y-57021594D01*
X133123344Y-57158858D01*
X133148125Y-57293880D01*
X133198660Y-57421517D01*
X133273024Y-57536907D01*
X133368385Y-57635656D01*
X133481110Y-57714002D01*
X133606905Y-57768961D01*
X133740980Y-57798439D01*
X133878227Y-57801314D01*
X134013419Y-57777476D01*
X134141405Y-57727833D01*
X134257312Y-57654277D01*
X134356724Y-57559608D01*
X134435855Y-57447432D01*
X134491691Y-57322023D01*
X134522105Y-57188158D01*
X134524294Y-57031361D01*
X134497630Y-56896699D01*
X134445318Y-56769780D01*
X134369350Y-56655439D01*
X134272620Y-56558031D01*
X134158812Y-56481267D01*
X134084347Y-56449965D01*
X134141405Y-56427833D01*
X134257312Y-56354277D01*
X134356724Y-56259608D01*
X134435855Y-56147432D01*
X134491691Y-56022023D01*
X134522105Y-55888158D01*
X134524294Y-55731361D01*
X134497630Y-55596699D01*
X134445318Y-55469780D01*
X134432176Y-55450000D01*
X145902259Y-55450000D01*
X146127787Y-55472113D01*
X146323570Y-55531223D01*
X146504129Y-55627229D01*
X146662608Y-55756481D01*
X146792965Y-55914056D01*
X146890231Y-56093945D01*
X146950704Y-56289299D01*
X146974264Y-56513464D01*
X146974264Y-87000000D01*
X146974272Y-87000084D01*
X146974267Y-87001590D01*
X146974304Y-87012062D01*
X146976290Y-87031609D01*
X146976153Y-87051256D01*
X146976766Y-87057509D01*
X147007366Y-87348654D01*
X147015579Y-87388664D01*
X147023210Y-87428671D01*
X147025024Y-87434678D01*
X147025025Y-87434685D01*
X147025026Y-87434687D01*
X147111594Y-87714341D01*
X147127395Y-87751930D01*
X147142678Y-87789757D01*
X147145628Y-87795305D01*
X147284867Y-88052821D01*
X147307696Y-88086666D01*
X147330006Y-88120760D01*
X147333977Y-88125630D01*
X147520582Y-88351197D01*
X147549542Y-88379956D01*
X147578058Y-88409076D01*
X147582894Y-88413076D01*
X147582899Y-88413081D01*
X147582901Y-88413082D01*
X147809764Y-88598107D01*
X147843743Y-88620683D01*
X147877388Y-88643720D01*
X147882910Y-88646705D01*
X147882914Y-88646708D01*
X147882918Y-88646710D01*
X148141396Y-88784145D01*
X148179118Y-88799693D01*
X148216591Y-88815755D01*
X148222593Y-88817613D01*
X148502847Y-88902227D01*
X148542881Y-88910154D01*
X148582751Y-88918628D01*
X148588998Y-88919285D01*
X148589000Y-88919285D01*
X148880352Y-88947852D01*
X148899224Y-88947852D01*
X148917981Y-88949956D01*
X148924264Y-88950000D01*
X149902259Y-88950000D01*
X150127787Y-88972113D01*
X150323570Y-89031223D01*
X150504129Y-89127229D01*
X150662608Y-89256481D01*
X150792965Y-89414056D01*
X150890231Y-89593945D01*
X150950704Y-89789299D01*
X150974264Y-90013464D01*
X150974264Y-98477995D01*
X150952151Y-98703523D01*
X150893041Y-98899304D01*
X150797036Y-99079863D01*
X150667781Y-99238346D01*
X150510208Y-99368701D01*
X150330319Y-99465967D01*
X150134963Y-99526440D01*
X149910800Y-99550000D01*
X138574264Y-99550000D01*
X138574264Y-97858858D01*
X139723344Y-97858858D01*
X139748125Y-97993880D01*
X139798660Y-98121517D01*
X139873024Y-98236907D01*
X139968385Y-98335656D01*
X140081110Y-98414002D01*
X140206905Y-98468961D01*
X140340980Y-98498439D01*
X140478227Y-98501314D01*
X140613419Y-98477476D01*
X140741405Y-98427833D01*
X140857312Y-98354277D01*
X140956724Y-98259608D01*
X141035855Y-98147432D01*
X141091691Y-98022023D01*
X141122105Y-97888158D01*
X141124294Y-97731361D01*
X141097630Y-97596699D01*
X141045318Y-97469780D01*
X140969350Y-97355439D01*
X140872620Y-97258031D01*
X140758812Y-97181267D01*
X140632261Y-97128070D01*
X140497788Y-97100466D01*
X140360514Y-97099508D01*
X140225669Y-97125231D01*
X140098388Y-97176656D01*
X139983519Y-97251824D01*
X139885438Y-97347872D01*
X139807881Y-97461141D01*
X139753802Y-97587317D01*
X139725261Y-97721594D01*
X139723344Y-97858858D01*
X138574264Y-97858858D01*
X138574264Y-91258858D01*
X138963346Y-91258858D01*
X138988127Y-91393880D01*
X139038662Y-91521517D01*
X139113026Y-91636907D01*
X139208387Y-91735656D01*
X139321112Y-91814002D01*
X139446907Y-91868961D01*
X139580982Y-91898439D01*
X139718229Y-91901314D01*
X139853421Y-91877476D01*
X139981407Y-91827833D01*
X140097314Y-91754277D01*
X140196726Y-91659608D01*
X140275857Y-91547432D01*
X140331693Y-91422023D01*
X140362107Y-91288158D01*
X140364296Y-91131361D01*
X140337632Y-90996699D01*
X140285320Y-90869780D01*
X140209352Y-90755439D01*
X140112622Y-90658031D01*
X139998814Y-90581267D01*
X139872263Y-90528070D01*
X139737790Y-90500466D01*
X139600516Y-90499508D01*
X139465671Y-90525231D01*
X139338390Y-90576656D01*
X139223521Y-90651824D01*
X139125440Y-90747872D01*
X139047883Y-90861141D01*
X138993804Y-90987317D01*
X138965263Y-91121594D01*
X138963346Y-91258858D01*
X138574264Y-91258858D01*
X138574264Y-88458858D01*
X140923344Y-88458858D01*
X140948125Y-88593880D01*
X140998660Y-88721517D01*
X141073024Y-88836907D01*
X141168385Y-88935656D01*
X141281110Y-89014002D01*
X141406905Y-89068961D01*
X141540980Y-89098439D01*
X141678227Y-89101314D01*
X141813419Y-89077476D01*
X141941405Y-89027833D01*
X142057312Y-88954277D01*
X142156724Y-88859608D01*
X142235855Y-88747432D01*
X142291691Y-88622023D01*
X142322105Y-88488158D01*
X142322514Y-88458858D01*
X142923344Y-88458858D01*
X142948125Y-88593880D01*
X142998660Y-88721517D01*
X143073024Y-88836907D01*
X143168385Y-88935656D01*
X143281110Y-89014002D01*
X143406905Y-89068961D01*
X143540980Y-89098439D01*
X143678227Y-89101314D01*
X143813419Y-89077476D01*
X143941405Y-89027833D01*
X144057312Y-88954277D01*
X144156724Y-88859608D01*
X144235855Y-88747432D01*
X144291691Y-88622023D01*
X144322105Y-88488158D01*
X144324294Y-88331361D01*
X144297630Y-88196699D01*
X144245318Y-88069780D01*
X144169350Y-87955439D01*
X144072620Y-87858031D01*
X143958812Y-87781267D01*
X143832261Y-87728070D01*
X143697788Y-87700466D01*
X143560514Y-87699508D01*
X143425669Y-87725231D01*
X143298388Y-87776656D01*
X143183519Y-87851824D01*
X143085438Y-87947872D01*
X143007881Y-88061141D01*
X142953802Y-88187317D01*
X142925261Y-88321594D01*
X142923344Y-88458858D01*
X142322514Y-88458858D01*
X142324294Y-88331361D01*
X142297630Y-88196699D01*
X142245318Y-88069780D01*
X142169350Y-87955439D01*
X142072620Y-87858031D01*
X141958812Y-87781267D01*
X141832261Y-87728070D01*
X141697788Y-87700466D01*
X141560514Y-87699508D01*
X141425669Y-87725231D01*
X141298388Y-87776656D01*
X141183519Y-87851824D01*
X141085438Y-87947872D01*
X141007881Y-88061141D01*
X140953802Y-88187317D01*
X140925261Y-88321594D01*
X140923344Y-88458858D01*
X138574264Y-88458858D01*
X138574264Y-86000000D01*
X138568325Y-85958211D01*
X138550980Y-85919731D01*
X138530330Y-85893934D01*
X138295254Y-85658858D01*
X138923344Y-85658858D01*
X138948125Y-85793880D01*
X138998660Y-85921517D01*
X139073024Y-86036907D01*
X139168385Y-86135656D01*
X139281110Y-86214002D01*
X139406905Y-86268961D01*
X139540980Y-86298439D01*
X139678227Y-86301314D01*
X139813419Y-86277476D01*
X139941405Y-86227833D01*
X140057312Y-86154277D01*
X140156724Y-86059608D01*
X140235855Y-85947432D01*
X140291691Y-85822023D01*
X140322105Y-85688158D01*
X140324294Y-85531361D01*
X140297630Y-85396699D01*
X140245318Y-85269780D01*
X140169350Y-85155439D01*
X140072620Y-85058031D01*
X139958812Y-84981267D01*
X139832261Y-84928070D01*
X139697788Y-84900466D01*
X139560514Y-84899508D01*
X139425669Y-84925231D01*
X139298388Y-84976656D01*
X139183519Y-85051824D01*
X139085438Y-85147872D01*
X139007881Y-85261141D01*
X138953802Y-85387317D01*
X138925261Y-85521594D01*
X138923344Y-85658858D01*
X138295254Y-85658858D01*
X135895254Y-83258858D01*
X140523344Y-83258858D01*
X140548125Y-83393880D01*
X140598660Y-83521517D01*
X140673024Y-83636907D01*
X140768385Y-83735656D01*
X140881110Y-83814002D01*
X141006905Y-83868961D01*
X141140980Y-83898439D01*
X141278227Y-83901314D01*
X141413419Y-83877476D01*
X141541405Y-83827833D01*
X141657312Y-83754277D01*
X141756724Y-83659608D01*
X141835855Y-83547432D01*
X141891691Y-83422023D01*
X141922105Y-83288158D01*
X141924294Y-83131361D01*
X141897630Y-82996699D01*
X141845318Y-82869780D01*
X141769350Y-82755439D01*
X141672620Y-82658031D01*
X141558812Y-82581267D01*
X141432261Y-82528070D01*
X141297788Y-82500466D01*
X141160514Y-82499508D01*
X141025669Y-82525231D01*
X140898388Y-82576656D01*
X140783519Y-82651824D01*
X140685438Y-82747872D01*
X140607881Y-82861141D01*
X140553802Y-82987317D01*
X140525261Y-83121594D01*
X140523344Y-83258858D01*
X135895254Y-83258858D01*
X131395254Y-78758858D01*
X136023344Y-78758858D01*
X136048125Y-78893880D01*
X136098660Y-79021517D01*
X136173024Y-79136907D01*
X136268385Y-79235656D01*
X136381110Y-79314002D01*
X136506905Y-79368961D01*
X136640980Y-79398439D01*
X136778227Y-79401314D01*
X136913419Y-79377476D01*
X137041405Y-79327833D01*
X137157312Y-79254277D01*
X137256724Y-79159608D01*
X137335855Y-79047432D01*
X137391691Y-78922023D01*
X137422105Y-78788158D01*
X137424294Y-78631361D01*
X137397630Y-78496699D01*
X137345318Y-78369780D01*
X137269350Y-78255439D01*
X137172620Y-78158031D01*
X137058812Y-78081267D01*
X136932261Y-78028070D01*
X136797788Y-78000466D01*
X136660514Y-77999508D01*
X136525669Y-78025231D01*
X136398388Y-78076656D01*
X136283519Y-78151824D01*
X136185438Y-78247872D01*
X136107881Y-78361141D01*
X136053802Y-78487317D01*
X136025261Y-78621594D01*
X136023344Y-78758858D01*
X131395254Y-78758858D01*
X131074264Y-78437868D01*
X131074264Y-73858858D01*
X131323344Y-73858858D01*
X131348125Y-73993880D01*
X131398660Y-74121517D01*
X131473024Y-74236907D01*
X131568385Y-74335656D01*
X131681110Y-74414002D01*
X131806905Y-74468961D01*
X131940980Y-74498439D01*
X132078227Y-74501314D01*
X132213419Y-74477476D01*
X132341405Y-74427833D01*
X132457312Y-74354277D01*
X132556724Y-74259608D01*
X132635855Y-74147432D01*
X132691691Y-74022023D01*
X132722105Y-73888158D01*
X132724294Y-73731361D01*
X132697630Y-73596699D01*
X132645318Y-73469780D01*
X132569350Y-73355439D01*
X132472620Y-73258031D01*
X132358812Y-73181267D01*
X132232261Y-73128070D01*
X132097788Y-73100466D01*
X131960514Y-73099508D01*
X131825669Y-73125231D01*
X131698388Y-73176656D01*
X131583519Y-73251824D01*
X131485438Y-73347872D01*
X131407881Y-73461141D01*
X131353802Y-73587317D01*
X131325261Y-73721594D01*
X131323344Y-73858858D01*
X131074264Y-73858858D01*
X131074264Y-69758858D01*
X139023344Y-69758858D01*
X139048125Y-69893880D01*
X139098660Y-70021517D01*
X139173024Y-70136907D01*
X139268385Y-70235656D01*
X139381110Y-70314002D01*
X139506905Y-70368961D01*
X139640980Y-70398439D01*
X139778227Y-70401314D01*
X139913419Y-70377476D01*
X140041405Y-70327833D01*
X140157312Y-70254277D01*
X140256724Y-70159608D01*
X140335855Y-70047432D01*
X140391691Y-69922023D01*
X140422105Y-69788158D01*
X140424294Y-69631361D01*
X140397630Y-69496699D01*
X140345318Y-69369780D01*
X140269350Y-69255439D01*
X140172620Y-69158031D01*
X140058812Y-69081267D01*
X139932261Y-69028070D01*
X139797788Y-69000466D01*
X139660514Y-68999508D01*
X139525669Y-69025231D01*
X139398388Y-69076656D01*
X139283519Y-69151824D01*
X139185438Y-69247872D01*
X139107881Y-69361141D01*
X139053802Y-69487317D01*
X139025261Y-69621594D01*
X139023344Y-69758858D01*
X131074264Y-69758858D01*
X131074264Y-68058858D01*
X137623344Y-68058858D01*
X137648125Y-68193880D01*
X137698660Y-68321517D01*
X137773024Y-68436907D01*
X137868385Y-68535656D01*
X137981110Y-68614002D01*
X138106905Y-68668961D01*
X138240980Y-68698439D01*
X138378227Y-68701314D01*
X138513419Y-68677476D01*
X138641405Y-68627833D01*
X138757312Y-68554277D01*
X138856724Y-68459608D01*
X138935855Y-68347432D01*
X138991691Y-68222023D01*
X139022105Y-68088158D01*
X139024294Y-67931361D01*
X138997630Y-67796699D01*
X138945318Y-67669780D01*
X138869350Y-67555439D01*
X138772620Y-67458031D01*
X138658812Y-67381267D01*
X138532261Y-67328070D01*
X138397788Y-67300466D01*
X138260514Y-67299508D01*
X138125669Y-67325231D01*
X137998388Y-67376656D01*
X137883519Y-67451824D01*
X137785438Y-67547872D01*
X137707881Y-67661141D01*
X137653802Y-67787317D01*
X137625261Y-67921594D01*
X137623344Y-68058858D01*
X131074264Y-68058858D01*
X131074264Y-55450000D01*
X133215509Y-55450000D01*
X133207881Y-55461141D01*
M02*
