G04 #@! TF.FileFunction,Copper,L2,Inr,Signal*
%FSLAX46Y46*%
G04 Gerber Fmt 4.6, Leading zero omitted, Abs format (unit mm)*
G04 Created by KiCad (PCBNEW 4.0.7-e2-6376~58~ubuntu14.04.1) date Sun Apr  8 21:09:44 2018*
%MOMM*%
%LPD*%
G01*
G04 APERTURE LIST*
%ADD10C,0.100000*%
%ADD11C,0.600000*%
%ADD12C,0.300000*%
G04 APERTURE END LIST*
D10*
D11*
X117824264Y-83750000D03*
X132024264Y-73800000D03*
X128124264Y-73800000D03*
X139724264Y-69700000D03*
X138324264Y-68000000D03*
X122924264Y-57100000D03*
X122924264Y-55800000D03*
X133824264Y-55800000D03*
X133824264Y-57100000D03*
X112424264Y-78500000D03*
X125024264Y-86700000D03*
X126024264Y-90600000D03*
X134324264Y-95400000D03*
X132924264Y-88400000D03*
X141624264Y-88400000D03*
X143624264Y-88400000D03*
X119924264Y-67400000D03*
X114424264Y-71200000D03*
X114424264Y-68500000D03*
X114424264Y-65000000D03*
X114424264Y-61500000D03*
X111824264Y-72100000D03*
X121324264Y-83500000D03*
X125024264Y-59600000D03*
X140424264Y-97800000D03*
X137424264Y-97800000D03*
X125224264Y-81700000D03*
X128624264Y-78900000D03*
X118424264Y-74454416D03*
X124824264Y-78500000D03*
X118424264Y-77000000D03*
X119697056Y-78272792D03*
X120969848Y-77000000D03*
X119697056Y-75727208D03*
X117151472Y-75727208D03*
X115878680Y-77000000D03*
X117151472Y-78272792D03*
X118424264Y-79545584D03*
X130424264Y-89500000D03*
X135224264Y-97400000D03*
X121124264Y-88400000D03*
X123124264Y-84800000D03*
X126924264Y-70100000D03*
X133424264Y-84900000D03*
X117824264Y-70400000D03*
X123674264Y-76400000D03*
X112424264Y-75700000D03*
X119024264Y-83750000D03*
X132924264Y-78800000D03*
X144824264Y-79600000D03*
X142824264Y-69700000D03*
X141824264Y-68000000D03*
X131724264Y-59600000D03*
X139524264Y-97600000D03*
X143624264Y-86800000D03*
X141624264Y-86400000D03*
X123824264Y-78500000D03*
X127224264Y-81000000D03*
X118624264Y-62400000D03*
X124024264Y-66800000D03*
X126030194Y-70096442D03*
X125924264Y-71700000D03*
X139664266Y-91200000D03*
X139624264Y-85600000D03*
X132024264Y-82200000D03*
X127024264Y-74500000D03*
X136724264Y-78700000D03*
X141224264Y-83200000D03*
X125924264Y-78500000D03*
X130424264Y-80000000D03*
X125324264Y-73900000D03*
X118824264Y-71800000D03*
X118924264Y-84800000D03*
X120624264Y-82000000D03*
X131424264Y-81600000D03*
X126424264Y-75100000D03*
X130424264Y-99200000D03*
X126424264Y-99200000D03*
X124624264Y-97200000D03*
X132224264Y-97200000D03*
D12*
G36*
X146127787Y-55472113D02*
X146323570Y-55531223D01*
X146504129Y-55627229D01*
X146662608Y-55756481D01*
X146792965Y-55914056D01*
X146890231Y-56093945D01*
X146950704Y-56289299D01*
X146974264Y-56513464D01*
X146974264Y-87000000D01*
X146974272Y-87000084D01*
X146974267Y-87001590D01*
X146974304Y-87012062D01*
X146976290Y-87031609D01*
X146976153Y-87051256D01*
X146976766Y-87057509D01*
X147007366Y-87348654D01*
X147015579Y-87388664D01*
X147023210Y-87428671D01*
X147025024Y-87434678D01*
X147025025Y-87434685D01*
X147025026Y-87434687D01*
X147111594Y-87714341D01*
X147127395Y-87751930D01*
X147142678Y-87789757D01*
X147145628Y-87795305D01*
X147284867Y-88052821D01*
X147307696Y-88086666D01*
X147330006Y-88120760D01*
X147333977Y-88125630D01*
X147520582Y-88351197D01*
X147549542Y-88379956D01*
X147578058Y-88409076D01*
X147582894Y-88413076D01*
X147582899Y-88413081D01*
X147582901Y-88413082D01*
X147809764Y-88598107D01*
X147843743Y-88620683D01*
X147877388Y-88643720D01*
X147882910Y-88646705D01*
X147882914Y-88646708D01*
X147882918Y-88646710D01*
X148141396Y-88784145D01*
X148179118Y-88799693D01*
X148216591Y-88815755D01*
X148222593Y-88817613D01*
X148502847Y-88902227D01*
X148542881Y-88910154D01*
X148582751Y-88918628D01*
X148588998Y-88919285D01*
X148589000Y-88919285D01*
X148880352Y-88947852D01*
X148899224Y-88947852D01*
X148917981Y-88949956D01*
X148924264Y-88950000D01*
X149902259Y-88950000D01*
X150127787Y-88972113D01*
X150323570Y-89031223D01*
X150504129Y-89127229D01*
X150662608Y-89256481D01*
X150792965Y-89414056D01*
X150890231Y-89593945D01*
X150950704Y-89789299D01*
X150974264Y-90013464D01*
X150974264Y-98477995D01*
X150952151Y-98703523D01*
X150893041Y-98899304D01*
X150797036Y-99079863D01*
X150667781Y-99238346D01*
X150510208Y-99368701D01*
X150330319Y-99465967D01*
X150134963Y-99526440D01*
X149910800Y-99550000D01*
X131034043Y-99550000D01*
X131035855Y-99547432D01*
X131091691Y-99422023D01*
X131122105Y-99288158D01*
X131124294Y-99131361D01*
X131097630Y-98996699D01*
X131045318Y-98869780D01*
X130969350Y-98755439D01*
X130872620Y-98658031D01*
X130758812Y-98581267D01*
X130632261Y-98528070D01*
X130497788Y-98500466D01*
X130360514Y-98499508D01*
X130225669Y-98525231D01*
X130098388Y-98576656D01*
X129983519Y-98651824D01*
X129885438Y-98747872D01*
X129807881Y-98861141D01*
X129753802Y-98987317D01*
X129725261Y-99121594D01*
X129723344Y-99258858D01*
X129748125Y-99393880D01*
X129798660Y-99521517D01*
X129817016Y-99550000D01*
X127034043Y-99550000D01*
X127035855Y-99547432D01*
X127091691Y-99422023D01*
X127122105Y-99288158D01*
X127124294Y-99131361D01*
X127097630Y-98996699D01*
X127045318Y-98869780D01*
X126969350Y-98755439D01*
X126872620Y-98658031D01*
X126758812Y-98581267D01*
X126632261Y-98528070D01*
X126497788Y-98500466D01*
X126360514Y-98499508D01*
X126225669Y-98525231D01*
X126098388Y-98576656D01*
X125983519Y-98651824D01*
X125885438Y-98747872D01*
X125807881Y-98861141D01*
X125753802Y-98987317D01*
X125725261Y-99121594D01*
X125723344Y-99258858D01*
X125748125Y-99393880D01*
X125798660Y-99521517D01*
X125817016Y-99550000D01*
X106946269Y-99550000D01*
X106720741Y-99527887D01*
X106524960Y-99468777D01*
X106344401Y-99372772D01*
X106185918Y-99243517D01*
X106055563Y-99085944D01*
X105958297Y-98906055D01*
X105897824Y-98710699D01*
X105874264Y-98486536D01*
X105874264Y-97258858D01*
X123923344Y-97258858D01*
X123948125Y-97393880D01*
X123998660Y-97521517D01*
X124073024Y-97636907D01*
X124168385Y-97735656D01*
X124281110Y-97814002D01*
X124406905Y-97868961D01*
X124540980Y-97898439D01*
X124678227Y-97901314D01*
X124813419Y-97877476D01*
X124941405Y-97827833D01*
X125057312Y-97754277D01*
X125156724Y-97659608D01*
X125235855Y-97547432D01*
X125291691Y-97422023D01*
X125322105Y-97288158D01*
X125322514Y-97258858D01*
X131523344Y-97258858D01*
X131548125Y-97393880D01*
X131598660Y-97521517D01*
X131673024Y-97636907D01*
X131768385Y-97735656D01*
X131881110Y-97814002D01*
X132006905Y-97868961D01*
X132140980Y-97898439D01*
X132278227Y-97901314D01*
X132413419Y-97877476D01*
X132541405Y-97827833D01*
X132657312Y-97754277D01*
X132756724Y-97659608D01*
X132835855Y-97547432D01*
X132875290Y-97458858D01*
X134523344Y-97458858D01*
X134548125Y-97593880D01*
X134598660Y-97721517D01*
X134673024Y-97836907D01*
X134768385Y-97935656D01*
X134881110Y-98014002D01*
X135006905Y-98068961D01*
X135140980Y-98098439D01*
X135278227Y-98101314D01*
X135413419Y-98077476D01*
X135541405Y-98027833D01*
X135657312Y-97954277D01*
X135756724Y-97859608D01*
X135835855Y-97747432D01*
X135875290Y-97658858D01*
X138823344Y-97658858D01*
X138848125Y-97793880D01*
X138898660Y-97921517D01*
X138973024Y-98036907D01*
X139068385Y-98135656D01*
X139181110Y-98214002D01*
X139306905Y-98268961D01*
X139440980Y-98298439D01*
X139578227Y-98301314D01*
X139713419Y-98277476D01*
X139841405Y-98227833D01*
X139957312Y-98154277D01*
X140056724Y-98059608D01*
X140135855Y-97947432D01*
X140191691Y-97822023D01*
X140222105Y-97688158D01*
X140224294Y-97531361D01*
X140197630Y-97396699D01*
X140145318Y-97269780D01*
X140069350Y-97155439D01*
X139972620Y-97058031D01*
X139858812Y-96981267D01*
X139732261Y-96928070D01*
X139597788Y-96900466D01*
X139460514Y-96899508D01*
X139325669Y-96925231D01*
X139198388Y-96976656D01*
X139083519Y-97051824D01*
X138985438Y-97147872D01*
X138907881Y-97261141D01*
X138853802Y-97387317D01*
X138825261Y-97521594D01*
X138823344Y-97658858D01*
X135875290Y-97658858D01*
X135891691Y-97622023D01*
X135922105Y-97488158D01*
X135924294Y-97331361D01*
X135897630Y-97196699D01*
X135845318Y-97069780D01*
X135769350Y-96955439D01*
X135672620Y-96858031D01*
X135558812Y-96781267D01*
X135432261Y-96728070D01*
X135297788Y-96700466D01*
X135160514Y-96699508D01*
X135025669Y-96725231D01*
X134898388Y-96776656D01*
X134783519Y-96851824D01*
X134685438Y-96947872D01*
X134607881Y-97061141D01*
X134553802Y-97187317D01*
X134525261Y-97321594D01*
X134523344Y-97458858D01*
X132875290Y-97458858D01*
X132891691Y-97422023D01*
X132922105Y-97288158D01*
X132924294Y-97131361D01*
X132897630Y-96996699D01*
X132845318Y-96869780D01*
X132769350Y-96755439D01*
X132672620Y-96658031D01*
X132558812Y-96581267D01*
X132432261Y-96528070D01*
X132297788Y-96500466D01*
X132160514Y-96499508D01*
X132025669Y-96525231D01*
X131898388Y-96576656D01*
X131783519Y-96651824D01*
X131685438Y-96747872D01*
X131607881Y-96861141D01*
X131553802Y-96987317D01*
X131525261Y-97121594D01*
X131523344Y-97258858D01*
X125322514Y-97258858D01*
X125324294Y-97131361D01*
X125297630Y-96996699D01*
X125245318Y-96869780D01*
X125169350Y-96755439D01*
X125072620Y-96658031D01*
X124958812Y-96581267D01*
X124832261Y-96528070D01*
X124697788Y-96500466D01*
X124560514Y-96499508D01*
X124425669Y-96525231D01*
X124298388Y-96576656D01*
X124183519Y-96651824D01*
X124085438Y-96747872D01*
X124007881Y-96861141D01*
X123953802Y-96987317D01*
X123925261Y-97121594D01*
X123923344Y-97258858D01*
X105874264Y-97258858D01*
X105874264Y-91258858D01*
X138963346Y-91258858D01*
X138988127Y-91393880D01*
X139038662Y-91521517D01*
X139113026Y-91636907D01*
X139208387Y-91735656D01*
X139321112Y-91814002D01*
X139446907Y-91868961D01*
X139580982Y-91898439D01*
X139718229Y-91901314D01*
X139853421Y-91877476D01*
X139981407Y-91827833D01*
X140097314Y-91754277D01*
X140196726Y-91659608D01*
X140275857Y-91547432D01*
X140331693Y-91422023D01*
X140362107Y-91288158D01*
X140364296Y-91131361D01*
X140337632Y-90996699D01*
X140285320Y-90869780D01*
X140209352Y-90755439D01*
X140112622Y-90658031D01*
X139998814Y-90581267D01*
X139872263Y-90528070D01*
X139737790Y-90500466D01*
X139600516Y-90499508D01*
X139465671Y-90525231D01*
X139338390Y-90576656D01*
X139223521Y-90651824D01*
X139125440Y-90747872D01*
X139047883Y-90861141D01*
X138993804Y-90987317D01*
X138965263Y-91121594D01*
X138963346Y-91258858D01*
X105874264Y-91258858D01*
X105874264Y-90022005D01*
X105896377Y-89796477D01*
X105955487Y-89600694D01*
X105977731Y-89558858D01*
X129723344Y-89558858D01*
X129748125Y-89693880D01*
X129798660Y-89821517D01*
X129873024Y-89936907D01*
X129968385Y-90035656D01*
X130081110Y-90114002D01*
X130206905Y-90168961D01*
X130340980Y-90198439D01*
X130478227Y-90201314D01*
X130613419Y-90177476D01*
X130741405Y-90127833D01*
X130857312Y-90054277D01*
X130956724Y-89959608D01*
X131035855Y-89847432D01*
X131091691Y-89722023D01*
X131122105Y-89588158D01*
X131124294Y-89431361D01*
X131097630Y-89296699D01*
X131045318Y-89169780D01*
X130969350Y-89055439D01*
X130872620Y-88958031D01*
X130758812Y-88881267D01*
X130632261Y-88828070D01*
X130497788Y-88800466D01*
X130360514Y-88799508D01*
X130225669Y-88825231D01*
X130098388Y-88876656D01*
X129983519Y-88951824D01*
X129885438Y-89047872D01*
X129807881Y-89161141D01*
X129753802Y-89287317D01*
X129725261Y-89421594D01*
X129723344Y-89558858D01*
X105977731Y-89558858D01*
X106051493Y-89420135D01*
X106180745Y-89261656D01*
X106338320Y-89131299D01*
X106518209Y-89034033D01*
X106713563Y-88973560D01*
X106937728Y-88950000D01*
X107924264Y-88950000D01*
X107924348Y-88949992D01*
X107925854Y-88949997D01*
X107936326Y-88949960D01*
X107955873Y-88947974D01*
X107975520Y-88948111D01*
X107981773Y-88947498D01*
X108272918Y-88916898D01*
X108312928Y-88908685D01*
X108352935Y-88901054D01*
X108358942Y-88899240D01*
X108358949Y-88899239D01*
X108358955Y-88899236D01*
X108638605Y-88812670D01*
X108676194Y-88796869D01*
X108714021Y-88781586D01*
X108719569Y-88778636D01*
X108977085Y-88639397D01*
X109010930Y-88616568D01*
X109045024Y-88594258D01*
X109049894Y-88590287D01*
X109208764Y-88458858D01*
X120423344Y-88458858D01*
X120448125Y-88593880D01*
X120498660Y-88721517D01*
X120573024Y-88836907D01*
X120668385Y-88935656D01*
X120781110Y-89014002D01*
X120906905Y-89068961D01*
X121040980Y-89098439D01*
X121178227Y-89101314D01*
X121313419Y-89077476D01*
X121441405Y-89027833D01*
X121557312Y-88954277D01*
X121656724Y-88859608D01*
X121735855Y-88747432D01*
X121791691Y-88622023D01*
X121822105Y-88488158D01*
X121824294Y-88331361D01*
X121797630Y-88196699D01*
X121745318Y-88069780D01*
X121669350Y-87955439D01*
X121572620Y-87858031D01*
X121458812Y-87781267D01*
X121332261Y-87728070D01*
X121197788Y-87700466D01*
X121060514Y-87699508D01*
X120925669Y-87725231D01*
X120798388Y-87776656D01*
X120683519Y-87851824D01*
X120585438Y-87947872D01*
X120507881Y-88061141D01*
X120453802Y-88187317D01*
X120425261Y-88321594D01*
X120423344Y-88458858D01*
X109208764Y-88458858D01*
X109275461Y-88403682D01*
X109304220Y-88374722D01*
X109333340Y-88346206D01*
X109337340Y-88341370D01*
X109337345Y-88341365D01*
X109337349Y-88341360D01*
X109522371Y-88114500D01*
X109544947Y-88080521D01*
X109567984Y-88046876D01*
X109570969Y-88041354D01*
X109570972Y-88041350D01*
X109570974Y-88041346D01*
X109708409Y-87782868D01*
X109723957Y-87745146D01*
X109740019Y-87707673D01*
X109741877Y-87701671D01*
X109826491Y-87421417D01*
X109834418Y-87381383D01*
X109842892Y-87341513D01*
X109843549Y-87335264D01*
X109872116Y-87043912D01*
X109872116Y-87025040D01*
X109874220Y-87006283D01*
X109874264Y-87000000D01*
X109874264Y-86458858D01*
X140923344Y-86458858D01*
X140948125Y-86593880D01*
X140998660Y-86721517D01*
X141073024Y-86836907D01*
X141168385Y-86935656D01*
X141281110Y-87014002D01*
X141406905Y-87068961D01*
X141540980Y-87098439D01*
X141678227Y-87101314D01*
X141813419Y-87077476D01*
X141941405Y-87027833D01*
X142057312Y-86954277D01*
X142156724Y-86859608D01*
X142157253Y-86858858D01*
X142923344Y-86858858D01*
X142948125Y-86993880D01*
X142998660Y-87121517D01*
X143073024Y-87236907D01*
X143168385Y-87335656D01*
X143281110Y-87414002D01*
X143406905Y-87468961D01*
X143540980Y-87498439D01*
X143678227Y-87501314D01*
X143813419Y-87477476D01*
X143941405Y-87427833D01*
X144057312Y-87354277D01*
X144156724Y-87259608D01*
X144235855Y-87147432D01*
X144291691Y-87022023D01*
X144322105Y-86888158D01*
X144324294Y-86731361D01*
X144297630Y-86596699D01*
X144245318Y-86469780D01*
X144169350Y-86355439D01*
X144072620Y-86258031D01*
X143958812Y-86181267D01*
X143832261Y-86128070D01*
X143697788Y-86100466D01*
X143560514Y-86099508D01*
X143425669Y-86125231D01*
X143298388Y-86176656D01*
X143183519Y-86251824D01*
X143085438Y-86347872D01*
X143007881Y-86461141D01*
X142953802Y-86587317D01*
X142925261Y-86721594D01*
X142923344Y-86858858D01*
X142157253Y-86858858D01*
X142235855Y-86747432D01*
X142291691Y-86622023D01*
X142322105Y-86488158D01*
X142324294Y-86331361D01*
X142297630Y-86196699D01*
X142245318Y-86069780D01*
X142169350Y-85955439D01*
X142072620Y-85858031D01*
X141958812Y-85781267D01*
X141832261Y-85728070D01*
X141697788Y-85700466D01*
X141560514Y-85699508D01*
X141425669Y-85725231D01*
X141298388Y-85776656D01*
X141183519Y-85851824D01*
X141085438Y-85947872D01*
X141007881Y-86061141D01*
X140953802Y-86187317D01*
X140925261Y-86321594D01*
X140923344Y-86458858D01*
X109874264Y-86458858D01*
X109874264Y-85658858D01*
X138923344Y-85658858D01*
X138948125Y-85793880D01*
X138998660Y-85921517D01*
X139073024Y-86036907D01*
X139168385Y-86135656D01*
X139281110Y-86214002D01*
X139406905Y-86268961D01*
X139540980Y-86298439D01*
X139678227Y-86301314D01*
X139813419Y-86277476D01*
X139941405Y-86227833D01*
X140057312Y-86154277D01*
X140156724Y-86059608D01*
X140235855Y-85947432D01*
X140291691Y-85822023D01*
X140322105Y-85688158D01*
X140324294Y-85531361D01*
X140297630Y-85396699D01*
X140245318Y-85269780D01*
X140169350Y-85155439D01*
X140072620Y-85058031D01*
X139958812Y-84981267D01*
X139832261Y-84928070D01*
X139697788Y-84900466D01*
X139560514Y-84899508D01*
X139425669Y-84925231D01*
X139298388Y-84976656D01*
X139183519Y-85051824D01*
X139085438Y-85147872D01*
X139007881Y-85261141D01*
X138953802Y-85387317D01*
X138925261Y-85521594D01*
X138923344Y-85658858D01*
X109874264Y-85658858D01*
X109874264Y-84858858D01*
X118223344Y-84858858D01*
X118248125Y-84993880D01*
X118298660Y-85121517D01*
X118373024Y-85236907D01*
X118468385Y-85335656D01*
X118581110Y-85414002D01*
X118706905Y-85468961D01*
X118840980Y-85498439D01*
X118978227Y-85501314D01*
X119113419Y-85477476D01*
X119241405Y-85427833D01*
X119357312Y-85354277D01*
X119456724Y-85259608D01*
X119535855Y-85147432D01*
X119591691Y-85022023D01*
X119622105Y-84888158D01*
X119622514Y-84858858D01*
X122423344Y-84858858D01*
X122448125Y-84993880D01*
X122498660Y-85121517D01*
X122573024Y-85236907D01*
X122668385Y-85335656D01*
X122781110Y-85414002D01*
X122906905Y-85468961D01*
X123040980Y-85498439D01*
X123178227Y-85501314D01*
X123313419Y-85477476D01*
X123441405Y-85427833D01*
X123557312Y-85354277D01*
X123656724Y-85259608D01*
X123735855Y-85147432D01*
X123791691Y-85022023D01*
X123806042Y-84958858D01*
X132723344Y-84958858D01*
X132748125Y-85093880D01*
X132798660Y-85221517D01*
X132873024Y-85336907D01*
X132968385Y-85435656D01*
X133081110Y-85514002D01*
X133206905Y-85568961D01*
X133340980Y-85598439D01*
X133478227Y-85601314D01*
X133613419Y-85577476D01*
X133741405Y-85527833D01*
X133857312Y-85454277D01*
X133956724Y-85359608D01*
X134035855Y-85247432D01*
X134091691Y-85122023D01*
X134122105Y-84988158D01*
X134124294Y-84831361D01*
X134097630Y-84696699D01*
X134045318Y-84569780D01*
X133969350Y-84455439D01*
X133872620Y-84358031D01*
X133758812Y-84281267D01*
X133632261Y-84228070D01*
X133497788Y-84200466D01*
X133360514Y-84199508D01*
X133225669Y-84225231D01*
X133098388Y-84276656D01*
X132983519Y-84351824D01*
X132885438Y-84447872D01*
X132807881Y-84561141D01*
X132753802Y-84687317D01*
X132725261Y-84821594D01*
X132723344Y-84958858D01*
X123806042Y-84958858D01*
X123822105Y-84888158D01*
X123824294Y-84731361D01*
X123797630Y-84596699D01*
X123745318Y-84469780D01*
X123669350Y-84355439D01*
X123572620Y-84258031D01*
X123458812Y-84181267D01*
X123332261Y-84128070D01*
X123197788Y-84100466D01*
X123060514Y-84099508D01*
X122925669Y-84125231D01*
X122798388Y-84176656D01*
X122683519Y-84251824D01*
X122585438Y-84347872D01*
X122507881Y-84461141D01*
X122453802Y-84587317D01*
X122425261Y-84721594D01*
X122423344Y-84858858D01*
X119622514Y-84858858D01*
X119624294Y-84731361D01*
X119597630Y-84596699D01*
X119545318Y-84469780D01*
X119469350Y-84355439D01*
X119433531Y-84319369D01*
X119457312Y-84304277D01*
X119556724Y-84209608D01*
X119635855Y-84097432D01*
X119691691Y-83972023D01*
X119722105Y-83838158D01*
X119724294Y-83681361D01*
X119697630Y-83546699D01*
X119645318Y-83419780D01*
X119569350Y-83305439D01*
X119523094Y-83258858D01*
X140523344Y-83258858D01*
X140548125Y-83393880D01*
X140598660Y-83521517D01*
X140673024Y-83636907D01*
X140768385Y-83735656D01*
X140881110Y-83814002D01*
X141006905Y-83868961D01*
X141140980Y-83898439D01*
X141278227Y-83901314D01*
X141413419Y-83877476D01*
X141541405Y-83827833D01*
X141657312Y-83754277D01*
X141756724Y-83659608D01*
X141835855Y-83547432D01*
X141891691Y-83422023D01*
X141922105Y-83288158D01*
X141924294Y-83131361D01*
X141897630Y-82996699D01*
X141845318Y-82869780D01*
X141769350Y-82755439D01*
X141672620Y-82658031D01*
X141558812Y-82581267D01*
X141432261Y-82528070D01*
X141297788Y-82500466D01*
X141160514Y-82499508D01*
X141025669Y-82525231D01*
X140898388Y-82576656D01*
X140783519Y-82651824D01*
X140685438Y-82747872D01*
X140607881Y-82861141D01*
X140553802Y-82987317D01*
X140525261Y-83121594D01*
X140523344Y-83258858D01*
X119523094Y-83258858D01*
X119472620Y-83208031D01*
X119358812Y-83131267D01*
X119232261Y-83078070D01*
X119097788Y-83050466D01*
X118960514Y-83049508D01*
X118825669Y-83075231D01*
X118698388Y-83126656D01*
X118583519Y-83201824D01*
X118485438Y-83297872D01*
X118407881Y-83411141D01*
X118353802Y-83537317D01*
X118325261Y-83671594D01*
X118323344Y-83808858D01*
X118348125Y-83943880D01*
X118398660Y-84071517D01*
X118473024Y-84186907D01*
X118515502Y-84230895D01*
X118483519Y-84251824D01*
X118385438Y-84347872D01*
X118307881Y-84461141D01*
X118253802Y-84587317D01*
X118225261Y-84721594D01*
X118223344Y-84858858D01*
X109874264Y-84858858D01*
X109874264Y-82058858D01*
X119923344Y-82058858D01*
X119948125Y-82193880D01*
X119998660Y-82321517D01*
X120073024Y-82436907D01*
X120168385Y-82535656D01*
X120281110Y-82614002D01*
X120406905Y-82668961D01*
X120540980Y-82698439D01*
X120678227Y-82701314D01*
X120813419Y-82677476D01*
X120941405Y-82627833D01*
X121057312Y-82554277D01*
X121156724Y-82459608D01*
X121235855Y-82347432D01*
X121291691Y-82222023D01*
X121322105Y-82088158D01*
X121324294Y-81931361D01*
X121297630Y-81796699D01*
X121245318Y-81669780D01*
X121169350Y-81555439D01*
X121072620Y-81458031D01*
X120958812Y-81381267D01*
X120832261Y-81328070D01*
X120697788Y-81300466D01*
X120560514Y-81299508D01*
X120425669Y-81325231D01*
X120298388Y-81376656D01*
X120183519Y-81451824D01*
X120085438Y-81547872D01*
X120007881Y-81661141D01*
X119953802Y-81787317D01*
X119925261Y-81921594D01*
X119923344Y-82058858D01*
X109874264Y-82058858D01*
X109874264Y-81058858D01*
X126523344Y-81058858D01*
X126548125Y-81193880D01*
X126598660Y-81321517D01*
X126673024Y-81436907D01*
X126768385Y-81535656D01*
X126881110Y-81614002D01*
X127006905Y-81668961D01*
X127140980Y-81698439D01*
X127278227Y-81701314D01*
X127413419Y-81677476D01*
X127461418Y-81658858D01*
X130723344Y-81658858D01*
X130748125Y-81793880D01*
X130798660Y-81921517D01*
X130873024Y-82036907D01*
X130968385Y-82135656D01*
X131081110Y-82214002D01*
X131206905Y-82268961D01*
X131330172Y-82296063D01*
X131348125Y-82393880D01*
X131398660Y-82521517D01*
X131473024Y-82636907D01*
X131568385Y-82735656D01*
X131681110Y-82814002D01*
X131806905Y-82868961D01*
X131940980Y-82898439D01*
X132078227Y-82901314D01*
X132213419Y-82877476D01*
X132341405Y-82827833D01*
X132457312Y-82754277D01*
X132556724Y-82659608D01*
X132635855Y-82547432D01*
X132691691Y-82422023D01*
X132722105Y-82288158D01*
X132724294Y-82131361D01*
X132697630Y-81996699D01*
X132645318Y-81869780D01*
X132569350Y-81755439D01*
X132472620Y-81658031D01*
X132358812Y-81581267D01*
X132232261Y-81528070D01*
X132119040Y-81504829D01*
X132097630Y-81396699D01*
X132045318Y-81269780D01*
X131969350Y-81155439D01*
X131872620Y-81058031D01*
X131758812Y-80981267D01*
X131632261Y-80928070D01*
X131497788Y-80900466D01*
X131360514Y-80899508D01*
X131225669Y-80925231D01*
X131098388Y-80976656D01*
X130983519Y-81051824D01*
X130885438Y-81147872D01*
X130807881Y-81261141D01*
X130753802Y-81387317D01*
X130725261Y-81521594D01*
X130723344Y-81658858D01*
X127461418Y-81658858D01*
X127541405Y-81627833D01*
X127657312Y-81554277D01*
X127756724Y-81459608D01*
X127835855Y-81347432D01*
X127891691Y-81222023D01*
X127922105Y-81088158D01*
X127924294Y-80931361D01*
X127897630Y-80796699D01*
X127845318Y-80669780D01*
X127769350Y-80555439D01*
X127672620Y-80458031D01*
X127558812Y-80381267D01*
X127432261Y-80328070D01*
X127297788Y-80300466D01*
X127160514Y-80299508D01*
X127025669Y-80325231D01*
X126898388Y-80376656D01*
X126783519Y-80451824D01*
X126685438Y-80547872D01*
X126607881Y-80661141D01*
X126553802Y-80787317D01*
X126525261Y-80921594D01*
X126523344Y-81058858D01*
X109874264Y-81058858D01*
X109874264Y-80058858D01*
X129723344Y-80058858D01*
X129748125Y-80193880D01*
X129798660Y-80321517D01*
X129873024Y-80436907D01*
X129968385Y-80535656D01*
X130081110Y-80614002D01*
X130206905Y-80668961D01*
X130340980Y-80698439D01*
X130478227Y-80701314D01*
X130613419Y-80677476D01*
X130741405Y-80627833D01*
X130857312Y-80554277D01*
X130956724Y-80459608D01*
X131035855Y-80347432D01*
X131091691Y-80222023D01*
X131122105Y-80088158D01*
X131124294Y-79931361D01*
X131097630Y-79796699D01*
X131045318Y-79669780D01*
X131038062Y-79658858D01*
X144123344Y-79658858D01*
X144148125Y-79793880D01*
X144198660Y-79921517D01*
X144273024Y-80036907D01*
X144368385Y-80135656D01*
X144481110Y-80214002D01*
X144606905Y-80268961D01*
X144740980Y-80298439D01*
X144878227Y-80301314D01*
X145013419Y-80277476D01*
X145141405Y-80227833D01*
X145257312Y-80154277D01*
X145356724Y-80059608D01*
X145435855Y-79947432D01*
X145491691Y-79822023D01*
X145522105Y-79688158D01*
X145524294Y-79531361D01*
X145497630Y-79396699D01*
X145445318Y-79269780D01*
X145369350Y-79155439D01*
X145272620Y-79058031D01*
X145158812Y-78981267D01*
X145032261Y-78928070D01*
X144897788Y-78900466D01*
X144760514Y-78899508D01*
X144625669Y-78925231D01*
X144498388Y-78976656D01*
X144383519Y-79051824D01*
X144285438Y-79147872D01*
X144207881Y-79261141D01*
X144153802Y-79387317D01*
X144125261Y-79521594D01*
X144123344Y-79658858D01*
X131038062Y-79658858D01*
X130969350Y-79555439D01*
X130872620Y-79458031D01*
X130758812Y-79381267D01*
X130632261Y-79328070D01*
X130497788Y-79300466D01*
X130360514Y-79299508D01*
X130225669Y-79325231D01*
X130098388Y-79376656D01*
X129983519Y-79451824D01*
X129885438Y-79547872D01*
X129807881Y-79661141D01*
X129753802Y-79787317D01*
X129725261Y-79921594D01*
X129723344Y-80058858D01*
X109874264Y-80058858D01*
X109874264Y-78558858D01*
X123123344Y-78558858D01*
X123148125Y-78693880D01*
X123198660Y-78821517D01*
X123273024Y-78936907D01*
X123368385Y-79035656D01*
X123481110Y-79114002D01*
X123606905Y-79168961D01*
X123740980Y-79198439D01*
X123878227Y-79201314D01*
X124013419Y-79177476D01*
X124141405Y-79127833D01*
X124257312Y-79054277D01*
X124356724Y-78959608D01*
X124435855Y-78847432D01*
X124491691Y-78722023D01*
X124522105Y-78588158D01*
X124522514Y-78558858D01*
X125223344Y-78558858D01*
X125248125Y-78693880D01*
X125298660Y-78821517D01*
X125373024Y-78936907D01*
X125468385Y-79035656D01*
X125581110Y-79114002D01*
X125706905Y-79168961D01*
X125840980Y-79198439D01*
X125978227Y-79201314D01*
X126113419Y-79177476D01*
X126241405Y-79127833D01*
X126357312Y-79054277D01*
X126456724Y-78959608D01*
X126527794Y-78858858D01*
X132223344Y-78858858D01*
X132248125Y-78993880D01*
X132298660Y-79121517D01*
X132373024Y-79236907D01*
X132468385Y-79335656D01*
X132581110Y-79414002D01*
X132706905Y-79468961D01*
X132840980Y-79498439D01*
X132978227Y-79501314D01*
X133113419Y-79477476D01*
X133241405Y-79427833D01*
X133357312Y-79354277D01*
X133456724Y-79259608D01*
X133535855Y-79147432D01*
X133591691Y-79022023D01*
X133622105Y-78888158D01*
X133623910Y-78758858D01*
X136023344Y-78758858D01*
X136048125Y-78893880D01*
X136098660Y-79021517D01*
X136173024Y-79136907D01*
X136268385Y-79235656D01*
X136381110Y-79314002D01*
X136506905Y-79368961D01*
X136640980Y-79398439D01*
X136778227Y-79401314D01*
X136913419Y-79377476D01*
X137041405Y-79327833D01*
X137157312Y-79254277D01*
X137256724Y-79159608D01*
X137335855Y-79047432D01*
X137391691Y-78922023D01*
X137422105Y-78788158D01*
X137424294Y-78631361D01*
X137397630Y-78496699D01*
X137345318Y-78369780D01*
X137269350Y-78255439D01*
X137172620Y-78158031D01*
X137058812Y-78081267D01*
X136932261Y-78028070D01*
X136797788Y-78000466D01*
X136660514Y-77999508D01*
X136525669Y-78025231D01*
X136398388Y-78076656D01*
X136283519Y-78151824D01*
X136185438Y-78247872D01*
X136107881Y-78361141D01*
X136053802Y-78487317D01*
X136025261Y-78621594D01*
X136023344Y-78758858D01*
X133623910Y-78758858D01*
X133624294Y-78731361D01*
X133597630Y-78596699D01*
X133545318Y-78469780D01*
X133469350Y-78355439D01*
X133372620Y-78258031D01*
X133258812Y-78181267D01*
X133132261Y-78128070D01*
X132997788Y-78100466D01*
X132860514Y-78099508D01*
X132725669Y-78125231D01*
X132598388Y-78176656D01*
X132483519Y-78251824D01*
X132385438Y-78347872D01*
X132307881Y-78461141D01*
X132253802Y-78587317D01*
X132225261Y-78721594D01*
X132223344Y-78858858D01*
X126527794Y-78858858D01*
X126535855Y-78847432D01*
X126591691Y-78722023D01*
X126622105Y-78588158D01*
X126624294Y-78431361D01*
X126597630Y-78296699D01*
X126545318Y-78169780D01*
X126469350Y-78055439D01*
X126372620Y-77958031D01*
X126258812Y-77881267D01*
X126132261Y-77828070D01*
X125997788Y-77800466D01*
X125860514Y-77799508D01*
X125725669Y-77825231D01*
X125598388Y-77876656D01*
X125483519Y-77951824D01*
X125385438Y-78047872D01*
X125307881Y-78161141D01*
X125253802Y-78287317D01*
X125225261Y-78421594D01*
X125223344Y-78558858D01*
X124522514Y-78558858D01*
X124524294Y-78431361D01*
X124497630Y-78296699D01*
X124445318Y-78169780D01*
X124369350Y-78055439D01*
X124272620Y-77958031D01*
X124158812Y-77881267D01*
X124032261Y-77828070D01*
X123897788Y-77800466D01*
X123760514Y-77799508D01*
X123625669Y-77825231D01*
X123498388Y-77876656D01*
X123383519Y-77951824D01*
X123285438Y-78047872D01*
X123207881Y-78161141D01*
X123153802Y-78287317D01*
X123125261Y-78421594D01*
X123123344Y-78558858D01*
X109874264Y-78558858D01*
X109874264Y-76458858D01*
X122973344Y-76458858D01*
X122998125Y-76593880D01*
X123048660Y-76721517D01*
X123123024Y-76836907D01*
X123218385Y-76935656D01*
X123331110Y-77014002D01*
X123456905Y-77068961D01*
X123590980Y-77098439D01*
X123728227Y-77101314D01*
X123863419Y-77077476D01*
X123991405Y-77027833D01*
X124107312Y-76954277D01*
X124206724Y-76859608D01*
X124285855Y-76747432D01*
X124341691Y-76622023D01*
X124372105Y-76488158D01*
X124374294Y-76331361D01*
X124347630Y-76196699D01*
X124295318Y-76069780D01*
X124219350Y-75955439D01*
X124122620Y-75858031D01*
X124008812Y-75781267D01*
X123882261Y-75728070D01*
X123747788Y-75700466D01*
X123610514Y-75699508D01*
X123475669Y-75725231D01*
X123348388Y-75776656D01*
X123233519Y-75851824D01*
X123135438Y-75947872D01*
X123057881Y-76061141D01*
X123003802Y-76187317D01*
X122975261Y-76321594D01*
X122973344Y-76458858D01*
X109874264Y-76458858D01*
X109874264Y-71900000D01*
X110574264Y-71900000D01*
X110574264Y-73700000D01*
X110585289Y-73756444D01*
X110618198Y-73806066D01*
X111973635Y-75161503D01*
X111885438Y-75247872D01*
X111807881Y-75361141D01*
X111753802Y-75487317D01*
X111725261Y-75621594D01*
X111723344Y-75758858D01*
X111748125Y-75893880D01*
X111798660Y-76021517D01*
X111873024Y-76136907D01*
X111968385Y-76235656D01*
X112081110Y-76314002D01*
X112206905Y-76368961D01*
X112340980Y-76398439D01*
X112478227Y-76401314D01*
X112613419Y-76377476D01*
X112741405Y-76327833D01*
X112857312Y-76254277D01*
X112956724Y-76159608D01*
X113035855Y-76047432D01*
X113091691Y-75922023D01*
X113122105Y-75788158D01*
X113124294Y-75631361D01*
X113108184Y-75550000D01*
X115424264Y-75550000D01*
X115476847Y-75540481D01*
X115527359Y-75508956D01*
X115561627Y-75460262D01*
X115574250Y-75402072D01*
X115563239Y-75343556D01*
X115530330Y-75293934D01*
X115395254Y-75158858D01*
X125723344Y-75158858D01*
X125748125Y-75293880D01*
X125798660Y-75421517D01*
X125873024Y-75536907D01*
X125968385Y-75635656D01*
X126081110Y-75714002D01*
X126206905Y-75768961D01*
X126340980Y-75798439D01*
X126478227Y-75801314D01*
X126613419Y-75777476D01*
X126741405Y-75727833D01*
X126857312Y-75654277D01*
X126956724Y-75559608D01*
X127035855Y-75447432D01*
X127091691Y-75322023D01*
X127120822Y-75193803D01*
X127213419Y-75177476D01*
X127341405Y-75127833D01*
X127457312Y-75054277D01*
X127556724Y-74959608D01*
X127635855Y-74847432D01*
X127691691Y-74722023D01*
X127722105Y-74588158D01*
X127724294Y-74431361D01*
X127697630Y-74296699D01*
X127645318Y-74169780D01*
X127569350Y-74055439D01*
X127472620Y-73958031D01*
X127358812Y-73881267D01*
X127232261Y-73828070D01*
X127097788Y-73800466D01*
X126960514Y-73799508D01*
X126825669Y-73825231D01*
X126698388Y-73876656D01*
X126583519Y-73951824D01*
X126485438Y-74047872D01*
X126407881Y-74161141D01*
X126353802Y-74287317D01*
X126328664Y-74405584D01*
X126225669Y-74425231D01*
X126098388Y-74476656D01*
X125983519Y-74551824D01*
X125885438Y-74647872D01*
X125807881Y-74761141D01*
X125753802Y-74887317D01*
X125725261Y-75021594D01*
X125723344Y-75158858D01*
X115395254Y-75158858D01*
X115030330Y-74793934D01*
X114982622Y-74761818D01*
X114924264Y-74750000D01*
X112686396Y-74750000D01*
X111274264Y-73337868D01*
X111274264Y-72262132D01*
X111986396Y-71550000D01*
X113162132Y-71550000D01*
X114674264Y-73062132D01*
X114674264Y-73500000D01*
X114685289Y-73556444D01*
X114718198Y-73606066D01*
X116018198Y-74906066D01*
X116064002Y-74937363D01*
X116122192Y-74949986D01*
X116180708Y-74938975D01*
X116230330Y-74906066D01*
X116330330Y-74806066D01*
X116361627Y-74760262D01*
X116374250Y-74702072D01*
X116363239Y-74643556D01*
X116330330Y-74593934D01*
X115695254Y-73958858D01*
X124623344Y-73958858D01*
X124648125Y-74093880D01*
X124698660Y-74221517D01*
X124773024Y-74336907D01*
X124868385Y-74435656D01*
X124981110Y-74514002D01*
X125106905Y-74568961D01*
X125240980Y-74598439D01*
X125378227Y-74601314D01*
X125513419Y-74577476D01*
X125641405Y-74527833D01*
X125757312Y-74454277D01*
X125856724Y-74359608D01*
X125935855Y-74247432D01*
X125991691Y-74122023D01*
X126022105Y-73988158D01*
X126024294Y-73831361D01*
X125997630Y-73696699D01*
X125945318Y-73569780D01*
X125869350Y-73455439D01*
X125772620Y-73358031D01*
X125658812Y-73281267D01*
X125532261Y-73228070D01*
X125397788Y-73200466D01*
X125260514Y-73199508D01*
X125125669Y-73225231D01*
X124998388Y-73276656D01*
X124883519Y-73351824D01*
X124785438Y-73447872D01*
X124707881Y-73561141D01*
X124653802Y-73687317D01*
X124625261Y-73821594D01*
X124623344Y-73958858D01*
X115695254Y-73958858D01*
X115474264Y-73737868D01*
X115474264Y-72700000D01*
X115463239Y-72643556D01*
X115430330Y-72593934D01*
X114695254Y-71858858D01*
X118123344Y-71858858D01*
X118148125Y-71993880D01*
X118198660Y-72121517D01*
X118273024Y-72236907D01*
X118368385Y-72335656D01*
X118481110Y-72414002D01*
X118606905Y-72468961D01*
X118740980Y-72498439D01*
X118878227Y-72501314D01*
X119013419Y-72477476D01*
X119141405Y-72427833D01*
X119257312Y-72354277D01*
X119356724Y-72259608D01*
X119435855Y-72147432D01*
X119491691Y-72022023D01*
X119522105Y-71888158D01*
X119523910Y-71758858D01*
X125223344Y-71758858D01*
X125248125Y-71893880D01*
X125298660Y-72021517D01*
X125373024Y-72136907D01*
X125468385Y-72235656D01*
X125581110Y-72314002D01*
X125706905Y-72368961D01*
X125840980Y-72398439D01*
X125978227Y-72401314D01*
X126113419Y-72377476D01*
X126241405Y-72327833D01*
X126357312Y-72254277D01*
X126456724Y-72159608D01*
X126535855Y-72047432D01*
X126591691Y-71922023D01*
X126622105Y-71788158D01*
X126624294Y-71631361D01*
X126597630Y-71496699D01*
X126545318Y-71369780D01*
X126469350Y-71255439D01*
X126372620Y-71158031D01*
X126258812Y-71081267D01*
X126132261Y-71028070D01*
X125997788Y-71000466D01*
X125860514Y-70999508D01*
X125725669Y-71025231D01*
X125598388Y-71076656D01*
X125483519Y-71151824D01*
X125385438Y-71247872D01*
X125307881Y-71361141D01*
X125253802Y-71487317D01*
X125225261Y-71621594D01*
X125223344Y-71758858D01*
X119523910Y-71758858D01*
X119524294Y-71731361D01*
X119497630Y-71596699D01*
X119445318Y-71469780D01*
X119369350Y-71355439D01*
X119272620Y-71258031D01*
X119158812Y-71181267D01*
X119032261Y-71128070D01*
X118897788Y-71100466D01*
X118760514Y-71099508D01*
X118625669Y-71125231D01*
X118498388Y-71176656D01*
X118383519Y-71251824D01*
X118285438Y-71347872D01*
X118207881Y-71461141D01*
X118153802Y-71587317D01*
X118125261Y-71721594D01*
X118123344Y-71858858D01*
X114695254Y-71858858D01*
X113730330Y-70893934D01*
X113682622Y-70861818D01*
X113624264Y-70850000D01*
X111624264Y-70850000D01*
X111567820Y-70861025D01*
X111518198Y-70893934D01*
X110618198Y-71793934D01*
X110586082Y-71841642D01*
X110574264Y-71900000D01*
X109874264Y-71900000D01*
X109874264Y-70458858D01*
X117123344Y-70458858D01*
X117148125Y-70593880D01*
X117198660Y-70721517D01*
X117273024Y-70836907D01*
X117368385Y-70935656D01*
X117481110Y-71014002D01*
X117606905Y-71068961D01*
X117740980Y-71098439D01*
X117878227Y-71101314D01*
X118013419Y-71077476D01*
X118141405Y-71027833D01*
X118257312Y-70954277D01*
X118356724Y-70859608D01*
X118435855Y-70747432D01*
X118491691Y-70622023D01*
X118522105Y-70488158D01*
X118524294Y-70331361D01*
X118497630Y-70196699D01*
X118480567Y-70155300D01*
X125329274Y-70155300D01*
X125354055Y-70290322D01*
X125404590Y-70417959D01*
X125478954Y-70533349D01*
X125574315Y-70632098D01*
X125687040Y-70710444D01*
X125812835Y-70765403D01*
X125946910Y-70794881D01*
X126084157Y-70797756D01*
X126219349Y-70773918D01*
X126347335Y-70724275D01*
X126463242Y-70650719D01*
X126474556Y-70639945D01*
X126581110Y-70714002D01*
X126706905Y-70768961D01*
X126840980Y-70798439D01*
X126978227Y-70801314D01*
X127113419Y-70777476D01*
X127241405Y-70727833D01*
X127357312Y-70654277D01*
X127456724Y-70559608D01*
X127535855Y-70447432D01*
X127591691Y-70322023D01*
X127622105Y-70188158D01*
X127624294Y-70031361D01*
X127597630Y-69896699D01*
X127545318Y-69769780D01*
X127538062Y-69758858D01*
X142123344Y-69758858D01*
X142148125Y-69893880D01*
X142198660Y-70021517D01*
X142273024Y-70136907D01*
X142368385Y-70235656D01*
X142481110Y-70314002D01*
X142606905Y-70368961D01*
X142740980Y-70398439D01*
X142878227Y-70401314D01*
X143013419Y-70377476D01*
X143141405Y-70327833D01*
X143257312Y-70254277D01*
X143356724Y-70159608D01*
X143435855Y-70047432D01*
X143491691Y-69922023D01*
X143522105Y-69788158D01*
X143524294Y-69631361D01*
X143497630Y-69496699D01*
X143445318Y-69369780D01*
X143369350Y-69255439D01*
X143272620Y-69158031D01*
X143158812Y-69081267D01*
X143032261Y-69028070D01*
X142897788Y-69000466D01*
X142760514Y-68999508D01*
X142625669Y-69025231D01*
X142498388Y-69076656D01*
X142383519Y-69151824D01*
X142285438Y-69247872D01*
X142207881Y-69361141D01*
X142153802Y-69487317D01*
X142125261Y-69621594D01*
X142123344Y-69758858D01*
X127538062Y-69758858D01*
X127469350Y-69655439D01*
X127372620Y-69558031D01*
X127258812Y-69481267D01*
X127132261Y-69428070D01*
X126997788Y-69400466D01*
X126860514Y-69399508D01*
X126725669Y-69425231D01*
X126598388Y-69476656D01*
X126483519Y-69551824D01*
X126479666Y-69555597D01*
X126478550Y-69554473D01*
X126364742Y-69477709D01*
X126238191Y-69424512D01*
X126103718Y-69396908D01*
X125966444Y-69395950D01*
X125831599Y-69421673D01*
X125704318Y-69473098D01*
X125589449Y-69548266D01*
X125491368Y-69644314D01*
X125413811Y-69757583D01*
X125359732Y-69883759D01*
X125331191Y-70018036D01*
X125329274Y-70155300D01*
X118480567Y-70155300D01*
X118445318Y-70069780D01*
X118369350Y-69955439D01*
X118272620Y-69858031D01*
X118158812Y-69781267D01*
X118032261Y-69728070D01*
X117897788Y-69700466D01*
X117760514Y-69699508D01*
X117625669Y-69725231D01*
X117498388Y-69776656D01*
X117383519Y-69851824D01*
X117285438Y-69947872D01*
X117207881Y-70061141D01*
X117153802Y-70187317D01*
X117125261Y-70321594D01*
X117123344Y-70458858D01*
X109874264Y-70458858D01*
X109874264Y-68058858D01*
X141123344Y-68058858D01*
X141148125Y-68193880D01*
X141198660Y-68321517D01*
X141273024Y-68436907D01*
X141368385Y-68535656D01*
X141481110Y-68614002D01*
X141606905Y-68668961D01*
X141740980Y-68698439D01*
X141878227Y-68701314D01*
X142013419Y-68677476D01*
X142141405Y-68627833D01*
X142257312Y-68554277D01*
X142356724Y-68459608D01*
X142435855Y-68347432D01*
X142491691Y-68222023D01*
X142522105Y-68088158D01*
X142524294Y-67931361D01*
X142497630Y-67796699D01*
X142445318Y-67669780D01*
X142369350Y-67555439D01*
X142272620Y-67458031D01*
X142158812Y-67381267D01*
X142032261Y-67328070D01*
X141897788Y-67300466D01*
X141760514Y-67299508D01*
X141625669Y-67325231D01*
X141498388Y-67376656D01*
X141383519Y-67451824D01*
X141285438Y-67547872D01*
X141207881Y-67661141D01*
X141153802Y-67787317D01*
X141125261Y-67921594D01*
X141123344Y-68058858D01*
X109874264Y-68058858D01*
X109874264Y-66858858D01*
X123323344Y-66858858D01*
X123348125Y-66993880D01*
X123398660Y-67121517D01*
X123473024Y-67236907D01*
X123568385Y-67335656D01*
X123681110Y-67414002D01*
X123806905Y-67468961D01*
X123940980Y-67498439D01*
X124078227Y-67501314D01*
X124213419Y-67477476D01*
X124341405Y-67427833D01*
X124457312Y-67354277D01*
X124556724Y-67259608D01*
X124635855Y-67147432D01*
X124691691Y-67022023D01*
X124722105Y-66888158D01*
X124724294Y-66731361D01*
X124697630Y-66596699D01*
X124645318Y-66469780D01*
X124569350Y-66355439D01*
X124472620Y-66258031D01*
X124358812Y-66181267D01*
X124232261Y-66128070D01*
X124097788Y-66100466D01*
X123960514Y-66099508D01*
X123825669Y-66125231D01*
X123698388Y-66176656D01*
X123583519Y-66251824D01*
X123485438Y-66347872D01*
X123407881Y-66461141D01*
X123353802Y-66587317D01*
X123325261Y-66721594D01*
X123323344Y-66858858D01*
X109874264Y-66858858D01*
X109874264Y-62458858D01*
X117923344Y-62458858D01*
X117948125Y-62593880D01*
X117998660Y-62721517D01*
X118073024Y-62836907D01*
X118168385Y-62935656D01*
X118281110Y-63014002D01*
X118406905Y-63068961D01*
X118540980Y-63098439D01*
X118678227Y-63101314D01*
X118813419Y-63077476D01*
X118941405Y-63027833D01*
X119057312Y-62954277D01*
X119156724Y-62859608D01*
X119235855Y-62747432D01*
X119291691Y-62622023D01*
X119322105Y-62488158D01*
X119324294Y-62331361D01*
X119297630Y-62196699D01*
X119245318Y-62069780D01*
X119169350Y-61955439D01*
X119072620Y-61858031D01*
X118958812Y-61781267D01*
X118832261Y-61728070D01*
X118697788Y-61700466D01*
X118560514Y-61699508D01*
X118425669Y-61725231D01*
X118298388Y-61776656D01*
X118183519Y-61851824D01*
X118085438Y-61947872D01*
X118007881Y-62061141D01*
X117953802Y-62187317D01*
X117925261Y-62321594D01*
X117923344Y-62458858D01*
X109874264Y-62458858D01*
X109874264Y-59658858D01*
X131023344Y-59658858D01*
X131048125Y-59793880D01*
X131098660Y-59921517D01*
X131173024Y-60036907D01*
X131268385Y-60135656D01*
X131381110Y-60214002D01*
X131506905Y-60268961D01*
X131640980Y-60298439D01*
X131778227Y-60301314D01*
X131913419Y-60277476D01*
X132041405Y-60227833D01*
X132157312Y-60154277D01*
X132256724Y-60059608D01*
X132335855Y-59947432D01*
X132391691Y-59822023D01*
X132422105Y-59688158D01*
X132424294Y-59531361D01*
X132397630Y-59396699D01*
X132345318Y-59269780D01*
X132269350Y-59155439D01*
X132172620Y-59058031D01*
X132058812Y-58981267D01*
X131932261Y-58928070D01*
X131797788Y-58900466D01*
X131660514Y-58899508D01*
X131525669Y-58925231D01*
X131398388Y-58976656D01*
X131283519Y-59051824D01*
X131185438Y-59147872D01*
X131107881Y-59261141D01*
X131053802Y-59387317D01*
X131025261Y-59521594D01*
X131023344Y-59658858D01*
X109874264Y-59658858D01*
X109874264Y-56522005D01*
X109896377Y-56296477D01*
X109955487Y-56100694D01*
X110051493Y-55920135D01*
X110180745Y-55761656D01*
X110338320Y-55631299D01*
X110518209Y-55534033D01*
X110713563Y-55473560D01*
X110937728Y-55450000D01*
X145902259Y-55450000D01*
X146127787Y-55472113D01*
X146127787Y-55472113D01*
G37*
X146127787Y-55472113D02*
X146323570Y-55531223D01*
X146504129Y-55627229D01*
X146662608Y-55756481D01*
X146792965Y-55914056D01*
X146890231Y-56093945D01*
X146950704Y-56289299D01*
X146974264Y-56513464D01*
X146974264Y-87000000D01*
X146974272Y-87000084D01*
X146974267Y-87001590D01*
X146974304Y-87012062D01*
X146976290Y-87031609D01*
X146976153Y-87051256D01*
X146976766Y-87057509D01*
X147007366Y-87348654D01*
X147015579Y-87388664D01*
X147023210Y-87428671D01*
X147025024Y-87434678D01*
X147025025Y-87434685D01*
X147025026Y-87434687D01*
X147111594Y-87714341D01*
X147127395Y-87751930D01*
X147142678Y-87789757D01*
X147145628Y-87795305D01*
X147284867Y-88052821D01*
X147307696Y-88086666D01*
X147330006Y-88120760D01*
X147333977Y-88125630D01*
X147520582Y-88351197D01*
X147549542Y-88379956D01*
X147578058Y-88409076D01*
X147582894Y-88413076D01*
X147582899Y-88413081D01*
X147582901Y-88413082D01*
X147809764Y-88598107D01*
X147843743Y-88620683D01*
X147877388Y-88643720D01*
X147882910Y-88646705D01*
X147882914Y-88646708D01*
X147882918Y-88646710D01*
X148141396Y-88784145D01*
X148179118Y-88799693D01*
X148216591Y-88815755D01*
X148222593Y-88817613D01*
X148502847Y-88902227D01*
X148542881Y-88910154D01*
X148582751Y-88918628D01*
X148588998Y-88919285D01*
X148589000Y-88919285D01*
X148880352Y-88947852D01*
X148899224Y-88947852D01*
X148917981Y-88949956D01*
X148924264Y-88950000D01*
X149902259Y-88950000D01*
X150127787Y-88972113D01*
X150323570Y-89031223D01*
X150504129Y-89127229D01*
X150662608Y-89256481D01*
X150792965Y-89414056D01*
X150890231Y-89593945D01*
X150950704Y-89789299D01*
X150974264Y-90013464D01*
X150974264Y-98477995D01*
X150952151Y-98703523D01*
X150893041Y-98899304D01*
X150797036Y-99079863D01*
X150667781Y-99238346D01*
X150510208Y-99368701D01*
X150330319Y-99465967D01*
X150134963Y-99526440D01*
X149910800Y-99550000D01*
X131034043Y-99550000D01*
X131035855Y-99547432D01*
X131091691Y-99422023D01*
X131122105Y-99288158D01*
X131124294Y-99131361D01*
X131097630Y-98996699D01*
X131045318Y-98869780D01*
X130969350Y-98755439D01*
X130872620Y-98658031D01*
X130758812Y-98581267D01*
X130632261Y-98528070D01*
X130497788Y-98500466D01*
X130360514Y-98499508D01*
X130225669Y-98525231D01*
X130098388Y-98576656D01*
X129983519Y-98651824D01*
X129885438Y-98747872D01*
X129807881Y-98861141D01*
X129753802Y-98987317D01*
X129725261Y-99121594D01*
X129723344Y-99258858D01*
X129748125Y-99393880D01*
X129798660Y-99521517D01*
X129817016Y-99550000D01*
X127034043Y-99550000D01*
X127035855Y-99547432D01*
X127091691Y-99422023D01*
X127122105Y-99288158D01*
X127124294Y-99131361D01*
X127097630Y-98996699D01*
X127045318Y-98869780D01*
X126969350Y-98755439D01*
X126872620Y-98658031D01*
X126758812Y-98581267D01*
X126632261Y-98528070D01*
X126497788Y-98500466D01*
X126360514Y-98499508D01*
X126225669Y-98525231D01*
X126098388Y-98576656D01*
X125983519Y-98651824D01*
X125885438Y-98747872D01*
X125807881Y-98861141D01*
X125753802Y-98987317D01*
X125725261Y-99121594D01*
X125723344Y-99258858D01*
X125748125Y-99393880D01*
X125798660Y-99521517D01*
X125817016Y-99550000D01*
X106946269Y-99550000D01*
X106720741Y-99527887D01*
X106524960Y-99468777D01*
X106344401Y-99372772D01*
X106185918Y-99243517D01*
X106055563Y-99085944D01*
X105958297Y-98906055D01*
X105897824Y-98710699D01*
X105874264Y-98486536D01*
X105874264Y-97258858D01*
X123923344Y-97258858D01*
X123948125Y-97393880D01*
X123998660Y-97521517D01*
X124073024Y-97636907D01*
X124168385Y-97735656D01*
X124281110Y-97814002D01*
X124406905Y-97868961D01*
X124540980Y-97898439D01*
X124678227Y-97901314D01*
X124813419Y-97877476D01*
X124941405Y-97827833D01*
X125057312Y-97754277D01*
X125156724Y-97659608D01*
X125235855Y-97547432D01*
X125291691Y-97422023D01*
X125322105Y-97288158D01*
X125322514Y-97258858D01*
X131523344Y-97258858D01*
X131548125Y-97393880D01*
X131598660Y-97521517D01*
X131673024Y-97636907D01*
X131768385Y-97735656D01*
X131881110Y-97814002D01*
X132006905Y-97868961D01*
X132140980Y-97898439D01*
X132278227Y-97901314D01*
X132413419Y-97877476D01*
X132541405Y-97827833D01*
X132657312Y-97754277D01*
X132756724Y-97659608D01*
X132835855Y-97547432D01*
X132875290Y-97458858D01*
X134523344Y-97458858D01*
X134548125Y-97593880D01*
X134598660Y-97721517D01*
X134673024Y-97836907D01*
X134768385Y-97935656D01*
X134881110Y-98014002D01*
X135006905Y-98068961D01*
X135140980Y-98098439D01*
X135278227Y-98101314D01*
X135413419Y-98077476D01*
X135541405Y-98027833D01*
X135657312Y-97954277D01*
X135756724Y-97859608D01*
X135835855Y-97747432D01*
X135875290Y-97658858D01*
X138823344Y-97658858D01*
X138848125Y-97793880D01*
X138898660Y-97921517D01*
X138973024Y-98036907D01*
X139068385Y-98135656D01*
X139181110Y-98214002D01*
X139306905Y-98268961D01*
X139440980Y-98298439D01*
X139578227Y-98301314D01*
X139713419Y-98277476D01*
X139841405Y-98227833D01*
X139957312Y-98154277D01*
X140056724Y-98059608D01*
X140135855Y-97947432D01*
X140191691Y-97822023D01*
X140222105Y-97688158D01*
X140224294Y-97531361D01*
X140197630Y-97396699D01*
X140145318Y-97269780D01*
X140069350Y-97155439D01*
X139972620Y-97058031D01*
X139858812Y-96981267D01*
X139732261Y-96928070D01*
X139597788Y-96900466D01*
X139460514Y-96899508D01*
X139325669Y-96925231D01*
X139198388Y-96976656D01*
X139083519Y-97051824D01*
X138985438Y-97147872D01*
X138907881Y-97261141D01*
X138853802Y-97387317D01*
X138825261Y-97521594D01*
X138823344Y-97658858D01*
X135875290Y-97658858D01*
X135891691Y-97622023D01*
X135922105Y-97488158D01*
X135924294Y-97331361D01*
X135897630Y-97196699D01*
X135845318Y-97069780D01*
X135769350Y-96955439D01*
X135672620Y-96858031D01*
X135558812Y-96781267D01*
X135432261Y-96728070D01*
X135297788Y-96700466D01*
X135160514Y-96699508D01*
X135025669Y-96725231D01*
X134898388Y-96776656D01*
X134783519Y-96851824D01*
X134685438Y-96947872D01*
X134607881Y-97061141D01*
X134553802Y-97187317D01*
X134525261Y-97321594D01*
X134523344Y-97458858D01*
X132875290Y-97458858D01*
X132891691Y-97422023D01*
X132922105Y-97288158D01*
X132924294Y-97131361D01*
X132897630Y-96996699D01*
X132845318Y-96869780D01*
X132769350Y-96755439D01*
X132672620Y-96658031D01*
X132558812Y-96581267D01*
X132432261Y-96528070D01*
X132297788Y-96500466D01*
X132160514Y-96499508D01*
X132025669Y-96525231D01*
X131898388Y-96576656D01*
X131783519Y-96651824D01*
X131685438Y-96747872D01*
X131607881Y-96861141D01*
X131553802Y-96987317D01*
X131525261Y-97121594D01*
X131523344Y-97258858D01*
X125322514Y-97258858D01*
X125324294Y-97131361D01*
X125297630Y-96996699D01*
X125245318Y-96869780D01*
X125169350Y-96755439D01*
X125072620Y-96658031D01*
X124958812Y-96581267D01*
X124832261Y-96528070D01*
X124697788Y-96500466D01*
X124560514Y-96499508D01*
X124425669Y-96525231D01*
X124298388Y-96576656D01*
X124183519Y-96651824D01*
X124085438Y-96747872D01*
X124007881Y-96861141D01*
X123953802Y-96987317D01*
X123925261Y-97121594D01*
X123923344Y-97258858D01*
X105874264Y-97258858D01*
X105874264Y-91258858D01*
X138963346Y-91258858D01*
X138988127Y-91393880D01*
X139038662Y-91521517D01*
X139113026Y-91636907D01*
X139208387Y-91735656D01*
X139321112Y-91814002D01*
X139446907Y-91868961D01*
X139580982Y-91898439D01*
X139718229Y-91901314D01*
X139853421Y-91877476D01*
X139981407Y-91827833D01*
X140097314Y-91754277D01*
X140196726Y-91659608D01*
X140275857Y-91547432D01*
X140331693Y-91422023D01*
X140362107Y-91288158D01*
X140364296Y-91131361D01*
X140337632Y-90996699D01*
X140285320Y-90869780D01*
X140209352Y-90755439D01*
X140112622Y-90658031D01*
X139998814Y-90581267D01*
X139872263Y-90528070D01*
X139737790Y-90500466D01*
X139600516Y-90499508D01*
X139465671Y-90525231D01*
X139338390Y-90576656D01*
X139223521Y-90651824D01*
X139125440Y-90747872D01*
X139047883Y-90861141D01*
X138993804Y-90987317D01*
X138965263Y-91121594D01*
X138963346Y-91258858D01*
X105874264Y-91258858D01*
X105874264Y-90022005D01*
X105896377Y-89796477D01*
X105955487Y-89600694D01*
X105977731Y-89558858D01*
X129723344Y-89558858D01*
X129748125Y-89693880D01*
X129798660Y-89821517D01*
X129873024Y-89936907D01*
X129968385Y-90035656D01*
X130081110Y-90114002D01*
X130206905Y-90168961D01*
X130340980Y-90198439D01*
X130478227Y-90201314D01*
X130613419Y-90177476D01*
X130741405Y-90127833D01*
X130857312Y-90054277D01*
X130956724Y-89959608D01*
X131035855Y-89847432D01*
X131091691Y-89722023D01*
X131122105Y-89588158D01*
X131124294Y-89431361D01*
X131097630Y-89296699D01*
X131045318Y-89169780D01*
X130969350Y-89055439D01*
X130872620Y-88958031D01*
X130758812Y-88881267D01*
X130632261Y-88828070D01*
X130497788Y-88800466D01*
X130360514Y-88799508D01*
X130225669Y-88825231D01*
X130098388Y-88876656D01*
X129983519Y-88951824D01*
X129885438Y-89047872D01*
X129807881Y-89161141D01*
X129753802Y-89287317D01*
X129725261Y-89421594D01*
X129723344Y-89558858D01*
X105977731Y-89558858D01*
X106051493Y-89420135D01*
X106180745Y-89261656D01*
X106338320Y-89131299D01*
X106518209Y-89034033D01*
X106713563Y-88973560D01*
X106937728Y-88950000D01*
X107924264Y-88950000D01*
X107924348Y-88949992D01*
X107925854Y-88949997D01*
X107936326Y-88949960D01*
X107955873Y-88947974D01*
X107975520Y-88948111D01*
X107981773Y-88947498D01*
X108272918Y-88916898D01*
X108312928Y-88908685D01*
X108352935Y-88901054D01*
X108358942Y-88899240D01*
X108358949Y-88899239D01*
X108358955Y-88899236D01*
X108638605Y-88812670D01*
X108676194Y-88796869D01*
X108714021Y-88781586D01*
X108719569Y-88778636D01*
X108977085Y-88639397D01*
X109010930Y-88616568D01*
X109045024Y-88594258D01*
X109049894Y-88590287D01*
X109208764Y-88458858D01*
X120423344Y-88458858D01*
X120448125Y-88593880D01*
X120498660Y-88721517D01*
X120573024Y-88836907D01*
X120668385Y-88935656D01*
X120781110Y-89014002D01*
X120906905Y-89068961D01*
X121040980Y-89098439D01*
X121178227Y-89101314D01*
X121313419Y-89077476D01*
X121441405Y-89027833D01*
X121557312Y-88954277D01*
X121656724Y-88859608D01*
X121735855Y-88747432D01*
X121791691Y-88622023D01*
X121822105Y-88488158D01*
X121824294Y-88331361D01*
X121797630Y-88196699D01*
X121745318Y-88069780D01*
X121669350Y-87955439D01*
X121572620Y-87858031D01*
X121458812Y-87781267D01*
X121332261Y-87728070D01*
X121197788Y-87700466D01*
X121060514Y-87699508D01*
X120925669Y-87725231D01*
X120798388Y-87776656D01*
X120683519Y-87851824D01*
X120585438Y-87947872D01*
X120507881Y-88061141D01*
X120453802Y-88187317D01*
X120425261Y-88321594D01*
X120423344Y-88458858D01*
X109208764Y-88458858D01*
X109275461Y-88403682D01*
X109304220Y-88374722D01*
X109333340Y-88346206D01*
X109337340Y-88341370D01*
X109337345Y-88341365D01*
X109337349Y-88341360D01*
X109522371Y-88114500D01*
X109544947Y-88080521D01*
X109567984Y-88046876D01*
X109570969Y-88041354D01*
X109570972Y-88041350D01*
X109570974Y-88041346D01*
X109708409Y-87782868D01*
X109723957Y-87745146D01*
X109740019Y-87707673D01*
X109741877Y-87701671D01*
X109826491Y-87421417D01*
X109834418Y-87381383D01*
X109842892Y-87341513D01*
X109843549Y-87335264D01*
X109872116Y-87043912D01*
X109872116Y-87025040D01*
X109874220Y-87006283D01*
X109874264Y-87000000D01*
X109874264Y-86458858D01*
X140923344Y-86458858D01*
X140948125Y-86593880D01*
X140998660Y-86721517D01*
X141073024Y-86836907D01*
X141168385Y-86935656D01*
X141281110Y-87014002D01*
X141406905Y-87068961D01*
X141540980Y-87098439D01*
X141678227Y-87101314D01*
X141813419Y-87077476D01*
X141941405Y-87027833D01*
X142057312Y-86954277D01*
X142156724Y-86859608D01*
X142157253Y-86858858D01*
X142923344Y-86858858D01*
X142948125Y-86993880D01*
X142998660Y-87121517D01*
X143073024Y-87236907D01*
X143168385Y-87335656D01*
X143281110Y-87414002D01*
X143406905Y-87468961D01*
X143540980Y-87498439D01*
X143678227Y-87501314D01*
X143813419Y-87477476D01*
X143941405Y-87427833D01*
X144057312Y-87354277D01*
X144156724Y-87259608D01*
X144235855Y-87147432D01*
X144291691Y-87022023D01*
X144322105Y-86888158D01*
X144324294Y-86731361D01*
X144297630Y-86596699D01*
X144245318Y-86469780D01*
X144169350Y-86355439D01*
X144072620Y-86258031D01*
X143958812Y-86181267D01*
X143832261Y-86128070D01*
X143697788Y-86100466D01*
X143560514Y-86099508D01*
X143425669Y-86125231D01*
X143298388Y-86176656D01*
X143183519Y-86251824D01*
X143085438Y-86347872D01*
X143007881Y-86461141D01*
X142953802Y-86587317D01*
X142925261Y-86721594D01*
X142923344Y-86858858D01*
X142157253Y-86858858D01*
X142235855Y-86747432D01*
X142291691Y-86622023D01*
X142322105Y-86488158D01*
X142324294Y-86331361D01*
X142297630Y-86196699D01*
X142245318Y-86069780D01*
X142169350Y-85955439D01*
X142072620Y-85858031D01*
X141958812Y-85781267D01*
X141832261Y-85728070D01*
X141697788Y-85700466D01*
X141560514Y-85699508D01*
X141425669Y-85725231D01*
X141298388Y-85776656D01*
X141183519Y-85851824D01*
X141085438Y-85947872D01*
X141007881Y-86061141D01*
X140953802Y-86187317D01*
X140925261Y-86321594D01*
X140923344Y-86458858D01*
X109874264Y-86458858D01*
X109874264Y-85658858D01*
X138923344Y-85658858D01*
X138948125Y-85793880D01*
X138998660Y-85921517D01*
X139073024Y-86036907D01*
X139168385Y-86135656D01*
X139281110Y-86214002D01*
X139406905Y-86268961D01*
X139540980Y-86298439D01*
X139678227Y-86301314D01*
X139813419Y-86277476D01*
X139941405Y-86227833D01*
X140057312Y-86154277D01*
X140156724Y-86059608D01*
X140235855Y-85947432D01*
X140291691Y-85822023D01*
X140322105Y-85688158D01*
X140324294Y-85531361D01*
X140297630Y-85396699D01*
X140245318Y-85269780D01*
X140169350Y-85155439D01*
X140072620Y-85058031D01*
X139958812Y-84981267D01*
X139832261Y-84928070D01*
X139697788Y-84900466D01*
X139560514Y-84899508D01*
X139425669Y-84925231D01*
X139298388Y-84976656D01*
X139183519Y-85051824D01*
X139085438Y-85147872D01*
X139007881Y-85261141D01*
X138953802Y-85387317D01*
X138925261Y-85521594D01*
X138923344Y-85658858D01*
X109874264Y-85658858D01*
X109874264Y-84858858D01*
X118223344Y-84858858D01*
X118248125Y-84993880D01*
X118298660Y-85121517D01*
X118373024Y-85236907D01*
X118468385Y-85335656D01*
X118581110Y-85414002D01*
X118706905Y-85468961D01*
X118840980Y-85498439D01*
X118978227Y-85501314D01*
X119113419Y-85477476D01*
X119241405Y-85427833D01*
X119357312Y-85354277D01*
X119456724Y-85259608D01*
X119535855Y-85147432D01*
X119591691Y-85022023D01*
X119622105Y-84888158D01*
X119622514Y-84858858D01*
X122423344Y-84858858D01*
X122448125Y-84993880D01*
X122498660Y-85121517D01*
X122573024Y-85236907D01*
X122668385Y-85335656D01*
X122781110Y-85414002D01*
X122906905Y-85468961D01*
X123040980Y-85498439D01*
X123178227Y-85501314D01*
X123313419Y-85477476D01*
X123441405Y-85427833D01*
X123557312Y-85354277D01*
X123656724Y-85259608D01*
X123735855Y-85147432D01*
X123791691Y-85022023D01*
X123806042Y-84958858D01*
X132723344Y-84958858D01*
X132748125Y-85093880D01*
X132798660Y-85221517D01*
X132873024Y-85336907D01*
X132968385Y-85435656D01*
X133081110Y-85514002D01*
X133206905Y-85568961D01*
X133340980Y-85598439D01*
X133478227Y-85601314D01*
X133613419Y-85577476D01*
X133741405Y-85527833D01*
X133857312Y-85454277D01*
X133956724Y-85359608D01*
X134035855Y-85247432D01*
X134091691Y-85122023D01*
X134122105Y-84988158D01*
X134124294Y-84831361D01*
X134097630Y-84696699D01*
X134045318Y-84569780D01*
X133969350Y-84455439D01*
X133872620Y-84358031D01*
X133758812Y-84281267D01*
X133632261Y-84228070D01*
X133497788Y-84200466D01*
X133360514Y-84199508D01*
X133225669Y-84225231D01*
X133098388Y-84276656D01*
X132983519Y-84351824D01*
X132885438Y-84447872D01*
X132807881Y-84561141D01*
X132753802Y-84687317D01*
X132725261Y-84821594D01*
X132723344Y-84958858D01*
X123806042Y-84958858D01*
X123822105Y-84888158D01*
X123824294Y-84731361D01*
X123797630Y-84596699D01*
X123745318Y-84469780D01*
X123669350Y-84355439D01*
X123572620Y-84258031D01*
X123458812Y-84181267D01*
X123332261Y-84128070D01*
X123197788Y-84100466D01*
X123060514Y-84099508D01*
X122925669Y-84125231D01*
X122798388Y-84176656D01*
X122683519Y-84251824D01*
X122585438Y-84347872D01*
X122507881Y-84461141D01*
X122453802Y-84587317D01*
X122425261Y-84721594D01*
X122423344Y-84858858D01*
X119622514Y-84858858D01*
X119624294Y-84731361D01*
X119597630Y-84596699D01*
X119545318Y-84469780D01*
X119469350Y-84355439D01*
X119433531Y-84319369D01*
X119457312Y-84304277D01*
X119556724Y-84209608D01*
X119635855Y-84097432D01*
X119691691Y-83972023D01*
X119722105Y-83838158D01*
X119724294Y-83681361D01*
X119697630Y-83546699D01*
X119645318Y-83419780D01*
X119569350Y-83305439D01*
X119523094Y-83258858D01*
X140523344Y-83258858D01*
X140548125Y-83393880D01*
X140598660Y-83521517D01*
X140673024Y-83636907D01*
X140768385Y-83735656D01*
X140881110Y-83814002D01*
X141006905Y-83868961D01*
X141140980Y-83898439D01*
X141278227Y-83901314D01*
X141413419Y-83877476D01*
X141541405Y-83827833D01*
X141657312Y-83754277D01*
X141756724Y-83659608D01*
X141835855Y-83547432D01*
X141891691Y-83422023D01*
X141922105Y-83288158D01*
X141924294Y-83131361D01*
X141897630Y-82996699D01*
X141845318Y-82869780D01*
X141769350Y-82755439D01*
X141672620Y-82658031D01*
X141558812Y-82581267D01*
X141432261Y-82528070D01*
X141297788Y-82500466D01*
X141160514Y-82499508D01*
X141025669Y-82525231D01*
X140898388Y-82576656D01*
X140783519Y-82651824D01*
X140685438Y-82747872D01*
X140607881Y-82861141D01*
X140553802Y-82987317D01*
X140525261Y-83121594D01*
X140523344Y-83258858D01*
X119523094Y-83258858D01*
X119472620Y-83208031D01*
X119358812Y-83131267D01*
X119232261Y-83078070D01*
X119097788Y-83050466D01*
X118960514Y-83049508D01*
X118825669Y-83075231D01*
X118698388Y-83126656D01*
X118583519Y-83201824D01*
X118485438Y-83297872D01*
X118407881Y-83411141D01*
X118353802Y-83537317D01*
X118325261Y-83671594D01*
X118323344Y-83808858D01*
X118348125Y-83943880D01*
X118398660Y-84071517D01*
X118473024Y-84186907D01*
X118515502Y-84230895D01*
X118483519Y-84251824D01*
X118385438Y-84347872D01*
X118307881Y-84461141D01*
X118253802Y-84587317D01*
X118225261Y-84721594D01*
X118223344Y-84858858D01*
X109874264Y-84858858D01*
X109874264Y-82058858D01*
X119923344Y-82058858D01*
X119948125Y-82193880D01*
X119998660Y-82321517D01*
X120073024Y-82436907D01*
X120168385Y-82535656D01*
X120281110Y-82614002D01*
X120406905Y-82668961D01*
X120540980Y-82698439D01*
X120678227Y-82701314D01*
X120813419Y-82677476D01*
X120941405Y-82627833D01*
X121057312Y-82554277D01*
X121156724Y-82459608D01*
X121235855Y-82347432D01*
X121291691Y-82222023D01*
X121322105Y-82088158D01*
X121324294Y-81931361D01*
X121297630Y-81796699D01*
X121245318Y-81669780D01*
X121169350Y-81555439D01*
X121072620Y-81458031D01*
X120958812Y-81381267D01*
X120832261Y-81328070D01*
X120697788Y-81300466D01*
X120560514Y-81299508D01*
X120425669Y-81325231D01*
X120298388Y-81376656D01*
X120183519Y-81451824D01*
X120085438Y-81547872D01*
X120007881Y-81661141D01*
X119953802Y-81787317D01*
X119925261Y-81921594D01*
X119923344Y-82058858D01*
X109874264Y-82058858D01*
X109874264Y-81058858D01*
X126523344Y-81058858D01*
X126548125Y-81193880D01*
X126598660Y-81321517D01*
X126673024Y-81436907D01*
X126768385Y-81535656D01*
X126881110Y-81614002D01*
X127006905Y-81668961D01*
X127140980Y-81698439D01*
X127278227Y-81701314D01*
X127413419Y-81677476D01*
X127461418Y-81658858D01*
X130723344Y-81658858D01*
X130748125Y-81793880D01*
X130798660Y-81921517D01*
X130873024Y-82036907D01*
X130968385Y-82135656D01*
X131081110Y-82214002D01*
X131206905Y-82268961D01*
X131330172Y-82296063D01*
X131348125Y-82393880D01*
X131398660Y-82521517D01*
X131473024Y-82636907D01*
X131568385Y-82735656D01*
X131681110Y-82814002D01*
X131806905Y-82868961D01*
X131940980Y-82898439D01*
X132078227Y-82901314D01*
X132213419Y-82877476D01*
X132341405Y-82827833D01*
X132457312Y-82754277D01*
X132556724Y-82659608D01*
X132635855Y-82547432D01*
X132691691Y-82422023D01*
X132722105Y-82288158D01*
X132724294Y-82131361D01*
X132697630Y-81996699D01*
X132645318Y-81869780D01*
X132569350Y-81755439D01*
X132472620Y-81658031D01*
X132358812Y-81581267D01*
X132232261Y-81528070D01*
X132119040Y-81504829D01*
X132097630Y-81396699D01*
X132045318Y-81269780D01*
X131969350Y-81155439D01*
X131872620Y-81058031D01*
X131758812Y-80981267D01*
X131632261Y-80928070D01*
X131497788Y-80900466D01*
X131360514Y-80899508D01*
X131225669Y-80925231D01*
X131098388Y-80976656D01*
X130983519Y-81051824D01*
X130885438Y-81147872D01*
X130807881Y-81261141D01*
X130753802Y-81387317D01*
X130725261Y-81521594D01*
X130723344Y-81658858D01*
X127461418Y-81658858D01*
X127541405Y-81627833D01*
X127657312Y-81554277D01*
X127756724Y-81459608D01*
X127835855Y-81347432D01*
X127891691Y-81222023D01*
X127922105Y-81088158D01*
X127924294Y-80931361D01*
X127897630Y-80796699D01*
X127845318Y-80669780D01*
X127769350Y-80555439D01*
X127672620Y-80458031D01*
X127558812Y-80381267D01*
X127432261Y-80328070D01*
X127297788Y-80300466D01*
X127160514Y-80299508D01*
X127025669Y-80325231D01*
X126898388Y-80376656D01*
X126783519Y-80451824D01*
X126685438Y-80547872D01*
X126607881Y-80661141D01*
X126553802Y-80787317D01*
X126525261Y-80921594D01*
X126523344Y-81058858D01*
X109874264Y-81058858D01*
X109874264Y-80058858D01*
X129723344Y-80058858D01*
X129748125Y-80193880D01*
X129798660Y-80321517D01*
X129873024Y-80436907D01*
X129968385Y-80535656D01*
X130081110Y-80614002D01*
X130206905Y-80668961D01*
X130340980Y-80698439D01*
X130478227Y-80701314D01*
X130613419Y-80677476D01*
X130741405Y-80627833D01*
X130857312Y-80554277D01*
X130956724Y-80459608D01*
X131035855Y-80347432D01*
X131091691Y-80222023D01*
X131122105Y-80088158D01*
X131124294Y-79931361D01*
X131097630Y-79796699D01*
X131045318Y-79669780D01*
X131038062Y-79658858D01*
X144123344Y-79658858D01*
X144148125Y-79793880D01*
X144198660Y-79921517D01*
X144273024Y-80036907D01*
X144368385Y-80135656D01*
X144481110Y-80214002D01*
X144606905Y-80268961D01*
X144740980Y-80298439D01*
X144878227Y-80301314D01*
X145013419Y-80277476D01*
X145141405Y-80227833D01*
X145257312Y-80154277D01*
X145356724Y-80059608D01*
X145435855Y-79947432D01*
X145491691Y-79822023D01*
X145522105Y-79688158D01*
X145524294Y-79531361D01*
X145497630Y-79396699D01*
X145445318Y-79269780D01*
X145369350Y-79155439D01*
X145272620Y-79058031D01*
X145158812Y-78981267D01*
X145032261Y-78928070D01*
X144897788Y-78900466D01*
X144760514Y-78899508D01*
X144625669Y-78925231D01*
X144498388Y-78976656D01*
X144383519Y-79051824D01*
X144285438Y-79147872D01*
X144207881Y-79261141D01*
X144153802Y-79387317D01*
X144125261Y-79521594D01*
X144123344Y-79658858D01*
X131038062Y-79658858D01*
X130969350Y-79555439D01*
X130872620Y-79458031D01*
X130758812Y-79381267D01*
X130632261Y-79328070D01*
X130497788Y-79300466D01*
X130360514Y-79299508D01*
X130225669Y-79325231D01*
X130098388Y-79376656D01*
X129983519Y-79451824D01*
X129885438Y-79547872D01*
X129807881Y-79661141D01*
X129753802Y-79787317D01*
X129725261Y-79921594D01*
X129723344Y-80058858D01*
X109874264Y-80058858D01*
X109874264Y-78558858D01*
X123123344Y-78558858D01*
X123148125Y-78693880D01*
X123198660Y-78821517D01*
X123273024Y-78936907D01*
X123368385Y-79035656D01*
X123481110Y-79114002D01*
X123606905Y-79168961D01*
X123740980Y-79198439D01*
X123878227Y-79201314D01*
X124013419Y-79177476D01*
X124141405Y-79127833D01*
X124257312Y-79054277D01*
X124356724Y-78959608D01*
X124435855Y-78847432D01*
X124491691Y-78722023D01*
X124522105Y-78588158D01*
X124522514Y-78558858D01*
X125223344Y-78558858D01*
X125248125Y-78693880D01*
X125298660Y-78821517D01*
X125373024Y-78936907D01*
X125468385Y-79035656D01*
X125581110Y-79114002D01*
X125706905Y-79168961D01*
X125840980Y-79198439D01*
X125978227Y-79201314D01*
X126113419Y-79177476D01*
X126241405Y-79127833D01*
X126357312Y-79054277D01*
X126456724Y-78959608D01*
X126527794Y-78858858D01*
X132223344Y-78858858D01*
X132248125Y-78993880D01*
X132298660Y-79121517D01*
X132373024Y-79236907D01*
X132468385Y-79335656D01*
X132581110Y-79414002D01*
X132706905Y-79468961D01*
X132840980Y-79498439D01*
X132978227Y-79501314D01*
X133113419Y-79477476D01*
X133241405Y-79427833D01*
X133357312Y-79354277D01*
X133456724Y-79259608D01*
X133535855Y-79147432D01*
X133591691Y-79022023D01*
X133622105Y-78888158D01*
X133623910Y-78758858D01*
X136023344Y-78758858D01*
X136048125Y-78893880D01*
X136098660Y-79021517D01*
X136173024Y-79136907D01*
X136268385Y-79235656D01*
X136381110Y-79314002D01*
X136506905Y-79368961D01*
X136640980Y-79398439D01*
X136778227Y-79401314D01*
X136913419Y-79377476D01*
X137041405Y-79327833D01*
X137157312Y-79254277D01*
X137256724Y-79159608D01*
X137335855Y-79047432D01*
X137391691Y-78922023D01*
X137422105Y-78788158D01*
X137424294Y-78631361D01*
X137397630Y-78496699D01*
X137345318Y-78369780D01*
X137269350Y-78255439D01*
X137172620Y-78158031D01*
X137058812Y-78081267D01*
X136932261Y-78028070D01*
X136797788Y-78000466D01*
X136660514Y-77999508D01*
X136525669Y-78025231D01*
X136398388Y-78076656D01*
X136283519Y-78151824D01*
X136185438Y-78247872D01*
X136107881Y-78361141D01*
X136053802Y-78487317D01*
X136025261Y-78621594D01*
X136023344Y-78758858D01*
X133623910Y-78758858D01*
X133624294Y-78731361D01*
X133597630Y-78596699D01*
X133545318Y-78469780D01*
X133469350Y-78355439D01*
X133372620Y-78258031D01*
X133258812Y-78181267D01*
X133132261Y-78128070D01*
X132997788Y-78100466D01*
X132860514Y-78099508D01*
X132725669Y-78125231D01*
X132598388Y-78176656D01*
X132483519Y-78251824D01*
X132385438Y-78347872D01*
X132307881Y-78461141D01*
X132253802Y-78587317D01*
X132225261Y-78721594D01*
X132223344Y-78858858D01*
X126527794Y-78858858D01*
X126535855Y-78847432D01*
X126591691Y-78722023D01*
X126622105Y-78588158D01*
X126624294Y-78431361D01*
X126597630Y-78296699D01*
X126545318Y-78169780D01*
X126469350Y-78055439D01*
X126372620Y-77958031D01*
X126258812Y-77881267D01*
X126132261Y-77828070D01*
X125997788Y-77800466D01*
X125860514Y-77799508D01*
X125725669Y-77825231D01*
X125598388Y-77876656D01*
X125483519Y-77951824D01*
X125385438Y-78047872D01*
X125307881Y-78161141D01*
X125253802Y-78287317D01*
X125225261Y-78421594D01*
X125223344Y-78558858D01*
X124522514Y-78558858D01*
X124524294Y-78431361D01*
X124497630Y-78296699D01*
X124445318Y-78169780D01*
X124369350Y-78055439D01*
X124272620Y-77958031D01*
X124158812Y-77881267D01*
X124032261Y-77828070D01*
X123897788Y-77800466D01*
X123760514Y-77799508D01*
X123625669Y-77825231D01*
X123498388Y-77876656D01*
X123383519Y-77951824D01*
X123285438Y-78047872D01*
X123207881Y-78161141D01*
X123153802Y-78287317D01*
X123125261Y-78421594D01*
X123123344Y-78558858D01*
X109874264Y-78558858D01*
X109874264Y-76458858D01*
X122973344Y-76458858D01*
X122998125Y-76593880D01*
X123048660Y-76721517D01*
X123123024Y-76836907D01*
X123218385Y-76935656D01*
X123331110Y-77014002D01*
X123456905Y-77068961D01*
X123590980Y-77098439D01*
X123728227Y-77101314D01*
X123863419Y-77077476D01*
X123991405Y-77027833D01*
X124107312Y-76954277D01*
X124206724Y-76859608D01*
X124285855Y-76747432D01*
X124341691Y-76622023D01*
X124372105Y-76488158D01*
X124374294Y-76331361D01*
X124347630Y-76196699D01*
X124295318Y-76069780D01*
X124219350Y-75955439D01*
X124122620Y-75858031D01*
X124008812Y-75781267D01*
X123882261Y-75728070D01*
X123747788Y-75700466D01*
X123610514Y-75699508D01*
X123475669Y-75725231D01*
X123348388Y-75776656D01*
X123233519Y-75851824D01*
X123135438Y-75947872D01*
X123057881Y-76061141D01*
X123003802Y-76187317D01*
X122975261Y-76321594D01*
X122973344Y-76458858D01*
X109874264Y-76458858D01*
X109874264Y-71900000D01*
X110574264Y-71900000D01*
X110574264Y-73700000D01*
X110585289Y-73756444D01*
X110618198Y-73806066D01*
X111973635Y-75161503D01*
X111885438Y-75247872D01*
X111807881Y-75361141D01*
X111753802Y-75487317D01*
X111725261Y-75621594D01*
X111723344Y-75758858D01*
X111748125Y-75893880D01*
X111798660Y-76021517D01*
X111873024Y-76136907D01*
X111968385Y-76235656D01*
X112081110Y-76314002D01*
X112206905Y-76368961D01*
X112340980Y-76398439D01*
X112478227Y-76401314D01*
X112613419Y-76377476D01*
X112741405Y-76327833D01*
X112857312Y-76254277D01*
X112956724Y-76159608D01*
X113035855Y-76047432D01*
X113091691Y-75922023D01*
X113122105Y-75788158D01*
X113124294Y-75631361D01*
X113108184Y-75550000D01*
X115424264Y-75550000D01*
X115476847Y-75540481D01*
X115527359Y-75508956D01*
X115561627Y-75460262D01*
X115574250Y-75402072D01*
X115563239Y-75343556D01*
X115530330Y-75293934D01*
X115395254Y-75158858D01*
X125723344Y-75158858D01*
X125748125Y-75293880D01*
X125798660Y-75421517D01*
X125873024Y-75536907D01*
X125968385Y-75635656D01*
X126081110Y-75714002D01*
X126206905Y-75768961D01*
X126340980Y-75798439D01*
X126478227Y-75801314D01*
X126613419Y-75777476D01*
X126741405Y-75727833D01*
X126857312Y-75654277D01*
X126956724Y-75559608D01*
X127035855Y-75447432D01*
X127091691Y-75322023D01*
X127120822Y-75193803D01*
X127213419Y-75177476D01*
X127341405Y-75127833D01*
X127457312Y-75054277D01*
X127556724Y-74959608D01*
X127635855Y-74847432D01*
X127691691Y-74722023D01*
X127722105Y-74588158D01*
X127724294Y-74431361D01*
X127697630Y-74296699D01*
X127645318Y-74169780D01*
X127569350Y-74055439D01*
X127472620Y-73958031D01*
X127358812Y-73881267D01*
X127232261Y-73828070D01*
X127097788Y-73800466D01*
X126960514Y-73799508D01*
X126825669Y-73825231D01*
X126698388Y-73876656D01*
X126583519Y-73951824D01*
X126485438Y-74047872D01*
X126407881Y-74161141D01*
X126353802Y-74287317D01*
X126328664Y-74405584D01*
X126225669Y-74425231D01*
X126098388Y-74476656D01*
X125983519Y-74551824D01*
X125885438Y-74647872D01*
X125807881Y-74761141D01*
X125753802Y-74887317D01*
X125725261Y-75021594D01*
X125723344Y-75158858D01*
X115395254Y-75158858D01*
X115030330Y-74793934D01*
X114982622Y-74761818D01*
X114924264Y-74750000D01*
X112686396Y-74750000D01*
X111274264Y-73337868D01*
X111274264Y-72262132D01*
X111986396Y-71550000D01*
X113162132Y-71550000D01*
X114674264Y-73062132D01*
X114674264Y-73500000D01*
X114685289Y-73556444D01*
X114718198Y-73606066D01*
X116018198Y-74906066D01*
X116064002Y-74937363D01*
X116122192Y-74949986D01*
X116180708Y-74938975D01*
X116230330Y-74906066D01*
X116330330Y-74806066D01*
X116361627Y-74760262D01*
X116374250Y-74702072D01*
X116363239Y-74643556D01*
X116330330Y-74593934D01*
X115695254Y-73958858D01*
X124623344Y-73958858D01*
X124648125Y-74093880D01*
X124698660Y-74221517D01*
X124773024Y-74336907D01*
X124868385Y-74435656D01*
X124981110Y-74514002D01*
X125106905Y-74568961D01*
X125240980Y-74598439D01*
X125378227Y-74601314D01*
X125513419Y-74577476D01*
X125641405Y-74527833D01*
X125757312Y-74454277D01*
X125856724Y-74359608D01*
X125935855Y-74247432D01*
X125991691Y-74122023D01*
X126022105Y-73988158D01*
X126024294Y-73831361D01*
X125997630Y-73696699D01*
X125945318Y-73569780D01*
X125869350Y-73455439D01*
X125772620Y-73358031D01*
X125658812Y-73281267D01*
X125532261Y-73228070D01*
X125397788Y-73200466D01*
X125260514Y-73199508D01*
X125125669Y-73225231D01*
X124998388Y-73276656D01*
X124883519Y-73351824D01*
X124785438Y-73447872D01*
X124707881Y-73561141D01*
X124653802Y-73687317D01*
X124625261Y-73821594D01*
X124623344Y-73958858D01*
X115695254Y-73958858D01*
X115474264Y-73737868D01*
X115474264Y-72700000D01*
X115463239Y-72643556D01*
X115430330Y-72593934D01*
X114695254Y-71858858D01*
X118123344Y-71858858D01*
X118148125Y-71993880D01*
X118198660Y-72121517D01*
X118273024Y-72236907D01*
X118368385Y-72335656D01*
X118481110Y-72414002D01*
X118606905Y-72468961D01*
X118740980Y-72498439D01*
X118878227Y-72501314D01*
X119013419Y-72477476D01*
X119141405Y-72427833D01*
X119257312Y-72354277D01*
X119356724Y-72259608D01*
X119435855Y-72147432D01*
X119491691Y-72022023D01*
X119522105Y-71888158D01*
X119523910Y-71758858D01*
X125223344Y-71758858D01*
X125248125Y-71893880D01*
X125298660Y-72021517D01*
X125373024Y-72136907D01*
X125468385Y-72235656D01*
X125581110Y-72314002D01*
X125706905Y-72368961D01*
X125840980Y-72398439D01*
X125978227Y-72401314D01*
X126113419Y-72377476D01*
X126241405Y-72327833D01*
X126357312Y-72254277D01*
X126456724Y-72159608D01*
X126535855Y-72047432D01*
X126591691Y-71922023D01*
X126622105Y-71788158D01*
X126624294Y-71631361D01*
X126597630Y-71496699D01*
X126545318Y-71369780D01*
X126469350Y-71255439D01*
X126372620Y-71158031D01*
X126258812Y-71081267D01*
X126132261Y-71028070D01*
X125997788Y-71000466D01*
X125860514Y-70999508D01*
X125725669Y-71025231D01*
X125598388Y-71076656D01*
X125483519Y-71151824D01*
X125385438Y-71247872D01*
X125307881Y-71361141D01*
X125253802Y-71487317D01*
X125225261Y-71621594D01*
X125223344Y-71758858D01*
X119523910Y-71758858D01*
X119524294Y-71731361D01*
X119497630Y-71596699D01*
X119445318Y-71469780D01*
X119369350Y-71355439D01*
X119272620Y-71258031D01*
X119158812Y-71181267D01*
X119032261Y-71128070D01*
X118897788Y-71100466D01*
X118760514Y-71099508D01*
X118625669Y-71125231D01*
X118498388Y-71176656D01*
X118383519Y-71251824D01*
X118285438Y-71347872D01*
X118207881Y-71461141D01*
X118153802Y-71587317D01*
X118125261Y-71721594D01*
X118123344Y-71858858D01*
X114695254Y-71858858D01*
X113730330Y-70893934D01*
X113682622Y-70861818D01*
X113624264Y-70850000D01*
X111624264Y-70850000D01*
X111567820Y-70861025D01*
X111518198Y-70893934D01*
X110618198Y-71793934D01*
X110586082Y-71841642D01*
X110574264Y-71900000D01*
X109874264Y-71900000D01*
X109874264Y-70458858D01*
X117123344Y-70458858D01*
X117148125Y-70593880D01*
X117198660Y-70721517D01*
X117273024Y-70836907D01*
X117368385Y-70935656D01*
X117481110Y-71014002D01*
X117606905Y-71068961D01*
X117740980Y-71098439D01*
X117878227Y-71101314D01*
X118013419Y-71077476D01*
X118141405Y-71027833D01*
X118257312Y-70954277D01*
X118356724Y-70859608D01*
X118435855Y-70747432D01*
X118491691Y-70622023D01*
X118522105Y-70488158D01*
X118524294Y-70331361D01*
X118497630Y-70196699D01*
X118480567Y-70155300D01*
X125329274Y-70155300D01*
X125354055Y-70290322D01*
X125404590Y-70417959D01*
X125478954Y-70533349D01*
X125574315Y-70632098D01*
X125687040Y-70710444D01*
X125812835Y-70765403D01*
X125946910Y-70794881D01*
X126084157Y-70797756D01*
X126219349Y-70773918D01*
X126347335Y-70724275D01*
X126463242Y-70650719D01*
X126474556Y-70639945D01*
X126581110Y-70714002D01*
X126706905Y-70768961D01*
X126840980Y-70798439D01*
X126978227Y-70801314D01*
X127113419Y-70777476D01*
X127241405Y-70727833D01*
X127357312Y-70654277D01*
X127456724Y-70559608D01*
X127535855Y-70447432D01*
X127591691Y-70322023D01*
X127622105Y-70188158D01*
X127624294Y-70031361D01*
X127597630Y-69896699D01*
X127545318Y-69769780D01*
X127538062Y-69758858D01*
X142123344Y-69758858D01*
X142148125Y-69893880D01*
X142198660Y-70021517D01*
X142273024Y-70136907D01*
X142368385Y-70235656D01*
X142481110Y-70314002D01*
X142606905Y-70368961D01*
X142740980Y-70398439D01*
X142878227Y-70401314D01*
X143013419Y-70377476D01*
X143141405Y-70327833D01*
X143257312Y-70254277D01*
X143356724Y-70159608D01*
X143435855Y-70047432D01*
X143491691Y-69922023D01*
X143522105Y-69788158D01*
X143524294Y-69631361D01*
X143497630Y-69496699D01*
X143445318Y-69369780D01*
X143369350Y-69255439D01*
X143272620Y-69158031D01*
X143158812Y-69081267D01*
X143032261Y-69028070D01*
X142897788Y-69000466D01*
X142760514Y-68999508D01*
X142625669Y-69025231D01*
X142498388Y-69076656D01*
X142383519Y-69151824D01*
X142285438Y-69247872D01*
X142207881Y-69361141D01*
X142153802Y-69487317D01*
X142125261Y-69621594D01*
X142123344Y-69758858D01*
X127538062Y-69758858D01*
X127469350Y-69655439D01*
X127372620Y-69558031D01*
X127258812Y-69481267D01*
X127132261Y-69428070D01*
X126997788Y-69400466D01*
X126860514Y-69399508D01*
X126725669Y-69425231D01*
X126598388Y-69476656D01*
X126483519Y-69551824D01*
X126479666Y-69555597D01*
X126478550Y-69554473D01*
X126364742Y-69477709D01*
X126238191Y-69424512D01*
X126103718Y-69396908D01*
X125966444Y-69395950D01*
X125831599Y-69421673D01*
X125704318Y-69473098D01*
X125589449Y-69548266D01*
X125491368Y-69644314D01*
X125413811Y-69757583D01*
X125359732Y-69883759D01*
X125331191Y-70018036D01*
X125329274Y-70155300D01*
X118480567Y-70155300D01*
X118445318Y-70069780D01*
X118369350Y-69955439D01*
X118272620Y-69858031D01*
X118158812Y-69781267D01*
X118032261Y-69728070D01*
X117897788Y-69700466D01*
X117760514Y-69699508D01*
X117625669Y-69725231D01*
X117498388Y-69776656D01*
X117383519Y-69851824D01*
X117285438Y-69947872D01*
X117207881Y-70061141D01*
X117153802Y-70187317D01*
X117125261Y-70321594D01*
X117123344Y-70458858D01*
X109874264Y-70458858D01*
X109874264Y-68058858D01*
X141123344Y-68058858D01*
X141148125Y-68193880D01*
X141198660Y-68321517D01*
X141273024Y-68436907D01*
X141368385Y-68535656D01*
X141481110Y-68614002D01*
X141606905Y-68668961D01*
X141740980Y-68698439D01*
X141878227Y-68701314D01*
X142013419Y-68677476D01*
X142141405Y-68627833D01*
X142257312Y-68554277D01*
X142356724Y-68459608D01*
X142435855Y-68347432D01*
X142491691Y-68222023D01*
X142522105Y-68088158D01*
X142524294Y-67931361D01*
X142497630Y-67796699D01*
X142445318Y-67669780D01*
X142369350Y-67555439D01*
X142272620Y-67458031D01*
X142158812Y-67381267D01*
X142032261Y-67328070D01*
X141897788Y-67300466D01*
X141760514Y-67299508D01*
X141625669Y-67325231D01*
X141498388Y-67376656D01*
X141383519Y-67451824D01*
X141285438Y-67547872D01*
X141207881Y-67661141D01*
X141153802Y-67787317D01*
X141125261Y-67921594D01*
X141123344Y-68058858D01*
X109874264Y-68058858D01*
X109874264Y-66858858D01*
X123323344Y-66858858D01*
X123348125Y-66993880D01*
X123398660Y-67121517D01*
X123473024Y-67236907D01*
X123568385Y-67335656D01*
X123681110Y-67414002D01*
X123806905Y-67468961D01*
X123940980Y-67498439D01*
X124078227Y-67501314D01*
X124213419Y-67477476D01*
X124341405Y-67427833D01*
X124457312Y-67354277D01*
X124556724Y-67259608D01*
X124635855Y-67147432D01*
X124691691Y-67022023D01*
X124722105Y-66888158D01*
X124724294Y-66731361D01*
X124697630Y-66596699D01*
X124645318Y-66469780D01*
X124569350Y-66355439D01*
X124472620Y-66258031D01*
X124358812Y-66181267D01*
X124232261Y-66128070D01*
X124097788Y-66100466D01*
X123960514Y-66099508D01*
X123825669Y-66125231D01*
X123698388Y-66176656D01*
X123583519Y-66251824D01*
X123485438Y-66347872D01*
X123407881Y-66461141D01*
X123353802Y-66587317D01*
X123325261Y-66721594D01*
X123323344Y-66858858D01*
X109874264Y-66858858D01*
X109874264Y-62458858D01*
X117923344Y-62458858D01*
X117948125Y-62593880D01*
X117998660Y-62721517D01*
X118073024Y-62836907D01*
X118168385Y-62935656D01*
X118281110Y-63014002D01*
X118406905Y-63068961D01*
X118540980Y-63098439D01*
X118678227Y-63101314D01*
X118813419Y-63077476D01*
X118941405Y-63027833D01*
X119057312Y-62954277D01*
X119156724Y-62859608D01*
X119235855Y-62747432D01*
X119291691Y-62622023D01*
X119322105Y-62488158D01*
X119324294Y-62331361D01*
X119297630Y-62196699D01*
X119245318Y-62069780D01*
X119169350Y-61955439D01*
X119072620Y-61858031D01*
X118958812Y-61781267D01*
X118832261Y-61728070D01*
X118697788Y-61700466D01*
X118560514Y-61699508D01*
X118425669Y-61725231D01*
X118298388Y-61776656D01*
X118183519Y-61851824D01*
X118085438Y-61947872D01*
X118007881Y-62061141D01*
X117953802Y-62187317D01*
X117925261Y-62321594D01*
X117923344Y-62458858D01*
X109874264Y-62458858D01*
X109874264Y-59658858D01*
X131023344Y-59658858D01*
X131048125Y-59793880D01*
X131098660Y-59921517D01*
X131173024Y-60036907D01*
X131268385Y-60135656D01*
X131381110Y-60214002D01*
X131506905Y-60268961D01*
X131640980Y-60298439D01*
X131778227Y-60301314D01*
X131913419Y-60277476D01*
X132041405Y-60227833D01*
X132157312Y-60154277D01*
X132256724Y-60059608D01*
X132335855Y-59947432D01*
X132391691Y-59822023D01*
X132422105Y-59688158D01*
X132424294Y-59531361D01*
X132397630Y-59396699D01*
X132345318Y-59269780D01*
X132269350Y-59155439D01*
X132172620Y-59058031D01*
X132058812Y-58981267D01*
X131932261Y-58928070D01*
X131797788Y-58900466D01*
X131660514Y-58899508D01*
X131525669Y-58925231D01*
X131398388Y-58976656D01*
X131283519Y-59051824D01*
X131185438Y-59147872D01*
X131107881Y-59261141D01*
X131053802Y-59387317D01*
X131025261Y-59521594D01*
X131023344Y-59658858D01*
X109874264Y-59658858D01*
X109874264Y-56522005D01*
X109896377Y-56296477D01*
X109955487Y-56100694D01*
X110051493Y-55920135D01*
X110180745Y-55761656D01*
X110338320Y-55631299D01*
X110518209Y-55534033D01*
X110713563Y-55473560D01*
X110937728Y-55450000D01*
X145902259Y-55450000D01*
X146127787Y-55472113D01*
M02*
