G04 #@! TF.FileFunction,Soldermask,Bot*
%FSLAX46Y46*%
G04 Gerber Fmt 4.6, Leading zero omitted, Abs format (unit mm)*
G04 Created by KiCad (PCBNEW 4.0.7-e2-6376~58~ubuntu14.04.1) date Sun Apr  8 21:09:44 2018*
%MOMM*%
%LPD*%
G01*
G04 APERTURE LIST*
%ADD10C,0.100000*%
%ADD11C,0.140000*%
%ADD12C,0.010000*%
%ADD13R,1.200000X0.600000*%
%ADD14R,1.800000X1.900000*%
%ADD15R,2.100000X1.600000*%
%ADD16R,0.400000X1.500000*%
%ADD17C,1.500000*%
%ADD18R,0.500000X0.800000*%
%ADD19R,0.800000X0.500000*%
%ADD20R,1.200000X1.000000*%
%ADD21R,1.000000X1.200000*%
%ADD22R,0.600000X1.700000*%
%ADD23R,1.000000X2.700000*%
%ADD24R,0.600000X1.200000*%
%ADD25R,0.800000X0.300000*%
%ADD26R,1.500000X2.300000*%
%ADD27R,0.500000X1.000000*%
%ADD28R,1.600000X1.600000*%
G04 APERTURE END LIST*
D10*
D11*
X141033825Y-79508545D02*
X140899138Y-79441201D01*
X140831794Y-79441202D01*
X140730778Y-79474874D01*
X140629763Y-79575889D01*
X140596092Y-79676904D01*
X140596092Y-79744247D01*
X140629763Y-79845263D01*
X140899138Y-80114637D01*
X141606245Y-79407530D01*
X141370542Y-79171828D01*
X141269527Y-79138156D01*
X141202183Y-79138156D01*
X141101168Y-79171828D01*
X141033825Y-79239171D01*
X141000153Y-79340186D01*
X141000153Y-79407530D01*
X141033825Y-79508545D01*
X141269527Y-79744247D01*
X140562421Y-79037141D02*
X140326718Y-78801438D01*
X139855313Y-79070812D02*
X140192031Y-79407530D01*
X140899138Y-78700424D01*
X140562420Y-78363706D01*
X139922657Y-78397377D02*
X139686954Y-78161675D01*
X139215550Y-78431049D02*
X139552268Y-78767767D01*
X140259374Y-78060660D01*
X139922657Y-77723942D01*
X138912504Y-78128004D02*
X139619611Y-77420897D01*
X139350237Y-77151522D01*
X139249221Y-77117851D01*
X139181878Y-77117851D01*
X139080863Y-77151522D01*
X138979848Y-77252538D01*
X138946176Y-77353553D01*
X138946176Y-77420896D01*
X138979848Y-77521911D01*
X139249222Y-77791286D01*
X137801336Y-76276056D02*
X137666649Y-76208713D01*
X137599305Y-76208714D01*
X137498290Y-76242385D01*
X137397275Y-76343400D01*
X137363603Y-76444416D01*
X137363603Y-76511759D01*
X137397275Y-76612774D01*
X137666649Y-76882149D01*
X138373756Y-76175042D01*
X138138053Y-75939339D01*
X138037038Y-75905667D01*
X137969695Y-75905667D01*
X137868680Y-75939339D01*
X137801336Y-76006683D01*
X137767664Y-76107698D01*
X137767664Y-76175041D01*
X137801336Y-76276056D01*
X138037039Y-76511759D01*
X137329932Y-75804652D02*
X137094229Y-75568950D01*
X136622825Y-75838324D02*
X136959543Y-76175042D01*
X137666649Y-75467935D01*
X137329931Y-75131217D01*
X136690169Y-75164889D02*
X136454466Y-74929186D01*
X135983061Y-75198561D02*
X136319779Y-75535279D01*
X137026886Y-74828172D01*
X136690168Y-74491454D01*
X135680016Y-74895515D02*
X136387123Y-74188408D01*
X136117748Y-73919034D01*
X136016733Y-73885362D01*
X135949390Y-73885362D01*
X135848374Y-73919034D01*
X135747359Y-74020049D01*
X135713688Y-74121064D01*
X135713688Y-74188408D01*
X135747359Y-74289423D01*
X136016734Y-74558797D01*
D12*
G36*
X131049585Y-67346193D02*
X130959051Y-67393900D01*
X130901336Y-67463147D01*
X130879564Y-67538609D01*
X130867502Y-67659844D01*
X130865105Y-67765844D01*
X130865751Y-67875935D01*
X130870172Y-67948619D01*
X130882090Y-67997340D01*
X130905230Y-68035541D01*
X130943314Y-68076666D01*
X130954211Y-68087584D01*
X131015196Y-68142237D01*
X131065677Y-68165686D01*
X131126527Y-68166744D01*
X131138545Y-68165433D01*
X131214122Y-68152772D01*
X131273286Y-68136660D01*
X131278268Y-68134628D01*
X131297939Y-68129939D01*
X131310792Y-68141984D01*
X131318258Y-68178887D01*
X131321766Y-68248769D01*
X131322744Y-68359755D01*
X131322762Y-68387487D01*
X131322110Y-68507668D01*
X131319199Y-68585154D01*
X131312601Y-68628092D01*
X131300887Y-68644632D01*
X131282628Y-68642922D01*
X131278268Y-68641192D01*
X131149175Y-68607349D01*
X131036549Y-68621500D01*
X130939779Y-68683743D01*
X130926501Y-68697333D01*
X130901670Y-68726779D01*
X130884623Y-68758535D01*
X130873902Y-68802277D01*
X130868047Y-68867685D01*
X130865601Y-68964435D01*
X130865105Y-69102206D01*
X130865105Y-69445864D01*
X130947737Y-69437897D01*
X131030370Y-69429930D01*
X131037641Y-69151241D01*
X131044801Y-69002730D01*
X131058982Y-68898220D01*
X131082760Y-68831059D01*
X131118708Y-68794593D01*
X131169402Y-68782166D01*
X131180507Y-68781971D01*
X131231899Y-68786481D01*
X131268052Y-68804354D01*
X131292164Y-68843419D01*
X131307433Y-68911506D01*
X131317060Y-69016447D01*
X131322762Y-69130177D01*
X131335475Y-69429930D01*
X131418283Y-69437910D01*
X131484913Y-69434061D01*
X131513925Y-69412442D01*
X131516573Y-69380417D01*
X131518709Y-69303163D01*
X131520300Y-69186302D01*
X131521312Y-69035453D01*
X131521714Y-68856238D01*
X131521472Y-68654276D01*
X131520552Y-68435188D01*
X131520107Y-68362020D01*
X131516337Y-67785704D01*
X131323161Y-67785704D01*
X131311143Y-67875330D01*
X131286559Y-67939388D01*
X131280684Y-67946897D01*
X131214066Y-67988076D01*
X131139368Y-67982657D01*
X131089579Y-67951314D01*
X131059507Y-67896463D01*
X131043452Y-67811350D01*
X131041621Y-67714653D01*
X131054225Y-67625050D01*
X131081473Y-67561220D01*
X131085162Y-67556807D01*
X131151230Y-67516777D01*
X131226784Y-67517418D01*
X131282808Y-67550264D01*
X131309093Y-67604487D01*
X131322511Y-67689195D01*
X131323161Y-67785704D01*
X131516337Y-67785704D01*
X131513453Y-67345045D01*
X131441996Y-67336851D01*
X131377032Y-67340468D01*
X131335563Y-67357685D01*
X131288816Y-67373406D01*
X131249783Y-67359522D01*
X131152130Y-67333058D01*
X131049585Y-67346193D01*
X131049585Y-67346193D01*
G37*
X131049585Y-67346193D02*
X130959051Y-67393900D01*
X130901336Y-67463147D01*
X130879564Y-67538609D01*
X130867502Y-67659844D01*
X130865105Y-67765844D01*
X130865751Y-67875935D01*
X130870172Y-67948619D01*
X130882090Y-67997340D01*
X130905230Y-68035541D01*
X130943314Y-68076666D01*
X130954211Y-68087584D01*
X131015196Y-68142237D01*
X131065677Y-68165686D01*
X131126527Y-68166744D01*
X131138545Y-68165433D01*
X131214122Y-68152772D01*
X131273286Y-68136660D01*
X131278268Y-68134628D01*
X131297939Y-68129939D01*
X131310792Y-68141984D01*
X131318258Y-68178887D01*
X131321766Y-68248769D01*
X131322744Y-68359755D01*
X131322762Y-68387487D01*
X131322110Y-68507668D01*
X131319199Y-68585154D01*
X131312601Y-68628092D01*
X131300887Y-68644632D01*
X131282628Y-68642922D01*
X131278268Y-68641192D01*
X131149175Y-68607349D01*
X131036549Y-68621500D01*
X130939779Y-68683743D01*
X130926501Y-68697333D01*
X130901670Y-68726779D01*
X130884623Y-68758535D01*
X130873902Y-68802277D01*
X130868047Y-68867685D01*
X130865601Y-68964435D01*
X130865105Y-69102206D01*
X130865105Y-69445864D01*
X130947737Y-69437897D01*
X131030370Y-69429930D01*
X131037641Y-69151241D01*
X131044801Y-69002730D01*
X131058982Y-68898220D01*
X131082760Y-68831059D01*
X131118708Y-68794593D01*
X131169402Y-68782166D01*
X131180507Y-68781971D01*
X131231899Y-68786481D01*
X131268052Y-68804354D01*
X131292164Y-68843419D01*
X131307433Y-68911506D01*
X131317060Y-69016447D01*
X131322762Y-69130177D01*
X131335475Y-69429930D01*
X131418283Y-69437910D01*
X131484913Y-69434061D01*
X131513925Y-69412442D01*
X131516573Y-69380417D01*
X131518709Y-69303163D01*
X131520300Y-69186302D01*
X131521312Y-69035453D01*
X131521714Y-68856238D01*
X131521472Y-68654276D01*
X131520552Y-68435188D01*
X131520107Y-68362020D01*
X131516337Y-67785704D01*
X131323161Y-67785704D01*
X131311143Y-67875330D01*
X131286559Y-67939388D01*
X131280684Y-67946897D01*
X131214066Y-67988076D01*
X131139368Y-67982657D01*
X131089579Y-67951314D01*
X131059507Y-67896463D01*
X131043452Y-67811350D01*
X131041621Y-67714653D01*
X131054225Y-67625050D01*
X131081473Y-67561220D01*
X131085162Y-67556807D01*
X131151230Y-67516777D01*
X131226784Y-67517418D01*
X131282808Y-67550264D01*
X131309093Y-67604487D01*
X131322511Y-67689195D01*
X131323161Y-67785704D01*
X131516337Y-67785704D01*
X131513453Y-67345045D01*
X131441996Y-67336851D01*
X131377032Y-67340468D01*
X131335563Y-67357685D01*
X131288816Y-67373406D01*
X131249783Y-67359522D01*
X131152130Y-67333058D01*
X131049585Y-67346193D01*
G36*
X130350222Y-68609504D02*
X130248294Y-68638760D01*
X130166738Y-68686052D01*
X130118824Y-68748745D01*
X130114730Y-68761724D01*
X130109658Y-68809341D01*
X130106665Y-68895312D01*
X130105992Y-69007172D01*
X130107692Y-69124825D01*
X130111210Y-69253515D01*
X130115616Y-69340067D01*
X130122744Y-69393183D01*
X130134423Y-69421566D01*
X130152488Y-69433920D01*
X130173661Y-69438238D01*
X130233099Y-69434468D01*
X130263503Y-69420623D01*
X130311819Y-69409468D01*
X130332024Y-69418282D01*
X130390973Y-69435744D01*
X130475014Y-69439533D01*
X130560273Y-69429696D01*
X130600983Y-69417724D01*
X130668751Y-69370911D01*
X130726809Y-69298756D01*
X130760250Y-69221676D01*
X130763403Y-69195239D01*
X130756752Y-69166497D01*
X130583870Y-69166497D01*
X130569994Y-69216517D01*
X130554915Y-69234154D01*
X130506491Y-69255714D01*
X130431838Y-69264321D01*
X130354270Y-69258475D01*
X130320538Y-69249232D01*
X130289479Y-69212903D01*
X130280320Y-69160243D01*
X130284492Y-69113321D01*
X130306631Y-69092269D01*
X130361168Y-69086816D01*
X130383693Y-69086687D01*
X130485471Y-69097061D01*
X130553946Y-69125171D01*
X130583870Y-69166497D01*
X130756752Y-69166497D01*
X130742043Y-69102944D01*
X130687015Y-69019315D01*
X130611899Y-68964121D01*
X130602003Y-68960285D01*
X130530109Y-68944332D01*
X130437814Y-68935073D01*
X130401964Y-68934134D01*
X130327738Y-68932468D01*
X130292023Y-68922555D01*
X130282491Y-68897025D01*
X130284988Y-68864214D01*
X130295680Y-68819753D01*
X130324215Y-68797559D01*
X130385608Y-68787726D01*
X130402970Y-68786384D01*
X130479135Y-68787831D01*
X130536781Y-68801012D01*
X130547950Y-68807557D01*
X130584991Y-68821154D01*
X130634066Y-68799109D01*
X130646974Y-68790042D01*
X130697149Y-68748133D01*
X130705265Y-68715660D01*
X130671156Y-68677035D01*
X130645560Y-68656300D01*
X130562123Y-68615639D01*
X130459254Y-68600918D01*
X130350222Y-68609504D01*
X130350222Y-68609504D01*
G37*
X130350222Y-68609504D02*
X130248294Y-68638760D01*
X130166738Y-68686052D01*
X130118824Y-68748745D01*
X130114730Y-68761724D01*
X130109658Y-68809341D01*
X130106665Y-68895312D01*
X130105992Y-69007172D01*
X130107692Y-69124825D01*
X130111210Y-69253515D01*
X130115616Y-69340067D01*
X130122744Y-69393183D01*
X130134423Y-69421566D01*
X130152488Y-69433920D01*
X130173661Y-69438238D01*
X130233099Y-69434468D01*
X130263503Y-69420623D01*
X130311819Y-69409468D01*
X130332024Y-69418282D01*
X130390973Y-69435744D01*
X130475014Y-69439533D01*
X130560273Y-69429696D01*
X130600983Y-69417724D01*
X130668751Y-69370911D01*
X130726809Y-69298756D01*
X130760250Y-69221676D01*
X130763403Y-69195239D01*
X130756752Y-69166497D01*
X130583870Y-69166497D01*
X130569994Y-69216517D01*
X130554915Y-69234154D01*
X130506491Y-69255714D01*
X130431838Y-69264321D01*
X130354270Y-69258475D01*
X130320538Y-69249232D01*
X130289479Y-69212903D01*
X130280320Y-69160243D01*
X130284492Y-69113321D01*
X130306631Y-69092269D01*
X130361168Y-69086816D01*
X130383693Y-69086687D01*
X130485471Y-69097061D01*
X130553946Y-69125171D01*
X130583870Y-69166497D01*
X130756752Y-69166497D01*
X130742043Y-69102944D01*
X130687015Y-69019315D01*
X130611899Y-68964121D01*
X130602003Y-68960285D01*
X130530109Y-68944332D01*
X130437814Y-68935073D01*
X130401964Y-68934134D01*
X130327738Y-68932468D01*
X130292023Y-68922555D01*
X130282491Y-68897025D01*
X130284988Y-68864214D01*
X130295680Y-68819753D01*
X130324215Y-68797559D01*
X130385608Y-68787726D01*
X130402970Y-68786384D01*
X130479135Y-68787831D01*
X130536781Y-68801012D01*
X130547950Y-68807557D01*
X130584991Y-68821154D01*
X130634066Y-68799109D01*
X130646974Y-68790042D01*
X130697149Y-68748133D01*
X130705265Y-68715660D01*
X130671156Y-68677035D01*
X130645560Y-68656300D01*
X130562123Y-68615639D01*
X130459254Y-68600918D01*
X130350222Y-68609504D01*
G36*
X129776413Y-68611241D02*
X129742249Y-68629907D01*
X129740933Y-68632675D01*
X129721078Y-68649031D01*
X129676922Y-68632675D01*
X129590396Y-68606994D01*
X129498005Y-68610059D01*
X129430065Y-68637503D01*
X129400180Y-68664307D01*
X129400450Y-68692515D01*
X129428030Y-68739054D01*
X129466064Y-68784111D01*
X129512090Y-68797833D01*
X129564877Y-68793256D01*
X129630364Y-68787107D01*
X129676596Y-68795628D01*
X129707421Y-68825962D01*
X129726685Y-68885248D01*
X129738235Y-68980628D01*
X129745918Y-69119242D01*
X129746386Y-69130177D01*
X129759099Y-69429930D01*
X129841731Y-69437897D01*
X129924364Y-69445864D01*
X129924364Y-68603603D01*
X129837494Y-68603603D01*
X129776413Y-68611241D01*
X129776413Y-68611241D01*
G37*
X129776413Y-68611241D02*
X129742249Y-68629907D01*
X129740933Y-68632675D01*
X129721078Y-68649031D01*
X129676922Y-68632675D01*
X129590396Y-68606994D01*
X129498005Y-68610059D01*
X129430065Y-68637503D01*
X129400180Y-68664307D01*
X129400450Y-68692515D01*
X129428030Y-68739054D01*
X129466064Y-68784111D01*
X129512090Y-68797833D01*
X129564877Y-68793256D01*
X129630364Y-68787107D01*
X129676596Y-68795628D01*
X129707421Y-68825962D01*
X129726685Y-68885248D01*
X129738235Y-68980628D01*
X129745918Y-69119242D01*
X129746386Y-69130177D01*
X129759099Y-69429930D01*
X129841731Y-69437897D01*
X129924364Y-69445864D01*
X129924364Y-68603603D01*
X129837494Y-68603603D01*
X129776413Y-68611241D01*
G36*
X128735248Y-68851501D02*
X128742082Y-69429930D01*
X128824714Y-69437897D01*
X128885225Y-69436461D01*
X128906893Y-69414024D01*
X128907347Y-69407623D01*
X128913066Y-69383985D01*
X128939212Y-69387381D01*
X128977267Y-69405856D01*
X129093015Y-69438814D01*
X129213708Y-69423008D01*
X129231361Y-69416484D01*
X129282599Y-69379956D01*
X129333941Y-69320223D01*
X129340616Y-69310038D01*
X129365841Y-69262216D01*
X129380629Y-69209065D01*
X129386880Y-69136933D01*
X129386495Y-69032167D01*
X129386399Y-69028780D01*
X129212452Y-69028780D01*
X129197950Y-69139833D01*
X129158408Y-69218626D01*
X129099772Y-69260181D01*
X129027987Y-69259517D01*
X128971822Y-69230337D01*
X128937698Y-69182558D01*
X128918476Y-69095921D01*
X128915036Y-69058715D01*
X128917545Y-68931136D01*
X128947260Y-68844800D01*
X129005429Y-68797224D01*
X129051681Y-68786509D01*
X129129379Y-68798333D01*
X129181290Y-68852268D01*
X129208112Y-68949367D01*
X129212452Y-69028780D01*
X129386399Y-69028780D01*
X129385272Y-68989225D01*
X129380957Y-68877463D01*
X129374143Y-68803799D01*
X129361125Y-68755494D01*
X129338196Y-68719809D01*
X129301652Y-68684006D01*
X129294684Y-68677763D01*
X129198698Y-68620339D01*
X129092907Y-68602591D01*
X128992858Y-68626143D01*
X128963855Y-68643183D01*
X128907347Y-68682763D01*
X128907347Y-68273073D01*
X128728414Y-68273073D01*
X128735248Y-68851501D01*
X128735248Y-68851501D01*
G37*
X128735248Y-68851501D02*
X128742082Y-69429930D01*
X128824714Y-69437897D01*
X128885225Y-69436461D01*
X128906893Y-69414024D01*
X128907347Y-69407623D01*
X128913066Y-69383985D01*
X128939212Y-69387381D01*
X128977267Y-69405856D01*
X129093015Y-69438814D01*
X129213708Y-69423008D01*
X129231361Y-69416484D01*
X129282599Y-69379956D01*
X129333941Y-69320223D01*
X129340616Y-69310038D01*
X129365841Y-69262216D01*
X129380629Y-69209065D01*
X129386880Y-69136933D01*
X129386495Y-69032167D01*
X129386399Y-69028780D01*
X129212452Y-69028780D01*
X129197950Y-69139833D01*
X129158408Y-69218626D01*
X129099772Y-69260181D01*
X129027987Y-69259517D01*
X128971822Y-69230337D01*
X128937698Y-69182558D01*
X128918476Y-69095921D01*
X128915036Y-69058715D01*
X128917545Y-68931136D01*
X128947260Y-68844800D01*
X129005429Y-68797224D01*
X129051681Y-68786509D01*
X129129379Y-68798333D01*
X129181290Y-68852268D01*
X129208112Y-68949367D01*
X129212452Y-69028780D01*
X129386399Y-69028780D01*
X129385272Y-68989225D01*
X129380957Y-68877463D01*
X129374143Y-68803799D01*
X129361125Y-68755494D01*
X129338196Y-68719809D01*
X129301652Y-68684006D01*
X129294684Y-68677763D01*
X129198698Y-68620339D01*
X129092907Y-68602591D01*
X128992858Y-68626143D01*
X128963855Y-68643183D01*
X128907347Y-68682763D01*
X128907347Y-68273073D01*
X128728414Y-68273073D01*
X128735248Y-68851501D01*
G36*
X128528588Y-68605668D02*
X128499691Y-68616661D01*
X128475617Y-68643778D01*
X128452766Y-68694216D01*
X128427538Y-68775173D01*
X128396332Y-68893844D01*
X128371951Y-68991341D01*
X128351667Y-69060980D01*
X128333270Y-69104399D01*
X128325900Y-69111666D01*
X128312145Y-69088807D01*
X128287759Y-69027468D01*
X128256599Y-68937915D01*
X128232769Y-68863768D01*
X128196565Y-68751043D01*
X128169079Y-68678197D01*
X128145199Y-68636174D01*
X128119816Y-68615918D01*
X128088714Y-68608478D01*
X128058018Y-68607672D01*
X128034160Y-68619184D01*
X128012067Y-68651341D01*
X127986666Y-68712465D01*
X127952886Y-68810882D01*
X127938204Y-68855495D01*
X127902865Y-68958433D01*
X127872165Y-69038894D01*
X127849877Y-69087522D01*
X127840717Y-69097302D01*
X127828414Y-69068575D01*
X127806837Y-69002140D01*
X127779591Y-68909482D01*
X127763164Y-68850285D01*
X127699561Y-68616316D01*
X127602012Y-68608291D01*
X127539693Y-68605635D01*
X127515989Y-68616759D01*
X127519051Y-68649185D01*
X127521907Y-68659142D01*
X127569770Y-68817775D01*
X127618128Y-68972904D01*
X127664308Y-69116442D01*
X127705631Y-69240302D01*
X127739422Y-69336397D01*
X127763005Y-69396640D01*
X127771090Y-69412146D01*
X127814177Y-69434855D01*
X127860304Y-69437572D01*
X127889883Y-69429624D01*
X127913939Y-69408088D01*
X127937046Y-69364166D01*
X127963777Y-69289059D01*
X127998706Y-69173968D01*
X128000497Y-69167867D01*
X128034867Y-69058763D01*
X128064293Y-68980793D01*
X128086021Y-68940587D01*
X128095523Y-68939038D01*
X128110465Y-68977969D01*
X128134092Y-69051976D01*
X128161980Y-69147004D01*
X128170008Y-69175676D01*
X128204854Y-69294608D01*
X128234102Y-69372325D01*
X128263105Y-69417273D01*
X128297213Y-69437894D01*
X128339186Y-69442642D01*
X128390663Y-69430981D01*
X128411759Y-69410861D01*
X128430189Y-69355917D01*
X128457948Y-69269281D01*
X128491936Y-69161058D01*
X128529053Y-69041349D01*
X128566198Y-68920258D01*
X128600272Y-68807888D01*
X128628175Y-68714342D01*
X128646805Y-68649723D01*
X128653093Y-68624399D01*
X128630760Y-68610537D01*
X128575992Y-68603743D01*
X128565908Y-68603603D01*
X128528588Y-68605668D01*
X128528588Y-68605668D01*
G37*
X128528588Y-68605668D02*
X128499691Y-68616661D01*
X128475617Y-68643778D01*
X128452766Y-68694216D01*
X128427538Y-68775173D01*
X128396332Y-68893844D01*
X128371951Y-68991341D01*
X128351667Y-69060980D01*
X128333270Y-69104399D01*
X128325900Y-69111666D01*
X128312145Y-69088807D01*
X128287759Y-69027468D01*
X128256599Y-68937915D01*
X128232769Y-68863768D01*
X128196565Y-68751043D01*
X128169079Y-68678197D01*
X128145199Y-68636174D01*
X128119816Y-68615918D01*
X128088714Y-68608478D01*
X128058018Y-68607672D01*
X128034160Y-68619184D01*
X128012067Y-68651341D01*
X127986666Y-68712465D01*
X127952886Y-68810882D01*
X127938204Y-68855495D01*
X127902865Y-68958433D01*
X127872165Y-69038894D01*
X127849877Y-69087522D01*
X127840717Y-69097302D01*
X127828414Y-69068575D01*
X127806837Y-69002140D01*
X127779591Y-68909482D01*
X127763164Y-68850285D01*
X127699561Y-68616316D01*
X127602012Y-68608291D01*
X127539693Y-68605635D01*
X127515989Y-68616759D01*
X127519051Y-68649185D01*
X127521907Y-68659142D01*
X127569770Y-68817775D01*
X127618128Y-68972904D01*
X127664308Y-69116442D01*
X127705631Y-69240302D01*
X127739422Y-69336397D01*
X127763005Y-69396640D01*
X127771090Y-69412146D01*
X127814177Y-69434855D01*
X127860304Y-69437572D01*
X127889883Y-69429624D01*
X127913939Y-69408088D01*
X127937046Y-69364166D01*
X127963777Y-69289059D01*
X127998706Y-69173968D01*
X128000497Y-69167867D01*
X128034867Y-69058763D01*
X128064293Y-68980793D01*
X128086021Y-68940587D01*
X128095523Y-68939038D01*
X128110465Y-68977969D01*
X128134092Y-69051976D01*
X128161980Y-69147004D01*
X128170008Y-69175676D01*
X128204854Y-69294608D01*
X128234102Y-69372325D01*
X128263105Y-69417273D01*
X128297213Y-69437894D01*
X128339186Y-69442642D01*
X128390663Y-69430981D01*
X128411759Y-69410861D01*
X128430189Y-69355917D01*
X128457948Y-69269281D01*
X128491936Y-69161058D01*
X128529053Y-69041349D01*
X128566198Y-68920258D01*
X128600272Y-68807888D01*
X128628175Y-68714342D01*
X128646805Y-68649723D01*
X128653093Y-68624399D01*
X128630760Y-68610537D01*
X128575992Y-68603743D01*
X128565908Y-68603603D01*
X128528588Y-68605668D01*
G36*
X127083124Y-68613632D02*
X126991291Y-68638614D01*
X126935198Y-68669970D01*
X126895440Y-68714974D01*
X126869785Y-68781508D01*
X126856002Y-68877457D01*
X126851860Y-69010704D01*
X126853390Y-69125795D01*
X126856850Y-69254246D01*
X126861226Y-69340572D01*
X126868355Y-69393492D01*
X126880073Y-69421723D01*
X126898217Y-69433983D01*
X126919207Y-69438238D01*
X126978259Y-69435157D01*
X127008196Y-69422311D01*
X127054784Y-69411128D01*
X127089429Y-69418572D01*
X127184698Y-69437534D01*
X127293229Y-69431553D01*
X127356396Y-69414478D01*
X127440071Y-69356765D01*
X127493050Y-69269797D01*
X127506816Y-69188208D01*
X127330035Y-69188208D01*
X127315805Y-69234621D01*
X127299189Y-69247826D01*
X127235824Y-69260770D01*
X127158388Y-69261150D01*
X127089738Y-69250254D01*
X127056376Y-69234154D01*
X127031745Y-69185450D01*
X127025866Y-69145165D01*
X127031594Y-69108713D01*
X127057816Y-69091608D01*
X127118087Y-69086796D01*
X127138201Y-69086687D01*
X127216887Y-69090060D01*
X127278187Y-69098502D01*
X127290753Y-69102119D01*
X127321199Y-69135656D01*
X127330035Y-69188208D01*
X127506816Y-69188208D01*
X127510178Y-69168289D01*
X127486299Y-69066958D01*
X127481477Y-69057437D01*
X127425337Y-69001094D01*
X127331550Y-68959362D01*
X127212319Y-68936810D01*
X127152121Y-68934134D01*
X127076133Y-68932612D01*
X127038841Y-68923388D01*
X127028090Y-68899473D01*
X127030533Y-68864214D01*
X127039989Y-68821926D01*
X127065059Y-68799825D01*
X127119828Y-68789630D01*
X127162896Y-68786400D01*
X127240570Y-68786605D01*
X127297587Y-68796041D01*
X127312519Y-68803810D01*
X127349447Y-68810199D01*
X127399083Y-68789220D01*
X127441795Y-68752747D01*
X127458098Y-68715747D01*
X127434999Y-68671674D01*
X127373802Y-68637418D01*
X127286658Y-68614988D01*
X127185715Y-68606390D01*
X127083124Y-68613632D01*
X127083124Y-68613632D01*
G37*
X127083124Y-68613632D02*
X126991291Y-68638614D01*
X126935198Y-68669970D01*
X126895440Y-68714974D01*
X126869785Y-68781508D01*
X126856002Y-68877457D01*
X126851860Y-69010704D01*
X126853390Y-69125795D01*
X126856850Y-69254246D01*
X126861226Y-69340572D01*
X126868355Y-69393492D01*
X126880073Y-69421723D01*
X126898217Y-69433983D01*
X126919207Y-69438238D01*
X126978259Y-69435157D01*
X127008196Y-69422311D01*
X127054784Y-69411128D01*
X127089429Y-69418572D01*
X127184698Y-69437534D01*
X127293229Y-69431553D01*
X127356396Y-69414478D01*
X127440071Y-69356765D01*
X127493050Y-69269797D01*
X127506816Y-69188208D01*
X127330035Y-69188208D01*
X127315805Y-69234621D01*
X127299189Y-69247826D01*
X127235824Y-69260770D01*
X127158388Y-69261150D01*
X127089738Y-69250254D01*
X127056376Y-69234154D01*
X127031745Y-69185450D01*
X127025866Y-69145165D01*
X127031594Y-69108713D01*
X127057816Y-69091608D01*
X127118087Y-69086796D01*
X127138201Y-69086687D01*
X127216887Y-69090060D01*
X127278187Y-69098502D01*
X127290753Y-69102119D01*
X127321199Y-69135656D01*
X127330035Y-69188208D01*
X127506816Y-69188208D01*
X127510178Y-69168289D01*
X127486299Y-69066958D01*
X127481477Y-69057437D01*
X127425337Y-69001094D01*
X127331550Y-68959362D01*
X127212319Y-68936810D01*
X127152121Y-68934134D01*
X127076133Y-68932612D01*
X127038841Y-68923388D01*
X127028090Y-68899473D01*
X127030533Y-68864214D01*
X127039989Y-68821926D01*
X127065059Y-68799825D01*
X127119828Y-68789630D01*
X127162896Y-68786400D01*
X127240570Y-68786605D01*
X127297587Y-68796041D01*
X127312519Y-68803810D01*
X127349447Y-68810199D01*
X127399083Y-68789220D01*
X127441795Y-68752747D01*
X127458098Y-68715747D01*
X127434999Y-68671674D01*
X127373802Y-68637418D01*
X127286658Y-68614988D01*
X127185715Y-68606390D01*
X127083124Y-68613632D01*
G36*
X126539305Y-68612515D02*
X126517358Y-68639981D01*
X126517357Y-68640234D01*
X126511310Y-68662615D01*
X126484275Y-68658336D01*
X126447437Y-68640390D01*
X126349777Y-68609105D01*
X126250749Y-68609197D01*
X126172617Y-68639693D01*
X126141519Y-68666287D01*
X126141700Y-68690666D01*
X126175040Y-68730876D01*
X126183013Y-68739383D01*
X126240956Y-68784747D01*
X126305879Y-68792665D01*
X126322853Y-68790469D01*
X126407831Y-68794544D01*
X126453794Y-68815807D01*
X126476112Y-68837825D01*
X126491438Y-68871053D01*
X126501507Y-68925188D01*
X126508050Y-69009930D01*
X126512801Y-69134975D01*
X126513189Y-69148151D01*
X126521733Y-69442642D01*
X126591584Y-69442642D01*
X126649000Y-69437032D01*
X126678385Y-69425692D01*
X126684161Y-69395697D01*
X126689093Y-69323894D01*
X126692813Y-69219324D01*
X126694957Y-69091028D01*
X126695335Y-69006173D01*
X126695335Y-68603603D01*
X126606346Y-68603603D01*
X126539305Y-68612515D01*
X126539305Y-68612515D01*
G37*
X126539305Y-68612515D02*
X126517358Y-68639981D01*
X126517357Y-68640234D01*
X126511310Y-68662615D01*
X126484275Y-68658336D01*
X126447437Y-68640390D01*
X126349777Y-68609105D01*
X126250749Y-68609197D01*
X126172617Y-68639693D01*
X126141519Y-68666287D01*
X126141700Y-68690666D01*
X126175040Y-68730876D01*
X126183013Y-68739383D01*
X126240956Y-68784747D01*
X126305879Y-68792665D01*
X126322853Y-68790469D01*
X126407831Y-68794544D01*
X126453794Y-68815807D01*
X126476112Y-68837825D01*
X126491438Y-68871053D01*
X126501507Y-68925188D01*
X126508050Y-69009930D01*
X126512801Y-69134975D01*
X126513189Y-69148151D01*
X126521733Y-69442642D01*
X126591584Y-69442642D01*
X126649000Y-69437032D01*
X126678385Y-69425692D01*
X126684161Y-69395697D01*
X126689093Y-69323894D01*
X126692813Y-69219324D01*
X126694957Y-69091028D01*
X126695335Y-69006173D01*
X126695335Y-68603603D01*
X126606346Y-68603603D01*
X126539305Y-68612515D01*
G36*
X125645368Y-68645022D02*
X125550363Y-68718909D01*
X125487853Y-68829238D01*
X125466452Y-68919179D01*
X125459337Y-68995238D01*
X125460209Y-69050203D01*
X125463828Y-69063892D01*
X125493808Y-69073773D01*
X125562669Y-69081495D01*
X125658454Y-69085984D01*
X125717957Y-69086687D01*
X125843889Y-69089616D01*
X125923039Y-69100116D01*
X125959228Y-69120756D01*
X125956277Y-69154102D01*
X125918009Y-69202723D01*
X125907147Y-69213814D01*
X125832153Y-69256013D01*
X125742408Y-69259937D01*
X125661333Y-69227034D01*
X125619806Y-69204741D01*
X125583100Y-69212056D01*
X125540305Y-69242345D01*
X125497007Y-69282632D01*
X125491662Y-69312946D01*
X125505739Y-69334765D01*
X125587624Y-69397104D01*
X125697312Y-69431663D01*
X125818617Y-69436176D01*
X125935355Y-69408376D01*
X125957998Y-69398108D01*
X126051055Y-69324228D01*
X126110244Y-69212956D01*
X126135115Y-69065231D01*
X126135936Y-69028663D01*
X126120225Y-68874099D01*
X125954912Y-68874099D01*
X125953461Y-68908249D01*
X125905601Y-68927721D01*
X125809786Y-68934127D01*
X125805445Y-68934134D01*
X125715628Y-68930914D01*
X125667672Y-68919877D01*
X125652915Y-68898963D01*
X125652893Y-68897812D01*
X125674480Y-68838418D01*
X125728819Y-68799145D01*
X125800275Y-68784475D01*
X125873212Y-68798893D01*
X125911501Y-68823660D01*
X125954912Y-68874099D01*
X126120225Y-68874099D01*
X126119586Y-68867818D01*
X126071257Y-68744535D01*
X125992177Y-68660209D01*
X125883571Y-68616233D01*
X125768884Y-68611628D01*
X125645368Y-68645022D01*
X125645368Y-68645022D01*
G37*
X125645368Y-68645022D02*
X125550363Y-68718909D01*
X125487853Y-68829238D01*
X125466452Y-68919179D01*
X125459337Y-68995238D01*
X125460209Y-69050203D01*
X125463828Y-69063892D01*
X125493808Y-69073773D01*
X125562669Y-69081495D01*
X125658454Y-69085984D01*
X125717957Y-69086687D01*
X125843889Y-69089616D01*
X125923039Y-69100116D01*
X125959228Y-69120756D01*
X125956277Y-69154102D01*
X125918009Y-69202723D01*
X125907147Y-69213814D01*
X125832153Y-69256013D01*
X125742408Y-69259937D01*
X125661333Y-69227034D01*
X125619806Y-69204741D01*
X125583100Y-69212056D01*
X125540305Y-69242345D01*
X125497007Y-69282632D01*
X125491662Y-69312946D01*
X125505739Y-69334765D01*
X125587624Y-69397104D01*
X125697312Y-69431663D01*
X125818617Y-69436176D01*
X125935355Y-69408376D01*
X125957998Y-69398108D01*
X126051055Y-69324228D01*
X126110244Y-69212956D01*
X126135115Y-69065231D01*
X126135936Y-69028663D01*
X126120225Y-68874099D01*
X125954912Y-68874099D01*
X125953461Y-68908249D01*
X125905601Y-68927721D01*
X125809786Y-68934127D01*
X125805445Y-68934134D01*
X125715628Y-68930914D01*
X125667672Y-68919877D01*
X125652915Y-68898963D01*
X125652893Y-68897812D01*
X125674480Y-68838418D01*
X125728819Y-68799145D01*
X125800275Y-68784475D01*
X125873212Y-68798893D01*
X125911501Y-68823660D01*
X125954912Y-68874099D01*
X126120225Y-68874099D01*
X126119586Y-68867818D01*
X126071257Y-68744535D01*
X125992177Y-68660209D01*
X125883571Y-68616233D01*
X125768884Y-68611628D01*
X125645368Y-68645022D01*
G36*
X131898658Y-67340692D02*
X131792711Y-67379936D01*
X131706199Y-67455037D01*
X131691952Y-67474945D01*
X131652202Y-67571255D01*
X131633360Y-67694686D01*
X131636207Y-67825660D01*
X131661521Y-67944601D01*
X131672158Y-67971771D01*
X131743674Y-68077943D01*
X131841983Y-68144732D01*
X131958481Y-68169265D01*
X132084563Y-68148667D01*
X132136376Y-68126837D01*
X132214434Y-68067876D01*
X132269820Y-67993393D01*
X132300912Y-67892622D01*
X132313229Y-67766701D01*
X132310934Y-67723399D01*
X132133899Y-67723399D01*
X132131000Y-67770831D01*
X132109646Y-67888836D01*
X132067331Y-67964104D01*
X132006570Y-67994730D01*
X131929877Y-67978806D01*
X131888794Y-67954524D01*
X131840324Y-67892792D01*
X131814668Y-67802919D01*
X131812498Y-67702542D01*
X131834487Y-67609297D01*
X131873303Y-67548187D01*
X131939465Y-67514303D01*
X132017421Y-67520275D01*
X132088375Y-67564011D01*
X132118752Y-67602605D01*
X132132775Y-67650149D01*
X132133899Y-67723399D01*
X132310934Y-67723399D01*
X132306399Y-67637888D01*
X132280045Y-67528441D01*
X132277746Y-67522763D01*
X132213583Y-67428339D01*
X132121045Y-67365869D01*
X132012086Y-67336328D01*
X131898658Y-67340692D01*
X131898658Y-67340692D01*
G37*
X131898658Y-67340692D02*
X131792711Y-67379936D01*
X131706199Y-67455037D01*
X131691952Y-67474945D01*
X131652202Y-67571255D01*
X131633360Y-67694686D01*
X131636207Y-67825660D01*
X131661521Y-67944601D01*
X131672158Y-67971771D01*
X131743674Y-68077943D01*
X131841983Y-68144732D01*
X131958481Y-68169265D01*
X132084563Y-68148667D01*
X132136376Y-68126837D01*
X132214434Y-68067876D01*
X132269820Y-67993393D01*
X132300912Y-67892622D01*
X132313229Y-67766701D01*
X132310934Y-67723399D01*
X132133899Y-67723399D01*
X132131000Y-67770831D01*
X132109646Y-67888836D01*
X132067331Y-67964104D01*
X132006570Y-67994730D01*
X131929877Y-67978806D01*
X131888794Y-67954524D01*
X131840324Y-67892792D01*
X131814668Y-67802919D01*
X131812498Y-67702542D01*
X131834487Y-67609297D01*
X131873303Y-67548187D01*
X131939465Y-67514303D01*
X132017421Y-67520275D01*
X132088375Y-67564011D01*
X132118752Y-67602605D01*
X132132775Y-67650149D01*
X132133899Y-67723399D01*
X132310934Y-67723399D01*
X132306399Y-67637888D01*
X132280045Y-67528441D01*
X132277746Y-67522763D01*
X132213583Y-67428339D01*
X132121045Y-67365869D01*
X132012086Y-67336328D01*
X131898658Y-67340692D01*
G36*
X130300866Y-67358442D02*
X130261868Y-67374898D01*
X130179015Y-67440070D01*
X130116482Y-67540203D01*
X130081900Y-67661017D01*
X130077475Y-67720070D01*
X130076917Y-67815415D01*
X130331171Y-67815415D01*
X130460999Y-67818050D01*
X130544160Y-67827615D01*
X130584643Y-67846606D01*
X130586437Y-67877514D01*
X130553532Y-67922833D01*
X130534574Y-67942542D01*
X130460676Y-67983734D01*
X130369009Y-67990060D01*
X130279712Y-67960549D01*
X130271157Y-67955243D01*
X130227215Y-67932446D01*
X130193770Y-67941455D01*
X130157242Y-67976370D01*
X130121043Y-68019307D01*
X130118922Y-68046612D01*
X130146489Y-68076315D01*
X130254104Y-68141460D01*
X130381329Y-68167997D01*
X130512655Y-68154093D01*
X130582472Y-68127830D01*
X130664650Y-68060779D01*
X130723302Y-67959221D01*
X130755878Y-67834972D01*
X130759827Y-67699848D01*
X130748311Y-67643095D01*
X130585425Y-67643095D01*
X130562325Y-67653521D01*
X130502283Y-67660684D01*
X130432873Y-67662863D01*
X130346942Y-67660698D01*
X130300515Y-67651954D01*
X130282344Y-67633257D01*
X130280320Y-67617097D01*
X130301319Y-67557628D01*
X130353986Y-67520103D01*
X130422824Y-67507458D01*
X130492338Y-67522626D01*
X130545845Y-67566818D01*
X130575324Y-67615517D01*
X130585425Y-67643095D01*
X130748311Y-67643095D01*
X130732599Y-67565664D01*
X130713992Y-67518353D01*
X130642848Y-67415588D01*
X130545287Y-67353097D01*
X130428797Y-67333257D01*
X130300866Y-67358442D01*
X130300866Y-67358442D01*
G37*
X130300866Y-67358442D02*
X130261868Y-67374898D01*
X130179015Y-67440070D01*
X130116482Y-67540203D01*
X130081900Y-67661017D01*
X130077475Y-67720070D01*
X130076917Y-67815415D01*
X130331171Y-67815415D01*
X130460999Y-67818050D01*
X130544160Y-67827615D01*
X130584643Y-67846606D01*
X130586437Y-67877514D01*
X130553532Y-67922833D01*
X130534574Y-67942542D01*
X130460676Y-67983734D01*
X130369009Y-67990060D01*
X130279712Y-67960549D01*
X130271157Y-67955243D01*
X130227215Y-67932446D01*
X130193770Y-67941455D01*
X130157242Y-67976370D01*
X130121043Y-68019307D01*
X130118922Y-68046612D01*
X130146489Y-68076315D01*
X130254104Y-68141460D01*
X130381329Y-68167997D01*
X130512655Y-68154093D01*
X130582472Y-68127830D01*
X130664650Y-68060779D01*
X130723302Y-67959221D01*
X130755878Y-67834972D01*
X130759827Y-67699848D01*
X130748311Y-67643095D01*
X130585425Y-67643095D01*
X130562325Y-67653521D01*
X130502283Y-67660684D01*
X130432873Y-67662863D01*
X130346942Y-67660698D01*
X130300515Y-67651954D01*
X130282344Y-67633257D01*
X130280320Y-67617097D01*
X130301319Y-67557628D01*
X130353986Y-67520103D01*
X130422824Y-67507458D01*
X130492338Y-67522626D01*
X130545845Y-67566818D01*
X130575324Y-67615517D01*
X130585425Y-67643095D01*
X130748311Y-67643095D01*
X130732599Y-67565664D01*
X130713992Y-67518353D01*
X130642848Y-67415588D01*
X130545287Y-67353097D01*
X130428797Y-67333257D01*
X130300866Y-67358442D01*
G36*
X129492262Y-67348734D02*
X129396107Y-67405172D01*
X129359214Y-67443366D01*
X129340755Y-67474030D01*
X129328110Y-67518493D01*
X129320248Y-67585872D01*
X129316136Y-67685280D01*
X129314740Y-67825834D01*
X129314719Y-67836095D01*
X129314154Y-68174593D01*
X129396787Y-68166626D01*
X129479419Y-68158659D01*
X129486690Y-67879970D01*
X129493850Y-67731459D01*
X129508031Y-67626949D01*
X129531809Y-67559788D01*
X129567757Y-67523321D01*
X129618451Y-67510895D01*
X129629556Y-67510699D01*
X129680949Y-67515210D01*
X129717101Y-67533082D01*
X129741213Y-67572147D01*
X129756483Y-67640235D01*
X129766109Y-67745176D01*
X129771812Y-67858906D01*
X129784524Y-68158659D01*
X129867332Y-68166639D01*
X129935298Y-68162419D01*
X129963387Y-68140096D01*
X129967593Y-68103525D01*
X129970286Y-68026014D01*
X129971318Y-67917459D01*
X129970543Y-67787752D01*
X129969568Y-67725309D01*
X129962502Y-67345045D01*
X129891045Y-67336851D01*
X129826081Y-67340468D01*
X129784612Y-67357685D01*
X129737865Y-67373406D01*
X129698832Y-67359522D01*
X129597947Y-67332339D01*
X129492262Y-67348734D01*
X129492262Y-67348734D01*
G37*
X129492262Y-67348734D02*
X129396107Y-67405172D01*
X129359214Y-67443366D01*
X129340755Y-67474030D01*
X129328110Y-67518493D01*
X129320248Y-67585872D01*
X129316136Y-67685280D01*
X129314740Y-67825834D01*
X129314719Y-67836095D01*
X129314154Y-68174593D01*
X129396787Y-68166626D01*
X129479419Y-68158659D01*
X129486690Y-67879970D01*
X129493850Y-67731459D01*
X129508031Y-67626949D01*
X129531809Y-67559788D01*
X129567757Y-67523321D01*
X129618451Y-67510895D01*
X129629556Y-67510699D01*
X129680949Y-67515210D01*
X129717101Y-67533082D01*
X129741213Y-67572147D01*
X129756483Y-67640235D01*
X129766109Y-67745176D01*
X129771812Y-67858906D01*
X129784524Y-68158659D01*
X129867332Y-68166639D01*
X129935298Y-68162419D01*
X129963387Y-68140096D01*
X129967593Y-68103525D01*
X129970286Y-68026014D01*
X129971318Y-67917459D01*
X129970543Y-67787752D01*
X129969568Y-67725309D01*
X129962502Y-67345045D01*
X129891045Y-67336851D01*
X129826081Y-67340468D01*
X129784612Y-67357685D01*
X129737865Y-67373406D01*
X129698832Y-67359522D01*
X129597947Y-67332339D01*
X129492262Y-67348734D01*
G36*
X128353697Y-67359716D02*
X128295548Y-67383993D01*
X128194284Y-67435655D01*
X128239354Y-67498509D01*
X128286978Y-67543682D01*
X128335275Y-67545278D01*
X128391128Y-67533049D01*
X128472051Y-67521146D01*
X128506757Y-67517308D01*
X128583788Y-67513441D01*
X128625175Y-67523660D01*
X128644371Y-67549681D01*
X128640949Y-67599257D01*
X128595732Y-67637876D01*
X128517501Y-67659870D01*
X128468993Y-67662863D01*
X128346735Y-67681678D01*
X128254865Y-67733642D01*
X128198553Y-67812031D01*
X128182972Y-67910119D01*
X128205981Y-68004841D01*
X128266969Y-68088659D01*
X128362702Y-68144324D01*
X128483932Y-68169191D01*
X128621414Y-68160616D01*
X128691231Y-68143612D01*
X128770202Y-68109389D01*
X128830743Y-68071329D01*
X128893979Y-68022218D01*
X128834502Y-67958908D01*
X128775026Y-67895598D01*
X128694990Y-67944400D01*
X128611648Y-67980340D01*
X128526124Y-67993765D01*
X128450385Y-67986246D01*
X128396396Y-67959360D01*
X128376121Y-67914678D01*
X128377371Y-67902632D01*
X128397909Y-67871693D01*
X128451863Y-67847204D01*
X128538781Y-67826711D01*
X128648948Y-67803586D01*
X128720250Y-67781659D01*
X128764163Y-67754931D01*
X128792161Y-67717402D01*
X128806227Y-67686885D01*
X128827319Y-67580719D01*
X128806574Y-67480748D01*
X128747900Y-67401056D01*
X128721633Y-67382065D01*
X128612506Y-67341851D01*
X128483542Y-67334430D01*
X128353697Y-67359716D01*
X128353697Y-67359716D01*
G37*
X128353697Y-67359716D02*
X128295548Y-67383993D01*
X128194284Y-67435655D01*
X128239354Y-67498509D01*
X128286978Y-67543682D01*
X128335275Y-67545278D01*
X128391128Y-67533049D01*
X128472051Y-67521146D01*
X128506757Y-67517308D01*
X128583788Y-67513441D01*
X128625175Y-67523660D01*
X128644371Y-67549681D01*
X128640949Y-67599257D01*
X128595732Y-67637876D01*
X128517501Y-67659870D01*
X128468993Y-67662863D01*
X128346735Y-67681678D01*
X128254865Y-67733642D01*
X128198553Y-67812031D01*
X128182972Y-67910119D01*
X128205981Y-68004841D01*
X128266969Y-68088659D01*
X128362702Y-68144324D01*
X128483932Y-68169191D01*
X128621414Y-68160616D01*
X128691231Y-68143612D01*
X128770202Y-68109389D01*
X128830743Y-68071329D01*
X128893979Y-68022218D01*
X128834502Y-67958908D01*
X128775026Y-67895598D01*
X128694990Y-67944400D01*
X128611648Y-67980340D01*
X128526124Y-67993765D01*
X128450385Y-67986246D01*
X128396396Y-67959360D01*
X128376121Y-67914678D01*
X128377371Y-67902632D01*
X128397909Y-67871693D01*
X128451863Y-67847204D01*
X128538781Y-67826711D01*
X128648948Y-67803586D01*
X128720250Y-67781659D01*
X128764163Y-67754931D01*
X128792161Y-67717402D01*
X128806227Y-67686885D01*
X128827319Y-67580719D01*
X128806574Y-67480748D01*
X128747900Y-67401056D01*
X128721633Y-67382065D01*
X128612506Y-67341851D01*
X128483542Y-67334430D01*
X128353697Y-67359716D01*
G36*
X127646113Y-67356642D02*
X127545120Y-67413295D01*
X127525099Y-67431574D01*
X127484486Y-67476281D01*
X127459805Y-67520217D01*
X127446198Y-67578697D01*
X127438808Y-67667039D01*
X127436675Y-67710403D01*
X127438359Y-67859401D01*
X127461423Y-67970450D01*
X127509562Y-68053279D01*
X127586471Y-68117616D01*
X127592816Y-68121550D01*
X127697195Y-68160484D01*
X127814656Y-68167364D01*
X127903043Y-68147115D01*
X127955528Y-68113998D01*
X128012716Y-68062740D01*
X128015054Y-68060247D01*
X128067781Y-67971498D01*
X128098322Y-67852867D01*
X128103883Y-67754351D01*
X127915755Y-67754351D01*
X127913090Y-67846411D01*
X127902292Y-67902608D01*
X127879159Y-67937774D01*
X127859247Y-67953813D01*
X127778428Y-67989909D01*
X127705740Y-67976643D01*
X127661501Y-67942542D01*
X127628618Y-67893546D01*
X127613271Y-67821952D01*
X127610650Y-67751852D01*
X127625054Y-67633091D01*
X127667019Y-67552751D01*
X127734671Y-67513716D01*
X127767557Y-67510310D01*
X127840758Y-67526843D01*
X127887941Y-67579264D01*
X127911679Y-67671809D01*
X127915755Y-67754351D01*
X128103883Y-67754351D01*
X128105786Y-67720650D01*
X128089277Y-67591142D01*
X128047903Y-67480642D01*
X128046932Y-67478939D01*
X127973718Y-67398435D01*
X127873671Y-67350415D01*
X127760050Y-67336083D01*
X127646113Y-67356642D01*
X127646113Y-67356642D01*
G37*
X127646113Y-67356642D02*
X127545120Y-67413295D01*
X127525099Y-67431574D01*
X127484486Y-67476281D01*
X127459805Y-67520217D01*
X127446198Y-67578697D01*
X127438808Y-67667039D01*
X127436675Y-67710403D01*
X127438359Y-67859401D01*
X127461423Y-67970450D01*
X127509562Y-68053279D01*
X127586471Y-68117616D01*
X127592816Y-68121550D01*
X127697195Y-68160484D01*
X127814656Y-68167364D01*
X127903043Y-68147115D01*
X127955528Y-68113998D01*
X128012716Y-68062740D01*
X128015054Y-68060247D01*
X128067781Y-67971498D01*
X128098322Y-67852867D01*
X128103883Y-67754351D01*
X127915755Y-67754351D01*
X127913090Y-67846411D01*
X127902292Y-67902608D01*
X127879159Y-67937774D01*
X127859247Y-67953813D01*
X127778428Y-67989909D01*
X127705740Y-67976643D01*
X127661501Y-67942542D01*
X127628618Y-67893546D01*
X127613271Y-67821952D01*
X127610650Y-67751852D01*
X127625054Y-67633091D01*
X127667019Y-67552751D01*
X127734671Y-67513716D01*
X127767557Y-67510310D01*
X127840758Y-67526843D01*
X127887941Y-67579264D01*
X127911679Y-67671809D01*
X127915755Y-67754351D01*
X128103883Y-67754351D01*
X128105786Y-67720650D01*
X128089277Y-67591142D01*
X128047903Y-67480642D01*
X128046932Y-67478939D01*
X127973718Y-67398435D01*
X127873671Y-67350415D01*
X127760050Y-67336083D01*
X127646113Y-67356642D01*
G36*
X127127567Y-67612012D02*
X127126535Y-67737982D01*
X127122358Y-67823671D01*
X127113413Y-67879624D01*
X127098077Y-67916388D01*
X127076716Y-67942542D01*
X127021367Y-67980636D01*
X126975015Y-67993393D01*
X126919665Y-67976137D01*
X126873313Y-67942542D01*
X126850597Y-67914151D01*
X126835777Y-67876355D01*
X126827230Y-67818610D01*
X126823334Y-67730367D01*
X126822462Y-67612012D01*
X126822462Y-67332332D01*
X126643225Y-67332332D01*
X126650211Y-67745495D01*
X126657197Y-68158659D01*
X126739830Y-68166626D01*
X126799484Y-68165597D01*
X126821572Y-68143949D01*
X126822462Y-68134191D01*
X126827295Y-68109224D01*
X126850783Y-68110329D01*
X126897476Y-68132580D01*
X127013755Y-68167547D01*
X127128501Y-68151875D01*
X127140280Y-68147335D01*
X127195279Y-68112865D01*
X127241982Y-68070083D01*
X127263077Y-68041098D01*
X127277978Y-68002626D01*
X127288081Y-67945287D01*
X127294784Y-67859701D01*
X127299487Y-67736485D01*
X127301159Y-67672988D01*
X127309485Y-67332332D01*
X127127567Y-67332332D01*
X127127567Y-67612012D01*
X127127567Y-67612012D01*
G37*
X127127567Y-67612012D02*
X127126535Y-67737982D01*
X127122358Y-67823671D01*
X127113413Y-67879624D01*
X127098077Y-67916388D01*
X127076716Y-67942542D01*
X127021367Y-67980636D01*
X126975015Y-67993393D01*
X126919665Y-67976137D01*
X126873313Y-67942542D01*
X126850597Y-67914151D01*
X126835777Y-67876355D01*
X126827230Y-67818610D01*
X126823334Y-67730367D01*
X126822462Y-67612012D01*
X126822462Y-67332332D01*
X126643225Y-67332332D01*
X126650211Y-67745495D01*
X126657197Y-68158659D01*
X126739830Y-68166626D01*
X126799484Y-68165597D01*
X126821572Y-68143949D01*
X126822462Y-68134191D01*
X126827295Y-68109224D01*
X126850783Y-68110329D01*
X126897476Y-68132580D01*
X127013755Y-68167547D01*
X127128501Y-68151875D01*
X127140280Y-68147335D01*
X127195279Y-68112865D01*
X127241982Y-68070083D01*
X127263077Y-68041098D01*
X127277978Y-68002626D01*
X127288081Y-67945287D01*
X127294784Y-67859701D01*
X127299487Y-67736485D01*
X127301159Y-67672988D01*
X127309485Y-67332332D01*
X127127567Y-67332332D01*
X127127567Y-67612012D01*
G36*
X126338066Y-67340102D02*
X126314416Y-67365645D01*
X126313954Y-67371912D01*
X126309358Y-67397279D01*
X126286570Y-67391308D01*
X126257446Y-67371912D01*
X126179250Y-67340903D01*
X126084468Y-67334362D01*
X125998027Y-67352591D01*
X125969214Y-67368421D01*
X125938497Y-67394730D01*
X125938387Y-67419070D01*
X125971036Y-67458944D01*
X125981755Y-67470396D01*
X126036277Y-67515652D01*
X126093288Y-67525397D01*
X126125568Y-67520913D01*
X126198285Y-67519295D01*
X126254726Y-67552954D01*
X126260720Y-67558778D01*
X126284400Y-67587475D01*
X126299857Y-67623958D01*
X126308796Y-67678903D01*
X126312926Y-67762985D01*
X126313953Y-67886879D01*
X126313954Y-67891692D01*
X126313954Y-68171371D01*
X126491932Y-68171371D01*
X126491932Y-67332332D01*
X126402943Y-67332332D01*
X126338066Y-67340102D01*
X126338066Y-67340102D01*
G37*
X126338066Y-67340102D02*
X126314416Y-67365645D01*
X126313954Y-67371912D01*
X126309358Y-67397279D01*
X126286570Y-67391308D01*
X126257446Y-67371912D01*
X126179250Y-67340903D01*
X126084468Y-67334362D01*
X125998027Y-67352591D01*
X125969214Y-67368421D01*
X125938497Y-67394730D01*
X125938387Y-67419070D01*
X125971036Y-67458944D01*
X125981755Y-67470396D01*
X126036277Y-67515652D01*
X126093288Y-67525397D01*
X126125568Y-67520913D01*
X126198285Y-67519295D01*
X126254726Y-67552954D01*
X126260720Y-67558778D01*
X126284400Y-67587475D01*
X126299857Y-67623958D01*
X126308796Y-67678903D01*
X126312926Y-67762985D01*
X126313953Y-67886879D01*
X126313954Y-67891692D01*
X126313954Y-68171371D01*
X126491932Y-68171371D01*
X126491932Y-67332332D01*
X126402943Y-67332332D01*
X126338066Y-67340102D01*
G36*
X125489776Y-67346893D02*
X125398002Y-67389539D01*
X125331948Y-67440298D01*
X125309457Y-67479090D01*
X125328181Y-67515816D01*
X125361538Y-67543411D01*
X125410203Y-67573053D01*
X125446999Y-67570552D01*
X125480747Y-67549767D01*
X125567582Y-67513634D01*
X125649533Y-67522397D01*
X125717985Y-67570240D01*
X125764322Y-67651345D01*
X125780020Y-67751852D01*
X125762074Y-67858739D01*
X125713978Y-67937789D01*
X125644348Y-67983186D01*
X125561799Y-67989112D01*
X125480747Y-67953936D01*
X125436250Y-67929262D01*
X125398766Y-67935723D01*
X125361538Y-67960292D01*
X125316071Y-68002130D01*
X125312784Y-68039150D01*
X125353054Y-68083087D01*
X125378268Y-68102700D01*
X125477927Y-68149186D01*
X125596695Y-68163950D01*
X125712803Y-68145509D01*
X125754088Y-68128264D01*
X125860722Y-68049116D01*
X125927578Y-67941300D01*
X125956464Y-67801495D01*
X125957998Y-67754051D01*
X125944730Y-67608610D01*
X125911539Y-67511878D01*
X125835138Y-67419221D01*
X125730391Y-67358697D01*
X125610777Y-67333517D01*
X125489776Y-67346893D01*
X125489776Y-67346893D01*
G37*
X125489776Y-67346893D02*
X125398002Y-67389539D01*
X125331948Y-67440298D01*
X125309457Y-67479090D01*
X125328181Y-67515816D01*
X125361538Y-67543411D01*
X125410203Y-67573053D01*
X125446999Y-67570552D01*
X125480747Y-67549767D01*
X125567582Y-67513634D01*
X125649533Y-67522397D01*
X125717985Y-67570240D01*
X125764322Y-67651345D01*
X125780020Y-67751852D01*
X125762074Y-67858739D01*
X125713978Y-67937789D01*
X125644348Y-67983186D01*
X125561799Y-67989112D01*
X125480747Y-67953936D01*
X125436250Y-67929262D01*
X125398766Y-67935723D01*
X125361538Y-67960292D01*
X125316071Y-68002130D01*
X125312784Y-68039150D01*
X125353054Y-68083087D01*
X125378268Y-68102700D01*
X125477927Y-68149186D01*
X125596695Y-68163950D01*
X125712803Y-68145509D01*
X125754088Y-68128264D01*
X125860722Y-68049116D01*
X125927578Y-67941300D01*
X125956464Y-67801495D01*
X125957998Y-67754051D01*
X125944730Y-67608610D01*
X125911539Y-67511878D01*
X125835138Y-67419221D01*
X125730391Y-67358697D01*
X125610777Y-67333517D01*
X125489776Y-67346893D01*
G36*
X124810232Y-67357606D02*
X124774691Y-67372661D01*
X124689976Y-67428983D01*
X124634544Y-67508793D01*
X124601970Y-67622845D01*
X124594636Y-67674072D01*
X124578024Y-67815415D01*
X124835778Y-67815415D01*
X124966545Y-67817983D01*
X125050671Y-67827336D01*
X125092181Y-67845949D01*
X125095101Y-67876294D01*
X125063459Y-67920845D01*
X125042682Y-67942542D01*
X124968784Y-67983734D01*
X124877118Y-67990060D01*
X124787820Y-67960549D01*
X124779265Y-67955243D01*
X124735323Y-67932446D01*
X124701878Y-67941455D01*
X124665350Y-67976370D01*
X124629151Y-68019307D01*
X124627030Y-68046612D01*
X124654597Y-68076315D01*
X124762212Y-68141460D01*
X124889437Y-68167997D01*
X125020763Y-68154093D01*
X125090580Y-68127830D01*
X125172759Y-68060779D01*
X125231411Y-67959221D01*
X125263986Y-67834972D01*
X125267935Y-67699848D01*
X125256420Y-67643095D01*
X125093533Y-67643095D01*
X125070433Y-67653521D01*
X125010391Y-67660684D01*
X124940981Y-67662863D01*
X124855050Y-67660698D01*
X124808623Y-67651954D01*
X124790453Y-67633257D01*
X124788428Y-67617097D01*
X124809427Y-67557628D01*
X124862094Y-67520103D01*
X124930932Y-67507458D01*
X125000446Y-67522626D01*
X125053953Y-67566818D01*
X125083432Y-67615517D01*
X125093533Y-67643095D01*
X125256420Y-67643095D01*
X125240708Y-67565664D01*
X125222100Y-67518353D01*
X125150928Y-67415898D01*
X125053120Y-67353184D01*
X124936836Y-67332868D01*
X124810232Y-67357606D01*
X124810232Y-67357606D01*
G37*
X124810232Y-67357606D02*
X124774691Y-67372661D01*
X124689976Y-67428983D01*
X124634544Y-67508793D01*
X124601970Y-67622845D01*
X124594636Y-67674072D01*
X124578024Y-67815415D01*
X124835778Y-67815415D01*
X124966545Y-67817983D01*
X125050671Y-67827336D01*
X125092181Y-67845949D01*
X125095101Y-67876294D01*
X125063459Y-67920845D01*
X125042682Y-67942542D01*
X124968784Y-67983734D01*
X124877118Y-67990060D01*
X124787820Y-67960549D01*
X124779265Y-67955243D01*
X124735323Y-67932446D01*
X124701878Y-67941455D01*
X124665350Y-67976370D01*
X124629151Y-68019307D01*
X124627030Y-68046612D01*
X124654597Y-68076315D01*
X124762212Y-68141460D01*
X124889437Y-68167997D01*
X125020763Y-68154093D01*
X125090580Y-68127830D01*
X125172759Y-68060779D01*
X125231411Y-67959221D01*
X125263986Y-67834972D01*
X125267935Y-67699848D01*
X125256420Y-67643095D01*
X125093533Y-67643095D01*
X125070433Y-67653521D01*
X125010391Y-67660684D01*
X124940981Y-67662863D01*
X124855050Y-67660698D01*
X124808623Y-67651954D01*
X124790453Y-67633257D01*
X124788428Y-67617097D01*
X124809427Y-67557628D01*
X124862094Y-67520103D01*
X124930932Y-67507458D01*
X125000446Y-67522626D01*
X125053953Y-67566818D01*
X125083432Y-67615517D01*
X125093533Y-67643095D01*
X125256420Y-67643095D01*
X125240708Y-67565664D01*
X125222100Y-67518353D01*
X125150928Y-67415898D01*
X125053120Y-67353184D01*
X124936836Y-67332868D01*
X124810232Y-67357606D01*
G36*
X128377033Y-61307442D02*
X128257671Y-61311821D01*
X128155759Y-61318509D01*
X128082372Y-61327338D01*
X128048586Y-61338138D01*
X128048458Y-61338288D01*
X128034778Y-61373595D01*
X128014765Y-61449236D01*
X127990719Y-61555433D01*
X127964939Y-61682405D01*
X127954302Y-61738739D01*
X127928266Y-61871059D01*
X127902592Y-61986238D01*
X127879661Y-62074622D01*
X127861855Y-62126560D01*
X127856495Y-62135168D01*
X127822878Y-62157539D01*
X127757925Y-62189552D01*
X127656782Y-62233368D01*
X127514595Y-62291153D01*
X127442301Y-62319781D01*
X127312090Y-62371052D01*
X126985338Y-62143884D01*
X126871609Y-62065942D01*
X126771616Y-61999532D01*
X126693140Y-61949656D01*
X126643962Y-61921316D01*
X126632033Y-61916717D01*
X126603566Y-61934202D01*
X126548487Y-61981472D01*
X126474458Y-62050743D01*
X126389138Y-62134235D01*
X126300191Y-62224166D01*
X126215276Y-62312753D01*
X126142055Y-62392217D01*
X126088190Y-62454775D01*
X126061341Y-62492645D01*
X126059699Y-62498042D01*
X126073513Y-62529963D01*
X126111543Y-62595199D01*
X126168675Y-62685529D01*
X126239794Y-62792730D01*
X126275816Y-62845469D01*
X126351303Y-62955843D01*
X126415296Y-63051021D01*
X126462758Y-63123381D01*
X126488647Y-63165300D01*
X126491932Y-63172381D01*
X126482022Y-63205478D01*
X126455663Y-63272311D01*
X126417909Y-63361570D01*
X126373818Y-63461945D01*
X126328443Y-63562126D01*
X126286840Y-63650804D01*
X126254065Y-63716669D01*
X126235172Y-63748410D01*
X126233988Y-63749447D01*
X126200292Y-63759731D01*
X126128160Y-63775723D01*
X126029344Y-63794951D01*
X125950671Y-63809000D01*
X125825874Y-63830941D01*
X125705491Y-63852857D01*
X125607526Y-63871439D01*
X125570260Y-63878927D01*
X125449489Y-63904113D01*
X125449489Y-64319813D01*
X125449959Y-64475139D01*
X125451878Y-64586983D01*
X125456010Y-64662709D01*
X125463121Y-64709681D01*
X125473974Y-64735263D01*
X125489335Y-64746819D01*
X125493984Y-64748384D01*
X125538031Y-64758517D01*
X125618003Y-64774675D01*
X125719748Y-64794041D01*
X125767307Y-64802770D01*
X125886670Y-64824852D01*
X126002651Y-64847029D01*
X126094980Y-64865405D01*
X126115238Y-64869637D01*
X126234339Y-64894989D01*
X126355129Y-65198979D01*
X126475918Y-65502970D01*
X126267809Y-65806046D01*
X126193552Y-65916413D01*
X126130997Y-66013626D01*
X126085340Y-66089279D01*
X126061779Y-66134964D01*
X126059699Y-66142733D01*
X126076985Y-66171611D01*
X126123713Y-66227420D01*
X126192190Y-66302404D01*
X126274723Y-66388803D01*
X126363617Y-66478859D01*
X126451181Y-66564814D01*
X126529719Y-66638910D01*
X126591540Y-66693388D01*
X126628949Y-66720490D01*
X126634241Y-66722122D01*
X126663913Y-66708443D01*
X126727079Y-66670845D01*
X126815513Y-66614486D01*
X126920992Y-66544523D01*
X126964356Y-66515086D01*
X127267407Y-66308049D01*
X127416234Y-66390413D01*
X127494175Y-66429034D01*
X127555002Y-66450872D01*
X127585365Y-66451253D01*
X127600090Y-66422937D01*
X127631438Y-66353852D01*
X127676704Y-66250261D01*
X127733182Y-66118431D01*
X127798167Y-65964625D01*
X127868954Y-65795108D01*
X127874651Y-65781381D01*
X128143634Y-65133033D01*
X128086902Y-65087516D01*
X127959307Y-64981862D01*
X127865324Y-64895223D01*
X127796195Y-64818493D01*
X127743165Y-64742568D01*
X127724870Y-64711054D01*
X127688572Y-64640980D01*
X127666057Y-64579882D01*
X127654088Y-64511646D01*
X127649431Y-64420158D01*
X127648789Y-64332132D01*
X127656740Y-64163368D01*
X127684310Y-64028794D01*
X127737067Y-63913727D01*
X127820583Y-63803486D01*
X127868682Y-63752551D01*
X128025825Y-63624070D01*
X128197273Y-63543505D01*
X128387867Y-63508810D01*
X128449543Y-63507040D01*
X128657473Y-63530597D01*
X128842203Y-63598775D01*
X129000827Y-63709773D01*
X129130439Y-63861789D01*
X129190173Y-63966000D01*
X129255717Y-64155298D01*
X129273408Y-64354916D01*
X129242761Y-64556679D01*
X129228097Y-64604699D01*
X129171052Y-64722619D01*
X129082673Y-64846666D01*
X128976894Y-64959806D01*
X128868102Y-65044728D01*
X128812511Y-65087171D01*
X128782138Y-65126084D01*
X128780220Y-65134666D01*
X128789543Y-65166282D01*
X128815459Y-65237218D01*
X128854894Y-65339903D01*
X128904769Y-65466766D01*
X128962010Y-65610234D01*
X129023538Y-65762736D01*
X129086278Y-65916701D01*
X129147154Y-66064556D01*
X129203088Y-66198730D01*
X129251004Y-66311652D01*
X129287826Y-66395750D01*
X129310477Y-66443451D01*
X129314969Y-66450748D01*
X129345031Y-66450646D01*
X129406589Y-66430416D01*
X129486560Y-66394397D01*
X129489931Y-66392703D01*
X129646554Y-66313639D01*
X129945507Y-66517881D01*
X130055462Y-66591044D01*
X130152617Y-66652048D01*
X130228380Y-66695766D01*
X130274160Y-66717072D01*
X130281459Y-66718292D01*
X130311516Y-66699510D01*
X130369326Y-66650410D01*
X130447662Y-66577578D01*
X130539297Y-66487603D01*
X130581297Y-66444968D01*
X130674656Y-66348985D01*
X130755139Y-66265750D01*
X130816156Y-66202116D01*
X130851118Y-66164935D01*
X130856564Y-66158699D01*
X130847248Y-66133055D01*
X130813352Y-66073450D01*
X130759568Y-65987508D01*
X130690587Y-65882849D01*
X130650279Y-65823576D01*
X130431565Y-65505228D01*
X130550695Y-65204716D01*
X130596000Y-65090900D01*
X130634259Y-64995664D01*
X130661761Y-64928183D01*
X130674796Y-64897633D01*
X130675235Y-64896852D01*
X130700760Y-64889882D01*
X130767532Y-64875541D01*
X130866773Y-64855612D01*
X130989711Y-64831880D01*
X131058910Y-64818848D01*
X131437177Y-64748197D01*
X131440618Y-64539578D01*
X131269036Y-64539578D01*
X131267674Y-64596430D01*
X131265339Y-64611812D01*
X131238706Y-64616336D01*
X131171676Y-64628720D01*
X131073778Y-64647176D01*
X130954543Y-64669921D01*
X130928815Y-64674858D01*
X130763270Y-64709836D01*
X130643773Y-64742202D01*
X130572234Y-64771403D01*
X130556626Y-64782916D01*
X130525064Y-64830136D01*
X130483690Y-64912741D01*
X130436681Y-65019753D01*
X130388217Y-65140195D01*
X130342476Y-65263088D01*
X130303638Y-65377455D01*
X130275880Y-65472319D01*
X130263381Y-65536701D01*
X130263749Y-65552331D01*
X130282687Y-65597854D01*
X130324797Y-65674396D01*
X130383927Y-65771429D01*
X130453926Y-65878430D01*
X130456826Y-65882710D01*
X130636925Y-66148201D01*
X130452525Y-66333840D01*
X130373060Y-66410094D01*
X130304666Y-66468841D01*
X130256154Y-66502899D01*
X130238643Y-66508166D01*
X130206950Y-66489838D01*
X130143194Y-66448630D01*
X130056951Y-66390850D01*
X129967898Y-66329808D01*
X129839311Y-66244996D01*
X129739367Y-66191141D01*
X129658500Y-66165648D01*
X129587141Y-66165920D01*
X129515722Y-66189364D01*
X129492312Y-66200808D01*
X129438417Y-66220645D01*
X129406017Y-66217841D01*
X129404795Y-66216286D01*
X129391306Y-66186919D01*
X129361629Y-66117834D01*
X129318850Y-66016364D01*
X129266057Y-65889848D01*
X129206338Y-65745620D01*
X129189248Y-65704159D01*
X128987648Y-65214598D01*
X129124587Y-65089444D01*
X129268465Y-64926241D01*
X129374142Y-64738679D01*
X129438535Y-64535788D01*
X129458562Y-64326596D01*
X129440956Y-64162654D01*
X129373733Y-63949194D01*
X129267907Y-63762160D01*
X129129302Y-63605038D01*
X128963739Y-63481316D01*
X128777042Y-63394481D01*
X128575033Y-63348022D01*
X128363535Y-63345424D01*
X128150204Y-63389584D01*
X127943520Y-63481118D01*
X127768511Y-63610087D01*
X127628750Y-63771545D01*
X127527812Y-63960548D01*
X127469272Y-64172147D01*
X127455347Y-64351100D01*
X127480297Y-64578357D01*
X127551822Y-64787170D01*
X127668217Y-64973822D01*
X127806489Y-65116861D01*
X127919934Y-65213830D01*
X127711347Y-65720078D01*
X127649690Y-65869307D01*
X127594588Y-66001876D01*
X127548953Y-66110847D01*
X127515695Y-66189286D01*
X127497722Y-66230255D01*
X127495505Y-66234557D01*
X127470670Y-66229730D01*
X127419362Y-66207094D01*
X127410872Y-66202776D01*
X127343907Y-66174287D01*
X127280466Y-66164784D01*
X127211455Y-66176885D01*
X127127781Y-66213210D01*
X127020352Y-66276378D01*
X126914578Y-66345724D01*
X126642149Y-66528686D01*
X126453824Y-66339368D01*
X126265498Y-66150050D01*
X126454991Y-65871787D01*
X126549142Y-65727244D01*
X126611698Y-65616751D01*
X126641759Y-65541966D01*
X126644484Y-65522316D01*
X126634200Y-65463725D01*
X126606580Y-65371498D01*
X126566471Y-65257758D01*
X126518721Y-65134627D01*
X126468178Y-65014224D01*
X126419688Y-64908674D01*
X126378100Y-64830096D01*
X126353888Y-64795659D01*
X126318248Y-64768140D01*
X126262264Y-64743407D01*
X126177445Y-64718786D01*
X126055299Y-64691599D01*
X125970722Y-64674889D01*
X125848408Y-64651497D01*
X125745605Y-64632031D01*
X125671808Y-64618273D01*
X125636514Y-64612009D01*
X125634900Y-64611812D01*
X125631840Y-64588143D01*
X125629391Y-64524163D01*
X125627850Y-64430410D01*
X125627467Y-64346558D01*
X125628474Y-64225946D01*
X125632480Y-64146905D01*
X125640965Y-64100175D01*
X125655408Y-64076499D01*
X125671962Y-64068019D01*
X125713627Y-64058356D01*
X125793626Y-64042021D01*
X125900248Y-64021339D01*
X126015351Y-63999818D01*
X126156706Y-63971750D01*
X126256138Y-63946440D01*
X126322280Y-63921171D01*
X126363766Y-63893229D01*
X126368207Y-63888837D01*
X126401601Y-63840204D01*
X126446392Y-63756268D01*
X126497478Y-63648948D01*
X126549753Y-63530166D01*
X126598115Y-63411840D01*
X126637458Y-63305893D01*
X126662679Y-63224243D01*
X126669262Y-63185723D01*
X126653969Y-63133684D01*
X126609213Y-63046985D01*
X126537656Y-62930385D01*
X126468602Y-62827049D01*
X126267294Y-62534203D01*
X126450131Y-62352587D01*
X126528666Y-62276395D01*
X126594468Y-62215936D01*
X126638980Y-62178883D01*
X126652694Y-62170971D01*
X126679954Y-62184479D01*
X126740758Y-62221475D01*
X126826728Y-62276668D01*
X126929486Y-62344763D01*
X126954567Y-62361662D01*
X127087209Y-62448546D01*
X127186905Y-62506958D01*
X127260280Y-62540360D01*
X127313961Y-62552213D01*
X127319613Y-62552352D01*
X127384518Y-62541501D01*
X127480529Y-62512431D01*
X127595216Y-62470373D01*
X127716147Y-62420552D01*
X127830891Y-62368198D01*
X127927018Y-62318538D01*
X127992097Y-62276800D01*
X128006766Y-62263364D01*
X128033544Y-62219543D01*
X128059262Y-62146672D01*
X128085821Y-62037940D01*
X128115124Y-61886540D01*
X128120392Y-61856775D01*
X128181146Y-61509910D01*
X128455257Y-61509910D01*
X128566425Y-61511814D01*
X128655929Y-61516971D01*
X128713406Y-61524548D01*
X128729369Y-61531938D01*
X128733853Y-61563806D01*
X128746141Y-61635762D01*
X128764488Y-61737947D01*
X128787151Y-61860501D01*
X128793456Y-61894067D01*
X128827601Y-62059627D01*
X128859231Y-62181456D01*
X128887583Y-62256840D01*
X128901514Y-62277532D01*
X128950873Y-62311091D01*
X129036225Y-62354806D01*
X129145032Y-62403655D01*
X129264753Y-62452616D01*
X129382851Y-62496665D01*
X129486785Y-62530782D01*
X129564017Y-62549942D01*
X129587638Y-62552352D01*
X129637121Y-62545080D01*
X129698965Y-62520481D01*
X129781133Y-62474381D01*
X129891590Y-62402606D01*
X129951426Y-62361662D01*
X130055383Y-62290819D01*
X130144699Y-62231900D01*
X130210938Y-62190327D01*
X130245665Y-62171523D01*
X130248050Y-62170971D01*
X130273580Y-62188011D01*
X130325842Y-62233973D01*
X130396329Y-62301118D01*
X130450701Y-62355305D01*
X130632523Y-62539639D01*
X130430996Y-62839432D01*
X130358238Y-62950892D01*
X130297166Y-63050594D01*
X130253007Y-63129529D01*
X130230987Y-63178689D01*
X130229469Y-63186777D01*
X130240236Y-63236117D01*
X130269164Y-63319291D01*
X130311191Y-63424892D01*
X130361257Y-63541516D01*
X130414302Y-63657755D01*
X130465264Y-63762205D01*
X130509083Y-63843460D01*
X130540698Y-63890114D01*
X130542249Y-63891715D01*
X130580608Y-63918826D01*
X130642450Y-63943706D01*
X130735804Y-63968764D01*
X130868704Y-63996410D01*
X130928668Y-64007623D01*
X131259199Y-64068152D01*
X131266415Y-64339982D01*
X131268631Y-64450627D01*
X131269036Y-64539578D01*
X131440618Y-64539578D01*
X131451099Y-63904373D01*
X131329723Y-63879477D01*
X131250519Y-63863953D01*
X131139617Y-63843141D01*
X131015416Y-63820467D01*
X130954094Y-63809506D01*
X130843822Y-63787857D01*
X130751215Y-63765782D01*
X130688573Y-63746427D01*
X130669780Y-63736820D01*
X130647315Y-63702361D01*
X130611666Y-63633061D01*
X130568348Y-63541367D01*
X130522878Y-63439724D01*
X130480773Y-63340578D01*
X130447549Y-63256376D01*
X130428724Y-63199563D01*
X130426513Y-63187988D01*
X130439170Y-63154761D01*
X130476279Y-63088167D01*
X130532907Y-62996342D01*
X130604122Y-62887421D01*
X130647665Y-62823255D01*
X130872161Y-62496661D01*
X130583012Y-62206689D01*
X130484055Y-62108710D01*
X130396992Y-62024877D01*
X130328329Y-61961272D01*
X130284576Y-61923974D01*
X130272621Y-61916717D01*
X130245335Y-61930455D01*
X130184128Y-61968332D01*
X130096749Y-62025338D01*
X129990945Y-62096466D01*
X129930480Y-62137879D01*
X129816548Y-62214433D01*
X129715074Y-62278947D01*
X129634313Y-62326452D01*
X129582521Y-62351978D01*
X129569925Y-62354933D01*
X129520669Y-62342122D01*
X129442338Y-62313603D01*
X129346953Y-62274701D01*
X129246534Y-62230739D01*
X129153099Y-62187042D01*
X129078669Y-62148935D01*
X129035264Y-62121743D01*
X129029480Y-62115527D01*
X129018820Y-62079575D01*
X129001468Y-62003367D01*
X128979497Y-61896737D01*
X128954984Y-61769517D01*
X128944637Y-61713447D01*
X128919004Y-61582039D01*
X128893692Y-61468681D01*
X128871039Y-61382741D01*
X128853385Y-61333584D01*
X128847929Y-61326099D01*
X128807458Y-61316398D01*
X128729057Y-61309851D01*
X128623802Y-61306288D01*
X128502768Y-61305542D01*
X128377033Y-61307442D01*
X128377033Y-61307442D01*
G37*
X128377033Y-61307442D02*
X128257671Y-61311821D01*
X128155759Y-61318509D01*
X128082372Y-61327338D01*
X128048586Y-61338138D01*
X128048458Y-61338288D01*
X128034778Y-61373595D01*
X128014765Y-61449236D01*
X127990719Y-61555433D01*
X127964939Y-61682405D01*
X127954302Y-61738739D01*
X127928266Y-61871059D01*
X127902592Y-61986238D01*
X127879661Y-62074622D01*
X127861855Y-62126560D01*
X127856495Y-62135168D01*
X127822878Y-62157539D01*
X127757925Y-62189552D01*
X127656782Y-62233368D01*
X127514595Y-62291153D01*
X127442301Y-62319781D01*
X127312090Y-62371052D01*
X126985338Y-62143884D01*
X126871609Y-62065942D01*
X126771616Y-61999532D01*
X126693140Y-61949656D01*
X126643962Y-61921316D01*
X126632033Y-61916717D01*
X126603566Y-61934202D01*
X126548487Y-61981472D01*
X126474458Y-62050743D01*
X126389138Y-62134235D01*
X126300191Y-62224166D01*
X126215276Y-62312753D01*
X126142055Y-62392217D01*
X126088190Y-62454775D01*
X126061341Y-62492645D01*
X126059699Y-62498042D01*
X126073513Y-62529963D01*
X126111543Y-62595199D01*
X126168675Y-62685529D01*
X126239794Y-62792730D01*
X126275816Y-62845469D01*
X126351303Y-62955843D01*
X126415296Y-63051021D01*
X126462758Y-63123381D01*
X126488647Y-63165300D01*
X126491932Y-63172381D01*
X126482022Y-63205478D01*
X126455663Y-63272311D01*
X126417909Y-63361570D01*
X126373818Y-63461945D01*
X126328443Y-63562126D01*
X126286840Y-63650804D01*
X126254065Y-63716669D01*
X126235172Y-63748410D01*
X126233988Y-63749447D01*
X126200292Y-63759731D01*
X126128160Y-63775723D01*
X126029344Y-63794951D01*
X125950671Y-63809000D01*
X125825874Y-63830941D01*
X125705491Y-63852857D01*
X125607526Y-63871439D01*
X125570260Y-63878927D01*
X125449489Y-63904113D01*
X125449489Y-64319813D01*
X125449959Y-64475139D01*
X125451878Y-64586983D01*
X125456010Y-64662709D01*
X125463121Y-64709681D01*
X125473974Y-64735263D01*
X125489335Y-64746819D01*
X125493984Y-64748384D01*
X125538031Y-64758517D01*
X125618003Y-64774675D01*
X125719748Y-64794041D01*
X125767307Y-64802770D01*
X125886670Y-64824852D01*
X126002651Y-64847029D01*
X126094980Y-64865405D01*
X126115238Y-64869637D01*
X126234339Y-64894989D01*
X126355129Y-65198979D01*
X126475918Y-65502970D01*
X126267809Y-65806046D01*
X126193552Y-65916413D01*
X126130997Y-66013626D01*
X126085340Y-66089279D01*
X126061779Y-66134964D01*
X126059699Y-66142733D01*
X126076985Y-66171611D01*
X126123713Y-66227420D01*
X126192190Y-66302404D01*
X126274723Y-66388803D01*
X126363617Y-66478859D01*
X126451181Y-66564814D01*
X126529719Y-66638910D01*
X126591540Y-66693388D01*
X126628949Y-66720490D01*
X126634241Y-66722122D01*
X126663913Y-66708443D01*
X126727079Y-66670845D01*
X126815513Y-66614486D01*
X126920992Y-66544523D01*
X126964356Y-66515086D01*
X127267407Y-66308049D01*
X127416234Y-66390413D01*
X127494175Y-66429034D01*
X127555002Y-66450872D01*
X127585365Y-66451253D01*
X127600090Y-66422937D01*
X127631438Y-66353852D01*
X127676704Y-66250261D01*
X127733182Y-66118431D01*
X127798167Y-65964625D01*
X127868954Y-65795108D01*
X127874651Y-65781381D01*
X128143634Y-65133033D01*
X128086902Y-65087516D01*
X127959307Y-64981862D01*
X127865324Y-64895223D01*
X127796195Y-64818493D01*
X127743165Y-64742568D01*
X127724870Y-64711054D01*
X127688572Y-64640980D01*
X127666057Y-64579882D01*
X127654088Y-64511646D01*
X127649431Y-64420158D01*
X127648789Y-64332132D01*
X127656740Y-64163368D01*
X127684310Y-64028794D01*
X127737067Y-63913727D01*
X127820583Y-63803486D01*
X127868682Y-63752551D01*
X128025825Y-63624070D01*
X128197273Y-63543505D01*
X128387867Y-63508810D01*
X128449543Y-63507040D01*
X128657473Y-63530597D01*
X128842203Y-63598775D01*
X129000827Y-63709773D01*
X129130439Y-63861789D01*
X129190173Y-63966000D01*
X129255717Y-64155298D01*
X129273408Y-64354916D01*
X129242761Y-64556679D01*
X129228097Y-64604699D01*
X129171052Y-64722619D01*
X129082673Y-64846666D01*
X128976894Y-64959806D01*
X128868102Y-65044728D01*
X128812511Y-65087171D01*
X128782138Y-65126084D01*
X128780220Y-65134666D01*
X128789543Y-65166282D01*
X128815459Y-65237218D01*
X128854894Y-65339903D01*
X128904769Y-65466766D01*
X128962010Y-65610234D01*
X129023538Y-65762736D01*
X129086278Y-65916701D01*
X129147154Y-66064556D01*
X129203088Y-66198730D01*
X129251004Y-66311652D01*
X129287826Y-66395750D01*
X129310477Y-66443451D01*
X129314969Y-66450748D01*
X129345031Y-66450646D01*
X129406589Y-66430416D01*
X129486560Y-66394397D01*
X129489931Y-66392703D01*
X129646554Y-66313639D01*
X129945507Y-66517881D01*
X130055462Y-66591044D01*
X130152617Y-66652048D01*
X130228380Y-66695766D01*
X130274160Y-66717072D01*
X130281459Y-66718292D01*
X130311516Y-66699510D01*
X130369326Y-66650410D01*
X130447662Y-66577578D01*
X130539297Y-66487603D01*
X130581297Y-66444968D01*
X130674656Y-66348985D01*
X130755139Y-66265750D01*
X130816156Y-66202116D01*
X130851118Y-66164935D01*
X130856564Y-66158699D01*
X130847248Y-66133055D01*
X130813352Y-66073450D01*
X130759568Y-65987508D01*
X130690587Y-65882849D01*
X130650279Y-65823576D01*
X130431565Y-65505228D01*
X130550695Y-65204716D01*
X130596000Y-65090900D01*
X130634259Y-64995664D01*
X130661761Y-64928183D01*
X130674796Y-64897633D01*
X130675235Y-64896852D01*
X130700760Y-64889882D01*
X130767532Y-64875541D01*
X130866773Y-64855612D01*
X130989711Y-64831880D01*
X131058910Y-64818848D01*
X131437177Y-64748197D01*
X131440618Y-64539578D01*
X131269036Y-64539578D01*
X131267674Y-64596430D01*
X131265339Y-64611812D01*
X131238706Y-64616336D01*
X131171676Y-64628720D01*
X131073778Y-64647176D01*
X130954543Y-64669921D01*
X130928815Y-64674858D01*
X130763270Y-64709836D01*
X130643773Y-64742202D01*
X130572234Y-64771403D01*
X130556626Y-64782916D01*
X130525064Y-64830136D01*
X130483690Y-64912741D01*
X130436681Y-65019753D01*
X130388217Y-65140195D01*
X130342476Y-65263088D01*
X130303638Y-65377455D01*
X130275880Y-65472319D01*
X130263381Y-65536701D01*
X130263749Y-65552331D01*
X130282687Y-65597854D01*
X130324797Y-65674396D01*
X130383927Y-65771429D01*
X130453926Y-65878430D01*
X130456826Y-65882710D01*
X130636925Y-66148201D01*
X130452525Y-66333840D01*
X130373060Y-66410094D01*
X130304666Y-66468841D01*
X130256154Y-66502899D01*
X130238643Y-66508166D01*
X130206950Y-66489838D01*
X130143194Y-66448630D01*
X130056951Y-66390850D01*
X129967898Y-66329808D01*
X129839311Y-66244996D01*
X129739367Y-66191141D01*
X129658500Y-66165648D01*
X129587141Y-66165920D01*
X129515722Y-66189364D01*
X129492312Y-66200808D01*
X129438417Y-66220645D01*
X129406017Y-66217841D01*
X129404795Y-66216286D01*
X129391306Y-66186919D01*
X129361629Y-66117834D01*
X129318850Y-66016364D01*
X129266057Y-65889848D01*
X129206338Y-65745620D01*
X129189248Y-65704159D01*
X128987648Y-65214598D01*
X129124587Y-65089444D01*
X129268465Y-64926241D01*
X129374142Y-64738679D01*
X129438535Y-64535788D01*
X129458562Y-64326596D01*
X129440956Y-64162654D01*
X129373733Y-63949194D01*
X129267907Y-63762160D01*
X129129302Y-63605038D01*
X128963739Y-63481316D01*
X128777042Y-63394481D01*
X128575033Y-63348022D01*
X128363535Y-63345424D01*
X128150204Y-63389584D01*
X127943520Y-63481118D01*
X127768511Y-63610087D01*
X127628750Y-63771545D01*
X127527812Y-63960548D01*
X127469272Y-64172147D01*
X127455347Y-64351100D01*
X127480297Y-64578357D01*
X127551822Y-64787170D01*
X127668217Y-64973822D01*
X127806489Y-65116861D01*
X127919934Y-65213830D01*
X127711347Y-65720078D01*
X127649690Y-65869307D01*
X127594588Y-66001876D01*
X127548953Y-66110847D01*
X127515695Y-66189286D01*
X127497722Y-66230255D01*
X127495505Y-66234557D01*
X127470670Y-66229730D01*
X127419362Y-66207094D01*
X127410872Y-66202776D01*
X127343907Y-66174287D01*
X127280466Y-66164784D01*
X127211455Y-66176885D01*
X127127781Y-66213210D01*
X127020352Y-66276378D01*
X126914578Y-66345724D01*
X126642149Y-66528686D01*
X126453824Y-66339368D01*
X126265498Y-66150050D01*
X126454991Y-65871787D01*
X126549142Y-65727244D01*
X126611698Y-65616751D01*
X126641759Y-65541966D01*
X126644484Y-65522316D01*
X126634200Y-65463725D01*
X126606580Y-65371498D01*
X126566471Y-65257758D01*
X126518721Y-65134627D01*
X126468178Y-65014224D01*
X126419688Y-64908674D01*
X126378100Y-64830096D01*
X126353888Y-64795659D01*
X126318248Y-64768140D01*
X126262264Y-64743407D01*
X126177445Y-64718786D01*
X126055299Y-64691599D01*
X125970722Y-64674889D01*
X125848408Y-64651497D01*
X125745605Y-64632031D01*
X125671808Y-64618273D01*
X125636514Y-64612009D01*
X125634900Y-64611812D01*
X125631840Y-64588143D01*
X125629391Y-64524163D01*
X125627850Y-64430410D01*
X125627467Y-64346558D01*
X125628474Y-64225946D01*
X125632480Y-64146905D01*
X125640965Y-64100175D01*
X125655408Y-64076499D01*
X125671962Y-64068019D01*
X125713627Y-64058356D01*
X125793626Y-64042021D01*
X125900248Y-64021339D01*
X126015351Y-63999818D01*
X126156706Y-63971750D01*
X126256138Y-63946440D01*
X126322280Y-63921171D01*
X126363766Y-63893229D01*
X126368207Y-63888837D01*
X126401601Y-63840204D01*
X126446392Y-63756268D01*
X126497478Y-63648948D01*
X126549753Y-63530166D01*
X126598115Y-63411840D01*
X126637458Y-63305893D01*
X126662679Y-63224243D01*
X126669262Y-63185723D01*
X126653969Y-63133684D01*
X126609213Y-63046985D01*
X126537656Y-62930385D01*
X126468602Y-62827049D01*
X126267294Y-62534203D01*
X126450131Y-62352587D01*
X126528666Y-62276395D01*
X126594468Y-62215936D01*
X126638980Y-62178883D01*
X126652694Y-62170971D01*
X126679954Y-62184479D01*
X126740758Y-62221475D01*
X126826728Y-62276668D01*
X126929486Y-62344763D01*
X126954567Y-62361662D01*
X127087209Y-62448546D01*
X127186905Y-62506958D01*
X127260280Y-62540360D01*
X127313961Y-62552213D01*
X127319613Y-62552352D01*
X127384518Y-62541501D01*
X127480529Y-62512431D01*
X127595216Y-62470373D01*
X127716147Y-62420552D01*
X127830891Y-62368198D01*
X127927018Y-62318538D01*
X127992097Y-62276800D01*
X128006766Y-62263364D01*
X128033544Y-62219543D01*
X128059262Y-62146672D01*
X128085821Y-62037940D01*
X128115124Y-61886540D01*
X128120392Y-61856775D01*
X128181146Y-61509910D01*
X128455257Y-61509910D01*
X128566425Y-61511814D01*
X128655929Y-61516971D01*
X128713406Y-61524548D01*
X128729369Y-61531938D01*
X128733853Y-61563806D01*
X128746141Y-61635762D01*
X128764488Y-61737947D01*
X128787151Y-61860501D01*
X128793456Y-61894067D01*
X128827601Y-62059627D01*
X128859231Y-62181456D01*
X128887583Y-62256840D01*
X128901514Y-62277532D01*
X128950873Y-62311091D01*
X129036225Y-62354806D01*
X129145032Y-62403655D01*
X129264753Y-62452616D01*
X129382851Y-62496665D01*
X129486785Y-62530782D01*
X129564017Y-62549942D01*
X129587638Y-62552352D01*
X129637121Y-62545080D01*
X129698965Y-62520481D01*
X129781133Y-62474381D01*
X129891590Y-62402606D01*
X129951426Y-62361662D01*
X130055383Y-62290819D01*
X130144699Y-62231900D01*
X130210938Y-62190327D01*
X130245665Y-62171523D01*
X130248050Y-62170971D01*
X130273580Y-62188011D01*
X130325842Y-62233973D01*
X130396329Y-62301118D01*
X130450701Y-62355305D01*
X130632523Y-62539639D01*
X130430996Y-62839432D01*
X130358238Y-62950892D01*
X130297166Y-63050594D01*
X130253007Y-63129529D01*
X130230987Y-63178689D01*
X130229469Y-63186777D01*
X130240236Y-63236117D01*
X130269164Y-63319291D01*
X130311191Y-63424892D01*
X130361257Y-63541516D01*
X130414302Y-63657755D01*
X130465264Y-63762205D01*
X130509083Y-63843460D01*
X130540698Y-63890114D01*
X130542249Y-63891715D01*
X130580608Y-63918826D01*
X130642450Y-63943706D01*
X130735804Y-63968764D01*
X130868704Y-63996410D01*
X130928668Y-64007623D01*
X131259199Y-64068152D01*
X131266415Y-64339982D01*
X131268631Y-64450627D01*
X131269036Y-64539578D01*
X131440618Y-64539578D01*
X131451099Y-63904373D01*
X131329723Y-63879477D01*
X131250519Y-63863953D01*
X131139617Y-63843141D01*
X131015416Y-63820467D01*
X130954094Y-63809506D01*
X130843822Y-63787857D01*
X130751215Y-63765782D01*
X130688573Y-63746427D01*
X130669780Y-63736820D01*
X130647315Y-63702361D01*
X130611666Y-63633061D01*
X130568348Y-63541367D01*
X130522878Y-63439724D01*
X130480773Y-63340578D01*
X130447549Y-63256376D01*
X130428724Y-63199563D01*
X130426513Y-63187988D01*
X130439170Y-63154761D01*
X130476279Y-63088167D01*
X130532907Y-62996342D01*
X130604122Y-62887421D01*
X130647665Y-62823255D01*
X130872161Y-62496661D01*
X130583012Y-62206689D01*
X130484055Y-62108710D01*
X130396992Y-62024877D01*
X130328329Y-61961272D01*
X130284576Y-61923974D01*
X130272621Y-61916717D01*
X130245335Y-61930455D01*
X130184128Y-61968332D01*
X130096749Y-62025338D01*
X129990945Y-62096466D01*
X129930480Y-62137879D01*
X129816548Y-62214433D01*
X129715074Y-62278947D01*
X129634313Y-62326452D01*
X129582521Y-62351978D01*
X129569925Y-62354933D01*
X129520669Y-62342122D01*
X129442338Y-62313603D01*
X129346953Y-62274701D01*
X129246534Y-62230739D01*
X129153099Y-62187042D01*
X129078669Y-62148935D01*
X129035264Y-62121743D01*
X129029480Y-62115527D01*
X129018820Y-62079575D01*
X129001468Y-62003367D01*
X128979497Y-61896737D01*
X128954984Y-61769517D01*
X128944637Y-61713447D01*
X128919004Y-61582039D01*
X128893692Y-61468681D01*
X128871039Y-61382741D01*
X128853385Y-61333584D01*
X128847929Y-61326099D01*
X128807458Y-61316398D01*
X128729057Y-61309851D01*
X128623802Y-61306288D01*
X128502768Y-61305542D01*
X128377033Y-61307442D01*
D10*
G36*
X121940381Y-81569670D02*
X122293934Y-81216117D01*
X122859619Y-81781802D01*
X122506066Y-82135355D01*
X121940381Y-81569670D01*
X121940381Y-81569670D01*
G37*
G36*
X122788909Y-82418198D02*
X123142462Y-82064645D01*
X123708147Y-82630330D01*
X123354594Y-82983883D01*
X122788909Y-82418198D01*
X122788909Y-82418198D01*
G37*
G36*
X142101220Y-75727207D02*
X139697057Y-73323044D01*
X141111270Y-71908831D01*
X143515433Y-74312994D01*
X142101220Y-75727207D01*
X142101220Y-75727207D01*
G37*
G36*
X135737258Y-82091169D02*
X133333095Y-79687006D01*
X134747308Y-78272793D01*
X137151471Y-80676956D01*
X135737258Y-82091169D01*
X135737258Y-82091169D01*
G37*
G36*
X112676777Y-74932411D02*
X111191853Y-73447487D01*
X111474695Y-73164645D01*
X112959619Y-74649569D01*
X112676777Y-74932411D01*
X112676777Y-74932411D01*
G37*
G36*
X113525305Y-74083883D02*
X112040381Y-72598959D01*
X112323223Y-72316117D01*
X113808147Y-73801041D01*
X113525305Y-74083883D01*
X113525305Y-74083883D01*
G37*
G36*
X114373833Y-73235355D02*
X112888909Y-71750431D01*
X113171751Y-71467589D01*
X114656675Y-72952513D01*
X114373833Y-73235355D01*
X114373833Y-73235355D01*
G37*
D13*
X138574264Y-96000000D03*
X136274264Y-96000000D03*
X136274264Y-96950000D03*
X136274264Y-95050000D03*
X138574264Y-95050000D03*
X138574264Y-96950000D03*
D14*
X124624264Y-98500000D03*
X132224264Y-98500000D03*
D15*
X131524264Y-95950000D03*
X125324264Y-95950000D03*
D16*
X129724264Y-96000000D03*
X129074264Y-96000000D03*
X128424264Y-96000000D03*
X127774264Y-96000000D03*
X127124264Y-96000000D03*
D13*
X138574264Y-91000000D03*
X136274264Y-91950000D03*
X136274264Y-90050000D03*
D17*
X115884264Y-87160000D03*
X118424264Y-87160000D03*
X113344264Y-87160000D03*
D18*
X134924264Y-95400000D03*
X134924264Y-96600000D03*
X115924264Y-70600000D03*
X115924264Y-69400000D03*
X125424264Y-76400000D03*
X125424264Y-77600000D03*
D19*
X119024264Y-83000000D03*
X117824264Y-83000000D03*
D20*
X110924264Y-76000000D03*
X110924264Y-78000000D03*
D10*
G36*
X123340381Y-80169670D02*
X123693934Y-79816117D01*
X124259619Y-80381802D01*
X123906066Y-80735355D01*
X123340381Y-80169670D01*
X123340381Y-80169670D01*
G37*
G36*
X124188909Y-81018198D02*
X124542462Y-80664645D01*
X125108147Y-81230330D01*
X124754594Y-81583883D01*
X124188909Y-81018198D01*
X124188909Y-81018198D01*
G37*
G36*
X121240381Y-82269670D02*
X121593934Y-81916117D01*
X122159619Y-82481802D01*
X121806066Y-82835355D01*
X121240381Y-82269670D01*
X121240381Y-82269670D01*
G37*
G36*
X122088909Y-83118198D02*
X122442462Y-82764645D01*
X123008147Y-83330330D01*
X122654594Y-83683883D01*
X122088909Y-83118198D01*
X122088909Y-83118198D01*
G37*
D18*
X112424264Y-76400000D03*
X112424264Y-77600000D03*
D21*
X117424264Y-69500000D03*
X119424264Y-69500000D03*
D19*
X117824264Y-71000000D03*
X119024264Y-71000000D03*
D20*
X140624264Y-86400000D03*
X140624264Y-88400000D03*
X134224264Y-86400000D03*
X134224264Y-88400000D03*
D22*
X128424264Y-59600000D03*
X129674264Y-59600000D03*
X127174264Y-59600000D03*
X125924264Y-59600000D03*
D23*
X132924264Y-56550000D03*
X123924264Y-56550000D03*
D22*
X130924264Y-59600000D03*
D10*
G36*
X125008147Y-85330330D02*
X124654594Y-85683883D01*
X124088909Y-85118198D01*
X124442462Y-84764645D01*
X125008147Y-85330330D01*
X125008147Y-85330330D01*
G37*
G36*
X124159619Y-84481802D02*
X123806066Y-84835355D01*
X123240381Y-84269670D01*
X123593934Y-83916117D01*
X124159619Y-84481802D01*
X124159619Y-84481802D01*
G37*
G36*
X122943934Y-73533883D02*
X122590381Y-73180330D01*
X123156066Y-72614645D01*
X123509619Y-72968198D01*
X122943934Y-73533883D01*
X122943934Y-73533883D01*
G37*
G36*
X123792462Y-72685355D02*
X123438909Y-72331802D01*
X124004594Y-71766117D01*
X124358147Y-72119670D01*
X123792462Y-72685355D01*
X123792462Y-72685355D01*
G37*
D19*
X138024264Y-94000000D03*
X136824264Y-94000000D03*
D10*
G36*
X122640381Y-80869670D02*
X122993934Y-80516117D01*
X123559619Y-81081802D01*
X123206066Y-81435355D01*
X122640381Y-80869670D01*
X122640381Y-80869670D01*
G37*
G36*
X123488909Y-81718198D02*
X123842462Y-81364645D01*
X124408147Y-81930330D01*
X124054594Y-82283883D01*
X123488909Y-81718198D01*
X123488909Y-81718198D01*
G37*
D19*
X119024264Y-68000000D03*
X117824264Y-68000000D03*
D10*
G36*
X122504594Y-70266117D02*
X122858147Y-70619670D01*
X122292462Y-71185355D01*
X121938909Y-70831802D01*
X122504594Y-70266117D01*
X122504594Y-70266117D01*
G37*
G36*
X121656066Y-71114645D02*
X122009619Y-71468198D01*
X121443934Y-72033883D01*
X121090381Y-71680330D01*
X121656066Y-71114645D01*
X121656066Y-71114645D01*
G37*
G36*
X123254594Y-71016117D02*
X123608147Y-71369670D01*
X123042462Y-71935355D01*
X122688909Y-71581802D01*
X123254594Y-71016117D01*
X123254594Y-71016117D01*
G37*
G36*
X122406066Y-71864645D02*
X122759619Y-72218198D01*
X122193934Y-72783883D01*
X121840381Y-72430330D01*
X122406066Y-71864645D01*
X122406066Y-71864645D01*
G37*
G36*
X124754594Y-72516117D02*
X125108147Y-72869670D01*
X124542462Y-73435355D01*
X124188909Y-73081802D01*
X124754594Y-72516117D01*
X124754594Y-72516117D01*
G37*
G36*
X123906066Y-73364645D02*
X124259619Y-73718198D01*
X123693934Y-74283883D01*
X123340381Y-73930330D01*
X123906066Y-73364645D01*
X123906066Y-73364645D01*
G37*
D13*
X138574264Y-87400000D03*
X138574264Y-86450000D03*
X138574264Y-88350000D03*
X136274264Y-88350000D03*
X136274264Y-86450000D03*
D10*
G36*
X142128769Y-81411611D02*
X143012653Y-82295495D01*
X141951993Y-83356155D01*
X141068109Y-82472271D01*
X142128769Y-81411611D01*
X142128769Y-81411611D01*
G37*
G36*
X143896535Y-79643845D02*
X144780419Y-80527729D01*
X143719759Y-81588389D01*
X142835875Y-80704505D01*
X143896535Y-79643845D01*
X143896535Y-79643845D01*
G37*
D24*
X130424264Y-75850000D03*
X131374264Y-78150000D03*
X129474264Y-78150000D03*
D18*
X126424264Y-77600000D03*
X126424264Y-76400000D03*
X124424264Y-77600000D03*
X124424264Y-76400000D03*
D19*
X136824264Y-93000000D03*
X138024264Y-93000000D03*
D18*
X135624264Y-94100000D03*
X135624264Y-92900000D03*
D20*
X142624264Y-86400000D03*
X142624264Y-88400000D03*
D18*
X144224264Y-88000000D03*
X144224264Y-86800000D03*
D21*
X136424264Y-98400000D03*
X138424264Y-98400000D03*
D25*
X127424264Y-90450000D03*
X127424264Y-89800000D03*
X127424264Y-89150000D03*
X129424264Y-89150000D03*
X129424264Y-90450000D03*
D10*
G36*
X143393934Y-83383883D02*
X143040381Y-83030330D01*
X143606066Y-82464645D01*
X143959619Y-82818198D01*
X143393934Y-83383883D01*
X143393934Y-83383883D01*
G37*
G36*
X144242462Y-82535355D02*
X143888909Y-82181802D01*
X144454594Y-81616117D01*
X144808147Y-81969670D01*
X144242462Y-82535355D01*
X144242462Y-82535355D01*
G37*
G36*
X114163946Y-76840901D02*
X113280062Y-75957017D01*
X113492194Y-75744885D01*
X114376078Y-76628769D01*
X114163946Y-76840901D01*
X114163946Y-76840901D01*
G37*
G36*
X114517499Y-76487348D02*
X113633615Y-75603464D01*
X113845747Y-75391332D01*
X114729631Y-76275216D01*
X114517499Y-76487348D01*
X114517499Y-76487348D01*
G37*
G36*
X114871053Y-76133794D02*
X113987169Y-75249910D01*
X114199301Y-75037778D01*
X115083185Y-75921662D01*
X114871053Y-76133794D01*
X114871053Y-76133794D01*
G37*
G36*
X115224606Y-75780241D02*
X114340722Y-74896357D01*
X114552854Y-74684225D01*
X115436738Y-75568109D01*
X115224606Y-75780241D01*
X115224606Y-75780241D01*
G37*
G36*
X115578159Y-75426688D02*
X114694275Y-74542804D01*
X114906407Y-74330672D01*
X115790291Y-75214556D01*
X115578159Y-75426688D01*
X115578159Y-75426688D01*
G37*
G36*
X115931713Y-75073134D02*
X115047829Y-74189250D01*
X115259961Y-73977118D01*
X116143845Y-74861002D01*
X115931713Y-75073134D01*
X115931713Y-75073134D01*
G37*
G36*
X116285266Y-74719581D02*
X115401382Y-73835697D01*
X115613514Y-73623565D01*
X116497398Y-74507449D01*
X116285266Y-74719581D01*
X116285266Y-74719581D01*
G37*
G36*
X116638820Y-74366027D02*
X115754936Y-73482143D01*
X115967068Y-73270011D01*
X116850952Y-74153895D01*
X116638820Y-74366027D01*
X116638820Y-74366027D01*
G37*
G36*
X116992373Y-74012474D02*
X116108489Y-73128590D01*
X116320621Y-72916458D01*
X117204505Y-73800342D01*
X116992373Y-74012474D01*
X116992373Y-74012474D01*
G37*
G36*
X117345926Y-73658921D02*
X116462042Y-72775037D01*
X116674174Y-72562905D01*
X117558058Y-73446789D01*
X117345926Y-73658921D01*
X117345926Y-73658921D01*
G37*
G36*
X117699480Y-73305367D02*
X116815596Y-72421483D01*
X117027728Y-72209351D01*
X117911612Y-73093235D01*
X117699480Y-73305367D01*
X117699480Y-73305367D01*
G37*
G36*
X118053033Y-72951814D02*
X117169149Y-72067930D01*
X117381281Y-71855798D01*
X118265165Y-72739682D01*
X118053033Y-72951814D01*
X118053033Y-72951814D01*
G37*
G36*
X118583363Y-72739682D02*
X119467247Y-71855798D01*
X119679379Y-72067930D01*
X118795495Y-72951814D01*
X118583363Y-72739682D01*
X118583363Y-72739682D01*
G37*
G36*
X118936916Y-73093235D02*
X119820800Y-72209351D01*
X120032932Y-72421483D01*
X119149048Y-73305367D01*
X118936916Y-73093235D01*
X118936916Y-73093235D01*
G37*
G36*
X119290470Y-73446789D02*
X120174354Y-72562905D01*
X120386486Y-72775037D01*
X119502602Y-73658921D01*
X119290470Y-73446789D01*
X119290470Y-73446789D01*
G37*
G36*
X119644023Y-73800342D02*
X120527907Y-72916458D01*
X120740039Y-73128590D01*
X119856155Y-74012474D01*
X119644023Y-73800342D01*
X119644023Y-73800342D01*
G37*
G36*
X119997576Y-74153895D02*
X120881460Y-73270011D01*
X121093592Y-73482143D01*
X120209708Y-74366027D01*
X119997576Y-74153895D01*
X119997576Y-74153895D01*
G37*
G36*
X120351130Y-74507449D02*
X121235014Y-73623565D01*
X121447146Y-73835697D01*
X120563262Y-74719581D01*
X120351130Y-74507449D01*
X120351130Y-74507449D01*
G37*
G36*
X120704683Y-74861002D02*
X121588567Y-73977118D01*
X121800699Y-74189250D01*
X120916815Y-75073134D01*
X120704683Y-74861002D01*
X120704683Y-74861002D01*
G37*
G36*
X121058237Y-75214556D02*
X121942121Y-74330672D01*
X122154253Y-74542804D01*
X121270369Y-75426688D01*
X121058237Y-75214556D01*
X121058237Y-75214556D01*
G37*
G36*
X121411790Y-75568109D02*
X122295674Y-74684225D01*
X122507806Y-74896357D01*
X121623922Y-75780241D01*
X121411790Y-75568109D01*
X121411790Y-75568109D01*
G37*
G36*
X121765343Y-75921662D02*
X122649227Y-75037778D01*
X122861359Y-75249910D01*
X121977475Y-76133794D01*
X121765343Y-75921662D01*
X121765343Y-75921662D01*
G37*
G36*
X122118897Y-76275216D02*
X123002781Y-75391332D01*
X123214913Y-75603464D01*
X122331029Y-76487348D01*
X122118897Y-76275216D01*
X122118897Y-76275216D01*
G37*
G36*
X122472450Y-76628769D02*
X123356334Y-75744885D01*
X123568466Y-75957017D01*
X122684582Y-76840901D01*
X122472450Y-76628769D01*
X122472450Y-76628769D01*
G37*
G36*
X122684582Y-77159099D02*
X123568466Y-78042983D01*
X123356334Y-78255115D01*
X122472450Y-77371231D01*
X122684582Y-77159099D01*
X122684582Y-77159099D01*
G37*
G36*
X122331029Y-77512652D02*
X123214913Y-78396536D01*
X123002781Y-78608668D01*
X122118897Y-77724784D01*
X122331029Y-77512652D01*
X122331029Y-77512652D01*
G37*
G36*
X121977475Y-77866206D02*
X122861359Y-78750090D01*
X122649227Y-78962222D01*
X121765343Y-78078338D01*
X121977475Y-77866206D01*
X121977475Y-77866206D01*
G37*
G36*
X121623922Y-78219759D02*
X122507806Y-79103643D01*
X122295674Y-79315775D01*
X121411790Y-78431891D01*
X121623922Y-78219759D01*
X121623922Y-78219759D01*
G37*
G36*
X121270369Y-78573312D02*
X122154253Y-79457196D01*
X121942121Y-79669328D01*
X121058237Y-78785444D01*
X121270369Y-78573312D01*
X121270369Y-78573312D01*
G37*
G36*
X120916815Y-78926866D02*
X121800699Y-79810750D01*
X121588567Y-80022882D01*
X120704683Y-79138998D01*
X120916815Y-78926866D01*
X120916815Y-78926866D01*
G37*
G36*
X120563262Y-79280419D02*
X121447146Y-80164303D01*
X121235014Y-80376435D01*
X120351130Y-79492551D01*
X120563262Y-79280419D01*
X120563262Y-79280419D01*
G37*
G36*
X120209708Y-79633973D02*
X121093592Y-80517857D01*
X120881460Y-80729989D01*
X119997576Y-79846105D01*
X120209708Y-79633973D01*
X120209708Y-79633973D01*
G37*
G36*
X119856155Y-79987526D02*
X120740039Y-80871410D01*
X120527907Y-81083542D01*
X119644023Y-80199658D01*
X119856155Y-79987526D01*
X119856155Y-79987526D01*
G37*
G36*
X119502602Y-80341079D02*
X120386486Y-81224963D01*
X120174354Y-81437095D01*
X119290470Y-80553211D01*
X119502602Y-80341079D01*
X119502602Y-80341079D01*
G37*
G36*
X119149048Y-80694633D02*
X120032932Y-81578517D01*
X119820800Y-81790649D01*
X118936916Y-80906765D01*
X119149048Y-80694633D01*
X119149048Y-80694633D01*
G37*
G36*
X118795495Y-81048186D02*
X119679379Y-81932070D01*
X119467247Y-82144202D01*
X118583363Y-81260318D01*
X118795495Y-81048186D01*
X118795495Y-81048186D01*
G37*
G36*
X117169149Y-81932070D02*
X118053033Y-81048186D01*
X118265165Y-81260318D01*
X117381281Y-82144202D01*
X117169149Y-81932070D01*
X117169149Y-81932070D01*
G37*
G36*
X116815596Y-81578517D02*
X117699480Y-80694633D01*
X117911612Y-80906765D01*
X117027728Y-81790649D01*
X116815596Y-81578517D01*
X116815596Y-81578517D01*
G37*
G36*
X116462042Y-81224963D02*
X117345926Y-80341079D01*
X117558058Y-80553211D01*
X116674174Y-81437095D01*
X116462042Y-81224963D01*
X116462042Y-81224963D01*
G37*
G36*
X116108489Y-80871410D02*
X116992373Y-79987526D01*
X117204505Y-80199658D01*
X116320621Y-81083542D01*
X116108489Y-80871410D01*
X116108489Y-80871410D01*
G37*
G36*
X115754936Y-80517857D02*
X116638820Y-79633973D01*
X116850952Y-79846105D01*
X115967068Y-80729989D01*
X115754936Y-80517857D01*
X115754936Y-80517857D01*
G37*
G36*
X115401382Y-80164303D02*
X116285266Y-79280419D01*
X116497398Y-79492551D01*
X115613514Y-80376435D01*
X115401382Y-80164303D01*
X115401382Y-80164303D01*
G37*
G36*
X115047829Y-79810750D02*
X115931713Y-78926866D01*
X116143845Y-79138998D01*
X115259961Y-80022882D01*
X115047829Y-79810750D01*
X115047829Y-79810750D01*
G37*
G36*
X114694275Y-79457196D02*
X115578159Y-78573312D01*
X115790291Y-78785444D01*
X114906407Y-79669328D01*
X114694275Y-79457196D01*
X114694275Y-79457196D01*
G37*
G36*
X114340722Y-79103643D02*
X115224606Y-78219759D01*
X115436738Y-78431891D01*
X114552854Y-79315775D01*
X114340722Y-79103643D01*
X114340722Y-79103643D01*
G37*
G36*
X113987169Y-78750090D02*
X114871053Y-77866206D01*
X115083185Y-78078338D01*
X114199301Y-78962222D01*
X113987169Y-78750090D01*
X113987169Y-78750090D01*
G37*
G36*
X113633615Y-78396536D02*
X114517499Y-77512652D01*
X114729631Y-77724784D01*
X113845747Y-78608668D01*
X113633615Y-78396536D01*
X113633615Y-78396536D01*
G37*
G36*
X113280062Y-78042983D02*
X114163946Y-77159099D01*
X114376078Y-77371231D01*
X113492194Y-78255115D01*
X113280062Y-78042983D01*
X113280062Y-78042983D01*
G37*
G36*
X118424264Y-75727208D02*
X117151472Y-74454416D01*
X118424264Y-73181624D01*
X119697056Y-74454416D01*
X118424264Y-75727208D01*
X118424264Y-75727208D01*
G37*
G36*
X115878680Y-78272792D02*
X114605888Y-77000000D01*
X115878680Y-75727208D01*
X117151472Y-77000000D01*
X115878680Y-78272792D01*
X115878680Y-78272792D01*
G37*
G36*
X118424264Y-80818376D02*
X117151472Y-79545584D01*
X118424264Y-78272792D01*
X119697056Y-79545584D01*
X118424264Y-80818376D01*
X118424264Y-80818376D01*
G37*
G36*
X120969848Y-78272792D02*
X119697056Y-77000000D01*
X120969848Y-75727208D01*
X122242640Y-77000000D01*
X120969848Y-78272792D01*
X120969848Y-78272792D01*
G37*
G36*
X117151472Y-77000000D02*
X115878680Y-75727208D01*
X117151472Y-74454416D01*
X118424264Y-75727208D01*
X117151472Y-77000000D01*
X117151472Y-77000000D01*
G37*
G36*
X118424264Y-78272792D02*
X117151472Y-77000000D01*
X118424264Y-75727208D01*
X119697056Y-77000000D01*
X118424264Y-78272792D01*
X118424264Y-78272792D01*
G37*
G36*
X119697056Y-77000000D02*
X118424264Y-75727208D01*
X119697056Y-74454416D01*
X120969848Y-75727208D01*
X119697056Y-77000000D01*
X119697056Y-77000000D01*
G37*
G36*
X119697056Y-79545584D02*
X118424264Y-78272792D01*
X119697056Y-77000000D01*
X120969848Y-78272792D01*
X119697056Y-79545584D01*
X119697056Y-79545584D01*
G37*
G36*
X117151472Y-79545584D02*
X115878680Y-78272792D01*
X117151472Y-77000000D01*
X118424264Y-78272792D01*
X117151472Y-79545584D01*
X117151472Y-79545584D01*
G37*
D17*
X123504264Y-87160000D03*
X120964264Y-87160000D03*
D26*
X143174264Y-68000000D03*
X139674264Y-68000000D03*
D27*
X128854264Y-93850000D03*
X127994264Y-93850000D03*
X127994264Y-91950000D03*
X128854264Y-91950000D03*
D19*
X129024264Y-73000000D03*
X127824264Y-73000000D03*
X122024264Y-67100000D03*
X120824264Y-67100000D03*
D18*
X127424264Y-76400000D03*
X127424264Y-77600000D03*
X128424264Y-76400000D03*
X128424264Y-77600000D03*
D20*
X133424264Y-65000000D03*
X133424264Y-63000000D03*
X135424264Y-65000000D03*
X135424264Y-63000000D03*
D19*
X130824264Y-73000000D03*
X132024264Y-73000000D03*
D20*
X123424264Y-65000000D03*
X123424264Y-63000000D03*
D10*
G36*
X121754594Y-69516117D02*
X122108147Y-69869670D01*
X121542462Y-70435355D01*
X121188909Y-70081802D01*
X121754594Y-69516117D01*
X121754594Y-69516117D01*
G37*
G36*
X120906066Y-70364645D02*
X121259619Y-70718198D01*
X120693934Y-71283883D01*
X120340381Y-70930330D01*
X120906066Y-70364645D01*
X120906066Y-70364645D01*
G37*
D28*
X134024264Y-93500000D03*
X130424264Y-93500000D03*
X126424264Y-93500000D03*
X122824264Y-93500000D03*
M02*
