G04 #@! TF.FileFunction,Legend,Top*
%FSLAX46Y46*%
G04 Gerber Fmt 4.6, Leading zero omitted, Abs format (unit mm)*
G04 Created by KiCad (PCBNEW 4.0.7-e2-6376~58~ubuntu14.04.1) date Mon Apr  9 12:37:09 2018*
%MOMM*%
%LPD*%
G01*
G04 APERTURE LIST*
%ADD10C,0.100000*%
%ADD11C,0.140000*%
%ADD12C,0.200000*%
%ADD13C,0.400000*%
%ADD14C,0.010000*%
G04 APERTURE END LIST*
D10*
D11*
X117915335Y-86452381D02*
X118040335Y-85452381D01*
X118486764Y-86452381D01*
X118611764Y-85452381D01*
X119028431Y-85928571D02*
X119361765Y-85928571D01*
X119439145Y-86452381D02*
X118962954Y-86452381D01*
X119087954Y-85452381D01*
X119564145Y-85452381D01*
X119849859Y-85452381D02*
X120421288Y-85452381D01*
X120010573Y-86452381D02*
X120135573Y-85452381D01*
X120659383Y-85452381D02*
X120772478Y-86452381D01*
X121052241Y-85738095D01*
X121153431Y-86452381D01*
X121516526Y-85452381D01*
X122087954Y-85452381D02*
X122278431Y-85452381D01*
X122367717Y-85500000D01*
X122451050Y-85595238D01*
X122474860Y-85785714D01*
X122433193Y-86119048D01*
X122361765Y-86309524D01*
X122254622Y-86404762D01*
X122153431Y-86452381D01*
X121962954Y-86452381D01*
X121873669Y-86404762D01*
X121790336Y-86309524D01*
X121766526Y-86119048D01*
X121808193Y-85785714D01*
X121879621Y-85595238D01*
X121986764Y-85500000D01*
X122087954Y-85452381D01*
X123391526Y-86452381D02*
X123117716Y-85976190D01*
X122820097Y-86452381D02*
X122945097Y-85452381D01*
X123326050Y-85452381D01*
X123415336Y-85500000D01*
X123457003Y-85547619D01*
X123492717Y-85642857D01*
X123474860Y-85785714D01*
X123415336Y-85880952D01*
X123361765Y-85928571D01*
X123260574Y-85976190D01*
X122879621Y-85976190D01*
X123820097Y-86452381D02*
X123945097Y-85452381D01*
X124391526Y-86452381D02*
X124034383Y-85880952D01*
X124516526Y-85452381D02*
X123873669Y-86023810D01*
X125582002Y-86452381D02*
X125707002Y-85452381D01*
X126058192Y-86452381D02*
X126183192Y-85452381D01*
X126629621Y-86452381D01*
X126754621Y-85452381D01*
X127087954Y-85452381D02*
X127659383Y-85452381D01*
X127248668Y-86452381D02*
X127373668Y-85452381D01*
X127933193Y-85928571D02*
X128266527Y-85928571D01*
X128343907Y-86452381D02*
X127867716Y-86452381D01*
X127992716Y-85452381D01*
X128468907Y-85452381D01*
X129343907Y-86452381D02*
X129070097Y-85976190D01*
X128772478Y-86452381D02*
X128897478Y-85452381D01*
X129278431Y-85452381D01*
X129367717Y-85500000D01*
X129409384Y-85547619D01*
X129445098Y-85642857D01*
X129427241Y-85785714D01*
X129367717Y-85880952D01*
X129314146Y-85928571D01*
X129212955Y-85976190D01*
X128832002Y-85976190D01*
X130171289Y-85928571D02*
X129837955Y-85928571D01*
X129772478Y-86452381D02*
X129897478Y-85452381D01*
X130373669Y-85452381D01*
X130617717Y-86166667D02*
X131093908Y-86166667D01*
X130486764Y-86452381D02*
X130945097Y-85452381D01*
X131153431Y-86452381D01*
X132070098Y-86357143D02*
X132016527Y-86404762D01*
X131867717Y-86452381D01*
X131772479Y-86452381D01*
X131635574Y-86404762D01*
X131552241Y-86309524D01*
X131516526Y-86214286D01*
X131492717Y-86023810D01*
X131510574Y-85880952D01*
X131582003Y-85690476D01*
X131641526Y-85595238D01*
X131748669Y-85500000D01*
X131897479Y-85452381D01*
X131992717Y-85452381D01*
X132129622Y-85500000D01*
X132171289Y-85547619D01*
X132552241Y-85928571D02*
X132885575Y-85928571D01*
X132962955Y-86452381D02*
X132486764Y-86452381D01*
X132611764Y-85452381D01*
X133087955Y-85452381D01*
X134153431Y-86452381D02*
X134278431Y-85452381D01*
X134516526Y-85452381D01*
X134653432Y-85500000D01*
X134736765Y-85595238D01*
X134772480Y-85690476D01*
X134796289Y-85880952D01*
X134778432Y-86023810D01*
X134707003Y-86214286D01*
X134647480Y-86309524D01*
X134540337Y-86404762D01*
X134391526Y-86452381D01*
X134153431Y-86452381D01*
X135218908Y-85928571D02*
X135552242Y-85928571D01*
X135629622Y-86452381D02*
X135153431Y-86452381D01*
X135278431Y-85452381D01*
X135754622Y-85452381D01*
X136040336Y-85452381D02*
X136248669Y-86452381D01*
X136707003Y-85452381D01*
X136915336Y-86452381D02*
X137040336Y-85452381D01*
X137974860Y-86357143D02*
X137921289Y-86404762D01*
X137772479Y-86452381D01*
X137677241Y-86452381D01*
X137540336Y-86404762D01*
X137457003Y-86309524D01*
X137421288Y-86214286D01*
X137397479Y-86023810D01*
X137415336Y-85880952D01*
X137486765Y-85690476D01*
X137546288Y-85595238D01*
X137653431Y-85500000D01*
X137802241Y-85452381D01*
X137897479Y-85452381D01*
X138034384Y-85500000D01*
X138076051Y-85547619D01*
X138457003Y-85928571D02*
X138790337Y-85928571D01*
X138867717Y-86452381D02*
X138391526Y-86452381D01*
X138516526Y-85452381D01*
X138992717Y-85452381D01*
X119162359Y-70632381D02*
X119162359Y-71441905D01*
X119209978Y-71537143D01*
X119257597Y-71584762D01*
X119352835Y-71632381D01*
X119543312Y-71632381D01*
X119638550Y-71584762D01*
X119686169Y-71537143D01*
X119733788Y-71441905D01*
X119733788Y-70632381D01*
X120209978Y-70965714D02*
X120209978Y-71965714D01*
X120209978Y-71013333D02*
X120305216Y-70965714D01*
X120495693Y-70965714D01*
X120590931Y-71013333D01*
X120638550Y-71060952D01*
X120686169Y-71156190D01*
X120686169Y-71441905D01*
X120638550Y-71537143D01*
X120590931Y-71584762D01*
X120495693Y-71632381D01*
X120305216Y-71632381D01*
X120209978Y-71584762D01*
X121543312Y-71632381D02*
X121543312Y-70632381D01*
X121543312Y-71584762D02*
X121448074Y-71632381D01*
X121257597Y-71632381D01*
X121162359Y-71584762D01*
X121114740Y-71537143D01*
X121067121Y-71441905D01*
X121067121Y-71156190D01*
X121114740Y-71060952D01*
X121162359Y-71013333D01*
X121257597Y-70965714D01*
X121448074Y-70965714D01*
X121543312Y-71013333D01*
X122448074Y-71632381D02*
X122448074Y-71108571D01*
X122400455Y-71013333D01*
X122305217Y-70965714D01*
X122114740Y-70965714D01*
X122019502Y-71013333D01*
X122448074Y-71584762D02*
X122352836Y-71632381D01*
X122114740Y-71632381D01*
X122019502Y-71584762D01*
X121971883Y-71489524D01*
X121971883Y-71394286D01*
X122019502Y-71299048D01*
X122114740Y-71251429D01*
X122352836Y-71251429D01*
X122448074Y-71203810D01*
X122781407Y-70965714D02*
X123162359Y-70965714D01*
X122924264Y-70632381D02*
X122924264Y-71489524D01*
X122971883Y-71584762D01*
X123067121Y-71632381D01*
X123162359Y-71632381D01*
X123495693Y-71632381D02*
X123495693Y-70965714D01*
X123495693Y-70632381D02*
X123448074Y-70680000D01*
X123495693Y-70727619D01*
X123543312Y-70680000D01*
X123495693Y-70632381D01*
X123495693Y-70727619D01*
X123971883Y-70965714D02*
X123971883Y-71632381D01*
X123971883Y-71060952D02*
X124019502Y-71013333D01*
X124114740Y-70965714D01*
X124257598Y-70965714D01*
X124352836Y-71013333D01*
X124400455Y-71108571D01*
X124400455Y-71632381D01*
X125305217Y-70965714D02*
X125305217Y-71775238D01*
X125257598Y-71870476D01*
X125209979Y-71918095D01*
X125114740Y-71965714D01*
X124971883Y-71965714D01*
X124876645Y-71918095D01*
X125305217Y-71584762D02*
X125209979Y-71632381D01*
X125019502Y-71632381D01*
X124924264Y-71584762D01*
X124876645Y-71537143D01*
X124829026Y-71441905D01*
X124829026Y-71156190D01*
X124876645Y-71060952D01*
X124924264Y-71013333D01*
X125019502Y-70965714D01*
X125209979Y-70965714D01*
X125305217Y-71013333D01*
X126543312Y-71632381D02*
X126543312Y-70632381D01*
X127114741Y-71632381D01*
X127114741Y-70632381D01*
X127971884Y-71584762D02*
X127876646Y-71632381D01*
X127686169Y-71632381D01*
X127590931Y-71584762D01*
X127543312Y-71489524D01*
X127543312Y-71108571D01*
X127590931Y-71013333D01*
X127686169Y-70965714D01*
X127876646Y-70965714D01*
X127971884Y-71013333D01*
X128019503Y-71108571D01*
X128019503Y-71203810D01*
X127543312Y-71299048D01*
X128876646Y-70965714D02*
X128876646Y-71632381D01*
X128448074Y-70965714D02*
X128448074Y-71489524D01*
X128495693Y-71584762D01*
X128590931Y-71632381D01*
X128733789Y-71632381D01*
X128829027Y-71584762D01*
X128876646Y-71537143D01*
X129352836Y-71632381D02*
X129352836Y-70965714D01*
X129352836Y-71156190D02*
X129400455Y-71060952D01*
X129448074Y-71013333D01*
X129543312Y-70965714D01*
X129638551Y-70965714D01*
X130114741Y-71632381D02*
X130019503Y-71584762D01*
X129971884Y-71537143D01*
X129924265Y-71441905D01*
X129924265Y-71156190D01*
X129971884Y-71060952D01*
X130019503Y-71013333D01*
X130114741Y-70965714D01*
X130257599Y-70965714D01*
X130352837Y-71013333D01*
X130400456Y-71060952D01*
X130448075Y-71156190D01*
X130448075Y-71441905D01*
X130400456Y-71537143D01*
X130352837Y-71584762D01*
X130257599Y-71632381D01*
X130114741Y-71632381D01*
X131209980Y-71108571D02*
X131352837Y-71156190D01*
X131400456Y-71203810D01*
X131448075Y-71299048D01*
X131448075Y-71441905D01*
X131400456Y-71537143D01*
X131352837Y-71584762D01*
X131257599Y-71632381D01*
X130876646Y-71632381D01*
X130876646Y-70632381D01*
X131209980Y-70632381D01*
X131305218Y-70680000D01*
X131352837Y-70727619D01*
X131400456Y-70822857D01*
X131400456Y-70918095D01*
X131352837Y-71013333D01*
X131305218Y-71060952D01*
X131209980Y-71108571D01*
X130876646Y-71108571D01*
X131781408Y-70965714D02*
X132019503Y-71632381D01*
X132257599Y-70965714D02*
X132019503Y-71632381D01*
X131924265Y-71870476D01*
X131876646Y-71918095D01*
X131781408Y-71965714D01*
X132495694Y-70965714D02*
X132876646Y-70965714D01*
X132638551Y-70632381D02*
X132638551Y-71489524D01*
X132686170Y-71584762D01*
X132781408Y-71632381D01*
X132876646Y-71632381D01*
X133590933Y-71584762D02*
X133495695Y-71632381D01*
X133305218Y-71632381D01*
X133209980Y-71584762D01*
X133162361Y-71489524D01*
X133162361Y-71108571D01*
X133209980Y-71013333D01*
X133305218Y-70965714D01*
X133495695Y-70965714D01*
X133590933Y-71013333D01*
X133638552Y-71108571D01*
X133638552Y-71203810D01*
X133162361Y-71299048D01*
X134019504Y-71584762D02*
X134114742Y-71632381D01*
X134305218Y-71632381D01*
X134400457Y-71584762D01*
X134448076Y-71489524D01*
X134448076Y-71441905D01*
X134400457Y-71346667D01*
X134305218Y-71299048D01*
X134162361Y-71299048D01*
X134067123Y-71251429D01*
X134019504Y-71156190D01*
X134019504Y-71108571D01*
X134067123Y-71013333D01*
X134162361Y-70965714D01*
X134305218Y-70965714D01*
X134400457Y-71013333D01*
X135638552Y-71632381D02*
X135638552Y-70632381D01*
X135638552Y-71013333D02*
X135733790Y-70965714D01*
X135924267Y-70965714D01*
X136019505Y-71013333D01*
X136067124Y-71060952D01*
X136114743Y-71156190D01*
X136114743Y-71441905D01*
X136067124Y-71537143D01*
X136019505Y-71584762D01*
X135924267Y-71632381D01*
X135733790Y-71632381D01*
X135638552Y-71584762D01*
X136686171Y-71632381D02*
X136590933Y-71584762D01*
X136543314Y-71537143D01*
X136495695Y-71441905D01*
X136495695Y-71156190D01*
X136543314Y-71060952D01*
X136590933Y-71013333D01*
X136686171Y-70965714D01*
X136829029Y-70965714D01*
X136924267Y-71013333D01*
X136971886Y-71060952D01*
X137019505Y-71156190D01*
X137019505Y-71441905D01*
X136971886Y-71537143D01*
X136924267Y-71584762D01*
X136829029Y-71632381D01*
X136686171Y-71632381D01*
X137876648Y-71632381D02*
X137876648Y-71108571D01*
X137829029Y-71013333D01*
X137733791Y-70965714D01*
X137543314Y-70965714D01*
X137448076Y-71013333D01*
X137876648Y-71584762D02*
X137781410Y-71632381D01*
X137543314Y-71632381D01*
X137448076Y-71584762D01*
X137400457Y-71489524D01*
X137400457Y-71394286D01*
X137448076Y-71299048D01*
X137543314Y-71251429D01*
X137781410Y-71251429D01*
X137876648Y-71203810D01*
X138352838Y-71632381D02*
X138352838Y-70965714D01*
X138352838Y-71156190D02*
X138400457Y-71060952D01*
X138448076Y-71013333D01*
X138543314Y-70965714D01*
X138638553Y-70965714D01*
X139400458Y-71632381D02*
X139400458Y-70632381D01*
X139400458Y-71584762D02*
X139305220Y-71632381D01*
X139114743Y-71632381D01*
X139019505Y-71584762D01*
X138971886Y-71537143D01*
X138924267Y-71441905D01*
X138924267Y-71156190D01*
X138971886Y-71060952D01*
X139019505Y-71013333D01*
X139114743Y-70965714D01*
X139305220Y-70965714D01*
X139400458Y-71013333D01*
X119162359Y-73272381D02*
X119162359Y-72272381D01*
X119400454Y-72272381D01*
X119543312Y-72320000D01*
X119638550Y-72415238D01*
X119686169Y-72510476D01*
X119733788Y-72700952D01*
X119733788Y-72843810D01*
X119686169Y-73034286D01*
X119638550Y-73129524D01*
X119543312Y-73224762D01*
X119400454Y-73272381D01*
X119162359Y-73272381D01*
X120352835Y-72272381D02*
X120543312Y-72272381D01*
X120638550Y-72320000D01*
X120733788Y-72415238D01*
X120781407Y-72605714D01*
X120781407Y-72939048D01*
X120733788Y-73129524D01*
X120638550Y-73224762D01*
X120543312Y-73272381D01*
X120352835Y-73272381D01*
X120257597Y-73224762D01*
X120162359Y-73129524D01*
X120114740Y-72939048D01*
X120114740Y-72605714D01*
X120162359Y-72415238D01*
X120257597Y-72320000D01*
X120352835Y-72272381D01*
X121971883Y-73272381D02*
X121971883Y-72272381D01*
X122543312Y-73272381D01*
X122543312Y-72272381D01*
X123209978Y-72272381D02*
X123400455Y-72272381D01*
X123495693Y-72320000D01*
X123590931Y-72415238D01*
X123638550Y-72605714D01*
X123638550Y-72939048D01*
X123590931Y-73129524D01*
X123495693Y-73224762D01*
X123400455Y-73272381D01*
X123209978Y-73272381D01*
X123114740Y-73224762D01*
X123019502Y-73129524D01*
X122971883Y-72939048D01*
X122971883Y-72605714D01*
X123019502Y-72415238D01*
X123114740Y-72320000D01*
X123209978Y-72272381D01*
X123924264Y-72272381D02*
X124495693Y-72272381D01*
X124209978Y-73272381D02*
X124209978Y-72272381D01*
X125590931Y-73272381D02*
X125590931Y-72272381D01*
X125829026Y-72272381D01*
X125971884Y-72320000D01*
X126067122Y-72415238D01*
X126114741Y-72510476D01*
X126162360Y-72700952D01*
X126162360Y-72843810D01*
X126114741Y-73034286D01*
X126067122Y-73129524D01*
X125971884Y-73224762D01*
X125829026Y-73272381D01*
X125590931Y-73272381D01*
X126590931Y-73272381D02*
X126590931Y-72272381D01*
X127019502Y-73224762D02*
X127162359Y-73272381D01*
X127400455Y-73272381D01*
X127495693Y-73224762D01*
X127543312Y-73177143D01*
X127590931Y-73081905D01*
X127590931Y-72986667D01*
X127543312Y-72891429D01*
X127495693Y-72843810D01*
X127400455Y-72796190D01*
X127209978Y-72748571D01*
X127114740Y-72700952D01*
X127067121Y-72653333D01*
X127019502Y-72558095D01*
X127019502Y-72462857D01*
X127067121Y-72367619D01*
X127114740Y-72320000D01*
X127209978Y-72272381D01*
X127448074Y-72272381D01*
X127590931Y-72320000D01*
X128590931Y-73177143D02*
X128543312Y-73224762D01*
X128400455Y-73272381D01*
X128305217Y-73272381D01*
X128162359Y-73224762D01*
X128067121Y-73129524D01*
X128019502Y-73034286D01*
X127971883Y-72843810D01*
X127971883Y-72700952D01*
X128019502Y-72510476D01*
X128067121Y-72415238D01*
X128162359Y-72320000D01*
X128305217Y-72272381D01*
X128400455Y-72272381D01*
X128543312Y-72320000D01*
X128590931Y-72367619D01*
X129209978Y-72272381D02*
X129400455Y-72272381D01*
X129495693Y-72320000D01*
X129590931Y-72415238D01*
X129638550Y-72605714D01*
X129638550Y-72939048D01*
X129590931Y-73129524D01*
X129495693Y-73224762D01*
X129400455Y-73272381D01*
X129209978Y-73272381D01*
X129114740Y-73224762D01*
X129019502Y-73129524D01*
X128971883Y-72939048D01*
X128971883Y-72605714D01*
X129019502Y-72415238D01*
X129114740Y-72320000D01*
X129209978Y-72272381D01*
X130067121Y-73272381D02*
X130067121Y-72272381D01*
X130638550Y-73272381D01*
X130638550Y-72272381D01*
X131114740Y-73272381D02*
X131114740Y-72272381D01*
X131686169Y-73272381D01*
X131686169Y-72272381D01*
X132162359Y-72748571D02*
X132495693Y-72748571D01*
X132638550Y-73272381D02*
X132162359Y-73272381D01*
X132162359Y-72272381D01*
X132638550Y-72272381D01*
X133638550Y-73177143D02*
X133590931Y-73224762D01*
X133448074Y-73272381D01*
X133352836Y-73272381D01*
X133209978Y-73224762D01*
X133114740Y-73129524D01*
X133067121Y-73034286D01*
X133019502Y-72843810D01*
X133019502Y-72700952D01*
X133067121Y-72510476D01*
X133114740Y-72415238D01*
X133209978Y-72320000D01*
X133352836Y-72272381D01*
X133448074Y-72272381D01*
X133590931Y-72320000D01*
X133638550Y-72367619D01*
X133924264Y-72272381D02*
X134495693Y-72272381D01*
X134209978Y-73272381D02*
X134209978Y-72272381D01*
X134829026Y-73177143D02*
X134876645Y-73224762D01*
X134829026Y-73272381D01*
X134781407Y-73224762D01*
X134829026Y-73177143D01*
X134829026Y-73272381D01*
X134829026Y-72891429D02*
X134781407Y-72320000D01*
X134829026Y-72272381D01*
X134876645Y-72320000D01*
X134829026Y-72891429D01*
X134829026Y-72272381D01*
X119162359Y-61952381D02*
X119162359Y-60952381D01*
X119733788Y-61952381D01*
X119733788Y-60952381D01*
X120209978Y-61952381D02*
X120209978Y-60952381D01*
X120686168Y-61952381D02*
X120686168Y-60952381D01*
X120924263Y-60952381D01*
X121067121Y-61000000D01*
X121162359Y-61095238D01*
X121209978Y-61190476D01*
X121257597Y-61380952D01*
X121257597Y-61523810D01*
X121209978Y-61714286D01*
X121162359Y-61809524D01*
X121067121Y-61904762D01*
X120924263Y-61952381D01*
X120686168Y-61952381D01*
X122448073Y-61285714D02*
X122448073Y-62285714D01*
X122448073Y-61333333D02*
X122543311Y-61285714D01*
X122733788Y-61285714D01*
X122829026Y-61333333D01*
X122876645Y-61380952D01*
X122924264Y-61476190D01*
X122924264Y-61761905D01*
X122876645Y-61857143D01*
X122829026Y-61904762D01*
X122733788Y-61952381D01*
X122543311Y-61952381D01*
X122448073Y-61904762D01*
X123495692Y-61952381D02*
X123400454Y-61904762D01*
X123352835Y-61857143D01*
X123305216Y-61761905D01*
X123305216Y-61476190D01*
X123352835Y-61380952D01*
X123400454Y-61333333D01*
X123495692Y-61285714D01*
X123638550Y-61285714D01*
X123733788Y-61333333D01*
X123781407Y-61380952D01*
X123829026Y-61476190D01*
X123829026Y-61761905D01*
X123781407Y-61857143D01*
X123733788Y-61904762D01*
X123638550Y-61952381D01*
X123495692Y-61952381D01*
X124162359Y-61285714D02*
X124352835Y-61952381D01*
X124543312Y-61476190D01*
X124733788Y-61952381D01*
X124924264Y-61285714D01*
X125686169Y-61904762D02*
X125590931Y-61952381D01*
X125400454Y-61952381D01*
X125305216Y-61904762D01*
X125257597Y-61809524D01*
X125257597Y-61428571D01*
X125305216Y-61333333D01*
X125400454Y-61285714D01*
X125590931Y-61285714D01*
X125686169Y-61333333D01*
X125733788Y-61428571D01*
X125733788Y-61523810D01*
X125257597Y-61619048D01*
X126162359Y-61952381D02*
X126162359Y-61285714D01*
X126162359Y-61476190D02*
X126209978Y-61380952D01*
X126257597Y-61333333D01*
X126352835Y-61285714D01*
X126448074Y-61285714D01*
D12*
X117924264Y-60500000D02*
X117924264Y-62500000D01*
X117924264Y-62500000D02*
X114924264Y-62500000D01*
X114924264Y-62500000D02*
X114924264Y-60500000D01*
X114924264Y-60500000D02*
X117924264Y-60500000D01*
D13*
X149924264Y-98500000D02*
X106924264Y-98500000D01*
D12*
X113424264Y-79500000D02*
X113424264Y-60000000D01*
X143424264Y-79500000D02*
X143424264Y-60000000D01*
X123424264Y-89000000D02*
X123424264Y-87500000D01*
X133424264Y-89000000D02*
X133424264Y-87500000D01*
X138424264Y-89000000D02*
X138424264Y-90000000D01*
X118424264Y-89000000D02*
X138424264Y-89000000D01*
X118424264Y-90000000D02*
X118424264Y-89000000D01*
D13*
X106924264Y-90000000D02*
X149924264Y-90000000D01*
X106924264Y-98500000D02*
X106924264Y-90000000D01*
X149924264Y-90000000D02*
X149924264Y-98500000D01*
D12*
X114924264Y-73000000D02*
X114924264Y-71000000D01*
X117924264Y-73000000D02*
X114924264Y-73000000D01*
X117924264Y-71000000D02*
X117924264Y-73000000D01*
X114924264Y-71000000D02*
X117924264Y-71000000D01*
X114924264Y-69500000D02*
X114924264Y-67500000D01*
X117924264Y-69500000D02*
X114924264Y-69500000D01*
X117924264Y-67500000D02*
X117924264Y-69500000D01*
X114924264Y-67500000D02*
X117924264Y-67500000D01*
X114924264Y-66000000D02*
X114924264Y-64000000D01*
X117924264Y-66000000D02*
X114924264Y-66000000D01*
X117924264Y-64000000D02*
X117924264Y-66000000D01*
X114924264Y-64000000D02*
X117924264Y-64000000D01*
D11*
X119162359Y-67952381D02*
X119162359Y-68761905D01*
X119209978Y-68857143D01*
X119257597Y-68904762D01*
X119352835Y-68952381D01*
X119543312Y-68952381D01*
X119638550Y-68904762D01*
X119686169Y-68857143D01*
X119733788Y-68761905D01*
X119733788Y-67952381D01*
X120162359Y-68904762D02*
X120305216Y-68952381D01*
X120543312Y-68952381D01*
X120638550Y-68904762D01*
X120686169Y-68857143D01*
X120733788Y-68761905D01*
X120733788Y-68666667D01*
X120686169Y-68571429D01*
X120638550Y-68523810D01*
X120543312Y-68476190D01*
X120352835Y-68428571D01*
X120257597Y-68380952D01*
X120209978Y-68333333D01*
X120162359Y-68238095D01*
X120162359Y-68142857D01*
X120209978Y-68047619D01*
X120257597Y-68000000D01*
X120352835Y-67952381D01*
X120590931Y-67952381D01*
X120733788Y-68000000D01*
X121495693Y-68428571D02*
X121638550Y-68476190D01*
X121686169Y-68523810D01*
X121733788Y-68619048D01*
X121733788Y-68761905D01*
X121686169Y-68857143D01*
X121638550Y-68904762D01*
X121543312Y-68952381D01*
X121162359Y-68952381D01*
X121162359Y-67952381D01*
X121495693Y-67952381D01*
X121590931Y-68000000D01*
X121638550Y-68047619D01*
X121686169Y-68142857D01*
X121686169Y-68238095D01*
X121638550Y-68333333D01*
X121590931Y-68380952D01*
X121495693Y-68428571D01*
X121162359Y-68428571D01*
X123352836Y-68904762D02*
X123257598Y-68952381D01*
X123067121Y-68952381D01*
X122971883Y-68904762D01*
X122924264Y-68857143D01*
X122876645Y-68761905D01*
X122876645Y-68476190D01*
X122924264Y-68380952D01*
X122971883Y-68333333D01*
X123067121Y-68285714D01*
X123257598Y-68285714D01*
X123352836Y-68333333D01*
X123924264Y-68952381D02*
X123829026Y-68904762D01*
X123781407Y-68857143D01*
X123733788Y-68761905D01*
X123733788Y-68476190D01*
X123781407Y-68380952D01*
X123829026Y-68333333D01*
X123924264Y-68285714D01*
X124067122Y-68285714D01*
X124162360Y-68333333D01*
X124209979Y-68380952D01*
X124257598Y-68476190D01*
X124257598Y-68761905D01*
X124209979Y-68857143D01*
X124162360Y-68904762D01*
X124067122Y-68952381D01*
X123924264Y-68952381D01*
X124686169Y-68952381D02*
X124686169Y-68285714D01*
X124686169Y-68380952D02*
X124733788Y-68333333D01*
X124829026Y-68285714D01*
X124971884Y-68285714D01*
X125067122Y-68333333D01*
X125114741Y-68428571D01*
X125114741Y-68952381D01*
X125114741Y-68428571D02*
X125162360Y-68333333D01*
X125257598Y-68285714D01*
X125400455Y-68285714D01*
X125495693Y-68333333D01*
X125543312Y-68428571D01*
X125543312Y-68952381D01*
X126019502Y-68952381D02*
X126019502Y-68285714D01*
X126019502Y-68380952D02*
X126067121Y-68333333D01*
X126162359Y-68285714D01*
X126305217Y-68285714D01*
X126400455Y-68333333D01*
X126448074Y-68428571D01*
X126448074Y-68952381D01*
X126448074Y-68428571D02*
X126495693Y-68333333D01*
X126590931Y-68285714D01*
X126733788Y-68285714D01*
X126829026Y-68333333D01*
X126876645Y-68428571D01*
X126876645Y-68952381D01*
X127305216Y-68904762D02*
X127400454Y-68952381D01*
X127590930Y-68952381D01*
X127686169Y-68904762D01*
X127733788Y-68809524D01*
X127733788Y-68761905D01*
X127686169Y-68666667D01*
X127590930Y-68619048D01*
X127448073Y-68619048D01*
X127352835Y-68571429D01*
X127305216Y-68476190D01*
X127305216Y-68428571D01*
X127352835Y-68333333D01*
X127448073Y-68285714D01*
X127590930Y-68285714D01*
X127686169Y-68333333D01*
X129067121Y-68952381D02*
X128971883Y-68904762D01*
X128924264Y-68809524D01*
X128924264Y-67952381D01*
X129448074Y-68952381D02*
X129448074Y-68285714D01*
X129448074Y-67952381D02*
X129400455Y-68000000D01*
X129448074Y-68047619D01*
X129495693Y-68000000D01*
X129448074Y-67952381D01*
X129448074Y-68047619D01*
X129924264Y-68285714D02*
X129924264Y-68952381D01*
X129924264Y-68380952D02*
X129971883Y-68333333D01*
X130067121Y-68285714D01*
X130209979Y-68285714D01*
X130305217Y-68333333D01*
X130352836Y-68428571D01*
X130352836Y-68952381D01*
X130829026Y-68952381D02*
X130829026Y-67952381D01*
X130924264Y-68571429D02*
X131209979Y-68952381D01*
X131209979Y-68285714D02*
X130829026Y-68666667D01*
X132829027Y-68952381D02*
X132829027Y-68428571D01*
X132781408Y-68333333D01*
X132686170Y-68285714D01*
X132495693Y-68285714D01*
X132400455Y-68333333D01*
X132829027Y-68904762D02*
X132733789Y-68952381D01*
X132495693Y-68952381D01*
X132400455Y-68904762D01*
X132352836Y-68809524D01*
X132352836Y-68714286D01*
X132400455Y-68619048D01*
X132495693Y-68571429D01*
X132733789Y-68571429D01*
X132829027Y-68523810D01*
X133733789Y-68904762D02*
X133638551Y-68952381D01*
X133448074Y-68952381D01*
X133352836Y-68904762D01*
X133305217Y-68857143D01*
X133257598Y-68761905D01*
X133257598Y-68476190D01*
X133305217Y-68380952D01*
X133352836Y-68333333D01*
X133448074Y-68285714D01*
X133638551Y-68285714D01*
X133733789Y-68333333D01*
X134019503Y-68285714D02*
X134400455Y-68285714D01*
X134162360Y-67952381D02*
X134162360Y-68809524D01*
X134209979Y-68904762D01*
X134305217Y-68952381D01*
X134400455Y-68952381D01*
X134733789Y-68952381D02*
X134733789Y-68285714D01*
X134733789Y-67952381D02*
X134686170Y-68000000D01*
X134733789Y-68047619D01*
X134781408Y-68000000D01*
X134733789Y-67952381D01*
X134733789Y-68047619D01*
X135114741Y-68285714D02*
X135352836Y-68952381D01*
X135590932Y-68285714D01*
X136352837Y-68904762D02*
X136257599Y-68952381D01*
X136067122Y-68952381D01*
X135971884Y-68904762D01*
X135924265Y-68809524D01*
X135924265Y-68428571D01*
X135971884Y-68333333D01*
X136067122Y-68285714D01*
X136257599Y-68285714D01*
X136352837Y-68333333D01*
X136400456Y-68428571D01*
X136400456Y-68523810D01*
X135924265Y-68619048D01*
X119162359Y-65452381D02*
X119162359Y-64452381D01*
X119733788Y-65452381D01*
X119733788Y-64452381D01*
X120590931Y-65404762D02*
X120495693Y-65452381D01*
X120305216Y-65452381D01*
X120209978Y-65404762D01*
X120162359Y-65309524D01*
X120162359Y-64928571D01*
X120209978Y-64833333D01*
X120305216Y-64785714D01*
X120495693Y-64785714D01*
X120590931Y-64833333D01*
X120638550Y-64928571D01*
X120638550Y-65023810D01*
X120162359Y-65119048D01*
X121495693Y-64785714D02*
X121495693Y-65452381D01*
X121067121Y-64785714D02*
X121067121Y-65309524D01*
X121114740Y-65404762D01*
X121209978Y-65452381D01*
X121352836Y-65452381D01*
X121448074Y-65404762D01*
X121495693Y-65357143D01*
X121971883Y-65452381D02*
X121971883Y-64785714D01*
X121971883Y-64976190D02*
X122019502Y-64880952D01*
X122067121Y-64833333D01*
X122162359Y-64785714D01*
X122257598Y-64785714D01*
X122733788Y-65452381D02*
X122638550Y-65404762D01*
X122590931Y-65357143D01*
X122543312Y-65261905D01*
X122543312Y-64976190D01*
X122590931Y-64880952D01*
X122638550Y-64833333D01*
X122733788Y-64785714D01*
X122876646Y-64785714D01*
X122971884Y-64833333D01*
X123019503Y-64880952D01*
X123067122Y-64976190D01*
X123067122Y-65261905D01*
X123019503Y-65357143D01*
X122971884Y-65404762D01*
X122876646Y-65452381D01*
X122733788Y-65452381D01*
X123829027Y-64928571D02*
X123971884Y-64976190D01*
X124019503Y-65023810D01*
X124067122Y-65119048D01*
X124067122Y-65261905D01*
X124019503Y-65357143D01*
X123971884Y-65404762D01*
X123876646Y-65452381D01*
X123495693Y-65452381D01*
X123495693Y-64452381D01*
X123829027Y-64452381D01*
X123924265Y-64500000D01*
X123971884Y-64547619D01*
X124019503Y-64642857D01*
X124019503Y-64738095D01*
X123971884Y-64833333D01*
X123924265Y-64880952D01*
X123829027Y-64928571D01*
X123495693Y-64928571D01*
X124400455Y-64785714D02*
X124638550Y-65452381D01*
X124876646Y-64785714D02*
X124638550Y-65452381D01*
X124543312Y-65690476D01*
X124495693Y-65738095D01*
X124400455Y-65785714D01*
X125114741Y-64785714D02*
X125495693Y-64785714D01*
X125257598Y-64452381D02*
X125257598Y-65309524D01*
X125305217Y-65404762D01*
X125400455Y-65452381D01*
X125495693Y-65452381D01*
X126209980Y-65404762D02*
X126114742Y-65452381D01*
X125924265Y-65452381D01*
X125829027Y-65404762D01*
X125781408Y-65309524D01*
X125781408Y-64928571D01*
X125829027Y-64833333D01*
X125924265Y-64785714D01*
X126114742Y-64785714D01*
X126209980Y-64833333D01*
X126257599Y-64928571D01*
X126257599Y-65023810D01*
X125781408Y-65119048D01*
X126638551Y-65404762D02*
X126733789Y-65452381D01*
X126924265Y-65452381D01*
X127019504Y-65404762D01*
X127067123Y-65309524D01*
X127067123Y-65261905D01*
X127019504Y-65166667D01*
X126924265Y-65119048D01*
X126781408Y-65119048D01*
X126686170Y-65071429D01*
X126638551Y-64976190D01*
X126638551Y-64928571D01*
X126686170Y-64833333D01*
X126781408Y-64785714D01*
X126924265Y-64785714D01*
X127019504Y-64833333D01*
X128686171Y-65404762D02*
X128590933Y-65452381D01*
X128400456Y-65452381D01*
X128305218Y-65404762D01*
X128257599Y-65357143D01*
X128209980Y-65261905D01*
X128209980Y-64976190D01*
X128257599Y-64880952D01*
X128305218Y-64833333D01*
X128400456Y-64785714D01*
X128590933Y-64785714D01*
X128686171Y-64833333D01*
X129257599Y-65452381D02*
X129162361Y-65404762D01*
X129114742Y-65357143D01*
X129067123Y-65261905D01*
X129067123Y-64976190D01*
X129114742Y-64880952D01*
X129162361Y-64833333D01*
X129257599Y-64785714D01*
X129400457Y-64785714D01*
X129495695Y-64833333D01*
X129543314Y-64880952D01*
X129590933Y-64976190D01*
X129590933Y-65261905D01*
X129543314Y-65357143D01*
X129495695Y-65404762D01*
X129400457Y-65452381D01*
X129257599Y-65452381D01*
X130019504Y-65452381D02*
X130019504Y-64785714D01*
X130019504Y-64880952D02*
X130067123Y-64833333D01*
X130162361Y-64785714D01*
X130305219Y-64785714D01*
X130400457Y-64833333D01*
X130448076Y-64928571D01*
X130448076Y-65452381D01*
X130448076Y-64928571D02*
X130495695Y-64833333D01*
X130590933Y-64785714D01*
X130733790Y-64785714D01*
X130829028Y-64833333D01*
X130876647Y-64928571D01*
X130876647Y-65452381D01*
X131352837Y-65452381D02*
X131352837Y-64785714D01*
X131352837Y-64880952D02*
X131400456Y-64833333D01*
X131495694Y-64785714D01*
X131638552Y-64785714D01*
X131733790Y-64833333D01*
X131781409Y-64928571D01*
X131781409Y-65452381D01*
X131781409Y-64928571D02*
X131829028Y-64833333D01*
X131924266Y-64785714D01*
X132067123Y-64785714D01*
X132162361Y-64833333D01*
X132209980Y-64928571D01*
X132209980Y-65452381D01*
X132638551Y-65404762D02*
X132733789Y-65452381D01*
X132924265Y-65452381D01*
X133019504Y-65404762D01*
X133067123Y-65309524D01*
X133067123Y-65261905D01*
X133019504Y-65166667D01*
X132924265Y-65119048D01*
X132781408Y-65119048D01*
X132686170Y-65071429D01*
X132638551Y-64976190D01*
X132638551Y-64928571D01*
X132686170Y-64833333D01*
X132781408Y-64785714D01*
X132924265Y-64785714D01*
X133019504Y-64833333D01*
X134400456Y-65452381D02*
X134305218Y-65404762D01*
X134257599Y-65309524D01*
X134257599Y-64452381D01*
X134781409Y-65452381D02*
X134781409Y-64785714D01*
X134781409Y-64452381D02*
X134733790Y-64500000D01*
X134781409Y-64547619D01*
X134829028Y-64500000D01*
X134781409Y-64452381D01*
X134781409Y-64547619D01*
X135257599Y-64785714D02*
X135257599Y-65452381D01*
X135257599Y-64880952D02*
X135305218Y-64833333D01*
X135400456Y-64785714D01*
X135543314Y-64785714D01*
X135638552Y-64833333D01*
X135686171Y-64928571D01*
X135686171Y-65452381D01*
X136162361Y-65452381D02*
X136162361Y-64452381D01*
X136257599Y-65071429D02*
X136543314Y-65452381D01*
X136543314Y-64785714D02*
X136162361Y-65166667D01*
X138162362Y-65452381D02*
X138162362Y-64928571D01*
X138114743Y-64833333D01*
X138019505Y-64785714D01*
X137829028Y-64785714D01*
X137733790Y-64833333D01*
X138162362Y-65404762D02*
X138067124Y-65452381D01*
X137829028Y-65452381D01*
X137733790Y-65404762D01*
X137686171Y-65309524D01*
X137686171Y-65214286D01*
X137733790Y-65119048D01*
X137829028Y-65071429D01*
X138067124Y-65071429D01*
X138162362Y-65023810D01*
X139067124Y-65404762D02*
X138971886Y-65452381D01*
X138781409Y-65452381D01*
X138686171Y-65404762D01*
X138638552Y-65357143D01*
X138590933Y-65261905D01*
X138590933Y-64976190D01*
X138638552Y-64880952D01*
X138686171Y-64833333D01*
X138781409Y-64785714D01*
X138971886Y-64785714D01*
X139067124Y-64833333D01*
X139352838Y-64785714D02*
X139733790Y-64785714D01*
X139495695Y-64452381D02*
X139495695Y-65309524D01*
X139543314Y-65404762D01*
X139638552Y-65452381D01*
X139733790Y-65452381D01*
X140067124Y-65452381D02*
X140067124Y-64785714D01*
X140067124Y-64452381D02*
X140019505Y-64500000D01*
X140067124Y-64547619D01*
X140114743Y-64500000D01*
X140067124Y-64452381D01*
X140067124Y-64547619D01*
X140448076Y-64785714D02*
X140686171Y-65452381D01*
X140924267Y-64785714D01*
X141686172Y-65404762D02*
X141590934Y-65452381D01*
X141400457Y-65452381D01*
X141305219Y-65404762D01*
X141257600Y-65309524D01*
X141257600Y-64928571D01*
X141305219Y-64833333D01*
X141400457Y-64785714D01*
X141590934Y-64785714D01*
X141686172Y-64833333D01*
X141733791Y-64928571D01*
X141733791Y-65023810D01*
X141257600Y-65119048D01*
D12*
X142424264Y-80500000D02*
X114424264Y-80500000D01*
X114424264Y-59000000D02*
X142424264Y-59000000D01*
X142424264Y-80500000D02*
G75*
G03X143424264Y-79500000I0J1000000D01*
G01*
X143424264Y-60000000D02*
G75*
G03X142424264Y-59000000I-1000000J0D01*
G01*
X114424264Y-59000000D02*
G75*
G03X113424264Y-60000000I0J-1000000D01*
G01*
X113424264Y-79500000D02*
G75*
G03X114424264Y-80500000I1000000J0D01*
G01*
D13*
X110924264Y-87500000D02*
X145924264Y-87500000D01*
X110924264Y-56500000D02*
X110924264Y-87500000D01*
X145924264Y-56500000D02*
X110924264Y-56500000D01*
X145924264Y-87500000D02*
X145924264Y-56500000D01*
D14*
G36*
X114970264Y-93900419D02*
X114971791Y-94515785D01*
X114976370Y-95030728D01*
X114983994Y-95445023D01*
X114994657Y-95758449D01*
X115008355Y-95970782D01*
X115025081Y-96081799D01*
X115026407Y-96085891D01*
X115119587Y-96246777D01*
X115267641Y-96329493D01*
X115419969Y-96346400D01*
X115604368Y-96327570D01*
X115727978Y-96257879D01*
X115823042Y-96124343D01*
X115845077Y-96075268D01*
X115863319Y-96009466D01*
X115878229Y-95917093D01*
X115890269Y-95788306D01*
X115899899Y-95613262D01*
X115907582Y-95382117D01*
X115913779Y-95085029D01*
X115918951Y-94712153D01*
X115923560Y-94253648D01*
X115926348Y-93920700D01*
X115942632Y-91876000D01*
X116905871Y-91876000D01*
X116889471Y-93971500D01*
X116884750Y-94524168D01*
X116879191Y-94985093D01*
X116871577Y-95364130D01*
X116860686Y-95671133D01*
X116845300Y-95915958D01*
X116824198Y-96108461D01*
X116796162Y-96258496D01*
X116759971Y-96375920D01*
X116714406Y-96470587D01*
X116658247Y-96552353D01*
X116590274Y-96631073D01*
X116555790Y-96667832D01*
X116371505Y-96830982D01*
X116168139Y-96940868D01*
X115920886Y-97006468D01*
X115604942Y-97036760D01*
X115529064Y-97039434D01*
X115298894Y-97041153D01*
X115090836Y-97034548D01*
X114937213Y-97020971D01*
X114894064Y-97012846D01*
X114570727Y-96882032D01*
X114316244Y-96676558D01*
X114142739Y-96421575D01*
X114096239Y-96315028D01*
X114057790Y-96189949D01*
X114026682Y-96036341D01*
X114002203Y-95844208D01*
X113983643Y-95603556D01*
X113970290Y-95304389D01*
X113961434Y-94936712D01*
X113956364Y-94490528D01*
X113954369Y-93955843D01*
X113954264Y-93771670D01*
X113954264Y-91876000D01*
X114970264Y-91876000D01*
X114970264Y-93900419D01*
X114970264Y-93900419D01*
G37*
X114970264Y-93900419D02*
X114971791Y-94515785D01*
X114976370Y-95030728D01*
X114983994Y-95445023D01*
X114994657Y-95758449D01*
X115008355Y-95970782D01*
X115025081Y-96081799D01*
X115026407Y-96085891D01*
X115119587Y-96246777D01*
X115267641Y-96329493D01*
X115419969Y-96346400D01*
X115604368Y-96327570D01*
X115727978Y-96257879D01*
X115823042Y-96124343D01*
X115845077Y-96075268D01*
X115863319Y-96009466D01*
X115878229Y-95917093D01*
X115890269Y-95788306D01*
X115899899Y-95613262D01*
X115907582Y-95382117D01*
X115913779Y-95085029D01*
X115918951Y-94712153D01*
X115923560Y-94253648D01*
X115926348Y-93920700D01*
X115942632Y-91876000D01*
X116905871Y-91876000D01*
X116889471Y-93971500D01*
X116884750Y-94524168D01*
X116879191Y-94985093D01*
X116871577Y-95364130D01*
X116860686Y-95671133D01*
X116845300Y-95915958D01*
X116824198Y-96108461D01*
X116796162Y-96258496D01*
X116759971Y-96375920D01*
X116714406Y-96470587D01*
X116658247Y-96552353D01*
X116590274Y-96631073D01*
X116555790Y-96667832D01*
X116371505Y-96830982D01*
X116168139Y-96940868D01*
X115920886Y-97006468D01*
X115604942Y-97036760D01*
X115529064Y-97039434D01*
X115298894Y-97041153D01*
X115090836Y-97034548D01*
X114937213Y-97020971D01*
X114894064Y-97012846D01*
X114570727Y-96882032D01*
X114316244Y-96676558D01*
X114142739Y-96421575D01*
X114096239Y-96315028D01*
X114057790Y-96189949D01*
X114026682Y-96036341D01*
X114002203Y-95844208D01*
X113983643Y-95603556D01*
X113970290Y-95304389D01*
X113961434Y-94936712D01*
X113956364Y-94490528D01*
X113954369Y-93955843D01*
X113954264Y-93771670D01*
X113954264Y-91876000D01*
X114970264Y-91876000D01*
X114970264Y-93900419D01*
G36*
X122525715Y-91852383D02*
X122714132Y-91860206D01*
X122849653Y-91877775D01*
X122956616Y-91908796D01*
X123059361Y-91956977D01*
X123098264Y-91978265D01*
X123284187Y-92115557D01*
X123451987Y-92295681D01*
X123483575Y-92339747D01*
X123561065Y-92466122D01*
X123623147Y-92597797D01*
X123671277Y-92747099D01*
X123706911Y-92926360D01*
X123731504Y-93147908D01*
X123746514Y-93424072D01*
X123753396Y-93767183D01*
X123753606Y-94189570D01*
X123749923Y-94595073D01*
X123733264Y-96018746D01*
X123568371Y-96353484D01*
X123390365Y-96639777D01*
X123172807Y-96842223D01*
X122897752Y-96976252D01*
X122814224Y-97001903D01*
X122627534Y-97033684D01*
X122381441Y-97049281D01*
X122115761Y-97048785D01*
X121870313Y-97032284D01*
X121684916Y-96999867D01*
X121683166Y-96999367D01*
X121392873Y-96873523D01*
X121159618Y-96674434D01*
X120970636Y-96390830D01*
X120951756Y-96353488D01*
X120786864Y-96018753D01*
X120775716Y-95144914D01*
X121781359Y-95144914D01*
X121784734Y-95460714D01*
X121793189Y-95706514D01*
X121807504Y-95892833D01*
X121828453Y-96030193D01*
X121856816Y-96129114D01*
X121893368Y-96200117D01*
X121933525Y-96248461D01*
X122059889Y-96316551D01*
X122237311Y-96346493D01*
X122421375Y-96334881D01*
X122540580Y-96295002D01*
X122595032Y-96252973D01*
X122639001Y-96184503D01*
X122673545Y-96079614D01*
X122699721Y-95928326D01*
X122718586Y-95720659D01*
X122731197Y-95446635D01*
X122738610Y-95096274D01*
X122741884Y-94659597D01*
X122742301Y-94390600D01*
X122741777Y-93956897D01*
X122739635Y-93612639D01*
X122735223Y-93345671D01*
X122727890Y-93143843D01*
X122716982Y-92995002D01*
X122701848Y-92886997D01*
X122681835Y-92807674D01*
X122656291Y-92744883D01*
X122653685Y-92739600D01*
X122539428Y-92595133D01*
X122371928Y-92525407D01*
X122139218Y-92525716D01*
X122117479Y-92528617D01*
X122032569Y-92545336D01*
X121964406Y-92575868D01*
X121911001Y-92630622D01*
X121870367Y-92720012D01*
X121840518Y-92854447D01*
X121819465Y-93044339D01*
X121805222Y-93300098D01*
X121795800Y-93632138D01*
X121789213Y-94050867D01*
X121786746Y-94261228D01*
X121782289Y-94748592D01*
X121781359Y-95144914D01*
X120775716Y-95144914D01*
X120769349Y-94645876D01*
X120765452Y-94091915D01*
X120769132Y-93636500D01*
X120780371Y-93280416D01*
X120799147Y-93024448D01*
X120812347Y-92928507D01*
X120917122Y-92567408D01*
X121090363Y-92267416D01*
X121324860Y-92039771D01*
X121421864Y-91978265D01*
X121528803Y-91923300D01*
X121631559Y-91886774D01*
X121754472Y-91864981D01*
X121921880Y-91854213D01*
X122158122Y-91850764D01*
X122260064Y-91850600D01*
X122525715Y-91852383D01*
X122525715Y-91852383D01*
G37*
X122525715Y-91852383D02*
X122714132Y-91860206D01*
X122849653Y-91877775D01*
X122956616Y-91908796D01*
X123059361Y-91956977D01*
X123098264Y-91978265D01*
X123284187Y-92115557D01*
X123451987Y-92295681D01*
X123483575Y-92339747D01*
X123561065Y-92466122D01*
X123623147Y-92597797D01*
X123671277Y-92747099D01*
X123706911Y-92926360D01*
X123731504Y-93147908D01*
X123746514Y-93424072D01*
X123753396Y-93767183D01*
X123753606Y-94189570D01*
X123749923Y-94595073D01*
X123733264Y-96018746D01*
X123568371Y-96353484D01*
X123390365Y-96639777D01*
X123172807Y-96842223D01*
X122897752Y-96976252D01*
X122814224Y-97001903D01*
X122627534Y-97033684D01*
X122381441Y-97049281D01*
X122115761Y-97048785D01*
X121870313Y-97032284D01*
X121684916Y-96999867D01*
X121683166Y-96999367D01*
X121392873Y-96873523D01*
X121159618Y-96674434D01*
X120970636Y-96390830D01*
X120951756Y-96353488D01*
X120786864Y-96018753D01*
X120775716Y-95144914D01*
X121781359Y-95144914D01*
X121784734Y-95460714D01*
X121793189Y-95706514D01*
X121807504Y-95892833D01*
X121828453Y-96030193D01*
X121856816Y-96129114D01*
X121893368Y-96200117D01*
X121933525Y-96248461D01*
X122059889Y-96316551D01*
X122237311Y-96346493D01*
X122421375Y-96334881D01*
X122540580Y-96295002D01*
X122595032Y-96252973D01*
X122639001Y-96184503D01*
X122673545Y-96079614D01*
X122699721Y-95928326D01*
X122718586Y-95720659D01*
X122731197Y-95446635D01*
X122738610Y-95096274D01*
X122741884Y-94659597D01*
X122742301Y-94390600D01*
X122741777Y-93956897D01*
X122739635Y-93612639D01*
X122735223Y-93345671D01*
X122727890Y-93143843D01*
X122716982Y-92995002D01*
X122701848Y-92886997D01*
X122681835Y-92807674D01*
X122656291Y-92744883D01*
X122653685Y-92739600D01*
X122539428Y-92595133D01*
X122371928Y-92525407D01*
X122139218Y-92525716D01*
X122117479Y-92528617D01*
X122032569Y-92545336D01*
X121964406Y-92575868D01*
X121911001Y-92630622D01*
X121870367Y-92720012D01*
X121840518Y-92854447D01*
X121819465Y-93044339D01*
X121805222Y-93300098D01*
X121795800Y-93632138D01*
X121789213Y-94050867D01*
X121786746Y-94261228D01*
X121782289Y-94748592D01*
X121781359Y-95144914D01*
X120775716Y-95144914D01*
X120769349Y-94645876D01*
X120765452Y-94091915D01*
X120769132Y-93636500D01*
X120780371Y-93280416D01*
X120799147Y-93024448D01*
X120812347Y-92928507D01*
X120917122Y-92567408D01*
X121090363Y-92267416D01*
X121324860Y-92039771D01*
X121421864Y-91978265D01*
X121528803Y-91923300D01*
X121631559Y-91886774D01*
X121754472Y-91864981D01*
X121921880Y-91854213D01*
X122158122Y-91850764D01*
X122260064Y-91850600D01*
X122525715Y-91852383D01*
G36*
X109382937Y-93234900D02*
X109966464Y-94593800D01*
X109979993Y-93234900D01*
X109993523Y-91876000D01*
X110804664Y-91876000D01*
X110804664Y-97006800D01*
X110154850Y-97006800D01*
X109001264Y-94136600D01*
X108987772Y-95571700D01*
X108974281Y-97006800D01*
X108112264Y-97006800D01*
X108112264Y-91876000D01*
X108799411Y-91876000D01*
X109382937Y-93234900D01*
X109382937Y-93234900D01*
G37*
X109382937Y-93234900D02*
X109966464Y-94593800D01*
X109979993Y-93234900D01*
X109993523Y-91876000D01*
X110804664Y-91876000D01*
X110804664Y-97006800D01*
X110154850Y-97006800D01*
X109001264Y-94136600D01*
X108987772Y-95571700D01*
X108974281Y-97006800D01*
X108112264Y-97006800D01*
X108112264Y-91876000D01*
X108799411Y-91876000D01*
X109382937Y-93234900D01*
G36*
X113547864Y-92536400D02*
X112379464Y-92536400D01*
X112379464Y-93958800D01*
X113293864Y-93958800D01*
X113293864Y-94670000D01*
X112379464Y-94670000D01*
X112379464Y-96346400D01*
X113598664Y-96346400D01*
X113598664Y-97006800D01*
X111363464Y-97006800D01*
X111363464Y-91876000D01*
X113547864Y-91876000D01*
X113547864Y-92536400D01*
X113547864Y-92536400D01*
G37*
X113547864Y-92536400D02*
X112379464Y-92536400D01*
X112379464Y-93958800D01*
X113293864Y-93958800D01*
X113293864Y-94670000D01*
X112379464Y-94670000D01*
X112379464Y-96346400D01*
X113598664Y-96346400D01*
X113598664Y-97006800D01*
X111363464Y-97006800D01*
X111363464Y-91876000D01*
X113547864Y-91876000D01*
X113547864Y-92536400D01*
G36*
X118411964Y-91885399D02*
X118761839Y-91892722D01*
X119027270Y-91901193D01*
X119225408Y-91912676D01*
X119373406Y-91929033D01*
X119488417Y-91952128D01*
X119587592Y-91983824D01*
X119682333Y-92023408D01*
X119945305Y-92172058D01*
X120137211Y-92357702D01*
X120264326Y-92593121D01*
X120332926Y-92891092D01*
X120349285Y-93264395D01*
X120345790Y-93374600D01*
X120306087Y-93738080D01*
X120219634Y-94020391D01*
X120081459Y-94232976D01*
X119912498Y-94371853D01*
X119805600Y-94445906D01*
X119748717Y-94500887D01*
X119745851Y-94509043D01*
X119759217Y-94565293D01*
X119796617Y-94705765D01*
X119854336Y-94916946D01*
X119928657Y-95185322D01*
X120015864Y-95497378D01*
X120093964Y-95774900D01*
X120441690Y-97006800D01*
X119412625Y-97006800D01*
X119164486Y-96003500D01*
X119086155Y-95687605D01*
X119013380Y-95395647D01*
X118950686Y-95145656D01*
X118902597Y-94955666D01*
X118873638Y-94843706D01*
X118871318Y-94835100D01*
X118834992Y-94732543D01*
X118778089Y-94684566D01*
X118666874Y-94670637D01*
X118600076Y-94670000D01*
X118373864Y-94670000D01*
X118373864Y-97006800D01*
X117408664Y-97006800D01*
X117408664Y-92536400D01*
X118373864Y-92536400D01*
X118373864Y-94071504D01*
X118760349Y-94051988D01*
X118964130Y-94037971D01*
X119095159Y-94015164D01*
X119182287Y-93974594D01*
X119254362Y-93907287D01*
X119265094Y-93894987D01*
X119372924Y-93702517D01*
X119428273Y-93458758D01*
X119431879Y-93195727D01*
X119384484Y-92945441D01*
X119286826Y-92739916D01*
X119237020Y-92680541D01*
X119150661Y-92603870D01*
X119062774Y-92560481D01*
X118940918Y-92541091D01*
X118752655Y-92536416D01*
X118733371Y-92536400D01*
X118373864Y-92536400D01*
X117408664Y-92536400D01*
X117408664Y-91866812D01*
X118411964Y-91885399D01*
X118411964Y-91885399D01*
G37*
X118411964Y-91885399D02*
X118761839Y-91892722D01*
X119027270Y-91901193D01*
X119225408Y-91912676D01*
X119373406Y-91929033D01*
X119488417Y-91952128D01*
X119587592Y-91983824D01*
X119682333Y-92023408D01*
X119945305Y-92172058D01*
X120137211Y-92357702D01*
X120264326Y-92593121D01*
X120332926Y-92891092D01*
X120349285Y-93264395D01*
X120345790Y-93374600D01*
X120306087Y-93738080D01*
X120219634Y-94020391D01*
X120081459Y-94232976D01*
X119912498Y-94371853D01*
X119805600Y-94445906D01*
X119748717Y-94500887D01*
X119745851Y-94509043D01*
X119759217Y-94565293D01*
X119796617Y-94705765D01*
X119854336Y-94916946D01*
X119928657Y-95185322D01*
X120015864Y-95497378D01*
X120093964Y-95774900D01*
X120441690Y-97006800D01*
X119412625Y-97006800D01*
X119164486Y-96003500D01*
X119086155Y-95687605D01*
X119013380Y-95395647D01*
X118950686Y-95145656D01*
X118902597Y-94955666D01*
X118873638Y-94843706D01*
X118871318Y-94835100D01*
X118834992Y-94732543D01*
X118778089Y-94684566D01*
X118666874Y-94670637D01*
X118600076Y-94670000D01*
X118373864Y-94670000D01*
X118373864Y-97006800D01*
X117408664Y-97006800D01*
X117408664Y-92536400D01*
X118373864Y-92536400D01*
X118373864Y-94071504D01*
X118760349Y-94051988D01*
X118964130Y-94037971D01*
X119095159Y-94015164D01*
X119182287Y-93974594D01*
X119254362Y-93907287D01*
X119265094Y-93894987D01*
X119372924Y-93702517D01*
X119428273Y-93458758D01*
X119431879Y-93195727D01*
X119384484Y-92945441D01*
X119286826Y-92739916D01*
X119237020Y-92680541D01*
X119150661Y-92603870D01*
X119062774Y-92560481D01*
X118940918Y-92541091D01*
X118752655Y-92536416D01*
X118733371Y-92536400D01*
X118373864Y-92536400D01*
X117408664Y-92536400D01*
X117408664Y-91866812D01*
X118411964Y-91885399D01*
G36*
X134680664Y-92587200D02*
X133867864Y-92587200D01*
X133867864Y-97006800D01*
X132902664Y-97006800D01*
X132902664Y-92587200D01*
X132039064Y-92587200D01*
X132039064Y-91876000D01*
X134680664Y-91876000D01*
X134680664Y-92587200D01*
X134680664Y-92587200D01*
G37*
X134680664Y-92587200D02*
X133867864Y-92587200D01*
X133867864Y-97006800D01*
X132902664Y-97006800D01*
X132902664Y-92587200D01*
X132039064Y-92587200D01*
X132039064Y-91876000D01*
X134680664Y-91876000D01*
X134680664Y-92587200D01*
G36*
X136001464Y-97006800D02*
X134985464Y-97006800D01*
X134985464Y-91876000D01*
X136001464Y-91876000D01*
X136001464Y-97006800D01*
X136001464Y-97006800D01*
G37*
X136001464Y-97006800D02*
X134985464Y-97006800D01*
X134985464Y-91876000D01*
X136001464Y-91876000D01*
X136001464Y-97006800D01*
G36*
X137888977Y-93234254D02*
X138465264Y-94592509D01*
X138478793Y-93234254D01*
X138492323Y-91876000D01*
X139303464Y-91876000D01*
X139303464Y-97006800D01*
X138662252Y-97006800D01*
X138112002Y-95622500D01*
X137970597Y-95268781D01*
X137839687Y-94945158D01*
X137724347Y-94663877D01*
X137629652Y-94437180D01*
X137560678Y-94277314D01*
X137522500Y-94196523D01*
X137518208Y-94189940D01*
X137506799Y-94225634D01*
X137496563Y-94351249D01*
X137487868Y-94555108D01*
X137481079Y-94825537D01*
X137476566Y-95150859D01*
X137474694Y-95519397D01*
X137474664Y-95574240D01*
X137474664Y-97006800D01*
X136611064Y-97006800D01*
X136611064Y-91876000D01*
X137312691Y-91876000D01*
X137888977Y-93234254D01*
X137888977Y-93234254D01*
G37*
X137888977Y-93234254D02*
X138465264Y-94592509D01*
X138478793Y-93234254D01*
X138492323Y-91876000D01*
X139303464Y-91876000D01*
X139303464Y-97006800D01*
X138662252Y-97006800D01*
X138112002Y-95622500D01*
X137970597Y-95268781D01*
X137839687Y-94945158D01*
X137724347Y-94663877D01*
X137629652Y-94437180D01*
X137560678Y-94277314D01*
X137522500Y-94196523D01*
X137518208Y-94189940D01*
X137506799Y-94225634D01*
X137496563Y-94351249D01*
X137487868Y-94555108D01*
X137481079Y-94825537D01*
X137476566Y-95150859D01*
X137474694Y-95519397D01*
X137474664Y-95574240D01*
X137474664Y-97006800D01*
X136611064Y-97006800D01*
X136611064Y-91876000D01*
X137312691Y-91876000D01*
X137888977Y-93234254D01*
G36*
X140929064Y-92971198D02*
X140930738Y-93290648D01*
X140935424Y-93571211D01*
X140942615Y-93798659D01*
X140951807Y-93958766D01*
X140962492Y-94037307D01*
X140967164Y-94042643D01*
X140997138Y-93990977D01*
X141060322Y-93859122D01*
X141150625Y-93660585D01*
X141261960Y-93408869D01*
X141388238Y-93117479D01*
X141460899Y-92947445D01*
X141916535Y-91876000D01*
X142387999Y-91876000D01*
X142592755Y-91878541D01*
X142752613Y-91885364D01*
X142845249Y-91895261D01*
X142859464Y-91901457D01*
X142840751Y-91953576D01*
X142788243Y-92086048D01*
X142707378Y-92285505D01*
X142603599Y-92538583D01*
X142482346Y-92831915D01*
X142402264Y-93024572D01*
X142272773Y-93337509D01*
X142157515Y-93619982D01*
X142061966Y-93858247D01*
X141991600Y-94038561D01*
X141951893Y-94147177D01*
X141945064Y-94172173D01*
X141961725Y-94227239D01*
X142008206Y-94363111D01*
X142079248Y-94565246D01*
X142169594Y-94819096D01*
X142273986Y-95110115D01*
X142387167Y-95423759D01*
X142503879Y-95745481D01*
X142618865Y-96060735D01*
X142726866Y-96354976D01*
X142822626Y-96613657D01*
X142900887Y-96822234D01*
X142937498Y-96917900D01*
X142944741Y-96958376D01*
X142917447Y-96984337D01*
X142838781Y-96998950D01*
X142691906Y-97005381D01*
X142464943Y-97006800D01*
X141957953Y-97006800D01*
X141557808Y-95836401D01*
X141157664Y-94666003D01*
X141043616Y-94807701D01*
X141004982Y-94859965D01*
X140976218Y-94917232D01*
X140955866Y-94994424D01*
X140942468Y-95106459D01*
X140934569Y-95268258D01*
X140930711Y-95494742D01*
X140929437Y-95800829D01*
X140929316Y-95978100D01*
X140929064Y-97006800D01*
X139963864Y-97006800D01*
X139963864Y-91876000D01*
X140929064Y-91876000D01*
X140929064Y-92971198D01*
X140929064Y-92971198D01*
G37*
X140929064Y-92971198D02*
X140930738Y-93290648D01*
X140935424Y-93571211D01*
X140942615Y-93798659D01*
X140951807Y-93958766D01*
X140962492Y-94037307D01*
X140967164Y-94042643D01*
X140997138Y-93990977D01*
X141060322Y-93859122D01*
X141150625Y-93660585D01*
X141261960Y-93408869D01*
X141388238Y-93117479D01*
X141460899Y-92947445D01*
X141916535Y-91876000D01*
X142387999Y-91876000D01*
X142592755Y-91878541D01*
X142752613Y-91885364D01*
X142845249Y-91895261D01*
X142859464Y-91901457D01*
X142840751Y-91953576D01*
X142788243Y-92086048D01*
X142707378Y-92285505D01*
X142603599Y-92538583D01*
X142482346Y-92831915D01*
X142402264Y-93024572D01*
X142272773Y-93337509D01*
X142157515Y-93619982D01*
X142061966Y-93858247D01*
X141991600Y-94038561D01*
X141951893Y-94147177D01*
X141945064Y-94172173D01*
X141961725Y-94227239D01*
X142008206Y-94363111D01*
X142079248Y-94565246D01*
X142169594Y-94819096D01*
X142273986Y-95110115D01*
X142387167Y-95423759D01*
X142503879Y-95745481D01*
X142618865Y-96060735D01*
X142726866Y-96354976D01*
X142822626Y-96613657D01*
X142900887Y-96822234D01*
X142937498Y-96917900D01*
X142944741Y-96958376D01*
X142917447Y-96984337D01*
X142838781Y-96998950D01*
X142691906Y-97005381D01*
X142464943Y-97006800D01*
X141957953Y-97006800D01*
X141557808Y-95836401D01*
X141157664Y-94666003D01*
X141043616Y-94807701D01*
X141004982Y-94859965D01*
X140976218Y-94917232D01*
X140955866Y-94994424D01*
X140942468Y-95106459D01*
X140934569Y-95268258D01*
X140930711Y-95494742D01*
X140929437Y-95800829D01*
X140929316Y-95978100D01*
X140929064Y-97006800D01*
X139963864Y-97006800D01*
X139963864Y-91876000D01*
X140929064Y-91876000D01*
X140929064Y-92971198D01*
G36*
X145450264Y-92536400D02*
X144231064Y-92536400D01*
X144231064Y-93958800D01*
X145196264Y-93958800D01*
X145196264Y-94670000D01*
X144231064Y-94670000D01*
X144231064Y-96346400D01*
X145450264Y-96346400D01*
X145450264Y-97006800D01*
X143265864Y-97006800D01*
X143265864Y-91876000D01*
X145450264Y-91876000D01*
X145450264Y-92536400D01*
X145450264Y-92536400D01*
G37*
X145450264Y-92536400D02*
X144231064Y-92536400D01*
X144231064Y-93958800D01*
X145196264Y-93958800D01*
X145196264Y-94670000D01*
X144231064Y-94670000D01*
X144231064Y-96346400D01*
X145450264Y-96346400D01*
X145450264Y-97006800D01*
X143265864Y-97006800D01*
X143265864Y-91876000D01*
X145450264Y-91876000D01*
X145450264Y-92536400D01*
G36*
X146732964Y-91876602D02*
X147205850Y-91884767D01*
X147590335Y-91910619D01*
X147898566Y-91957269D01*
X148142692Y-92027829D01*
X148334860Y-92125411D01*
X148487217Y-92253127D01*
X148564822Y-92345846D01*
X148686929Y-92545793D01*
X148761833Y-92765799D01*
X148797366Y-93035464D01*
X148803064Y-93246131D01*
X148775783Y-93637265D01*
X148690822Y-93952589D01*
X148543504Y-94202973D01*
X148329152Y-94399286D01*
X148297779Y-94420326D01*
X148173695Y-94500853D01*
X148532373Y-95753826D01*
X148891051Y-97006800D01*
X147860625Y-97006800D01*
X147612486Y-96003500D01*
X147534155Y-95687605D01*
X147461380Y-95395647D01*
X147398686Y-95145656D01*
X147350597Y-94955666D01*
X147321638Y-94843706D01*
X147319318Y-94835100D01*
X147282992Y-94732543D01*
X147226089Y-94684566D01*
X147114874Y-94670637D01*
X147048076Y-94670000D01*
X146821864Y-94670000D01*
X146821864Y-97006800D01*
X145856664Y-97006800D01*
X145856664Y-92536400D01*
X146821864Y-92536400D01*
X146821864Y-94060400D01*
X147129186Y-94060400D01*
X147322795Y-94048078D01*
X147495752Y-94016303D01*
X147579231Y-93986595D01*
X147726198Y-93857047D01*
X147819684Y-93646453D01*
X147860838Y-93351806D01*
X147863152Y-93245195D01*
X147841410Y-92964190D01*
X147769212Y-92763149D01*
X147635769Y-92631738D01*
X147430293Y-92559619D01*
X147141997Y-92536458D01*
X147123356Y-92536400D01*
X146821864Y-92536400D01*
X145856664Y-92536400D01*
X145856664Y-91876000D01*
X146732964Y-91876602D01*
X146732964Y-91876602D01*
G37*
X146732964Y-91876602D02*
X147205850Y-91884767D01*
X147590335Y-91910619D01*
X147898566Y-91957269D01*
X148142692Y-92027829D01*
X148334860Y-92125411D01*
X148487217Y-92253127D01*
X148564822Y-92345846D01*
X148686929Y-92545793D01*
X148761833Y-92765799D01*
X148797366Y-93035464D01*
X148803064Y-93246131D01*
X148775783Y-93637265D01*
X148690822Y-93952589D01*
X148543504Y-94202973D01*
X148329152Y-94399286D01*
X148297779Y-94420326D01*
X148173695Y-94500853D01*
X148532373Y-95753826D01*
X148891051Y-97006800D01*
X147860625Y-97006800D01*
X147612486Y-96003500D01*
X147534155Y-95687605D01*
X147461380Y-95395647D01*
X147398686Y-95145656D01*
X147350597Y-94955666D01*
X147321638Y-94843706D01*
X147319318Y-94835100D01*
X147282992Y-94732543D01*
X147226089Y-94684566D01*
X147114874Y-94670637D01*
X147048076Y-94670000D01*
X146821864Y-94670000D01*
X146821864Y-97006800D01*
X145856664Y-97006800D01*
X145856664Y-92536400D01*
X146821864Y-92536400D01*
X146821864Y-94060400D01*
X147129186Y-94060400D01*
X147322795Y-94048078D01*
X147495752Y-94016303D01*
X147579231Y-93986595D01*
X147726198Y-93857047D01*
X147819684Y-93646453D01*
X147860838Y-93351806D01*
X147863152Y-93245195D01*
X147841410Y-92964190D01*
X147769212Y-92763149D01*
X147635769Y-92631738D01*
X147430293Y-92559619D01*
X147141997Y-92536458D01*
X147123356Y-92536400D01*
X146821864Y-92536400D01*
X145856664Y-92536400D01*
X145856664Y-91876000D01*
X146732964Y-91876602D01*
M02*
