G04 #@! TF.FileFunction,Copper,L1,Top,Signal*
%FSLAX46Y46*%
G04 Gerber Fmt 4.6, Leading zero omitted, Abs format (unit mm)*
G04 Created by KiCad (PCBNEW 4.0.7-e2-6376~58~ubuntu14.04.1) date Sun Apr  8 21:09:44 2018*
%MOMM*%
%LPD*%
G01*
G04 APERTURE LIST*
%ADD10C,0.100000*%
%ADD11R,0.800000X0.500000*%
%ADD12C,0.600000*%
%ADD13C,0.200000*%
%ADD14C,0.500000*%
G04 APERTURE END LIST*
D10*
D11*
X115824264Y-61500000D03*
X117024264Y-61500000D03*
X115824264Y-65000000D03*
X117024264Y-65000000D03*
X115824264Y-68500000D03*
X117024264Y-68500000D03*
X115824264Y-72000000D03*
X117024264Y-72000000D03*
D12*
X117824264Y-83750000D03*
X132024264Y-73800000D03*
X128124264Y-73800000D03*
X139724264Y-69700000D03*
X138324264Y-68000000D03*
X122924264Y-57100000D03*
X122924264Y-55800000D03*
X133824264Y-55800000D03*
X133824264Y-57100000D03*
X112424264Y-78500000D03*
X125024264Y-86700000D03*
X126024264Y-90600000D03*
X134324264Y-95400000D03*
X132924264Y-88400000D03*
X141624264Y-88400000D03*
X143624264Y-88400000D03*
X119924264Y-67400000D03*
X114424264Y-71200000D03*
X114424264Y-68500000D03*
X114424264Y-65000000D03*
X114424264Y-61500000D03*
X111824264Y-72100000D03*
X121324264Y-83500000D03*
X125024264Y-59600000D03*
X140424264Y-97800000D03*
X137424264Y-97800000D03*
X125224264Y-81700000D03*
X128624264Y-78900000D03*
X118424264Y-74454416D03*
X124824264Y-78500000D03*
X118424264Y-77000000D03*
X119697056Y-78272792D03*
X120969848Y-77000000D03*
X119697056Y-75727208D03*
X117151472Y-75727208D03*
X115878680Y-77000000D03*
X117151472Y-78272792D03*
X118424264Y-79545584D03*
X130424264Y-89500000D03*
X135224264Y-97400000D03*
X121124264Y-88400000D03*
X123124264Y-84800000D03*
X126924264Y-70100000D03*
X133424264Y-84900000D03*
X117824264Y-70400000D03*
X123674264Y-76400000D03*
X112424264Y-75700000D03*
X119024264Y-83750000D03*
X132924264Y-78800000D03*
X144824264Y-79600000D03*
X142824264Y-69700000D03*
X141824264Y-68000000D03*
X131724264Y-59600000D03*
X139524264Y-97600000D03*
X143624264Y-86800000D03*
X141624264Y-86400000D03*
X123824264Y-78500000D03*
X127224264Y-81000000D03*
X118624264Y-62400000D03*
X124024264Y-66800000D03*
X126030194Y-70096442D03*
X125924264Y-71700000D03*
X139664266Y-91200000D03*
X139624264Y-85600000D03*
X132024264Y-82200000D03*
X127024264Y-74500000D03*
X136724264Y-78700000D03*
X141224264Y-83200000D03*
X125924264Y-78500000D03*
X130424264Y-80000000D03*
X125324264Y-73900000D03*
X118824264Y-71800000D03*
X118924264Y-84800000D03*
X120624264Y-82000000D03*
X131424264Y-81600000D03*
X126424264Y-75100000D03*
X130424264Y-99200000D03*
X126424264Y-99200000D03*
X124624264Y-97200000D03*
X132224264Y-97200000D03*
D13*
X115824264Y-72000000D02*
X115224264Y-72000000D01*
X115224264Y-72000000D02*
X114424264Y-71200000D01*
X115824264Y-68500000D02*
X114424264Y-68500000D01*
X115824264Y-65000000D02*
X114424264Y-65000000D01*
X115824264Y-61500000D02*
X114424264Y-61500000D01*
X124424264Y-79100000D02*
X125324264Y-79100000D01*
X125324264Y-79100000D02*
X126100000Y-79875736D01*
X123824264Y-78500000D02*
X124424264Y-79100000D01*
X127224264Y-81000000D02*
X126100000Y-79875736D01*
X118624264Y-62400000D02*
X117724264Y-61500000D01*
X117724264Y-61500000D02*
X117024264Y-61500000D01*
X117624264Y-65000000D02*
X119424264Y-66800000D01*
X124024264Y-66800000D02*
X119424264Y-66800000D01*
X117024264Y-65000000D02*
X117624264Y-65000000D01*
X125843741Y-69909989D02*
X126030194Y-70096442D01*
X118037387Y-68950000D02*
X118997376Y-69909989D01*
X117174264Y-68500000D02*
X117624264Y-68950000D01*
X117624264Y-68950000D02*
X118037387Y-68950000D01*
X118997376Y-69909989D02*
X125843741Y-69909989D01*
X117024264Y-68500000D02*
X117174264Y-68500000D01*
X125924264Y-71700000D02*
X125924264Y-71275736D01*
X125924264Y-70900000D02*
X125324264Y-70300000D01*
X125924264Y-71275736D02*
X125924264Y-70900000D01*
X117024264Y-70600000D02*
X117024264Y-72000000D01*
X117024264Y-70221419D02*
X117024264Y-70600000D01*
X117480902Y-69764781D02*
X117024264Y-70221419D01*
X118289045Y-69764781D02*
X117480902Y-69764781D01*
X118824264Y-70300000D02*
X118289045Y-69764781D01*
X125324264Y-70300000D02*
X118824264Y-70300000D01*
X139664266Y-91200000D02*
X139664266Y-85640002D01*
X139664266Y-85640002D02*
X139624264Y-85600000D01*
X131824264Y-81100000D02*
X132024264Y-81300000D01*
X132024264Y-81300000D02*
X132024264Y-82200000D01*
X131824264Y-79900000D02*
X131824264Y-81100000D01*
X127024264Y-75100000D02*
X131824264Y-79900000D01*
X127024264Y-74500000D02*
X127024264Y-75100000D01*
D14*
X141224264Y-83200000D02*
X136724264Y-78700000D01*
D13*
X130000000Y-80000000D02*
X127424264Y-80000000D01*
X127424264Y-80000000D02*
X125924264Y-78500000D01*
X130424264Y-80000000D02*
X130000000Y-80000000D01*
X121024264Y-73100000D02*
X121824264Y-73900000D01*
X121824264Y-73900000D02*
X125324264Y-73900000D01*
X121024264Y-72400000D02*
X121024264Y-73100000D01*
X120724263Y-72099999D02*
X121024264Y-72400000D01*
X118824264Y-71800000D02*
X119124263Y-72099999D01*
X119124263Y-72099999D02*
X120724263Y-72099999D01*
X118824264Y-71800000D02*
X118924264Y-71800000D01*
X119324264Y-84400000D02*
X118924264Y-84800000D01*
X120324265Y-83399999D02*
X119324264Y-84400000D01*
X120624264Y-82000000D02*
X120324265Y-82299999D01*
X120324265Y-82299999D02*
X120324265Y-83399999D01*
X130824264Y-79500000D02*
X131424264Y-80100000D01*
X131424264Y-80100000D02*
X131424264Y-81600000D01*
X126424264Y-75100000D02*
X130824264Y-79500000D01*
M02*
